<svg width="152" height="112" viewBox="0 0 152 112" fill="none" xmlns="http://www.w3.org/2000/svg">
<g clip-path="url(#clip0_7_859)">
<path d="M64 29C65.2182 28.826 65.2182 28.826 66.4609 28.6484C67.2163 28.6201 67.9717 28.5917 68.75 28.5625C69.9295 28.6186 69.9295 28.6186 71.1328 28.6758C72.5521 28.8363 72.5521 28.8363 74 29C74.6455 29.0817 75.291 29.1634 75.9561 29.2476C77.0258 29.3938 77.0258 29.3938 78.1172 29.543C78.8545 29.6533 79.5917 29.7637 80.3513 29.8774C81.1016 30.0004 81.8519 30.1233 82.625 30.25C83.3682 30.3858 84.1115 30.5217 84.8772 30.6616C85.5971 30.8055 86.3169 30.9494 87.0586 31.0977C87.7455 31.2473 88.4324 31.397 89.1401 31.5513C89.7539 31.6994 90.3676 31.8474 91 32C92.3168 32.4003 92.3168 32.4003 93.6602 32.8086C94.3292 33.0986 94.9982 33.3887 95.6875 33.6875C96.2598 34.0304 96.8322 34.3733 97.4219 34.7266C98.203 35.3569 98.203 35.3569 99 36C99.5827 36.544 100.165 37.088 100.766 37.6484C101.317 38.2801 101.869 38.9117 102.438 39.5625C102.913 40.2586 103.389 40.9547 103.879 41.6719C104.434 42.8243 104.434 42.8243 105 44C105.195 44.8508 105.389 45.7016 105.59 46.5781C105.684 47.4805 105.778 48.3828 105.875 49.3125C105.905 50.2445 105.934 51.1765 105.965 52.1367C105.976 53.0816 105.988 54.0265 106 55C106.084 55.9346 106.168 56.8691 106.254 57.832C106.314 58.7537 106.375 59.6754 106.438 60.625C106.428 61.5248 106.419 62.4245 106.41 63.3516C106.275 64.2255 106.139 65.0995 106 66C105.627 66.8534 105.255 67.7067 104.871 68.5859C104.377 69.3826 103.884 70.1792 103.375 71C102.821 71.7232 102.266 72.4463 101.695 73.1914C101.136 73.7882 100.576 74.3851 100 75C99.0925 75.6394 98.185 76.2788 97.25 76.9375C96.1775 77.2881 95.105 77.6387 94 78C93.1879 78.1779 92.3758 78.3558 91.5391 78.5391C90.6599 78.7118 89.7808 78.8845 88.875 79.0625C88.0474 79.1979 87.2198 79.3332 86.3672 79.4727C85.586 79.6467 84.8048 79.8207 84 80C83.2936 80.3364 82.5872 80.6729 81.8594 81.0195C80.939 81.5049 80.939 81.5049 80 82C79.1338 82.2062 78.2675 82.4125 77.375 82.625C75.7044 82.8106 75.7044 82.8106 74 83C73.3245 83.0541 72.6491 83.1083 71.9531 83.1641C71.1848 83.1924 70.4166 83.2208 69.625 83.25C68.7742 83.2397 67.9234 83.2294 67.0469 83.2188C66.0414 83.1466 65.0359 83.0744 64 83C63.3767 82.9227 62.7535 82.8453 62.1113 82.7656C61.4404 82.6677 60.7694 82.5697 60.0781 82.4688C59.3895 82.3566 58.7009 82.2445 57.9915 82.1289C56.9438 81.9413 56.9438 81.9413 55.875 81.75C55.1785 81.6146 54.482 81.4793 53.7644 81.3398C53.088 81.1968 52.4117 81.0537 51.7148 80.9062C51.0689 80.7567 50.4229 80.6072 49.7573 80.4531C49.1774 80.3036 48.5975 80.1541 48 80C47.1557 79.7216 46.3113 79.4431 45.4414 79.1562C44.7801 78.8572 44.1188 78.5581 43.4375 78.25C42.8548 77.9123 42.2722 77.5745 41.6719 77.2266C41.1202 76.8218 40.5684 76.417 40 76C39.3658 75.4715 38.7316 74.943 38.0781 74.3984C37.4542 73.8132 36.8303 73.228 36.1875 72.625C35.6242 72.0153 35.0609 71.4055 34.4805 70.7773C33.9919 70.1908 33.5034 69.6043 33 69C32.01 67.6078 32.01 67.6078 31 66.1875C30.67 65.1356 30.34 64.0838 30 63C29.982 62.2124 29.9639 61.4248 29.9453 60.6133C30.0046 59.7509 30.0639 58.8885 30.125 58C30.2513 57.135 30.3777 56.2701 30.5078 55.3789C30.6702 54.5939 30.8327 53.8088 31 53C31.33 51.9894 31.66 50.9787 32 49.9375C32.3964 49.2569 32.3964 49.2569 32.8008 48.5625C33.1965 48.0469 33.5923 47.5312 34 47C34.6329 46.2781 35.2659 45.5562 35.918 44.8125C36.6669 44.0288 37.4159 43.245 38.1875 42.4375C38.9906 41.6692 39.7937 40.9009 40.6211 40.1094C41.4061 39.4133 42.1912 38.7172 43 38C43.6304 37.4895 44.2607 36.9791 44.9102 36.4531C45.5173 36.0355 46.1245 35.6178 46.75 35.1875C47.3971 34.8162 48.0442 34.445 48.7109 34.0625C49.4663 33.7119 50.2217 33.3613 51 33C52.0029 32.6081 53.0058 32.2163 54.0391 31.8125C54.5818 31.6222 55.1245 31.4319 55.6836 31.2358C56.2418 31.0549 56.7999 30.8739 57.375 30.6875C57.9409 30.5207 58.5068 30.354 59.0898 30.1821C59.6506 30.0318 60.2113 29.8815 60.7891 29.7266C61.8487 29.4868 62.9083 29.247 64 29Z" fill="black"/>
</g>
<defs>
<clipPath id="clip0_7_859">
<rect width="456" height="2405" fill="white" transform="translate(-304 -1362)"/>
</clipPath>
</defs>
</svg>
