<svg width="152" height="173" viewBox="0 0 152 173" fill="none" xmlns="http://www.w3.org/2000/svg">
<g clip-path="url(#clip0_7_859)">
<path d="M111 46C112.098 46.2882 113.195 46.5764 114.326 46.8733C115.65 47.431 115.65 47.431 117 48C117.598 48.5982 118.196 49.1963 118.812 49.8125C119.4 50.8954 119.4 50.8954 120 52C120.18 52.7143 120.36 53.4286 120.545 54.1646C120.695 55.1003 120.845 56.036 121 57C121.049 57.5538 121.098 58.1075 121.149 58.678C121.187 59.2817 121.226 59.8854 121.265 60.5074C121.316 61.4778 121.316 61.4778 121.367 62.4678C121.399 63.1565 121.432 63.8452 121.465 64.5547C121.502 65.2848 121.54 66.0149 121.578 66.7671C121.618 67.5283 121.657 68.2895 121.697 69.0738C121.736 69.858 121.775 70.6422 121.815 71.4502C121.856 72.2504 121.896 73.0506 121.938 73.875C121.98 74.6825 122.023 75.49 122.067 76.3219C122.11 77.1337 122.154 77.9454 122.199 78.7818C122.244 79.5928 122.288 80.4038 122.334 81.2393C122.378 82.0472 122.423 82.8552 122.469 83.6875C122.536 84.8966 122.536 84.8966 122.604 86.1301C122.648 86.9187 122.693 87.7072 122.738 88.5196C122.782 89.2819 122.826 90.0442 122.871 90.8296C122.914 91.5459 122.956 92.2621 123 93C123.06 93.9564 123.06 93.9564 123.121 94.9322C123.16 95.5205 123.198 96.1088 123.238 96.7149C123.314 97.799 123.39 98.8831 123.469 100C123.546 101.003 123.622 102.007 123.702 103.04C123.779 103.976 123.857 104.911 123.938 105.875C124.056 107.235 124.056 107.235 124.177 108.622C124.261 109.483 124.344 110.344 124.43 111.231C124.563 112.442 124.563 112.442 124.698 113.677C124.798 114.444 124.897 115.21 125 116C125.18 117.109 125.18 117.109 125.364 118.241C125.494 118.941 125.624 119.642 125.758 120.363C125.891 121.019 126.024 121.675 126.16 122.35C126.359 123.26 126.359 123.26 126.562 124.188C126.811 125.233 127.06 126.278 127.316 127.356C127.542 128.228 127.768 129.101 128 130C128.178 130.722 128.356 131.444 128.539 132.188C128.691 132.786 128.843 133.384 129 134C129.402 135.392 129.402 135.392 129.812 136.813C130.204 137.864 130.596 138.916 131 140C131.36 140.571 131.719 141.142 132.09 141.731C132.473 142.314 132.856 142.898 133.25 143.5C133.601 144.079 133.951 144.658 134.312 145.254C134.539 145.83 134.766 146.406 135 147C134.938 147.587 134.876 148.173 134.812 148.777C134.534 149.599 134.534 149.599 134.25 150.438C133.838 151.283 133.425 152.129 133 153C132.412 152.756 131.824 152.513 131.219 152.262C130.487 151.845 129.754 151.429 129 151C128.118 150.082 128.118 150.082 127.219 149.145C126.652 148.375 126.084 147.605 125.5 146.813C124.894 145.922 124.288 145.031 123.664 144.113C123.376 143.619 123.087 143.125 122.79 142.616C122.529 142.083 122.269 141.549 122 141C121.793 140.414 121.587 139.828 121.374 139.224C121.196 138.608 121.019 137.991 120.836 137.356C120.673 136.724 120.509 136.093 120.341 135.442C120.11 134.481 120.11 134.481 119.875 133.5C119.72 132.857 119.565 132.213 119.405 131.55C119.251 130.916 119.096 130.282 118.938 129.629C118.707 128.703 118.707 128.703 118.473 127.758C118.317 127.178 118.161 126.598 118 126C117.67 125.019 117.34 124.038 117 123.027C116.629 122.173 116.257 121.318 115.875 120.438C115.265 119.347 115.265 119.347 114.643 118.233C114.101 117.496 113.559 116.759 113 116C111.991 115.262 111.991 115.262 110.962 114.509C110.178 114.069 109.394 113.629 108.586 113.176C107.697 112.667 106.809 112.159 105.893 111.635C104.461 110.826 104.461 110.826 103 110C102.021 109.42 101.042 108.84 100.033 108.242C99.5325 107.943 99.0323 107.644 98.5169 107.336C98.0112 107.035 97.5054 106.733 96.9844 106.422C96.2194 105.97 96.2194 105.97 95.4389 105.509C94.9254 105.207 94.4119 104.905 93.8828 104.594C93.3675 104.291 92.8522 103.988 92.3213 103.676C91.8028 103.37 91.2842 103.065 90.75 102.75C90.2244 102.437 89.6988 102.125 89.1572 101.803C88.6335 101.491 88.1099 101.18 87.5703 100.859C87.0525 100.555 86.5346 100.251 86.001 99.9369C85.5005 99.6432 85 99.3495 84.4844 99.0469C83.574 98.5091 82.6636 97.9712 81.7256 97.417C80.3764 96.7156 80.3764 96.7156 79 96C77.9851 95.6069 76.9702 95.2137 75.9246 94.8086C74.9595 94.5418 73.9944 94.275 73 94C72.2679 93.9411 71.5358 93.8821 70.7815 93.8213C70.1021 93.8855 69.4227 93.9496 68.7227 94.0157C67.9532 94.1259 67.1838 94.2361 66.3911 94.3497C65.2075 94.6716 65.2075 94.6716 64 95C62.8261 95.5618 62.8261 95.5618 61.6284 96.1348C60.8423 96.6008 60.0561 97.0668 59.2461 97.5469C58.454 98.0625 57.6618 98.5782 56.8457 99.1094C56.051 99.6508 55.2563 100.192 54.4375 100.75C53.6389 101.276 52.8404 101.802 52.0176 102.344C50.8313 103.125 50.8313 103.125 49.6211 103.922C48.8522 104.44 48.0834 104.958 47.2913 105.492C46.1571 106.239 46.1571 106.239 45 107C43.8494 107.683 43.8494 107.683 42.6755 108.381C41.5948 109.018 41.5948 109.018 40.4922 109.668C39.529 110.218 39.529 110.218 38.5464 110.778C38.0361 111.181 37.5258 111.585 37 112C36.7184 112.593 36.4368 113.187 36.1467 113.798C35.9952 114.38 35.8436 114.963 35.6875 115.563C35.5754 116.243 35.4632 116.924 35.3477 117.625C35.2329 118.409 35.1182 119.193 35 120C34.6887 121.454 34.6887 121.454 34.3711 122.938C34.1249 123.969 33.8787 125 33.625 126.063C33.3672 127.085 33.1094 128.107 32.8438 129.16C32.5653 130.097 32.2869 131.034 32 132C31.7009 132.721 31.4019 133.441 31.0938 134.184C30.7741 134.783 30.4544 135.382 30.125 136C29.7924 136.527 29.4598 137.054 29.1172 137.598C28.7485 138.06 28.3798 138.523 28 139C27.3232 139.648 27.3232 139.648 26.6328 140.309C26.1765 140.681 25.7202 141.054 25.25 141.438C24.5075 141.953 23.765 142.469 23 143C22.9381 141.928 22.8762 140.855 22.8125 139.75C22.8099 139.014 22.8073 138.278 22.8047 137.52C22.8691 136.688 22.9336 135.857 23 135C23.3132 133.676 23.3132 133.676 23.6328 132.324C23.8984 131.372 24.1639 130.419 24.4375 129.438C24.8513 127.916 24.8513 127.916 25.2734 126.363C25.5132 125.253 25.753 124.144 26 123C26.0686 122.37 26.1373 121.74 26.208 121.091C26.2554 120.436 26.3028 119.781 26.3516 119.106C26.391 118.444 26.4304 117.783 26.4709 117.102C26.5012 116.45 26.5314 115.797 26.5625 115.125C26.5818 114.507 26.601 113.889 26.6208 113.252C26.6558 112.358 26.6558 112.358 26.6914 111.445C26.7932 110.308 26.8951 109.171 27 108C27.3145 107.113 27.6291 106.226 27.9531 105.313C28.2986 104.219 28.6441 103.126 29 102C29.1211 101.148 29.2422 100.296 29.3669 99.4175C29.4663 98.4316 29.5656 97.4456 29.668 96.4297C29.8009 94.8512 29.8009 94.8512 29.9365 93.2408C30.0608 91.5747 30.0608 91.5747 30.1875 89.875C30.2793 88.7296 30.3712 87.5841 30.4658 86.4039C30.5086 85.8249 30.5514 85.2459 30.5956 84.6494C30.6349 84.069 30.6743 83.4886 30.7148 82.8907C30.7503 82.3096 30.7857 81.7284 30.8222 81.1297C30.851 80.5539 30.8799 79.9781 30.9097 79.3848C30.9395 78.2678 30.9693 77.1509 31 76C30.9641 74.9759 30.9281 73.9517 30.8911 72.8965C30.7923 71.455 30.7923 71.455 30.6914 69.9844C30.5895 68.6195 30.5895 68.6195 30.4856 67.2271C30.4078 66.3684 30.3301 65.5097 30.25 64.625C30.1445 63.8063 30.0391 62.9876 29.9304 62.1441C29.8554 61.3876 29.7804 60.6311 29.7031 59.8516C29.677 58.8273 29.677 58.8273 29.6504 57.7823C29.7658 57.1941 29.8811 56.606 30 56C30.3783 55.5434 30.7567 55.0867 31.1465 54.6163C31.6499 54.2556 32.1532 53.895 32.6719 53.5235C33.173 53.2417 33.6741 52.9598 34.1904 52.6695C34.7876 52.4486 35.3847 52.2277 36 52C37.0801 51.7505 37.0801 51.7505 38.182 51.496C39.1119 51.3323 40.0419 51.1687 41 51C42.0621 50.8933 43.1241 50.7865 44.2184 50.6765C44.8056 50.6302 45.3928 50.5838 45.9977 50.5361C46.6249 50.4898 47.252 50.4435 47.8982 50.3958C48.572 50.3437 49.2459 50.2915 49.9401 50.2378C51.0019 50.1563 51.0019 50.1563 52.0852 50.0731C52.819 50.0184 53.5529 49.9636 54.309 49.9072C55.0617 49.8515 55.8143 49.7957 56.5898 49.7383C57.35 49.6816 58.1103 49.6248 58.8935 49.5664C59.6657 49.5088 60.4379 49.4512 61.2335 49.3919C62.019 49.3337 62.8045 49.2754 63.6138 49.2153C64.4109 49.1565 65.208 49.0977 66.0293 49.0372C66.8382 48.9782 67.647 48.9193 68.4804 48.8585C69.297 48.7991 70.1135 48.7397 70.9548 48.6785C71.7759 48.6186 72.597 48.5587 73.4429 48.497C74.2661 48.4361 75.0893 48.3753 75.9375 48.3125C76.7601 48.2497 77.5826 48.1869 78.4301 48.1222C79.2501 48.059 80.07 47.9957 80.9148 47.9305C81.7302 47.8675 82.5456 47.8046 83.3857 47.7397C84.1936 47.678 85.0016 47.6163 85.834 47.5528C86.6311 47.4939 87.4282 47.435 88.2494 47.3744C89.4282 47.2886 89.4282 47.2886 90.6308 47.201C91.4036 47.1453 92.1764 47.0896 92.9727 47.0323C93.7332 46.9765 94.4938 46.9208 95.2773 46.8633C96.4047 46.7746 96.4047 46.7746 97.5547 46.684C98.2877 46.6266 99.0207 46.5692 99.7759 46.5101C100.485 46.46 101.194 46.4098 101.925 46.3581C102.601 46.3113 103.276 46.2644 103.972 46.2161C104.91 46.1376 104.91 46.1376 105.867 46.0574C106.457 46.0195 107.047 45.9817 107.655 45.9426C108.759 45.9616 109.863 45.9805 111 46ZM94 55C92.7804 55.1037 92.7804 55.1037 91.5361 55.2095C90.2846 55.3321 90.2846 55.3321 89.0078 55.4571C88.1848 55.5445 87.3618 55.6319 86.5139 55.722C85.7049 55.8137 84.896 55.9055 84.0625 56C82.8636 56.1425 82.8636 56.1425 81.6404 56.2879C80.9044 56.3785 80.1684 56.4692 79.4102 56.5625C78.2848 56.7069 77.1595 56.8513 76 57C75.9581 57.7813 75.9162 58.5626 75.873 59.3675C75.8221 60.4541 75.7712 61.5407 75.7188 62.6602C75.6998 63.2429 75.6808 63.8256 75.6613 64.4259C75.6441 65.0298 75.627 65.6337 75.6094 66.2559C75.5933 66.8813 75.5771 67.5068 75.5605 68.1512C75.5406 68.7819 75.5206 69.4127 75.5 70.0625C75.4658 70.6809 75.4317 71.2992 75.3965 71.9363C75.3636 72.5471 75.3307 73.1579 75.2969 73.7872C75.2767 74.3897 75.2564 74.9921 75.2356 75.6129C75.23 76.206 75.2245 76.7991 75.2188 77.4102C75.2293 77.9982 75.2399 78.5861 75.2507 79.1919C75.2905 79.758 75.3302 80.324 75.3711 80.9073C75.6824 82.4382 75.6824 82.4382 76 84C76.5066 84.7551 77.0132 85.5102 77.5352 86.2881C78.5232 87.1916 78.5232 87.1916 79.5312 88.1133C80.2589 88.6279 80.9866 89.1425 81.7363 89.6727C82.4833 90.1107 83.2304 90.5487 84 91C84.6697 91.3936 85.3393 91.7872 86.0293 92.1927C86.6796 92.5442 87.33 92.8957 88 93.2579C88.6556 93.571 89.3111 93.8842 89.9866 94.2068C90.9832 94.6613 90.9832 94.6613 92 95.125C92.6999 95.4571 93.3998 95.7891 94.1208 96.1311C94.8119 96.463 95.5029 96.7949 96.2148 97.1368C96.8734 97.4531 97.5319 97.7694 98.2104 98.0953C98.801 98.3938 99.3916 98.6924 100 99C100.847 99.5221 101.694 100.044 102.566 100.582C103.554 101.253 103.554 101.253 104.562 101.938C105.433 102.51 105.433 102.51 106.32 103.094C106.875 103.393 107.429 103.692 108 104C108.986 104.294 108.986 104.294 109.992 104.594C110.634 104.707 111.276 104.821 111.938 104.938C112.948 104.958 113.959 104.979 115 105C115.495 104.01 115.495 104.01 116 103C115.996 102.364 115.992 101.727 115.989 101.071C115.892 99.8925 115.892 99.8925 115.794 98.6897C115.723 97.7986 115.653 96.9075 115.58 95.9894C115.497 95.0249 115.414 94.0603 115.328 93.0665C115.245 92.0776 115.162 91.0887 115.076 90.0699C114.989 89.0484 114.902 88.027 114.812 86.9747C114.72 85.923 114.627 84.8714 114.531 83.7879C114.438 82.7235 114.346 81.6592 114.25 80.5625C114.121 78.9687 114.121 78.9687 113.99 77.3426C113.864 75.7683 113.864 75.7683 113.734 74.1622C113.646 73.1404 113.558 72.1187 113.466 71.0659C113.38 70.0761 113.293 69.0863 113.203 68.0665C113.09 66.6226 113.09 66.6226 112.975 65.1496C112.892 64.2553 112.809 63.3611 112.724 62.4397C112.656 61.653 112.589 60.8663 112.519 60.0557C112.262 59.0382 112.262 59.0382 112 58C111.551 57.421 111.101 56.8419 110.639 56.2453C110.098 55.8343 109.557 55.4234 109 55C108.029 54.8802 107.059 54.7603 106.059 54.6368C105.483 54.6361 104.908 54.6355 104.315 54.6348C103.385 54.6609 103.385 54.6609 102.438 54.6875C101.793 54.6959 101.148 54.7043 100.484 54.7129C99.4672 54.7371 99.4672 54.7371 98.4297 54.7618C97.7191 54.7932 97.0085 54.8246 96.2764 54.857C95.5252 54.9042 94.774 54.9514 94 55ZM46 57C44.9945 57.4396 43.9891 57.8792 42.9531 58.3321C42.3086 58.8825 41.6641 59.4329 41 60C40.67 60.99 40.34 61.98 40 63C39.973 63.6712 39.946 64.3423 39.9182 65.0337C39.9362 65.7986 39.9541 66.5635 39.9727 67.3516C39.9849 68.2037 39.9971 69.0557 40.0098 69.9336C40.0272 70.8218 40.0446 71.71 40.0625 72.625C40.0838 73.49 40.105 74.355 40.127 75.2461C40.1434 76.5358 40.1434 76.5358 40.1602 77.8516C40.1563 78.7073 40.1524 79.563 40.1484 80.4446C40.0995 81.2879 40.0505 82.1312 40 83C39.853 83.835 39.7061 84.6699 39.5547 85.5301C39.3729 86.3207 39.1912 87.1113 39.0039 87.9258C38.8203 88.6262 38.6367 89.3266 38.4475 90.0481C38.2998 90.6923 38.1522 91.3364 38 92C37.9561 92.6216 37.9122 93.2432 37.8669 93.8836C37.8696 94.4376 37.8723 94.9917 37.875 95.5625C37.9163 96.3669 37.9575 97.1713 38 98C39.1137 98.0825 40.2275 98.165 41.375 98.25C42.102 98.25 42.8291 98.25 43.5781 98.25C44.3773 98.1675 45.1766 98.085 46 98C46.8405 97.7525 47.6809 97.505 48.5469 97.25C49.823 96.755 49.823 96.755 51.125 96.25C51.9655 95.8762 52.8059 95.5024 53.6719 95.1172C54.4402 94.7486 55.2084 94.3799 56 94C56.9049 93.6017 56.9049 93.6017 57.8281 93.1954C58.3386 92.9247 58.8491 92.654 59.375 92.375C59.8288 92.0309 60.2825 91.6867 60.75 91.3321C61.1625 90.8925 61.575 90.4529 62 90C62.4125 89.4264 62.825 88.8528 63.25 88.2618C63.6213 87.536 63.9925 86.8103 64.375 86.0625C64.6857 85.2079 64.9963 84.3532 65.3164 83.4727C65.4429 82.9547 65.5694 82.4366 65.6997 81.9029C65.7988 81.2749 65.8979 80.647 66 80C66.0887 78.77 66.0887 78.77 66.1792 77.5152C66.2278 76.1445 66.2278 76.1445 66.2773 74.7461C66.2904 73.8044 66.3034 72.8627 66.3169 71.8924C66.3154 70.9379 66.314 69.9834 66.3125 69C66.3059 68.0552 66.2993 67.1104 66.2925 66.137C66.2746 65.2462 66.2567 64.3554 66.2383 63.4375C66.2181 62.6319 66.1978 61.8262 66.177 60.9961C66.1186 60.3374 66.0602 59.6787 66 59C65.67 58.34 65.34 57.68 65 57C64.4132 56.9094 63.8263 56.8188 63.2217 56.7254C62.4627 56.7168 61.7038 56.7081 60.9219 56.6993C60.0904 56.6922 59.259 56.6851 58.4023 56.6778C57.5271 56.681 56.6518 56.6842 55.75 56.6875C54.8902 56.6714 54.0304 56.6553 53.1445 56.6387C52.3079 56.6381 51.4713 56.6374 50.6094 56.6368C49.8056 56.6682 49.0019 56.6996 48.1738 56.732C47.0978 56.8647 47.0978 56.8647 46 57Z" fill="black"/>
</g>
<defs>
<clipPath id="clip0_7_859">
<rect width="456" height="2405" fill="white" transform="translate(-304 -160)"/>
</clipPath>
</defs>
</svg>
