<svg width="152" height="154" viewBox="0 0 152 154" fill="none" xmlns="http://www.w3.org/2000/svg">
<g clip-path="url(#clip0_7_859)">
<path d="M31 25C31.9281 25.1031 32.8562 25.2062 33.8125 25.3125C35.3903 25.6528 35.3903 25.6528 37 26C37.5272 26.3816 38.0545 26.7631 38.5977 27.1562C39.0604 27.7647 39.5232 28.3731 40 29C40.3016 29.9423 40.6033 30.8846 40.9141 31.8555C41.1487 32.955 41.3833 34.0546 41.625 35.1875C41.8648 36.2742 42.1045 37.3609 42.3516 38.4805C42.5186 39.3381 42.5186 39.3381 42.6891 40.2131C42.7917 40.8028 42.8943 41.3925 43 42C43.0881 42.5993 43.1762 43.1987 43.267 43.8162C43.3484 44.4466 43.4298 45.077 43.5137 45.7266C43.5994 46.4283 43.6851 47.1301 43.7733 47.8531C43.8481 48.5616 43.9229 49.27 44 50C44.0475 50.6474 44.095 51.2948 44.1439 51.9617C44.1787 52.598 44.2136 53.2343 44.2495 53.8899C44.2798 54.5403 44.3101 55.1907 44.3413 55.8608C44.3705 56.5319 44.3996 57.2031 44.4297 57.8945C44.4835 58.9656 44.4835 58.9656 44.5384 60.0583C44.5948 61.1615 44.5948 61.1615 44.6523 62.2871C44.6896 63.0299 44.7268 63.7726 44.7651 64.5378C44.8014 65.2885 44.8376 66.0391 44.875 66.8125C44.9077 67.572 44.9404 68.3315 44.9741 69.114C45.0072 69.8672 45.0402 70.6204 45.0742 71.3965C45.1125 72.1303 45.1508 72.8642 45.1902 73.6203C45.228 74.3295 45.2658 75.0388 45.3047 75.7695C45.3298 76.4508 45.3549 77.132 45.3808 77.8339C45.4174 78.4686 45.454 79.1032 45.4917 79.7571C45.6594 80.8272 45.8272 81.8974 46 83C46.4459 83.6411 46.8919 84.2823 47.3513 84.9429C47.8954 85.2917 48.4394 85.6406 49 86C50.0145 86.0477 51.029 86.0954 52.0742 86.1445C52.656 86.1001 53.2378 86.0557 53.8372 86.01C54.4478 85.9448 55.0584 85.8797 55.6875 85.8125C56.6237 85.7273 56.6237 85.7273 57.5789 85.6404C58.1999 85.5786 58.821 85.5168 59.4609 85.4531C60.0678 85.3803 60.6746 85.3075 61.2998 85.2324C61.8609 85.1557 62.4219 85.079 63 85C63.8791 84.8505 64.7583 84.7009 65.6641 84.5469C66.373 84.387 67.082 84.2272 67.8125 84.0625C69.3903 83.5366 69.3903 83.5366 71 83C71.495 82.01 71.495 82.01 72 81C72.0438 80.2411 72.0877 79.4823 72.1328 78.7004C72.1289 77.2651 72.1289 77.2651 72.125 75.8008C72.116 74.7214 72.107 73.6419 72.0977 72.5298C72.0849 71.9539 72.0722 71.378 72.0591 70.7847C72.0396 70.1958 72.0201 69.6068 72 69C71.9715 68.411 71.943 67.8221 71.9136 67.2153C71.8616 66.3225 71.8616 66.3225 71.8086 65.4116C71.7697 64.8076 71.7308 64.2036 71.6907 63.5813C71.6484 62.9705 71.6061 62.3597 71.5625 61.7305C71.5183 61.1137 71.474 60.4969 71.4285 59.8614C71.3595 58.9294 71.3595 58.9294 71.2891 57.9785C71.2417 57.355 71.1943 56.7315 71.1455 56.0891C71.0735 55.1478 71.0735 55.1478 71 54.1875C70.928 53.2329 70.928 53.2329 70.8545 52.259C70.8071 51.6251 70.7597 50.9911 70.7109 50.3379C70.6651 49.7115 70.6193 49.0851 70.572 48.4398C70.5276 47.8345 70.4832 47.2291 70.4375 46.6055C70.3537 45.5036 70.2699 44.4017 70.1836 43.2664C70.123 42.1885 70.0624 41.1106 70 40C69.9791 39.0608 69.9791 39.0608 69.9578 38.1026C69.9537 37.4786 69.9495 36.8547 69.9453 36.2119C69.9634 35.152 69.9814 34.0921 70 33C70.1444 32.3413 70.2887 31.6826 70.4375 31.0039C70.7159 30.2904 70.7159 30.2904 71 29.5625C71.33 28.7169 71.66 27.8712 72 27C73.1447 26.9691 73.1447 26.9691 74.3125 26.9375C75.1994 27.2881 76.0863 27.6387 77 28C77.3068 28.5672 77.6136 29.1344 77.9297 29.7188C78.1798 30.4509 78.4298 31.1831 78.6875 31.9375C79.0297 33.1479 79.0297 33.1479 79.3789 34.3828C79.5839 35.2465 79.7888 36.1102 80 37C80.292 38.3264 80.292 38.3264 80.5898 39.6797C80.7664 40.5485 80.943 41.4173 81.125 42.3125C81.272 43.113 81.4189 43.9135 81.5703 44.7383C81.7121 45.4846 81.8539 46.231 82 47C82.0593 47.7154 82.1186 48.4309 82.1797 49.168C82.4504 49.7725 82.7211 50.3771 83 51C83.7837 51.4035 84.5675 51.807 85.375 52.2227C85.9151 52.3698 86.4552 52.5169 87.0117 52.6685C87.6679 52.7779 88.324 52.8873 89 53C89.8108 53.0643 90.6216 53.1286 91.457 53.1948C92.8086 53.2511 92.8086 53.2511 94.1875 53.3086C95.1337 53.3337 96.0798 53.3589 97.0547 53.3848C98.0266 53.4022 98.9986 53.4196 100 53.4375C100.972 53.451 101.944 53.4646 102.945 53.4785C103.891 53.5049 104.838 53.5314 105.812 53.5586C106.712 53.6023 107.612 53.6459 108.539 53.6909C109.351 53.7929 110.163 53.8949 111 54C111.668 54.2322 112.335 54.4644 113.023 54.7036C113.573 54.978 114.122 55.2524 114.688 55.5352C115.451 56.0186 116.214 56.502 117 57C116.451 57.7356 116.451 57.7356 115.89 58.4861C115.266 58.9857 114.643 59.4853 114 60C113.066 60.1019 112.131 60.2038 111.168 60.3088C110.043 60.2804 108.917 60.252 107.758 60.2227C107.152 60.2137 106.547 60.2047 105.923 60.1954C105.298 60.1857 104.672 60.176 104.027 60.166C103.387 60.1497 102.746 60.1333 102.085 60.1165C101.439 60.0986 100.792 60.0808 100.125 60.0625C99.4816 60.0465 98.8382 60.0304 98.1753 60.0139C97.5387 59.9997 96.902 59.9854 96.2461 59.9707C95.6198 59.9607 94.9934 59.9506 94.3481 59.9403C93.4372 59.9254 93.4372 59.9254 92.5078 59.9102C91.38 59.8806 90.2523 59.851 89.0903 59.8206C88.0705 59.8798 87.0507 59.939 86 60C85.0614 60.3112 84.1228 60.6225 83.1558 60.9431C82.4444 61.2919 81.733 61.6407 81 62C80.67 62.33 80.34 62.66 80 63C80.0168 63.9243 80.0335 64.8485 80.0508 65.8008C80.0901 66.366 80.1294 66.9313 80.1699 67.5137C80.217 68.1073 80.264 68.7009 80.3125 69.3125C80.3911 70.4636 80.4698 71.6148 80.5508 72.8008C80.699 73.8565 80.8473 74.9123 81 76C81.2997 77.1041 81.2997 77.1041 81.6055 78.2305C82.0657 78.8144 82.5259 79.3984 83 80C83.941 80.5569 84.882 81.1137 85.8516 81.6875C86.4732 81.926 87.0949 82.1645 87.7354 82.4102C88.4827 82.6048 89.23 82.7995 90 83C91.3878 83.1837 91.3878 83.1837 92.8037 83.3711C93.825 83.4549 94.8462 83.5387 95.8984 83.625C96.9542 83.692 98.0099 83.7591 99.0977 83.8281C100.179 83.8848 101.261 83.9416 102.375 84C104.032 84.0851 104.032 84.0851 105.723 84.1719C106.771 84.2389 107.819 84.3059 108.898 84.375C109.854 84.424 110.81 84.473 111.794 84.5234C112.522 84.6807 113.25 84.838 114 85C114.33 85.99 114.66 86.98 115 88C114.394 88.205 113.788 88.4099 113.164 88.6211C111.907 89.0252 111.907 89.0252 110.625 89.4375C109.813 89.7043 109.001 89.9712 108.164 90.2461C107.12 90.4949 106.076 90.7437 105 91C104.05 91.1425 104.05 91.1425 103.081 91.2878C102.337 91.3707 101.594 91.4536 100.828 91.5391C99.9633 91.6166 99.0985 91.6942 98.2075 91.7742C96.6198 91.886 96.6198 91.886 95 92C94.0134 92.0571 94.0134 92.0571 93.0068 92.1154C91.9281 92.173 91.9281 92.173 90.8276 92.2317C90.0687 92.2701 89.3097 92.3084 88.5278 92.348C87.7375 92.3865 86.9471 92.4251 86.1328 92.4648C85.3266 92.5038 84.5204 92.5427 83.6897 92.5828C82.8679 92.6219 82.046 92.6609 81.1992 92.7012C80.3644 92.7404 79.5296 92.7796 78.6694 92.8201C77.8298 92.8588 76.9901 92.8976 76.125 92.9375C75.2889 92.9745 74.4528 93.0115 73.5913 93.0496C72.3453 93.1053 72.3453 93.1053 71.0742 93.1621C70.2526 93.2006 69.4309 93.2391 68.5844 93.2788C67.7754 93.3196 66.9664 93.3603 66.1328 93.4023C65.3384 93.4468 64.5441 93.4913 63.7256 93.5371C62.5684 93.6087 62.5684 93.6087 61.3877 93.6816C60.6449 93.7327 59.9021 93.7838 59.1368 93.8364C58.4317 93.8904 57.7265 93.9444 57 94C56.3451 94.0554 55.6902 94.1109 55.0155 94.168C54.4055 94.2279 53.7955 94.2879 53.167 94.3496C52.0781 94.4908 50.9891 94.6319 49.8672 94.7773C48.9376 94.8997 48.008 95.0221 47.0503 95.1482C46.0354 95.5698 46.0354 95.5698 45 96C44.591 97.0988 44.591 97.0988 44.1738 98.2197C44.1165 99.0135 44.0591 99.8072 44 100.625C44.116 101.518 44.232 102.412 44.3516 103.332C44.5655 104.212 44.7795 105.093 45 106C45.1934 106.746 45.3867 107.493 45.5859 108.262C45.8463 108.938 46.1067 109.615 46.375 110.312C46.9338 111.272 46.9338 111.272 47.5039 112.25C47.9976 112.827 48.4913 113.405 49 114C49.6484 114.495 50.2968 114.99 50.9648 115.5C51.7396 115.933 52.5143 116.366 53.3125 116.812C54.1602 117.167 55.0079 117.521 55.8813 117.886C56.9105 118.254 57.9397 118.621 59 119C60.5903 119.429 60.5903 119.429 62.2126 119.868C63.0629 120.06 63.0629 120.06 63.9302 120.256C64.5295 120.381 65.1287 120.505 65.7461 120.633C66.391 120.764 67.0359 120.894 67.7004 121.029C68.3751 121.153 69.0497 121.277 69.7449 121.405C70.787 121.569 70.787 121.569 71.8502 121.738C72.5596 121.824 73.2691 121.911 74 122C74.7147 122.046 75.4293 122.092 76.1657 122.14C77.2493 122.173 77.2493 122.173 78.3547 122.207C79.4509 122.219 79.4509 122.219 80.5692 122.231C81.6719 122.227 81.6719 122.227 82.7969 122.223C83.5319 122.216 84.2669 122.209 85.0242 122.202C85.7613 122.19 86.4984 122.178 87.2578 122.166C88.3643 122.141 88.3643 122.141 89.4932 122.116C90.2379 122.099 90.9827 122.081 91.75 122.062C92.516 122.046 93.2821 122.03 94.0713 122.014C94.8341 122 95.5969 121.985 96.3828 121.971C97.1246 121.961 97.8664 121.951 98.6307 121.94C99.3455 121.93 100.06 121.92 100.797 121.91C101.478 121.89 102.159 121.871 102.861 121.85C103.493 121.841 104.125 121.831 104.776 121.821C105.84 121.88 106.904 121.939 108 122C108.664 122.27 109.328 122.54 110.013 122.818C110.501 123.403 110.501 123.403 111 124C110.505 125.485 110.505 125.485 110 127C109.047 127.387 108.095 127.773 107.113 128.172C106.48 128.327 105.846 128.483 105.194 128.643C104.108 128.82 104.108 128.82 103 129C102.195 129.061 101.39 129.122 100.56 129.186C99.2522 129.225 99.2522 129.225 97.918 129.266C96.9952 129.27 96.0725 129.274 95.1218 129.279C93.6693 129.265 93.6693 129.265 92.1875 129.25C90.6644 129.238 90.6644 129.238 89.1106 129.225C88.0841 129.21 87.0576 129.195 86 129.18C84.9829 129.154 83.9659 129.127 82.918 129.101C81.955 129.067 80.9921 129.034 80 129C79.1634 128.964 78.3268 128.928 77.4648 128.892C76.6927 128.847 75.9205 128.803 75.125 128.758C74.3813 128.701 73.6376 128.645 72.8713 128.586C72.1507 128.517 71.43 128.447 70.6875 128.375C69.9739 128.291 69.2603 128.207 68.5251 128.121C67.8143 128.019 67.1035 127.917 66.3711 127.812C65.3074 127.631 65.3074 127.631 64.2222 127.445C63.4889 127.298 62.7555 127.151 62 127C60.8014 126.725 60.8014 126.725 59.5786 126.445C58.7599 126.236 57.9412 126.028 57.0977 125.812C56.2892 125.585 55.4807 125.357 54.6477 125.122C53.8565 124.876 53.0652 124.629 52.25 124.375C51.4878 124.11 50.7255 123.846 49.9402 123.573C48.8638 123.158 48.8638 123.158 47.7656 122.734C47.1011 122.448 46.4366 122.161 45.752 121.865C45.1738 121.58 44.5957 121.294 44 121C43.2111 120.469 42.4222 119.938 41.6094 119.391C41.0783 118.808 40.5472 118.225 40 117.625C39.4238 116.581 39.4238 116.581 38.8359 115.516C38.5601 114.685 38.2842 113.855 38 113C37.7448 112.005 37.4895 111.01 37.2266 109.984C37.1195 109.413 37.0124 108.841 36.9021 108.252C36.8107 107.633 36.7192 107.013 36.625 106.375C36.5522 105.72 36.4795 105.064 36.4045 104.389C36.3471 103.667 36.2897 102.946 36.2305 102.203C36.1858 101.405 36.1412 100.606 36.0952 99.7832C36.0638 98.8647 36.0324 97.9463 36 97C35.9741 95.3284 35.9741 95.3284 35.9478 93.623C35.9431 93.0221 35.9384 92.4211 35.9336 91.8019C35.931 91.1815 35.9284 90.5611 35.9258 89.9219C35.9248 89.292 35.9238 88.6621 35.9229 88.0131C35.9233 87.3731 35.9238 86.733 35.9243 86.0735C35.926 85.4246 35.9277 84.7757 35.9295 84.1071C35.9321 83.453 35.9348 82.7989 35.9375 82.125C35.9408 81.4684 35.9441 80.8118 35.9474 80.1353C35.9511 79.4806 35.9547 78.8258 35.9585 78.1511C35.9622 77.5028 35.9659 76.8545 35.9697 76.1866C35.9733 75.5462 35.9768 74.9059 35.9805 74.2461C35.9837 73.613 35.9869 72.9799 35.9902 72.3277C35.9927 71.7128 35.9951 71.0979 35.9976 70.4644C35.9984 69.3211 35.9992 68.1779 36 67C35.9918 66.0617 35.9836 65.1234 35.9751 64.1567C35.9588 63.3329 35.9425 62.509 35.9258 61.6602C35.9006 60.8973 35.8755 60.1344 35.8496 59.3484C35.8167 58.6353 35.7839 57.9222 35.75 57.1875C35.7133 56.497 35.6765 55.8064 35.6387 55.095C35.589 54.4217 35.5394 53.7484 35.4883 53.0547C35.4221 52.3957 35.3558 51.7366 35.2876 51.0576C35.1927 50.3786 35.0978 49.6996 35 49C34.8548 48.2488 34.7096 47.4976 34.5601 46.7236C34.3894 45.9512 34.2188 45.1787 34.043 44.3828C33.8635 43.6169 33.684 42.8509 33.499 42.0618C33.3137 41.3195 33.1284 40.5773 32.9375 39.8125C32.7509 39.1289 32.5643 38.4453 32.3721 37.741C32.1964 37.0904 32.0208 36.4398 31.8398 35.7695C31.6811 35.1464 31.5224 34.5233 31.3589 33.8813C31.1812 32.9501 31.1812 32.9501 31 32C30.9602 31.3263 30.9204 30.6526 30.8794 29.9585C30.8792 29.3161 30.8791 28.6736 30.8789 28.0117C30.9189 27.0179 30.9588 26.024 31 25Z" fill="black"/>
</g>
<defs>
<clipPath id="clip0_7_859">
<rect width="456" height="2405" fill="white" transform="translate(-152 -143)"/>
</clipPath>
</defs>
</svg>
