<svg width="152" height="162" viewBox="0 0 152 162" fill="none" xmlns="http://www.w3.org/2000/svg">
<g clip-path="url(#clip0_7_859)">
<path d="M71 12C71.5814 12.0993 72.1627 12.1985 72.7617 12.3008C73.1704 12.8615 73.579 13.4223 74 14C74.1714 14.9217 74.3429 15.8434 74.5195 16.793C74.6162 17.9132 74.7129 19.0334 74.8125 20.1875C74.9208 21.0683 74.9208 21.0683 75.0312 21.9668C75.1202 22.5488 75.2091 23.1308 75.3008 23.7305C75.6469 25.3489 75.6469 25.3489 76 27C76.3648 27.7386 76.7296 28.4773 77.1055 29.2383C77.5657 29.8196 78.0259 30.401 78.5 31C79.044 31.5259 79.588 32.0519 80.1484 32.5938C81.065 33.2898 81.065 33.2898 82 34C82.6316 34.4228 83.2633 34.8456 83.9141 35.2812C84.6437 35.6834 85.3733 36.0856 86.125 36.5C86.9603 36.8893 87.7956 37.2786 88.6562 37.6797C89.4046 37.9886 89.4046 37.9886 90.168 38.3037C91.0748 38.6484 91.0748 38.6484 92 39C92.7954 39.2788 93.5907 39.5575 94.4102 39.8447C95.7385 40.2967 95.7385 40.2967 97.0938 40.7578C98.0011 41.0665 98.9084 41.3753 99.8433 41.6934C100.761 42.0008 101.679 42.3082 102.625 42.625C103.996 43.0591 103.996 43.0591 105.395 43.502C106.673 43.9225 106.673 43.9225 107.977 44.3516C109.138 44.7202 109.138 44.7202 110.323 45.0962C110.876 45.3944 111.43 45.6927 112 46C112 46.99 112 47.98 112 49C110.515 49.495 110.515 49.495 109 50C107.573 49.9961 107.573 49.9961 106.117 49.9922C105.047 49.9535 103.977 49.9148 102.875 49.875C101.8 49.8312 100.725 49.7873 99.6172 49.7422C98.7535 49.8273 97.8898 49.9123 97 50C96.67 50.99 96.34 51.98 96 53C95.9573 53.6898 95.9146 54.3796 95.8706 55.0903C95.8695 55.8881 95.8683 56.6859 95.8672 57.5078C95.8653 58.4039 95.8633 59.2999 95.8613 60.2231C95.8658 61.1808 95.8704 62.1384 95.875 63.125C95.8769 64.1097 95.8789 65.0944 95.8809 66.1089C95.8867 67.1042 95.8925 68.0995 95.8984 69.125C95.911 70.1189 95.9236 71.1127 95.9365 72.1367C95.9679 73.554 95.9679 73.554 96 75C96.0338 75.8263 96.0677 76.6526 96.1025 77.5039C96.1435 78.2657 96.1844 79.0276 96.2266 79.8125C96.2703 80.539 96.3141 81.2656 96.3591 82.0142C96.4056 82.7107 96.4521 83.4073 96.5 84.125C96.5746 85.1525 96.5746 85.1525 96.6506 86.2007C96.6976 86.8641 96.7446 87.5275 96.793 88.2109C96.8347 88.8474 96.8764 89.4839 96.9194 90.1396C96.946 90.7536 96.9726 91.3675 97 92C96.9944 92.5959 96.9887 93.1917 96.9829 93.8057C96.9641 94.3777 96.9452 94.9497 96.9258 95.5391C96.8697 97.1285 96.8697 97.1285 96.8125 98.75C96.8061 99.6949 96.7996 100.64 96.793 101.613C96.8613 102.401 96.9296 103.189 97 104C97.5362 104.969 98.0725 105.939 98.625 106.938C99.4087 107.618 100.192 108.299 101 109C101.505 109.345 102.011 109.691 102.531 110.047C103.32 110.611 103.32 110.611 104.125 111.188C104.632 111.597 105.138 112.007 105.66 112.43C106.102 112.948 106.544 113.466 107 114C107.308 114.745 107.616 115.49 107.934 116.258C108.141 117.101 108.349 117.944 108.562 118.812C108.69 119.68 108.818 120.548 108.949 121.441C108.966 122.286 108.983 123.13 109 124C108.862 124.731 108.724 125.462 108.582 126.215C108.349 126.886 108.115 127.558 107.875 128.25C107.5 129.124 107.5 129.124 107.117 130.016C106.749 130.67 106.38 131.325 106 132C105.448 132.968 104.897 133.936 104.328 134.934C103.979 135.448 103.63 135.963 103.271 136.493C102.852 136.99 102.432 137.488 102 138C101.471 138.432 100.942 138.863 100.397 139.308C99.8096 139.708 99.2223 140.108 98.6172 140.52C98.0075 140.902 97.3977 141.284 96.7695 141.678C96.1443 142.052 95.5191 142.427 94.875 142.812C94.2421 143.206 93.6091 143.6 92.957 144.006C92.0463 144.57 92.0463 144.57 91.1172 145.145C90.5666 145.478 90.016 145.812 89.4487 146.156C88.7316 146.574 88.7316 146.574 88 147C87.34 147.33 86.68 147.66 86 148C85.1686 148.104 84.3371 148.209 83.4805 148.316C82.3938 148.398 81.3071 148.479 80.1875 148.562C79.2872 148.623 79.2872 148.623 78.3687 148.685C77.7223 148.723 77.076 148.761 76.4102 148.801C75.7142 148.835 75.0183 148.869 74.3013 148.905C73.5419 148.936 72.7824 148.968 72 149C71.1465 149.03 70.293 149.06 69.4136 149.091C68.5127 149.117 67.6118 149.142 66.6836 149.168C65.7649 149.183 64.8462 149.199 63.8997 149.215C62.5262 149.232 62.5262 149.232 61.125 149.25C60.2461 149.271 59.3672 149.293 58.4617 149.315C57.6106 149.319 56.7596 149.324 55.8828 149.328C54.6471 149.288 54.6471 149.288 53.3865 149.247C52.2052 149.125 52.2052 149.125 51 149C50.2544 148.824 49.5087 148.648 48.7405 148.466C48.0462 148.231 47.352 147.996 46.6367 147.754C45.6767 147.345 45.6767 147.345 44.6973 146.927C44.1372 146.621 43.5771 146.315 43 146C42.1995 145.323 41.399 144.646 40.5742 143.949C39.6403 142.83 39.6403 142.83 38.6875 141.688C38.0327 140.89 37.3778 140.092 36.7031 139.27C36.1411 138.521 35.5791 137.772 35 137C34.603 136.447 34.2059 135.894 33.7969 135.324C33.5133 134.846 33.2297 134.368 32.9375 133.875C32.6281 132.926 32.3187 131.978 32 131C32.0413 129.866 32.0825 128.731 32.125 127.562C32.2475 126.976 32.3699 126.389 32.4961 125.785C32.6624 125.196 32.8287 124.607 33 124C33.1766 123.421 33.3532 122.842 33.5352 122.246C33.7504 121.67 33.9657 121.094 34.1875 120.5C34.453 119.926 34.7186 119.353 34.9922 118.762C35.3248 118.18 35.6573 117.599 36 117C36.4357 116.388 36.8714 115.775 37.3203 115.145C37.8127 114.54 38.3052 113.935 38.8125 113.312C39.3281 112.738 39.8438 112.163 40.375 111.57C40.9112 111.052 41.4475 110.534 42 110C42.5569 109.585 43.1137 109.17 43.6875 108.742C44.2237 108.394 44.76 108.046 45.3125 107.688C46.1994 107.131 47.0863 106.574 48 106C48.33 105.34 48.66 104.68 49 104C49.1044 103.015 49.2088 102.03 49.3164 101.016C49.3797 100.12 49.3797 100.12 49.4443 99.2058C49.4833 98.5604 49.5223 97.915 49.5625 97.25C49.6028 96.5717 49.6431 95.8934 49.6846 95.1946C49.7421 94.1566 49.7421 94.1566 49.8008 93.0977C49.8351 92.4017 49.8694 91.7058 49.9048 90.9888C49.9362 90.3325 49.9676 89.6762 50 89C50.0554 87.9468 50.1109 86.8937 50.168 85.8086C50.195 84.7786 50.2221 83.7487 50.25 82.6875C50.2448 81.575 50.2397 80.4626 50.2344 79.3164C50.2092 78.672 50.1841 78.0277 50.1582 77.3638C50.0799 76.1937 50.0799 76.1937 50 75C49.9014 73.9609 49.8028 72.9217 49.7012 71.8511C49.6418 71.2808 49.5824 70.7106 49.5212 70.1231C49.4575 69.5346 49.3938 68.9461 49.3281 68.3398C49.2626 67.7497 49.1972 67.1596 49.1297 66.5516C49.0621 65.9568 48.9945 65.3621 48.9248 64.7493C48.8206 63.8523 48.8206 63.8523 48.7142 62.9372C48.6082 62.0401 48.6082 62.0401 48.5 61.125C48.4283 60.5266 48.3567 59.9282 48.2828 59.3116C48.2117 58.725 48.1406 58.1383 48.0674 57.5339C47.9317 56.4322 47.796 55.3304 47.6562 54.1953C47.5306 53.1952 47.4049 52.195 47.2754 51.1646C47.1845 50.4502 47.0936 49.7359 47 49C45.8682 49.1186 44.7364 49.2372 43.5703 49.3594C42.8575 49.4225 42.1446 49.4857 41.4102 49.5508C40.6561 49.6165 39.902 49.6823 39.125 49.75C38.3786 49.8312 37.6323 49.9124 36.8633 49.9961C36.1479 50.0541 35.4324 50.1121 34.6953 50.1719C33.7056 50.2661 33.7056 50.2661 32.6958 50.3623C31.8564 50.183 31.8564 50.183 31 50C30.3907 49.0047 30.3907 49.0047 29.769 47.9893C29.5153 47.3328 29.2615 46.6763 29 46C29.5483 45.8246 30.0965 45.6492 30.6614 45.4685C31.4293 45.2198 32.1971 44.9711 32.9883 44.7148C34.2584 44.2962 34.2584 44.2962 35.5542 43.8691C36.9196 43.408 36.9196 43.408 38.3125 42.9375C39.2279 42.6159 40.1433 42.2943 41.0864 41.9629C41.9951 41.6335 42.9037 41.3042 43.8398 40.9648C44.7317 40.6308 45.6236 40.2968 46.5425 39.9526C47.3535 39.6383 48.1644 39.3239 49 39C49.9554 38.6155 49.9554 38.6155 50.9302 38.2231C51.4701 37.9858 52.0101 37.7484 52.5664 37.5039C53.9567 36.7595 53.9567 36.7595 55.375 36C56.2 35.4354 57.025 34.8708 57.875 34.2891C58.5763 33.5337 59.2775 32.7783 60 32C60.3107 31.4415 60.6213 30.883 60.9414 30.3076C61.2289 29.6776 61.5163 29.0476 61.8125 28.3984C62.2178 27.4104 62.2178 27.4104 62.6313 26.4023C62.8768 25.7333 63.1222 25.0643 63.375 24.375C63.6793 23.4063 63.6793 23.4063 63.9897 22.418C64.1865 21.7928 64.3832 21.1676 64.5859 20.5234C64.7932 19.9263 65.0004 19.3291 65.2139 18.7139C65.4733 18.1483 65.7327 17.5827 66 17C66.3858 16.4576 66.7715 15.9153 67.1689 15.3564C67.6005 14.8805 68.032 14.4045 68.4766 13.9141C69.7257 12.9666 69.7257 12.9666 71 12ZM70 36C69.1209 36.4499 68.2417 36.8998 67.3359 37.3633C66.8538 37.6733 66.3717 37.9833 65.875 38.3027C65.38 38.636 64.885 38.9692 64.375 39.3125C63.8723 39.6341 63.3695 39.9557 62.8516 40.2871C62.1323 40.7579 62.1323 40.7579 61.3984 41.2383C60.607 41.8196 59.8155 42.401 59 43C58.67 43.66 58.34 44.32 58 45C57.9625 45.5899 57.9251 46.1798 57.8865 46.7876C57.8917 47.4893 57.8969 48.1911 57.9023 48.9141C57.9056 49.6746 57.9088 50.4352 57.9121 51.2188C57.9205 52.0128 57.9289 52.8069 57.9375 53.625C57.942 54.4268 57.9465 55.2286 57.9512 56.0547C57.9557 56.8127 57.9602 57.5706 57.9648 58.3516C57.9712 59.051 57.9776 59.7505 57.9841 60.4712C57.9894 60.9757 57.9946 61.4802 58 62C58.5943 62.0105 59.1885 62.0209 59.8008 62.0317C60.6296 62.0445 61.4585 62.0572 62.3125 62.0703C63.2239 62.0793 64.1352 62.0884 65.0742 62.0977C66.0397 62.1067 67.0052 62.1157 68 62.125C69.4019 62.1501 69.4019 62.1501 70.832 62.1758C71.7537 62.1822 72.6754 62.1887 73.625 62.1953C74.9863 62.1765 74.9863 62.1765 76.375 62.1572C77.2412 62.1053 78.1075 62.0535 79 62C79.8044 61.8733 80.6087 61.7467 81.4375 61.6162C82.1594 61.4515 82.8813 61.2869 83.625 61.1172C84.2566 60.9559 84.8883 60.7946 85.5391 60.6284C86.2622 60.3174 86.2622 60.3174 87 60C87.33 59.34 87.66 58.68 88 58C88.0902 57.3439 88.1805 56.6877 88.2734 56.0117C88.307 55.2447 88.3405 54.4777 88.375 53.6875C88.3595 52.8793 88.3441 52.071 88.3281 51.2383C88.2198 50.4996 88.1116 49.761 88 49C87.3813 48.1338 86.7625 47.2675 86.125 46.375C85.6764 46.0063 85.2278 45.6377 84.7656 45.2578C84.183 44.8427 83.6003 44.4277 83 44C82.1905 43.3993 81.3809 42.7986 80.5469 42.1797C79.6652 41.5429 78.7834 40.9061 77.875 40.25C77.0268 39.657 76.1786 39.0641 75.3047 38.4531C74.5441 37.9736 73.7836 37.4941 73 37C72.01 36.67 71.02 36.34 70 36ZM66 68C65.2098 67.9858 64.4196 67.9716 63.6055 67.957C62.9725 68.0125 62.3396 68.0679 61.6875 68.125C60.8006 68.7437 59.9137 69.3625 59 70C58.8518 71.0609 58.7035 72.1218 58.5508 73.2148C58.5299 73.8367 58.509 74.4585 58.4875 75.0991C58.4917 75.747 58.4958 76.395 58.5 77.0625C58.5176 77.713 58.5353 78.3635 58.5535 79.0337C58.5874 79.6529 58.6213 80.2722 58.6562 80.9102C58.7697 81.9298 58.8831 82.9495 59 84C59.33 84.33 59.66 84.66 60 85C61.2124 85.1179 61.2124 85.1179 62.4492 85.2383C63.5179 85.2628 64.5865 85.2873 65.6875 85.3125C66.2582 85.3176 66.829 85.3227 67.417 85.3279C68.0103 85.3176 68.6036 85.3074 69.2148 85.2969C70.1389 85.2495 70.1389 85.2495 71.0815 85.2012C72.0312 85.1016 72.0312 85.1016 73 85C73.6498 84.8743 74.2997 84.7486 74.9692 84.6191C75.9455 84.3823 75.9455 84.3823 76.9414 84.1406C77.8962 83.8809 77.8962 83.8809 78.8704 83.616C79.4906 83.4333 80.1109 83.2507 80.75 83.0625C81.358 82.8805 81.9661 82.6985 82.5925 82.511C83.155 82.3333 83.7174 82.1557 84.2969 81.9727C85.1889 81.6517 86.0809 81.3307 87 81C87.33 80.67 87.66 80.34 88 80C87.9716 79.2575 87.9433 78.515 87.9141 77.75C87.8187 76.8425 87.7233 75.935 87.625 75C87.5348 74.0925 87.4445 73.185 87.3516 72.25C87.1775 71.1363 87.1775 71.1363 87 70C86.67 69.67 86.34 69.34 86 69C85.0925 68.8144 84.185 68.6287 83.25 68.4375C82.6261 68.3576 82.0022 68.2777 81.3594 68.1953C80.5808 68.1309 79.8022 68.0664 79 68C77.9739 67.9562 76.9478 67.9123 75.8906 67.8672C74.2123 67.8401 74.2123 67.8401 72.5 67.8125C70.8236 67.8492 70.8236 67.8492 69.1133 67.8867C67.5722 67.9428 67.5722 67.9428 66 68ZM68 90C67.0384 90.165 66.0767 90.33 65.0859 90.5C64.2945 90.7269 63.503 90.9537 62.6875 91.1875C62.003 91.4634 61.3185 91.7392 60.6133 92.0234C60.0809 92.3457 59.5485 92.668 59 93C58.4638 93.7631 57.9275 94.5263 57.375 95.3125C57.2512 96.1994 57.1275 97.0863 57 98C57.0825 99.0725 57.165 100.145 57.25 101.25C57.4975 102.158 57.745 103.065 58 104C58.66 104.33 59.32 104.66 60 105C60.8218 105.028 61.6436 105.056 62.4902 105.085C64.0265 105.053 64.0265 105.053 65.5938 105.02C67.2624 104.974 67.2624 104.974 68.9648 104.928C69.5448 104.908 70.1247 104.888 70.7222 104.868C71.6022 104.84 71.6022 104.84 72.5 104.812C73.0867 104.803 73.6734 104.794 74.2778 104.784C74.8577 104.775 75.4377 104.765 76.0352 104.756C77.1476 104.719 78.2601 104.682 79.4062 104.645C80.4304 104.617 81.4546 104.59 82.5098 104.562C83.3315 104.376 84.1533 104.191 85 104C85.4384 103.369 85.8769 102.739 86.3286 102.089C86.5502 101.4 86.7717 100.71 87 100C87.1663 98.9752 87.1663 98.9752 87.3359 97.9297C87.3553 96.9126 87.3553 96.9126 87.375 95.875C87.4175 94.8502 87.4175 94.8502 87.4609 93.8047C87.3088 93.2091 87.1567 92.6136 87 92C86.2208 91.3948 86.2208 91.3948 85.4258 90.7773C84.6253 90.5208 83.8248 90.2643 83 90C81.8927 89.9007 80.7854 89.8015 79.6445 89.6992C79.026 89.6898 78.4075 89.6804 77.7703 89.6707C77.1242 89.6762 76.4781 89.6818 75.8125 89.6875C75.1477 89.6924 74.483 89.6973 73.7981 89.7024C73.1351 89.7181 72.4721 89.7338 71.7891 89.75C70.8169 89.7983 70.8169 89.7983 69.8252 89.8477C69.2229 89.8979 68.6206 89.9482 68 90ZM63 110C62.2997 110.053 61.5994 110.106 60.8779 110.161C59.9754 110.255 59.9754 110.255 59.0547 110.352C58.026 110.504 56.9973 110.656 55.9375 110.812C55.0493 110.998 54.1612 111.184 53.2461 111.375C52.5049 111.581 51.7637 111.787 51 112C50.3722 112.206 49.7445 112.412 49.0977 112.625C48.5704 112.852 48.0432 113.079 47.5 113.312C46.2625 114.148 46.2625 114.148 45 115C44.2575 115.784 43.515 116.567 42.75 117.375C42.1725 118.241 41.595 119.108 41 120C40.3503 121.176 40.3503 121.176 39.6875 122.375C39.4606 123.241 39.2338 124.108 39 125C38.9884 125.559 38.9768 126.119 38.9648 126.695C39.0177 127.291 39.0705 127.886 39.125 128.5C39.2397 129.094 39.3545 129.689 39.4727 130.301C39.7337 131.142 39.7337 131.142 40 132C40.5156 132.887 41.0312 133.774 41.5625 134.688C42.3669 135.451 43.1712 136.214 44 137C44.9417 137.574 44.9417 137.574 45.9023 138.16C46.5946 138.52 47.2868 138.879 48 139.25C48.66 139.565 49.32 139.879 50 140.203C50.66 140.466 51.32 140.729 52 141C52.874 141.292 52.874 141.292 53.7656 141.59C54.503 141.725 55.2403 141.861 56 142C56.5446 142.046 57.0893 142.092 57.6504 142.14C58.2762 142.173 58.9021 142.205 59.5469 142.238C60.2192 142.256 60.8915 142.274 61.5842 142.292C62.6563 142.302 62.6563 142.302 63.75 142.312C64.495 142.315 65.24 142.317 66.0076 142.319C66.7721 142.307 67.5366 142.294 68.3242 142.281C69.0994 142.249 69.8746 142.217 70.6733 142.184C71.4411 142.123 72.2089 142.062 73 142C73.7356 141.896 74.4711 141.791 75.229 141.684C76.3009 141.484 76.3009 141.484 77.3945 141.281C78.0914 141.13 78.7882 140.978 79.5061 140.822C80.1847 140.654 80.8633 140.486 81.5625 140.312C82.2289 140.132 82.8952 139.952 83.5818 139.766C84.22 139.576 84.8581 139.387 85.5156 139.191C86.117 138.994 86.7183 138.797 87.3379 138.594C87.8864 138.398 88.4349 138.202 89 138C89.8817 137.638 90.7634 137.276 91.6719 136.902C92.3783 136.522 93.0847 136.142 93.8125 135.75C94.3952 135.327 94.9778 134.904 95.5781 134.469C96.0473 133.984 96.5166 133.499 97 133C97.3867 132.412 97.7734 131.824 98.1719 131.219C98.6127 130.244 98.6127 130.244 99.0625 129.25C99.2636 128.571 99.4647 127.891 99.6719 127.191C99.7802 126.468 99.8884 125.745 100 125C100.005 124.205 100.01 123.409 100.016 122.59C99.9151 121.401 99.9151 121.401 99.8125 120.188C99.7158 119.459 99.6191 118.731 99.5195 117.98C99.3481 117.327 99.1766 116.673 99 116C98.7606 115.499 98.5211 114.997 98.2744 114.48C97.8539 113.992 97.4333 113.503 97 113C96.2742 112.69 95.5484 112.381 94.8005 112.062C93.906 111.821 93.0115 111.58 92.0898 111.332C91.101 111.085 90.1121 110.839 89.0933 110.584C88.0725 110.392 87.0517 110.199 86 110C84.5829 109.867 84.5829 109.867 83.1372 109.732C82.2063 109.701 81.2755 109.669 80.3164 109.637C79.3747 109.636 78.4329 109.635 77.4626 109.634C76.0271 109.66 76.0271 109.66 74.5625 109.688C73.5584 109.698 72.5543 109.709 71.5198 109.719C70.5258 109.737 69.5319 109.755 68.5078 109.773C67.5555 109.805 66.6032 109.837 65.6221 109.87C64.7568 109.913 63.8915 109.956 63 110Z" fill="black"/>
</g>
<defs>
<clipPath id="clip0_7_859">
<rect width="456" height="2405" fill="white" transform="translate(0 -135)"/>
</clipPath>
</defs>
</svg>
