<svg width="152" height="167" viewBox="0 0 152 167" fill="none" xmlns="http://www.w3.org/2000/svg">
<g clip-path="url(#clip0_7_859)">
<path d="M35 24C36.2046 23.9903 36.2046 23.9903 37.4336 23.9805C38.9205 24.0829 38.9205 24.0829 40.4375 24.1875C41.5139 24.2906 42.5902 24.3937 43.6992 24.5C44.7885 24.665 45.8777 24.83 47 25C47.9758 25.2475 48.9516 25.495 49.957 25.75C51.3396 26.2141 51.3396 26.2141 52.75 26.6875C53.6433 27.0433 54.5366 27.3991 55.457 27.7656C56.2962 28.173 57.1354 28.5803 58 29C58.767 29.4692 59.534 29.9384 60.3242 30.4219C61.0216 30.922 61.719 31.4222 62.4375 31.9375C63.0343 32.4003 63.6312 32.863 64.2461 33.3398C64.8249 33.8877 65.4037 34.4355 66 35C66.6974 35.7219 67.3948 36.4438 68.1133 37.1875C68.7359 38.1156 69.3585 39.0437 70 40C70.1971 40.5827 70.3943 41.1655 70.5974 41.7659C70.7457 42.4116 70.8941 43.0573 71.0469 43.7227C71.2309 44.7641 71.2309 44.7641 71.4187 45.8267C71.5827 46.9334 71.5827 46.9334 71.75 48.0625C71.8729 48.8338 71.9957 49.6052 72.1223 50.3999C72.2379 51.2051 72.3535 52.0103 72.4727 52.8398C72.5708 53.6737 72.6689 54.5076 72.77 55.3667C72.8459 56.2357 72.9218 57.1047 73 58C73.0411 58.9218 73.0822 59.8437 73.1245 60.7935C73.144 61.7292 73.1635 62.6649 73.1836 63.6289C73.1897 64.546 73.1958 65.4631 73.2021 66.408C73.1973 67.3046 73.1925 68.2012 73.1875 69.125C73.1762 70.0081 73.1649 70.8912 73.1533 71.801C73.1375 72.6118 73.1217 73.4225 73.1055 74.2578C73.0864 74.9811 73.0673 75.7045 73.0476 76.4497C73.024 77.2171 73.024 77.2171 73 78C73.8288 78.0593 73.8288 78.0593 74.6743 78.1199C75.4341 78.1873 76.1938 78.2547 76.9766 78.3242C77.7993 78.4162 78.6221 78.5082 79.4697 78.603C80.3047 78.734 81.1397 78.865 82 79C82.7241 79.1916 83.4483 79.3832 84.1943 79.5806C84.8804 79.8079 85.5665 80.0353 86.2734 80.2695C86.9528 80.519 87.6321 80.7684 88.332 81.0254C89.0062 81.2851 89.6804 81.5449 90.375 81.8125C91.0724 82.0606 91.7698 82.3088 92.4883 82.5645C93.1599 82.8178 93.8315 83.0711 94.5234 83.332C95.1441 83.5991 95.7648 83.8662 96.4043 84.1414C96.9309 84.4247 97.4575 84.7081 98 85C98.6162 85.6316 99.2323 86.2633 99.8672 86.9141C100.241 87.6024 100.615 88.2908 101 89C101.325 89.7025 101.65 90.4051 101.984 91.1289C102.237 91.932 102.49 92.7351 102.75 93.5625C102.996 94.5151 103.242 95.4677 103.496 96.4492C103.643 97.2698 103.643 97.2698 103.792 98.1069C103.895 99.044 103.895 99.044 104 100C104.021 100.755 104.042 101.51 104.063 102.288C104.054 103.107 104.045 103.926 104.035 104.77C104.005 105.61 103.975 106.45 103.944 107.316C103.901 108.161 103.857 109.005 103.812 109.875C103.77 110.696 103.728 111.516 103.685 112.362C103.63 113.147 103.576 113.933 103.52 114.742C103.445 115.483 103.37 116.223 103.294 116.987C103.197 117.651 103.1 118.315 103 119C102.724 119.996 102.448 120.993 102.164 122.02C101.78 122.673 101.396 123.327 101 124C100.486 124.233 99.9713 124.467 99.4414 124.707C98.5113 124.759 98.5113 124.759 97.5625 124.812C96.8458 124.854 96.1291 124.895 95.3906 124.938C94.6017 124.958 93.8128 124.979 93 125C91.7548 125.093 91.7548 125.093 90.4844 125.188C89.6027 125.229 88.7209 125.27 87.8125 125.312C86.428 125.299 86.428 125.299 85.0156 125.285C84.0205 125.191 83.0253 125.097 82 125C81.4399 124.89 80.8798 124.781 80.3027 124.667C79.7233 124.528 79.1439 124.389 78.5469 124.246C77.967 124.086 77.3872 123.927 76.7898 123.762C76.2198 123.593 75.6498 123.424 75.0625 123.25C74.0016 122.925 72.9407 122.6 71.8477 122.266C70.9079 121.848 69.9682 121.43 69 121C68.2562 120.397 67.5124 119.793 66.7461 119.172C66.1699 118.455 65.5937 117.738 65 117C64.647 116.248 64.2941 115.496 63.9304 114.721C63.4699 113.374 63.4699 113.374 63 112C62.8619 111.106 62.7238 110.213 62.5815 109.292C62.5108 108.304 62.4401 107.315 62.3672 106.297C62.2934 105.152 62.2196 104.006 62.1436 102.826C62.1019 101.9 62.1019 101.9 62.0594 100.956C62.0398 100.31 62.0202 99.665 62 99C61.992 98.3262 61.984 97.6524 61.9757 96.9583C61.975 96.2611 61.9743 95.564 61.9736 94.8457C61.9777 94.1293 61.9817 93.413 61.9859 92.6749C61.9931 91.9417 62.0004 91.2085 62.0078 90.4531C62.0194 89.3316 62.0194 89.3316 62.0312 88.1874C62.0402 87.4294 62.0493 86.6715 62.0586 85.8906C62.0687 85.1256 62.0789 84.3605 62.0894 83.5723C62.1011 82.8059 62.1129 82.0396 62.125 81.25C62.1403 80.4907 62.1556 79.7315 62.1714 78.9492C62.1857 78.1925 62.2001 77.4359 62.2148 76.6562C62.2294 75.5213 62.2294 75.5213 62.2443 74.3634C62.2488 73.6093 62.2532 72.8551 62.2578 72.0781C62.2569 71.3295 62.2561 70.5808 62.2552 69.8094C62.2435 69.0622 62.2318 68.3149 62.2197 67.5449C62.1945 66.7988 62.1692 66.0527 62.1432 65.2839C62.0723 64.1534 62.0723 64.1534 62 63C61.9167 62.2218 61.8333 61.4436 61.7474 60.6418C61.6423 59.8635 61.5371 59.0851 61.4287 58.2832C61.3085 57.5193 61.1883 56.7555 61.0644 55.9684C60.9375 55.2312 60.8105 54.494 60.6797 53.7344C60.5625 53.0443 60.4453 52.3543 60.3245 51.6434C60.1992 50.9899 60.0739 50.3364 59.9448 49.6631C59.8041 49.0438 59.6633 48.4246 59.5183 47.7865C59.3473 47.197 59.1762 46.6074 59 46C58.7697 45.4261 58.5394 44.8522 58.3021 44.2609C58.0477 43.7289 57.7932 43.1968 57.531 42.6487C57.0258 41.7746 56.5205 40.9006 56 40C55.282 39.3026 54.564 38.6052 53.8242 37.8867C52.8922 37.2641 51.9602 36.6415 51 36C50.3833 35.6566 49.7667 35.3133 49.1313 34.9595C48.1169 34.4323 48.1169 34.4323 47.082 33.8945C46.3853 33.551 45.6886 33.2075 44.9707 32.8535C44.2585 32.51 43.5463 32.1664 42.8125 31.8125C42.0887 31.4574 41.3649 31.1022 40.6191 30.7363C39.9263 30.3967 39.2334 30.057 38.5195 29.707C37.8915 29.4026 37.2635 29.0981 36.6165 28.7844C36.083 28.5256 35.5496 28.2667 35 28C34.34 27.67 33.68 27.34 33 27C33 26.34 33 25.68 33 25C33.66 24.67 34.32 24.34 35 24ZM73 88C72.5875 88.9488 72.175 89.8975 71.75 90.875C71.6069 91.5105 71.4638 92.146 71.3164 92.8008C71.212 93.5265 71.1076 94.2523 71 95C70.9265 95.8186 70.853 96.6371 70.7773 97.4805C70.7477 98.3325 70.718 99.1846 70.6875 100.062C70.7055 100.911 70.7236 101.759 70.7422 102.633C70.8273 103.414 70.9123 104.195 71 105C71.1882 105.616 71.3764 106.232 71.5703 106.867C71.8152 107.385 72.0602 107.904 72.3125 108.438C72.8694 109.283 73.4262 110.129 74 111C74.6187 111.866 74.6187 111.866 75.25 112.75C75.8275 113.162 76.405 113.575 77 114C78.0312 114.392 79.0625 114.784 80.125 115.188C80.7296 115.342 81.3341 115.497 81.957 115.656C82.9683 115.826 82.9683 115.826 84 116C84.7876 116.052 85.5752 116.103 86.3867 116.156C87.1872 116.167 87.9877 116.177 88.8125 116.188C89.5614 116.181 90.3104 116.175 91.082 116.168C91.715 116.113 92.3479 116.057 93 116C93.66 115.67 94.32 115.34 95 115C95.0993 113.955 95.1985 112.909 95.3008 111.832C95.3079 111.186 95.315 110.539 95.3223 109.873C95.3174 108.853 95.3174 108.853 95.3125 107.812C95.3286 107.152 95.3447 106.491 95.3613 105.811C95.362 105.158 95.3626 104.505 95.3633 103.832C95.3161 102.863 95.3161 102.863 95.2681 101.874C95.1354 100.946 95.1354 100.946 95 100C94.8071 99.432 94.6142 98.864 94.4155 98.2788C94.1688 97.7575 93.9221 97.2363 93.668 96.6992C92.8423 95.3631 92.8423 95.3631 92 94C91.5656 93.4161 91.1312 92.8321 90.6836 92.2305C90.128 91.8244 89.5724 91.4184 89 91C88.0835 90.6868 87.167 90.3735 86.2227 90.0508C85.1798 89.8071 84.137 89.5635 83.0625 89.3125C82.0222 89.0611 80.982 88.8098 79.9102 88.5508C78.9498 88.369 77.9895 88.1873 77 88C76.2407 87.9136 75.4815 87.8273 74.6992 87.7383C73.8581 87.8678 73.8581 87.8678 73 88Z" fill="black"/>
</g>
<defs>
<clipPath id="clip0_7_859">
<rect width="456" height="2405" fill="white" transform="translate(-152 -1257)"/>
</clipPath>
</defs>
</svg>
