<svg width="152" height="149" viewBox="0 0 152 149" fill="none" xmlns="http://www.w3.org/2000/svg">
<g clip-path="url(#clip0_7_859)">
<path d="M74 66C74.8097 65.9573 75.6194 65.9146 76.4536 65.8706C77.2114 65.8463 77.9692 65.8219 78.75 65.7969C79.4603 65.7866 80.1705 65.7763 80.9023 65.7656C81.5946 65.7605 82.2868 65.7553 83 65.75C83.7232 65.7294 84.4463 65.7088 85.1914 65.6875C85.8914 65.6823 86.5913 65.6772 87.3125 65.6719C88.2811 65.7091 88.2811 65.7091 89.2693 65.7471C89.8404 65.8305 90.4116 65.914 91 66C91.8263 66.4434 92.6526 66.8869 93.5039 67.3438C94.2445 68.1636 94.2445 68.1636 95 69C94.9794 69.9075 94.9588 70.815 94.9375 71.75C94.4734 73.3587 94.4734 73.3587 94 75C93.7409 75.5723 93.4818 76.1447 93.2148 76.7344C92.9377 77.317 92.6605 77.8997 92.375 78.5C92.1159 79.0852 91.8568 79.6705 91.5898 80.2734C91.3952 80.8432 91.2005 81.413 91 82C90.9794 83.0312 90.9588 84.0625 90.9375 85.125C91.2881 86.0738 91.6387 87.0225 92 88C92.455 88.4202 92.9101 88.8405 93.3789 89.2734C93.9139 89.6782 94.4488 90.083 95 90.5C95.5298 90.9022 96.0596 91.3044 96.6055 91.7188C97.0657 92.1416 97.5259 92.5644 98 93C98.4331 93.99 98.8663 94.98 99.3125 96C99.2094 96.99 99.1063 97.98 99 99C98.5114 99.4228 98.0229 99.8456 97.5195 100.281C96.8943 100.683 96.2691 101.086 95.625 101.5C94.9766 101.896 94.3282 102.291 93.6602 102.699C93.1123 103.128 92.5645 103.558 92 104C91.5359 105.64 91.5359 105.64 91.0625 107.312C91.0419 108.199 91.0213 109.086 91 110C91.6497 110.075 92.2994 110.15 92.9688 110.227C93.8041 110.358 94.6394 110.49 95.5 110.625C96.3121 110.807 97.1242 110.989 97.9609 111.176C98.6338 111.448 99.3067 111.72 100 112C100.371 112.928 100.743 113.856 101.125 114.812C100.568 116.39 100.568 116.39 100 118C99.0255 118.588 99.0255 118.588 98.0312 119.188C97.2372 119.559 96.4431 119.93 95.625 120.312C94.3875 120.902 94.3875 120.902 93.125 121.504C92.4237 121.998 91.7225 122.491 91 123C90.6906 123.752 90.3812 124.503 90.0625 125.277C89.8459 126.501 89.8459 126.501 89.625 127.75C89.5554 128.529 89.4858 129.307 89.4141 130.109C89.2774 130.733 89.1408 131.357 89 132C87.515 132.495 87.515 132.495 86 133C85.7113 132.299 85.4225 131.598 85.125 130.875C84.7537 129.926 84.3825 128.978 84 128C83.8144 126.969 83.6287 125.938 83.4375 124.875C82.9631 123.926 82.4888 122.978 82 122C81.2975 121.701 80.5949 121.402 79.8711 121.094C79.0474 120.857 78.2237 120.619 77.375 120.375C76.5577 120.197 75.7405 120.019 74.8984 119.836C74.272 119.56 73.6455 119.284 73 119C72.817 118.355 72.6339 117.711 72.4453 117.047C72.6284 116.371 72.8114 115.696 73 115C73.6497 114.626 74.2994 114.252 74.9688 113.867C76.2217 113.376 76.2217 113.376 77.5 112.875C78.3237 112.466 79.1474 112.058 79.9961 111.637C80.988 110.827 80.988 110.827 82 110C82.1972 109.161 82.3945 108.322 82.5977 107.457C82.5861 106.543 82.5745 105.629 82.5625 104.688C82.4813 103.804 82.4001 102.921 82.3164 102.012C82.212 101.348 82.1076 100.684 82 100C80.9481 99.9175 79.8963 99.835 78.8125 99.75C78.1796 99.6598 77.5466 99.5695 76.8945 99.4766C76.2693 99.3193 75.6441 99.162 75 99C74.4676 98.719 73.9352 98.438 73.3867 98.1484C72.7003 97.6418 72.7003 97.6418 72 97.125C71.34 96.4237 70.68 95.7225 70 95C70.495 93.515 70.495 93.515 71 92C71.6935 91.8144 72.387 91.6287 73.1016 91.4375C73.9343 91.2931 74.767 91.1488 75.625 91C76.4397 90.7654 77.2544 90.5308 78.0938 90.2891C78.7228 89.8637 79.3519 89.4383 80 89C80.2011 87.7122 80.2011 87.7122 80.4062 86.3984C80.3134 85.4007 80.2206 84.403 80.125 83.375C79.9626 82.3927 79.8002 81.4105 79.6328 80.3984C79.3196 79.2112 79.3196 79.2112 79 78C78.505 77.505 78.505 77.505 78 77C77.1155 76.9521 76.2309 76.9041 75.3196 76.8547C74.7584 76.8484 74.1973 76.842 73.6191 76.8354C73.0087 76.8343 72.3984 76.8332 71.7695 76.832C71.1415 76.8287 70.5135 76.8254 69.8664 76.8219C68.8913 76.8182 68.8913 76.8182 67.8965 76.8145C67.2258 76.8145 66.5551 76.8146 65.864 76.8147C65.187 76.814 64.51 76.8132 63.8125 76.8125C63.1444 76.8065 62.4762 76.8004 61.7878 76.7942C61.1276 76.788 60.4674 76.7818 59.7871 76.7754C59.1354 76.7739 58.4837 76.7724 57.8122 76.7709C57.1794 76.7705 56.5465 76.77 55.8945 76.7695C55.2943 76.7623 54.6941 76.7552 54.0756 76.7478C53.4987 76.7508 52.9218 76.7539 52.3274 76.7571C50.6803 76.8773 50.6803 76.8773 49 77C47.332 77.4395 47.332 77.4395 45.6304 77.8879C44.7623 78.2549 43.8943 78.6219 43 79C42.6764 79.6677 42.3529 80.3355 42.0195 81.0234C41.9512 81.7995 41.8829 82.5755 41.8125 83.375C41.77 84.182 41.7274 84.9889 41.6836 85.8203C41.788 86.5396 41.8924 87.2589 42 88C42.7837 88.7425 43.5675 89.485 44.375 90.25C45.6744 91.1162 45.6744 91.1162 47 92C47.6806 93.2375 47.6806 93.2375 48.375 94.5C48.1894 95.7375 48.1894 95.7375 48 97C47.3658 97.3751 46.7316 97.7502 46.0781 98.1367C45.2686 98.4835 44.4591 98.8302 43.625 99.1875C42.7923 99.4904 41.9595 99.7934 41.1016 100.105C40.0613 100.548 40.0613 100.548 39 101C38.67 101.66 38.34 102.32 38 103C37.7731 103.969 37.5463 104.939 37.3125 105.938C37.5394 106.948 37.7662 107.959 38 109C38.7245 109.28 39.4489 109.559 40.1953 109.848C41.1002 110.063 42.0052 110.278 42.9375 110.5C43.8514 110.713 44.7654 110.925 45.707 111.145C46.4637 111.427 47.2204 111.709 48 112C48.3713 113.052 48.7425 114.104 49.125 115.188C49.0837 116.116 49.0425 117.044 49 118C48.3967 118.205 47.7934 118.41 47.1719 118.621C46.3727 118.891 45.5734 119.16 44.75 119.438C43.9611 119.704 43.1722 119.971 42.3594 120.246C41.5808 120.495 40.8022 120.744 40 121C39.2627 121.156 38.5253 121.312 37.7656 121.473C37.183 121.647 36.6003 121.821 36 122C35.67 122.66 35.34 123.32 35 124C34.9188 124.835 34.8376 125.671 34.7539 126.531C34.6592 128.001 34.6592 128.001 34.5625 129.5C34.4716 130.97 34.4716 130.97 34.3789 132.469C34.1913 133.722 34.1913 133.722 34 135C33.01 135.99 33.01 135.99 32 137C31.3 137.009 30.6001 137.018 29.8789 137.027C29.2589 136.688 28.6388 136.349 28 136C27.9059 135.053 27.8118 134.105 27.7148 133.129C27.7413 132.555 27.7677 131.98 27.7949 131.389C27.842 130.786 27.889 130.183 27.9375 129.562C27.9807 128.964 28.0239 128.365 28.0684 127.748C28.0961 127.172 28.1238 126.597 28.1523 126.004C28.0769 124.517 28.0769 124.517 28 123C27.6107 122.553 27.2214 122.105 26.8203 121.645C26.2196 121.432 25.6189 121.219 25 121C24.2046 120.838 23.4093 120.675 22.5898 120.508C21.2769 120.318 21.2769 120.318 19.9375 120.125C18.6207 119.943 18.6207 119.943 17.2773 119.758C16.1501 119.383 16.1501 119.383 15 119C14.5682 118.317 14.1363 117.634 13.6914 116.93C13.3492 115.974 13.3492 115.974 13 115C13.5801 114.746 14.1602 114.492 14.7578 114.23C15.539 113.886 16.3202 113.542 17.125 113.188C17.941 112.814 18.757 112.44 19.5977 112.055C20.3904 111.707 21.1832 111.359 22 111C22.6381 110.796 23.2762 110.593 23.9336 110.383C24.4711 110.195 25.0087 110.006 25.5625 109.812C26.3669 109.214 27.1712 108.616 28 108C28.2243 107.313 28.4486 106.626 28.6797 105.918C28.7648 105.12 28.8498 104.322 28.9375 103.5C28.8898 102.702 28.8421 101.904 28.793 101.082C28.4004 100.051 28.4004 100.051 28 99C27.3774 98.6326 26.7548 98.2652 26.1133 97.8867C25.3334 97.656 24.5535 97.4252 23.75 97.1875C22.9314 96.9993 22.1129 96.8111 21.2695 96.6172C20.5206 96.4135 19.7716 96.2098 19 96C17.7316 94.9172 17.7316 94.9172 16.4375 93.8125C15.9631 93.2144 15.4888 92.6162 15 92C15.5839 91.5611 15.5839 91.5611 16.1797 91.1133C16.7804 90.7459 17.3811 90.3785 18 90C18.807 89.7048 19.6139 89.4096 20.4453 89.1055C21.3296 88.8025 22.2139 88.4996 23.125 88.1875C24.0145 87.8923 24.9039 87.5971 25.8203 87.293C26.5396 86.8663 27.2589 86.4396 28 86C28.2694 85.1853 28.5388 84.3706 28.8164 83.5312C28.877 82.6959 28.9376 81.8606 29 81C28.9381 80.1131 28.8762 79.2262 28.8125 78.3125C28.5444 77.5494 28.2763 76.7862 28 76C27.34 75.6287 26.68 75.2575 26 74.875C25.01 74.4419 25.01 74.4419 24 74C23.67 73.01 23.34 72.02 23 71C23.8377 70.5148 24.6755 70.0297 25.5386 69.5298C26.0895 69.2556 26.6404 68.9815 27.2079 68.699C28.095 68.353 28.095 68.353 29 68C29.8588 67.8514 29.8588 67.8514 30.7349 67.6999C31.324 67.6615 31.9131 67.6231 32.52 67.5835C33.1415 67.5669 33.763 67.5504 34.4034 67.5333C35.3832 67.5284 35.3832 67.5284 36.3828 67.5234C37.4261 67.5001 37.4261 67.5001 38.4904 67.4762C39.5703 67.4532 39.5703 67.4532 40.6719 67.4297C41.4047 67.4203 42.1375 67.411 42.8926 67.4014C43.9976 67.3883 43.9976 67.3883 45.125 67.375C46.2141 67.3566 46.2141 67.3566 47.3252 67.3379C48.4056 67.3176 48.4056 67.3176 49.5078 67.2969C50.2226 67.2828 50.9373 67.2688 51.6738 67.2543C52.3821 67.24 53.0905 67.2257 53.8203 67.2109C54.5253 67.1979 55.2303 67.1849 55.9566 67.1715C56.6467 67.1568 57.3368 67.1421 58.0479 67.127C59.0512 67.1002 59.0512 67.1002 60.0748 67.073C60.7101 67.0489 61.3454 67.0248 62 67C63.6895 66.883 63.6895 66.883 65.4131 66.7637C66.9372 66.6293 66.9372 66.6293 68.4922 66.4922C69.4369 66.4047 70.3816 66.3172 71.355 66.2271C72.2278 66.1521 73.1007 66.0772 74 66Z" fill="black"/>
<path d="M85 11C85.6033 11.0155 86.2066 11.0309 86.8281 11.0469C87.9032 11.5187 87.9032 11.5187 89 12C89.6136 12.7683 90.2272 13.5366 90.8594 14.3281C91.4833 15.2923 92.1072 16.2566 92.75 17.25C93.0922 17.7514 93.4343 18.2529 93.7869 18.7695C94.1395 19.2632 94.4921 19.757 94.8555 20.2656C95.5632 21.168 96.2709 22.0703 97 23C97.6768 23.5723 98.3535 24.1447 99.0508 24.7344C99.7146 25.152 100.379 25.5697 101.062 26C101.721 26.3635 102.38 26.727 103.059 27.1016C103.699 27.398 104.34 27.6945 105 28C105.61 28.2346 106.219 28.4692 106.848 28.7109C107.434 28.9301 108.021 29.1492 108.625 29.375C109.19 29.6045 109.754 29.8339 110.336 30.0703C110.885 30.3771 111.434 30.6839 112 31C112.549 31.4924 113.098 31.9848 113.664 32.4922C114.449 33.3623 114.449 33.3623 115.25 34.25C115.709 34.7914 116.168 35.3328 116.641 35.8906C117.089 36.5867 117.538 37.2828 118 38C118.538 38.9217 119.075 39.8434 119.629 40.793C119.878 41.4009 120.127 42.0089 120.384 42.6353C120.587 43.4156 120.791 44.196 121 45C121.109 46.0704 121.218 47.1408 121.331 48.2437C121.365 48.8438 121.4 49.4439 121.435 50.0622C121.46 50.6927 121.486 51.3231 121.512 51.9727C121.532 52.6212 121.552 53.2698 121.572 53.938C121.588 54.6024 121.603 55.2667 121.619 55.9512C121.631 56.6285 121.642 57.3058 121.654 58.0037C121.67 59.0228 121.67 59.0228 121.688 60.0625C121.704 60.7295 121.721 61.3965 121.738 62.0837C121.755 62.7464 121.773 63.4091 121.791 64.0918C121.808 64.7534 121.824 65.415 121.841 66.0967C121.856 66.757 121.871 67.4173 121.887 68.0977C121.899 68.7594 121.911 69.4211 121.923 70.1029C121.933 70.7604 121.943 71.418 121.953 72.0955C121.962 72.7455 121.97 73.3955 121.979 74.0652C121.986 74.7037 121.993 75.3422 122 76C122.006 76.6205 122.012 77.2411 122.018 77.8804C122.022 78.4871 122.027 79.0939 122.031 79.719C122.034 80.3136 122.037 80.9083 122.04 81.5209C122.041 82.1044 122.042 82.6879 122.043 83.2891C122.04 84.4271 122.037 85.5651 122.033 86.7375C122.022 87.8142 122.011 88.8908 122 90C121.979 90.9819 121.959 91.9637 121.937 92.9753C121.909 93.9077 121.881 94.8401 121.852 95.8008C121.817 96.7074 121.782 97.614 121.746 98.5481C121.686 99.9165 121.686 99.9165 121.625 101.312C121.582 102.287 121.538 103.262 121.494 104.266C121.446 105.251 121.397 106.236 121.348 107.25C121.294 108.214 121.24 109.178 121.184 110.172C121.123 111.105 121.063 112.038 121 113C120.93 113.879 120.86 114.758 120.789 115.664C120.713 116.497 120.637 117.33 120.559 118.188C120.477 118.973 120.396 119.759 120.312 120.569C120.189 121.68 120.189 121.68 120.062 122.812C119.988 123.517 119.913 124.222 119.836 124.948C119.758 125.591 119.679 126.233 119.598 126.895C119.4 127.919 119.203 128.944 119 130C118.34 130.66 117.68 131.32 117 132C116.154 131.897 115.309 131.794 114.438 131.688C113.633 131.461 112.829 131.234 112 131C111.67 130.67 111.34 130.34 111 130C110.928 128.893 110.928 128.893 110.855 127.763C110.846 126.772 110.836 125.781 110.826 124.76C110.813 123.636 110.799 122.512 110.786 121.354C110.78 120.748 110.775 120.141 110.77 119.516C110.765 118.891 110.759 118.265 110.754 117.621C110.742 116.674 110.742 116.674 110.731 115.709C110.722 115.066 110.714 114.424 110.705 113.762C110.697 113.107 110.688 112.452 110.68 111.777C110.671 111.11 110.663 110.443 110.654 109.756C110.646 109.075 110.638 108.394 110.63 107.692C110.623 107.005 110.615 106.317 110.607 105.608C110.6 104.918 110.592 104.228 110.584 103.517C110.577 102.83 110.57 102.144 110.562 101.438C110.556 100.766 110.549 100.095 110.543 99.4034C110.533 98.4069 110.533 98.4069 110.523 97.3904C110.517 96.7289 110.51 96.0675 110.503 95.386C110.496 94.7269 110.49 94.0678 110.482 93.3887C110.475 92.7295 110.467 92.0703 110.459 91.3912C110.451 90.7336 110.443 90.0759 110.434 89.3983C110.425 88.7432 110.416 88.0881 110.407 87.4131C110.398 86.7599 110.389 86.1066 110.379 85.4336C110.37 84.7813 110.36 84.1291 110.351 83.457C110.34 82.8074 110.33 82.1579 110.319 81.4886C110.302 80.5199 110.302 80.5199 110.284 79.5316C110.263 78.5702 110.263 78.5702 110.243 77.5894C110.228 76.955 110.212 76.3206 110.197 75.667C110.179 75.0383 110.161 74.4097 110.143 73.7619C110.111 72.8275 110.111 72.8275 110.079 71.8742C110.053 71.2557 110.027 70.6372 110 70C109.966 69.3831 109.932 68.7661 109.897 68.1305C109.858 67.5202 109.819 66.9099 109.779 66.2811C109.737 65.6806 109.695 65.0801 109.652 64.4614C109.586 63.5797 109.586 63.5797 109.519 62.6802C109.429 61.5543 109.339 60.4284 109.246 59.2683C109.153 58.2014 109.06 57.1344 108.965 56.0352C108.825 54.4999 108.825 54.4999 108.683 52.9337C108.595 52.0134 108.508 51.093 108.418 50.1448C108.338 49.3394 108.257 48.534 108.175 47.7042C108.088 46.8606 108.088 46.8606 108 46C107.532 46.2496 107.065 46.4991 106.583 46.7563C105.956 47.0902 105.329 47.4241 104.683 47.7681C104.025 48.1167 103.367 48.4653 102.69 48.8245C102.07 49.1506 101.451 49.4766 100.812 49.8125C100.024 50.2152 99.2365 50.6178 98.4246 51.0327C97.7521 51.3597 97.0796 51.6866 96.3867 52.0234C95.646 52.3712 94.9053 52.7189 94.1421 53.0771C93.4352 53.3817 92.7283 53.6862 92 54C91.3821 54.2169 90.7641 54.4338 90.1274 54.6572C89.5556 54.8245 88.9837 54.9917 88.3945 55.1641C87.3156 55.4193 86.2366 55.6745 85.125 55.9375C83.5395 56.2391 83.5395 56.2391 81.9219 56.5469C80.9577 56.6964 79.9934 56.8459 79 57C78.2214 57.1289 77.4428 57.2578 76.6406 57.3906C75.5191 57.5376 75.5191 57.5376 74.375 57.6875C73.5835 57.7468 72.792 57.8061 71.9766 57.8672C70.5032 57.9329 70.5032 57.9329 69 58C68.3216 58.0325 67.6433 58.0651 66.9443 58.0986C65.8079 58.1465 65.8079 58.1465 64.6484 58.1953C63.8535 58.2195 63.0585 58.2437 62.2395 58.2686C61.418 58.2831 60.5964 58.2976 59.75 58.3125C58.9227 58.3141 58.0953 58.3157 57.2429 58.3174C56.4215 58.3029 55.6002 58.2884 54.7539 58.2734C53.9458 58.2409 53.1377 58.2083 52.3052 58.1748C51.1641 58.0883 51.1641 58.0883 50 58C49.3385 57.9062 48.6771 57.8124 47.9956 57.7158C47.3873 57.5956 46.7791 57.4754 46.1523 57.3516C45.2781 57.1387 45.2781 57.1387 44.3862 56.9216C43.8256 56.7619 43.2651 56.6021 42.6875 56.4375C41.5957 56.0804 40.5038 55.7234 39.3789 55.3555C38.5632 55.043 38.5632 55.043 37.731 54.7241C36.8741 54.3657 36.8741 54.3657 36 54C35.3553 53.7108 34.7106 53.4215 34.0464 53.1235C33.3801 52.8108 32.7138 52.498 32.0273 52.1758C31.3748 51.8588 30.7223 51.5417 30.05 51.2151C29.4148 50.8966 28.7795 50.5781 28.125 50.25C27.204 49.7732 27.204 49.7732 26.2644 49.2869C25.7054 48.9911 25.1463 48.6953 24.5703 48.3906C23.7221 47.9317 22.8739 47.4728 22 47C22.33 46.01 22.66 45.02 23 44C24.5469 43.8144 24.5469 43.8144 26.125 43.625C26.8546 43.6482 27.5842 43.6714 28.3359 43.6953C29.2151 43.7959 30.0942 43.8964 31 44C32.0441 44.2243 33.0883 44.4486 34.1641 44.6797C35.0284 44.8782 35.0284 44.8782 35.9102 45.0808C36.5173 45.2191 37.1245 45.3575 37.75 45.5C38.6955 45.7085 38.6955 45.7085 39.6602 45.9211C40.3214 46.0542 40.9827 46.1872 41.6641 46.3242C42.3579 46.4472 43.0517 46.5701 43.7666 46.6968C44.5036 46.7968 45.2406 46.8969 46 47C46.8015 47.0575 47.6029 47.115 48.4287 47.1743C49.2643 47.2057 50.1 47.2372 50.9609 47.2695C52.2335 47.2914 52.2335 47.2914 53.5317 47.3137C54.3875 47.3133 55.2433 47.3129 56.125 47.3125C56.9821 47.3024 57.8391 47.2924 58.7222 47.282C59.5615 47.2611 60.4008 47.2402 61.2656 47.2188C62.0771 47.1865 62.8886 47.1543 63.7246 47.1211C64.4755 47.0811 65.2264 47.0412 66 47C66.6374 46.9575 67.2749 46.9149 67.9316 46.8711C68.5059 46.8208 69.0802 46.7705 69.6719 46.7188C71.2574 46.5177 71.2574 46.5177 72.875 46.3125C73.8702 46.1307 74.8653 45.949 75.8906 45.7617C76.9167 45.5104 77.9428 45.259 79 45C79.6117 44.8281 80.2233 44.6561 80.8535 44.479C81.4948 44.2861 82.1361 44.0933 82.7969 43.8945C83.4351 43.6872 84.0734 43.4799 84.731 43.2664C85.6685 42.9489 85.6685 42.9489 86.625 42.625C87.5142 42.3298 87.5142 42.3298 88.4214 42.0286C88.9758 41.8258 89.5303 41.623 90.1016 41.4141C91.5363 40.7141 91.5363 40.7141 93 40C93.6265 39.2859 94.253 38.5717 94.8984 37.8359C95.262 37.2301 95.6255 36.6242 96 36C95.2575 35.7731 94.515 35.5463 93.75 35.3125C92.3887 34.6628 92.3887 34.6628 91 34C90.2987 33.2781 89.5975 32.5562 88.875 31.8125C88.2563 30.8844 87.6375 29.9563 87 29C86.6984 28.4831 86.3967 27.9662 86.0859 27.4336C85.8101 26.878 85.5342 26.3224 85.25 25.75C85.0128 25.1635 84.7756 24.577 84.5312 23.9727C84.3559 23.3217 84.1806 22.6707 84 22C83.8917 20.8224 83.8917 20.8224 83.7812 19.6211C83.7709 18.818 83.7606 18.0149 83.75 17.1875C83.7655 16.4386 83.7809 15.6896 83.7969 14.918C83.8639 14.285 83.9309 13.6521 84 13C84.33 12.34 84.66 11.68 85 11Z" fill="black"/>
</g>
<defs>
<clipPath id="clip0_7_859">
<rect width="456" height="2405" fill="white" transform="translate(0 -297)"/>
</clipPath>
</defs>
</svg>
