<svg width="152" height="149" viewBox="0 0 152 149" fill="none" xmlns="http://www.w3.org/2000/svg">
<g clip-path="url(#clip0_7_859)">
<path d="M42 26C42.4898 26.5543 42.9797 27.1086 43.4844 27.6797C43.9845 28.4454 44.4847 29.2111 45 30C45.1083 30.8276 45.2166 31.6552 45.3281 32.5078C45.3023 33.3715 45.2766 34.2352 45.25 35.125C45.2345 35.9938 45.2191 36.8627 45.2031 37.7578C45.1361 38.4977 45.0691 39.2377 45 40C44.67 40.66 44.34 41.32 44 42C43.8956 42.8585 43.7912 43.717 43.6836 44.6016C43.6024 45.5993 43.5212 46.597 43.4375 47.625C43.3537 48.6279 43.2699 49.6308 43.1836 50.6641C43.0927 51.8204 43.0927 51.8204 43 53C43.4641 53.0232 43.9281 53.0464 44.4062 53.0703C45.0972 53.0884 45.7881 53.1064 46.5 53.125C47.3211 53.1263 48.1423 53.1276 48.9883 53.1289C49.9821 53.0864 50.976 53.0438 52 53C52.5844 52.9405 53.1689 52.8811 53.771 52.8198C54.397 52.7439 55.023 52.668 55.668 52.5898C56.3202 52.5058 56.9725 52.4218 57.6445 52.3352C58.3187 52.2452 58.9929 52.1552 59.6875 52.0625C60.3784 51.9706 61.0694 51.8786 61.7812 51.7839C62.4761 51.6928 63.1709 51.6017 63.8867 51.5078C64.5781 51.4192 65.2696 51.3306 65.9819 51.2393C66.6479 51.1603 67.3139 51.0813 68 51C68.9081 50.9125 68.9081 50.9125 69.8345 50.8232C70.4112 50.7759 70.9879 50.7285 71.582 50.6797C72.71 50.5998 73.8379 50.5198 75 50.4375C76.1163 50.3653 77.2327 50.2931 78.3828 50.2188C78.9581 50.1839 79.5333 50.1491 80.126 50.1133C80.7444 50.0759 81.3628 50.0385 82 50C82.7138 49.9549 83.4276 49.9098 84.1631 49.8633C84.9111 49.8156 85.659 49.7679 86.4297 49.7188C87.1696 49.6718 87.9095 49.6248 88.6719 49.5764C89.3989 49.5306 90.1259 49.4847 90.875 49.4375C91.584 49.3936 92.293 49.3497 93.0234 49.3044C93.6731 49.2646 94.3228 49.2247 94.9922 49.1836C95.9848 49.123 96.9773 49.0624 98 49C97.8182 48.5415 97.6365 48.083 97.4492 47.6106C97.1979 46.9721 96.9465 46.3336 96.6875 45.6758C96.2814 44.6268 96.2814 44.6268 95.8672 43.5566C95.581 42.8161 95.2948 42.0755 95 41.3125C94.7138 40.5913 94.4277 39.87 94.1328 39.127C93.8621 38.4212 93.5914 37.7154 93.3125 36.9883C93.065 36.3033 92.8175 35.6183 92.5625 34.9126C92.3769 34.2814 92.1912 33.6503 92 33C91.9381 32.0036 91.8762 31.0071 91.8125 29.9805C91.9053 29.0001 91.9053 29.0001 92 28C93.0106 27.67 94.0213 27.34 95.0625 27C95.7109 26.9072 96.3593 26.8144 97.0273 26.7188C97.6783 26.8116 98.3293 26.9044 99 27C99.5169 27.4847 100.034 27.9694 100.566 28.4688C101.081 29.1391 101.595 29.8094 102.125 30.5C102.966 31.5983 102.966 31.5983 103.824 32.7188C104.542 33.4716 105.26 34.2244 106 35C106.52 35.3532 107.041 35.7064 107.577 36.0703C108.156 36.408 108.735 36.7458 109.332 37.0938C109.924 37.4154 110.516 37.737 111.126 38.0684C111.724 38.3758 112.322 38.6832 112.938 39C113.53 39.3023 114.122 39.6046 114.733 39.916C115.284 40.1912 115.835 40.4664 116.402 40.75C117.26 41.1625 118.117 41.575 119 42C118.728 42.6626 118.456 43.3252 118.176 44.0078C117.788 44.6652 117.4 45.3227 117 46C115.608 45.9381 115.608 45.9381 114.188 45.875C113.136 45.5863 112.084 45.2975 111 45C110.051 44.6494 109.103 44.2988 108.125 43.9375C107.424 43.6281 106.723 43.3187 106 43C106.12 43.4832 106.241 43.9665 106.365 44.4644C106.532 45.1335 106.699 45.8027 106.871 46.4922C107.054 47.2241 107.237 47.9559 107.425 48.71C107.615 49.4657 107.805 50.2214 108 51C108.259 52.0214 108.259 52.0214 108.524 53.0635C108.693 53.7257 108.861 54.388 109.035 55.0703C109.289 56.0738 109.289 56.0738 109.549 57.0977C109.718 57.7667 109.888 58.4357 110.062 59.125C110.236 59.8018 110.409 60.4785 110.588 61.1758C110.756 61.8422 110.924 62.5087 111.098 63.1953C111.255 63.8422 111.413 64.489 111.576 65.1555C111.716 65.7642 111.856 66.3729 112 67C112.298 68.5565 112.298 68.5565 112.602 70.1445C112.799 71.558 112.799 71.558 113 73C113.079 73.9088 113.157 74.8176 113.238 75.7539C113.263 76.6807 113.287 77.6076 113.312 78.5625C113.309 79.5963 113.305 80.6302 113.301 81.6953C113.202 82.7859 113.102 83.8764 113 85C112.869 85.5733 112.738 86.1466 112.603 86.7373C112.439 87.3164 112.275 87.8955 112.105 88.4922C111.928 89.0677 111.75 89.6432 111.567 90.2361C111.38 90.7976 111.193 91.359 111 91.9375C110.443 93.4979 110.443 93.4979 109.875 95.0898C109.586 96.0502 109.298 97.0105 109 98C109.019 99.3787 109.019 99.3787 109.039 100.785C109.026 101.516 109.013 102.247 109 103C108.134 103.495 107.267 103.99 106.375 104.5C105.825 104.726 105.274 104.951 104.707 105.184C104.144 105.453 103.58 105.722 103 106C102.509 106.403 102.018 106.807 101.512 107.223C101.033 107.665 100.555 108.107 100.062 108.562C99.641 108.976 99.2195 109.39 98.7852 109.816C98.1961 110.207 97.607 110.598 97 111C95.9211 111.336 94.8421 111.673 93.7305 112.02C93.1168 112.18 92.5031 112.341 91.8708 112.507C90.9448 112.751 90.9448 112.751 90 113C89.4387 113.175 88.8774 113.35 88.2991 113.531C87.7518 113.709 87.2045 113.887 86.6406 114.07C85.8123 114.332 85.8123 114.332 84.9673 114.599C84.4006 114.773 83.8339 114.946 83.25 115.125C82.6408 115.302 82.0315 115.478 81.4038 115.66C80.4808 115.912 80.4808 115.912 79.5391 116.168C78.6346 116.395 78.6346 116.395 77.7119 116.626C77.147 116.75 76.5821 116.873 76 117C75.0796 117.12 74.1592 117.24 73.2109 117.363C72.3576 117.388 71.5042 117.412 70.625 117.438C69.7536 117.4 68.8822 117.363 67.9844 117.324C66.9995 117.217 66.0147 117.11 65 117C64.378 116.918 63.7561 116.837 63.1152 116.752C62.1069 116.606 62.1069 116.606 61.0781 116.457C60.3887 116.347 59.6993 116.236 58.989 116.122C58.2914 115.999 57.5938 115.877 56.875 115.75C56.1858 115.615 55.4965 115.48 54.7864 115.341C53.7803 115.126 53.7803 115.126 52.7539 114.906C52.1082 114.757 51.4626 114.607 50.7974 114.453C50.2042 114.304 49.6111 114.154 49 114C48.0603 113.722 47.1205 113.443 46.1523 113.156C45.3802 112.857 44.608 112.558 43.8125 112.25C43.137 111.91 42.4616 111.569 41.7656 111.219C41.183 110.817 40.6003 110.414 40 110C39.4792 109.495 38.9584 108.989 38.4219 108.469C37.749 107.618 37.749 107.618 37.0625 106.75C36.6874 106.144 36.3123 105.538 35.9258 104.914C35.4675 103.967 35.4675 103.967 35 103C34.7667 102.368 34.5334 101.737 34.293 101.086C34.0242 100.115 34.0242 100.115 33.75 99.125C33.6134 98.456 33.4767 97.787 33.3359 97.0977C33.2251 96.4054 33.1142 95.7132 33 95C32.8337 93.9153 32.8337 93.9153 32.6641 92.8086C32.5687 92.0674 32.4733 91.3262 32.375 90.5625C32.2629 89.5744 32.2629 89.5744 32.1484 88.5664C32.0995 87.7195 32.0505 86.8726 32 86C31.9639 85.1136 31.9639 85.1136 31.927 84.2092C31.9137 83.5137 31.9004 82.8182 31.8867 82.1016C31.8903 81.3195 31.8938 80.5374 31.8975 79.7317C31.9313 78.8302 31.9651 77.9288 32 77C32.088 75.9265 32.176 74.8529 32.2666 73.7468C32.3224 73.1711 32.3782 72.5954 32.4357 72.0022C32.4969 71.4098 32.5581 70.8174 32.6211 70.207C32.6852 69.6075 32.7492 69.0079 32.8152 68.3902C32.882 67.7826 32.9488 67.1749 33.0176 66.5488C33.0866 65.9347 33.1557 65.3205 33.2268 64.6877C33.2963 64.0689 33.3659 63.4501 33.4375 62.8125C33.5053 62.1884 33.573 61.5642 33.6428 60.9211C33.7098 60.3007 33.7767 59.6803 33.8457 59.041C33.9127 58.4293 33.9796 57.8176 34.0486 57.1874C34.1138 56.5958 34.1789 56.0041 34.2461 55.3945C34.3665 54.3102 34.487 53.2258 34.6111 52.1086C34.8036 50.5699 34.8036 50.5699 35 49C35.1805 47.8781 35.3611 46.7562 35.5471 45.6003C35.6966 44.7422 35.846 43.8841 36 43C35.4689 43.2539 34.9378 43.5079 34.3906 43.7695C33.6842 44.1137 32.9778 44.4579 32.25 44.8125C31.5165 45.1734 30.783 45.5344 30.0273 45.9062C29.3583 46.2672 28.6893 46.6281 28 47C27.2781 47.5981 26.5562 48.1963 25.8125 48.8125C25.2144 49.2044 24.6162 49.5962 24 50C23.1131 49.9587 22.2262 49.9175 21.3125 49.875C20.1678 49.4419 20.1678 49.4419 19 49C18.67 48.01 18.34 47.02 18 46C18.6368 45.2511 19.2736 44.5021 19.9297 43.7305C20.396 43.3004 20.8623 42.8703 21.3428 42.4272C21.8897 41.9563 22.4365 41.4853 23 41C23.6165 40.4762 24.233 39.9523 24.8682 39.4126C25.533 38.8601 26.1978 38.3075 26.8828 37.7383C27.575 37.1769 28.2673 36.6155 28.9805 36.0371C29.6882 35.468 30.3959 34.8989 31.125 34.3125C31.8404 33.7318 32.5559 33.1511 33.293 32.5527C34.3274 31.7165 34.3274 31.7165 35.3828 30.8633C36.0056 30.3609 36.6284 29.8586 37.27 29.3411C37.8409 28.8985 38.4118 28.456 39 28C39.5696 27.6109 40.1392 27.2219 40.7261 26.821C41.1465 26.5501 41.5669 26.2792 42 26ZM77 58C76.0039 58.0648 75.0078 58.1296 73.9814 58.1963C72.9073 58.2785 71.8332 58.3606 70.7266 58.4453C69.6392 58.5344 68.5519 58.6235 67.4316 58.7153C65.7949 58.8562 65.7949 58.8562 64.125 59C62.4921 59.1428 62.4921 59.1428 60.8262 59.2886C59.8136 59.379 58.8011 59.4694 57.7578 59.5625C56.8415 59.6463 55.9251 59.7301 54.981 59.8164C54.3272 59.877 53.6735 59.9376 53 60C53.2522 60.5918 53.5043 61.1837 53.7642 61.7935C54.172 62.5216 54.5798 63.2498 55 64C55.569 64.5541 56.1379 65.1083 56.7241 65.6792C57.4004 66.2156 58.0767 66.752 58.7734 67.3047C59.5159 67.8873 60.2584 68.47 61.0234 69.0703C61.7995 69.6659 62.5755 70.2614 63.375 70.875C64.1433 71.4937 64.9116 72.1125 65.7031 72.75C66.4482 73.3249 67.1933 73.8998 67.9609 74.4922C68.6395 75.0218 69.318 75.5515 70.0171 76.0972C70.9986 76.5441 70.9986 76.5441 72 77C72.6676 76.792 73.3351 76.584 74.0229 76.3696C74.6754 75.9177 75.3278 75.4657 76 75C76.6042 74.4812 77.2085 73.9623 77.8311 73.4277C78.4385 72.8225 79.046 72.2173 79.6719 71.5938C80.3357 70.9325 80.9996 70.2712 81.6836 69.5898C82.3655 68.9002 83.0474 68.2105 83.75 67.5C84.4474 66.8104 85.1448 66.1207 85.8633 65.4102C86.522 64.7489 87.1807 64.0876 87.8594 63.4062C88.7638 62.4984 88.7638 62.4984 89.6865 61.5723C90.12 61.0534 90.5534 60.5346 91 60C91 59.34 91 58.68 91 58C90.2678 57.9768 89.5356 57.9536 88.7812 57.9297C87.6984 57.9116 86.6156 57.8936 85.5 57.875C84.9043 57.8698 84.3086 57.8647 83.6948 57.8594C83.0401 57.862 82.3855 57.8645 81.7109 57.8672C80.6218 57.886 80.6218 57.886 79.5107 57.9053C78.2679 57.9522 78.2679 57.9522 77 58ZM101 60C101 60.66 101 61.32 101 62C100.422 62.3032 99.8434 62.6063 99.2476 62.9187C98.5059 63.2755 97.7642 63.6324 97 64C96.355 64.5031 95.71 65.0063 95.0454 65.5247C94.3833 66.1108 93.7212 66.6969 93.0391 67.3008C92.3211 67.9485 91.603 68.5963 90.8633 69.2637C89.7553 70.2778 89.7553 70.2778 88.625 71.3125C87.8632 71.977 87.1013 72.6415 86.3164 73.3262C85.6061 73.9778 84.8959 74.6294 84.1641 75.3008C83.1811 76.185 83.1811 76.185 82.1782 77.0872C81.7894 77.7184 81.4006 78.3496 81 79C81.2266 79.8671 81.4533 80.7341 81.6868 81.6274C82.1201 82.4104 82.5535 83.1933 83 84C83.6097 84.5479 84.2195 85.0957 84.8477 85.6602C85.5786 86.1229 86.3095 86.5857 87.0625 87.0625C88.2575 87.8108 88.2575 87.8108 89.4766 88.5742C90.7257 89.28 90.7257 89.28 92 90C92.8327 90.4189 93.6655 90.8379 94.5234 91.2695C95.3201 91.6343 96.1167 91.9991 96.9375 92.375C97.6684 92.6921 98.3993 93.0092 99.1523 93.3359C100.067 93.6646 100.067 93.6646 101 94C101.66 94 102.32 94 103 94C103.456 92.6542 103.456 92.6542 103.922 91.2812C104.131 90.3884 104.131 90.3884 104.345 89.4775C104.545 88.4987 104.545 88.4987 104.75 87.5C104.886 86.8345 105.023 86.169 105.163 85.4834C105.345 84.4475 105.345 84.4475 105.531 83.3906C105.629 82.6733 105.727 81.9559 105.828 81.2168C105.885 80.4853 105.942 79.7537 106 79C105.985 78.2633 105.969 77.5266 105.953 76.7676C105.896 76.0347 105.84 75.3019 105.781 74.5469C105.702 73.8282 105.622 73.1096 105.54 72.3691C105.444 71.6698 105.349 70.9705 105.25 70.25C105.152 69.5713 105.053 68.8926 104.952 68.1934C104.849 67.5572 104.747 66.9211 104.641 66.2656C104.429 65.188 104.218 64.1103 104 63C103.67 62.01 103.34 61.02 103 60C102.34 60 101.68 60 101 60ZM43 66C42.7396 66.5736 42.4792 67.1473 42.2109 67.7383C41.9351 68.5878 41.6592 69.4373 41.375 70.3125C41.112 71.3025 40.8491 72.2925 40.5781 73.3125C40.4679 73.8848 40.3577 74.4572 40.2441 75.0469C40.1636 75.6914 40.083 76.3359 40 77C39.971 77.7554 39.942 78.5108 39.9121 79.2891C39.9153 80.1012 39.9186 80.9133 39.9219 81.75C39.9485 82.5836 39.975 83.4172 40.0024 84.2761C40.0429 85.1131 40.0833 85.9501 40.125 86.8125C40.159 87.6244 40.193 88.4362 40.228 89.2727C40.2791 90.0554 40.3302 90.8381 40.3828 91.6445C40.4643 92.3878 40.5459 93.1311 40.6299 93.897C40.752 94.591 40.8742 95.285 41 96C41.1814 96.6411 41.3629 97.2823 41.5498 97.9429C41.7783 98.5018 42.0068 99.0608 42.2422 99.6367C42.8223 100.417 43.4023 101.196 44 102C45.2143 102.033 45.2143 102.033 46.4531 102.066C47.2936 101.714 48.1341 101.363 49 101C49.6342 100.555 50.2684 100.111 50.9219 99.6523C51.5252 99.0864 52.1284 98.5205 52.75 97.9375C53.4216 97.3084 54.0932 96.6794 54.7852 96.0312C55.5161 95.3609 56.247 94.6906 57 94C57.865 93.3297 58.7299 92.6594 59.6211 91.9688C60.468 91.2984 61.3149 90.6281 62.1875 89.9375C62.9326 89.2698 63.6777 88.602 64.4453 87.9141C65.2149 86.9666 65.2149 86.9666 66 86C65.8556 84.9481 65.7113 83.8963 65.5625 82.8125C65.2029 82.3304 64.8432 81.8483 64.4727 81.3516C63.9867 80.9055 63.5007 80.4595 63 80C62.4625 79.6159 61.9249 79.2317 61.3711 78.8359C60.7536 78.457 60.1362 78.078 59.5 77.6875C58.8078 77.2956 58.1155 76.9038 57.4023 76.5C56.6096 76.005 55.8168 75.51 55 75C54.2925 74.4586 54.2925 74.4586 53.5708 73.9062C53.0744 73.5041 52.5779 73.1019 52.0664 72.6875C51.5688 72.2767 51.0713 71.8659 50.5586 71.4426C50.0649 71.0284 49.5712 70.6142 49.0625 70.1875C48.5778 69.7778 48.0931 69.3681 47.5938 68.946C46.9151 68.3753 46.9151 68.3753 46.2227 67.793C45.4892 67.2013 44.7557 66.6096 44 66C43.67 66 43.34 66 43 66ZM74 89C73.2407 89.2359 72.4815 89.4718 71.6992 89.7148C70.8085 90.1389 69.9177 90.563 69 91C68.1402 91.7283 67.2804 92.4566 66.3945 93.207C65.9685 93.6292 65.5425 94.0514 65.1035 94.4863C64.6775 94.924 64.2514 95.3616 63.8125 95.8125C63.3749 96.2385 62.9372 96.6646 62.4863 97.1035C62.0642 97.5296 61.642 97.9556 61.207 98.3945C60.4787 99.2543 59.7504 100.114 59 101C58.5295 101.891 58.059 102.781 57.5742 103.699C57.3847 104.458 57.1952 105.218 57 106C57.66 106.66 58.32 107.32 59 108C60.1756 108.309 60.1756 108.309 61.375 108.625C61.9061 108.695 62.4372 108.764 62.9844 108.836C63.6495 108.89 64.3147 108.944 65 109C65.8714 109.054 66.7428 109.108 67.6406 109.164C69.1179 109.207 69.1179 109.207 70.625 109.25C71.6601 109.241 72.6952 109.232 73.7617 109.223C74.8304 109.149 75.899 109.076 77 109C78.0789 108.813 79.1579 108.626 80.2695 108.434C81.315 108.187 82.3604 107.941 83.4375 107.688C84.385 107.444 85.3324 107.2 86.3086 106.949C87.1968 106.636 88.0849 106.323 89 106C90.4715 105.36 90.4715 105.36 91.9727 104.707C92.9762 103.862 92.9762 103.862 94 103C93.8621 102.189 93.7241 101.378 93.582 100.543C92.7989 99.2842 92.7989 99.2842 92 98C91.3439 97.3568 90.6877 96.7135 90.0117 96.0508C89.2447 95.4771 88.4777 94.9035 87.6875 94.3125C86.9282 93.7311 86.169 93.1498 85.3867 92.5508C84.5991 92.039 83.8115 91.5273 83 91C82.1196 90.6068 81.2391 90.2137 80.332 89.8086C79.5625 89.5418 78.7929 89.2749 78 89C77.34 88.9175 76.68 88.835 76 88.75C75.34 88.8325 74.68 88.915 74 89Z" fill="black"/>
</g>
<defs>
<clipPath id="clip0_7_859">
<rect width="456" height="2405" fill="white" transform="translate(-152 -1581)"/>
</clipPath>
</defs>
</svg>
