<svg width="152" height="139" viewBox="0 0 152 139" fill="none" xmlns="http://www.w3.org/2000/svg">
<g clip-path="url(#clip0_7_859)">
<path d="M87 14C87.9475 13.8479 88.8949 13.6958 89.8711 13.5391C90.9036 13.6912 91.9362 13.8433 93 14C93.6806 14.4847 94.3612 14.9694 95.0625 15.4688C95.7019 16.1391 96.3413 16.8094 97 17.5C98.1312 18.5905 98.1312 18.5905 99.2852 19.7031C99.7056 20.0828 100.126 20.4624 100.559 20.8535C101.035 21.2319 101.51 21.6102 102 22C102.575 22.3629 103.15 22.7257 103.742 23.0996C104.362 23.4535 104.982 23.8073 105.621 24.1719C106.251 24.5206 106.881 24.8693 107.529 25.2285C108.159 25.5656 108.789 25.9027 109.438 26.25C110.053 26.5665 110.669 26.8829 111.303 27.209C112.172 27.6701 112.172 27.6701 113.059 28.1406C114.029 28.7542 115 29.3678 116 30C116.465 30.7373 116.931 31.4747 117.41 32.2344C117.605 32.817 117.799 33.3997 118 34C117.353 34.2462 116.706 34.4924 116.039 34.7461C114.535 34.8718 114.535 34.8718 113 35C112.354 34.7797 111.708 34.5595 111.042 34.3325C110.335 34.0075 109.627 33.6825 108.898 33.3477C108.161 32.9835 107.424 32.6193 106.664 32.2441C105.909 31.8542 105.153 31.4643 104.375 31.0625C103.612 30.6764 102.849 30.2904 102.062 29.8926C101.328 29.5271 100.593 29.1617 99.8359 28.7852C99.1713 28.4436 98.5066 28.1021 97.8218 27.7502C97.2206 27.5027 96.6194 27.2551 96 27C95.01 27 94.02 27 93 27C92.9175 28.1137 92.835 29.2275 92.75 30.375C92.75 31.1111 92.75 31.8471 92.75 32.6055C92.8325 33.3957 92.915 34.1859 93 35C93.2475 35.7593 93.495 36.5185 93.75 37.3008C94.245 38.4822 94.245 38.4822 94.75 39.6875C95.1187 40.5383 95.4873 41.3891 95.8672 42.2656C96.241 43.168 96.6148 44.0703 97 45C97.312 45.9436 97.6239 46.8872 97.9453 47.8594C98.4055 49.383 98.4055 49.383 98.875 50.9375C99.1986 52.0319 99.5221 53.1263 99.8555 54.2539C100.033 54.847 100.21 55.4402 100.392 56.0513C100.593 56.6944 100.793 57.3374 101 58C101.246 58.7243 101.491 59.4486 101.745 60.1948C102.011 60.9646 102.277 61.7343 102.551 62.5273C102.821 63.3197 103.091 64.1121 103.37 64.9285C103.64 65.7358 103.91 66.5432 104.188 67.375C104.449 68.1843 104.71 68.9936 104.98 69.8274C105.226 70.632 105.473 71.4366 105.727 72.2656C105.954 73.0603 106.181 73.855 106.415 74.6738C106.705 75.8253 106.705 75.8253 107 77C107.204 78.0741 107.204 78.0741 107.413 79.1699C107.511 79.8512 107.61 80.5325 107.711 81.2344C107.817 82.2157 107.817 82.2157 107.925 83.2168C107.971 83.8465 108.016 84.4762 108.062 85.125C108.088 85.7392 108.114 86.3535 108.141 86.9863C108.146 87.5735 108.151 88.1607 108.156 88.7656C108.079 90.3666 108.079 90.3666 108 92C107.887 92.8611 107.773 93.7222 107.656 94.6094C107.46 95.357 107.264 96.1047 107.062 96.875C106.776 97.5582 106.49 98.2414 106.195 98.9453C105.801 99.6234 105.406 100.301 105 101C104.461 101.781 103.922 102.562 103.367 103.367C102.412 104.547 102.412 104.547 101.438 105.75C100.726 106.491 100.014 107.232 99.2812 107.996C98.5284 108.657 97.7756 109.319 97 110C96.2678 110.507 95.5356 111.013 94.7812 111.535C93.6211 112.167 93.6211 112.167 92.4375 112.812C91.5996 113.184 90.7617 113.555 89.8984 113.938C88.942 114.288 87.9855 114.639 87 115C86.428 115.195 85.856 115.389 85.2666 115.59C84.6553 115.787 84.0439 115.984 83.4141 116.188C82.7846 116.378 82.1551 116.568 81.5066 116.764C80.865 116.945 80.2235 117.126 79.5625 117.312C78.919 117.479 78.2755 117.646 77.6125 117.818C76.976 117.968 76.3394 118.119 75.6836 118.273C75.0595 118.406 74.4355 118.538 73.7925 118.675C73.201 118.782 72.6094 118.889 72 119C70.9804 119.116 69.9607 119.232 68.9102 119.352C67.9911 119.38 67.072 119.408 66.125 119.438C65.2536 119.396 64.3822 119.355 63.4844 119.312C62.6645 119.209 61.8447 119.106 61 119C60.2214 118.856 59.4428 118.711 58.6406 118.562C57.893 118.356 57.1453 118.15 56.375 117.938C55.6544 117.66 54.9338 117.383 54.1914 117.098C53.4682 116.735 52.7451 116.373 52 116C50.8379 115.287 50.8379 115.287 49.6523 114.559C48.8802 114.003 48.108 113.447 47.3125 112.875C46.5739 112.263 45.8352 111.65 45.0742 111.02C44.3897 110.353 43.7052 109.687 43 109C42.4083 108.282 41.8166 107.564 41.207 106.824C40.685 106.078 40.1629 105.331 39.625 104.562C39.1609 103.799 38.6969 103.036 38.2188 102.25C37.8166 101.507 37.4144 100.765 37 100C36.6597 99.34 36.3194 98.68 35.9688 98C35.6903 97.3606 35.4119 96.7212 35.125 96.0625C34.9097 95.4051 34.6945 94.7477 34.4727 94.0703C34.3167 93.3871 34.1607 92.7039 34 92C33.8956 91.2755 33.7912 90.5511 33.6836 89.8047C33.6436 89.0235 33.6037 88.2423 33.5625 87.4375C33.5909 86.6009 33.6192 85.7643 33.6484 84.9023C33.7645 83.9446 33.8805 82.9868 34 82C34.1073 81.4227 34.2146 80.8453 34.3252 80.2505C34.4576 79.6329 34.5901 79.0152 34.7266 78.3789C34.8805 77.7383 35.0345 77.0977 35.1931 76.4377C35.3563 75.7983 35.5194 75.1588 35.6875 74.5C35.8358 73.9076 35.9841 73.3152 36.137 72.7048C36.3019 72.1113 36.4668 71.5178 36.6367 70.9062C36.8303 70.2802 37.0239 69.6542 37.2234 69.0093C37.4797 68.3462 37.736 67.6832 38 67C38.3833 66.2918 38.7665 65.5836 39.1614 64.854C39.8085 63.6926 39.8085 63.6926 40.4688 62.5078C40.9047 61.6619 41.3406 60.8159 41.7898 59.9443C42.1892 58.9727 42.5885 58.0011 43 57C43.1543 56.425 43.3085 55.8499 43.4674 55.2574C43.601 54.6417 43.7347 54.026 43.8723 53.3916C43.9943 52.7512 44.1163 52.1108 44.242 51.451C44.3542 50.7943 44.4664 50.1376 44.582 49.4609C44.6891 48.8034 44.7962 48.1459 44.9065 47.4684C45.0089 46.8047 45.1113 46.1409 45.2168 45.457C45.3147 44.7875 45.4126 44.118 45.5134 43.4282C45.6121 42.7507 45.7108 42.0731 45.8125 41.375C45.9738 40.3321 45.9738 40.3321 46.1384 39.2681C46.2468 38.5776 46.3552 37.8872 46.4668 37.1758C46.6227 36.1764 46.6227 36.1764 46.7817 35.1569C46.9303 34.1936 46.9303 34.1936 47.082 33.2109C47.1757 32.5861 47.2694 31.9613 47.3659 31.3175C47.4499 30.7491 47.5339 30.1808 47.6204 29.5952C47.7456 28.7388 47.8709 27.8824 48 27C46.8499 27.2004 46.8499 27.2004 45.6765 27.4048C44.7933 27.6012 43.91 27.7976 43 28C42.068 28.5027 41.136 29.0055 40.1758 29.5234C38.7585 30.44 38.7585 30.44 37.3125 31.375C36.3599 31.9809 35.4073 32.5867 34.4258 33.2109C33.6253 33.8013 32.8248 34.3917 32 35C31.612 35.5749 31.224 36.1498 30.8242 36.7422C30.4162 37.3648 30.4162 37.3648 30 38C29.175 37.9175 28.35 37.835 27.5 37.75C26.675 37.5025 25.85 37.255 25 37C24.34 36.67 23.68 36.34 23 36C23 35.01 23 34.02 23 33C23.5952 32.3787 23.5952 32.3787 24.2024 31.7449C24.7608 31.3379 25.3192 30.931 25.8945 30.5117C26.5151 30.0551 27.1357 29.5986 27.7751 29.1282C28.4475 28.6528 29.1198 28.1773 29.8125 27.6875C30.8355 26.956 30.8355 26.956 31.8792 26.2097C32.5661 25.7254 33.2531 25.2411 33.9609 24.7422C34.6477 24.2714 35.3344 23.8005 36.042 23.3154C36.6881 22.8813 37.3343 22.4472 38 22C38.5482 21.6381 39.0963 21.2762 39.6611 20.9033C40.1571 20.5872 40.6531 20.271 41.1641 19.9453C42.0793 19.4065 42.9945 18.8677 43.9375 18.3125C45.2349 17.6415 45.2349 17.6415 46.5586 16.957C47.3643 16.6412 48.1699 16.3254 49 16C49.7747 15.8595 50.5495 15.719 51.3477 15.5742C52.4131 15.5375 52.4131 15.5375 53.5 15.5C54.1084 15.5309 54.7169 15.5619 55.3438 15.5938C55.8903 15.7278 56.4369 15.8619 57 16C57.8817 16.3558 57.8817 16.3558 58.7812 16.7188C59.1834 17.1416 59.5856 17.5644 60 18C59.9053 19.1331 59.9053 19.1331 59.8086 20.2891C59.5418 21.1837 59.2749 22.0783 59 23C58.5533 24.311 58.5533 24.311 58.0977 25.6484C57.7561 26.5482 57.4145 27.448 57.0625 28.375C56.708 29.3392 56.3535 30.3034 55.9883 31.2969C55.4991 32.6349 55.4991 32.6349 55 34C54.7667 34.6445 54.5334 35.2891 54.293 35.9531C54.1138 36.5048 53.9346 37.0566 53.75 37.625C53.5025 38.7387 53.255 39.8525 53 41C53 43.97 53 46.94 53 50C64.88 50 76.76 50 89 50C87.68 44.39 86.36 38.78 85 33C84.6906 31.185 84.3812 29.37 84.0625 27.5C84.0109 26.7498 83.9594 25.9995 83.9062 25.2266C83.9527 24.1244 83.9527 24.1244 84 23C84.1341 22.1415 84.2681 21.283 84.4062 20.3984C84.6228 19.5657 84.8394 18.733 85.0625 17.875C85.3893 16.7574 85.3893 16.7574 85.7227 15.6172C86.1442 15.0835 86.5657 14.5498 87 14ZM60 56C59.3353 56.0807 58.6707 56.1615 57.9858 56.2446C57.1633 56.3807 57.1633 56.3807 56.3242 56.5195C55.1737 56.7574 55.1737 56.7574 54 57C54.1027 57.5873 54.2054 58.1747 54.3113 58.7798C54.5386 59.5125 54.7658 60.2451 55 61C55.4406 61.5844 55.8812 62.1689 56.3352 62.771C56.891 63.3493 57.4469 63.9276 58.0195 64.5234C58.6299 65.1512 59.2403 65.779 59.8691 66.4258C60.8311 67.3906 60.8311 67.3906 61.8125 68.375C62.7571 69.3747 62.7571 69.3747 63.7207 70.3945C64.6421 71.3246 64.6421 71.3246 65.582 72.2734C66.1412 72.845 66.7005 73.4165 67.2766 74.0054C67.8453 74.3336 68.414 74.6618 69 75C69.6923 74.7732 70.3846 74.5464 71.0979 74.3127C71.7256 73.8795 72.3533 73.4463 73 73C73.611 72.2485 74.222 71.497 74.8516 70.7227C75.4368 69.8448 76.022 68.967 76.625 68.0625C77.5106 66.7496 77.5106 66.7496 78.4141 65.4102C78.9374 64.6148 79.4608 63.8195 80 63C80.6304 62.2246 80.6304 62.2246 81.2734 61.4336C81.5132 60.9605 81.753 60.4874 82 60C81.9136 58.9788 81.9136 58.9788 81.8254 57.937C81.553 57.2978 81.2806 56.6586 81 56C80.0367 55.7674 80.0367 55.7674 79.054 55.53C78.2176 55.5446 77.3812 55.5592 76.5195 55.5742C75.6024 55.5826 74.6852 55.591 73.7402 55.5996C72.291 55.6431 72.291 55.6431 70.8125 55.6875C69.8657 55.6972 68.9189 55.7068 67.9434 55.7168C67.0197 55.7316 66.0961 55.7464 65.1445 55.7617C63.8096 55.8069 63.8096 55.8069 62.4478 55.853C61.64 55.9015 60.8322 55.95 60 56ZM92 57C91.4973 57.5195 90.9945 58.039 90.4766 58.5742C89.8655 59.2716 89.2545 59.969 88.625 60.6875C87.6717 61.7916 87.6717 61.7916 86.6992 62.918C86.1385 63.605 85.5777 64.2921 85 65C84.4844 65.825 83.9688 66.65 83.4375 67.5C82.9631 68.325 82.4888 69.15 82 70C81.271 70.9784 81.271 70.9784 80.5273 71.9766C79.9821 72.6855 79.4368 73.3945 78.875 74.125C78.3568 74.7876 77.8386 75.4502 77.3047 76.1328C76.8741 76.749 76.4436 77.3652 76 78C75.67 78.99 75.34 79.98 75 81C75.5156 82.0312 76.0312 83.0625 76.5625 84.125C77.1213 85.0396 77.1213 85.0396 77.6914 85.9727C78.1232 86.6417 78.5551 87.3107 79 88C79.4834 88.7412 79.9668 89.4824 80.4648 90.2461C80.9714 91.0105 81.478 91.7749 82 92.5625C82.513 93.3179 83.0261 94.0733 83.5547 94.8516C84.2701 95.915 84.2701 95.915 85 97C85.3738 97.6059 85.7477 98.2117 86.1328 98.8359C86.4602 99.3645 86.7877 99.893 87.125 100.438C87.7437 101.283 88.3625 102.129 89 103C89.9513 103.671 89.9513 103.671 90.9219 104.355C91.6077 104.568 92.2934 104.781 93 105C93.8082 104.408 93.8082 104.408 94.6328 103.805C95.3714 102.849 95.3714 102.849 96.125 101.875C96.6226 101.254 97.1202 100.632 97.6328 99.9922C98.084 99.3348 98.5352 98.6773 99 98C99.3803 97.3774 99.7605 96.7548 100.152 96.1133C100.432 95.4159 100.712 94.7185 101 94C101.122 93.1299 101.245 92.2598 101.371 91.3633C101.393 90.3565 101.415 89.3498 101.438 88.3125C101.422 87.1717 101.407 86.0309 101.391 84.8555C101.346 84.2385 101.302 83.6215 101.256 82.9858C101.129 82.0028 101.129 82.0028 101 81C100.777 79.9339 100.777 79.9339 100.549 78.8462C100.363 78.1093 100.176 77.3725 99.9844 76.6133C99.7763 75.8684 99.5682 75.1236 99.3538 74.3562C99.1339 73.6199 98.914 72.8836 98.6875 72.125C98.4747 71.4242 98.2619 70.7233 98.0427 70.0012C97.8262 69.3228 97.6098 68.6443 97.3867 67.9453C97.1642 67.2908 96.9417 66.6363 96.7124 65.9619C96.4773 65.3145 96.2422 64.6671 96 64C95.7353 63.3191 95.4705 62.6381 95.1978 61.9365C94.8002 60.9741 94.8002 60.9741 94.3945 59.9922C93.9343 59.0048 93.4741 58.0173 93 57C92.67 57 92.34 57 92 57ZM49 65C48.4277 65.8314 48.4277 65.8314 47.8438 66.6797C47.4003 67.4041 46.9569 68.1286 46.5 68.875C46.0566 69.5943 45.6131 70.3136 45.1562 71.0547C44.7747 71.6966 44.3931 72.3386 44 73C43.67 73.66 43.34 74.32 43 75C42.9008 75.5375 42.8016 76.0751 42.6995 76.6289C42.5872 77.586 42.5872 77.586 42.4727 78.5625C42.3997 79.2729 42.3268 79.9832 42.2517 80.7151C42.1893 81.4691 42.1268 82.2231 42.0625 83C42.0046 83.7637 41.9466 84.5274 41.887 85.3142C41.8547 86.0755 41.8223 86.8368 41.7891 87.6211C41.792 88.3699 41.7949 89.1187 41.7979 89.8901C41.8646 90.5864 41.9313 91.2826 42 92C42.1801 92.5867 42.3603 93.1734 42.5459 93.7778C42.786 94.2959 43.0261 94.8139 43.2734 95.3477C44.0971 96.6915 44.0971 96.6915 44.9375 98.0625C45.5034 98.8372 46.0693 99.612 46.6523 100.41C47.0971 100.935 47.5418 101.459 48 102C48.8804 101.475 49.7609 100.951 50.668 100.41C51.2163 100.044 51.7646 99.6783 52.3296 99.3013C53.1564 98.6571 53.1564 98.6571 54 98C54.4674 97.5048 54.9349 97.0097 55.4165 96.4995C55.8527 95.9621 56.2889 95.4248 56.7383 94.8711C57.1656 94.311 57.5929 93.7509 58.0332 93.1738C58.4554 92.6008 58.8775 92.0279 59.3125 91.4375C59.754 90.8606 60.1955 90.2838 60.6504 89.6895C61.0713 89.1306 61.4921 88.5718 61.9258 87.9961C62.3013 87.4926 62.6768 86.9892 63.0637 86.4705C63.5272 85.7426 63.5272 85.7426 64 85C64.33 84.01 64.66 83.02 65 82C64.6081 81.0306 64.2163 80.0612 63.8125 79.0625C63.5302 78.5443 63.2479 78.0261 62.957 77.4922C62.6412 76.9998 62.3254 76.5073 62 76C61.34 75.2369 60.68 74.4737 60 73.6875C59.34 73.1306 58.68 72.5738 58 72C57.01 71.67 56.02 71.34 55 71C54.554 70.5346 54.108 70.0693 53.6484 69.5898C53.2282 69.0446 52.808 68.4993 52.375 67.9375C51.9496 67.3896 51.5242 66.8418 51.0859 66.2773C50.7276 65.8558 50.3692 65.4343 50 65C49.67 65 49.34 65 49 65ZM68 88C67.4908 88.4499 66.9816 88.8998 66.457 89.3633C65.9143 90.0065 65.3716 90.6498 64.8125 91.3125C63.9076 92.3895 63.9076 92.3895 62.9844 93.4883C62.3295 94.3171 61.6747 95.146 61 96C60.4538 96.722 60.4538 96.722 59.8965 97.4585C59.3367 98.2119 59.3367 98.2119 58.7656 98.9805C58.3985 99.4809 58.0313 99.9813 57.6531 100.497C57.2932 100.993 56.9333 101.489 56.5625 102C56.2084 102.493 55.8543 102.986 55.4895 103.493C55.1643 103.949 54.839 104.405 54.5039 104.875C54.0076 105.576 53.5113 106.277 53 107C53.7425 107.804 54.485 108.609 55.25 109.438C55.8765 110.116 55.8765 110.116 56.5156 110.809C57.0055 111.202 57.4953 111.595 58 112C58.6304 112.214 59.2607 112.428 59.9102 112.648C60.5998 112.764 61.2895 112.88 62 113C62.6742 113.055 63.3484 113.111 64.043 113.168C64.7507 113.174 65.4584 113.181 66.1875 113.188C66.9674 113.177 67.7473 113.167 68.5508 113.156C69.359 113.105 70.1673 113.053 71 113C71.8186 112.887 72.6371 112.773 73.4805 112.656C74.2707 112.502 75.0609 112.347 75.875 112.188C76.5943 112.037 77.3136 111.886 78.0547 111.73C78.6966 111.489 79.3386 111.248 80 111C80.6304 110.598 81.2607 110.196 81.9102 109.781C82.2698 109.193 82.6295 108.606 83 108C82.7332 107.13 82.4663 106.26 82.1914 105.363C81.6539 104.357 81.1163 103.35 80.5625 102.312C80.2804 101.783 79.9984 101.254 79.7078 100.708C79.4175 100.177 79.1272 99.6452 78.8281 99.0977C78.3728 98.3109 78.3728 98.3109 77.9082 97.5083C77.6085 97.0106 77.3088 96.5128 77 96C76.4586 95.1531 75.9172 94.3062 75.3594 93.4336C74.8489 92.713 74.3384 91.9924 73.8125 91.25C73.1106 90.2987 73.1106 90.2987 72.3945 89.3281C71.9343 88.8898 71.4741 88.4516 71 88C70.01 88 69.02 88 68 88Z" fill="black"/>
</g>
<defs>
<clipPath id="clip0_7_859">
<rect width="456" height="2405" fill="white" transform="translate(0 -1581)"/>
</clipPath>
</defs>
</svg>
