<svg width="152" height="168" viewBox="0 0 152 168" fill="none" xmlns="http://www.w3.org/2000/svg">
<g clip-path="url(#clip0_7_859)">
<path d="M45 34C45.99 34 46.98 34 48 34C48.3919 34.5027 48.7837 35.0055 49.1875 35.5234C49.4556 36.3407 49.7237 37.158 50 38C50.0599 38.8261 50.0599 38.8261 50.1211 39.6689C50.123 40.5947 50.123 40.5947 50.125 41.5391C50.1082 42.1978 50.0915 42.8565 50.0742 43.5352C50.0375 44.5696 50.0375 44.5696 50 45.625C49.9787 46.6865 49.9787 46.6865 49.957 47.7695C49.9506 48.4772 49.9441 49.1849 49.9375 49.9141C49.9375 50.6092 49.9375 51.3043 49.9375 52.0205C49.9581 52.6737 49.9787 53.327 50 54C50.1444 55.0802 50.2887 56.1605 50.4375 57.2734C50.6231 58.1732 50.8088 59.073 51 60C51.2784 61.1756 51.2784 61.1756 51.5625 62.375C51.7069 62.9112 51.8512 63.4475 52 64C52.5685 63.9162 53.137 63.8324 53.7227 63.7461C54.4948 63.6443 55.267 63.5424 56.0625 63.4375C56.8823 63.3473 57.7022 63.257 58.5469 63.1641C59.3564 63.1099 60.1659 63.0558 61 63C61.9977 63.0425 61.9977 63.0425 63.0156 63.0859C63.6086 63.1607 64.2016 63.2355 64.8125 63.3125C65.8644 63.5394 66.9162 63.7662 68 64C68.5827 64.3429 69.1653 64.6858 69.7656 65.0391C70.503 65.3562 71.2403 65.6733 72 66C73.0815 66.0529 74.163 66.1057 75.2773 66.1602C75.8735 66.1492 76.4697 66.1382 77.084 66.127C78.0015 66.095 78.0015 66.095 78.9375 66.0625C79.5453 66.0451 80.1531 66.0277 80.7793 66.0098C81.3768 65.9975 81.9743 65.9853 82.5898 65.9727C84.2779 65.9862 84.2779 65.9862 86 66C86.874 66.1637 87.748 66.3274 88.6484 66.4961C89.4245 66.6624 90.2005 66.8287 91 67C91.7876 67.0206 92.5752 67.0412 93.3867 67.0625C94.146 67.0419 94.9052 67.0213 95.6875 67C96.4545 66.9794 97.2215 66.9588 98.0117 66.9375C98.6679 66.9581 99.324 66.9787 100 67C100.66 67.33 101.32 67.66 102 68C101.959 67.3096 101.918 66.6193 101.876 65.908C101.795 64.4666 101.795 64.4666 101.711 62.9961C101.657 61.9449 101.603 60.8936 101.547 59.8105C101.49 58.6974 101.433 57.5843 101.375 56.4375C101.311 55.3515 101.246 54.2654 101.18 53.1465C101.128 52.0862 101.077 51.026 101.023 49.9336C100.992 48.9086 100.961 47.8837 100.929 46.8276C100.952 45.8945 100.976 44.9614 101 44C101.14 43.228 101.279 42.456 101.423 41.6606C101.697 40.7013 101.697 40.7013 101.977 39.7227C102.314 38.8242 102.652 37.9257 103 37C104.089 37.0715 104.089 37.0715 105.199 37.1445C106.123 37.4268 107.048 37.7091 108 38C108.79 38.8289 109.58 39.6577 110.395 40.5117C110.986 41.2734 110.986 41.2734 111.59 42.0505C112.195 42.8608 112.195 42.8608 112.812 43.6875C113.24 44.2348 113.667 44.7821 114.107 45.3459C114.758 46.157 114.758 46.157 115.422 46.9844C115.852 47.5097 116.282 48.035 116.725 48.5762C117.145 49.046 117.566 49.5159 118 50C119.183 50.9668 119.183 50.9668 120.391 51.9531C121.107 52.443 121.824 52.9328 122.562 53.4375C123.197 53.8771 123.831 54.3166 124.484 54.7695C124.985 55.1756 125.485 55.5816 126 56C126.433 56.8662 126.866 57.7325 127.312 58.625C127.209 59.4087 127.106 60.1925 127 61C126.01 62.2684 126.01 62.2684 125 63.5625C124.01 64.0369 123.02 64.5112 122 65C121.444 64.8337 120.889 64.6674 120.316 64.4961C119.738 64.1674 119.159 63.8387 118.562 63.5C117.975 63.103 117.387 62.7059 116.781 62.2969C116.193 61.8689 115.606 61.4409 115 61C114.118 60.4199 114.118 60.4199 113.219 59.8281C112.672 59.4723 112.126 59.1166 111.562 58.75C110.294 57.8838 110.294 57.8838 109 57C109.133 57.5943 109.266 58.1885 109.402 58.8008C109.667 60.0441 109.667 60.0441 109.938 61.3125C110.121 62.2213 110.304 63.1301 110.492 64.0664C110.66 65.0345 110.827 66.0026 111 67C111.106 67.9578 111.211 68.9155 111.32 69.9023C111.44 71.3119 111.44 71.3119 111.562 72.75C111.626 73.6111 111.689 74.4722 111.754 75.3594C111.835 76.2308 111.916 77.1022 112 78C112.161 78.9268 112.321 79.8537 112.487 80.8086C112.656 81.8618 112.826 82.9149 113 84C113.089 84.9297 113.177 85.8595 113.269 86.8174C113.362 88.2458 113.362 88.2458 113.457 89.7031C113.517 90.7666 113.577 91.8301 113.639 92.9258C113.696 94.0228 113.753 95.1198 113.812 96.25C113.889 97.3315 113.966 98.413 114.045 99.5273C114.125 101.13 114.125 101.13 114.207 102.766C114.22 103.813 114.232 104.861 114.246 105.94C114.165 106.95 114.084 107.96 114 109C113.594 110.442 113.594 110.442 113.18 111.913C112.831 112.799 112.481 113.685 112.121 114.598C111.768 115.374 111.416 116.15 111.052 116.949C110.705 117.626 110.358 118.303 110 119C109.689 119.588 109.377 120.177 109.056 120.783C108.79 121.246 108.524 121.71 108.25 122.188C107.912 122.643 107.575 123.098 107.227 123.566C106.822 124.039 106.417 124.513 106 125C105.492 125.587 104.984 126.173 104.461 126.777C103.855 127.387 103.249 127.997 102.625 128.625C101.939 129.208 101.253 129.79 100.547 130.391C99.2862 131.187 99.2862 131.187 98 132C97.4592 132.225 96.9185 132.45 96.3613 132.682C95.7729 132.885 95.1844 133.088 94.5781 133.297C93.9689 133.483 93.3596 133.669 92.7319 133.861C92.1191 134.031 91.5064 134.2 90.875 134.375C90.2893 134.53 89.7036 134.686 89.1001 134.846C88.5282 134.987 87.9564 135.128 87.3672 135.273C86.256 135.513 85.1448 135.753 84 136C82.9855 136.193 81.971 136.387 80.9258 136.586C79.4775 136.791 79.4775 136.791 78 137C77.068 137.067 76.136 137.134 75.1758 137.203C73.7585 137.226 73.7585 137.226 72.3125 137.25C71.2722 137.238 70.232 137.227 69.1602 137.215C68.1173 137.144 67.0745 137.073 66 137C65.0293 136.836 64.0587 136.673 63.0586 136.504C62.1318 136.276 61.2049 136.048 60.25 135.812C59.3554 135.537 58.4608 135.261 57.5391 134.977C56.7012 134.654 55.8633 134.332 55 134C54.2446 133.636 53.4892 133.273 52.7109 132.898C51.6784 132.299 51.6784 132.299 50.625 131.688C49.6795 131.034 49.6795 131.034 48.7148 130.367C47.866 129.69 47.866 129.69 47 129C46.5063 128.569 46.0126 128.139 45.5039 127.695C45.0695 127.239 44.6351 126.783 44.1875 126.312C43.8328 125.83 43.478 125.347 43.1125 124.85C42.7454 124.239 42.3783 123.629 42 123C41.7166 122.307 41.4331 121.614 41.1411 120.9C40.8909 120.116 40.6406 119.331 40.3828 118.523C40.1288 117.635 39.8748 116.746 39.613 115.83C39.4107 114.896 39.2084 113.962 39 113C38.9105 112.092 38.821 111.185 38.7288 110.25C38.6984 109.318 38.668 108.386 38.6367 107.426C38.636 106.443 38.6353 105.461 38.6345 104.448C38.652 103.413 38.6695 102.379 38.6875 101.312C38.6966 100.212 38.7057 99.1114 38.7151 97.9775C38.722 97.4055 38.729 96.8335 38.7361 96.2442C38.7507 95.3673 38.7507 95.3673 38.7656 94.4727C38.7796 93.8788 38.7936 93.2849 38.808 92.6731C38.8256 92.0657 38.8432 91.4583 38.8613 90.8325C38.8822 90.2103 38.9031 89.5881 38.9246 88.9471C38.9495 88.3045 38.9744 87.662 39 87C39.0301 86.3265 39.0601 85.6531 39.0911 84.9592C39.1248 84.2687 39.1586 83.5781 39.1934 82.8667C39.2299 82.168 39.2664 81.4693 39.304 80.7494C39.3429 80.0471 39.3818 79.3447 39.4219 78.6211C39.4829 77.5732 39.4829 77.5732 39.5452 76.5041C39.5874 75.8095 39.6296 75.1148 39.6731 74.3992C39.7165 73.7104 39.7599 73.0215 39.8046 72.3119C39.8704 71.2912 39.8704 71.2912 39.9375 70.25C39.9808 69.5793 40.0241 68.9087 40.0687 68.2177C40.112 67.5623 40.1553 66.9069 40.2 66.2317C40.2442 65.5942 40.2884 64.9567 40.3339 64.2999C40.3771 63.6905 40.4203 63.081 40.4648 62.4531C40.5434 61.3513 40.6219 60.2495 40.7029 59.1143C40.8009 58.0866 40.899 57.0588 41 56C41.2641 54.3154 41.2641 54.3154 41.5334 52.5967C41.6874 51.7398 41.8414 50.8829 42 50C41.5501 50.1843 41.1002 50.3687 40.6367 50.5586C39.9935 50.8486 39.3502 51.1387 38.6875 51.4375C37.9643 51.7907 37.2412 52.1439 36.4961 52.5078C35.6724 53.0002 34.8487 53.4927 34 54C33.3099 54.539 33.3099 54.539 32.606 55.0889C32.1288 55.4901 31.6517 55.8913 31.1602 56.3047C30.6778 56.7153 30.1955 57.126 29.6985 57.5491C29.2205 57.966 28.7425 58.3829 28.25 58.8125C27.7907 59.2339 27.3314 59.6554 26.8582 60.0896C26.4151 60.479 25.9721 60.8684 25.5156 61.2695C24.6855 61.8406 23.8553 62.4116 23 63C22.2536 62.9678 21.5073 62.9355 20.7383 62.9023C20.1646 62.6046 19.591 62.3068 19 62C18.6494 61.2575 18.2988 60.515 17.9375 59.75C17.9581 58.8425 17.9787 57.935 18 57C18.5981 56.2575 19.1963 55.515 19.8125 54.75C20.5047 54.1409 20.5047 54.1409 21.2109 53.5195C22.0965 52.7674 22.0965 52.7674 23 52C23.776 51.282 24.552 50.564 25.3516 49.8242C25.7724 49.4343 26.1932 49.0443 26.6267 48.6426C27.0593 48.2449 27.4918 47.8472 27.9375 47.4375C28.595 46.8429 28.595 46.8429 29.2659 46.2363C29.6976 45.8528 30.1294 45.4693 30.5742 45.0742C31.3747 44.3897 32.1752 43.7052 33 43C33.5839 42.5733 34.1679 42.1466 34.7695 41.707C35.2581 41.3912 35.7466 41.0754 36.25 40.75C37.1575 40.1725 38.065 39.595 39 39C39.5246 38.5566 40.0493 38.1131 40.5898 37.6562C41.1171 37.1922 41.6443 36.7281 42.1875 36.25C42.6554 35.822 43.1234 35.3941 43.6055 34.9531C44.0657 34.6386 44.5259 34.3241 45 34ZM65 75C64.01 75.495 64.01 75.495 63 76C63.2514 76.7232 63.5027 77.4463 63.7617 78.1914C64.1704 79.1182 64.579 80.0451 65 81C65.5839 81.834 66.1679 82.668 66.7695 83.5273C67.4437 84.3227 68.1179 85.118 68.8125 85.9375C69.4789 86.7509 70.1454 87.5643 70.832 88.4023C71.5475 88.9296 72.2629 89.4568 73 90C73.8327 89.8492 74.6655 89.6984 75.5234 89.543C76.7493 88.7792 76.7493 88.7792 78 88C78.6664 87.2859 79.3329 86.5717 80.0195 85.8359C80.6112 85.0238 81.2029 84.2117 81.8125 83.375C82.4171 82.5577 83.0216 81.7405 83.6445 80.8984C84.3155 79.9587 84.3155 79.9587 85 79C84.5076 78.6945 84.0152 78.389 83.5078 78.0742C82.6802 77.7197 81.8527 77.3652 81 77C80.1101 76.8175 80.1101 76.8175 79.2021 76.6313C78.5347 76.5326 77.8673 76.4338 77.1797 76.332C76.4797 76.2437 75.7798 76.1554 75.0586 76.0645C73.9777 75.9397 73.9777 75.9397 72.875 75.8125C72.1467 75.7178 71.4184 75.623 70.668 75.5254C69.6219 75.3987 69.6219 75.3987 68.5547 75.2695C67.9203 75.1932 67.2859 75.1169 66.6323 75.0383C65.8243 75.0194 65.8243 75.0194 65 75ZM49 79C48.7912 79.6226 48.5823 80.2452 48.3672 80.8867C48.2048 81.811 48.0423 82.7352 47.875 83.6875C47.7126 84.7626 47.5502 85.8377 47.3828 86.9453C47.3135 87.5708 47.2442 88.1963 47.1729 88.8408C47.0873 89.9096 47.0873 89.9096 47 91C46.961 91.8517 46.922 92.7035 46.8818 93.5811C46.8564 94.5005 46.8309 95.4199 46.8047 96.3672C46.792 97.3047 46.7792 98.2423 46.7661 99.2083C46.7608 100.15 46.7555 101.092 46.75 102.062C46.7408 102.991 46.7316 103.919 46.7222 104.876C46.7262 105.753 46.7302 106.631 46.7344 107.535C46.7366 108.323 46.7389 109.111 46.7412 109.922C46.8693 110.951 46.8693 110.951 47 112C47.3355 112.587 47.671 113.174 48.0166 113.779C48.3411 114.182 48.6656 114.585 49 115C49.515 114.536 50.03 114.073 50.5605 113.595C51.2728 112.95 51.985 112.305 52.7188 111.641C53.4857 110.937 54.2527 110.233 55.043 109.508C55.8538 108.763 56.6646 108.018 57.5 107.25C58.3108 106.52 59.1216 105.791 59.957 105.039C60.724 104.33 61.491 103.621 62.2812 102.891C62.9935 102.241 63.7057 101.592 64.4395 100.923C64.9544 100.288 65.4694 99.6538 66 99C66.1025 98.2981 66.205 97.5962 66.3105 96.873C66.2081 96.2549 66.1056 95.6368 66 95C65.5875 94.3864 65.175 93.7728 64.75 93.1406C64.1725 92.5167 63.595 91.8928 63 91.25C62.3671 90.5642 61.7341 89.8784 61.082 89.1719C60.0514 88.0968 60.0514 88.0968 59 87C58.282 86.242 57.564 85.4841 56.8242 84.7031C56.1191 83.9761 55.414 83.2491 54.6875 82.5C54.0314 81.8297 53.3752 81.1594 52.6992 80.4688C52.1385 79.9841 51.5777 79.4994 51 79C50.34 79 49.68 79 49 79ZM100 78C99.3555 78.3029 98.7109 78.6059 98.0469 78.918C97.2889 79.3369 96.5309 79.7559 95.75 80.1875C94.9456 80.649 94.1413 81.1105 93.3125 81.5859C92.5494 82.0526 91.7862 82.5192 91 83C90.4225 83.3841 89.845 83.7683 89.25 84.1641C88.755 84.543 88.26 84.922 87.75 85.3125C87.2898 85.7211 86.8296 86.1298 86.3555 86.5508C85.9082 87.029 85.4609 87.5073 85 88C84.5011 88.6329 84.0023 89.2659 83.4883 89.918C83.0178 90.605 82.5473 91.2921 82.0625 92C81.641 92.6394 81.2195 93.2788 80.7852 93.9375C80.3965 94.9584 80.3965 94.9584 80 96C80.0361 96.7979 80.0722 97.5959 80.1094 98.418C80.4033 99.27 80.6972 100.122 81 101C81.6123 101.862 82.2246 102.725 82.8555 103.613C83.2277 104.053 83.5999 104.493 83.9834 104.947C84.3808 105.397 84.7781 105.848 85.1875 106.312C85.7971 107.021 85.7971 107.021 86.4189 107.743C87.0295 108.458 87.0295 108.458 87.6523 109.188C88.2554 109.893 88.2554 109.893 88.8706 110.613C89.2433 111.071 89.616 111.529 90 112C90.5788 112.846 91.1576 113.691 91.7539 114.562C92.4945 115.676 92.4945 115.676 93.25 116.812C93.6677 117.479 94.0853 118.145 94.5156 118.832C95.0055 119.217 95.4953 119.603 96 120C96.8121 119.853 97.6242 119.706 98.4609 119.555C99.2988 119.042 100.137 118.529 101 118C101.606 117.171 102.212 116.342 102.836 115.488C103.096 114.985 103.357 114.482 103.625 113.964C103.872 113.419 104.12 112.874 104.375 112.312C104.636 111.743 104.897 111.174 105.166 110.587C105.531 109.695 105.531 109.695 105.902 108.785C106.111 108.168 106.32 107.551 106.535 106.915C106.688 106.283 106.842 105.651 107 105C107.059 104.362 107.119 103.724 107.18 103.066C107.184 102.424 107.188 101.782 107.191 101.121C107.163 100.48 107.134 99.8396 107.104 99.1794C107.022 98.2244 107.022 98.2244 106.938 97.25C106.868 96.6178 106.799 95.9856 106.728 95.3342C106.649 94.7186 106.57 94.103 106.488 93.4688C106.403 92.8771 106.317 92.2854 106.229 91.6758C106.153 91.1228 106.078 90.5698 106 90C105.898 88.5923 105.898 88.5923 105.793 87.1562C105.738 86.3622 105.682 85.5681 105.625 84.75C105.576 84.0848 105.527 83.4197 105.477 82.7344C105.319 82.162 105.162 81.5897 105 81C104.533 80.4277 104.067 79.8553 103.586 79.2656C103.063 78.848 102.539 78.4303 102 78C101.34 78 100.68 78 100 78ZM71 103C70.4509 103.45 69.9017 103.9 69.3359 104.363C68.6888 105.007 68.0417 105.65 67.375 106.312C66.6725 107.034 65.9699 107.756 65.2461 108.5C64.5049 109.325 63.7637 110.15 63 111C62.6134 111.465 62.2269 111.931 61.8286 112.41C61.2502 113.135 61.2502 113.135 60.6602 113.875C60.2878 114.362 59.9154 114.849 59.5317 115.35C59.1706 115.833 58.8095 116.315 58.4375 116.812C57.7556 117.726 57.0737 118.64 56.3711 119.582C55.9186 120.38 55.4662 121.178 55 122C55.33 122.99 55.66 123.98 56 125C56.7206 125.375 57.4412 125.75 58.1836 126.137C59.113 126.422 60.0424 126.706 61 127C61.9604 127.171 62.9207 127.343 63.9102 127.52C64.9504 127.616 65.9907 127.713 67.0625 127.812C68.1943 127.885 69.3261 127.957 70.4922 128.031C71.0707 128.04 71.6491 128.049 72.2451 128.059C72.8242 128.039 73.4033 128.02 74 128C75.137 127.845 76.2739 127.691 77.4453 127.531C78.5152 127.294 79.5852 127.057 80.6875 126.812C81.6607 126.571 82.634 126.33 83.6367 126.082C84.4166 125.725 85.1965 125.368 86 125C86.5105 124.412 87.0209 123.824 87.5469 123.219C87.6964 122.487 87.8459 121.754 88 121C87.5682 120.158 87.1363 119.316 86.6914 118.449C85.9889 117.538 85.2863 116.626 84.5625 115.688C84.1943 115.207 83.8261 114.726 83.4468 114.231C83.0712 113.75 82.6956 113.269 82.3086 112.773C81.923 112.303 81.5374 111.832 81.1401 111.347C80.7639 110.902 80.3876 110.458 80 110C79.331 109.25 78.662 108.5 77.9727 107.727C77.3629 107.095 76.7532 106.463 76.125 105.812C75.5707 105.262 75.0164 104.712 74.4453 104.145C73.9684 103.767 73.4914 103.389 73 103C72.34 103 71.68 103 71 103Z" fill="black"/>
</g>
<defs>
<clipPath id="clip0_7_859">
<rect width="456" height="2405" fill="white" transform="translate(-152 -2084)"/>
</clipPath>
</defs>
</svg>
