<svg width="152" height="166" viewBox="0 0 152 166" fill="none" xmlns="http://www.w3.org/2000/svg">
<g clip-path="url(#clip0_7_859)">
<path d="M72 39C72.99 39.33 73.98 39.66 75 40C75.3983 40.9848 75.7966 41.9697 76.207 42.9844C76.4403 43.9328 76.4403 43.9328 76.6782 44.9004C76.7844 45.5933 76.8906 46.2861 77 47C77.025 47.7187 77.05 48.4373 77.0757 49.1777C77.0546 49.9286 77.0335 50.6795 77.0117 51.4531C76.9655 52.232 76.9192 53.0108 76.8716 53.8132C76.7805 55.0194 76.7805 55.0194 76.6875 56.25C76.6319 57.0883 76.5763 57.9266 76.519 58.7903C76.4342 60.0407 76.4342 60.0407 76.3477 61.3164C76.2872 62.1235 76.2268 62.9306 76.1646 63.7622C76.1102 64.5007 76.0559 65.2392 76 66C75.9053 67.6842 75.9053 67.6842 75.8086 69.4023C75.7177 70.781 75.7177 70.781 75.625 72.1875C75.5464 73.0215 75.4677 73.8555 75.3867 74.7148C75.2591 75.4689 75.1315 76.223 75 77C74.7589 77.7232 74.5179 78.4463 74.2695 79.1914C73.995 79.8707 73.7204 80.5501 73.4375 81.25C73.1797 81.8804 72.9219 82.5107 72.6562 83.1602C72.4397 83.7673 72.2231 84.3745 72 85C71.8659 85.6175 71.7319 86.2349 71.5938 86.8711C71.5422 87.4705 71.4906 88.0699 71.4375 88.6875C71.6231 89.7806 71.8088 90.8737 72 92C72.3287 92.4525 72.6574 92.9049 72.9961 93.3711C73.6787 93.9918 73.6787 93.9918 74.375 94.625C74.9138 95.0169 75.4527 95.4087 76.0078 95.8125C76.6652 96.2044 77.3227 96.5962 78 97C78.843 97.4331 79.6861 97.8663 80.5547 98.3125C81.4441 98.7456 82.3336 99.1788 83.25 99.625C84.1008 100.009 84.9516 100.393 85.8281 100.789C86.5448 101.189 87.2616 101.588 88 102C88.4357 102.499 88.8714 102.998 89.3203 103.512C89.5446 104.003 89.7689 104.494 90 105C89.8144 106.083 89.8144 106.083 89.625 107.188C89.4188 107.786 89.2125 108.384 89 109C87.9275 108.979 86.855 108.959 85.75 108.938C85.0281 108.851 84.3062 108.765 83.5625 108.676C82.2941 108.341 82.2941 108.341 81 108C79.9894 107.499 78.9787 106.997 77.9375 106.48C77.4106 106.181 76.8837 105.881 76.3408 105.573C75.8158 105.26 75.2909 104.947 74.75 104.625C74.2431 104.321 73.7362 104.016 73.2139 103.703C72.4815 103.251 72.4815 103.251 71.7344 102.789C70.832 102.199 69.9297 101.608 69 101C68.3503 100.403 67.7006 99.8063 67.0312 99.1914C66.3609 98.7982 65.6906 98.4051 65 98C64.0255 98.1199 63.0509 98.2398 62.0469 98.3633C60.9589 98.6765 59.8709 98.9898 58.75 99.3125C58.1766 99.464 57.6032 99.6156 57.0125 99.7717C56.4399 99.9167 55.8673 100.062 55.2773 100.211C53.6551 100.602 53.6551 100.602 52 101C51.1557 101.116 50.3113 101.232 49.4414 101.352C48.7389 101.38 48.0363 101.408 47.3125 101.438C46.2194 101.293 45.1263 101.149 44 101C43.4025 99.9965 43.4025 99.9965 42.793 98.9727C42.5313 98.3217 42.2696 97.6707 42 97C42.6175 96.7435 43.2349 96.487 43.8711 96.2227C44.718 95.8398 45.5649 95.457 46.4375 95.0625C47.8007 94.3761 47.8007 94.3761 49.1914 93.6758C50.5817 92.8463 50.5817 92.8463 52 92C52.834 91.3336 53.668 90.6671 54.5273 89.9805C55.3021 89.2444 56.0768 88.5084 56.875 87.75C57.5737 87.0642 58.2723 86.3784 58.9922 85.6719C59.6548 84.7902 60.3173 83.9084 61 83C61.3541 82.404 61.7082 81.8079 62.073 81.1938C62.4214 80.4982 62.7699 79.8026 63.1289 79.0859C63.4576 78.3054 63.7863 77.5249 64.125 76.7207C64.4137 75.8229 64.7025 74.925 65 74C65.2114 72.932 65.4228 71.864 65.6406 70.7637C65.7299 70.191 65.8192 69.6184 65.9113 69.0284C65.9934 68.439 66.0755 67.8495 66.1602 67.2422C66.2389 66.645 66.3177 66.0478 66.3988 65.4325C66.4741 64.827 66.5494 64.2215 66.627 63.5977C66.6992 62.9855 66.7715 62.3734 66.8459 61.7427C66.9174 61.1263 66.9889 60.51 67.0625 59.875C67.1724 58.9452 67.1724 58.9452 67.2844 57.9966C67.3588 57.3802 67.4331 56.7639 67.5098 56.1289C67.5857 55.5224 67.6616 54.9159 67.7398 54.2911C67.8167 53.6974 67.8935 53.1038 67.9727 52.4922C68.1275 51.3588 68.2824 50.2254 68.4419 49.0576C68.6261 48.0486 68.8102 47.0396 69 46C69.2602 45.1998 69.5205 44.3996 69.7886 43.5752C70.2007 42.6137 70.2007 42.6137 70.6211 41.6328C71.0761 40.764 71.5312 39.8952 72 39Z" fill="black"/>
<path d="M102 36C102.804 36.2269 103.609 36.4537 104.438 36.6875C105.283 37.1206 106.129 37.5538 107 38C107.535 38.8156 107.535 38.8156 108.081 39.6477C108.384 40.424 108.688 41.2002 109 42C109.22 43.0489 109.44 44.0978 109.667 45.1785C109.813 46.0793 109.813 46.0793 109.963 46.9984C110.061 47.6422 110.16 48.2859 110.262 48.9492C110.373 49.6311 110.485 50.3131 110.599 51.0156C110.775 52.0844 110.775 52.0844 110.954 53.1748C111.133 54.28 111.133 54.28 111.316 55.4076C111.438 56.16 111.561 56.9123 111.688 57.6875C111.814 58.4442 111.94 59.2009 112.07 59.9806C112.264 61.1238 112.264 61.1238 112.462 62.29C112.594 63.0555 112.727 63.821 112.863 64.6097C112.999 65.3766 113.134 66.1435 113.273 66.9336C113.411 67.703 113.549 68.4724 113.69 69.265C113.831 70.0256 113.971 70.7862 114.116 71.5698C114.26 72.315 114.404 73.0601 114.552 73.8278C114.774 74.903 114.774 74.903 115 76C115.154 76.6678 115.309 77.3357 115.468 78.0237C115.626 78.6593 115.784 79.2949 115.946 79.9497C116.106 80.5623 116.265 81.1749 116.429 81.806C116.589 82.3972 116.749 82.9885 116.914 83.5977C117.073 84.1729 117.231 84.7482 117.395 85.3409C117.552 85.8985 117.71 86.456 117.872 87.0305C118.183 88.0929 118.493 89.1554 118.812 90.25C119.114 91.2589 119.416 92.2679 119.727 93.3074C120.009 94.2423 120.291 95.1773 120.582 96.1406C120.967 97.4203 120.967 97.4203 121.359 98.7258C121.676 99.8515 121.676 99.8515 122 101C122.226 102.123 122.451 103.246 122.684 104.402C122.788 105.26 122.892 106.117 123 107C123.101 108.108 123.101 108.108 123.203 109.238C123.219 109.923 123.234 110.607 123.25 111.312C123.233 112.083 123.216 112.854 123.199 113.648C123.133 114.424 123.068 115.2 123 116C122.883 116.735 122.765 117.47 122.645 118.227C122.452 118.956 122.26 119.686 122.062 120.438C121.784 121.176 121.506 121.915 121.219 122.676C120.817 123.443 120.414 124.21 120 125C119.412 125.839 118.824 126.678 118.219 127.543C117.507 128.395 116.796 129.247 116.062 130.125C115.275 130.951 114.487 131.778 113.676 132.629C113.035 133.227 113.035 133.227 112.381 133.836C111.926 134.22 111.47 134.604 111 135C110.502 135.365 110.003 135.729 109.49 136.105C108.971 136.451 108.452 136.796 107.918 137.152C107.393 137.478 106.867 137.803 106.326 138.138C105.806 138.443 105.286 138.748 104.75 139.062C103.775 139.61 102.801 140.158 101.797 140.723C100.874 141.144 99.9509 141.566 99 142C98.0564 142.226 97.1128 142.451 96.1406 142.684C95.081 142.84 95.081 142.84 94 143C93.893 142.116 93.786 141.231 93.6758 140.32C93.8363 138.677 93.8363 138.677 94 137C94.7361 136.131 95.4721 135.262 96.2305 134.367C96.9411 133.747 96.9411 133.747 97.666 133.113C98.4192 132.5 98.4192 132.5 99.1875 131.875C99.6703 131.459 100.153 131.042 100.65 130.613C101.371 129.996 101.371 129.996 102.105 129.367C102.587 128.967 103.069 128.566 103.565 128.153C104.039 127.773 104.512 127.392 105 127C105.897 126.332 106.794 125.665 107.719 124.977C108.472 124.324 109.224 123.672 110 123C110.675 121.933 110.675 121.933 111.363 120.844C111.677 120.07 111.99 119.297 112.312 118.5C112.628 117.618 112.944 116.737 113.27 115.828C113.511 114.895 113.752 113.962 114 113C114.128 112.067 114.255 111.133 114.387 110.172C114.424 109.208 114.461 108.243 114.5 107.25C114.468 106.259 114.436 105.267 114.402 104.246C114.203 102.639 114.203 102.639 114 101C113.87 100.379 113.74 99.7577 113.606 99.1177C113.449 98.4717 113.291 97.8257 113.129 97.1602C112.957 96.5198 112.786 95.8795 112.609 95.2197C112.429 94.5903 112.248 93.961 112.062 93.3125C111.881 92.6999 111.699 92.0872 111.512 91.4561C111.245 90.6058 111.245 90.6058 110.973 89.7383C110.652 88.8346 110.331 87.931 110 87C109.505 86.505 109.505 86.505 109 86C107.763 85.8144 107.763 85.8144 106.5 85.625C105.703 85.6289 105.703 85.6289 104.891 85.6328C104.267 85.754 103.643 85.8752 103 86C102.232 86.3687 101.463 86.7373 100.672 87.1172C99.473 87.8017 99.473 87.8017 98.25 88.5C97.492 88.9641 96.7341 89.4281 95.9531 89.9062C94.9863 90.4477 94.9863 90.4477 94 91C93.34 91 92.68 91 92 91C91.9111 90.2794 91.8221 89.5588 91.7305 88.8164C91.8194 87.887 91.9084 86.9576 92 86C92.6149 85.1634 93.2298 84.3268 93.8633 83.4648C94.2558 83.0478 94.6483 82.6308 95.0527 82.2012C95.4685 81.7842 95.8842 81.3671 96.3125 80.9375C96.7166 80.5166 97.1207 80.0957 97.5371 79.6621C97.9335 79.2464 98.3299 78.8307 98.7383 78.4023C99.4846 77.6096 100.231 76.8168 101 76C101.607 75.4418 102.214 74.8837 102.84 74.3086C103.223 73.5468 103.606 72.7849 104 72C104.019 71.3222 104.038 70.6444 104.058 69.946C104.003 69.1414 103.947 68.3368 103.891 67.5078C103.796 66.6438 103.701 65.7798 103.603 64.8896C103.428 63.5211 103.428 63.5211 103.25 62.125C103.146 61.192 103.042 60.2591 102.934 59.2979C102.831 58.3617 102.728 57.4255 102.621 56.4609C102.514 55.5351 102.407 54.6092 102.296 53.6553C102.199 52.779 102.101 51.9028 102 51C101.927 50.2295 101.853 49.4589 101.778 48.665C101.718 47.9635 101.659 47.2619 101.598 46.5391C101.523 45.5662 101.523 45.5662 101.446 44.5737C101.402 43.9719 101.358 43.3701 101.312 42.75C101.226 41.6517 101.14 40.5534 101.051 39.4219C101.034 38.6227 101.017 37.8234 101 37C101.33 36.67 101.66 36.34 102 36Z" fill="black"/>
<path d="M40 25C40.6394 25.2681 41.2788 25.5362 41.9375 25.8125C42.9584 26.4003 42.9584 26.4003 44 27C44.33 27.99 44.66 28.98 45 30C45.0802 31.1507 45.0802 31.1507 45.1619 32.3247C45.1668 33.2147 45.1717 34.1047 45.1768 35.0217C45.1621 36.4944 45.1621 36.4944 45.1471 37.9969C45.0986 38.9879 45.05 39.9789 45 41C44.8925 41.8774 44.785 42.7547 44.6742 43.6587C44.4579 44.9393 44.4579 44.9393 44.2373 46.2458C44.07 47.1214 43.9028 47.997 43.7304 48.8992C43.5461 49.8077 43.3618 50.7163 43.1719 51.6523C42.8865 53.1227 42.8865 53.1227 42.5953 54.6227C42.3975 55.6373 42.1998 56.6519 41.9961 57.6973C41.791 58.7251 41.5858 59.7528 41.3745 60.8118C41.0654 62.359 41.0654 62.359 40.75 63.9375C40.551 64.953 40.352 65.9686 40.147 67.0149C39.8519 68.5283 39.8519 68.5283 39.5508 70.0723C39.354 71.0783 39.1571 72.0843 38.9543 73.1207C38.758 74.1212 38.5617 75.1216 38.3594 76.1523C38.163 77.1471 37.9667 78.1418 37.7644 79.1667C37.4711 80.6445 37.4711 80.6445 37.1719 82.1521C36.9782 83.1236 36.7845 84.0952 36.585 85.0962C36.3919 86.0544 36.1989 87.0127 36 88C35.7075 89.4216 35.7075 89.4216 35.4092 90.8719C35.2174 91.7979 35.0257 92.7239 34.8281 93.678C34.6436 94.5766 34.4592 95.4753 34.2691 96.4011C34.0926 97.2588 33.9162 98.1164 33.7344 99C33.5661 99.7935 33.3979 100.587 33.2245 101.405C32.993 102.533 32.993 102.533 32.7568 103.684C32.5503 104.761 32.5503 104.761 32.3396 105.86C32.2275 106.566 32.1155 107.272 32 108C31.9285 108.737 31.8571 109.475 31.7834 110.234C31.7373 110.945 31.6911 111.656 31.6436 112.388C31.6132 113.017 31.5828 113.646 31.5515 114.294C31.526 115.17 31.526 115.17 31.5 116.062C31.4897 117.147 31.4794 118.231 31.4688 119.348C31.6441 120.223 31.8194 121.098 32 122C32.9127 122.895 32.9127 122.895 33.8438 123.809C34.5553 124.202 35.2669 124.595 36 125C36.99 125.33 37.98 125.66 39 126C39.8132 126.052 40.6265 126.104 41.4644 126.158C42.4223 126.175 43.3802 126.193 44.3672 126.211C45.4178 126.239 46.4684 126.268 47.5508 126.297C48.6478 126.323 49.7448 126.348 50.875 126.375C51.9643 126.393 53.0535 126.411 54.1758 126.43C55.2289 126.461 56.2821 126.492 57.3672 126.523C58.3274 126.543 59.2876 126.563 60.2769 126.583C61.1755 126.721 62.0741 126.858 63 127C63.9412 127.505 64.8824 128.01 65.8521 128.53C66.9153 129.258 66.9153 129.258 68 130C67.6777 130.482 67.3555 130.964 67.0234 131.461C66.0218 132.223 66.0218 132.223 65 133C64.419 133.107 63.8379 133.215 63.2393 133.325C62.5544 133.375 61.8696 133.425 61.1641 133.477C60.4293 133.508 59.6945 133.538 58.9375 133.57C58.1744 133.588 57.4112 133.606 56.625 133.625C55.8696 133.651 55.1142 133.677 54.3359 133.703C53.5986 133.731 52.8612 133.76 52.1016 133.789C51.027 133.831 51.027 133.831 49.9307 133.874C49.2935 133.915 48.6564 133.957 48 134C47.1415 134.165 46.283 134.33 45.3984 134.5C44.607 134.665 43.8155 134.83 43 135C41.8863 135.09 40.7725 135.18 39.625 135.273C38.7389 135.308 38.7389 135.308 37.835 135.343C37.2294 135.354 36.6239 135.364 36 135.375C35.3764 135.38 34.7528 135.385 34.1104 135.389C33.1972 135.369 33.1972 135.369 32.2656 135.348C31.188 135.233 30.1103 135.118 29 135C28.3555 134.689 27.7109 134.379 27.0469 134.059C26.4049 133.442 26.4049 133.442 25.75 132.812C25.1725 131.884 24.595 130.956 24 130C23.3813 128.855 23.3813 128.855 22.75 127.688C22.3787 126.357 22.3787 126.357 22 125C21.7899 123.931 21.5798 122.863 21.3633 121.762C21.28 121.05 21.1967 120.337 21.1108 119.604C21.0743 118.745 21.0377 117.885 21 117C21.0549 115.945 21.1099 114.891 21.1665 113.804C21.2154 113.224 21.2643 112.643 21.3147 112.044C21.3746 111.434 21.4344 110.824 21.4961 110.195C21.5636 109.562 21.6312 108.929 21.7008 108.277C21.7758 107.621 21.8507 106.965 21.928 106.289C22.0101 105.611 22.0922 104.933 22.1768 104.235C22.2628 103.539 22.3489 102.842 22.4375 102.125C22.5228 101.413 22.6081 100.701 22.696 99.9678C22.7846 99.2418 22.8733 98.5158 22.9646 97.7678C23.059 97.0296 23.1534 96.2913 23.2507 95.5307C23.4012 94.4075 23.4012 94.4075 23.5547 93.2617C23.6616 92.5037 23.7685 91.7458 23.8786 90.9648C24.0504 89.8189 24.0504 89.8189 24.2256 88.6499C24.348 87.8826 24.4704 87.1152 24.5966 86.3246C24.7297 85.5575 24.8628 84.7904 25 84C25.1486 83.238 25.2972 82.476 25.4503 81.691C25.6088 80.9327 25.7673 80.1744 25.9307 79.3931C26.178 78.2613 26.178 78.2613 26.4303 77.1068C26.6003 76.3561 26.7702 75.6054 26.9453 74.832C27.118 74.0835 27.2908 73.3349 27.4687 72.5637C27.7308 71.452 27.7308 71.452 27.9983 70.3179C28.1743 69.5869 28.3504 68.8559 28.5318 68.1027C28.7069 67.3882 28.8821 66.6737 29.0625 65.9375C29.2339 65.2504 29.4052 64.5632 29.5818 63.8553C29.7506 63.1846 29.9195 62.5138 30.0935 61.8228C30.2603 61.1608 30.4271 60.4989 30.5989 59.817C30.7635 59.1645 30.9281 58.5121 31.0977 57.8398C31.2606 57.1982 31.4236 56.5565 31.5915 55.8954C31.8311 54.9347 31.8311 54.9347 32.0754 53.9546C32.2309 53.3118 32.3864 52.669 32.5465 52.0068C32.6962 51.3445 32.8458 50.6823 33 50C33.1412 49.2881 33.2824 48.5763 33.4278 47.8428C33.5627 47.1169 33.6977 46.391 33.8367 45.6431C33.9678 44.9243 34.099 44.2055 34.2341 43.465C34.358 42.7663 34.4818 42.0675 34.6094 41.3477C34.719 40.6921 34.8286 40.0365 34.9415 39.3611C35.0495 38.7393 35.1574 38.1175 35.2686 37.4768C35.3798 36.8868 35.4911 36.2968 35.6058 35.6889C35.7359 35.1315 35.866 34.5742 36 34C36.3681 32.9841 36.7362 31.9683 37.1155 30.9216C37.4692 30.1225 37.823 29.3234 38.1875 28.5C38.5317 27.8091 38.8759 27.1181 39.2305 26.4062C39.6114 25.7102 39.6114 25.7102 40 25Z" fill="black"/>
</g>
<defs>
<clipPath id="clip0_7_859">
<rect width="456" height="2405" fill="white" transform="translate(0 -737)"/>
</clipPath>
</defs>
</svg>
