<svg width="152" height="162" viewBox="0 0 152 162" fill="none" xmlns="http://www.w3.org/2000/svg">
<g clip-path="url(#clip0_7_859)">
<path d="M69 23C69.825 23.2887 70.65 23.5775 71.5 23.875C72.325 24.2463 73.15 24.6175 74 25C74.495 25.495 74.495 25.495 75 26C75.1953 27.3864 75.1953 27.3864 75.3945 28.8008C75.4635 29.366 75.5325 29.9313 75.6035 30.5137C75.6725 31.1073 75.7414 31.7009 75.8125 32.3125C75.8699 32.8945 75.9272 33.4765 75.9863 34.0762C76.0592 34.6453 76.132 35.2144 76.207 35.8008C76.4687 36.8565 76.7304 37.9123 77 39C77.5491 39.7399 78.0983 40.4798 78.6641 41.2422C79.4349 41.8223 80.2058 42.4023 81 43C82.4869 43.7212 82.4869 43.7212 84.0039 44.457C84.5703 44.6787 85.1367 44.9005 85.7202 45.1289C86.6321 45.4673 86.6321 45.4673 87.5625 45.8125C88.2065 46.0626 88.8506 46.3127 89.5142 46.5703C90.194 46.832 90.8738 47.0937 91.5742 47.3633C92.2863 47.6296 92.9983 47.896 93.7319 48.1704C94.4804 48.4442 95.2289 48.7179 96 49C97.1942 49.4242 97.1942 49.4242 98.4126 49.8569C99.2316 50.1452 100.051 50.4335 100.895 50.7305C101.717 51.0215 102.54 51.3125 103.388 51.6123C104.209 51.9052 105.029 52.1982 105.875 52.5C106.689 52.7942 107.502 53.0885 108.341 53.3916C109.125 53.6839 109.91 53.9762 110.719 54.2773C111.463 54.5659 112.206 54.8545 112.973 55.1519C113.642 55.4317 114.311 55.7116 115 56C116 56.5169 117.001 57.0338 118.031 57.5664C118.805 58.0601 119.578 58.5538 120.375 59.0625C121.021 59.5433 121.667 60.0241 122.332 60.5195C122.882 61.0081 123.433 61.4966 124 62C124.54 62.5401 125.08 63.0802 125.637 63.6367C126.107 64.1691 126.578 64.7015 127.062 65.25C127.702 66.1575 128.341 67.065 129 68C129 68.66 129 69.32 129 70C127.391 70.1547 127.391 70.1547 125.75 70.3125C124.644 70.3086 124.644 70.3086 123.516 70.3047C122.685 70.2041 121.855 70.1036 121 70C120.129 69.7138 119.257 69.4277 118.359 69.1328C117.416 68.7384 116.472 68.3439 115.5 67.9375C114.475 67.4863 113.45 67.0352 112.395 66.5703C111.849 66.3206 111.303 66.0708 110.741 65.8135C110.166 65.545 109.592 65.2766 109 65C108.386 64.7058 107.771 64.4115 107.138 64.1084C106.178 63.6487 106.178 63.6487 105.199 63.1797C104.534 62.8704 103.869 62.5611 103.184 62.2424C102.525 61.9356 101.866 61.6287 101.188 61.3125C100.597 61.0153 100.007 60.7181 99.3984 60.4119C98.48 59.9856 98.48 59.9856 97.543 59.5508C96.5537 59.1498 96.5537 59.1498 95.5444 58.7407C94.7048 58.4963 93.8651 58.2518 93 58C92.3975 57.8888 91.7951 57.7776 91.1744 57.663C90.5053 57.5594 89.8363 57.4558 89.147 57.3491C88.4637 57.2537 87.7805 57.1582 87.0765 57.0599C86.3874 56.9718 85.6983 56.8837 84.9883 56.793C84.3051 56.7103 83.6219 56.6275 82.918 56.5423C82.2829 56.4693 81.6478 56.3963 80.9934 56.321C80.0056 56.2151 79.0178 56.1092 78 56C77.9791 56.9327 77.9581 57.8654 77.9365 58.8264C77.9172 59.7535 77.9172 59.7535 77.8974 60.6994C77.8849 61.3774 77.8723 62.0554 77.8594 62.7539C77.8499 63.4476 77.8404 64.1412 77.8306 64.8559C77.8221 65.5744 77.8135 66.2929 77.8047 67.0332C77.7966 67.7771 77.7886 68.5209 77.7803 69.2874C77.7703 70.0382 77.7603 70.789 77.75 71.5625C77.7329 72.3009 77.7158 73.0393 77.6982 73.8C77.6736 74.8939 77.6736 74.8939 77.6484 76.0098C77.6412 76.7306 77.634 77.4514 77.6265 78.1941C77.6209 78.8944 77.6152 79.5948 77.6094 80.3164C77.5887 80.9802 77.5681 81.6441 77.5468 82.328C77.5465 82.9682 77.5462 83.6083 77.5459 84.2678C77.5789 84.8867 77.6119 85.5057 77.6459 86.1433C77.7627 86.756 77.8796 87.3687 78 88C78.2925 88.6381 78.585 89.2762 78.8864 89.9336C79.2439 90.5497 79.6014 91.1658 79.9697 91.8005C80.3273 92.3475 80.6849 92.8945 81.0533 93.4581C81.3657 93.9669 81.6781 94.4758 82 95C82.2887 95.9488 82.5775 96.8975 82.875 97.875C82.9163 98.9062 82.9575 99.9375 83 101C82.8743 102.019 82.8743 102.019 82.7461 103.059C82.603 103.802 82.4599 104.546 82.3125 105.312C82.1243 106.077 81.9361 106.841 81.7422 107.629C81.3748 108.803 81.3748 108.803 81 110C80.6726 110.793 80.3452 111.586 80.0078 112.402C79.6546 113.177 79.3014 113.952 78.9375 114.75C78.4251 115.794 78.4251 115.794 77.9023 116.859C77.6046 117.566 77.3068 118.272 77 119C76.7925 119.74 76.5849 120.48 76.3711 121.242C76.2486 122.152 76.1262 123.062 76 124C75.9912 124.619 75.9824 125.239 75.9734 125.877C75.9904 126.909 75.9904 126.909 76.0078 127.961C76.0246 128.68 76.0413 129.4 76.0586 130.141C76.0805 130.878 76.1024 131.615 76.125 132.375C76.1546 133.105 76.1843 133.834 76.2148 134.586C76.229 135.308 76.2432 136.03 76.2578 136.773C76.2409 137.833 76.2409 137.833 76.2236 138.915C76.1498 139.603 76.076 140.291 76 141C75.7999 141.677 75.5997 142.353 75.3936 143.05C75.1374 143.678 74.8812 144.306 74.6172 144.953C74.0835 145.959 73.5498 146.964 73 148C72.34 148.454 71.68 148.907 71 149.375C70.34 149.251 69.68 149.127 69 149C68.4573 148.071 67.9146 147.141 67.3555 146.184C67.0981 145.546 66.8408 144.908 66.5757 144.251C66.3857 143.508 66.1957 142.765 66 142C65.9634 141.151 65.9268 140.303 65.8892 139.429C65.9219 138.507 65.9546 137.586 65.9883 136.637C66.0393 135.672 66.0903 134.707 66.1428 133.713C66.2268 132.215 66.2268 132.215 66.3125 130.688C66.3459 129.659 66.3794 128.631 66.4138 127.572C66.4165 126.562 66.4191 125.552 66.4219 124.512C66.3903 123.547 66.3587 122.582 66.3262 121.587C66.1647 120.307 66.1647 120.307 66 119C65.7506 118.364 65.5011 117.728 65.2441 117.073C64.7598 116.304 64.7598 116.304 64.2656 115.52C63.5386 114.688 62.8116 113.857 62.0625 113C61.3329 112.29 60.6033 111.579 59.8516 110.848C59.2405 110.238 58.6295 109.628 58 109C57.6094 108.101 57.6094 108.101 57.2109 107.184C57.1207 106.607 57.0305 106.031 56.9375 105.438C56.9581 104.303 56.9787 103.169 57 102C57.0039 101.268 57.0077 100.536 57.0117 99.7812C57.0491 99.0078 57.0865 98.2344 57.125 97.4375C57.2217 96.677 57.3184 95.9164 57.418 95.1328C57.61 94.429 57.8021 93.7252 58 93C58.3674 92.4405 58.7348 91.8811 59.1133 91.3047C59.5503 90.8123 59.9873 90.3198 60.4375 89.8125C60.8693 89.4064 61.3012 89.0004 61.7461 88.582C62.1599 88.06 62.5737 87.5379 63 87C63.3518 86.1158 63.7037 85.2316 64.0662 84.3206C64.3743 83.2248 64.6825 82.129 65 81C65.0749 79.927 65.1499 78.854 65.2271 77.7485C65.2113 76.0361 65.2113 76.0361 65.1953 74.2891C65.1911 73.3696 65.1911 73.3696 65.1867 72.4315C65.1813 71.4851 65.1813 71.4851 65.1758 70.5195C65.1676 69.881 65.1593 69.2424 65.1509 68.5845C65.1423 67.9378 65.1338 67.2912 65.125 66.625C65.12 65.9677 65.115 65.3105 65.1099 64.6333C65.1058 63.9822 65.1018 63.331 65.0977 62.6602C65.0934 62.0312 65.0891 61.4023 65.0847 60.7542C65.0799 60.147 65.0752 59.5397 65.0703 58.9141C65.0576 57.7792 65.0449 56.6443 65.0317 55.4751C65.016 54.2499 65.016 54.2499 65 53C64.3811 52.9075 63.7622 52.815 63.1245 52.7197C61.8524 52.5568 61.8524 52.5568 60.5547 52.3906C59.6391 52.2997 58.7236 52.2089 57.7803 52.1152C56.8628 52.0772 55.9453 52.0392 55 52C54.2346 52.0806 53.4692 52.1611 52.6807 52.2441C51.9636 52.3853 51.2466 52.5264 50.5078 52.6719C49.7891 52.8404 49.0703 53.009 48.3298 53.1826C47.6022 53.3699 46.8746 53.5571 46.125 53.75C45.3491 53.9347 44.5731 54.1193 43.7737 54.3096C42.9963 54.4962 42.2189 54.6828 41.418 54.875C40.2875 55.1592 40.2875 55.1592 39.1343 55.4492C38.43 55.631 37.7257 55.8127 37 56C36.0886 56.2417 36.0886 56.2417 35.1587 56.4883C34.6075 56.6365 34.0562 56.7848 33.4883 56.9375C32.4815 57.2056 31.4748 57.4737 30.4375 57.75C29.5081 57.9846 28.5787 58.2192 27.6211 58.4609C26.7561 58.6388 25.8912 58.8167 25 59C23.718 59.1431 23.718 59.1431 22.4102 59.2891C21.6148 59.3174 20.8195 59.3458 20 59.375C18.9365 59.3344 18.9365 59.3344 17.8516 59.293C17.2405 59.1963 16.6295 59.0996 16 59C15.1338 58.5669 14.2675 58.1337 13.375 57.6875C12.9212 57.1306 12.4675 56.5738 12 56C12.33 55.01 12.66 54.02 13 53C14.2404 52.4836 14.2404 52.4836 15.5059 51.9568C16.6074 51.6501 17.7089 51.3434 18.8438 51.0273C19.4406 50.8592 20.0374 50.6911 20.6523 50.5179C21.2749 50.3446 21.8974 50.1712 22.5388 49.9927C23.1862 49.8196 23.8337 49.6466 24.5007 49.4683C25.1605 49.2932 25.8202 49.118 26.5 48.9375C27.1587 48.7581 27.8174 48.5788 28.4961 48.394C29.1556 48.2148 29.815 48.0357 30.4944 47.8511C31.1524 47.6755 31.8103 47.5 32.4883 47.3192C33.1431 47.1481 33.798 46.977 34.4727 46.8008C35.1268 46.6347 35.781 46.4686 36.455 46.2975C37.0939 46.1409 37.7328 45.9842 38.3911 45.8228C39.0067 45.6778 39.6224 45.5328 40.2567 45.3834C40.832 45.2569 41.4073 45.1303 42 45C42.9705 44.8252 43.941 44.6503 44.9409 44.4702C45.7841 44.3498 46.6273 44.2295 47.4961 44.1055C48.2644 44.0134 49.0327 43.9213 49.8242 43.8264C50.5216 43.7599 51.219 43.6935 51.9375 43.625C52.5846 43.5772 53.2317 43.5294 53.8984 43.4802C54.4979 43.4378 55.0973 43.3953 55.7148 43.3516C57.341 43.1775 57.341 43.1775 59 43C60.6474 42.7506 60.6474 42.7506 62.3281 42.4961C63.2098 42.0024 64.0916 41.5087 65 41C65.2418 40.4257 65.4836 39.8514 65.7327 39.2598C65.9675 38.2011 65.9675 38.2011 66.207 37.1211C66.3185 36.3651 66.43 35.609 66.5449 34.8301C66.6332 34.0405 66.7215 33.251 66.8125 32.4375C66.974 31.2474 66.974 31.2474 67.1387 30.0332C67.2963 28.9011 67.2963 28.9011 67.457 27.7461C67.5393 27.0519 67.6215 26.3576 67.7063 25.6423C67.8032 25.1004 67.9001 24.5584 68 24C68.33 23.67 68.66 23.34 69 23Z" fill="black"/>
</g>
<defs>
<clipPath id="clip0_7_859">
<rect width="456" height="2405" fill="white" transform="translate(-304 -333)"/>
</clipPath>
</defs>
</svg>
