<svg width="152" height="173" viewBox="0 0 152 173" fill="none" xmlns="http://www.w3.org/2000/svg">
<g clip-path="url(#clip0_7_859)">
<path d="M81 31C81.6072 30.9566 82.2145 30.9131 82.8401 30.8684C83.4523 30.8551 84.0645 30.8418 84.6953 30.8281C86.3311 30.9132 86.3311 30.9132 88 31C88.6355 31.1818 89.271 31.3635 89.9258 31.5508C90.6122 31.9278 90.6122 31.9278 91.3125 32.3125C92.1994 32.8694 93.0863 33.4262 94 34C94.3854 34.397 94.7709 34.7941 95.168 35.2031C95.4425 35.7961 95.7171 36.3891 96 37C96.0619 37.9681 96.1238 38.9362 96.1875 39.9336C96.1674 40.4937 96.1474 41.0538 96.1267 41.6309C96.0849 42.2271 96.0431 42.8232 96 43.4375C95.9537 44.0608 95.9073 44.684 95.8596 45.3262C95.7938 45.9597 95.728 46.5933 95.6602 47.2461C95.5675 47.8802 95.4749 48.5142 95.3794 49.1675C95.2542 49.7722 95.129 50.3769 95 51C94.6275 52.0222 94.2549 53.0445 93.8711 54.0977C93.398 55.0554 92.9249 56.0132 92.4375 57C91.9064 57.9642 91.3753 58.9284 90.8281 59.9219C90.5374 60.4162 90.2468 60.9106 89.9473 61.4199C89.4784 62.2021 89.4784 62.2021 89 63C88.6539 63.5781 88.3078 64.1563 87.9512 64.752C87.5909 65.3546 87.2306 65.9572 86.8594 66.5781C86.4992 67.1891 86.139 67.8002 85.7678 68.4297C85.4113 69.0304 85.0548 69.6311 84.6875 70.25C84.3381 70.8043 83.9887 71.3586 83.6287 71.9297C83.3013 72.4737 82.974 73.0177 82.6367 73.5781C82.3436 74.1357 82.0505 74.6933 81.7485 75.2678C81.5015 75.8394 81.2545 76.4111 81 77C80.8136 77.5864 80.6271 78.1729 80.4351 78.7771C80.3134 79.4011 80.1917 80.0251 80.0664 80.668C80.0101 81.3417 79.9538 82.0154 79.8958 82.7095C79.9302 83.4653 79.9646 84.2212 80 85C80.1665 85.8912 80.3331 86.7825 80.5046 87.7007C80.7558 88.6773 81.0069 89.6539 81.2656 90.6602C81.5735 91.6904 81.8813 92.7207 82.1985 93.7822C82.719 95.406 82.719 95.406 83.25 97.0625C83.4252 97.623 83.6004 98.1836 83.7809 98.7611C84.0492 99.6156 84.0492 99.6156 84.323 100.487C84.5082 101.063 84.6935 101.638 84.8844 102.231C85.0759 102.811 85.2675 103.391 85.4648 103.988C85.6637 104.57 85.8625 105.152 86.0674 105.752C86.3761 106.624 86.3761 106.624 86.6909 107.514C86.903 108.093 87.1151 108.671 87.3337 109.268C87.5536 109.839 87.7735 110.411 88 111C88.2302 111.559 88.4604 112.118 88.6976 112.693C89.0525 113.517 89.0525 113.517 89.4146 114.357C89.655 114.897 89.8954 115.438 90.143 115.995C90.5073 116.792 90.5073 116.792 90.8789 117.605C91.3652 118.641 91.8515 119.677 92.3525 120.744C92.8343 121.736 93.3161 122.728 93.8125 123.75C94.2801 124.695 94.7477 125.64 95.2295 126.614C95.899 127.942 95.899 127.942 96.582 129.297C97.2078 130.526 97.2078 130.526 97.8462 131.779C98.2269 132.512 98.6077 133.245 99 134C99.3382 134.614 99.6764 135.228 100.025 135.861C100.309 136.387 100.594 136.912 100.887 137.453C101.438 138.714 101.438 138.714 102 140C101.505 141.485 101.505 141.485 101 143C100.227 143.304 99.4531 143.608 98.6562 143.922C97.7797 143.948 96.9031 143.973 96 144C95.3916 143.51 94.7831 143.02 94.1562 142.516C93.6097 141.768 93.0631 141.02 92.5 140.25C91.9534 139.533 91.4069 138.817 90.8438 138.078C90.4117 137.405 90.4117 137.405 89.9709 136.719C89.4903 135.868 89.4903 135.868 89 135C88.6119 134.227 88.2238 133.453 87.824 132.656C87.4064 131.764 86.9888 130.872 86.5586 129.953C86.1324 128.994 85.7062 128.034 85.2671 127.046C84.849 126.041 84.4308 125.036 84 124C83.6218 122.992 83.2436 121.985 82.854 120.946C82.491 119.922 82.1279 118.899 81.7539 117.844C81.2096 116.279 81.2096 116.279 80.6543 114.684C80.294 113.633 79.9337 112.582 79.5625 111.5C79.2061 110.449 78.8496 109.399 78.4824 108.316C78.1183 107.274 77.7541 106.231 77.3789 105.156C77.0091 104.137 76.6393 103.117 76.2583 102.066C75.8431 101.054 75.4278 100.043 75 99C74.7408 98.4771 74.4816 97.9542 74.2145 97.4155C73.9386 96.8956 73.6627 96.3756 73.3784 95.8398C72.8294 94.8511 72.2805 93.8624 71.7148 92.8438C71.1991 91.9588 70.6834 91.0739 70.1521 90.1621C69.7719 89.4486 69.3917 88.7351 69 88C69 87.34 69 86.68 69 86C68.5385 86.3403 68.077 86.6806 67.6016 87.0312C66.9493 87.5159 66.297 88.0006 65.625 88.5C64.8993 89.0401 64.1735 89.5802 63.4258 90.1367C62.6253 90.7516 61.8248 91.3665 61 92C60.1479 92.7077 59.2959 93.4154 58.418 94.1445C57.5582 94.86 56.6984 95.5754 55.8125 96.3125C55.0146 96.9893 54.2166 97.666 53.3945 98.3633C52.6043 98.9034 51.8141 99.4435 51 100C49.6136 100.362 49.6136 100.362 48.1992 100.73C47.4735 100.819 46.7477 100.908 46 101C46.0026 100.169 46.0052 99.3371 46.0078 98.4805C46.0997 97.9318 46.1915 97.3832 46.2861 96.8179C46.5217 96.218 46.7573 95.6181 47 95C47.5063 94.3885 48.0126 93.777 48.5342 93.147C49.5034 92.2022 49.5034 92.2022 50.4922 91.2383C51.1973 90.5944 51.9024 89.9505 52.6289 89.2871C53.3701 88.6355 54.1113 87.9839 54.875 87.3125C55.6085 86.6493 56.342 85.9861 57.0977 85.3027C57.8054 84.6627 58.513 84.0227 59.2422 83.3633C59.8904 82.7888 60.5387 82.2142 61.2065 81.6223C61.7984 81.087 62.3902 80.5516 63 80C63.5313 79.4356 64.0625 78.8713 64.6099 78.2898C65.0686 77.8642 65.5274 77.4385 66 77C66.66 77 67.32 77 68 77C68.2965 76.4225 68.593 75.845 68.8984 75.25C69.262 74.5075 69.6255 73.765 70 73C70.5491 72.3606 71.0983 71.7212 71.6641 71.0625C72.6347 70.0416 72.6347 70.0416 73.625 69C74.6827 67.836 74.6827 67.836 75.7617 66.6484C76.8697 65.3375 76.8697 65.3375 78 64C78.3759 63.4924 78.7518 62.9849 79.1392 62.4619C79.6987 61.6648 79.6987 61.6648 80.2695 60.8516C80.6329 60.3166 80.9962 59.7816 81.3706 59.2305C81.8987 58.4358 81.8987 58.4358 82.4375 57.625C82.7793 57.1132 83.121 56.6015 83.4731 56.0742C83.9486 55.3453 83.9486 55.3453 84.4336 54.6016C85.209 53.3138 85.209 53.3138 86 52C86.495 50.515 86.495 50.515 87 49C87.1018 48.4212 87.2037 47.8424 87.3086 47.2461C87.3511 46.6493 87.3937 46.0524 87.4375 45.4375C87.2931 44.3031 87.1488 43.1688 87 42C86.1544 41.505 85.3087 41.01 84.4375 40.5C83.3031 40.335 82.1688 40.17 81 40C79.9198 40.0825 78.8395 40.165 77.7266 40.25C77.1158 40.3473 76.505 40.4446 75.8757 40.5449C75.2567 40.6951 74.6377 40.8453 74 41C73.4242 41.2275 72.8484 41.455 72.2551 41.6895C71.685 41.9672 71.1148 42.245 70.5273 42.5312C69.9446 42.8426 69.3619 43.154 68.7615 43.4749C68.1596 43.8132 67.5577 44.1515 66.9375 44.5C65.9757 45.0297 65.9757 45.0297 64.9944 45.5701C64.3362 45.9375 63.6781 46.305 63 46.6836C62.3387 47.0637 61.6774 47.4438 60.9961 47.8354C60.3374 48.2198 59.6787 48.6041 59 49C58.0313 49.5668 58.0313 49.5668 57.043 50.145C56.41 50.5213 55.7771 50.8975 55.125 51.2852C54.5082 51.6615 53.8914 52.0378 53.2559 52.4255C52.3558 52.9883 52.3558 52.9883 51.4375 53.5625C50.8503 53.9371 50.2632 54.3116 49.6582 54.6975C49.1007 55.068 48.5432 55.4386 47.9688 55.8203C47.4493 56.1842 46.9298 56.548 46.3945 56.9229C45.9343 57.2783 45.4741 57.6338 45 58C44.3297 58.678 43.6594 59.3561 42.9688 60.0547C42.4634 60.676 41.9581 61.2973 41.4375 61.9375C41.0198 62.4931 40.6022 63.0487 40.1719 63.6211C39.5918 64.3037 39.5918 64.3037 39 65C38.0719 65.495 37.1438 65.99 36.1875 66.5C35.1047 66.7475 35.1047 66.7475 34 67C33.67 66.67 33.34 66.34 33 66C32.8762 65.1131 32.7525 64.2262 32.625 63.3125C32.7488 62.2194 32.8725 61.1263 33 60C33.3056 59.516 33.6112 59.0319 33.926 58.5332C34.3333 58.0582 34.7406 57.5832 35.1602 57.0938C35.6162 56.574 36.0722 56.0543 36.542 55.5188C37.0231 55.0176 37.5043 54.5164 38 54C38.4528 53.5794 38.9056 53.1587 39.3721 52.7253C39.8332 52.3352 40.2944 51.945 40.7695 51.543C41.5013 50.9641 41.5013 50.9641 42.2478 50.3735C43.0223 49.7864 43.0223 49.7864 43.8125 49.1875C44.3695 48.7652 44.9264 48.3428 45.5002 47.9077C46.378 47.2592 46.378 47.2592 47.2734 46.5977C47.879 46.1673 48.4845 45.7369 49.1084 45.2935C49.7326 44.8666 50.3569 44.4398 51 44C51.9595 43.3733 51.9595 43.3733 52.9385 42.7339C53.5904 42.3254 54.2424 41.9169 54.9141 41.4961C55.575 41.0987 56.236 40.7014 56.917 40.292C57.5838 39.9069 58.2505 39.5218 58.9375 39.125C59.6068 38.7515 60.2762 38.378 60.9658 37.9932C61.6345 37.6383 62.3032 37.2835 62.9922 36.918C63.657 36.5859 64.3219 36.2538 65.0068 35.9116C65.6646 35.6108 66.3223 35.31 67 35C67.9711 34.6164 67.9711 34.6164 68.9619 34.2251C69.5958 34.0026 70.2297 33.78 70.8828 33.5508C71.5029 33.3553 72.1231 33.1599 72.762 32.9585C73.3561 32.7866 73.9503 32.6146 74.5625 32.4375C75.6363 32.1475 76.7101 31.8574 77.8164 31.5586C79.3923 31.2821 79.3923 31.2821 81 31Z" fill="black"/>
</g>
<defs>
<clipPath id="clip0_7_859">
<rect width="456" height="2405" fill="white" transform="translate(-152 -912)"/>
</clipPath>
</defs>
</svg>
