<svg width="152" height="139" viewBox="0 0 152 139" fill="none" xmlns="http://www.w3.org/2000/svg">
<g clip-path="url(#clip0_7_859)">
<path d="M80 30C81.369 30.3152 81.369 30.3152 82.7656 30.6367C83.3264 30.8024 83.8871 30.968 84.4648 31.1387C85.0539 31.3198 85.643 31.5009 86.25 31.6875C86.8236 31.8493 87.3973 32.0111 87.9883 32.1777C88.8371 32.4359 88.8371 32.4359 89.7031 32.6992C90.2615 32.8962 90.8199 33.0932 91.3953 33.2961C92.1896 33.6446 92.1896 33.6446 93 34C93.9088 34.6162 94.8176 35.2323 95.7539 35.8672C96.8657 36.9229 96.8657 36.9229 98 38C98.4989 38.7206 98.9977 39.4412 99.5117 40.1836C99.8997 40.9274 100.288 41.6712 100.688 42.4375C101.083 43.1787 101.479 43.9199 101.887 44.6836C102.254 45.448 102.621 46.2124 103 47C103.35 47.7659 103.7 48.5318 104.061 49.3209C104.526 50.647 104.526 50.647 105 52C105.066 52.8277 105.132 53.6553 105.2 54.5081C105.166 55.8319 105.166 55.8319 105.132 57.1824C105.103 58.695 105.103 58.695 105.073 60.2382C105.029 61.8586 105.029 61.8586 104.984 63.5117C104.959 65.1968 104.959 65.1968 104.933 66.916C104.925 67.4925 104.917 68.069 104.908 68.663C104.9 69.2479 104.891 69.8329 104.883 70.4355C104.868 71.325 104.868 71.325 104.853 72.2324C104.837 73.1295 104.837 73.1295 104.821 74.0447C104.81 74.6456 104.799 75.2465 104.788 75.8657C104.775 76.4669 104.763 77.0681 104.75 77.6875C104.735 78.2855 104.72 78.8835 104.705 79.4996C104.689 80.0949 104.673 80.6901 104.657 81.3035C104.642 81.8956 104.627 82.4878 104.611 83.0979C104.597 83.6863 104.584 84.2746 104.57 84.8809C104.562 85.4657 104.553 86.0505 104.544 86.6531C104.538 87.2314 104.531 87.8097 104.524 88.4055C104.511 89.5337 104.498 90.6618 104.484 91.8242C104.447 92.8944 104.41 93.9645 104.372 95.0671C104.365 96.0912 104.358 97.1154 104.351 98.1707C104.397 99.1496 104.443 100.129 104.491 101.137C104.659 102.082 104.827 103.027 105 104C105.413 104.938 105.827 105.875 106.253 106.841C106.77 107.724 107.288 108.606 107.821 109.515C108.334 110.287 108.847 111.06 109.376 111.856C109.912 112.564 110.448 113.271 111 114C111.591 114.709 112.182 115.419 112.791 116.15C113.575 117.035 113.575 117.035 114.375 117.938C114.878 118.462 115.38 118.987 115.898 119.527C116.262 120.013 116.625 120.499 117 121C117 121.99 117 122.98 117 124C116.299 124.309 115.598 124.619 114.875 124.938C113.926 124.958 112.978 124.979 112 125C111.031 124.546 110.061 124.093 109.062 123.625C108.312 123.064 108.312 123.064 107.547 122.492C107.036 122 106.526 121.507 106 121C105.469 120.343 104.938 119.685 104.391 119.008C103.87 118.263 103.349 117.518 102.812 116.75C102.32 115.956 101.828 115.162 101.32 114.344C100.885 113.57 100.449 112.797 100 112C99.5011 111.056 99.5011 111.056 98.9922 110.094C98.7266 109.485 98.4611 108.877 98.1875 108.25C97.9671 107.613 97.7466 106.976 97.5195 106.32C97.3481 105.555 97.1766 104.789 97 104C96.8801 102.904 96.7602 101.809 96.6367 100.68C96.5894 100.094 96.5421 99.5086 96.4934 98.9053C96.4543 98.3178 96.4153 97.7303 96.375 97.125C96.3209 96.0138 96.2667 94.9027 96.2109 93.7578C96.1413 92.8477 96.0717 91.9377 96 91C95.67 90.34 95.34 89.68 95 89C94.4225 88.8608 93.845 88.7216 93.25 88.5781C92.5075 88.4698 91.765 88.3616 91 88.25C90.1918 88.0863 89.3835 87.9226 88.5508 87.7539C87.709 87.5051 86.8673 87.2563 86 87C85.1892 86.5759 84.3784 86.1518 83.543 85.7148C82.7657 85.2108 81.9884 84.7068 81.1875 84.1875C80.4527 83.659 79.718 83.1305 78.9609 82.5859C78.3138 82.0626 77.6667 81.5392 77 81C76.4973 80.5385 75.9945 80.077 75.4766 79.6016C75.0924 79.1762 74.7083 78.7508 74.3125 78.3125C73.8794 77.5494 73.4462 76.7862 73 76C73.2475 75.0719 73.2475 75.0719 73.5 74.125C73.995 73.7537 74.49 73.3825 75 73C75.6149 73.0993 76.2298 73.1985 76.8633 73.3008C77.5684 73.5315 78.2735 73.7623 79 74C79.602 74.321 80.204 74.642 80.8242 74.9727C81.7465 75.5121 81.7465 75.5121 82.6875 76.0625C83.372 76.4196 84.0565 76.7766 84.7617 77.1445C85.8697 77.568 85.8697 77.568 87 78C87.8314 78.0864 88.6629 78.1727 89.5195 78.2617C90.3381 78.2579 91.1566 78.254 92 78.25C93.1447 78.1959 93.1447 78.1959 94.3125 78.1406C94.8694 78.0942 95.4262 78.0478 96 78C96.0116 77.4573 96.0232 76.9146 96.0352 76.3555C96.0442 75.64 96.0532 74.9246 96.0625 74.1875C96.0741 73.4798 96.0857 72.7721 96.0977 72.043C96.0654 71.3688 96.0332 70.6946 96 70C95.67 69.01 95.34 68.02 95 67C94.4277 66.5753 93.8555 66.1507 93.2659 65.7131C92.5297 65.2935 91.7936 64.8738 91.0352 64.4414C90.2353 63.9728 89.4354 63.5043 88.6113 63.0215C87.7702 62.54 86.9291 62.0586 86.0625 61.5625C85.2253 61.0849 84.388 60.6073 83.5254 60.1152C82.3237 59.4104 82.3237 59.4104 81.0977 58.6914C80.3604 58.2706 79.6231 57.8498 78.8635 57.4163C77.9411 56.7152 77.9411 56.7152 77 56C76.5855 55.2845 76.171 54.569 75.7439 53.8318C75.4984 53.2273 75.2529 52.6228 75 52C75.66 51.67 76.32 51.34 77 51C77.9281 50.8762 78.8562 50.7525 79.8125 50.625C80.7213 50.6289 80.7213 50.6289 81.6484 50.6328C82.4245 50.754 83.2005 50.8752 84 51C84.5275 51.1634 85.0551 51.3268 85.5986 51.4951C86.1771 51.7004 86.7556 51.9057 87.3516 52.1172C87.9409 52.3394 88.5302 52.5616 89.1375 52.7905C89.7315 53.0247 90.3255 53.2588 90.9375 53.5C91.5296 53.738 92.1217 53.976 92.7317 54.2212C93.283 54.4473 93.8343 54.6733 94.4023 54.9062C95.2596 55.2672 96.1168 55.6281 97 56C96.6494 54.9894 96.2988 53.9787 95.9375 52.9375C95.5237 51.9765 95.5237 51.9765 95.1016 50.9961C94.738 50.3374 94.3745 49.6787 94 49C93.5127 48.4135 93.0255 47.827 92.5234 47.2227C91.9588 46.6542 91.3942 46.0857 90.8125 45.5C90.2092 44.9264 89.6059 44.3527 88.9844 43.7617C88.0021 42.8897 88.0021 42.8897 87 42C86.2627 41.3877 85.5253 40.7754 84.7656 40.1445C84.0386 39.54 83.3116 38.9354 82.5625 38.3125C81.8832 37.7724 81.2038 37.2323 80.5039 36.6758C80.0076 36.1228 79.5113 35.5698 79 35C78.9059 34.2923 78.8118 33.5846 78.7148 32.8555C78.8089 32.2432 78.903 31.6309 79 31C79.33 30.67 79.66 30.34 80 30Z" fill="black"/>
<path d="M22 25C22.5614 25.1084 23.1228 25.2169 23.7012 25.3286C24.6457 25.6319 24.6457 25.6319 25.6094 25.9414C26.6121 26.3182 26.6121 26.3182 27.635 26.7026C28.333 26.9864 29.0309 27.2701 29.75 27.5625C30.4679 27.8463 31.1859 28.13 31.9255 28.4224C32.9891 28.8533 32.9891 28.8533 34.0742 29.293C34.7579 29.5848 35.4416 29.8766 36.146 30.1772C36.7578 30.4488 37.3696 30.7203 38 31C38.8521 31.4086 39.7041 31.8173 40.582 32.2383C41.2356 32.6134 41.8891 32.9885 42.5625 33.375C43.4346 33.9899 43.4346 33.9899 44.3242 34.6172C44.8772 35.0735 45.4302 35.5298 46 36C46.9687 36.8082 46.9687 36.8082 47.957 37.6328C48.59 38.249 49.2229 38.8652 49.875 39.5C50.4422 40.1858 51.0094 40.8716 51.5938 41.5781C52.0578 42.3773 52.5219 43.1766 53 44C53.2784 44.9848 53.5569 45.9697 53.8438 46.9844C54.0191 48.062 54.1944 49.1397 54.375 50.25C54.4975 51.3586 54.6199 52.4672 54.7461 53.6094C54.8299 54.7283 54.9137 55.8472 55 57C55.0735 58.0983 55.147 59.1966 55.2227 60.3281C55.329 61.8982 55.329 61.8982 55.4375 63.5C55.4974 64.9077 55.4974 64.9077 55.5586 66.3438C55.7043 67.2203 55.8499 68.0969 56 69C56.4718 69.8198 56.9436 70.6397 57.4297 71.4844C58.207 72.7296 58.207 72.7296 59 74C59.3132 74.9023 59.6265 75.8047 59.9492 76.7344C60.1929 77.7295 60.4365 78.7247 60.6875 79.75C60.8185 80.3029 60.9495 80.8559 61.0845 81.4255C61.2074 82.0109 61.3304 82.5962 61.457 83.1992C61.5623 83.8107 61.6675 84.4222 61.7759 85.0522C61.8498 85.695 61.9238 86.3378 62 87C62.0239 88.0241 62.0239 88.0241 62.0483 89.0688C62.0363 89.7744 62.0242 90.48 62.0117 91.207C61.991 91.9229 61.9703 92.6387 61.949 93.3762C61.9246 94.0977 61.9002 94.8192 61.875 95.5625C61.8551 96.2846 61.8352 97.0067 61.8147 97.7507C61.8088 98.4621 61.8029 99.1734 61.7969 99.9062C61.8104 100.6 61.8239 101.293 61.8379 102.008C61.9181 102.994 61.9181 102.994 62 104C62.1257 104.593 62.2514 105.186 62.3809 105.797C62.5491 106.349 62.7173 106.9 62.8906 107.469C63.298 108.49 63.7053 109.511 64.125 110.562C64.5749 111.504 65.0248 112.445 65.4883 113.414C65.9871 114.267 66.486 115.121 67 116C67.8256 117.156 67.8256 117.156 68.668 118.336C69.482 119.376 69.482 119.376 70.3125 120.438C70.8243 121.014 71.336 121.59 71.8633 122.184C72.2384 122.783 72.6135 123.382 73 124C73.1173 124.878 73.2346 125.756 73.3555 126.66C73.2382 127.432 73.1209 128.204 73 129C72.01 129.33 71.02 129.66 70 130C69.0925 129.711 68.185 129.423 67.25 129.125C66.4746 128.694 66.4746 128.694 65.6836 128.254C64.8502 127.633 64.8502 127.633 64 127C63.3929 126.411 62.7857 125.822 62.1602 125.215C61.5504 124.505 60.9407 123.794 60.3125 123.062C59.7286 122.263 59.1446 121.464 58.543 120.641C58.0338 119.769 57.5246 118.898 57 118C56.6455 117.087 56.291 116.175 55.9258 115.234C55.5294 113.788 55.5294 113.788 55.125 112.312C54.9123 111.299 54.6996 110.286 54.4805 109.242C54.2426 107.637 54.2426 107.637 54 106C53.9415 105.431 53.883 104.861 53.8228 104.274C53.7743 103.691 53.7258 103.108 53.6758 102.508C53.6126 101.625 53.6126 101.625 53.5481 100.724C53.5116 100.134 53.4751 99.5449 53.4375 98.9375C53.4068 98.3551 53.3761 97.7727 53.3445 97.1726C53.3133 96.5962 53.2821 96.0197 53.25 95.4258C53.1675 94.2953 53.085 93.1648 53 92C52.835 90.9004 52.67 89.8009 52.5 88.668C52.3144 87.6638 52.1287 86.6596 51.9375 85.625C51.7609 84.7304 51.5843 83.8358 51.4023 82.9141C51.2696 82.2824 51.1368 81.6508 51 81C50.4921 81.1818 49.9842 81.3635 49.4609 81.5508C48.7726 81.8021 48.0842 82.0535 47.375 82.3125C46.6389 82.5832 45.9029 82.8539 45.1445 83.1328C44.4368 83.419 43.7291 83.7052 43 84C42.0306 84.5569 41.0612 85.1137 40.0625 85.6875C39.0519 86.1206 38.0412 86.5538 37 87C35.9829 87.145 35.9829 87.145 34.9453 87.293C34.2002 87.32 33.4552 87.3471 32.6875 87.375C31.5409 87.3305 31.5409 87.3305 30.3711 87.2852C29.1974 87.144 29.1974 87.144 28 87C26.8108 86.7506 26.8108 86.7506 25.5977 86.4961C24.8229 86.2705 24.0482 86.0449 23.25 85.8125C22.5139 85.5418 21.7779 85.2711 21.0195 84.9922C20.3531 84.6648 19.6866 84.3373 19 84C18.447 83.5901 17.894 83.1802 17.3242 82.7578C16.8666 82.3221 16.409 81.8864 15.9375 81.4375C15.2981 80.6331 14.6587 79.8288 14 79C14 78.34 14 77.68 14 77C15.0725 77.1444 16.145 77.2887 17.25 77.4375C17.8533 77.5187 18.4566 77.5999 19.0781 77.6836C19.7123 77.788 20.3466 77.8924 21 78C21.6381 78.1714 22.2762 78.3429 22.9336 78.5195C23.9565 78.7574 23.9565 78.7574 25 79C25.7696 79.067 26.5391 79.1341 27.332 79.2031C28.5599 79.2263 28.5599 79.2263 29.8125 79.25C30.6865 79.2397 31.5605 79.2294 32.4609 79.2188C33.7178 79.1105 33.7178 79.1105 35 79C35.6935 78.8247 36.387 78.6494 37.1016 78.4688C37.7074 78.2316 38.3133 77.9944 38.9375 77.75C39.4828 77.4754 40.028 77.2009 40.5898 76.918C41.0552 76.615 41.5205 76.3121 42 76C42.66 75.3606 43.32 74.7212 44 74.0625C44.33 73.3819 44.66 72.7013 45 72C44.9471 71.3503 44.8943 70.7006 44.8398 70.0312C44.4241 69.0258 44.4241 69.0258 44 68C43.3619 67.545 42.7238 67.0899 42.0664 66.6211C40.827 66.0352 40.827 66.0352 39.5625 65.4375C38.6666 65.0147 37.7707 64.5919 36.8477 64.1562C35.9079 63.7747 34.9682 63.3931 34 63C33.0706 62.7216 32.1412 62.4431 31.1836 62.1562C30.298 61.9191 29.4124 61.6819 28.5 61.4375C27.278 61.1571 27.278 61.1571 26.0312 60.8711C25.0258 60.4399 25.0258 60.4399 24 60C23.5772 59.3104 23.1544 58.6207 22.7188 57.9102C22.4816 57.2798 22.2444 56.6495 22 56C22.7863 55.8157 23.5727 55.6313 24.3828 55.4414C24.931 55.35 25.4792 55.2587 26.0439 55.1646C27.0122 55.0831 27.0122 55.0831 28 55C28.7512 55.0346 29.5024 55.0693 30.2764 55.105C31.0901 55.1825 31.9038 55.26 32.7422 55.3398C33.999 55.48 33.999 55.48 35.2812 55.623C36.1372 55.7268 36.9931 55.8306 37.875 55.9375C39.1937 56.0874 39.1937 56.0874 40.5391 56.2402C41.3692 56.335 42.1994 56.4297 43.0547 56.5273C43.8125 56.6175 44.5703 56.7077 45.3511 56.8005C45.8952 56.8664 46.4394 56.9322 47 57C46.9368 56.3593 46.8737 55.7187 46.8086 55.0586C46.6861 54.1936 46.5637 53.3287 46.4375 52.4375C46.2467 51.5223 46.0559 50.607 45.8594 49.6641C45.5758 48.7849 45.2922 47.9058 45 47C44.389 46.0216 44.389 46.0216 43.7656 45.0234C43.2448 44.4588 42.7241 43.8942 42.1875 43.3125C41.2652 42.4946 41.2652 42.4946 40.3242 41.6602C39.5572 41.1123 38.7902 40.5645 38 40C37.5097 39.6943 37.0193 39.3887 36.5142 39.0737C35.9797 38.7594 35.4452 38.445 34.8945 38.1211C34.3402 37.8097 33.7859 37.4983 33.2148 37.1775C32.6489 36.8714 32.083 36.5653 31.5 36.25C30.9354 35.9536 30.3708 35.6572 29.7891 35.3518C29.2361 35.0707 28.683 34.7896 28.1133 34.5C27.0859 34.005 26.0585 33.51 25 33C24.2098 32.67 23.4196 32.34 22.6055 32C21.9725 31.7525 21.3396 31.505 20.6875 31.25C19.8006 30.8375 18.9137 30.425 18 30C18 29.01 18 28.02 18 27C18.5002 26.5553 19.0003 26.1105 19.5156 25.6523C20.3355 25.4371 21.1553 25.2218 22 25Z" fill="black"/>
</g>
<defs>
<clipPath id="clip0_7_859">
<rect width="456" height="2405" fill="white" transform="translate(0 -446)"/>
</clipPath>
</defs>
</svg>
