<svg width="152" height="157" viewBox="0 0 152 157" fill="none" xmlns="http://www.w3.org/2000/svg">
<g clip-path="url(#clip0_7_859)">
<path d="M71 95C71.7013 95.2269 72.4025 95.4537 73.125 95.6875C74.0531 96.3372 74.0531 96.3372 75 97C75.66 97.66 76.32 98.32 77 99C77.1109 100.054 77.2217 101.109 77.3359 102.195C77.3505 102.825 77.3651 103.455 77.3801 104.104C77.3784 104.771 77.3767 105.438 77.375 106.125C77.3715 107.142 77.3715 107.142 77.3679 108.179C77.3424 109.187 77.3424 109.187 77.3164 110.215C77.2779 110.87 77.2394 111.524 77.1997 112.199C77.1009 113.09 77.1009 113.09 77 114C76.7615 114.868 76.523 115.735 76.2773 116.629C75.7997 117.648 75.7997 117.648 75.3125 118.688C74.949 119.28 74.5855 119.873 74.2109 120.484C73.8113 120.985 73.4117 121.485 73 122C72.3696 122.657 72.3696 122.657 71.7266 123.328C71.3012 123.694 70.8758 124.06 70.4375 124.438C69.2309 125.211 69.2309 125.211 68 126C67.01 126.33 66.02 126.66 65 127C63.8785 127.055 62.757 127.111 61.6016 127.168C60.6348 127.177 60.6348 127.177 59.6484 127.186C58.6468 127.187 58.6468 127.187 57.625 127.188C56.965 127.2 56.305 127.212 55.625 127.225C54.9779 127.227 54.3308 127.228 53.6641 127.23C53.0343 127.21 52.4045 127.189 51.7556 127.168C51.1763 127.113 50.5969 127.057 50 127C49.0964 126.734 48.1927 126.469 47.2617 126.195C46.5154 125.801 45.769 125.406 45 125C44.3336 124.509 43.6671 124.018 42.9805 123.512C42.3888 122.91 41.7971 122.308 41.1875 121.688C40.5907 120.982 39.9938 120.277 39.3789 119.551C38.9239 118.709 38.4688 117.867 38 117C37.8646 115.942 37.7293 114.883 37.5898 113.793C37.6014 112.665 37.613 111.537 37.625 110.375C37.6998 109.31 37.7745 108.245 37.8516 107.148C37.9005 106.109 37.9495 105.07 38 104C37.8427 102.879 37.6855 101.757 37.5234 100.602C37.3507 99.743 37.178 98.8845 37 98C38.98 97.67 40.96 97.34 43 97C43 97.66 43 98.32 43 99C43.5646 99.2024 44.1292 99.4048 44.7109 99.6133C45.4663 99.7409 46.2217 99.8685 47 100C48.1021 100.083 48.1021 100.083 49.2266 100.168C50.018 100.174 50.8095 100.181 51.625 100.188C52.4964 100.177 53.3678 100.167 54.2656 100.156C55.168 100.105 56.0703 100.053 57 100C57.9023 99.8866 58.8047 99.7731 59.7344 99.6562C61.0415 99.4242 61.0415 99.4242 62.375 99.1875C63.5622 98.9613 63.5622 98.9613 64.7734 98.7305C65.5082 98.4894 66.243 98.2484 67 98C67.7116 97.4663 68.4231 96.9327 69.1562 96.3828C70.0689 95.6983 70.0689 95.6983 71 95ZM53 105C51.952 105.298 51.952 105.298 50.8828 105.602C50.3646 105.857 49.8464 106.112 49.3125 106.375C48.5494 106.911 47.7862 107.447 47 108C46.34 108.66 45.68 109.32 45 110C44.9007 110.607 44.8015 111.214 44.6992 111.84C44.6954 112.532 44.6915 113.224 44.6875 113.938C44.7055 114.649 44.7236 115.361 44.7422 116.094C44.8273 116.723 44.9123 117.352 45 118C45.4331 118.639 45.8663 119.279 46.3125 119.938C46.8694 120.288 47.4262 120.639 48 121C48.99 121.33 49.98 121.66 51 122C52.1234 122.118 52.1234 122.118 53.2695 122.238C54.5283 122.275 54.5283 122.275 55.8125 122.312C56.6955 122.302 57.5785 122.292 58.4883 122.281C59.3171 122.188 60.146 122.096 61 122C61.6329 121.763 62.2659 121.526 62.918 121.281C63.44 120.962 63.9621 120.642 64.5 120.312C65.325 119.549 66.15 118.786 67 118C67.4538 117.237 67.9075 116.474 68.375 115.688C68.6844 114.357 68.6844 114.357 69 113C69.0709 112.393 69.1418 111.786 69.2148 111.16C69.2471 110.53 69.2793 109.899 69.3125 109.25C69.2094 108.178 69.1063 107.105 69 106C68.01 105.67 67.02 105.34 66 105C65.0345 104.933 64.069 104.866 63.0742 104.797C61.9566 104.781 60.839 104.766 59.6875 104.75C59.1044 104.748 58.5214 104.746 57.9207 104.745C57.3461 104.754 56.7716 104.764 56.1797 104.773C55.1304 104.848 54.0811 104.923 53 105Z" fill="black"/>
<path d="M25 19C26.5626 18.9124 26.5626 18.9124 28.1567 18.823C28.7774 18.8104 29.3981 18.7978 30.0375 18.7847C30.7084 18.7771 31.3792 18.7696 32.0703 18.7617C32.7759 18.7519 33.4816 18.7421 34.2086 18.7319C34.9459 18.7238 35.6832 18.7157 36.4429 18.7073C37.2075 18.703 37.9721 18.6986 38.7599 18.6942C39.5404 18.692 40.3209 18.6898 41.125 18.6875C41.9076 18.6859 42.6901 18.6843 43.4964 18.6826C44.2834 18.6835 45.0705 18.6844 45.8813 18.6853C47.0663 18.6924 47.0663 18.6924 48.2752 18.6997C49.4615 18.713 49.4615 18.713 50.6719 18.7266C51.8622 18.7469 51.8622 18.7469 53.0766 18.7676C53.8602 18.7866 54.6438 18.8056 55.4512 18.8252C56.2174 18.8502 56.9837 18.8753 57.7732 18.901C58.508 18.9337 59.2429 18.9664 60 19C60.6807 19.043 61.3614 19.086 62.0627 19.1303C62.7078 19.1811 63.3529 19.2319 64.0176 19.2842C64.6374 19.341 65.2573 19.3979 65.8959 19.4564C66.4923 19.5198 67.0887 19.5832 67.7031 19.6485C69.4102 19.8676 69.4102 19.8676 71.1519 20.0911C72.7473 20.3245 72.7473 20.3245 74.375 20.5625C75.3884 20.6943 76.4017 20.826 77.4458 20.9617C78.3789 21.12 79.312 21.2783 80.2734 21.4414C81.535 21.7646 81.535 21.7646 82.822 22.0943C83.9001 22.5426 83.9001 22.5426 85 23C85.8084 23.6398 85.8084 23.6398 86.6331 24.2925C87.0622 24.8238 87.4914 25.355 87.9336 25.9024C88.2949 26.521 88.6561 27.1397 89.0283 27.7771C89.349 28.5107 89.6696 29.2442 90 30C90.3284 30.8928 90.6568 31.7855 90.9951 32.7054C91.31 33.6895 91.6248 34.6736 91.9492 35.6875C92.2399 36.7162 92.5306 37.7449 92.8301 38.8047C93.113 39.8592 93.396 40.9136 93.6875 42C93.9821 43.0545 94.2766 44.1089 94.5801 45.1953C95.0103 46.7384 95.0103 46.7384 95.4492 48.3125C95.7173 49.3038 95.9853 50.2951 96.2615 51.3164C96.5052 52.202 96.7489 53.0876 97 54C97.3124 55.0036 97.3124 55.0036 97.6311 56.0274C97.8988 56.8801 97.8988 56.8801 98.1719 57.75C98.5818 59.3588 98.5818 59.3588 99 61C99.0758 61.633 99.1516 62.2659 99.2297 62.918C99.3036 63.9177 99.3036 63.9177 99.3789 64.9375C99.4131 65.6053 99.4472 66.273 99.4824 66.961C99.5221 67.9703 99.5221 67.9703 99.5625 69C99.5928 69.6729 99.6231 70.3458 99.6543 71.0391C99.6872 71.7068 99.72 72.3746 99.7539 73.0625C99.7863 73.7212 99.8187 74.38 99.8521 75.0586C99.9009 75.6993 99.9497 76.34 100 77C100.094 77.6098 100.188 78.2195 100.285 78.8477C100.385 79.4342 100.486 80.0207 100.59 80.625C100.725 81.7388 100.861 82.8525 101 84C100.804 84.9024 100.608 85.8047 100.406 86.7344C100.272 87.8121 100.138 88.8897 100 90C100.12 90.8012 100.24 91.6023 100.363 92.4278C100.563 93.3436 100.763 94.2595 100.969 95.2032C101.207 96.1756 101.445 97.148 101.691 98.1499C102.091 99.6845 102.091 99.6845 102.5 101.25C102.769 102.305 103.038 103.361 103.315 104.448C103.597 105.514 103.878 106.581 104.168 107.68C104.465 108.742 104.762 109.803 105.068 110.897C105.529 112.433 105.529 112.433 106 114C106.317 114.939 106.633 115.878 106.959 116.845C107.278 117.724 107.597 118.602 107.926 119.508C108.24 120.335 108.555 121.162 108.879 122.015C109.187 122.794 109.495 123.573 109.812 124.375C110.114 125.123 110.416 125.871 110.727 126.642C111.15 127.666 111.15 127.666 111.582 128.711C111.832 129.302 112.082 129.893 112.339 130.501C112.557 130.996 112.775 131.491 113 132C113.33 132.66 113.66 133.32 114 134C114.021 135.031 114.041 136.063 114.062 137.125C114.042 138.074 114.021 139.023 114 140C112.515 139.505 112.515 139.505 111 139C110.462 138.349 110.462 138.349 109.913 137.684C109.583 137.131 109.254 136.578 108.914 136.008C108.543 135.391 108.172 134.774 107.79 134.138C107.405 133.474 107.021 132.81 106.625 132.125C106.226 131.444 105.827 130.763 105.415 130.061C105.019 129.376 104.623 128.69 104.215 127.984C103.832 127.303 103.449 126.622 103.054 125.92C102.706 125.286 102.358 124.653 102 124C101.486 123.015 100.971 122.03 100.441 121.016C100.028 120.144 99.6138 119.273 99.1875 118.375C98.6268 117.064 98.6268 117.064 98.0547 115.727C97.7066 114.827 97.3586 113.927 97 113C96.6313 111.997 96.2627 110.994 95.8828 109.961C95.5296 108.901 95.1764 107.842 94.8125 106.75C94.4928 105.661 94.1731 104.572 93.8438 103.449C93.6981 102.888 93.5524 102.326 93.4023 101.748C93.2696 101.171 93.1368 100.594 93 100C92.8853 99.4014 92.7705 98.8028 92.6523 98.1861C92.5505 97.5742 92.4487 96.9624 92.3438 96.3321C92.2057 95.4021 92.2057 95.4021 92.0649 94.4534C91.9816 93.8294 91.8983 93.2054 91.8125 92.5625C91.6972 91.6314 91.6972 91.6314 91.5796 90.6814C91.5095 90.0595 91.4394 89.4376 91.3672 88.7969C91.3037 88.1736 91.2402 87.5504 91.1748 86.9082C91.1171 86.2785 91.0594 85.6488 91 85C90.9475 84.3523 90.8949 83.7045 90.8408 83.0371C90.7928 82.3907 90.7448 81.7442 90.6953 81.0782C90.628 80.1296 90.628 80.1296 90.5593 79.1619C90.5191 78.5516 90.4789 77.9413 90.4375 77.3125C90.3743 76.1949 90.3112 75.0773 90.2461 73.9258C90.1649 72.9603 90.0837 71.9948 90 71C89.826 70.2098 89.652 69.4196 89.4727 68.6055C89.3167 68.0757 89.1607 67.5459 89 67C88.3941 67.1586 87.7883 67.3171 87.1641 67.4805C85.9072 67.8305 85.9072 67.8305 84.625 68.1875C83.6995 68.4608 82.7739 68.7341 81.8203 69.0157C80.4243 69.5029 80.4243 69.5029 79 70C78.2549 70.3867 77.5098 70.7735 76.7422 71.1719C76.0023 71.5896 75.2623 72.0072 74.5 72.4375C73.2818 73.0776 73.2818 73.0776 72.0391 73.7305C71.0362 74.1494 70.0333 74.5684 69 75C68.3178 75.1981 67.6355 75.3961 66.9326 75.6001C66.1788 75.7901 65.4251 75.9801 64.6484 76.1758C63.4718 76.4486 63.4718 76.4486 62.2715 76.7268C61.4806 76.8995 60.6898 77.0721 59.875 77.25C58.7467 77.4945 58.7467 77.4945 57.5957 77.7439C56.8603 77.8955 56.1249 78.047 55.3672 78.2032C54.6381 78.3419 53.9089 78.4806 53.1577 78.6236C52.4457 78.7478 51.7336 78.872 51 79C50.315 79.1075 49.63 79.215 48.9243 79.3257C47.9254 79.4623 47.9254 79.4623 46.9062 79.6016C46.2551 79.677 45.604 79.7524 44.9331 79.8301C43.9762 79.9142 43.9762 79.9142 43 80C42.3711 80.0303 41.7422 80.0606 41.0942 80.0918C40.4779 80.1054 39.8616 80.1189 39.2266 80.1328C38.6297 80.1341 38.0329 80.1354 37.418 80.1367C36.8263 80.1329 36.2346 80.129 35.625 80.125C34.7027 80.1308 34.7027 80.1308 33.7617 80.1367C33.1726 80.1355 32.5835 80.1342 31.9766 80.1328C30.9943 80.089 30.012 80.0452 29 80C28.34 79.67 27.68 79.34 27 79C27 78.34 27 77.68 27 77C27.7394 76.7998 28.4787 76.5996 29.2405 76.3933C30.2762 76.2262 31.3118 76.059 32.3789 75.8867C33.2173 75.7452 33.2173 75.7452 34.0726 75.6009C34.6556 75.5021 35.2387 75.4033 35.8394 75.3015C36.4476 75.2018 37.0559 75.1021 37.6826 74.9994C38.6131 74.845 38.6131 74.845 39.5625 74.6875C40.1819 74.5795 40.8013 74.4716 41.4395 74.3603C42.059 74.2495 42.6786 74.1388 43.3169 74.0247C43.9338 73.9128 44.5506 73.8008 45.1862 73.6855C45.7989 73.5728 46.4117 73.46 47.043 73.3438C47.6546 73.2306 48.2662 73.1173 48.8963 73.0007C49.4905 72.8883 50.0846 72.776 50.6968 72.6602C51.7868 72.4423 52.8769 72.2245 54 72C55.258 71.7081 55.258 71.7081 56.5415 71.4102C57.2458 71.2233 57.9501 71.0364 58.6758 70.8438C59.6315 70.5595 59.6315 70.5595 60.6064 70.2696C61.1901 70.0775 61.7737 69.8854 62.375 69.6875C63.2253 69.3956 63.2253 69.3956 64.0928 69.0977C64.6409 68.8901 65.1891 68.6826 65.7539 68.4688C66.2826 68.2445 66.8113 68.0202 67.356 67.7891C68.1698 67.3985 68.1698 67.3985 69 67C69.9085 66.505 69.9085 66.505 70.8354 66C71.7657 65.4586 71.7657 65.4586 72.7148 64.9063C73.3196 64.5406 73.9243 64.1749 74.5474 63.7981C75.1299 63.4316 75.7124 63.0651 76.3125 62.6875C76.8589 62.3255 77.4053 61.9636 77.9683 61.5906C78.4699 61.2552 78.9715 60.9198 79.4883 60.5742C80.3171 60.0548 81.146 59.5353 82 59C82.66 59 83.32 59 84 59C83.8453 57.2985 83.8453 57.2985 83.6875 55.5625C83.6295 54.9244 83.5715 54.2864 83.5117 53.6289C83.3429 53.0914 83.174 52.5539 83 52C82.01 51.67 81.02 51.34 80 51C79.0218 50.9573 78.0437 50.9146 77.0359 50.8706C76.173 50.8659 76.173 50.8659 75.2928 50.8611C74.3647 50.8641 74.3647 50.8641 73.418 50.8672C72.442 50.8658 72.442 50.8658 71.4464 50.8643C70.4336 50.8638 70.4336 50.8638 69.4004 50.8633C68.3598 50.8665 68.3598 50.8665 67.2981 50.8697C66.6016 50.8714 65.9051 50.8732 65.1875 50.875C64.5105 50.8733 63.8335 50.8715 63.136 50.8697C62.4653 50.8676 61.7946 50.8655 61.1035 50.8633C60.4329 50.863 59.7623 50.8627 59.0714 50.8624C58.402 50.864 57.7326 50.8656 57.043 50.8672C56.0372 50.8728 56.0372 50.8728 55.0111 50.8785C54.3436 50.8862 53.676 50.8938 52.9883 50.9016C51.9967 50.92 51.9967 50.92 50.9851 50.9387C50.33 50.9589 49.6749 50.9792 49 51C48.3489 51.0342 47.6979 51.0684 47.0271 51.1036C46.3878 51.1451 45.7485 51.1866 45.0898 51.2293C44.4656 51.2736 43.8414 51.318 43.1983 51.3637C42.6005 51.41 42.0027 51.4563 41.3867 51.5039C40.3074 51.5949 39.228 51.6859 38.116 51.7796C37.0877 51.8523 36.0594 51.9251 35 52C33.8723 52.0211 32.7446 52.0422 31.5828 52.064C30.6067 52.0635 29.6306 52.063 28.625 52.0625C27.2831 52.049 27.2831 52.049 25.9141 52.0352C25.2824 52.0236 24.6508 52.012 24 52C23.9269 51.3752 23.8539 50.7504 23.7786 50.1067C23.8516 49.4115 23.9247 48.7163 24 48C24.4927 47.6625 24.9853 47.325 25.4929 46.9773C26.1694 46.7515 26.846 46.5257 27.543 46.293C28.2795 46.055 29.016 45.817 29.7749 45.5718C30.8763 45.2888 30.8763 45.2888 32 45C32.5886 44.8926 33.1772 44.7851 33.7837 44.6743C34.3462 44.613 34.9087 44.5516 35.4883 44.4883C36.0956 44.4528 36.7029 44.4173 37.3286 44.3806C37.9833 44.3582 38.638 44.3357 39.3125 44.3125C40.3912 44.2624 40.3912 44.2624 41.4917 44.2112C42.3027 44.1802 43.1137 44.1492 43.9492 44.1172C44.8585 44.095 45.7678 44.0727 46.7046 44.0498C47.7921 44.0334 48.8796 44.017 50 44C50.6726 43.9938 51.3452 43.9875 52.0381 43.9811C52.7689 43.9761 53.4996 43.971 54.2524 43.9659C55.3996 43.96 55.3996 43.96 56.5699 43.954C57.3577 43.9512 58.1454 43.9483 58.957 43.9453C60.1426 43.9424 60.1426 43.9424 61.3521 43.9395C62.1488 43.9384 62.9455 43.9374 63.7664 43.9363C64.5674 43.9361 65.3684 43.9359 66.1937 43.9357C66.996 43.9363 67.7984 43.9369 68.625 43.9375C69.431 43.939 70.2369 43.9405 71.0673 43.9421C71.8589 43.9442 72.6505 43.9463 73.4661 43.9485C74.2257 43.951 74.9853 43.9536 75.7679 43.9562C76.4967 43.959 77.2256 43.9619 77.9766 43.9649C78.6851 43.9681 79.3936 43.9713 80.1236 43.9745C80.7668 43.9777 81.41 43.9809 82.0728 43.9842C83.0387 43.9894 84.0047 43.9946 85 44C84.8904 43.4805 84.7809 42.961 84.668 42.4258C84.5094 41.7284 84.3509 41.031 84.1875 40.3125C84.0023 39.584 83.8171 38.8554 83.6262 38.1048C83.4196 37.4102 83.2129 36.7156 83 36C82.5604 35.0551 82.1209 34.1103 81.668 33.1367C81.1175 32.4316 80.5671 31.7265 80 31C79.2949 30.5734 78.5898 30.1467 77.8633 29.7071C77.0215 29.4119 76.1798 29.1167 75.3125 28.8125C74.3161 28.4941 73.3196 28.1757 72.293 27.8477C71.2063 27.568 70.1196 27.2882 69 27C67.3854 26.6578 67.3854 26.6578 65.7383 26.3086C65.158 26.2115 64.5776 26.1145 63.9797 26.0144C63.3677 25.9272 62.7556 25.8399 62.125 25.75C61.4904 25.6699 60.8558 25.5897 60.2019 25.5071C59.5062 25.4377 58.8105 25.3684 58.0938 25.2969C57.3229 25.2395 56.552 25.1822 55.7578 25.1231C54.8477 25.0825 53.9377 25.0419 53 25C52.1628 24.9852 52.1628 24.9852 51.3086 24.97C50.704 24.9651 50.0995 24.9602 49.4766 24.9551C48.5294 24.9528 48.5294 24.9528 47.563 24.9505C46.5882 24.9518 46.5882 24.9518 45.5938 24.9532C44.615 24.9552 44.615 24.9552 43.6164 24.9572C42.9591 24.9601 42.3018 24.9629 41.6245 24.9659C40.634 24.9724 40.634 24.9724 39.6235 24.9792C38.964 24.986 38.3045 24.9929 37.625 25C36.6384 25.0176 36.6384 25.0176 35.6319 25.0356C34.9865 25.048 34.3412 25.0604 33.6763 25.0733C33.0533 25.0819 32.4303 25.0905 31.7885 25.0993C30.8916 25.1121 30.8916 25.1121 29.9766 25.125C28.8739 25.1482 27.7713 25.1714 26.6353 25.1953C25.3308 25.0987 25.3308 25.0987 24 25C23.34 24.34 22.68 23.68 22 23C22 22.01 22 21.02 22 20C22.99 19.67 23.98 19.34 25 19Z" fill="black"/>
</g>
<defs>
<clipPath id="clip0_7_859">
<rect width="456" height="2405" fill="white" transform="translate(0 -1424)"/>
</clipPath>
</defs>
</svg>
