<svg width="152" height="158" viewBox="0 0 152 158" fill="none" xmlns="http://www.w3.org/2000/svg">
<g clip-path="url(#clip0_7_859)">
<path d="M48 114C48.6045 113.98 49.209 113.959 49.8319 113.938C50.4973 113.923 51.1628 113.907 51.8484 113.891C52.5559 113.88 53.2635 113.868 53.9924 113.856C54.7349 113.848 55.4773 113.84 56.2422 113.832C57.0055 113.827 57.7688 113.822 58.5552 113.817C59.3409 113.815 60.1267 113.812 60.9363 113.81C61.7432 113.81 62.5501 113.81 63.3814 113.809C64.6158 113.811 64.6158 113.811 65.875 113.812C67.1271 113.813 67.1271 113.813 68.4044 113.813C69.6676 113.815 69.6676 113.815 70.9563 113.817C71.8009 113.82 72.6454 113.824 73.5156 113.827C74.7821 113.835 74.7821 113.835 76.0742 113.844C77.3387 113.856 77.3387 113.856 78.6288 113.869C79.8767 113.885 79.8767 113.885 81.1499 113.902C81.9649 113.916 82.7799 113.931 83.6196 113.945C84.4051 113.963 85.1907 113.981 86 114C87.1048 114.035 87.1048 114.035 88.232 114.07C88.9348 114.097 89.6377 114.124 90.3618 114.152C91.3783 114.197 91.3783 114.197 92.4153 114.243C93.0684 114.276 93.7216 114.31 94.3945 114.344C95.3428 114.398 95.3428 114.398 96.3103 114.454C96.9216 114.493 97.5328 114.531 98.1626 114.571C98.7523 114.611 99.342 114.651 99.9495 114.693C100.523 114.732 101.097 114.772 101.688 114.812C102.802 114.882 103.916 114.952 105.064 115.025C106.078 115.105 107.092 115.186 108.137 115.27C109.447 115.372 109.447 115.372 110.784 115.476C111.515 115.649 112.247 115.822 113 116C113.616 116.448 114.232 116.896 114.866 117.358C115.241 117.9 115.615 118.442 116 119C115.67 119.99 115.34 120.98 115 122C113.989 122.412 112.979 122.825 111.938 123.25C110.838 123.488 110.838 123.488 109.716 123.731C108.82 123.82 107.923 123.908 107 124C105.926 123.953 104.852 123.907 103.745 123.859C103.146 123.812 102.547 123.765 101.93 123.716C101.288 123.663 100.646 123.61 99.9844 123.555C99.2945 123.505 98.6045 123.455 97.8937 123.403C97.1656 123.355 96.4375 123.307 95.6873 123.258C94.9277 123.211 94.1682 123.165 93.3857 123.117C92.5984 123.078 91.8111 123.04 91 123C90.1898 122.979 89.3795 122.957 88.5447 122.935C87.2997 122.917 87.2997 122.917 86.0295 122.898C85.1828 122.891 84.336 122.884 83.4635 122.877C82.6054 122.874 81.7474 122.87 80.8633 122.867C80.0009 122.866 79.1385 122.864 78.25 122.863C77.3818 122.863 76.5136 122.863 75.6191 122.863C74.3117 122.866 74.3117 122.866 72.9778 122.87C71.6585 122.872 71.6585 122.872 70.3125 122.875C69.4135 122.873 68.5144 122.871 67.5881 122.87C66.6934 122.868 65.7988 122.865 64.877 122.863C64.0034 122.864 63.1298 122.864 62.2298 122.864C60.9656 122.866 60.9656 122.866 59.6758 122.867C58.8768 122.865 58.0779 122.863 57.2547 122.861C56.5059 122.864 55.7571 122.867 54.9856 122.871C53.9433 122.887 53.9433 122.887 52.88 122.905C52.2596 122.936 51.6392 122.968 51 123C50.0476 123.164 49.0952 123.327 48.114 123.496C47.0676 123.745 47.0676 123.745 46 124C44.7625 124.101 44.7625 124.101 43.5 124.203C42.675 124.219 41.85 124.234 41 124.25C39.7006 124.236 39.7006 124.236 38.375 124.223C37.1994 124.112 37.1994 124.112 36 124C35.01 123.567 34.02 123.134 33 122.687C32.34 122.131 31.68 121.574 31 121C30.4431 120.205 30.4431 120.205 29.875 119.395C29.5863 118.934 29.2975 118.474 29 118C29.6175 117.795 30.2349 117.59 30.8711 117.379C31.718 117.109 32.5649 116.84 33.4375 116.562C34.2612 116.296 35.0849 116.029 35.9336 115.754C36.9455 115.505 37.9574 115.256 39 115C39.8551 114.844 39.8551 114.844 40.7275 114.686C41.3885 114.596 42.0495 114.506 42.7305 114.414C43.8951 114.299 43.8951 114.299 45.0833 114.181C46.0458 114.121 47.0083 114.061 48 114Z" fill="black"/>
<path d="M47 85C47.7572 84.982 48.5143 84.9639 49.2944 84.9453C50.5157 84.926 50.5157 84.926 51.7617 84.9062C52.6333 84.8986 53.5049 84.8909 54.4028 84.8831C55.3218 84.8804 56.2407 84.8777 57.1875 84.875C58.1322 84.8769 59.0769 84.8787 60.0503 84.8806C61.5587 84.8914 61.5587 84.8914 63.0977 84.9023C64.1755 84.9151 65.2533 84.9278 66.3638 84.9409C66.9427 84.9497 67.5215 84.9584 68.118 84.9675C69.0496 84.9836 69.0496 84.9836 70 85C71.0321 85.02 71.0321 85.02 72.0851 85.0403C72.8123 85.0556 73.5394 85.0708 74.2886 85.0864C75.0376 85.1031 75.7866 85.1197 76.5582 85.1368C77.3215 85.1548 78.0847 85.1729 78.8711 85.1914C79.6349 85.2107 80.3988 85.23 81.1858 85.2499C82.3339 85.2802 82.3339 85.2802 83.5051 85.311C84.6523 85.3424 84.6523 85.3424 85.8227 85.3743C86.5824 85.3952 87.3422 85.416 88.125 85.4375C88.8773 85.4571 89.6296 85.4766 90.4046 85.4968C91.5099 85.5262 91.5099 85.5262 92.6375 85.5562C93.3528 85.5773 94.0681 85.5985 94.8051 85.6203C95.4907 85.6412 96.1764 85.6621 96.8828 85.6836C97.5277 85.7003 98.1727 85.717 98.8371 85.7343C99.4441 85.7542 100.051 85.7741 100.676 85.7947C102.322 85.8963 102.322 85.8963 104 86C104.955 86.129 105.91 86.258 106.894 86.3909C107.589 86.5919 108.284 86.7929 109 87C109.402 88.0209 109.402 88.0209 109.812 89.0625C109.874 89.7019 109.936 90.3413 110 91C109.252 91.3171 108.505 91.6342 107.734 91.9609C107.181 92.1437 106.627 92.3264 106.057 92.5146C105.378 92.6748 104.699 92.835 104 93C103.182 93.0854 102.364 93.1708 101.521 93.2588C100.591 93.31 99.6614 93.3613 98.7031 93.4141C97.166 93.4721 97.166 93.4721 95.5979 93.5312C93.9407 93.5777 93.9407 93.5777 92.25 93.625C91.6765 93.644 91.103 93.663 90.5122 93.6826C89.6291 93.7121 89.6291 93.7121 88.7283 93.7422C87.8202 93.7702 87.8202 93.7702 86.8937 93.7988C86.2726 93.8162 85.6516 93.8336 85.0117 93.8516C84.0584 93.8746 84.0584 93.8746 83.0859 93.898C82.1083 93.918 82.1083 93.918 81.1108 93.9385C80.4428 93.95 79.7747 93.9614 79.0864 93.9733C78.3979 93.9821 77.7094 93.9909 77 94C75.9247 94.0074 75.9247 94.0074 74.8277 94.015C73.727 94.0187 73.727 94.0187 72.604 94.0225C71.4893 94.0236 71.4893 94.0236 70.3521 94.0247C69.603 94.0243 68.8539 94.0239 68.082 94.0234C67.3317 94.0228 66.5813 94.0221 65.8083 94.0214C65.0597 94.02 64.3112 94.0186 63.54 94.0171C62.796 94.0149 62.0519 94.0127 61.2853 94.0104C60.5518 94.007 59.8182 94.0035 59.0625 94C57.9905 93.9912 57.9905 93.9912 56.8969 93.9822C56.1971 93.976 55.4973 93.9698 54.7764 93.9634C53.7468 93.9562 53.7468 93.9562 52.6964 93.9489C52.0245 93.9451 51.3525 93.9414 50.6602 93.9375C50.0024 93.9335 49.3447 93.9295 48.6671 93.9254C48.0256 93.9255 47.3841 93.9256 46.7231 93.9258C46.0997 93.9317 45.4762 93.9377 44.8338 93.9438C44.2286 93.9624 43.6235 93.9809 43 94C42.4129 94.043 41.8258 94.086 41.2209 94.1304C40.3727 94.2109 40.3727 94.2109 39.5073 94.293C38.4517 94.4025 37.3962 94.5121 36.3086 94.625C35.3978 94.741 34.487 94.857 33.5486 94.9766C32.287 94.9882 32.287 94.9882 31 95C30.0707 94.7293 29.1413 94.4586 28.1838 94.1797C27.4632 93.7904 26.7425 93.4011 26 93C25.9175 92.175 25.835 91.35 25.75 90.5C26.1625 89.675 26.575 88.85 27 88C27.9075 87.5875 28.815 87.175 29.75 86.75C30.3945 86.6134 31.0391 86.4767 31.7031 86.3359C32.8401 86.1696 32.8401 86.1696 34 86C34.8405 85.8891 35.6809 85.7783 36.5469 85.6641C37.5214 85.5687 38.4959 85.4733 39.5 85.375C40.6408 85.3028 41.7816 85.2306 42.957 85.1562C43.5972 85.1279 44.2374 85.0995 44.897 85.0703C45.591 85.0471 46.285 85.0239 47 85Z" fill="black"/>
<path d="M36 54C36.966 53.9198 37.932 53.8397 38.9272 53.7571C39.949 53.7612 40.9707 53.7653 42.0234 53.7695C42.8796 53.7696 42.8796 53.7696 43.7531 53.7697C44.3531 53.7708 44.9531 53.772 45.5713 53.7732C46.5 53.7824 46.5 53.7824 47.4474 53.7917C48.0835 53.7986 48.7196 53.8054 49.375 53.8125C50.0221 53.8162 50.6691 53.8199 51.3358 53.8238C52.3254 53.8289 52.3254 53.8289 53.335 53.8342C54.0075 53.8389 54.68 53.8436 55.3729 53.8485C56.0568 53.8546 56.7407 53.8608 57.4453 53.8672C58.4871 53.8801 58.4871 53.8801 59.5499 53.8934C60.6046 53.9089 60.6046 53.9089 61.6807 53.9248C62.3905 53.9365 63.1003 53.9482 63.8317 53.9603C64.5472 53.9734 65.2628 53.9865 66 54C66.7207 54.0144 67.4414 54.0288 68.184 54.0436C68.9067 54.0592 69.6294 54.0748 70.374 54.0908C71.0961 54.1075 71.8181 54.1242 72.562 54.1414C73.6412 54.1681 73.6412 54.1681 74.7422 54.1953C75.8145 54.2239 75.8145 54.2239 76.9084 54.253C77.9701 54.2828 77.9701 54.2828 79.0532 54.3132C79.7518 54.3337 80.4504 54.3542 81.1702 54.3753C81.8566 54.3958 82.5429 54.4164 83.25 54.4375C84.2551 54.4667 84.2551 54.4667 85.2805 54.4965C85.9348 54.5161 86.5891 54.5357 87.2632 54.5559C87.9014 54.5764 88.5396 54.5968 89.1971 54.6179C90.1282 54.6504 90.1282 54.6504 91.0781 54.6836C91.9817 54.719 91.9817 54.719 92.9035 54.7552C93.4859 54.7804 94.0684 54.8057 94.6685 54.8318C95.7679 54.8873 96.8673 54.9428 98 55C99.508 55.092 99.508 55.092 101.046 55.1858C101.941 55.2585 102.836 55.3313 103.758 55.4062C104.905 55.502 104.905 55.502 106.075 55.5996C106.71 55.7317 107.345 55.8639 108 56C108.866 56.6806 109.733 57.3612 110.625 58.0625C111.306 59.0216 111.306 59.0216 112 60C111.34 60.66 110.68 61.32 110 62C109.01 62.33 108.02 62.66 107 63C105.412 63.056 105.412 63.056 103.792 63.113C103.154 63.1121 102.515 63.1112 101.856 63.1102C101.159 63.1035 100.461 63.0968 99.7422 63.0898C99.0002 63.0861 98.2581 63.0823 97.4936 63.0784C96.7078 63.073 95.922 63.0676 95.1123 63.062C93.8718 63.0483 93.8718 63.0483 92.6063 63.0344C91.7462 63.023 90.8861 63.0117 90 63C88.6731 62.9811 88.6731 62.9811 87.3195 62.9617C86.4113 62.9475 85.5031 62.9332 84.5674 62.9185C83.6377 62.9025 82.7081 62.8865 81.7503 62.87C80.804 62.8523 79.8578 62.8346 78.8828 62.8164C77.9248 62.7967 76.9667 62.777 75.9797 62.7567C75.0119 62.7358 74.044 62.7149 73.0469 62.6934C72.073 62.6717 71.0991 62.65 70.0957 62.6277C69.1154 62.6062 68.135 62.5847 67.125 62.5625C66.134 62.5428 65.1431 62.523 64.1221 62.5027C63.1356 62.4831 62.1492 62.4635 61.1328 62.4434C60.1576 62.4222 59.1824 62.4011 58.1777 62.3794C57.2348 62.3586 56.2918 62.3378 55.3203 62.3164C54.4461 62.2997 53.5719 62.283 52.6712 62.2658C51.8259 62.2458 50.9807 62.2259 50.1099 62.2053C49.2809 62.1773 48.4518 62.1493 47.5977 62.1204C46.7405 62.0807 45.8832 62.0409 45 62C44.0272 61.9431 43.0544 61.8862 42.0522 61.8276C41.0796 61.7542 40.107 61.6808 39.105 61.6052C37.7829 61.5051 37.7829 61.5051 36.4341 61.4029C35.6308 61.27 34.8276 61.137 34 61C33.2347 60.7194 32.4694 60.4388 31.6809 60.1497C31.1262 59.7703 30.5715 59.3909 30 59C30 58.01 30 57.02 30 56C30.8658 55.6129 31.7315 55.2258 32.6235 54.8269C34.2949 54.4176 34.2949 54.4176 36 54Z" fill="black"/>
<path d="M41 28.9999C42.0686 28.9558 43.1372 28.9117 44.2382 28.8662C45.0875 28.8598 45.0875 28.8598 45.954 28.8533C46.5526 28.8538 47.1513 28.8542 47.7681 28.8547C48.416 28.8513 49.0639 28.848 49.7315 28.8445C50.4116 28.8415 51.0917 28.8385 51.7924 28.8353C52.4946 28.8346 53.1968 28.8338 53.9202 28.8331C54.6401 28.8327 55.3599 28.8323 56.1016 28.832C56.8302 28.8304 57.5589 28.8288 58.3097 28.8272C59.0502 28.8254 59.7906 28.8237 60.5536 28.8219C61.3064 28.8204 62.0592 28.819 62.8349 28.8175C63.9801 28.816 63.9801 28.816 65.1484 28.8144C66.3088 28.8143 66.3088 28.8143 67.4927 28.8142C68.6637 28.8144 68.6637 28.8144 69.8584 28.8146C71.036 28.8147 71.036 28.8147 72.2375 28.8147C73.0254 28.814 73.8132 28.8132 74.625 28.8124C75.4142 28.8098 76.2033 28.8071 77.0164 28.8043C77.8038 28.801 78.5911 28.7976 79.4023 28.7941C80.1854 28.7907 80.9684 28.7874 81.7752 28.7839C82.9384 28.7796 82.9384 28.7796 84.125 28.7753C84.8885 28.7742 85.6521 28.7731 86.4387 28.772C87.5669 28.7714 87.5669 28.7714 88.7179 28.7709C89.4571 28.771 90.1963 28.7711 90.9579 28.7712C92.05 28.7704 92.05 28.7704 93.1641 28.7695C93.8862 28.7657 94.6083 28.7618 95.3523 28.7579C96.0563 28.7545 96.7602 28.7512 97.4855 28.7477C98.5014 28.7495 98.5014 28.7495 99.5379 28.7513C100.182 28.7532 100.827 28.7551 101.491 28.757C102.395 28.7486 102.395 28.7486 103.317 28.74C103.878 28.7442 104.438 28.7484 105.016 28.7527C106.493 28.8751 106.493 28.8751 108 28.9999C109.16 29.4096 109.16 29.4096 110.344 29.8276C110.891 30.2145 111.437 30.6014 112 30.9999C112.495 32.4849 112.495 32.4849 113 33.9999C112.488 34.308 111.976 34.6161 111.449 34.9335C110.237 35.4614 110.237 35.4614 109 35.9999C107.913 36.1972 106.827 36.3944 105.707 36.5976C104.776 36.7158 104.776 36.7158 103.825 36.8364C103.161 36.911 102.497 36.9856 101.812 37.0624C101.108 37.1448 100.404 37.2271 99.6787 37.312C98.9507 37.3933 98.2227 37.4747 97.4727 37.5585C96.7303 37.6344 95.988 37.7103 95.2231 37.7885C94.4895 37.8583 93.7559 37.9281 93 37.9999C92.3115 38.0607 91.623 38.1214 90.9136 38.184C90.2396 38.238 89.5655 38.292 88.8711 38.3476C88.1943 38.3961 87.5174 38.4446 86.8201 38.4946C85.7954 38.5591 85.7954 38.5591 84.75 38.6249C83.7011 38.6817 83.7011 38.6817 82.6311 38.7397C81.9175 38.7727 81.204 38.8057 80.4688 38.8398C79.7417 38.868 79.0147 38.8962 78.2656 38.9252C77.518 38.9499 76.7703 38.9745 76 38.9999C75.2214 39.0233 74.4428 39.0467 73.6406 39.0707C72.8414 39.0899 72.0422 39.1091 71.2188 39.1288C69.9965 39.1481 69.9965 39.1481 68.7495 39.1677C67.9247 39.1742 67.0998 39.1807 66.25 39.1874C65.4265 39.1882 64.6029 39.1889 63.7544 39.1896C62.9202 39.1812 62.086 39.1727 61.2266 39.164C60.3787 39.145 59.5308 39.126 58.6572 39.1064C57.7803 39.0713 56.9035 39.0361 56 38.9999C54.5957 38.9086 54.5957 38.9086 53.1631 38.8154C52.2095 38.7396 51.2559 38.6639 50.2734 38.5859C48.8576 38.4598 48.8576 38.4598 47.4131 38.3312C46.493 38.2425 45.5729 38.1538 44.625 38.0624C43.7513 37.9757 42.8777 37.8889 41.9775 37.7995C40.7396 37.6686 40.7396 37.6686 39.4766 37.5351C38.7047 37.4437 37.9329 37.3524 37.1377 37.2582C36.0795 37.1304 36.0795 37.1304 35 36.9999C34.3745 36.9392 33.749 36.8784 33.1045 36.8159C32.2909 36.7194 32.2909 36.7194 31.4609 36.621C30.2428 36.3136 30.2428 36.3136 29 35.9999C28.67 35.0099 28.34 34.0199 28 32.9999C29.0312 32.5256 30.0625 32.0512 31.125 31.5624C31.7051 31.2956 32.2852 31.0288 32.8828 30.7538C33.5815 30.5051 34.2802 30.2563 35 29.9999C35.8941 29.8224 36.7882 29.6448 37.7093 29.4619C38.7952 29.3095 39.8812 29.157 41 28.9999Z" fill="black"/>
</g>
<defs>
<clipPath id="clip0_7_859">
<rect width="456" height="2405" fill="white" transform="translate(-304 -495)"/>
</clipPath>
</defs>
</svg>
