<svg width="152" height="168" viewBox="0 0 152 168" fill="none" xmlns="http://www.w3.org/2000/svg">
<g clip-path="url(#clip0_7_859)">
<path d="M47 133C48.0364 132.947 49.0728 132.894 50.1406 132.84C51.2905 132.81 52.4403 132.781 53.625 132.75C54.7104 132.724 55.7958 132.698 56.9141 132.672C58.4416 132.834 58.4416 132.834 60 133C60.9578 133.456 61.9155 133.913 62.9023 134.383C63.5946 134.916 64.2868 135.45 65 136C64.9794 136.701 64.9588 137.402 64.9375 138.125C64.6281 138.744 64.3187 139.363 64 140C63.34 140.33 62.68 140.66 62 141C61.164 141.102 61.164 141.102 60.311 141.205C59.6438 141.242 58.9765 141.279 58.2891 141.316C57.1717 141.38 57.1717 141.38 56.0317 141.444C54.8404 141.503 54.8404 141.503 53.625 141.562C52.4124 141.624 52.4124 141.624 51.1753 141.687C49.9593 141.745 49.9593 141.745 48.7188 141.805C47.9157 141.839 47.1126 141.874 46.2852 141.909C45.154 141.954 45.154 141.954 44 142C43.3542 142.025 42.7084 142.05 42.043 142.075C41.4616 142.094 40.8802 142.113 40.2812 142.133C38.7189 142.16 38.7189 142.16 37.125 142.188C35.7676 142.209 35.7676 142.209 34.3828 142.23C33.5965 142.154 32.8102 142.078 32 142C31.2343 141.666 30.4686 141.332 29.6797 140.988C28.8482 140.499 28.8482 140.499 28 140C28.33 139.01 28.66 138.02 29 137C29.7451 136.698 30.4902 136.397 31.2578 136.086C32.204 135.851 33.1502 135.617 34.125 135.375C35.1305 135.129 36.1359 134.883 37.1719 134.629C38.1052 134.421 39.0384 134.214 40 134C41.1137 133.773 42.2275 133.546 43.375 133.312C43.9061 133.252 44.4372 133.191 44.9844 133.129C45.6495 133.086 46.3147 133.044 47 133Z" fill="black"/>
<path d="M107 131C108.107 131.009 109.215 131.018 110.355 131.027C111.665 131.138 111.665 131.138 113 131.25C113.722 131.338 114.444 131.425 115.188 131.516C115.786 131.675 116.384 131.835 117 132C117.598 132.263 118.196 132.526 118.812 132.797C119.4 133.392 119.4 133.392 120 134C120.002 135.013 120.002 135.013 120.004 136.047C119.673 136.691 119.341 137.336 119 138C118.287 138.273 117.574 138.547 116.84 138.828C115.403 139.037 115.403 139.037 113.938 139.25C112.859 139.398 111.78 139.546 110.668 139.699C110.079 139.756 109.491 139.814 108.884 139.873C108.262 139.915 107.641 139.957 107 140C106.338 140.02 105.676 140.04 104.995 140.061C103.971 140.071 103.971 140.071 102.926 140.082C102.237 140.082 101.548 140.082 100.839 140.081C100.149 140.075 99.4601 140.069 98.75 140.062C98.0653 140.052 97.3805 140.041 96.675 140.03C96.0114 140.02 95.3478 140.01 94.6641 140C94.0315 139.994 93.3988 139.987 92.7471 139.98C92.1705 139.987 91.594 139.993 91 140C89.6504 140.124 89.6504 140.124 88.2734 140.25C87.21 140.405 87.21 140.405 86.125 140.562C85.0938 140.707 84.0625 140.851 83 141C82.34 140.67 81.68 140.34 81 140C80.7216 138.793 80.7216 138.793 80.4375 137.562C80.6231 136.717 80.8088 135.871 81 135C81.9745 134.642 82.9491 134.283 83.9531 133.914C84.5892 133.755 85.2253 133.595 85.8806 133.431C86.58 133.289 87.2794 133.147 88 133C88.7245 132.882 89.4491 132.763 90.1956 132.641C91.3305 132.488 91.3305 132.488 92.4883 132.332C93.2727 132.243 94.0571 132.153 94.8652 132.062C95.6728 131.979 96.4804 131.897 97.3125 131.812C98.5684 131.683 98.5684 131.683 99.8496 131.552C101.094 131.435 101.094 131.435 102.363 131.316C103.163 131.253 103.963 131.19 104.788 131.125C105.518 131.084 106.248 131.043 107 131Z" fill="black"/>
<path d="M38 22.9999C39.5845 22.9558 39.5845 22.9558 41.201 22.9109C41.8094 22.9165 42.4178 22.9221 43.0447 22.9278C43.7004 22.9392 44.3561 22.9506 45.0317 22.9623C45.7314 22.9703 46.431 22.9783 47.1518 22.9866C47.8869 22.9954 48.622 23.0043 49.3794 23.0134C50.5261 23.0309 50.5261 23.0309 51.6959 23.0488C52.4795 23.061 53.263 23.0733 54.0703 23.0858C55.2526 23.1019 55.2526 23.1019 56.4587 23.1183C57.2583 23.1288 58.0578 23.1394 58.8816 23.1502C59.6949 23.1612 60.5082 23.1722 61.3462 23.1836C62.1717 23.1952 62.9972 23.2067 63.8477 23.2187C64.6859 23.2313 65.5242 23.244 66.3878 23.2571C67.2345 23.2702 68.0812 23.2833 68.9536 23.2968C70.2312 23.3165 70.2312 23.3165 71.5345 23.3365C72.3894 23.3492 73.2442 23.3619 74.125 23.3749C74.9811 23.3863 75.8373 23.3977 76.7194 23.4094C77.5733 23.4202 78.4273 23.4311 79.3071 23.4423C80.5807 23.4584 80.5807 23.4584 81.8801 23.4748C82.7202 23.4857 83.5602 23.4965 84.4258 23.5077C85.6641 23.525 85.6641 23.525 86.9274 23.5427C87.74 23.5544 88.5526 23.5661 89.3899 23.5782C90.1881 23.59 90.9864 23.6018 91.8089 23.6139C92.9902 23.631 92.9902 23.631 94.1953 23.6483C94.9812 23.6583 95.767 23.6682 96.5767 23.6784C97.3429 23.6883 98.1091 23.6983 98.8985 23.7085C99.6308 23.7202 100.363 23.7318 101.118 23.7439C101.814 23.7554 102.51 23.7669 103.227 23.7787C104.217 23.7897 104.217 23.7897 105.226 23.8009C105.829 23.8122 106.432 23.8234 107.053 23.835C108.512 23.9166 108.512 23.9166 110 23.9999C110.99 24.4949 110.99 24.4949 112 24.9999C112.006 25.6496 112.013 26.2993 112.02 26.9687C111.683 27.639 111.347 28.3093 111 28.9999C109.614 29.4485 109.614 29.4485 108.199 29.9062C107.634 30.0106 107.069 30.115 106.486 30.2226C105.893 30.3141 105.299 30.4056 104.688 30.4999C104.105 30.5914 103.523 30.683 102.924 30.7773C102.355 30.8817 101.786 30.9861 101.199 31.0937C100.143 31.3927 99.0877 31.6918 98 31.9999C97.2188 32.5336 96.4377 33.0673 95.6328 33.6171C95.094 34.4034 94.5552 35.1898 94 35.9999C93.8518 36.5603 93.7037 37.1207 93.551 37.6982C93.4659 38.3262 93.3807 38.9543 93.293 39.6015C93.2589 40.256 93.2248 40.9105 93.1897 41.5849C93.1886 42.5947 93.1886 42.5947 93.1875 43.6249C93.1874 44.3084 93.1873 44.992 93.1873 45.6962C93.2209 46.3507 93.2544 47.0052 93.2891 47.6796C93.5237 48.7753 93.7583 49.871 94 50.9999C94.8779 51.6535 94.8779 51.6535 95.7734 52.3202C96.5288 52.462 97.2842 52.6038 98.0625 52.7499C99.2884 52.8195 99.2884 52.8195 100.539 52.8905C101.351 52.9266 102.163 52.9627 103 52.9999C103.688 53.2216 104.377 53.4433 105.086 53.6718C105.697 53.9451 106.308 54.2183 106.938 54.4999C107.948 54.9949 108.959 55.4899 110 55.9999C110.66 56.6599 111.32 57.3199 112 57.9999C112.122 58.6728 112.245 59.3457 112.371 60.039C112.393 60.8923 112.415 61.7457 112.438 62.6249C112.405 64.108 112.405 64.108 112.371 65.621C112.249 66.736 112.126 67.8511 112 68.9999C111.878 69.6021 111.755 70.2042 111.629 70.8246C111.397 71.7641 111.397 71.7641 111.16 72.7226C110.98 73.3689 110.799 74.0152 110.614 74.6811C110.411 75.3432 110.209 76.0053 110 76.6874C109.674 77.696 109.674 77.696 109.342 78.725C109.105 79.4074 108.869 80.0898 108.625 80.7929C108.368 81.483 108.112 82.1731 107.848 82.8842C107.428 83.9315 107.428 83.9315 107 84.9999C106.689 85.7097 106.379 86.4195 106.059 87.1508C105.73 87.8603 105.401 88.5697 105.062 89.3007C104.725 90.0004 104.387 90.7001 104.039 91.4211C103.696 92.1071 103.353 92.7931 103 93.4999C102.657 94.1685 102.314 94.8371 101.961 95.526C101.623 96.1671 101.285 96.8082 100.938 97.4687C100.609 98.0758 100.28 98.683 99.9414 99.3085C99.6307 99.8667 99.3201 100.425 99 101C98.4638 101.918 97.9275 102.836 97.375 103.781C96.9212 104.513 96.4675 105.246 96 106C95.6416 106.541 95.2833 107.081 94.9141 107.639C94.6124 108.088 94.3108 108.537 94 109C94.5243 108.989 95.0487 108.979 95.5889 108.968C96.3175 108.955 97.0462 108.943 97.7969 108.93C98.5909 108.921 99.385 108.912 100.203 108.902C101.044 108.893 101.884 108.884 102.75 108.875C103.575 108.858 104.4 108.841 105.25 108.824C106.049 108.818 106.848 108.811 107.672 108.805C108.405 108.794 109.138 108.784 109.894 108.773C110.589 108.848 111.284 108.923 112 109C112.749 109.293 113.499 109.585 114.271 109.887C114.841 110.254 115.412 110.622 116 111C116 111.66 116 112.32 116 113C115.216 113.534 114.433 114.067 113.625 114.617C113.076 114.873 112.527 115.129 111.961 115.393C111.314 115.594 110.667 115.794 110 116C109.25 116.074 108.5 116.148 107.727 116.224C106.909 116.235 106.092 116.246 105.25 116.258C104.394 116.244 103.538 116.229 102.656 116.215C101.78 116.185 100.903 116.155 100 116.125C98.6852 116.092 98.6852 116.092 97.3438 116.059C96.4878 116.042 95.6319 116.025 94.75 116.008C93.9215 115.995 93.0929 115.981 92.2393 115.968C91.5003 115.978 90.7613 115.989 90 116C88.9842 116.152 87.9684 116.304 86.9219 116.461C85.9577 116.639 84.9934 116.817 84 117C83.3342 117.053 82.6684 117.106 81.9824 117.161C81.2509 117.2 80.5193 117.24 79.7656 117.281C78.6577 117.337 78.6577 117.337 77.5273 117.394C76.4001 117.447 76.4001 117.447 75.25 117.5C74.0995 117.552 74.0995 117.552 72.9258 117.605C71.8256 117.661 71.8256 117.661 70.7031 117.719C70.0396 117.749 69.376 117.779 68.6924 117.81C68.1339 117.873 67.5754 117.935 67 118C66.01 118.495 66.01 118.495 65 119C63.9082 119.055 62.8163 119.111 61.6914 119.168C61.0315 119.175 60.3716 119.182 59.6917 119.19C58.989 119.189 58.2864 119.188 57.5625 119.187C56.8476 119.187 56.1328 119.187 55.3962 119.187C54.6777 119.18 53.9591 119.172 53.2188 119.164C52.5046 119.145 51.7905 119.126 51.0547 119.106C50.3766 119.071 49.6986 119.036 49 119C47.8553 118.863 46.7106 118.727 45.5312 118.586C44.5516 118.413 43.5719 118.24 42.5625 118.062C41.6975 117.888 40.8326 117.714 39.9414 117.535C39.3007 117.358 38.6601 117.182 38 117C37.67 116.67 37.34 116.34 37 116C36.8762 115.01 36.7525 114.02 36.625 113C36.8106 111.515 36.8106 111.515 37 110C37.7425 109.691 38.485 109.381 39.25 109.062C40.1575 109.042 41.065 109.021 42 109C42.5775 109.162 43.155 109.325 43.75 109.492C44.4925 109.66 45.235 109.827 46 110C47.0673 110.032 48.1347 110.064 49.2344 110.098C50.0948 110.093 50.0948 110.093 50.9727 110.088C51.5592 110.079 52.1457 110.071 52.75 110.062C53.653 110.056 53.653 110.056 54.5742 110.049C55.1427 110.044 55.7112 110.04 56.2969 110.035C57.1889 110.023 58.0809 110.012 59 110C58.4199 109.357 57.8398 108.713 57.2422 108.051C56.8667 107.621 56.4911 107.192 56.1042 106.75C55.6986 106.276 55.2929 105.801 54.875 105.312C54.4648 104.821 54.0547 104.33 53.6321 103.824C53.2211 103.311 52.8101 102.798 52.3867 102.269C51.9786 101.734 51.5704 101.199 51.1499 100.647C50.7704 100.103 50.391 99.5599 50 98.9999C49.6863 98.4654 49.3725 97.931 49.0493 97.3803C48.7714 96.8461 48.4934 96.312 48.207 95.7616C47.9483 95.2246 47.6896 94.6875 47.4231 94.1342C47.1803 93.5949 46.9376 93.0556 46.6875 92.4999C46.3321 91.6832 46.3321 91.6832 45.9695 90.85C45.7424 90.3078 45.5152 89.7656 45.2812 89.2069C44.8584 88.1486 44.4356 87.0903 44 85.9999C43.5978 85.0138 43.1956 84.0276 42.7812 83.0116C42.4203 82.0796 42.0594 81.1476 41.6875 80.1874C41.3768 79.2954 41.0662 78.4033 40.7461 77.4843C40.4999 76.6644 40.2537 75.8446 40 74.9999C39.8466 74.3038 39.6932 73.6077 39.5352 72.8905C39.394 71.9237 39.394 71.9237 39.25 70.9374C39.201 70.3109 39.152 69.6844 39.1016 69.039C39.068 68.3661 39.0345 67.6932 39 66.9999C38.9252 66.162 38.8505 65.3241 38.7734 64.4608C38.7 63.1499 38.7 63.1499 38.625 61.8124C38.5515 60.6155 38.5515 60.6155 38.4766 59.3944C38.6493 58.6042 38.822 57.814 39 56.9999C39.6613 56.113 40.3226 55.2262 41.0039 54.3124C41.4573 53.899 41.9108 53.4856 42.3779 53.0597C42.9132 52.71 43.4485 52.3602 44 51.9999C44.946 51.6658 44.946 51.6658 45.9111 51.3249C46.9393 51.0925 46.9393 51.0925 47.9883 50.8554C48.694 50.7361 49.3998 50.6169 50.127 50.494C50.8482 50.3929 51.5694 50.2917 52.3125 50.1874C53.0531 50.0669 53.7936 49.9464 54.5566 49.8222C55.256 49.7094 55.9553 49.5966 56.6758 49.4804C57.7728 49.3218 58.8698 49.1633 60 48.9999C59.8788 47.8565 59.7577 46.7131 59.6328 45.5351C59.5516 44.8177 59.4704 44.1003 59.3867 43.3612C59.3004 42.6026 59.214 41.844 59.125 41.0624C59.0464 40.3077 58.9677 39.5529 58.8867 38.7753C58.761 37.6973 58.761 37.6973 58.6328 36.5976C58.5595 35.9325 58.4862 35.2674 58.4106 34.5822C58.2074 33.799 58.2074 33.799 58 32.9999C57.34 32.6699 56.68 32.3399 56 31.9999C54.3835 32.0038 54.3835 32.0038 52.7344 32.0077C52.0911 32.0245 51.4479 32.0412 50.7852 32.0585C50.1136 32.0804 49.442 32.1023 48.75 32.1249C48.0939 32.1546 47.4377 32.1842 46.7617 32.2148C46.1133 32.2289 45.4649 32.2431 44.7969 32.2577C43.841 32.2395 43.841 32.2395 42.8657 32.2209C42.25 32.1479 41.6343 32.075 41 31.9999C40.4088 31.8078 39.8176 31.6156 39.2085 31.4176C38.6679 31.1676 38.1273 30.9176 37.5703 30.6601C36.7221 30.1122 35.8739 29.5644 35 28.9999C34.7113 28.113 34.4225 27.2262 34.125 26.3124C34.0837 25.5493 34.0425 24.7862 34 23.9999C34.515 23.8357 35.0299 23.6715 35.5605 23.5023C36.3655 23.3365 37.1706 23.1707 38 22.9999ZM76 29.9999C75.4148 29.987 74.8295 29.9741 74.2266 29.9608C73.5949 30.015 72.9633 30.0691 72.3125 30.1249C71.4114 30.3801 71.4114 30.3801 70.4922 30.6405C69.9998 31.0891 69.5073 31.5377 69 31.9999C68.7551 33.026 68.5102 34.0521 68.2578 35.1093C68.193 35.7176 68.1281 36.3258 68.0613 36.9525C68.0204 37.5869 67.9796 38.2213 67.9375 38.8749C67.8999 39.5003 67.8623 40.1256 67.8235 40.7699C67.8083 41.3795 67.793 41.9891 67.7773 42.6171C67.8508 43.7334 67.9243 44.8498 68 45.9999C68.1637 46.812 68.3274 47.6241 68.4961 48.4608C68.9924 48.9687 69.4887 49.4766 70 49.9999C70.5494 50.0687 71.0988 50.1375 71.6648 50.2084C72.6699 50.1903 72.6699 50.1903 73.6953 50.1718C74.4107 50.1138 75.1262 50.0558 75.8633 49.996C76.6096 49.9148 77.356 49.8336 78.125 49.7499C78.8791 49.6842 79.6332 49.6184 80.4102 49.5507C81.123 49.4875 81.8359 49.4244 82.5703 49.3593C83.7021 49.2407 84.8339 49.1221 86 48.9999C86.0087 48.479 86.0174 47.958 86.0264 47.4213C86.0365 46.3735 86.0365 46.3735 86.0469 45.3046C86.0462 44.5734 86.0456 43.8422 86.0449 43.0888C86.0301 42.3994 86.0153 41.7101 86 40.9999C85.853 39.6735 85.853 39.6735 85.7031 38.3202C85.5536 37.5958 85.4041 36.8713 85.25 36.1249C85.1108 35.385 84.9716 34.6451 84.8281 33.8827C84.5548 33.2614 84.2816 32.6401 84 31.9999C83.3516 31.59 82.7032 31.1801 82.0352 30.7577C81.0278 30.3826 81.0278 30.3826 80 29.9999C79.4019 29.9174 78.8037 29.8349 78.1875 29.7499C77.1047 29.8737 77.1047 29.8737 76 29.9999ZM70 56.9999C69.01 57.4949 69.01 57.4949 68 57.9999C67.8969 59.0724 67.7938 60.1449 67.6875 61.2499C67.703 61.8764 67.7184 62.5029 67.7344 63.1483C67.822 63.7594 67.9097 64.3704 68 64.9999C68.4744 65.9487 68.9487 66.8974 69.4375 67.8749C69.9531 68.5762 70.4688 69.2774 71 69.9999C71.33 70.3299 71.66 70.6599 72 70.9999C72.9591 71.0669 73.9181 71.134 74.9062 71.203C75.7744 71.2185 75.7744 71.2185 76.6602 71.2343C77.2673 71.2394 77.8745 71.2446 78.5 71.2499C79.1071 71.2705 79.7143 71.2912 80.3398 71.3124C80.9186 71.3176 81.4974 71.3227 82.0938 71.328C83.0528 71.2198 84.0119 71.1115 85 70.9999C85.33 70.0099 85.66 69.0199 86 67.9999C86.0554 67.193 86.1109 66.386 86.168 65.5546C86.1744 64.6703 86.1809 63.786 86.1875 62.8749C86.2088 61.5407 86.2088 61.5407 86.2305 60.1796C86.1544 59.4603 86.0784 58.741 86 57.9999C85.34 57.6699 84.68 57.3399 84 56.9999C82.4222 56.9342 82.4222 56.9342 80.8125 56.8671C80.1963 56.8658 79.5802 56.8645 78.9453 56.8632C77.9824 56.869 77.9824 56.869 77 56.8749C76.358 56.871 75.7161 56.8672 75.0547 56.8632C74.1304 56.8651 74.1304 56.8651 73.1875 56.8671C72.1356 56.9109 71.0838 56.9548 70 56.9999ZM57 56.9999C56.0235 57.1933 56.0235 57.1933 55.0273 57.3905C54.3377 57.6741 53.648 57.9577 52.9375 58.2499C52.2453 58.5232 51.553 58.7965 50.8398 59.078C50.2327 59.3823 49.6255 59.6865 49 59.9999C48.34 60.6599 47.68 61.3199 47 61.9999C46.9175 62.9899 46.835 63.9799 46.75 64.9999C46.8325 65.9899 46.915 66.9799 47 67.9999C47.66 68.6599 48.32 69.3199 49 69.9999C49.8469 70.076 50.6938 70.152 51.5664 70.2304C53.0495 70.2091 53.0495 70.2091 54.5625 70.1874C55.5538 70.181 56.5451 70.1745 57.5664 70.1679C58.3695 70.1124 59.1726 70.057 60 69.9999C60.33 69.6699 60.66 69.3399 61 68.9999C60.9948 68.269 60.9897 67.5381 60.9844 66.7851C60.907 65.8866 60.8297 64.9881 60.75 64.0624C60.6495 62.7186 60.6495 62.7186 60.5469 61.3476C60.3664 60.5728 60.1859 59.7981 60 58.9999C59.5733 58.5397 59.1466 58.0795 58.707 57.6054C58.1437 57.4056 57.5804 57.2058 57 56.9999ZM94 57.9999C93.67 58.3299 93.34 58.6599 93 58.9999C92.9562 59.7308 92.9123 60.4617 92.8672 61.2148C92.8698 62.1132 92.8723 63.0117 92.875 63.9374C92.8724 64.8333 92.8698 65.7292 92.8672 66.6523C92.911 67.427 92.9548 68.2017 93 68.9999C93.33 69.6599 93.66 70.3199 94 70.9999C95.1137 71.0824 96.2275 71.1649 97.375 71.2499C98.0015 71.2267 98.628 71.2035 99.2734 71.1796C99.8432 71.1203 100.413 71.061 101 70.9999C101.66 70.7937 102.32 70.5874 103 70.3749C103.33 69.9212 103.66 69.4674 104 68.9999C103.979 68.0512 103.959 67.1024 103.938 66.1249C103.473 64.578 103.473 64.578 103 62.9999C102.423 62.2368 101.845 61.4737 101.25 60.6874C100.507 60.1305 99.765 59.5737 99 58.9999C98.1131 58.7318 97.2262 58.4637 96.3125 58.1874C95.1678 58.0946 95.1678 58.0946 94 57.9999ZM50 76.9999C49.9613 77.7682 49.9227 78.5365 49.8828 79.328C49.9215 80.2098 49.9602 81.0915 50 81.9999C50.6187 82.9074 51.2375 83.8149 51.875 84.7499C52.5763 85.4924 53.2775 86.2349 54 86.9999C54.66 87.3299 55.32 87.6599 56 87.9999C56.8906 88.0426 57.7812 88.0853 58.6987 88.1293C60.3909 88.131 60.3909 88.131 62.1172 88.1327C62.7296 88.1337 63.342 88.1346 63.9729 88.1356C64.9261 88.1361 64.9261 88.1361 65.8984 88.1366C66.8802 88.1335 66.8802 88.1335 67.8818 88.1303C68.5396 88.1285 69.1973 88.1267 69.875 88.1249C70.515 88.1267 71.155 88.1285 71.8145 88.1303C72.448 88.1324 73.0816 88.1345 73.7344 88.1366C74.6824 88.1374 74.6824 88.1374 75.6495 88.1381C76.5926 88.1354 76.5926 88.1354 77.5547 88.1327C78.1815 88.1274 78.8083 88.1221 79.4541 88.1166C80.0746 88.1077 80.695 88.0989 81.3342 88.0898C81.9444 88.0772 82.5545 88.0646 83.1831 88.0517C84.0825 88.026 84.0825 88.026 85 87.9999C85.59 87.9773 86.18 87.9548 86.7878 87.9315C87.3605 87.9038 87.9332 87.8761 88.5232 87.8476C89.5945 87.7767 90.6658 87.7058 91.7695 87.6327C92.7142 87.5671 93.6588 87.5016 94.6321 87.434C95.8042 87.2191 95.8042 87.2191 97 86.9999C97.8212 86.5085 97.8212 86.5085 98.6589 86.0072C99.0396 85.5923 99.4203 85.1774 99.8125 84.7499C100.204 83.8424 100.596 82.9349 101 81.9999C100.956 81.1299 100.913 80.2599 100.868 79.3635C100.582 78.5835 100.295 77.8035 100 76.9999C99.3339 76.8015 98.6678 76.6031 97.9816 76.3986C96.6525 76.4153 96.6525 76.4153 95.2966 76.4323C94.2957 76.4327 93.2947 76.433 92.2634 76.4334C91.1749 76.4592 90.0864 76.485 88.9648 76.5116C87.3023 76.5222 87.3023 76.5222 85.6061 76.5331C84.4618 76.5421 83.3176 76.5511 82.1387 76.5605C81.5518 76.57 80.9649 76.5795 80.3603 76.5893C79.7669 76.6003 79.1736 76.6113 78.5623 76.6227C77.9653 76.6339 77.3683 76.6451 76.7532 76.6566C76.154 76.6668 75.5548 76.6769 74.9375 76.6874C74.3377 76.6944 73.7378 76.7013 73.1198 76.7085C72.5217 76.714 71.9236 76.7195 71.3074 76.7253C70.4156 76.733 70.4156 76.733 69.5058 76.7408C68.918 76.7458 68.3302 76.7507 67.7246 76.7558C66.5807 76.7665 65.4368 76.7772 64.2582 76.7882C63.1508 76.8001 62.0433 76.8119 60.9023 76.8241C59.8118 76.8398 58.7212 76.8555 57.5976 76.8717C56.1009 76.8959 56.1009 76.8959 54.574 76.9206C53.2461 76.9432 53.2461 76.9432 51.8915 76.9663C51.2673 76.9774 50.6431 76.9885 50 76.9999ZM61 95.9999C60.67 96.6599 60.34 97.3199 60 97.9999C60.2733 98.5233 60.5466 99.0466 60.8281 99.5858C61.2973 100.176 61.7666 100.767 62.25 101.375C63.0756 102.299 63.0756 102.299 63.918 103.242C64.605 103.822 65.2921 104.402 66 105C66.883 105.456 67.766 105.913 68.6758 106.383C70.1047 106.936 70.1047 106.936 71.5625 107.5C72.4713 107.82 73.3801 108.139 74.3164 108.469C75.6448 108.732 75.6448 108.732 77 109C77.8263 108.956 78.6526 108.912 79.5039 108.867C80.3276 108.581 81.1513 108.295 82 108C82.8946 107.353 83.7892 106.706 84.7109 106.039C85.1505 105.65 85.5901 105.26 86.043 104.859C86.4825 104.452 86.9221 104.045 87.375 103.625C87.8378 103.225 88.3005 102.826 88.7773 102.414C89.2092 102.022 89.641 101.63 90.0859 101.226C90.7176 100.492 91.3492 99.7569 92 98.9999C91.67 98.0099 91.34 97.0199 91 95.9999C90.059 95.877 89.118 95.7542 88.1484 95.6276C87.5511 95.6214 86.9538 95.6151 86.3384 95.6087C85.6905 95.6179 85.0425 95.6271 84.375 95.6366C83.7129 95.6361 83.0508 95.6356 82.3687 95.6351C81.685 95.6363 81.0013 95.6374 80.2969 95.6386C79.5924 95.6469 78.8879 95.6552 78.1621 95.6637C77.4486 95.6715 76.7351 95.6794 76 95.6874C75.2865 95.6864 74.573 95.6853 73.8379 95.6842C73.1334 95.6821 72.4289 95.6799 71.7031 95.6776C71.0194 95.6804 70.3358 95.6833 69.6313 95.6861C68.9693 95.6904 68.3072 95.6947 67.625 95.6991C66.9771 95.6982 66.3292 95.6973 65.6616 95.6964C65.0643 95.7059 64.467 95.7154 63.8516 95.7253C62.9105 95.8159 61.9695 95.9065 61 95.9999Z" fill="black"/>
</g>
<defs>
<clipPath id="clip0_7_859">
<rect width="456" height="2405" fill="white" transform="translate(-152 -744)"/>
</clipPath>
</defs>
</svg>
