<svg width="152" height="167" viewBox="0 0 152 167" fill="none" xmlns="http://www.w3.org/2000/svg">
<g clip-path="url(#clip0_7_859)">
<path d="M45 23C45.5814 23.1018 46.1627 23.2037 46.7617 23.3086C47.5004 23.5368 48.239 23.7649 49 24C49.9378 24.6671 49.9378 24.6671 50.8945 25.3477C51.5275 25.9136 52.1604 26.4795 52.8125 27.0625C53.4377 27.6104 54.0629 28.1582 54.707 28.7227C55.8421 29.8499 55.8421 29.8499 57 31C57.5316 31.5599 58.0632 32.1199 58.6108 32.6968C59.1969 33.3421 59.7829 33.9875 60.3867 34.6523C61.291 35.6973 61.291 35.6973 62.2136 36.7634C62.8031 37.5015 63.3926 38.2396 64 39C64.5193 39.758 65.0385 40.5161 65.5735 41.2971C66.0649 42.0756 66.5562 42.8541 67.0625 43.6562C67.5498 44.4516 68.037 45.247 68.5391 46.0664C69.0212 46.8695 69.5033 47.6726 70 48.5C70.4821 49.3031 70.9642 50.1062 71.4609 50.9336C71.9482 51.7289 72.4355 52.5243 72.9375 53.3438C73.4261 54.1198 73.9146 54.8958 74.418 55.6953C74.94 56.4559 75.4621 57.2164 76 58C76.6149 58.7605 77.2298 59.5211 77.8633 60.3047C78.4859 61.0188 79.1085 61.733 79.75 62.4688C80.3223 63.1023 80.8947 63.7359 81.4844 64.3887C81.9845 64.9204 82.4847 65.4521 83 66C83.66 66.66 84.32 67.32 85 68C85.1573 68.7657 85.3145 69.5314 85.4766 70.3203C85.5255 71.2459 85.5745 72.1714 85.625 73.125C85.616 74.106 85.607 75.087 85.5977 76.0977C85.4004 77.0554 85.2032 78.0132 85 79C84.4212 79.8031 83.8424 80.6062 83.2461 81.4336C82.5255 82.1361 81.8049 82.8387 81.0625 83.5625C80.3316 84.1825 79.6007 84.8026 78.8477 85.4414C78.2379 85.9557 77.6282 86.4701 77 87C76.67 87.66 76.34 88.32 76 89C75.9678 90.1473 75.9355 91.2945 75.9023 92.4766C75.9072 93.482 75.9072 93.482 75.9121 94.5078C75.9205 95.2065 75.9289 95.9052 75.9375 96.625C75.942 97.3314 75.9465 98.0378 75.9512 98.7656C75.9557 99.4334 75.9602 100.101 75.9648 100.789C75.9764 101.849 75.988 102.908 76 104C77.3148 103.892 77.3148 103.892 78.6562 103.781C80.3114 103.395 80.3114 103.395 82 103C82.9178 102.33 83.8356 101.659 84.7812 100.969C85.2311 100.57 85.681 100.172 86.1445 99.7617C86.5918 99.3454 87.0391 98.929 87.5 98.5C87.9473 98.0836 88.3946 97.6673 88.8555 97.2383C89.3054 96.84 89.7552 96.4416 90.2188 96.0312C91.1366 95.3609 92.0544 94.6906 93 94C94.0622 93.7009 95.1244 93.4019 96.2188 93.0938C97.1366 93.0628 98.0544 93.0319 99 93C99.99 93.99 99.99 93.99 101 95C101.01 95.7206 101.021 96.4412 101.031 97.1836C100.691 98.113 100.351 99.0424 100 100C99.5849 100.545 99.1698 101.091 98.7422 101.653C98.2188 102.233 97.6955 102.813 97.1562 103.41C96.5684 104.008 95.9806 104.605 95.375 105.221C94.7563 105.828 94.1375 106.436 93.5 107.062C92.6183 107.98 92.6183 107.98 91.7188 108.916C91.1206 109.512 90.5225 110.108 89.9062 110.723C89.2914 111.295 88.6765 111.868 88.043 112.458C87.3688 112.967 86.6946 113.476 86 114C85.1711 114.379 84.3423 114.758 83.4883 115.148C82.6568 115.469 81.8254 115.79 80.9688 116.121C80.2152 116.427 79.4617 116.732 78.6853 117.047C77.8511 117.519 77.8511 117.519 77 118C76.9188 118.771 76.8376 119.542 76.7539 120.336C77.1651 121.215 77.5763 122.094 78 123C78.4215 124.044 78.843 125.088 79.2773 126.164C79.5389 126.724 79.8004 127.283 80.0698 127.859C80.3562 128.442 80.6425 129.025 80.9375 129.625C81.2367 130.236 81.5359 130.847 81.8442 131.477C82.1651 132.095 82.4859 132.714 82.8164 133.352C83.1607 133.965 83.5051 134.579 83.8599 135.212C84.2361 135.802 84.6124 136.392 85 137C85.4265 137.536 85.853 138.072 86.2925 138.624C86.7412 139.127 87.19 139.63 87.6523 140.148C88.103 140.632 88.5536 141.116 89.0178 141.615C89.4657 142.072 89.9136 142.529 90.375 143C90.8158 143.42 91.2566 143.84 91.7107 144.272C92.1233 144.677 92.5359 145.082 92.9609 145.5C93.9703 146.737 93.9703 146.737 95 148C95.3906 149.64 95.3906 149.64 95.7891 151.312C95.8935 152.643 95.8935 152.643 96 154C95.01 153.67 94.02 153.34 93 153C92.358 152.719 91.7161 152.438 91.0547 152.148C90.3766 151.769 89.6986 151.39 89 151C88.0448 150.246 88.0448 150.246 87.0703 149.477C86.4284 148.866 85.7864 148.255 85.125 147.625C84.4611 146.921 83.7973 146.217 83.1133 145.492C82.4159 144.67 81.7185 143.847 81 143C80.4303 142.283 80.4303 142.283 79.8491 141.552C79.4593 141.042 79.0696 140.533 78.668 140.008C78.2779 139.478 77.8879 138.948 77.4861 138.402C77.0988 137.857 76.7115 137.312 76.3125 136.75C75.9323 136.198 75.5521 135.647 75.1604 135.079C74.7929 134.522 74.4255 133.965 74.0469 133.391C73.6956 132.831 73.3443 132.27 72.9824 131.693C72.4961 130.855 72.4961 130.855 72 130C71.7196 129.446 71.4393 128.893 71.1504 128.322C70.8997 127.778 70.6489 127.233 70.3906 126.672C69.9523 125.625 69.5141 124.578 69.0625 123.5C68.7029 122.562 68.3432 121.623 67.9727 120.656C67.6517 119.78 67.3307 118.903 67 118C66.6275 117.123 66.2549 116.247 65.8711 115.344C65.5836 114.57 65.2962 113.797 65 113C65 112.01 65 111.02 65 110C64.2781 109.857 63.5562 109.714 62.8125 109.566C61.8844 109.379 60.9563 109.193 60 109C59.175 108.411 58.35 107.822 57.5 107.215C56.2625 106.088 56.2625 106.088 55 104.938C54.3486 104.335 54.3486 104.335 53.6841 103.719C53.2547 103.309 52.8252 102.899 52.3828 102.477C51.5965 101.659 50.8102 100.842 50 100C49.4199 99.2859 48.8398 98.5717 48.2422 97.8359C47.791 97.1682 47.3398 96.5005 46.875 95.8125C46.5076 95.1693 46.1402 94.526 45.7617 93.8633C45.5104 93.2484 45.259 92.6335 45 92C44.9033 91.3954 44.8066 90.7909 44.707 90.168C44.7006 89.6175 44.6941 89.0671 44.6875 88.5C44.7906 87.675 44.8937 86.85 45 86C46.0119 86.0812 47.0238 86.1624 48.0664 86.2461C48.7059 86.3375 49.3455 86.4288 50.0044 86.5229C50.9922 86.7591 50.9922 86.7591 52 87C52.5928 87.2747 53.1856 87.5495 53.7964 87.8325C54.3676 88.1675 54.9388 88.5025 55.5273 88.8477C56.3733 89.3842 56.3733 89.3842 57.2363 89.9316C57.7977 90.3048 58.3591 90.678 58.9375 91.0625C59.526 91.4396 60.1144 91.8166 60.7207 92.2051C61.2756 92.5615 61.8306 92.9179 62.4023 93.2852C63.2596 93.8511 64.1168 94.417 65 95C65.0105 94.506 65.0209 94.0119 65.0317 93.5029C65.0445 92.8162 65.0572 92.1294 65.0703 91.4219C65.0793 90.6729 65.0884 89.924 65.0977 89.1523C65.1067 88.3596 65.1157 87.5668 65.125 86.75C65.1418 85.9727 65.1585 85.1954 65.1758 84.3945C65.1822 83.6404 65.1887 82.8863 65.1953 82.1094C65.1856 81.3837 65.176 80.6581 65.166 79.9104C65.1112 79.28 65.0564 78.6495 65 78C64.6623 77.2304 64.3245 76.4609 63.9766 75.668C63.6543 75.1175 63.332 74.5671 63 74C63.0825 72.8656 63.165 71.7313 63.25 70.5625C63.3377 70.0069 63.4253 69.4513 63.5156 68.8789C63.7554 67.9488 63.7554 67.9488 64 67C64.4099 66.2498 64.8198 65.4995 65.2422 64.7266C65.4923 63.8268 65.7423 62.927 66 62C65.8698 61.4691 65.7396 60.9383 65.6055 60.3914C65.3618 59.8149 65.1182 59.2385 64.8672 58.6445C64.5611 58.0307 64.255 57.4169 63.9397 56.7844C63.5883 56.1337 63.237 55.483 62.875 54.8125C62.5204 54.1263 62.1659 53.4401 61.8005 52.7332C61.4191 52.0168 61.0376 51.3005 60.6445 50.5625C60.0193 49.4526 60.0193 49.4526 59.3813 48.3203C58.9255 47.5546 58.4697 46.7889 58 46C57.4887 45.2008 56.9775 44.4016 56.4507 43.5781C55.914 42.7686 55.3772 41.9591 54.8242 41.125C54.2849 40.3222 53.7456 39.5193 53.1899 38.6921C52.6529 37.9069 52.1158 37.1216 51.5625 36.3125C51.0306 35.5588 50.4987 34.8051 49.9507 34.0286C49.4526 33.314 48.9546 32.5995 48.4414 31.8633C47.9917 31.1964 47.542 30.5294 47.0786 29.8423C46.7227 29.2343 46.3667 28.6264 46 28C45.7203 27.0036 45.4405 26.0071 45.1523 24.9805C45.1021 24.3269 45.0518 23.6734 45 23Z" fill="black"/>
</g>
<defs>
<clipPath id="clip0_7_859">
<rect width="456" height="2405" fill="white" transform="translate(0 -1257)"/>
</clipPath>
</defs>
</svg>
