<svg width="152" height="182" viewBox="0 0 152 182" fill="none" xmlns="http://www.w3.org/2000/svg">
<g clip-path="url(#clip0_7_859)">
<path d="M43 152C45.475 152.495 45.475 152.495 48 153C48.66 153.66 49.32 154.32 50 155C50.1225 155.991 50.2449 156.983 50.3711 158.004C50.3872 158.579 50.4033 159.155 50.4199 159.748C50.4257 160.347 50.4315 160.946 50.4375 161.562C50.4868 162.466 50.4868 162.466 50.5371 163.389C50.5442 163.963 50.5513 164.537 50.5586 165.129C50.3743 166.076 50.1899 167.024 50 168C48.35 168.33 46.7 168.66 45 169C44.34 163.39 43.68 157.78 43 152Z" fill="black"/>
<path d="M91 148C91.7425 147.897 92.485 147.794 93.25 147.688C94.1575 147.791 95.065 147.894 96 148C96.7631 148.722 97.5263 149.444 98.3125 150.188C98.8694 151.116 99.4262 152.044 100 153C100.124 154.392 100.124 154.392 100.25 155.812C100.167 156.534 100.085 157.256 100 158C98.3294 158.124 98.3294 158.124 96.625 158.25C95.9869 158.247 95.3488 158.245 94.6914 158.242C94.1332 158.162 93.5751 158.082 93 158C92.5256 157.464 92.0513 156.928 91.5625 156.375C91.2841 155.199 91.2841 155.199 91 154C90.9587 152.928 90.9175 151.855 90.875 150.75C90.9163 149.842 90.9575 148.935 91 148Z" fill="black"/>
<path d="M50 118C50.6497 118.385 50.6497 118.385 51.3125 118.777C51.8694 119.16 52.4262 119.543 53 119.938C53.5427 120.385 54.0854 120.832 54.6445 121.293C55.0918 121.856 55.5391 122.42 56 123C56.1895 123.759 56.379 124.519 56.5742 125.301C56.6116 126.109 56.649 126.917 56.6875 127.75C56.6359 128.52 56.5844 129.289 56.5312 130.082C56.2683 131.031 56.2683 131.031 56 132C55.2369 132.474 54.4737 132.949 53.6875 133.438C52.3572 133.221 52.3572 133.221 51 133C50.3813 132.196 49.7625 131.391 49.125 130.562C48.8955 130.013 48.6661 129.464 48.4297 128.898C48.2879 128.272 48.1461 127.645 48 127C48.0026 126.291 48.0052 125.582 48.0078 124.852C48.1277 123.78 48.1277 123.78 48.25 122.688C48.3583 122.011 48.4666 121.334 48.5781 120.637C48.7173 120.097 48.8566 119.556 49 119C49.33 118.67 49.66 118.34 50 118Z" fill="black"/>
<path d="M90 117C90.99 117.041 91.98 117.082 93 117.125C93.99 117.414 94.98 117.702 96 118C96.4538 118.412 96.9075 118.825 97.375 119.25C97.5812 119.827 97.7875 120.405 98 121C98.2784 122.176 98.2784 122.176 98.5625 123.375C98.3769 124.241 98.1912 125.108 98 126C97.5063 126.473 97.0126 126.946 96.5039 127.434C95.8839 127.889 95.2638 128.344 94.625 128.812C93.9985 129.231 93.372 129.65 92.7266 130.082C92.1568 130.385 91.587 130.688 91 131C90.34 131 89.68 131 89 131C88.67 130.34 88.34 129.68 88 129C87.9446 128.321 87.8891 127.641 87.832 126.941C87.8256 126.156 87.8191 125.371 87.8125 124.562C87.7983 123.78 87.7841 122.998 87.7695 122.191C87.8456 121.468 87.9216 120.745 88 120C88.272 119.408 88.544 118.817 88.8242 118.207C89.2122 117.809 89.6002 117.41 90 117Z" fill="black"/>
<path d="M39 15C39.6206 15.0789 40.2412 15.1577 40.8806 15.239C41.9897 15.606 41.9897 15.606 43.1211 15.9805C44.3293 16.4201 44.3293 16.4201 45.562 16.8687C46.3665 17.242 47.1711 17.6153 48 18C48.695 18.4546 49.3899 18.9091 50.106 19.3774C51.0918 20.1439 51.0918 20.1439 52.0977 20.9258C52.7544 21.4756 53.4112 22.0254 54.0879 22.5918C54.7395 23.1596 55.3911 23.7275 56.0625 24.3125C56.718 24.8687 57.3735 25.425 58.0488 25.998C58.7043 26.5517 59.3598 27.1054 60.0352 27.6758C60.685 28.2219 61.3349 28.7679 62.0044 29.3306C62.6629 29.8815 63.3215 30.4324 64 31C64.6934 31.5909 65.3867 32.1817 66.1011 32.7905C66.7883 33.3482 67.4755 33.9059 68.1836 34.4805C68.8451 34.9653 69.5067 35.4502 70.1882 35.9497C71.0851 36.4696 71.0851 36.4696 72 37C73.3071 37.0638 73.3071 37.0638 74.6406 37.1289C75.4192 36.7564 76.1978 36.3838 77 36C77.9023 35.4109 78.8047 34.8218 79.7344 34.2148C80.2179 33.8525 80.7015 33.4902 81.1997 33.1169C81.7113 32.7277 82.2229 32.3385 82.75 31.9375C83.2964 31.5399 83.8428 31.1423 84.4058 30.7327C84.986 30.3259 85.5662 29.9191 86.1641 29.5C86.7741 29.0862 87.3842 28.6724 88.0127 28.2461C88.9964 27.6293 88.9964 27.6293 90 27C90.7306 26.6017 91.4612 26.2034 92.2139 25.793C92.976 25.4075 93.7382 25.0221 94.5234 24.625C95.2869 24.2564 96.0503 23.8878 96.8369 23.5081C97.9695 22.9781 97.9695 22.9781 99.125 22.4375C99.8594 22.0913 100.594 21.7451 101.351 21.3884C102.042 21.0733 102.733 20.7582 103.445 20.4336C104.059 20.1557 104.673 19.8778 105.305 19.5916C105.864 19.3963 106.424 19.2011 107 19C107.99 19 108.98 19 110 19C110.307 19.5994 110.614 20.1988 110.93 20.8164C110.953 21.537 110.976 22.2576 111 23C110.508 23.4834 110.015 23.9668 109.508 24.4648C108.328 25.1938 108.328 25.1938 107.125 25.9375C105.764 26.8231 105.764 26.8231 104.375 27.7266C103.85 28.0711 103.326 28.4156 102.785 28.7705C102.196 29.1762 101.607 29.582 101 30C100.313 30.514 99.6259 31.028 98.918 31.5576C98.1819 32.1238 97.4459 32.6901 96.6875 33.2734C95.9358 33.8549 95.1841 34.4363 94.4097 35.0354C93.2788 35.9151 93.2788 35.9151 92.125 36.8125C91.3878 37.388 90.6506 37.9635 89.8911 38.5564C89.1871 39.1011 88.4831 39.6458 87.7578 40.207C86.8164 40.9414 86.8164 40.9414 85.856 41.6907C85.2435 42.1228 84.631 42.5548 84 43C82.9261 43.5145 82.9261 43.5145 81.8306 44.0393C81.2265 44.3563 80.6224 44.6734 80 45C79.6545 45.7141 79.3091 46.4283 78.9531 47.1641C78.7211 47.9762 78.4891 48.7883 78.25 49.625C78.0077 50.4423 77.7653 51.2595 77.5156 52.1016C77.3455 52.728 77.1753 53.3545 77 54C77.6226 53.9368 78.2452 53.8737 78.8867 53.8086C80.2731 53.6249 80.2731 53.6249 81.6875 53.4375C82.769 53.2635 83.8505 53.0895 84.9648 52.9102C85.5912 52.784 86.2175 52.6578 86.8628 52.5278C87.5681 52.3536 88.2733 52.1795 89 52C89.8252 51.742 90.6503 51.4841 91.5005 51.2183C92.3885 50.9181 93.2765 50.6179 94.1914 50.3086C95.1064 49.9941 96.0214 49.6797 96.9641 49.3557C97.8835 49.0321 98.8028 48.7084 99.75 48.375C100.636 48.0494 101.523 47.7239 102.436 47.3884C103.298 47.0824 104.159 46.7763 105.047 46.4609C105.88 46.1886 106.714 45.9163 107.572 45.6357C108.373 45.4259 109.175 45.2162 110 45C110.775 44.8959 111.551 44.7918 112.35 44.6846C113.064 44.6572 113.779 44.6298 114.516 44.6016C115.142 44.5972 115.769 44.5929 116.415 44.5884C116.938 44.7242 117.461 44.86 118 45C118.402 45.5032 118.804 46.0064 119.218 46.5249C119.476 47.0117 119.734 47.4985 120 48C119.579 48.3066 119.158 48.6131 118.725 48.929C118.104 49.3507 117.483 49.7725 116.844 50.207C116.112 50.6642 115.379 51.1213 114.625 51.5923C113.759 52.0568 112.892 52.5214 112 53C110.989 53.404 109.979 53.8079 108.938 54.2241C108.395 54.4174 107.852 54.6107 107.293 54.8098C106.732 55.0002 106.172 55.1906 105.594 55.3867C105.021 55.5775 104.448 55.7683 103.857 55.9649C103.274 56.155 102.691 56.3451 102.09 56.541C101.499 56.7296 100.909 56.9182 100.3 57.1125C99.7062 57.3023 99.1121 57.492 98.5 57.6875C97.6089 57.9801 97.6089 57.9801 96.6997 58.2786C96.1092 58.4735 95.5186 58.6683 94.9102 58.8691C94.3269 59.06 93.7437 59.2509 93.1428 59.4475C92.5698 59.6337 91.9967 59.8199 91.4062 60.0117C90.8454 60.1925 90.2846 60.3733 89.7068 60.5595C89.1642 60.7312 88.6216 60.9028 88.0625 61.0796C86.5466 61.5352 86.5466 61.5352 85 62C84.1338 62.2122 83.2675 62.4244 82.375 62.6431C81.2767 62.8913 81.2767 62.8913 80.1562 63.1445C79.1147 63.4268 78.0731 63.7091 77 64C77 64.66 77 65.32 77 66C77.4873 66.0142 77.9745 66.0284 78.4766 66.043C79.1855 66.0907 79.8945 66.1384 80.625 66.1875C81.8509 66.3287 81.8509 66.3287 83.1016 66.4727C84.058 66.6467 85.0145 66.8207 86 67C86.5462 67.1403 87.0925 67.2807 87.6553 67.4253C88.2305 67.593 88.8058 67.7608 89.3984 67.9336C90.2832 68.2157 90.2832 68.2157 91.1858 68.5034C92.0838 68.8111 92.0838 68.8111 93 69.125C93.6006 69.3404 94.2012 69.5559 94.8201 69.7778C95.4118 70.0071 96.0036 70.2364 96.6133 70.4727C97.189 70.7165 97.7647 70.9602 98.3579 71.2114C98.8998 71.4717 99.4417 71.7319 100 72C100.922 72.5762 101.843 73.1524 102.793 73.7461C103.583 74.3455 104.373 74.9449 105.188 75.5625C105.862 76.1207 106.536 76.6788 107.23 77.2539C107.814 77.8301 108.398 78.4063 109 79C109.523 79.5518 110.046 80.1036 110.585 80.6721C111.052 81.4403 111.519 82.2085 112 83C112.127 84.053 112.254 85.106 112.385 86.1909C112.395 86.7956 112.405 87.4003 112.416 88.0233C112.413 88.673 112.409 89.3228 112.406 89.9922C112.416 90.6825 112.426 91.3727 112.436 92.0839C112.446 92.8071 112.457 93.5303 112.467 94.2754C112.475 95.4004 112.475 95.4004 112.483 96.5481C112.488 97.316 112.494 98.0839 112.5 98.875C112.511 99.649 112.522 100.423 112.533 101.22C112.554 102.394 112.554 102.394 112.576 103.592C112.6 104.777 112.6 104.777 112.625 105.986C112.643 106.782 112.661 107.578 112.68 108.398C112.708 109.603 112.708 109.603 112.736 110.832C112.758 111.632 112.781 112.432 112.804 113.257C112.832 114.049 112.859 114.841 112.888 115.657C112.943 116.817 112.943 116.817 113 118C113.052 118.739 113.105 119.477 113.159 120.238C113.22 120.954 113.282 121.67 113.345 122.407C113.411 123.107 113.478 123.806 113.546 124.527C113.616 125.212 113.686 125.896 113.758 126.602C113.828 127.276 113.898 127.95 113.97 128.645C114.041 129.305 114.112 129.965 114.186 130.645C114.258 131.289 114.33 131.934 114.404 132.598C114.477 133.225 114.55 133.853 114.625 134.5C114.7 135.109 114.774 135.718 114.851 136.345C114.96 137.234 114.96 137.234 115.072 138.14C115.206 139.28 115.339 140.42 115.477 141.594C115.645 143.202 115.645 143.202 115.817 144.844C115.878 145.885 115.938 146.927 116 148C115.932 149.624 115.932 149.624 115.862 151.281C115.771 152.292 115.68 153.303 115.586 154.344C115.481 155.243 115.375 156.142 115.267 157.068C115.179 157.706 115.091 158.343 115 159C114.21 158.913 113.419 158.826 112.605 158.737C111.745 158.494 110.886 158.251 110 158C109.648 157.482 109.295 156.965 108.932 156.431C108.732 155.698 108.531 154.966 108.324 154.211C107.981 152.853 107.981 152.853 107.63 151.468C107.472 150.664 107.472 150.664 107.31 149.844C107.207 149.236 107.105 148.627 107 148C106.899 147.29 106.798 146.579 106.694 145.847C106.596 145.07 106.498 144.294 106.397 143.493C106.302 142.672 106.207 141.85 106.109 141.004C106.018 140.149 105.926 139.295 105.832 138.414C105.745 137.545 105.659 136.676 105.569 135.78C105.485 134.895 105.401 134.01 105.314 133.098C105.232 132.199 105.15 131.301 105.065 130.375C104.94 129.014 104.94 129.014 104.812 127.625C104.724 126.707 104.635 125.788 104.544 124.842C104.455 123.931 104.367 123.021 104.275 122.082C104.19 121.194 104.105 120.306 104.017 119.39C103.935 118.532 103.854 117.674 103.77 116.789C103.691 115.966 103.613 115.143 103.533 114.295C103.463 113.527 103.392 112.759 103.32 111.967C103.227 110.96 103.227 110.96 103.132 109.932C103.088 109.295 103.045 108.657 103 108C102.993 107.258 102.987 106.516 102.98 105.752C102.987 105.174 102.993 104.596 103 104C102.283 104.161 101.567 104.322 100.829 104.487C99.8359 104.713 98.8431 104.939 97.8203 105.172C96.7465 105.425 95.6727 105.677 94.5664 105.938C93.7197 106.139 93.7197 106.139 92.856 106.344C91.9991 106.545 91.9991 106.545 91.125 106.75C90.5573 106.877 89.9897 107.004 89.4048 107.135C88.5644 107.323 88.5644 107.323 87.707 107.516C86.6307 107.773 85.5543 108.031 84.4453 108.297C82.9528 108.643 82.9528 108.643 81.4302 108.995C80.6282 109.327 79.8263 109.658 79 110C78.567 110.651 78.1339 111.301 77.6877 111.972C77.4608 112.641 77.2338 113.31 77 114C76.8518 114.712 76.7035 115.423 76.5508 116.156C76.4721 116.93 76.3935 117.703 76.3125 118.5C76.2377 119.391 76.163 120.281 76.0859 121.199C76.0434 122.586 76.0434 122.586 76 124C76.0541 124.852 76.1083 125.704 76.1641 126.582C76.2543 127.483 76.3445 128.384 76.4375 129.312C76.5864 130.807 76.5864 130.807 76.7383 132.332C76.7855 132.896 76.8327 133.46 76.8813 134.042C76.9205 134.688 76.9597 135.334 77 136C77.0224 136.789 77.0448 137.579 77.0679 138.392C77.0803 139.257 77.0927 140.121 77.1055 141.012C77.1116 141.908 77.1177 142.804 77.124 143.728C77.1243 144.642 77.1247 145.557 77.125 146.5C77.1215 147.411 77.1179 148.322 77.1143 149.261C77.1022 150.599 77.1022 150.599 77.0898 151.965C77.0768 152.828 77.0637 153.692 77.0503 154.582C77.0337 155.38 77.0171 156.178 77 157C76.9821 157.678 76.9642 158.356 76.9458 159.055C76.9237 159.657 76.9017 160.259 76.8789 160.879C76.8157 161.929 76.7526 162.98 76.6875 164.062C76.6005 165.379 76.6005 165.379 76.5117 166.723C76.3429 167.474 76.174 168.226 76 169C75.5321 169.762 75.0641 170.524 74.582 171.309C73.7989 172.146 73.7989 172.146 73 173C72.34 173 71.68 173 71 173C70.7328 172.212 70.4655 171.423 70.1902 170.611C69.9457 169.521 69.7011 168.431 69.4492 167.309C69.3198 166.721 69.1904 166.134 69.0571 165.528C68.9304 164.925 68.8038 164.321 68.6733 163.699C68.555 163.081 68.4368 162.463 68.3149 161.827C68.159 160.923 68.159 160.923 68 160C67.859 158.928 67.718 157.855 67.5728 156.75C67.4727 155.71 67.3726 154.67 67.2695 153.598C67.1888 152.533 67.1081 151.468 67.0249 150.37C66.9198 148.733 66.9198 148.733 66.8125 147.062C66.7726 146.491 66.7328 145.92 66.6917 145.331C66.6512 144.75 66.6106 144.168 66.5688 143.569C66.53 142.984 66.4911 142.398 66.4511 141.795C66.4144 141.208 66.3777 140.621 66.3398 140.016C66.2898 139.139 66.2898 139.139 66.2388 138.245C66.1938 137.372 66.1938 137.372 66.1479 136.482C66.0991 135.333 66.0503 134.184 66 133C65.9596 131.326 65.9596 131.326 65.9185 129.619C65.9054 128.543 65.8924 127.468 65.8789 126.359C65.8746 125.337 65.8704 124.315 65.866 123.261C65.8689 122.288 65.8719 121.315 65.875 120.312C65.8862 118.896 65.8862 118.896 65.8977 117.451C65.9083 116.597 65.9188 115.743 65.9297 114.863C65.9424 114.113 65.9551 113.364 65.9683 112.591C65.9787 112.066 65.9892 111.541 66 111C65.4671 111.017 64.9341 111.035 64.385 111.053C63.6405 111.066 62.896 111.08 62.1289 111.094C61.3066 111.094 60.4844 111.094 59.6372 111.094C58.7669 111.063 57.8967 111.032 57 111C56.1671 110.907 55.3342 110.814 54.4761 110.719C53.233 110.533 53.233 110.533 51.9648 110.344C51.1366 110.208 50.3084 110.073 49.4551 109.934C48.6243 109.791 47.7935 109.647 46.9375 109.5C46.0719 109.357 45.2063 109.214 44.3145 109.066C43.4978 108.931 42.6812 108.796 41.8398 108.656C41.1011 108.531 40.3624 108.405 39.6013 108.275C39.0729 108.185 38.5444 108.094 38 108C38.33 108.99 38.66 109.98 39 111C39.067 112.022 39.1341 113.044 39.2031 114.098C39.2155 114.722 39.2279 115.346 39.2407 115.99C39.2438 116.674 39.2468 117.358 39.25 118.062C39.2518 118.783 39.2535 119.503 39.2554 120.245C39.2411 121.413 39.2411 121.413 39.2266 122.605C39.2011 123.449 39.1756 124.293 39.1494 125.162C39.1001 126.098 39.0508 127.035 39 128C38.912 129.087 38.824 130.175 38.7334 131.295C38.6804 131.869 38.6274 132.442 38.5728 133.033C38.5152 133.616 38.4577 134.2 38.3984 134.801C38.3377 135.384 38.2769 135.968 38.2144 136.569C38.151 137.154 38.0877 137.739 38.0225 138.342C37.957 138.926 37.8915 139.51 37.8241 140.112C37.7584 140.694 37.6927 141.276 37.625 141.875C37.499 143.022 37.373 144.17 37.2432 145.352C37.1139 146.429 36.9847 147.507 36.8516 148.617C36.7364 149.583 36.6211 150.548 36.5024 151.542C36.3366 152.353 36.1708 153.164 36 154C35.5405 154.909 35.5405 154.909 35.0718 155.836C34.7181 156.22 34.3644 156.604 34 157C33.34 157 32.68 157 32 157C31.7118 155.88 31.7118 155.88 31.4177 154.737C31.3442 154.185 31.2706 153.632 31.1948 153.063C31.1305 152.382 31.0662 151.701 31 151C30.9088 149.754 30.9088 149.754 30.8157 148.482C30.7587 147.54 30.7016 146.598 30.6428 145.628C30.5893 144.603 30.5358 143.578 30.4806 142.522C30.3993 140.881 30.3993 140.881 30.3164 139.207C30.2258 137.494 30.2258 137.494 30.1333 135.747C30.1021 135.161 30.0709 134.575 30.0388 133.971C30.0073 133.377 29.9758 132.782 29.9434 132.17C29.9119 131.568 29.8804 130.966 29.848 130.346C29.8166 129.739 29.7851 129.133 29.7527 128.508C29.7212 127.898 29.6897 127.288 29.6572 126.66C29.6103 125.746 29.6103 125.746 29.5625 124.812C29.5319 124.206 29.5013 123.599 29.4697 122.974C29.4394 122.37 29.409 121.767 29.3777 121.144C29.3474 120.543 29.3171 119.943 29.2859 119.324C29.2401 118.428 29.2401 118.428 29.1934 117.514C29.1462 116.622 29.1462 116.622 29.098 115.713C29.0665 115.125 29.0349 114.537 29.0024 113.932C28.941 112.785 28.8797 111.638 28.8164 110.457C28.7642 109.373 28.7121 108.29 28.6583 107.173C28.6017 106.132 28.545 105.091 28.4866 104.019C28.4208 103.017 28.3551 102.016 28.2874 100.984C28.1451 99.5071 28.1451 99.5071 28 98C27.7585 96.4734 27.7585 96.4734 27.5122 94.9159C27.2411 93.4545 27.2411 93.4545 26.9646 91.9636C26.7892 91.1 26.6139 90.2365 26.4332 89.3467C26.2903 88.5723 26.1473 87.7979 26 87C25.9337 86.3227 25.8674 85.6454 25.7991 84.9476C25.7829 84.3461 25.7667 83.7447 25.75 83.125C25.8325 82.0938 25.915 81.0625 26 80C26.2552 79.1737 26.5105 78.3474 26.7734 77.4961C27.1782 76.6724 27.583 75.8487 28 75C28.5749 74.4521 29.1498 73.9043 29.7422 73.3398C30.446 72.8771 31.1498 72.4143 31.875 71.9375C32.6807 71.4373 33.4863 70.9372 34.3164 70.4219C35.202 69.9527 36.0876 69.4834 37 69C37.9371 68.5927 38.8743 68.1853 39.8398 67.7656C41.3113 67.232 41.3113 67.232 42.8125 66.6875C43.8154 66.3755 44.8183 66.0636 45.8516 65.7422C46.8905 65.4973 47.9295 65.2523 49 65C50.1215 64.8582 51.243 64.7164 52.3984 64.5703C53.4838 64.4852 54.5692 64.4002 55.6875 64.3125C56.6814 64.2674 57.6752 64.2223 58.6992 64.1758C59.8381 64.0888 59.8381 64.0888 61 64C61.33 63.67 61.66 63.34 62 63C61.4057 62.7285 60.8115 62.457 60.1992 62.1772C59.3704 61.7965 58.5415 61.4157 57.6875 61.0234C56.3204 60.3873 56.3204 60.3873 54.9258 59.7383C53.9603 59.2884 52.9948 58.8385 52 58.375C51.0654 57.9483 50.1309 57.5216 49.168 57.082C48.2463 56.6502 47.3246 56.2184 46.375 55.7734C45.4627 55.329 44.5503 54.8845 43.6104 54.4265C42.3182 53.7204 42.3182 53.7204 41 53C40.2391 52.4654 39.4783 51.9309 38.6943 51.3801C37.6623 50.579 37.6623 50.579 36.6094 49.7617C35.9771 49.2612 35.3448 48.7608 34.6934 48.2451C34.1346 47.8342 33.5757 47.4233 33 47C31.7084 46.4721 31.7084 46.4721 30.3906 45.9336C29.6842 45.7699 28.9778 45.6062 28.25 45.4375C27.5049 45.2184 26.7598 44.9992 25.9922 44.7734C25.0061 44.3906 25.0061 44.3906 24 44C23.5076 43.621 23.0152 43.242 22.5078 42.8516C22.134 42.4262 21.7602 42.0008 21.375 41.5625C20.9212 40.7169 20.4675 39.8712 20 39C19.9381 38.2575 19.8762 37.515 19.8125 36.75C20.2044 36.1725 20.5962 35.595 21 35C22.4541 34.5359 22.4541 34.5359 23.9375 34.0625C24.5691 34.0122 25.2008 33.962 25.8516 33.9102C26.915 33.9546 26.915 33.9546 28 34C28.7709 34.1225 29.5417 34.2449 30.3359 34.3711C31.1532 34.5786 31.9705 34.7862 32.8125 35C33.6697 35.2836 34.527 35.5672 35.4102 35.8594C36.2648 36.2358 37.1195 36.6122 38 37C38.7825 37.5002 39.5649 38.0003 40.3711 38.5156C41.1561 39.088 41.9412 39.6603 42.75 40.25C43.5595 40.8571 44.3691 41.4643 45.2031 42.0898C46.1261 42.7202 47.0491 43.3505 48 44C48.5846 44.3211 49.1692 44.6423 49.7715 44.9731C50.3986 45.2927 51.0257 45.6122 51.6719 45.9414C52.3051 46.255 52.9384 46.5685 53.5908 46.8916C54.2208 47.1955 54.8509 47.4994 55.5 47.8125C56.112 48.1022 56.724 48.3919 57.3545 48.6904C57.9284 48.964 58.5024 49.2376 59.0938 49.5195C60.0528 50.0081 61.0119 50.4966 62 51C62.66 51.66 63.32 52.32 64 53C64.2062 52.2781 64.4125 51.5562 64.625 50.8125C64.8106 49.4203 64.8106 49.4203 65 48C64.7631 47.1806 64.5263 46.3613 64.2822 45.5171C63.8591 44.6865 63.436 43.8558 63 43C62.3809 42.4555 61.7619 41.9111 61.124 41.3501C60.3767 40.8762 59.6294 40.4023 58.8594 39.9141C58.0357 39.3752 57.212 38.8364 56.3633 38.2812C55.5009 37.7347 54.6385 37.1881 53.75 36.625C52.4796 35.8168 52.4796 35.8168 51.1836 34.9922C50.3547 34.4508 49.5259 33.9094 48.6719 33.3516C47.8694 32.8075 47.067 32.2634 46.2402 31.7029C45.501 31.1409 44.7617 30.579 44 30C43.369 29.3871 42.738 28.7743 42.0879 28.1428C41.5484 27.5324 41.0089 26.9219 40.4531 26.293C39.9958 25.7415 39.5385 25.19 39.0674 24.6218C38.7151 24.0866 38.3629 23.5514 38 23C37.67 21.9069 37.34 20.8138 37 19.6875C37 18.8006 37 17.9137 37 17C37.66 16.34 38.32 15.68 39 15ZM50 73C48.7664 73.2475 48.7664 73.2475 47.5078 73.5C46.8246 73.7269 46.1414 73.9537 45.4375 74.1875C44.8278 74.4608 44.218 74.7341 43.5898 75.0156C43.0652 75.3405 42.5405 75.6653 42 76C41.175 76.8044 40.35 77.6087 39.5 78.4375C39.005 79.2831 38.51 80.1288 38 81C37.9691 81.7129 37.9381 82.4257 37.9062 83.1602C37.9372 83.7673 37.9681 84.3745 38 85C38.6653 84.9499 39.3306 84.8998 40.0161 84.8481C41.4042 84.7416 41.4042 84.7416 42.8203 84.6328C43.8309 84.5516 44.8416 84.4704 45.8828 84.3867C46.9527 84.3004 48.0227 84.214 49.125 84.125C50.1717 84.0464 51.2184 83.9677 52.2969 83.8867C53.3152 83.8029 54.3336 83.7191 55.3828 83.6328C56.8509 83.4941 56.8509 83.4941 58.3486 83.3525C59.2236 83.2362 60.0985 83.1199 61 83C61.6867 82.8295 62.3735 82.659 63.0811 82.4834C63.6292 82.3007 64.1774 82.1179 64.7422 81.9297C65.4873 81.6229 66.2323 81.3161 67 81C66.8969 80.0512 66.7938 79.1025 66.6875 78.125C66.3472 76.5781 66.3472 76.5781 66 75C65.6184 74.612 65.2369 74.224 64.8438 73.8242C64.2353 73.5522 63.6269 73.2802 63 73C62.0577 72.9007 61.1154 72.8015 60.1445 72.6992C58.4952 72.6934 58.4952 72.6934 56.8125 72.6875C56.2331 72.6924 55.6538 72.6973 55.0569 72.7024C54.1895 72.726 54.1895 72.726 53.3047 72.75C52.2141 72.8325 51.1236 72.915 50 73ZM76 75C75.8144 76.0931 75.6287 77.1862 75.4375 78.3125C75.4427 78.9506 75.4478 79.5887 75.4531 80.2461C75.6336 80.8249 75.8141 81.4037 76 82C76.5105 82.3622 77.0209 82.7245 77.5469 83.0977C78.2533 83.3542 78.9597 83.6107 79.6875 83.875C80.8979 84.1902 80.8979 84.1902 82.1328 84.5117C83.5521 84.7534 83.5521 84.7534 85 85C85.5617 85.0691 86.1234 85.1383 86.7021 85.2095C87.5882 85.3011 87.5882 85.3011 88.4922 85.3945C89.083 85.4469 89.6738 85.4993 90.2825 85.5532C91.1636 85.6197 91.1636 85.6197 92.0625 85.6875C93.1879 85.7532 94.3132 85.819 95.4727 85.8867C96.3067 85.9241 97.1407 85.9615 98 86C98 85.01 98 84.02 98 83C97.5269 82.5772 97.0538 82.1544 96.5664 81.7188C95.9051 81.3166 95.2438 80.9144 94.5625 80.5C93.8355 80.0733 93.1084 79.6466 92.3594 79.207C91.5808 78.8087 90.8022 78.4104 90 78C89.2214 77.6739 88.4428 77.3477 87.6406 77.0117C86.4882 76.6037 86.4882 76.6037 85.3125 76.1875C84.5674 75.958 83.8223 75.7286 83.0547 75.4922C82.0376 75.2486 82.0376 75.2486 81 75C79.9894 74.9381 78.9787 74.8762 77.9375 74.8125C77.2981 74.8744 76.6587 74.9363 76 75ZM78 90C77.3329 90.6149 77.3329 90.6149 76.6523 91.2422C76.4371 91.8223 76.2218 92.4023 76 93C75.8762 94.0106 75.7525 95.0213 75.625 96.0625C75.7488 97.0319 75.8725 98.0013 76 99C76.5285 99.4293 77.057 99.8585 77.6016 100.301C78.393 100.532 79.1845 100.762 80 101C81.0673 100.776 82.1347 100.551 83.2344 100.32C84.0948 100.04 84.0948 100.04 84.9727 99.7539C85.5592 99.5464 86.1457 99.3388 86.75 99.125C87.352 98.9252 87.954 98.7254 88.5742 98.5195C89.1427 98.33 89.7112 98.1405 90.2969 97.9453C91.1889 97.6334 92.0809 97.3214 93 97C92.63 96.38 92.2601 95.7599 91.8789 95.1211C91.2589 94.4211 90.6388 93.7212 90 93C89.0603 92.6197 88.1205 92.2395 87.1523 91.8477C85.561 91.459 85.561 91.459 83.9375 91.0625C82.874 90.7854 81.8105 90.5082 80.7148 90.2227C79.371 90.1124 79.371 90.1124 78 90ZM53 91C51.3913 91.2823 51.3913 91.2823 49.75 91.5703C48.1413 91.9377 48.1413 91.9377 46.5 92.3125C45.4997 92.5561 44.4994 92.7998 43.4688 93.0508C42.6541 93.364 41.8394 93.6773 41 94C40.273 94.7019 40.273 94.7019 39.5312 95.418C39.3559 95.94 39.1806 96.4621 39 97C39.2448 97.5126 39.4897 98.0251 39.7419 98.5532C40.3647 99.2694 40.3647 99.2694 41 100C41.5428 100.173 42.0856 100.346 42.6448 100.524C43.2892 100.592 43.9337 100.66 44.5977 100.73C45.3132 100.811 46.0287 100.892 46.7659 100.975C47.5238 101.045 48.2816 101.115 49.0625 101.188C50.2119 101.308 50.2119 101.308 51.3845 101.431C52.5245 101.545 52.5245 101.545 53.6875 101.66C54.43 101.723 55.1725 101.787 55.9375 101.852C56.9584 101.925 56.9584 101.925 58 102C59.5469 102.06 59.5469 102.06 61.125 102.121C61.9294 102.122 62.7337 102.124 63.5625 102.125C64.6969 102.084 65.8312 102.043 67 102C67.0696 101.06 67.0696 101.06 67.1406 100.102C67.1767 99.2843 67.2128 98.467 67.25 97.625C67.3196 96.4068 67.3196 96.4068 67.3906 95.1641C67.2617 94.4499 67.1328 93.7358 67 93C66.4277 92.5811 65.8553 92.1621 65.2656 91.7305C64.518 91.4894 63.7703 91.2484 63 91C62.2884 90.9007 61.5769 90.8015 60.8438 90.6992C60.0703 90.6954 59.2969 90.6915 58.5 90.6875C57.6338 90.7055 56.7675 90.7236 55.875 90.7422C54.9262 90.8273 53.9775 90.9123 53 91Z" fill="black"/>
</g>
<defs>
<clipPath id="clip0_7_859">
<rect width="456" height="2405" fill="white" transform="translate(0 -903)"/>
</clipPath>
</defs>
</svg>
