<svg width="152" height="188" viewBox="0 0 152 188" fill="none" xmlns="http://www.w3.org/2000/svg">
<g clip-path="url(#clip0_7_859)">
<path d="M79 112C79.9075 111.835 80.815 111.67 81.75 111.5C82.4925 111.665 83.235 111.83 84 112C84.0541 113.479 84.0541 113.479 84.1094 114.988C84.1087 115.63 84.1081 116.271 84.1074 116.932C84.072 117.615 84.0365 118.297 84 119C83.8975 119.653 83.795 120.305 83.6895 120.978C83.5496 121.639 83.4097 122.3 83.2656 122.98C83.1059 123.664 82.9463 124.347 82.7817 125.051C82.6063 125.756 82.4308 126.461 82.25 127.188C82.0681 127.929 81.8862 128.671 81.6987 129.435C81.4186 130.554 81.4186 130.554 81.1328 131.695C80.9424 132.427 80.7519 133.158 80.5557 133.911C80.3723 134.6 80.1889 135.29 80 136C79.8398 136.602 79.6797 137.203 79.5146 137.823C79.3629 138.374 79.2111 138.925 79.0547 139.492C78.7479 140.505 78.4411 141.519 78.125 142.562C77.6319 143.966 77.6319 143.966 77.1289 145.398C76.7564 146.257 76.3838 147.115 76 148C75.5346 148.817 75.0693 149.635 74.5898 150.477C74.0858 151.206 73.5818 151.936 73.0625 152.688C72.5559 153.31 72.0493 153.933 71.5273 154.574C71.0233 155.045 70.5193 155.515 70 156C68.5769 156.495 68.5769 156.495 67.125 157C66.4237 157 65.7225 157 65 157C65.0142 156.513 65.0284 156.025 65.043 155.523C65.0907 154.814 65.1384 154.105 65.1875 153.375C65.2777 152.551 65.368 151.728 65.4609 150.879C65.6388 149.929 65.8167 148.979 66 148C66.3429 146.937 66.6858 145.873 67.0391 144.777C67.2426 144.214 67.4461 143.65 67.6558 143.069C67.8725 142.49 68.0892 141.91 68.3125 141.312C68.6473 140.425 68.6473 140.425 68.9888 139.521C69.2142 138.919 69.4396 138.318 69.6719 137.699C69.8968 137.091 70.1218 136.483 70.3535 135.857C70.6735 134.938 70.6735 134.938 71 134C71.185 133.383 71.37 132.767 71.5605 132.131C71.7313 131.517 71.9021 130.903 72.0781 130.27C72.2426 129.663 72.4072 129.056 72.5767 128.431C72.737 127.835 72.8973 127.239 73.0625 126.625C73.2241 126.043 73.3857 125.46 73.5522 124.86C73.7129 124.298 73.8735 123.736 74.0391 123.156C74.3562 122.115 74.6733 121.073 75 120C75.3171 119.123 75.6342 118.247 75.9609 117.344C76.2832 116.612 76.6055 115.879 76.9375 115.125C77.2611 114.519 77.5846 113.913 77.918 113.289C78.275 112.864 78.6321 112.438 79 112Z" fill="black"/>
<path d="M106 111C107.134 111.124 108.269 111.248 109.438 111.375C110.076 111.445 110.714 111.514 111.371 111.586C112.177 111.791 112.177 111.791 113 112C113.33 112.66 113.66 113.32 114 114C114.119 115.011 114.237 116.021 114.359 117.062C114.42 117.686 114.481 118.309 114.544 118.951C114.612 119.627 114.68 120.303 114.75 121C114.87 122.053 114.87 122.053 114.993 123.127C115.087 123.858 115.181 124.59 115.277 125.344C115.385 126.103 115.494 126.862 115.605 127.645C115.735 128.422 115.866 129.199 116 130C116.248 131.181 116.248 131.181 116.5 132.387C116.687 133.177 116.874 133.967 117.066 134.781C117.267 135.565 117.467 136.349 117.674 137.156C117.885 137.93 118.095 138.703 118.312 139.5C118.526 140.264 118.74 141.028 118.961 141.815C119.29 142.914 119.29 142.914 119.625 144.035C119.849 144.725 120.074 145.415 120.305 146.125C120.534 146.744 120.764 147.363 121 148C121.474 148.927 121.949 149.854 122.438 150.809C123.118 151.862 123.118 151.862 123.812 152.938C124.441 153.755 124.441 153.755 125.082 154.59C125.385 155.055 125.688 155.521 126 156C126 156.99 126 157.98 126 159C125.113 159.474 124.226 159.949 123.312 160.438C122.219 160.623 121.126 160.809 120 161C119.181 160.55 118.363 160.1 117.52 159.637C117.092 159.263 116.665 158.89 116.224 158.505C115.82 158.008 115.416 157.512 115 157C114.668 156.336 114.335 155.673 113.992 154.989C113.693 154.217 113.394 153.444 113.086 152.648C112.801 151.806 112.516 150.963 112.223 150.094C111.943 149.197 111.663 148.3 111.375 147.375C110.928 145.985 110.928 145.985 110.473 144.566C110.18 143.621 109.887 142.676 109.586 141.703C109.311 140.751 109.036 139.799 108.753 138.818C108.38 137.423 108.38 137.423 108 136C107.795 135.132 107.591 134.264 107.38 133.369C107.206 132.541 107.031 131.713 106.852 130.859C106.702 130.06 106.552 129.26 106.397 128.436C106.266 127.673 106.135 126.911 106 126.125C105.813 125.049 105.813 125.049 105.623 123.951C105.52 123.268 105.418 122.586 105.312 121.883C105.2 120.915 105.2 120.915 105.086 119.927C105.058 119.291 105.029 118.655 105 118C105.054 117.32 105.108 116.641 105.164 115.94C105.254 115.298 105.345 114.655 105.438 113.992C105.623 113.005 105.809 112.017 106 111Z" fill="black"/>
<path d="M34 84C34.99 84.33 35.98 84.66 37 85C36.9897 85.6845 36.9794 86.369 36.9688 87.0742C36.8141 87.9366 36.6594 88.799 36.5 89.6875C36.384 90.5873 36.268 91.487 36.1484 92.4141C36.0995 93.2674 36.0505 94.1208 36 95C36.1366 95.6471 36.2733 96.2942 36.4141 96.9609C36.6487 97.4895 36.8833 98.018 37.125 98.5625C37.7437 99.3669 38.3625 100.171 39 101C40.3303 101.433 40.3303 101.433 41.6875 101.875C42.4506 101.916 43.2138 101.957 44 102C44.0722 101.359 44.1444 100.719 44.2188 100.059C44.358 98.7612 44.358 98.7612 44.5 97.4375C44.5993 96.53 44.6985 95.6225 44.8008 94.6875C44.8665 93.8006 44.9323 92.9137 45 92C44.9523 91.2781 44.9046 90.5562 44.8555 89.8125C44.8 89.1938 44.7446 88.575 44.6875 87.9375C44.7906 86.9681 44.8937 85.9987 45 85C45.9281 84.6081 46.8562 84.2163 47.8125 83.8125C48.8644 83.8744 49.9162 83.9363 51 84C51.553 84.5427 52.106 85.0854 52.6758 85.6445C53.1128 86.4218 53.5498 87.1991 54 88C54.1972 89.3883 54.1972 89.3883 54.3984 90.8047C54.3907 91.8179 54.383 92.8311 54.375 93.875C54.3344 95.4625 54.3344 95.4625 54.293 97.082C54.1963 98.045 54.0996 99.0079 54 100C53.7158 100.996 53.7158 100.996 53.4258 102.012C53.1821 102.523 52.9385 103.035 52.6875 103.562C52.1306 104.367 51.5738 105.171 51 106C50.5875 106.557 50.175 107.114 49.75 107.688C49.1725 108.121 48.595 108.554 48 109C47.1531 109.365 47.1531 109.365 46.2891 109.738C45.6574 109.99 45.0258 110.241 44.375 110.5C43.764 110.717 43.153 110.933 42.5234 111.156C42.0207 111.435 41.518 111.713 41 112C40.67 112.99 40.34 113.98 40 115C39.967 115.669 39.934 116.339 39.8999 117.029C39.9112 117.803 39.9225 118.578 39.9341 119.376C39.9438 120.258 39.9536 121.139 39.9637 122.047C39.9782 122.997 39.9928 123.947 40.0078 124.926C40.0163 125.906 40.0249 126.886 40.0337 127.897C40.046 129.416 40.046 129.416 40.0586 130.967C40.0687 132.008 40.0789 133.05 40.0894 134.123C40.1011 135.175 40.1129 136.228 40.125 137.312C40.148 138.883 40.148 138.883 40.1714 140.486C40.1857 141.521 40.2001 142.556 40.2148 143.623C40.2224 144.637 40.23 145.651 40.2378 146.696C40.2444 147.68 40.251 148.663 40.2578 149.676C40.2764 150.62 40.2951 151.564 40.3142 152.536C40.3177 153.427 40.3211 154.318 40.3247 155.236C40.3014 156.065 40.278 156.894 40.254 157.749C40.1702 158.492 40.0863 159.235 40 160C39.7955 160.618 39.591 161.236 39.3803 161.872C39.1232 162.398 38.866 162.924 38.6011 163.466C38.0727 164.302 37.5444 165.138 37 166C36.3813 166.949 35.7625 167.897 35.125 168.875C34.4237 169.576 33.7225 170.277 33 171C32.1312 171.044 31.2623 171.088 30.3672 171.133C29.586 171.089 28.8048 171.045 28 171C28.049 170.313 28.098 169.626 28.1484 168.918C28.2232 168.017 28.298 167.116 28.375 166.188C28.4794 164.848 28.4794 164.848 28.5859 163.48C28.7909 162.253 28.7909 162.253 29 161C29.5013 160.322 29.5013 160.322 30.0127 159.631C30.5014 158.824 30.5014 158.824 31 158C31.0771 157.303 31.1543 156.606 31.2338 155.889C31.2263 155.075 31.2189 154.262 31.2112 153.424C31.2078 152.5 31.2044 151.575 31.2009 150.622C31.1875 149.626 31.174 148.629 31.1602 147.602C31.155 146.574 31.1498 145.547 31.1444 144.489C31.1386 143.428 31.1329 142.367 31.127 141.273C31.1167 140.183 31.1065 139.092 31.0959 137.968C31.0849 136.865 31.0739 135.762 31.0625 134.625C31.0532 133.525 31.044 132.426 31.0344 131.293C31.0263 130.206 31.0181 129.12 31.0098 128C31.0037 126.938 30.9976 125.876 30.9913 124.782C30.9852 123.753 30.979 122.724 30.9727 121.664C30.9612 120.671 30.9498 119.678 30.938 118.655C30.9315 117.725 30.9249 116.794 30.9182 115.834C30.91 115.02 30.9017 114.205 30.8932 113.365C30.9284 112.585 30.9637 111.804 31 111C31.1881 110.133 31.3762 109.266 31.5701 108.372C31.7119 107.589 31.8538 106.807 32 106C31.6571 105.08 31.3142 104.159 30.9609 103.211C30.4376 102.275 29.9142 101.339 29.375 100.375C28.6132 98.9635 28.6132 98.9635 27.8359 97.5234C27.2301 96.6907 26.6242 95.858 26 95C25.0848 94.5179 24.1695 94.0358 23.2266 93.5391C22.4918 93.0312 21.757 92.5233 21 92C20.9407 90.9778 20.8814 89.9555 20.8203 88.9023C21.2096 87.9446 21.5989 86.9868 22 86C22.8637 85.6507 23.7273 85.3013 24.6172 84.9414C25.6923 84.8164 26.7673 84.6913 27.875 84.5625C29.4799 84.3479 29.4799 84.3479 31.1172 84.1289C32.0685 84.0864 33.0198 84.0438 34 84Z" fill="black"/>
<path d="M91 40C91.9075 40.1031 92.815 40.2062 93.75 40.3125C94.2837 40.5046 94.8173 40.6966 95.3672 40.8945C95.906 41.2593 96.4448 41.6241 97 42C97.477 42.6639 97.9539 43.3277 98.4453 44.0117C98.9171 44.8329 99.3889 45.654 99.875 46.5C100.608 47.8303 100.608 47.8303 101.355 49.1875C101.898 50.1156 102.441 51.0437 103 52C103.677 52.9281 104.354 53.8562 105.051 54.8125C105.756 55.6994 106.461 56.5863 107.188 57.5C107.841 58.3147 108.495 59.1294 109.168 59.9688C110.075 60.9742 110.075 60.9742 111 62C111.86 62.5723 111.86 62.5723 112.738 63.1562C113.155 63.4347 113.571 63.7131 114 64C114 64.66 114 65.32 114 66C114.66 66 115.32 66 116 66C116.656 66.7129 117.312 67.4257 117.988 68.1602C118.363 68.6209 118.737 69.0817 119.123 69.5564C119.516 70.0534 119.908 70.5504 120.312 71.0625C120.914 71.8148 120.914 71.8148 121.527 72.5823C121.926 73.0836 122.324 73.585 122.734 74.1016C123.123 74.5982 123.512 75.0948 123.912 75.6064C124.271 76.0663 124.63 76.5262 125 77C125.562 77.709 126.124 78.418 126.703 79.1484C127.152 79.7388 127.6 80.3292 128.062 80.9375C128.445 81.4415 128.828 81.9455 129.223 82.4648C129.479 82.9714 129.736 83.478 130 84C130.06 85.0847 130.06 85.0847 130.121 86.1914C130.081 86.7882 130.041 87.3851 130 88C128.989 88.1444 127.979 88.2887 126.938 88.4375C126.298 88.4349 125.659 88.4323 125 88.4297C124.34 88.2879 123.68 88.1461 123 88C122.103 87.3851 122.103 87.3851 121.188 86.7578C120.61 86.1984 120.033 85.6389 119.438 85.0625C118.864 84.4334 118.29 83.8044 117.699 83.1562C117.138 82.4447 116.578 81.7331 116 81C115.45 80.1853 114.899 79.3706 114.332 78.5312C113.81 77.7166 113.288 76.9019 112.75 76.0625C112.062 74.9043 112.062 74.9043 111.359 73.7227C110.911 73.1542 110.462 72.5857 110 72C109.01 72 108.02 72 107 72C106.554 72.7825 106.108 73.5649 105.648 74.3711C105.228 75.383 104.808 76.3949 104.375 77.4375C103.737 78.9515 103.737 78.9515 103.086 80.4961C102.728 81.3224 102.369 82.1487 102 83C101.67 83.33 101.34 83.66 101 84C100.956 84.6471 100.912 85.2942 100.867 85.9609C100.871 87.1559 100.871 87.1559 100.875 88.375C100.872 89.1665 100.87 89.958 100.867 90.7734C100.911 91.5082 100.955 92.243 101 93C101.33 93.99 101.66 94.98 102 96C102.681 95.2781 103.361 94.5562 104.062 93.8125C104.515 93.3613 104.967 92.9102 105.434 92.4453C105.951 91.9684 106.467 91.4914 107 91C107.589 90.523 108.178 90.0461 108.785 89.5547C109.696 88.8779 109.696 88.8779 110.625 88.1875C111.195 87.7686 111.765 87.3496 112.352 86.918C112.896 86.615 113.44 86.3121 114 86C114.99 86 115.98 86 117 86C117 87.32 117 88.64 117 90C116.34 90 115.68 90 115 90C114.732 90.7219 114.464 91.4438 114.188 92.1875C113.796 93.1156 113.404 94.0437 113 95C112.626 95.4305 112.252 95.8611 111.867 96.3047C111.437 96.7198 111.006 97.1348 110.562 97.5625C110.124 97.9776 109.686 98.3927 109.234 98.8203C108.827 99.2096 108.42 99.5989 108 100C107.443 100.639 106.886 101.279 106.312 101.938C105.879 102.618 105.446 103.299 105 104C104.629 105.031 104.257 106.062 103.875 107.125C103.586 108.074 103.298 109.022 103 110C102.67 110.66 102.34 111.32 102 112C101.948 112.839 101.896 113.679 101.842 114.543C101.816 116.135 101.816 116.135 101.789 117.758C101.777 118.334 101.764 118.91 101.751 119.503C101.737 120.103 101.724 120.704 101.709 121.322C101.69 122.255 101.69 122.255 101.669 123.206C101.655 123.839 101.64 124.473 101.625 125.125C101.599 126.076 101.599 126.076 101.572 127.046C101.553 127.68 101.533 128.315 101.513 128.969C101.481 129.918 101.481 129.918 101.447 130.887C101.423 131.516 101.4 132.145 101.375 132.793C101.349 133.42 101.324 134.048 101.298 134.694C101.269 135.306 101.24 135.918 101.211 136.548C101.141 137.687 101.072 138.826 101 140C100.905 140.926 100.809 141.853 100.711 142.807C100.6 143.609 100.489 144.412 100.375 145.238C100.253 145.966 100.131 146.693 100.005 147.443C99.8798 148.101 99.7543 148.759 99.625 149.438C99.5111 150.049 99.3972 150.661 99.2798 151.292C99.1591 151.854 99.0384 152.417 98.9141 152.996C98.6124 153.987 98.3108 154.979 98 156C97.5153 156.962 97.0306 157.923 96.5312 158.914C96.0259 159.602 95.5206 160.291 95 161C94.2987 160.979 93.5975 160.959 92.875 160.938C92.2563 160.628 91.6375 160.319 91 160C90.505 159.01 90.505 159.01 90 158C89.9218 157.387 89.8435 156.775 89.7629 156.143C89.7136 155.399 89.6642 154.654 89.6133 153.887C89.5609 153.057 89.5085 152.228 89.4546 151.374C89.4077 150.487 89.3608 149.601 89.3125 148.688C89.2422 147.326 89.2422 147.326 89.1704 145.937C89.1335 145.03 89.0966 144.122 89.0586 143.188C89.0365 142.294 89.0144 141.401 88.9917 140.48C88.9958 139.253 88.9958 139.253 89 138C89.0453 137.349 89.0906 136.698 89.1372 136.027C89.2067 135.461 89.2761 134.896 89.3477 134.312C89.6087 132.766 89.6087 132.766 89.875 131.188C90.0568 130.19 90.2385 129.192 90.4258 128.164C90.71 126.598 90.71 126.598 91 125C91.1023 124.372 91.2046 123.744 91.3101 123.097C91.4563 122.101 91.4563 122.101 91.6055 121.086C91.6887 120.42 91.7719 119.754 91.8577 119.068C91.9253 118.406 91.9929 117.744 92.0625 117.062C92.1153 116.418 92.168 115.774 92.2224 115.11C92.2444 114.498 92.2664 113.885 92.2891 113.254C92.1937 112.18 92.0983 111.106 92 110C91.5746 109.328 91.1492 108.657 90.7109 107.965C90.1257 107.481 89.5405 106.998 88.9375 106.5C87.9765 105.887 87.9765 105.887 86.9961 105.262C86.3374 104.845 85.6787 104.429 85 104C84.3929 103.408 83.7857 102.817 83.1602 102.207C82.6123 101.582 82.0645 100.957 81.5 100.312C80.9947 99.7518 80.4894 99.191 79.9688 98.6133C79.6491 98.0809 79.3294 97.5485 79 97C79.33 96.01 79.66 95.02 80 94C80.8662 94.1031 81.7325 94.2062 82.625 94.3125C83.7387 94.5394 84.8525 94.7662 86 95C86.5723 95.2423 87.1447 95.4847 87.7344 95.7344C88.2758 96.0077 88.8172 96.2809 89.375 96.5625C90.2412 97.0369 91.1075 97.5112 92 98C91.9884 97.0848 91.9768 96.1695 91.9648 95.2266C91.9603 94.6491 91.9558 94.0716 91.9512 93.4766C91.9467 92.8655 91.9421 92.2545 91.9375 91.625C91.9291 91.0217 91.9207 90.4184 91.9121 89.7969C91.9073 88.9268 91.9073 88.9268 91.9023 88.0391C91.9346 87.0362 91.9668 86.0333 92 85C92.495 84.01 92.495 84.01 93 83C92.2369 83.2475 91.4737 83.495 90.6875 83.75C89.8006 83.8325 88.9137 83.915 88 84C87.4947 83.4534 86.9894 82.9069 86.4688 82.3438C85.7417 81.1836 85.7417 81.1836 85 80C84.6146 79.1492 84.2291 78.2984 83.832 77.4219C83.4956 76.5402 83.1591 75.6584 82.8125 74.75C82.4683 73.858 82.1241 72.9659 81.7695 72.0469C81.5156 71.3714 81.2616 70.6959 81 70C80.3194 70.6187 79.6388 71.2375 78.9375 71.875C78.4837 72.3236 78.03 72.7722 77.5625 73.2344C76.7891 74.1084 76.7891 74.1084 76 75C75.4225 75.8095 74.845 76.6191 74.25 77.4531C73.6519 78.3348 73.0537 79.2166 72.4375 80.125C71.8793 80.9732 71.3212 81.8214 70.7461 82.6953C70.1699 83.4559 69.5937 84.2164 69 85C68.3258 85.602 67.6516 86.204 66.957 86.8242C66.3112 87.2122 65.6654 87.6002 65 88C64.0925 87.8969 63.185 87.7938 62.25 87.6875C61.5075 87.4606 60.765 87.2338 60 87C60.0567 86.3284 60.1134 85.6568 60.1719 84.9648C60.4452 83.9864 60.7184 83.008 61 82C61.341 81.4317 61.6819 80.8634 62.0332 80.2778C62.4605 79.6718 62.8879 79.0658 63.3281 78.4414C64.0339 77.491 64.0339 77.491 64.7539 76.5215C65.2476 75.875 65.7413 75.2286 66.25 74.5625C66.7282 73.9199 67.2065 73.2773 67.6992 72.6152C68.1749 71.9804 68.6505 71.3455 69.1406 70.6914C69.6183 70.0644 70.096 69.4373 70.5881 68.7913C71.0541 68.2001 71.52 67.609 72 67C72.4395 66.4907 72.879 65.9815 73.3318 65.4568C73.7521 64.976 74.1724 64.4953 74.6055 64C75.011 63.5193 75.4166 63.0385 75.8345 62.5432C76.2191 62.034 76.6037 61.5247 77 61C77.355 60.4089 77.71 59.8178 78.0757 59.2087C78.4129 58.5817 78.7502 57.9546 79.0977 57.3086C79.4244 56.6737 79.7512 56.0389 80.0879 55.3848C80.4095 54.7422 80.7311 54.0996 81.0625 53.4375C81.388 52.791 81.7135 52.1446 82.0488 51.4785C82.3743 50.8449 82.6998 50.2114 83.0352 49.5586C83.3563 48.9513 83.6774 48.344 84.0083 47.7183C84.3356 47.1512 84.6628 46.5842 85 46C85.5276 45.2365 85.5276 45.2365 86.0659 44.4575C86.4141 44.0088 86.7623 43.56 87.1211 43.0977C87.7411 42.4054 88.3612 41.7132 89 41C89.66 40.67 90.32 40.34 91 40ZM92 52C91.2884 52.671 91.2884 52.671 90.5625 53.3555C89.7891 54.2623 89.7891 54.2623 89 55.1875C88.4779 55.8256 87.9559 56.4637 87.418 57.1211C86.95 57.7411 86.4821 58.3612 86 59C85.1647 60.3613 85.1647 60.3613 84.3125 61.75C84.2094 62.4925 84.1063 63.235 84 64C85.0828 64.7116 85.0828 64.7116 86.1875 65.4375C87.1156 65.9531 88.0437 66.4688 89 67C89.8353 68.485 89.8353 68.485 90.6875 70C91.1206 70.99 91.5538 71.98 92 73C92.3506 73.6187 92.7012 74.2375 93.0625 74.875C93.3719 75.2463 93.6813 75.6175 94 76C94.66 76 95.32 76 96 76C96.3519 75.2962 96.7038 74.5923 97.0664 73.8672C97.3745 72.921 97.6826 71.9748 98 71C98.1946 70.0538 98.3893 69.1077 98.5898 68.1328C98.7046 67.1402 98.8193 66.1477 98.9375 65.125C99.0148 64.0809 99.0922 63.0367 99.1719 61.9609C99.1152 60.9838 99.0584 60.0067 99 59C98.6752 58.2291 98.3503 57.4583 98.0156 56.6641C97.5773 56.0324 97.1391 55.4008 96.6875 54.75C96.2376 54.2086 95.7877 53.6672 95.3242 53.1094C94.8872 52.7433 94.4502 52.3772 94 52C93.34 52 92.68 52 92 52Z" fill="black"/>
<path d="M46 33C47.1408 32.8821 47.1408 32.8821 48.3047 32.7617C49.577 32.725 49.577 32.725 50.875 32.6875C51.7632 32.7055 52.6513 32.7236 53.5664 32.7422C54.771 32.8698 54.771 32.8698 56 33C56.9281 33.4331 57.8562 33.8663 58.8125 34.3125C59.5344 35.1994 60.2563 36.0863 61 37C61.4641 37.8147 61.9281 38.6294 62.4062 39.4688C62.8703 40.4072 63.3344 41.3456 63.8125 42.3125C64.2211 43.2819 64.6298 44.2513 65.0508 45.25C65.364 46.1575 65.6773 47.065 66 48C66.1379 48.6806 66.2759 49.3612 66.418 50.0625C66.445 50.64 66.4721 51.2175 66.5 51.8125C66.2525 53.3903 66.2525 53.3903 66 55C65.8195 55.5569 65.6391 56.1137 65.4531 56.6875C65.1051 57.4919 65.1051 57.4919 64.75 58.3125C63.8838 59.6428 63.8838 59.6428 63 61C61.9481 61.5569 61.9481 61.5569 60.875 62.125C60.2563 62.4137 59.6375 62.7025 59 63C58.835 63.6394 58.67 64.2788 58.5 64.9375C58.335 65.6181 58.17 66.2987 58 67C57.505 67.5775 57.01 68.155 56.5 68.75C55.675 69.1625 54.85 69.575 54 70C52.9829 70.1431 52.9829 70.1431 51.9453 70.2891C50.7968 70.3316 50.7968 70.3316 49.625 70.375C48.4474 70.3325 48.4474 70.3325 47.2461 70.2891C46.1343 70.146 46.1343 70.146 45 70C44.4135 69.8221 43.827 69.6442 43.2227 69.4609C42.7161 69.2263 42.2095 68.9917 41.6875 68.75C40.3572 67.8838 40.3572 67.8838 39 67C37.9791 65.9791 37.9791 65.9791 36.9375 64.9375C36.2981 64.2981 35.6587 63.6587 35 63C33.7006 62.4741 33.7006 62.4741 32.375 61.9375C31.5913 61.6281 30.8075 61.3187 30 61C29.6287 60.6043 29.2575 60.2085 28.875 59.8008C28.5863 59.2065 28.2975 58.6123 28 58C27.8337 56.6774 27.8337 56.6774 27.6641 55.3281C27.6512 54.3123 27.6383 53.2966 27.625 52.25C27.6656 50.6471 27.6656 50.6471 27.707 49.0117C27.8037 48.0179 27.9004 47.024 28 46C28.1689 45.2846 28.3377 44.5691 28.5117 43.832C28.776 43.2481 29.0402 42.6641 29.3125 42.0625C29.8462 41.2717 29.8462 41.2717 30.3906 40.4648C30.9217 39.9814 31.4528 39.498 32 39C32.8611 38.5063 33.7222 38.0126 34.6094 37.5039C35.5839 37.0489 36.5584 36.5938 37.5625 36.125C38.5125 35.7357 39.4626 35.3464 40.4414 34.9453C41.2857 34.6334 42.1301 34.3214 43 34C43.99 33.67 44.98 33.34 46 33ZM41 43C40.4019 43.5904 39.8037 44.1808 39.1875 44.7891C38.7956 45.5187 38.4038 46.2483 38 47C37.8569 47.6368 37.7138 48.2736 37.5664 48.9297C37.5651 49.5716 37.5638 50.2136 37.5625 50.875C37.596 51.5672 37.6295 52.2595 37.6641 52.9727C37.7749 53.6417 37.8858 54.3107 38 55C38.1934 55.5762 38.3867 56.1524 38.5859 56.7461C38.867 57.263 39.148 57.7799 39.4375 58.3125C39.801 58.783 40.1645 59.2535 40.5391 59.7383C41.2622 60.3628 41.2622 60.3628 42 61C42.6677 61.3648 43.3355 61.7296 44.0234 62.1055C44.7788 62.4007 45.5342 62.6959 46.3125 63C47.0305 63.2475 47.7485 63.495 48.4883 63.75C49.3171 63.8325 50.146 63.915 51 64C51.6115 63.8724 52.223 63.7448 52.853 63.6133C53.4932 63.4315 54.1334 63.2498 54.793 63.0625C56.3804 62.5366 56.3804 62.5366 58 62C57.902 60.9636 57.8041 59.9272 57.7031 58.8594C57.6309 58.2007 57.5588 57.542 57.4844 56.8633C57.407 56.1659 57.3297 55.4685 57.25 54.75C57.1881 54.0681 57.1262 53.3862 57.0625 52.6836C56.9852 52.0197 56.9078 51.3559 56.8281 50.6719C56.7185 50.0325 56.6088 49.3931 56.4958 48.7344C56.3322 48.162 56.1686 47.5897 56 47C55.4289 46.1905 54.8579 45.3809 54.2695 44.5469C53.5206 44.0364 52.7716 43.5259 52 43C51.1118 42.8247 50.2237 42.6494 49.3086 42.4688C48.3611 42.4791 47.4137 42.4894 46.4375 42.5C45.4875 42.4897 44.5374 42.4794 43.5586 42.4688C42.7143 42.6441 41.8699 42.8194 41 43Z" fill="black"/>
</g>
<defs>
<clipPath id="clip0_7_859">
<rect width="456" height="2405" fill="white" transform="translate(-304 -1649)"/>
</clipPath>
</defs>
</svg>
