<svg width="152" height="153" viewBox="0 0 152 153" fill="none" xmlns="http://www.w3.org/2000/svg">
<g clip-path="url(#clip0_7_859)">
<path d="M51 16C52.2684 16.3713 52.2684 16.3713 53.5625 16.75C54.3669 17.1625 55.1712 17.575 56 18C56.5981 18.4331 57.1963 18.8663 57.8125 19.3125C58.4003 20.1478 58.4003 20.1478 59 21C59.2475 22.2375 59.2475 22.2375 59.5 23.5C59.2525 24.7375 59.2525 24.7375 59 26C58.3813 26.5362 57.7625 27.0725 57.125 27.625C56.0938 28.0788 55.0625 28.5325 54 29C53.2601 29.2101 52.5202 29.4202 51.7578 29.6367C50.9302 29.8597 50.1027 30.0827 49.25 30.3125C47.9487 30.6896 47.9487 30.6896 46.6211 31.0742C45.7561 31.3797 44.8912 31.6852 44 32C43.2072 32.3983 42.4145 32.7966 41.5977 33.207C40.4665 33.9089 40.4665 33.9089 39.3125 34.625C38.5855 35.1419 37.8584 35.6588 37.1094 36.1914C36.4133 36.7882 35.7172 37.3851 35 38C34.3245 38.7309 33.6491 39.4618 32.9531 40.2148C32.3292 40.9896 31.7053 41.7643 31.0625 42.5625C30.2446 43.6472 30.2446 43.6472 29.4102 44.7539C28.7121 45.8657 28.7121 45.8657 28 47C27.4083 48.2878 27.4083 48.2878 26.8047 49.6016C26.5391 50.393 26.2736 51.1845 26 52C26.0206 52.9281 26.0412 53.8562 26.0625 54.8125C26.3719 55.8644 26.6813 56.9162 27 58C27.3107 58.678 27.6213 59.3561 27.9414 60.0547C28.332 60.7585 28.7226 61.4623 29.125 62.1875C29.5749 62.8604 30.0248 63.5333 30.4883 64.2266C30.9871 64.8118 31.486 65.397 32 66C32.5298 66.3996 33.0596 66.7992 33.6055 67.2109C34.1688 67.492 34.7321 67.773 35.3125 68.0625C35.9042 68.261 36.4959 68.4595 37.1055 68.6641C37.7307 68.7749 38.3559 68.8858 39 69C40.0151 69.0425 40.0151 69.0425 41.0508 69.0859C41.7353 69.037 42.4198 68.988 43.125 68.9375C43.7927 68.8254 44.4605 68.7132 45.1484 68.5977C46.065 68.3018 46.065 68.3018 47 68C47.9075 67.2987 48.815 66.5975 49.75 65.875C50.8637 64.9469 50.8637 64.9469 52 64C52.7219 64.0206 53.4438 64.0412 54.1875 64.0625C54.7856 64.3719 55.3838 64.6813 56 65C56.4331 65.3713 56.8663 65.7425 57.3125 66.125C57.5394 66.7437 57.7662 67.3625 58 68C57.853 68.932 57.7061 69.864 57.5547 70.8242C57.4574 71.4488 57.3602 72.0733 57.26 72.7168C57.1742 73.4703 57.0884 74.2237 57 75C56.9612 75.9288 56.9225 76.8575 56.8826 77.8145C56.8659 78.8489 56.8492 79.8834 56.832 80.9492C56.8262 82.0456 56.8204 83.1419 56.8145 84.2715C56.8138 85.3988 56.8132 86.5261 56.8125 87.6875C56.8003 88.7954 56.788 89.9034 56.7754 91.0449C56.7735 92.1477 56.7715 93.2505 56.7695 94.3867C56.7976 96.0289 56.7976 96.0289 56.8262 97.7043C56.8835 98.7919 56.9409 99.8795 57 101C57.1296 102.1 57.2591 103.2 57.3926 104.333C57.5582 105.386 57.7239 106.439 57.8945 107.523C58.0567 108.46 58.2189 109.396 58.386 110.361C58.5886 111.232 58.7912 112.103 59 113C59.3106 113.883 59.6212 114.766 59.9412 115.677C60.4034 116.796 60.4034 116.796 60.875 117.938C61.3932 119.003 61.3932 119.003 61.9219 120.09C62.2777 120.72 62.6334 121.351 63 122C63.5337 122.806 63.5337 122.806 64.0781 123.629C64.4236 124.081 64.7691 124.534 65.125 125C65.7437 125.66 66.3625 126.32 67 127C67.99 127.495 67.99 127.495 69 128C69.7283 128.09 70.4566 128.18 71.207 128.273C72.0668 128.307 72.9266 128.34 73.8125 128.375C75.1544 128.36 75.1544 128.36 76.5234 128.344C77.3407 128.23 78.158 128.117 79 128C79.5491 127.701 80.0983 127.402 80.6641 127.094C81.0843 126.692 81.5045 126.289 81.9375 125.875C82.3023 125.412 82.6671 124.949 83.043 124.473C83.3588 123.987 83.6746 123.501 84 123C84.5775 122.113 85.155 121.226 85.75 120.312C85.9786 119.804 86.2071 119.295 86.4426 118.77C86.7185 117.894 86.7185 117.894 87 117C87.1291 116.3 87.2583 115.601 87.3914 114.88C87.5283 113.696 87.5283 113.696 87.668 112.488C87.7481 111.602 87.8281 110.716 87.9106 109.802C87.9401 108.878 87.9696 107.953 88 107C87.9328 106.105 87.8656 105.211 87.7964 104.289C87.6207 102.936 87.6207 102.936 87.4414 101.555C87.3023 100.63 87.1631 99.7052 87.0198 98.7524C86.8689 97.8029 86.718 96.8533 86.5625 95.875C86.42 94.8803 86.2775 93.8857 86.1306 92.8608C85.9947 91.86 85.8588 90.8592 85.7188 89.8281C85.5898 88.8452 85.4609 87.8623 85.3281 86.8496C85.2198 85.9092 85.1116 84.9689 85 84C84.9304 83.1421 84.8608 82.2843 84.7891 81.4004C84.7452 80.6031 84.7014 79.8058 84.6562 78.9844C84.6349 78.2407 84.6135 77.4971 84.5916 76.731C84.582 76.036 84.5724 75.341 84.5625 74.625C84.5407 73.9597 84.5188 73.2944 84.4963 72.6089C84.4988 72.0083 84.5013 71.4078 84.5039 70.7891C84.6676 69.8687 84.8313 68.9483 85 68C85.611 67.6494 86.222 67.2988 86.8516 66.9375C87.5605 66.9581 88.2695 66.9787 89 67C89.7212 67.4757 89.7212 67.4757 90.457 67.9609C90.9043 68.4276 91.3516 68.8942 91.8125 69.375C92.2521 69.8365 92.6916 70.298 93.1445 70.7734C93.7568 71.1782 94.3691 71.583 95 72C96.0841 72.272 97.1682 72.544 98.2852 72.8242C98.8967 72.8909 99.5083 72.9576 100.138 73.0264C100.753 73.0177 101.367 73.009 102 73C103.106 72.6687 104.212 72.3374 105.352 71.9961C105.891 71.7533 106.43 71.5106 106.986 71.2605C107.797 70.8531 107.797 70.8531 108.625 70.4375C109.191 70.1601 109.757 69.8827 110.341 69.5969C110.895 69.3123 111.449 69.0276 112.02 68.7344C113.495 67.8759 113.495 67.8759 115 67C115.643 66.5308 116.286 66.0616 116.949 65.5781C117.399 65.1192 117.849 64.6603 118.312 64.1875C118.646 63.6938 118.98 63.2001 119.324 62.6914C119.547 62.1332 119.77 61.5751 120 61C120.151 60.3078 120.302 59.6155 120.457 58.9023C120.512 58.1508 120.568 57.3993 120.625 56.625C120.553 55.4726 120.553 55.4726 120.48 54.2969C120.322 53.5389 120.163 52.7809 120 52C119.707 51.3039 119.415 50.6078 119.113 49.8906C118.725 49.2255 118.337 48.5603 117.938 47.875C117.491 47.2658 117.044 46.6565 116.583 46.0288C116.061 45.3593 115.538 44.6898 115 44C114.525 43.4191 114.049 42.8382 113.56 42.2397C113.041 41.6734 112.523 41.107 111.988 40.5234C111.375 39.9184 110.761 39.3133 110.129 38.6899C109.427 38.1323 108.724 37.5746 108 37C107.179 36.5828 106.359 36.1657 105.513 35.7358C104.627 35.3847 103.741 35.0336 102.828 34.6719C101.917 34.347 101.005 34.0222 100.066 33.6875C99.137 33.3781 98.2076 33.0687 97.25 32.75C95.8327 32.2627 95.8327 32.2627 94.3867 31.7656C93.4805 31.4459 92.5743 31.1262 91.6406 30.7969C90.8211 30.522 90.0016 30.2471 89.1572 29.9639C88.4453 29.6458 87.7335 29.3277 87 29C86.3887 28.5298 85.7773 28.0596 85.1475 27.5752C84.7688 27.0554 84.3901 26.5356 84 26C84.33 25.01 84.66 24.02 85 23C85.8546 22.8685 86.7093 22.737 87.5898 22.6016C88.6946 22.6093 89.7993 22.617 90.9375 22.625C91.5236 22.6352 92.1097 22.6453 92.7136 22.6558C93.6017 22.6869 93.6017 22.6869 94.5078 22.7188C95.3958 22.7768 95.3958 22.7768 96.3018 22.8359C96.8622 22.8901 97.4226 22.9442 98 23C98.9255 23.1547 99.8511 23.3094 100.805 23.4688C101.632 23.6853 102.46 23.9019 103.312 24.125C104.113 24.406 104.914 24.687 105.738 24.9766C106.858 25.4832 106.858 25.4832 108 26C108.674 26.379 109.348 26.758 110.043 27.1484C110.689 27.5945 111.335 28.0405 112 28.5C112.636 29.0195 113.271 29.539 113.926 30.0742C114.953 31.0275 114.953 31.0275 116 32C116.408 32.3978 116.816 32.7957 117.236 33.2056C117.667 33.6392 118.099 34.0728 118.543 34.5195C119.198 35.1994 119.198 35.1994 119.866 35.8931C120.302 36.3615 120.738 36.8299 121.188 37.3125C121.613 37.7886 122.039 38.2648 122.478 38.7554C122.889 39.2318 123.299 39.7083 123.723 40.1992C124.115 40.6715 124.507 41.1438 124.911 41.6304C125.27 42.0823 125.63 42.5343 126 43C126.576 43.7902 127.152 44.5804 127.746 45.3945C128.201 46.1306 128.656 46.8666 129.125 47.625C129.487 48.3507 129.849 49.0765 130.223 49.8242C130.479 50.5422 130.736 51.2602 131 52C131.143 52.7283 131.286 53.4566 131.434 54.207C131.497 55.3111 131.497 55.3111 131.562 56.4375C131.512 57.1748 131.462 57.9122 131.41 58.6719C131.275 59.4402 131.139 60.2084 131 61C130.792 61.8508 130.585 62.7016 130.371 63.5781C130.084 64.4392 129.796 65.3003 129.5 66.1875C129.12 67.0215 128.739 67.8555 128.348 68.7148C127.903 69.4689 127.458 70.223 127 71C126.545 71.5788 126.09 72.1576 125.621 72.7539C125.066 73.2476 124.51 73.7413 123.938 74.25C123.263 74.7012 122.589 75.1523 121.895 75.6172C120.939 76.0735 119.984 76.5298 119 77C117.914 77.4104 117.914 77.4104 116.806 77.8291C115.987 78.115 115.168 78.4008 114.324 78.6953C113.474 78.976 112.624 79.2567 111.748 79.5459C110.883 79.8195 110.017 80.0931 109.125 80.375C108.268 80.6383 107.41 80.9016 106.527 81.1729C105.716 81.4123 104.906 81.6517 104.07 81.8984C102.968 82.2182 102.968 82.2182 101.844 82.5444C101.236 82.6948 100.627 82.8451 100 83C99.34 83 98.68 83 98 83C98.0314 84.0698 98.0314 84.0698 98.0635 85.1611C98.0889 86.165 98.1144 87.1688 98.1406 88.2031C98.1617 89.3198 98.1828 90.4364 98.2046 91.5869C98.213 92.1848 98.2215 92.7826 98.2302 93.3986C98.2367 94.0095 98.2433 94.6205 98.25 95.25C98.2545 95.8594 98.2589 96.4687 98.2635 97.0966C98.265 97.7089 98.2665 98.3212 98.2681 98.9521C98.2658 99.5676 98.2635 100.183 98.2612 100.817C98.2549 101.434 98.2487 102.052 98.2422 102.688C98.232 103.309 98.2217 103.931 98.2112 104.571C98.1953 105.186 98.1794 105.8 98.1631 106.434C98.1406 107.035 98.1182 107.636 98.0951 108.255C98.0637 108.831 98.0323 109.407 98 110C97.9024 111.033 97.8047 112.065 97.7041 113.129C97.5141 114.55 97.5141 114.55 97.3203 116C97.1692 116.894 97.018 117.789 96.8623 118.71C96.7015 119.548 96.5407 120.386 96.375 121.25C96.1647 122.434 96.1647 122.434 95.9502 123.642C95.708 124.755 95.708 124.755 95.4609 125.891C95.2611 126.583 95.0613 127.276 94.8555 127.99C94.432 128.985 94.432 128.985 94 130C93.5527 130.669 93.1054 131.338 92.6445 132.028C92.1302 132.654 91.6159 133.28 91.0859 133.926C90.594 134.474 90.1021 135.022 89.5952 135.587C89.0688 136.053 88.5424 136.52 88 137C87.3597 137.37 86.7195 137.74 86.0598 138.122C85.164 138.525 85.164 138.525 84.25 138.938C83.5758 139.145 82.9016 139.353 82.207 139.566C81.4787 139.709 80.7504 139.853 80 140C79.1789 140.092 78.3577 140.183 77.5117 140.277C76.6622 140.31 75.8127 140.342 74.9375 140.375C74.0945 140.341 73.2514 140.308 72.3828 140.273C71.5965 140.183 70.8102 140.093 70 140C69.358 139.869 68.7161 139.737 68.0547 139.602C67.4798 139.403 66.9048 139.205 66.3125 139C65.4888 138.58 65.4888 138.58 64.6484 138.152C64.1045 137.772 63.5605 137.392 63 137C62.4148 136.486 61.8295 135.971 61.2266 135.441C60.341 134.511 60.341 134.511 59.4375 133.562C58.8639 132.859 58.2902 132.155 57.6992 131.43C57.1385 130.628 56.5777 129.826 56 129C55.4496 128.074 54.8991 127.149 54.332 126.195C53.81 125.203 53.2879 124.21 52.75 123.188C52.0249 121.656 52.0249 121.656 51.2852 120.094C50.649 118.562 50.649 118.562 50 117C49.6687 116.02 49.3374 115.041 48.9961 114.031C48.5958 112.624 48.5958 112.624 48.1875 111.188C47.9684 110.281 47.7492 109.375 47.5234 108.441C47.3507 107.636 47.178 106.83 47 106C46.7731 104.886 46.5463 103.773 46.3125 102.625C46.2139 101.826 46.2139 101.826 46.1133 101.012C46.0759 100.348 46.0385 99.684 46 99C45.9936 97.9752 45.9871 96.9504 45.9805 95.8945C45.9869 94.7537 45.9934 93.6129 46 92.4375C46.0206 91.3637 46.0412 90.2899 46.0625 89.1836C46.0419 88.133 46.0213 87.0824 46 86C45.9923 84.9056 45.9845 83.8112 45.9766 82.6836C45.6543 81.798 45.332 80.9124 45 80C43.894 79.6829 42.788 79.3658 41.6484 79.0391C40.965 78.965 40.2815 78.891 39.5774 78.8147C38.8506 78.7521 38.1238 78.6895 37.375 78.625C36.6424 78.5231 35.9098 78.4212 35.155 78.3162C34.4348 78.1925 33.7147 78.0688 32.9727 77.9414C32.2767 77.8036 31.5808 77.6659 30.8638 77.5239C30.2487 77.351 29.6337 77.1781 29 77C28.1943 76.4934 27.3887 75.9868 26.5586 75.4648C25.9824 74.8371 25.4062 74.2093 24.8125 73.5625C24.3239 72.86 23.8354 72.1574 23.332 71.4336C22.6727 70.229 22.6727 70.229 22 69C21.4882 68.0629 20.9765 67.1257 20.4492 66.1602C19.971 65.1586 19.4927 64.157 19 63.125C18.612 62.0976 18.224 61.0702 17.8242 60.0117C17.5522 59.0179 17.2802 58.024 17 57C16.9033 56.1402 16.8066 55.2804 16.707 54.3945C16.7418 53.5837 16.7766 52.7729 16.8125 51.9375C16.9504 51.1344 17.0884 50.3313 17.2305 49.5039C17.4844 48.6776 17.7384 47.8513 18 47C18.388 46.0809 18.776 45.1618 19.1758 44.2148C19.8931 42.8091 19.8931 42.8091 20.625 41.375C21.1664 40.4598 21.7078 39.5445 22.2656 38.6016C23.1241 37.3138 23.1241 37.3138 24 36C24.5517 35.2652 25.1034 34.5305 25.6719 33.7734C26.2339 33.1057 26.7959 32.438 27.375 31.75C28.2548 30.8064 28.2548 30.8064 29.1523 29.8438C29.7621 29.2353 30.3718 28.6269 31 28C31.6407 27.3709 32.2813 26.7419 32.9414 26.0938C33.6001 25.4853 34.2588 24.8769 34.9375 24.25C35.6014 23.6854 36.2652 23.1208 36.9492 22.5391C37.626 22.0312 38.3027 21.5233 39 21C39.7077 20.5746 40.4154 20.1492 41.1445 19.7109C41.8393 19.3526 42.5341 18.9942 43.25 18.625C43.8739 18.3285 44.4978 18.032 45.1406 17.7266C45.7542 17.4868 46.3678 17.247 47 17C47.6845 16.786 48.369 16.572 49.0742 16.3516C49.7097 16.2355 50.3452 16.1195 51 16Z" fill="black"/>
</g>
<defs>
<clipPath id="clip0_7_859">
<rect width="456" height="2405" fill="white" transform="translate(-152 -2252)"/>
</clipPath>
</defs>
</svg>
