<svg width="152" height="156" viewBox="0 0 152 156" fill="none" xmlns="http://www.w3.org/2000/svg">
<g clip-path="url(#clip0_7_859)">
<path d="M52 76C52.9165 76.2011 53.833 76.4022 54.7773 76.6094C55.3083 76.8111 55.8392 77.0129 56.3862 77.2207C56.9188 77.4779 57.4513 77.735 58 78C58.9294 78.6445 59.8588 79.2891 60.8164 79.9531C61.4944 80.5069 61.4944 80.5069 62.186 81.0718C62.6403 81.4606 63.0945 81.8494 63.5625 82.25C64.0399 82.6504 64.5174 83.0508 65.0093 83.4634C65.7143 84.0655 65.7143 84.0655 66.4336 84.6797C67.2805 85.4454 68.1274 86.2111 69 87C69.5891 87.6007 70.1782 88.2014 70.7852 88.8203C71.2273 89.3334 71.6695 89.8464 72.125 90.375C72.7437 91.2412 73.3625 92.1075 74 93C74.33 93.99 74.66 94.98 75 96C75.1005 96.8546 75.1005 96.8546 75.2031 97.7266C75.2186 98.353 75.2341 98.9795 75.25 99.625C75.2408 100.304 75.2316 100.984 75.2222 101.684C75.1122 102.83 75.1122 102.83 75 104C74.7768 104.64 74.5537 105.28 74.3237 105.939C74.0493 106.606 73.7749 107.273 73.4922 107.961C73.2202 108.744 72.9482 109.527 72.668 110.333C72.4475 111.213 72.2271 112.093 72 113C71.9239 114.008 71.8479 115.015 71.7695 116.053C71.7605 117.129 71.7515 118.204 71.7422 119.312C71.7564 120.407 71.7705 121.501 71.7852 122.629C71.8148 123.741 71.8445 124.854 71.875 126C71.8969 127.143 71.9188 128.287 71.9414 129.465C71.9582 130.549 71.9749 131.633 71.9922 132.75C72.0165 133.735 72.0408 134.72 72.0659 135.734C72.0442 136.482 72.0224 137.23 72 138C71.67 138.33 71.34 138.66 71 139C70.1956 139.124 69.3913 139.248 68.5625 139.375C67.2941 139.189 67.2941 139.189 66 139C65.6507 138.328 65.3013 137.657 64.9414 136.965C64.4754 135.497 64.4754 135.497 64 134C63.856 133.4 63.7121 132.801 63.5637 132.183C63.4267 131.538 63.2896 130.894 63.1484 130.23C63.0195 129.57 62.8906 128.909 62.7578 128.229C62.6315 127.555 62.5052 126.881 62.375 126.188C62.2409 125.495 62.1069 124.802 61.9688 124.088C61.8424 123.434 61.7161 122.779 61.5859 122.105C61.3926 121.081 61.1992 120.056 61 119C60.3477 119.217 59.6955 119.433 59.0234 119.656C58.1495 119.935 57.2755 120.213 56.375 120.5C55.4662 120.769 54.5574 121.039 53.6211 121.316C52.7561 121.542 51.8912 121.768 51 122C50.3516 122.112 49.7032 122.224 49.0352 122.34C48.2443 122.388 48.2443 122.388 47.4375 122.438C46.6331 122.293 45.8288 122.149 45 122C44.6932 121.41 44.3864 120.819 44.0703 120.211C44.0355 119.117 44.0355 119.117 44 118C44.5968 117.375 45.1937 116.75 45.8086 116.105C46.6761 115.473 47.5437 114.84 48.4375 114.188C49.3527 113.491 50.268 112.795 51.2109 112.078C52.1313 111.392 53.0517 110.707 54 110C54.7966 109.397 55.5933 108.793 56.4141 108.172C57.123 107.6 57.832 107.027 58.5625 106.438C59.5235 105.594 59.5235 105.594 60.5039 104.734C61.2445 103.876 61.2445 103.876 62 103C62.2359 102.366 62.4718 101.732 62.7148 101.078C62.856 100.142 62.856 100.142 63 99.1875C63 98.1356 63 97.0838 63 96C63 95.34 63 94.68 63 94C62.3194 93.67 61.6388 93.34 60.9375 93C59.9681 92.67 58.9987 92.34 58 92C57.3877 91.835 56.7754 91.67 56.1445 91.5C55.5193 91.335 54.8941 91.17 54.25 91C53.1775 90.67 52.105 90.34 51 90C50.67 89.34 50.34 88.68 50 88C49.9446 87.2369 49.8891 86.4737 49.832 85.6875C49.8256 84.8006 49.8191 83.9137 49.8125 83C49.7983 82.1131 49.7841 81.2262 49.7695 80.3125C49.8456 79.5494 49.9216 78.7862 50 78C50.66 77.34 51.32 76.68 52 76Z" fill="black"/>
<path d="M85 72C85.7773 72.3429 86.5546 72.6858 87.3555 73.0391C88.7573 73.8241 88.7573 73.8241 90.1875 74.625C91.1723 75.187 92.1572 75.7491 93.1719 76.3281C94.5718 77.1557 94.5718 77.1557 96 78C96.7064 78.4073 97.4128 78.8147 98.1406 79.2344C98.7336 79.6108 99.3266 79.9872 99.9375 80.375C100.474 80.7823 101.01 81.1897 101.562 81.6094C102.037 82.0683 102.511 82.5272 103 83C103.433 83.562 103.866 84.1241 104.312 84.7031C104.869 85.6545 104.869 85.6545 105.438 86.625C105.735 87.3082 106.033 87.9914 106.34 88.6953C106.558 89.4559 106.776 90.2164 107 91C107.125 91.8843 107.25 92.7686 107.379 93.6797C107.419 94.6104 107.459 95.5411 107.5 96.5C107.456 97.9057 107.456 97.9057 107.41 99.3398C107.275 100.218 107.139 101.096 107 102C106.689 102.703 106.379 103.405 106.059 104.129C105.689 104.767 105.319 105.405 104.938 106.062C104.57 106.699 104.203 107.336 103.824 107.992C103.552 108.655 103.28 109.317 103 110C102.979 111.118 102.979 111.118 102.957 112.258C103.054 113.06 103.15 113.861 103.25 114.688C103.371 115.516 103.492 116.345 103.617 117.199C103.744 118.123 103.87 119.048 104 120C104.085 121.141 104.17 122.282 104.258 123.457C104.279 124.045 104.301 124.632 104.323 125.238C104.34 125.819 104.357 126.401 104.375 127C104.424 128.093 104.473 129.186 104.523 130.312C104.351 131.199 104.178 132.086 104 133C103.209 133.495 102.417 133.99 101.602 134.5C100.314 134.748 100.314 134.748 99 135C98.34 134.34 97.68 133.68 97 133C96.7042 131.314 96.7042 131.314 96.4023 129.594C96.3231 128.932 96.2438 128.271 96.1621 127.59C96.088 126.9 96.0139 126.211 95.9375 125.5C95.8595 124.81 95.7815 124.121 95.7012 123.41C95.5842 122.418 95.5842 122.418 95.4648 121.406C95.3114 120.282 95.158 119.158 95 118C94.67 117.34 94.34 116.68 94 116C92.4531 116.064 92.4531 116.064 90.875 116.129C90.2511 116.194 89.6272 116.259 88.9844 116.326C88.3295 116.404 87.6747 116.482 87 116.562C86.3452 116.644 85.6903 116.726 85.0156 116.811C84.3917 116.874 83.7678 116.938 83.125 117.004C81.5781 117.002 81.5781 117.002 80 117C79.505 115.515 79.505 115.515 79 114C79.8024 113.027 79.8024 113.027 80.6211 112.035C81.4061 111.364 82.1912 110.692 83 110C83.816 109.401 84.632 108.801 85.4727 108.184C86.3273 107.607 87.182 107.031 88.0625 106.438C88.9197 105.859 89.777 105.28 90.6602 104.684C91.4323 104.128 92.2045 103.572 93 103C93.5749 102.527 94.1498 102.054 94.7422 101.566C95.3648 100.791 95.3648 100.791 96 100C96.3577 98.9327 96.3577 98.9327 96.7227 97.8438C96.8348 97.0703 96.947 96.2969 97.0625 95.5C97.127 94.7072 97.1914 93.9145 97.2578 93.0977C97.1727 92.4054 97.0877 91.7132 97 91C96.1544 90.3194 95.3087 89.6388 94.4375 88.9375C93.8832 88.7416 93.3289 88.5456 92.7578 88.3438C92.1777 88.2303 91.5977 88.1169 91 88C89.9481 87.9794 88.8963 87.9588 87.8125 87.9375C86.8844 87.9581 85.9563 87.9787 85 88C84.4521 87.7731 83.9043 87.5463 83.3398 87.3125C82.8977 86.8794 82.4555 86.4462 82 86C81.8917 85.2485 81.7834 84.497 81.6719 83.7227C81.6977 82.8448 81.7234 81.967 81.75 81.0625C81.7732 79.7496 81.7732 79.7496 81.7969 78.4102C81.8639 77.6148 81.9309 76.8195 82 76C82.33 75.01 82.66 74.02 83 73C83.66 72.67 84.32 72.34 85 72Z" fill="black"/>
<path d="M38 15C38.9488 14.7525 39.8975 14.505 40.875 14.25C41.9062 14.4975 42.9375 14.745 44 15C44.3274 15.5723 44.6548 16.1447 44.9922 16.7344C45.2423 17.482 45.4923 18.2297 45.75 19C45.9679 19.8134 46.1857 20.6268 46.4102 21.4648C46.7021 22.7197 46.7021 22.7197 47 24C47.205 24.785 47.4099 25.5701 47.6211 26.3789C47.808 27.0995 47.9949 27.8201 48.1875 28.5625C48.3461 29.2238 48.5046 29.8851 48.668 30.5664C48.7775 31.0395 48.8871 31.5126 49 32C49.4744 31.1956 49.9487 30.3913 50.4375 29.5625C50.7108 29.025 50.9841 28.4874 51.2656 27.9336C51.508 27.2955 51.7503 26.6574 52 26C52.1392 25.2072 52.2784 24.4145 52.4219 23.5977C52.5095 22.7817 52.5972 21.9657 52.6875 21.125C52.7532 20.3438 52.819 19.5627 52.8867 18.7578C52.9241 18.1777 52.9615 17.5977 53 17C54.0931 16.9381 55.1862 16.8762 56.3125 16.8125C56.9506 16.8125 57.5887 16.8125 58.2461 16.8125C59.1143 16.9053 59.1143 16.9053 60 17C60.9281 17.6497 60.9281 17.6497 61.875 18.3125C62.2463 18.8694 62.6175 19.4262 63 20C63.495 21.485 63.495 21.485 64 23C64.1018 23.6652 64.2037 24.3303 64.3086 25.0156C64.3511 25.753 64.3937 26.4903 64.4375 27.25C64.4259 28.0466 64.4143 28.8433 64.4023 29.6641C64.2696 30.4349 64.1368 31.2058 64 32C63.476 32.9397 63.476 32.9397 62.9414 33.8984C62.4657 34.4682 61.9901 35.038 61.5 35.625C60.956 36.1793 60.412 36.7336 59.8516 37.3047C59.2405 37.8641 58.6295 38.4236 58 39C57.3271 39.6213 56.6542 40.2427 55.9609 40.8828C55.2726 41.499 54.5842 42.1152 53.875 42.75C52.9121 43.5776 52.9121 43.5776 51.9297 44.4219C51.2929 44.9427 50.6561 45.4634 50 46C49.295 46.4206 48.5901 46.8411 47.8638 47.2744C47.2487 47.8439 46.6337 48.4133 46 49C45.9433 49.8186 45.8866 50.6371 45.8281 51.4805C45.9673 52.3738 46.1066 53.2671 46.25 54.1875C46.3789 55.0886 46.5078 55.9896 46.6406 56.918C46.7592 57.605 46.8778 58.2921 47 59C47.5011 58.9708 48.0022 58.9417 48.5186 58.9116C49.2292 58.866 49.9397 58.8204 50.6719 58.7734C51.4704 58.7144 52.2689 58.6553 53.0916 58.5945C53.9688 58.5221 54.8461 58.4496 55.75 58.375C56.6589 58.2929 57.5677 58.2108 58.5042 58.1262C59.4374 58.0266 60.3706 57.9269 61.332 57.8242C62.7602 57.6432 62.7602 57.6432 64.2173 57.4585C65.1356 57.3072 66.0539 57.1559 67 57C68.2092 56.7015 68.2092 56.7015 69.4429 56.397C70.2081 56.1693 70.9733 55.9416 71.7617 55.707C72.9144 55.3401 72.9144 55.3401 74.0903 54.9658C74.8649 54.709 75.6395 54.4521 76.4375 54.1875C77.6226 53.7964 77.6226 53.7964 78.8315 53.3975C79.6619 53.1335 80.4922 52.8696 81.3477 52.5977C82.227 52.3323 83.1063 52.0669 84.0122 51.7935C84.9982 51.5316 85.9842 51.2698 87 51C87.5769 50.8724 88.1538 50.7449 88.7482 50.6135C89.3622 50.4882 89.9763 50.3629 90.6089 50.2339C91.2433 50.1108 91.8778 49.9878 92.5314 49.861C93.1798 49.7406 93.8281 49.6202 94.4961 49.4961C95.1462 49.3789 95.7962 49.2616 96.466 49.1409C97.118 49.0265 97.7699 48.9121 98.4417 48.7942C99.0936 48.6827 99.7456 48.5713 100.417 48.4565C101.063 48.3471 101.709 48.2377 102.375 48.125C103.327 47.9613 103.327 47.9613 104.297 47.7943C104.918 47.6884 105.538 47.5825 106.177 47.4734C106.783 47.3732 107.389 47.273 108.013 47.1698C108.594 47.0751 109.175 46.9804 109.773 46.8828C110.83 46.7115 111.886 46.5402 112.974 46.3638C113.973 46.2437 114.971 46.1237 116 46C117.585 45.9108 117.585 45.9108 119.202 45.8198C120.125 45.8793 121.049 45.9387 122 46C122.542 46.2653 123.084 46.5306 123.643 46.804C124.315 47.396 124.315 47.396 125 48C125.252 49.6416 125.252 49.6416 125.508 51.3164C125.545 51.9905 125.581 52.6646 125.619 53.3591C125.644 54.0862 125.669 54.8134 125.695 55.5625C125.733 56.3096 125.771 57.0567 125.81 57.8264C125.848 58.5978 125.886 59.3693 125.926 60.1641C125.975 61.3537 125.975 61.3537 126.026 62.5674C126.059 63.3701 126.091 64.1729 126.125 65C126.161 65.8028 126.198 66.6055 126.235 67.4326C126.272 68.2257 126.309 69.0188 126.348 69.8359C126.385 70.6074 126.423 71.3788 126.462 72.1736C126.515 73.2942 126.515 73.2942 126.57 74.4375C126.599 75.1646 126.629 75.8917 126.659 76.6409C126.689 77.315 126.719 77.9891 126.75 78.6836C126.833 79.778 126.915 80.8724 127 82C127.33 82.66 127.66 83.32 128 84C128.064 84.5794 128.127 85.1589 128.193 85.7559C128.219 86.4449 128.246 87.1339 128.273 87.8438C128.293 88.5953 128.312 89.3468 128.332 90.1211C128.346 90.9061 128.36 91.6912 128.375 92.5C128.412 93.285 128.45 94.0701 128.488 94.8789C128.5 95.6304 128.511 96.382 128.523 97.1562C128.49 97.8511 128.456 98.5459 128.421 99.2617C128.282 99.8354 128.143 100.409 128 101C127.209 101.567 126.417 102.134 125.602 102.719C124.743 102.812 123.885 102.904 123 103C122.576 102.664 122.152 102.327 121.715 101.98C121.479 101.327 121.243 100.673 121 100C120.898 99.1505 120.796 98.301 120.691 97.4258C120.628 95.8847 120.628 95.8847 120.562 94.3125C120.532 93.7472 120.501 93.182 120.469 92.5996C120.409 91.7092 120.409 91.7092 120.348 90.8008C120.3 90.1828 120.253 89.5649 120.204 88.9282C120.136 88.2919 120.069 87.6556 120 87C119.895 86.3521 119.791 85.7042 119.683 85.0366C119.56 84.3787 119.436 83.7208 119.309 83.043C119.112 82.0446 119.112 82.0446 118.911 81.0261C118.775 80.3575 118.64 79.6889 118.5 79C118.366 78.3333 118.231 77.6666 118.093 76.9797C117.963 76.3161 117.833 75.6525 117.699 74.9688C117.576 74.3113 117.453 73.6539 117.326 72.9766C117.218 72.3243 117.111 71.672 117 71C116.922 70.3477 116.844 69.6955 116.764 69.0234C116.674 68.0682 116.674 68.0682 116.582 67.0938C116.533 66.4866 116.484 65.8795 116.434 65.2539C116.374 64.3857 116.374 64.3857 116.312 63.5C116.247 62.4378 116.181 61.3756 116.113 60.2812C116.057 59.152 116.057 59.152 116 58C115.438 58.049 114.876 58.098 114.297 58.1484C113.456 58.2232 112.616 58.298 111.75 58.375C110.755 58.4691 109.76 58.5632 108.734 58.6602C108.155 58.7145 107.576 58.7688 106.979 58.8247C106.326 58.8826 105.673 58.9404 105 59C103.858 59.0887 103.858 59.0887 102.693 59.1792C101.872 59.2425 101.05 59.3058 100.203 59.3711C99.3544 59.4407 98.5056 59.5103 97.6311 59.582C96.7628 59.6581 95.8946 59.7341 95 59.8125C94.1208 59.895 93.2416 59.9775 92.3357 60.0625C91.476 60.154 90.6162 60.2455 89.7305 60.3398C88.906 60.4415 88.0814 60.5432 87.2319 60.6479C86.4954 60.7641 85.7589 60.8803 85 61C83.9649 61.29 82.9298 61.5801 81.8633 61.8789C80.6006 62.372 80.6006 62.372 79.3125 62.875C78.4914 63.223 77.6702 63.5711 76.8242 63.9297C75.8922 64.2829 74.9602 64.6361 74 65C73.3756 65.1679 72.7512 65.3358 72.1079 65.5088C71.4187 65.6735 70.7296 65.8381 70.0195 66.0078C69.3025 66.1714 68.5854 66.3351 67.8467 66.5037C67.1135 66.6675 66.3804 66.8312 65.625 67C64.9009 67.167 64.1767 67.334 63.4307 67.5061C62.3532 67.7564 62.3532 67.7564 61.2539 68.0117C60.5425 68.1772 59.8311 68.3427 59.0981 68.5132C58.4058 68.6738 57.7134 68.8345 57 69C56.3398 69.149 55.6797 69.2981 54.9995 69.4517C54.3693 69.5978 53.7391 69.744 53.0898 69.8945C52.4916 70.0486 51.8933 70.2026 51.2769 70.3613C50.4282 70.5847 50.4282 70.5847 49.5625 70.8125C48.5325 71.0664 47.5026 71.3204 46.4414 71.582C45.6357 72.05 44.8301 72.5179 44 73C43.6094 74.0287 43.2188 75.0573 42.8164 76.1172C42.6839 76.7373 42.5513 77.3574 42.4148 77.9963C42.2779 78.6575 42.141 79.3188 42 80C41.798 80.6722 41.596 81.3443 41.3879 82.0369C41.1645 82.7221 40.9411 83.4073 40.7109 84.1133C40.4918 84.8036 40.2727 85.4939 40.0469 86.2051C39.7143 87.2483 39.7143 87.2483 39.375 88.3125C39.1455 89.0273 38.9161 89.7421 38.6797 90.4785C38.3548 91.5043 38.3548 91.5043 38.0234 92.5508C37.8267 93.1661 37.63 93.7814 37.4272 94.4153C37.2863 94.9382 37.1453 95.4612 37 96C37 96.66 37 97.32 37 98C37.6987 97.9768 38.3973 97.9536 39.1172 97.9297C40.0273 97.9116 40.9373 97.8936 41.875 97.875C42.7799 97.8518 43.6848 97.8286 44.6172 97.8047C45.7967 97.9014 45.7967 97.9014 47 98C47.66 98.66 48.32 99.32 49 100C49 100.99 49 101.98 49 103C48.2523 103.544 47.5047 104.088 46.7344 104.648C45.7495 105.218 44.7647 105.788 43.75 106.375C42.7755 106.94 41.8009 107.504 40.7969 108.086C39.8739 108.718 38.9509 109.349 38 110C37.2755 110.852 36.5511 111.704 35.8047 112.582C35.2091 113.38 34.6136 114.178 34 115C32.7006 116.145 32.7006 116.145 31.375 117.312C30.5913 117.869 29.8075 118.426 29 119C28.34 119 27.68 119 27 119C26.7113 119.949 26.4225 120.897 26.125 121.875C25.7537 122.906 25.3825 123.938 25 125C24.3194 125.474 23.6388 125.949 22.9375 126.438C22.2981 126.623 21.6587 126.809 21 127C20.67 126.67 20.34 126.34 20 126C19.8886 125.037 19.8886 125.037 19.7749 124.055C19.7432 122.812 19.7432 122.812 19.7109 121.543C19.7209 120.635 19.7309 119.726 19.7412 118.791C19.8266 117.87 19.912 116.949 20 116C20.3253 114.802 20.3253 114.802 20.6572 113.581C20.9482 112.808 21.2392 112.035 21.5391 111.238C21.8695 110.441 22.1999 109.644 22.5403 108.823C22.8982 107.995 23.2562 107.166 23.625 106.312C23.9875 105.419 24.3499 104.525 24.7234 103.605C25.0892 102.676 25.4551 101.746 25.832 100.789C26.1989 99.8419 26.5658 98.8948 26.9438 97.9189C27.2924 96.9557 27.6409 95.9924 28 95C28.3034 94.0264 28.6068 93.0529 28.9194 92.0498C29.1974 91.0717 29.4753 90.0937 29.7617 89.0859C30.0245 88.11 30.2873 87.134 30.5581 86.1284C30.8071 85.1579 31.056 84.1874 31.3125 83.1875C31.5537 82.2234 31.7949 81.2594 32.0435 80.2661C32.2727 79.3224 32.502 78.3786 32.7383 77.4062C32.9531 76.491 33.1679 75.5758 33.3892 74.6328C33.5907 73.764 33.7923 72.8952 34 72C34.19 71.2059 34.38 70.4119 34.5757 69.5938C34.7505 68.8512 34.9253 68.1087 35.1055 67.3438C35.3412 66.2882 35.3412 66.2882 35.5818 65.2114C35.7198 64.5435 35.8578 63.8756 36 63.1875C36.1167 62.5467 36.2335 61.9058 36.3538 61.2456C36.4484 60.636 36.5431 60.0265 36.6406 59.3984C36.7592 58.277 36.8778 57.1555 37 56C37.0232 54.5034 37.0232 54.5034 37.0469 52.9766C36.9489 52.0974 36.8509 51.2183 36.75 50.3125C36.5502 49.5404 36.3504 48.7682 36.1445 47.9727C35.7668 47.3217 35.3891 46.6707 35 46C34.3026 45.5037 33.6052 45.0074 32.8867 44.4961C32.0785 44.0849 31.2702 43.6737 30.4375 43.25C29.6344 42.8891 28.8313 42.5281 28.0039 42.1562C27.3426 41.7747 26.6813 41.3931 26 41C25.6287 39.9275 25.2575 38.855 24.875 37.75C24.9163 36.8425 24.9575 35.935 25 35C25.33 34.67 25.66 34.34 26 34C27.0725 33.9587 28.145 33.9175 29.25 33.875C29.8752 33.8827 30.5004 33.8905 31.1445 33.8984C32.063 33.9487 32.063 33.9487 33 34C33.9694 34.165 34.9388 34.33 35.9375 34.5C36.6181 34.665 37.2987 34.83 38 35C37.67 34.01 37.34 33.02 37 32C36.9562 30.9275 36.9123 29.855 36.8672 28.75C36.8659 28.1416 36.8646 27.5331 36.8633 26.9062C36.8671 26.2772 36.871 25.6481 36.875 25C36.8692 24.0564 36.8692 24.0564 36.8633 23.0938C36.8646 22.4853 36.8659 21.8769 36.8672 21.25C36.911 20.1775 36.9548 19.105 37 18C37.33 17.01 37.66 16.02 38 15Z" fill="black"/>
</g>
<defs>
<clipPath id="clip0_7_859">
<rect width="456" height="2405" fill="white" transform="translate(-152 -297)"/>
</clipPath>
</defs>
</svg>
