<svg width="152" height="190" viewBox="0 0 152 190" fill="none" xmlns="http://www.w3.org/2000/svg">
<g clip-path="url(#clip0_7_859)">
<path d="M90 39C91.572 38.7892 91.572 38.7892 93.1758 38.5742C93.742 38.5408 94.3082 38.5073 94.8916 38.4729C95.7806 38.4554 95.7806 38.4554 96.6875 38.4375C97.2969 38.4419 97.9063 38.4464 98.5342 38.4509C99.1842 38.48 99.8342 38.5091 100.504 38.5391C101.203 38.5961 101.902 38.6531 102.622 38.7119C103.406 38.807 104.191 38.9021 105 39C106.407 39.2277 106.407 39.2277 107.843 39.46C109.358 39.7389 109.358 39.7389 110.902 40.0234C111.929 40.2304 112.957 40.4374 114.015 40.6506C115.554 40.9783 115.554 40.9783 117.125 41.3125C118.121 41.5251 119.117 41.7377 120.143 41.9568C121.089 42.1734 122.034 42.3901 123.008 42.6133C123.887 42.8371 124.767 43.0609 125.673 43.2915C126.825 43.6422 126.825 43.6422 128 44C128.59 44.2531 129.18 44.5063 129.788 44.7671C130.247 45.0231 130.707 45.2792 131.18 45.543C131.78 46.0238 132.381 46.5046 133 47C133 47.66 133 48.32 133 49C131.453 49.2784 131.453 49.2784 129.875 49.5625C129.232 49.6553 128.589 49.7481 127.926 49.8438C127.29 49.8953 126.655 49.9469 126 50C125.031 49.8556 124.061 49.7113 123.062 49.5625C122.052 49.3769 121.041 49.1912 120 49C119.313 48.884 118.626 48.768 117.918 48.6484C117.203 48.5788 116.487 48.5092 115.75 48.4375C114.737 48.4491 114.737 48.4491 113.703 48.4609C113.141 48.6388 112.579 48.8167 112 49C111.528 49.7618 111.528 49.7618 111.047 50.5391C110.866 51.2068 110.686 51.8745 110.5 52.5625C110.397 53.2895 110.294 54.0166 110.188 54.7656C110.095 55.8716 110.095 55.8716 110 57C109.897 57.6548 109.794 58.3097 109.688 58.9844C109.595 59.8893 109.595 59.8893 109.5 60.8125C109.748 62.3903 109.748 62.3903 110 64C110.862 64.5195 111.725 65.039 112.613 65.5742C113.157 65.82 113.702 66.0658 114.262 66.3191C114.836 66.5438 115.409 66.7685 116 67C117.645 67.5259 117.645 67.5259 119.324 68.0625C120.434 68.3719 121.544 68.6813 122.688 69C123.255 69.1521 123.823 69.3042 124.408 69.4609C124.958 69.6182 125.508 69.7755 126.074 69.9375C127.522 70.4634 127.522 70.4634 129 71C129.646 71.495 130.292 71.99 130.957 72.5C131.301 72.995 131.645 73.49 132 74C131.505 74.99 131.505 74.99 131 76C129.575 76.0058 129.575 76.0058 128.121 76.0117C127.239 75.942 127.239 75.942 126.338 75.8708C125.711 75.8103 125.084 75.7498 124.438 75.6875C123.805 75.6341 123.173 75.5807 122.521 75.5256C121.891 75.4708 121.262 75.4159 120.613 75.3594C119.994 75.2994 119.375 75.2395 118.737 75.1777C118.164 75.1191 117.591 75.0604 117 75C116.107 74.902 115.213 74.8041 114.293 74.7031C113.578 74.6155 112.862 74.5278 112.125 74.4375C111.094 74.2931 110.062 74.1488 109 74C109.231 74.5711 109.461 75.1421 109.699 75.7305C110.188 76.9467 110.188 76.9467 110.688 78.1875C111.229 79.5507 111.229 79.5507 111.781 80.9414C112.183 81.9507 112.586 82.9601 113 84C113.329 84.8022 113.329 84.8022 113.664 85.6206C113.888 86.1673 114.113 86.7141 114.344 87.2773C114.567 87.8288 114.791 88.3803 115.021 88.9485C115.241 89.5017 115.461 90.055 115.688 90.625C115.901 91.1789 116.115 91.7328 116.334 92.3035C116.536 92.8453 116.738 93.3871 116.945 93.9453C117.293 94.9534 117.641 95.9614 118 97C118.224 97.8018 118.449 98.6036 118.68 99.4297C118.806 100.113 118.932 100.796 119.062 101.5C119.122 102.42 119.122 102.42 119.184 103.359C119.123 103.901 119.062 104.442 119 105C118.546 105.908 118.093 106.815 117.625 107.75C116.759 108.493 115.892 109.235 115 110C114.366 110.358 113.732 110.717 113.078 111.086C112.351 111.429 111.624 111.772 110.875 112.125C110.099 112.451 109.323 112.777 108.523 113.113C107.691 113.406 106.858 113.699 106 114C105.085 114.22 104.17 114.441 103.227 114.668C102.327 114.881 101.427 115.093 100.5 115.312C99.6711 115.556 98.8423 115.8 97.9883 116.051C97.3321 116.364 96.676 116.677 96 117C95.5669 117.99 95.1337 118.98 94.6875 120C94.6811 120.614 94.6746 121.227 94.668 121.859C94.7775 122.566 94.8871 123.272 95 124C95.223 124.83 95.446 125.66 95.6758 126.516C95.9478 127.418 96.2198 128.32 96.5 129.25C96.7991 130.08 97.0981 130.91 97.4062 131.766C97.6022 132.833 97.7981 133.9 98 135C97.985 135.789 97.97 136.578 97.9546 137.391C97.8845 138.289 97.8144 139.188 97.7422 140.113C97.6368 141.067 97.5314 142.021 97.4229 143.003C97.2135 144.487 97.2135 144.487 97 146C96.8321 146.982 96.6642 147.965 96.4912 148.977C96.3008 149.963 96.1103 150.949 95.9141 151.965C95.7052 152.949 95.4964 153.933 95.2812 154.947C95.0647 155.934 94.8481 156.921 94.625 157.938C94.4162 158.951 94.2073 159.965 93.9922 161.01C93.7808 161.985 93.5694 162.96 93.3516 163.965C93.1642 164.837 92.9768 165.71 92.7837 166.609C92.5251 167.398 92.2665 168.187 92 169C91.5184 169.764 91.0367 170.528 90.5405 171.315C90.0322 171.871 89.5238 172.427 89 173C88.34 173 87.68 173 87 173C86.9884 172.068 86.9768 171.136 86.9648 170.176C86.9574 169.261 86.9574 169.261 86.9497 168.328C86.9457 167.663 86.9417 166.998 86.9375 166.312C86.9335 165.63 86.9294 164.947 86.9253 164.244C86.9255 163.55 86.9256 162.856 86.9258 162.141C86.9317 161.44 86.9377 160.739 86.9438 160.018C86.9624 159.352 86.9809 158.686 87 158C87.0967 156.902 87.1934 155.803 87.293 154.672C87.4025 153.646 87.5121 152.62 87.625 151.562C87.7662 149.979 87.7662 149.979 87.9102 148.363C87.9398 147.253 87.9695 146.144 88 145C87.9509 144.391 87.9017 143.782 87.8511 143.154C87.7752 142.519 87.6993 141.884 87.6211 141.23C87.5329 140.58 87.4447 139.93 87.3538 139.26C87.2576 138.597 87.1615 137.934 87.0625 137.25C86.967 136.578 86.8716 135.906 86.7732 135.214C86.6805 134.535 86.5877 133.856 86.4922 133.156C86.3602 132.128 86.3602 132.128 86.2256 131.078C86.1511 130.392 86.0767 129.707 86 129C85.9513 128.325 85.9027 127.649 85.8525 126.953C85.8213 126.278 85.79 125.602 85.7578 124.906C85.7306 123.884 85.7306 123.884 85.7029 122.84C85.6978 122.151 85.6927 121.461 85.6875 120.75C85.6934 120.049 85.6993 119.347 85.7053 118.625C85.7332 117.554 85.7332 117.554 85.7617 116.461C85.7944 115.734 85.8271 115.006 85.8608 114.257C85.9068 113.512 85.9527 112.767 86 112C86.0575 111.232 86.115 110.464 86.1743 109.673C86.247 108.886 86.3197 108.1 86.3945 107.289C86.4868 106.485 86.579 105.68 86.6741 104.851C86.7816 104.034 86.8892 103.217 87 102.375C87.1134 101.557 87.2267 100.738 87.3435 99.895C87.4828 99.0583 87.6221 98.2215 87.7656 97.3594C87.9377 96.4989 88.1098 95.6385 88.2871 94.752C88.5224 93.8438 88.7576 92.9357 89 92C89.3538 90.999 89.7077 89.9981 90.0723 88.9668C90.4764 87.931 90.8805 86.8953 91.2969 85.8281C91.6978 84.7951 92.0987 83.7621 92.5117 82.6978C92.9204 81.6837 93.329 80.6697 93.75 79.625C94.1947 78.6561 94.6395 77.6872 95.0977 76.689C95.4728 75.7732 95.8479 74.8575 96.2344 73.9141C96.4929 73.0539 96.7515 72.1936 97.0178 71.3074C97.009 70.1652 97.009 70.1652 97 69C96.4727 68.4068 95.9454 67.8136 95.4021 67.2024C94.6339 66.7012 93.8657 66.2 93.0742 65.6836C92.2223 65.2305 91.3704 64.7774 90.4927 64.3105C89.6701 63.8781 88.8475 63.4456 88 63C87.421 62.5366 86.8421 62.0732 86.2456 61.5957C85.7637 61.1297 85.2817 60.6637 84.7852 60.1836C84.3269 59.7292 83.8686 59.2748 83.3965 58.8066C82.7362 58.1289 82.7362 58.1289 82.0625 57.4375C81.5952 56.9818 81.1279 56.5261 80.6465 56.0566C80.1972 55.6035 79.748 55.1504 79.2852 54.6836C78.8802 54.2399 78.4753 53.7962 78.0581 53.3391C77.7089 52.8972 77.3598 52.4553 77 52C76.5295 51.1054 76.059 50.2108 75.5742 49.2891C75.3847 48.5337 75.1952 47.7783 75 47C75.5775 46.3194 76.155 45.6388 76.75 44.9375C77.2321 44.6217 77.7142 44.3059 78.2109 43.9805C79.0965 43.4951 79.0965 43.4951 80 43C80.6729 42.6249 81.3458 42.2498 82.0391 41.8633C82.8099 41.4959 83.5808 41.1285 84.375 40.75C85.2554 40.4264 86.1359 40.1029 87.043 39.7695C88.5067 39.3886 88.5067 39.3886 90 39ZM93 44C92.0306 44.5362 91.0612 45.0725 90.0625 45.625C89.3819 46.4087 88.7013 47.1925 88 48C87.7203 48.7966 87.4405 49.5933 87.1523 50.4141C87.1021 51.2674 87.0518 52.1208 87 53C87.4641 53.6548 87.9281 54.3097 88.4062 54.9844C89.0972 55.567 89.7881 56.1497 90.5 56.75C91.2348 57.343 91.9695 57.9359 92.7266 58.5469C93.4768 59.0264 94.227 59.5059 95 60C95.6677 60.232 96.3355 60.4641 97.0234 60.7031C97.6345 60.8011 98.2455 60.8991 98.875 61C99.9062 61 100.938 61 102 61C102.66 60.67 103.32 60.34 104 60C104.099 59.1363 104.199 58.2727 104.301 57.3828C104.305 56.3077 104.309 55.2327 104.312 54.125C104.329 53.0551 104.346 51.9852 104.363 50.8828C104.243 49.9315 104.124 48.9802 104 48C103.368 47.097 103.368 47.097 102.723 46.1758C102.154 45.7878 101.586 45.3998 101 45C100.384 44.7847 99.7677 44.5695 99.1328 44.3477C98.1389 44.2065 98.1389 44.2065 97.125 44.0625C96.0751 43.9678 96.0751 43.9678 95.0039 43.8711C94.012 43.9349 94.012 43.9349 93 44ZM101 80C100.718 80.5692 100.437 81.1384 100.146 81.7249C99.8698 82.5182 99.5934 83.3115 99.3086 84.1289C98.8513 85.435 98.8513 85.435 98.3848 86.7676C98.0722 87.6899 97.7596 88.6122 97.4375 89.5625C97.121 90.4578 96.8046 91.353 96.4785 92.2754C96.1749 93.1552 95.8714 94.035 95.5586 94.9414C95.2787 95.8032 94.9988 96.665 94.7104 97.553C94.3588 98.7643 94.3588 98.7643 94 100C93.8442 100.714 93.6884 101.428 93.5278 102.164C93.4271 102.79 93.3264 103.417 93.2227 104.062C93.1492 105.032 93.0757 106.001 93 107C93.33 107.474 93.66 107.949 94 108.438C94.66 108.623 95.32 108.809 96 109C97.0931 109.103 98.1862 109.206 99.3125 109.312C100.225 109.287 100.225 109.287 101.156 109.262C101.765 109.175 102.373 109.089 103 109C103.567 108.8 104.134 108.6 104.719 108.395C105.245 108.141 105.771 107.887 106.312 107.625C107.199 107.089 108.086 106.553 109 106C109.66 105.34 110.32 104.68 111 104C111.124 103.031 111.248 102.061 111.375 101.062C111.348 100.138 111.348 100.138 111.32 99.1953C111.215 98.4709 111.109 97.7464 111 97C110.75 96.1105 110.5 95.2211 110.242 94.3047C109.915 93.3585 109.587 92.4123 109.25 91.4375C108.886 90.5016 108.523 89.5658 108.148 88.6016C107.769 87.743 107.39 86.8845 107 86C106.642 85.3271 106.283 84.6542 105.914 83.9609C105.571 83.417 105.228 82.873 104.875 82.3125C104.256 81.5494 103.637 80.7862 103 80C102.34 80 101.68 80 101 80Z" fill="black"/>
<path d="M42 31C43.4811 31.0019 43.4811 31.0019 44.9922 31.0039C45.9848 31.3326 46.9773 31.6613 48 32C48.8675 32.7051 49.7351 33.4102 50.6289 34.1367C51.0325 34.5858 51.4362 35.0349 51.8521 35.4976C52.2309 35.9934 52.6097 36.4892 53 37C53.516 37.7882 53.516 37.7882 54.0425 38.5923C54.3675 39.1458 54.6925 39.6993 55.0273 40.2695C55.3417 40.8441 55.6561 41.4187 55.98 42.0107C56.296 42.6053 56.6119 43.1999 56.9375 43.8125C57.2767 44.4342 57.6159 45.0558 57.9653 45.6963C58.4794 46.622 58.4794 46.622 59.0039 47.5664C59.3392 48.1621 59.6745 48.7578 60.02 49.3716C60.3434 49.909 60.6668 50.4463 61 51C61.8798 52.1582 61.8798 52.1582 62.7773 53.3398C63.3046 53.9702 63.8318 54.6005 64.375 55.25C64.8481 55.8546 65.3212 56.4591 65.8086 57.082C66.3983 58.0314 66.3983 58.0314 67 59C67.2797 59.7876 67.5595 60.5752 67.8477 61.3867C68.0423 62.2285 68.237 63.0702 68.4375 63.9375C68.56 64.7844 68.6824 65.6313 68.8086 66.5039C68.9033 67.7395 68.9033 67.7395 69 69C69.0322 69.7309 69.0645 70.4618 69.0977 71.2148C69.0654 71.9277 69.0332 72.6405 69 73.375C68.893 74.0995 68.786 74.8239 68.6758 75.5703C68.3413 76.773 68.3413 76.773 68 78C67.5811 79.008 67.1621 80.0161 66.7305 81.0547C66.481 81.584 66.2316 82.1133 65.9746 82.6587C65.7149 83.1838 65.4551 83.709 65.1875 84.25C64.6861 85.2245 64.1846 86.1991 63.668 87.2031C63.1175 88.1261 62.5671 89.0491 62 90C61.2472 90.8585 60.4944 91.717 59.7188 92.6016C59.1516 93.393 58.5844 94.1845 58 95C58.0993 95.6832 58.1985 96.3664 58.3008 97.0703C58.6346 97.7484 58.9685 98.4264 59.3125 99.125C59.6206 99.9049 59.9287 100.685 60.2461 101.488C60.4949 102.317 60.7437 103.146 61 104C61.0322 104.86 61.0645 105.72 61.0977 106.605C61.0242 107.499 60.9507 108.392 60.875 109.312C60.6855 110.707 60.6855 110.707 60.4922 112.129C60.3298 113.076 60.1673 114.024 60 115C59.8582 115.937 59.7164 116.874 59.5703 117.84C59.3821 118.8 59.1939 119.761 59 120.75C58.7383 121.735 58.4766 122.72 58.207 123.734C57.8087 124.812 57.4104 125.89 57 127C56.5425 127.954 56.5425 127.954 56.0757 128.928C55.7246 129.596 55.3735 130.264 55.0117 130.953C54.6334 131.625 54.255 132.297 53.8652 132.989C53.4766 133.653 53.0879 134.316 52.6875 135C52.3208 135.635 51.954 136.27 51.5762 136.925C51.2043 137.527 50.8324 138.129 50.4492 138.75C49.8679 139.587 49.8679 139.587 49.2749 140.441C48.8542 140.956 48.4335 141.47 48 142C47.2626 142.725 47.2626 142.725 46.5103 143.465C45.7414 144.07 45.7414 144.07 44.957 144.688C43.9812 145.121 43.0054 145.554 42 146C41.2768 145.539 40.5537 145.077 39.8086 144.602C39.2118 143.743 38.6149 142.885 38 142C37.496 141.141 36.992 140.283 36.4727 139.398C36.0073 138.401 35.542 137.403 35.0625 136.375C34.8116 135.813 34.5607 135.251 34.3022 134.672C34.0465 134.075 33.7908 133.478 33.5273 132.863C33.2745 132.238 33.0217 131.612 32.7612 130.967C32.3844 129.993 32.3844 129.993 32 129C31.7501 128.337 31.5002 127.673 31.2427 126.99C30.9989 126.306 30.7551 125.622 30.5039 124.918C30.2713 124.21 30.0387 123.501 29.7991 122.772C29.5766 122.043 29.3542 121.314 29.125 120.562C28.8 119.447 28.8 119.447 28.4685 118.308C28.2726 117.539 28.0768 116.769 27.875 115.977C27.7061 115.179 27.5373 114.381 27.3633 113.56C27.2434 112.715 27.1235 111.87 27 111C26.9678 110.073 26.9355 109.146 26.9023 108.19C26.9139 107.228 26.9255 106.265 26.9375 105.273C26.9638 104.308 26.9902 103.342 27.0173 102.347C27.0529 101.387 27.0884 100.427 27.125 99.4375C27.1612 98.4948 27.1973 97.5521 27.2346 96.5808C27.2513 95.6789 27.268 94.7769 27.2852 93.8477C27.2724 92.9996 27.2597 92.1516 27.2466 91.2778C27.1652 90.5261 27.0838 89.7745 27 89C26.7859 88.412 26.5717 87.8241 26.3511 87.2183C26.0689 86.7324 25.7868 86.2466 25.4961 85.7461C24.858 84.9636 24.2199 84.1812 23.5625 83.375C22.9244 82.7846 22.2863 82.1942 21.6289 81.5859C21.0914 81.0626 20.5538 80.5392 20 80C19.8053 79.3916 19.6105 78.7833 19.4099 78.1565C19.2746 77.4449 19.1394 76.7332 19 76C18.9446 75.3439 18.8891 74.6879 18.832 74.012C18.8256 73.3184 18.8191 72.6248 18.8125 71.9102C18.8228 71.1227 18.8331 70.3352 18.8438 69.5239C18.8953 68.691 18.9469 67.8581 19 67C19.1134 66.1529 19.2269 65.3058 19.3438 64.4331C19.4984 63.567 19.6531 62.7009 19.8125 61.8086C19.9964 60.9303 20.1804 60.0519 20.3699 59.147C20.5778 58.2528 20.7858 57.3587 21 56.4375C21.3322 55.0422 21.3322 55.0422 21.6711 53.6187C21.9099 52.7094 22.1486 51.8001 22.3945 50.8633C22.6519 50.0056 22.9092 49.1479 23.1743 48.2642C23.4468 47.517 23.7193 46.7698 24 46C24.5814 45.0448 25.1627 44.0896 25.7617 43.1055C26.3972 42.4519 27.0327 41.7984 27.6875 41.125C28.7104 40.3264 28.7104 40.3264 29.7539 39.5117C30.4951 39.0129 31.2363 38.514 32 38C32.834 37.3258 33.668 36.6516 34.5273 35.957C35.3846 35.2906 36.2418 34.6241 37.125 33.9375C37.9113 33.3484 38.6977 32.7593 39.5078 32.1523C40.3302 31.7721 41.1527 31.3918 42 31ZM40 43C39.0467 43.6845 39.0467 43.6845 38.0742 44.3828C37.4516 44.9784 36.829 45.5739 36.1875 46.1875C35.6242 46.7998 35.0609 47.4121 34.4805 48.043C33.9919 48.6888 33.5034 49.3346 33 50C32.6133 50.6845 32.2266 51.369 31.8281 52.0742C31.5548 52.7097 31.2816 53.3452 31 54C30.8556 54.8662 30.7113 55.7325 30.5625 56.625C30.7069 57.4087 30.8512 58.1925 31 59C31.678 59.3751 32.3561 59.7502 33.0547 60.1367C34.0266 60.4216 34.9986 60.7065 36 61C36.5784 61.0567 37.1568 61.1134 37.7527 61.1719C38.6814 61.2009 38.6814 61.2009 39.6289 61.2305C40.2715 61.2285 40.9141 61.2266 41.5762 61.2246C42.2317 61.2124 42.8871 61.2001 43.5625 61.1875C44.2219 61.1869 44.8812 61.1862 45.5605 61.1855C46.2019 61.1797 46.8432 61.1739 47.5039 61.168C48.1112 61.1504 48.7185 61.1328 49.3442 61.1147C49.8906 61.0769 50.437 61.039 51 61C51.8134 60.8311 52.6268 60.6623 53.4648 60.4883C53.9714 60.3271 54.478 60.166 55 60C55.009 59.5153 55.018 59.0306 55.0273 58.5312C54.9977 57.8609 54.968 57.1906 54.9375 56.5C54.846 55.7768 54.7545 55.0537 54.6602 54.3086C54.4423 53.5468 54.2245 52.7849 54 52C53.545 51.2485 53.0899 50.497 52.6211 49.7227C52.0449 49.0098 51.4687 48.297 50.875 47.5625C49.9275 46.588 49.9275 46.588 48.9609 45.5938C48.3138 45.0678 47.6667 44.5419 47 44C46.4148 43.6803 45.8295 43.3606 45.2266 43.0312C44.6568 42.8766 44.087 42.7219 43.5 42.5625C42.9289 42.5393 42.3579 42.5161 41.7695 42.4922C41.1856 42.6598 40.6016 42.8273 40 43ZM54 65C53.2263 65.0673 53.2263 65.0673 52.437 65.136C51.7746 65.2007 51.1122 65.2654 50.4297 65.332C49.6975 65.4087 48.9653 65.4854 48.2109 65.5645C47.0546 65.6872 47.0546 65.6872 45.875 65.8125C45.1273 65.8828 44.3797 65.953 43.6094 66.0254C42.8695 66.106 42.1295 66.1865 41.3672 66.2695C40.2704 66.4196 40.2704 66.4196 39.1514 66.5728C38.0864 66.7842 38.0864 66.7842 37 67C35.9699 67.3333 35.9699 67.3333 34.9189 67.6733C34.2883 67.9294 33.6576 68.1854 33.0078 68.4492C32.0152 68.961 31.0227 69.4727 30 70C29.67 70.66 29.34 71.32 29 72C28.933 72.5955 28.8659 73.1911 28.7969 73.8047C28.7814 74.4879 28.7659 75.1711 28.75 75.875C28.7242 76.553 28.6984 77.2311 28.6719 77.9297C28.7802 78.6129 28.8884 79.2961 29 80C29.3829 80.709 29.7657 81.418 30.1602 82.1484C30.7673 82.7595 31.3745 83.3705 32 84C32.8701 84.3455 33.7402 84.6909 34.6367 85.0469C35.6435 85.2789 36.6502 85.5109 37.6875 85.75C38.7561 85.982 39.8248 86.2141 40.9258 86.4531C41.9403 86.6336 42.9548 86.8141 44 87C44.7773 87.1186 45.5546 87.2372 46.3555 87.3594C47.0219 87.4058 47.6884 87.4522 48.375 87.5C48.995 87.4716 49.6151 87.4433 50.2539 87.4141C50.8301 87.2774 51.4063 87.1408 52 87C52.5659 86.6984 53.1318 86.3967 53.7148 86.0859C54.5057 85.4865 54.5057 85.4865 55.3125 84.875C55.7843 84.4148 56.2561 83.9546 56.7422 83.4805C57.1573 82.9919 57.5723 82.5034 58 82C58.6394 81.0719 59.2788 80.1438 59.9375 79.1875C60.2881 78.1356 60.6387 77.0838 61 76C61.0425 75.322 61.0851 74.6439 61.1289 73.9453C61.0864 73.2415 61.0438 72.5377 61 71.8125C60.8866 71.1383 60.7731 70.4641 60.6562 69.7695C60.4397 69.1856 60.2231 68.6016 60 68C58.7625 67.01 58.7625 67.01 57.5 66C56.2625 65.505 56.2625 65.505 55 65C54.67 65 54.34 65 54 65ZM37 93C36.6081 93.9075 36.2163 94.815 35.8125 95.75C35.6591 96.3907 35.5057 97.0313 35.3477 97.6914C35.2329 98.4532 35.1182 99.2151 35 100C34.9368 100.896 34.8737 101.792 34.8086 102.715C34.7893 103.696 34.7699 104.677 34.75 105.688C34.7693 106.716 34.7887 107.745 34.8086 108.805C34.8718 109.859 34.9349 110.914 35 112C35.1147 113.054 35.2295 114.109 35.3477 115.195C35.5011 116.224 35.6545 117.253 35.8125 118.312C35.9955 119.295 36.1786 120.277 36.3672 121.289C36.576 122.184 36.7848 123.078 37 124C37.3442 125.125 37.3442 125.125 37.6953 126.273C37.9402 126.905 38.1852 127.537 38.4375 128.188C39.2109 129.58 39.2109 129.58 40 131C40.99 131.33 41.98 131.66 43 132C43.9694 131.402 44.9388 130.804 45.9375 130.188C46.4557 129.72 46.9739 129.252 47.5078 128.77C48.2464 127.894 48.2464 127.894 49 127C49.4099 126.282 49.8198 125.564 50.2422 124.824C50.5954 124.016 50.9486 123.208 51.3125 122.375C51.6193 121.511 51.9261 120.648 52.2422 119.758C52.4923 118.848 52.7423 117.938 53 117C53.1882 116.049 53.3764 115.097 53.5703 114.117C53.6915 113.171 53.8127 112.225 53.9375 111.25C53.9904 110.336 54.0432 109.422 54.0977 108.48C54.0654 107.662 54.0332 106.843 54 106C53.7815 105.066 53.7815 105.066 53.5586 104.113C53.333 103.602 53.1074 103.09 52.875 102.562C52.2563 101.717 51.6375 100.871 51 100C50.2369 99.2781 49.4737 98.5562 48.6875 97.8125C47.8006 97.2144 46.9137 96.6162 46 96C45.4882 95.6996 44.9765 95.3993 44.4492 95.0898C43.9297 94.8127 43.4102 94.5355 42.875 94.25C41.9262 93.8375 40.9775 93.425 40 93C39.01 93 38.02 93 37 93Z" fill="black"/>
</g>
<defs>
<clipPath id="clip0_7_859">
<rect width="456" height="2405" fill="white" transform="translate(-304 -826)"/>
</clipPath>
</defs>
</svg>
