<svg width="152" height="173" viewBox="0 0 152 173" fill="none" xmlns="http://www.w3.org/2000/svg">
<g clip-path="url(#clip0_7_859)">
<path d="M91 57C91.99 57.33 92.98 57.66 94 58C94.6187 59.485 94.6187 59.485 95.25 61C95.3995 61.6381 95.5491 62.2762 95.7031 62.9336C95.8501 63.9565 95.8501 63.9565 96 65C96.0361 65.651 96.0722 66.302 96.1094 66.9727C96.0733 67.6623 96.0372 68.352 96 69.0625C95.893 69.805 95.786 70.5475 95.6758 71.3125C95.4528 72.1994 95.2298 73.0863 95 74C94.8084 74.5839 94.6168 75.1679 94.4194 75.7695C94.1921 76.4025 93.9647 77.0354 93.7305 77.6875C93.481 78.3268 93.2316 78.9661 92.9746 79.6248C92.7149 80.2642 92.4551 80.9037 92.1875 81.5625C91.9394 82.1949 91.6912 82.8272 91.4355 83.4788C91.1822 84.0646 90.9289 84.6504 90.668 85.2539C90.1175 86.1601 89.5671 87.0663 89 88C87.9114 88.1992 87.9114 88.1992 86.8008 88.4023C86.2065 88.2696 85.6123 88.1368 85 88C85.049 86.8772 85.098 85.7545 85.1484 84.5977C85.2004 83.5153 85.2004 83.5153 85.2534 82.4111C85.2935 81.6361 85.3337 80.861 85.375 80.0625C85.419 79.2836 85.463 78.5047 85.5083 77.7021C85.5815 76.5444 85.5815 76.5444 85.6562 75.3633C85.7104 74.6074 85.7645 73.8515 85.8203 73.0728C85.8796 72.3887 85.9389 71.7047 86 71C86.1341 70.0242 86.2681 69.0484 86.4062 68.043C86.5609 67.2863 86.7156 66.5296 86.875 65.75C87.049 65.0874 87.223 64.4248 87.4023 63.7422C87.5996 63.1673 87.7968 62.5923 88 62C88.4744 60.9688 88.9487 59.9375 89.4375 58.875C89.9531 58.2563 90.4688 57.6375 91 57Z" fill="black"/>
<path d="M89 26C89.8178 26.0383 90.6357 26.0767 91.4783 26.1162C92.1661 26.1926 92.8539 26.269 93.5625 26.3477C95.2641 26.6706 95.2641 26.6706 97 27C97.8753 27.2398 98.7505 27.4795 99.6523 27.7266C100.783 28.1713 100.783 28.1713 101.938 28.625C102.775 28.9834 103.613 29.3417 104.477 29.7109C105.726 30.349 105.726 30.349 107 31C107.812 31.5079 108.624 32.0158 109.461 32.5391C110.237 33.1037 111.013 33.6683 111.812 34.25C112.542 34.8571 113.272 35.4643 114.023 36.0898C115.002 37.0354 115.002 37.0354 116 38C116.793 38.9301 116.793 38.9301 117.602 39.8789C118.042 40.517 118.483 41.1551 118.938 41.8125C119.31 42.4893 119.683 43.166 120.066 43.8633C120.374 44.5684 120.683 45.2735 121 46C121.257 46.7154 121.513 47.4309 121.777 48.168C121.975 48.9375 122.172 49.7071 122.375 50.5C122.508 51.3443 122.641 52.1887 122.777 53.0586C122.851 54.0293 122.924 54.9999 123 56C123.018 56.5725 123.036 57.145 123.055 57.7349C123.061 58.6569 123.061 58.6569 123.066 59.5977C123.047 60.5624 123.047 60.5624 123.027 61.5466C122.998 62.2119 122.968 62.8771 122.938 63.5625C122.892 64.2374 122.846 64.9123 122.799 65.6077C122.734 66.2966 122.669 66.9855 122.602 67.6953C122.472 68.7496 122.472 68.7496 122.341 69.8252C122.228 70.5429 122.116 71.2606 122 72C121.851 72.7383 121.703 73.4766 121.55 74.2373C121.376 74.9814 121.202 75.7255 121.023 76.4922C120.828 77.2353 120.632 77.9783 120.43 78.7439C120.226 79.4678 120.022 80.1917 119.812 80.9375C119.629 81.6105 119.445 82.2834 119.256 82.9768C119.054 83.6329 118.852 84.2889 118.645 84.9648C118.403 85.6196 118.161 86.2744 117.912 86.949C117.46 87.9642 117.46 87.9642 117 89C116.41 90.1168 116.41 90.1168 115.809 91.2561C115.343 92.0172 114.878 92.7783 114.398 93.5625C113.874 94.3133 113.349 95.0641 112.809 95.8376C112.212 96.5512 111.615 97.2648 111 98C110.311 98.6253 109.622 99.2506 108.912 99.8948C108.164 100.477 107.415 101.06 106.645 101.66C105.856 102.227 105.068 102.793 104.256 103.377C103.046 104.211 103.046 104.211 101.812 105.062C101.026 105.623 100.239 106.183 99.4277 106.76C98.633 107.325 97.8383 107.89 97.0195 108.473C96.2015 109.043 95.3835 109.614 94.5408 110.202C93.2831 111.092 93.2831 111.092 92 112C91.1416 112.642 90.2831 113.285 89.3987 113.946C88.5117 114.61 87.6248 115.273 86.7109 115.957C85.3324 116.961 85.3324 116.961 83.926 117.985C83.2129 118.486 83.2129 118.486 82.4854 118.998C81.9952 119.329 81.505 119.659 81 120C80.233 120.484 80.233 120.484 79.4504 120.978C78.6618 121.455 78.6618 121.455 77.8572 121.943C77.3208 122.259 76.7844 122.575 76.2318 122.901C75.6874 123.215 75.1429 123.528 74.582 123.852C74.0346 124.162 73.4872 124.473 72.9231 124.793C72.3692 125.103 71.8153 125.413 71.2446 125.733C70.6837 126.043 70.1227 126.353 69.5447 126.672C68.9731 126.986 68.4015 127.301 67.8125 127.625C67.2222 127.952 66.6318 128.28 66.0236 128.617C65.4272 128.947 64.8308 129.277 64.2163 129.617C63.6229 129.942 63.0296 130.267 62.4182 130.602C61.5364 131.079 61.5364 131.079 60.6367 131.566C60.0569 131.876 59.477 132.186 58.8796 132.504C58.3166 132.8 57.7535 133.095 57.1733 133.399C56.6318 133.677 56.0902 133.955 55.5322 134.241C55.0266 134.491 54.5209 134.742 54 135C53.1449 135.385 52.2897 135.771 51.4087 136.167C50.6615 136.472 49.9143 136.776 49.1445 137.09C48.4572 137.351 47.7699 137.611 47.0618 137.88C46.4226 138.105 45.7835 138.33 45.125 138.562C44.5046 138.771 43.8841 138.98 43.2449 139.194C42.6484 139.392 42.052 139.589 41.4375 139.793C40.8664 139.983 40.2954 140.173 39.707 140.369C39.1437 140.577 38.5804 140.785 38 141C37.4212 141.266 36.8424 141.533 36.2461 141.807C35.6699 142.094 35.0937 142.38 34.5 142.676C33.9356 142.96 33.3711 143.244 32.7896 143.537C32.2402 143.814 31.6909 144.09 31.125 144.375C30.0912 144.865 29.0573 145.355 27.9922 145.859C27.0048 146.236 26.0173 146.612 25 147C24.0126 147.17 23.0252 147.34 22.0078 147.516C21.0977 147.552 20.1877 147.588 19.25 147.625C18.4508 147.617 17.6516 147.61 16.8281 147.602C16.2248 147.403 15.6216 147.205 15 147C14.6442 146.389 14.2884 145.778 13.9219 145.148C13.9477 144.439 13.9734 143.73 14 143C14.9765 142.203 14.9765 142.203 15.9727 141.391C17.4712 140.702 17.4712 140.702 19 140C19.5696 139.806 20.1392 139.612 20.7261 139.412C21.6332 139.139 21.6332 139.139 22.5586 138.859C23.1889 138.68 23.8193 138.501 24.4688 138.317C25.1184 138.13 25.7681 137.943 26.4375 137.75C27.1091 137.537 27.7807 137.323 28.4727 137.103C29.1301 136.877 29.7875 136.651 30.4648 136.418C31.0886 136.185 31.7123 135.952 32.355 135.712C32.8978 135.477 33.4407 135.242 34 135C34.6819 134.542 35.3638 134.085 36.0664 133.613C36.5395 133.102 37.0126 132.59 37.5 132.062C37.9125 131.473 38.325 130.884 38.75 130.277C39.1625 129.526 39.575 128.774 40 128C40.2668 127.492 40.5337 126.985 40.8086 126.461C41.0986 125.898 41.3887 125.334 41.6875 124.754C41.9847 124.165 42.2819 123.576 42.5881 122.969C43.0395 122.056 43.0395 122.056 43.5 121.125C43.7951 120.507 44.0902 119.889 44.3943 119.252C44.6857 118.643 44.9771 118.034 45.2773 117.406C45.7102 116.521 45.7102 116.521 46.1519 115.617C46.4317 115.084 46.7116 114.55 47 114C47.5169 113.227 48.0338 112.453 48.5664 111.656C49.0601 110.986 49.5538 110.316 50.0625 109.625C50.5485 108.929 51.0345 108.233 51.5352 107.516C52.0186 106.685 52.502 105.855 53 105C53.3691 104.162 53.3691 104.162 53.7456 103.307C53.9933 102.685 54.2409 102.063 54.4961 101.422C54.7445 100.766 54.9929 100.11 55.2488 99.4348C55.4967 98.7551 55.7446 98.0753 56 97.375C56.367 96.3506 56.367 96.3506 56.7415 95.3054C56.9866 94.6155 57.2318 93.9256 57.4844 93.2148C57.7312 92.5186 57.9781 91.8223 58.2324 91.105C58.4857 90.4103 58.739 89.7157 59 89C59.2688 88.3144 59.5375 87.6288 59.8145 86.9224C60.0871 86.248 60.3597 85.5737 60.6406 84.8789C60.91 84.2165 61.1795 83.5541 61.457 82.8716C61.7187 82.2333 61.9804 81.5951 62.25 80.9375C62.4962 80.3431 62.7424 79.7487 62.9961 79.1362C63.2294 78.564 63.4627 77.9919 63.7031 77.4023C63.9058 76.9124 64.1085 76.4225 64.3174 75.9177C64.5426 75.2849 64.7679 74.652 65 74C65.3482 72.9288 65.6964 71.8576 66.0552 70.7539C66.3118 69.837 66.3118 69.837 66.5736 68.9016C66.7143 68.2741 66.855 67.6465 67 67C67.0701 66.4008 67.1403 65.8016 67.2125 65.1842C67.2476 64.5821 67.2827 63.98 67.3188 63.3596C67.3387 62.7395 67.3586 62.1194 67.3791 61.4805C67.3906 60.8385 67.4022 60.1966 67.4141 59.5352C67.4334 58.857 67.4528 58.1788 67.4727 57.4801C67.4921 56.7822 67.5114 56.0843 67.5312 55.3652C67.5467 54.6597 67.5622 53.9542 67.5781 53.2273C67.5936 52.5129 67.6091 51.7985 67.625 51.0625C67.6535 49.9723 67.6535 49.9723 67.6826 48.8601C67.7023 48.1399 67.7219 47.4197 67.7422 46.6777C67.7608 45.9822 67.7795 45.2866 67.7987 44.5699C67.8161 43.8985 67.8336 43.227 67.8516 42.5352C67.8672 41.879 67.8828 41.2229 67.8988 40.5469C67.9124 39.9488 67.926 39.3508 67.9399 38.7346C67.9598 37.8322 67.9796 36.9298 68 36C67.0188 35.913 67.0188 35.913 66.0178 35.8242C65.1057 35.7791 64.1936 35.734 63.2539 35.6875C62.2486 35.6875 61.2433 35.6875 60.2075 35.6875C59.149 35.7906 58.0906 35.8937 57 36C55.9995 36.3094 54.9991 36.6188 53.9683 36.9375C52.4816 37.5562 52.4816 37.5562 50.9648 38.1875C49.9716 38.6387 48.9784 39.0898 47.9551 39.5547C46.9593 40.0316 45.9635 40.5086 44.9375 41C43.3916 41.7154 43.3916 41.7154 41.8145 42.4453C40.8328 42.8965 39.8512 43.3477 38.8398 43.8125C37.9568 44.2314 37.0737 44.6504 36.1638 45.082C35.4498 45.385 34.7357 45.6879 34 46C33.34 46 32.68 46 32 46C32.0838 45.2332 32.1676 44.4665 32.2539 43.6765C32.5001 42.7933 32.7463 41.91 33 41C33.5659 40.4899 34.1318 39.9799 34.7148 39.4543C35.4483 39.0324 36.1818 38.6105 36.9375 38.1758C37.7509 37.7046 38.5643 37.2335 39.4023 36.748C40.2596 36.2743 41.1168 35.8006 42 35.3125C42.8263 34.8272 43.6526 34.3418 44.5039 33.8418C45.3276 33.3745 46.1513 32.9072 47 32.4258C47.8405 31.9919 48.6811 31.5581 49.5471 31.1111C50.7613 30.5611 50.7613 30.5611 52 30C53.0585 29.6366 53.0585 29.6366 54.1384 29.2659C54.834 29.0931 55.5295 28.9202 56.2461 28.7422C56.9794 28.6076 57.7127 28.4729 58.4683 28.3342C59.7215 28.1688 59.7215 28.1688 61 28C62.0559 27.8852 63.1118 27.7704 64.1997 27.6521C65.0583 27.5704 65.0583 27.5704 65.9342 27.487C66.5244 27.4359 67.1146 27.3847 67.7227 27.332C68.3179 27.2865 68.9132 27.2409 69.5265 27.194C70.4309 27.1299 70.4309 27.1299 71.3535 27.0645C71.9636 27.0233 72.5738 26.9821 73.2024 26.9397C73.8162 26.8977 74.4301 26.8557 75.0625 26.8125C75.6781 26.7652 76.2937 26.7179 76.928 26.6692C77.8463 26.598 77.8463 26.598 78.7832 26.5254C79.3868 26.4812 79.9905 26.437 80.6124 26.3914C81.2057 26.3512 81.7989 26.311 82.4102 26.2695C83.5549 26.2067 84.6997 26.1438 85.8792 26.0791C86.909 26.053 87.9389 26.0269 89 26ZM79 33C78.302 33.5375 78.302 33.5375 77.5898 34.0859C77.3952 34.7176 77.2005 35.3492 77 36C77.0068 37.0514 77.0135 38.1028 77.0205 39.186C77.0254 39.8109 77.0302 40.4357 77.0353 41.0795C77.0236 41.7133 77.012 42.347 77 43C76.8747 44.1228 76.7494 45.2455 76.6204 46.4023C76.5362 46.9746 76.452 47.5468 76.3653 48.1364C76.2718 48.7307 76.1783 49.3251 76.082 49.9375C75.9849 50.5753 75.8877 51.2132 75.7876 51.8703C75.6852 52.5324 75.5828 53.1945 75.4773 53.8767C75.3154 54.8881 75.3154 54.8881 75.1502 55.9199C75.0388 56.6063 74.9273 57.2928 74.8125 58C74.6995 58.6976 74.5865 59.3953 74.4701 60.114C74.298 61.1637 74.298 61.1637 74.1223 62.2346C74.0061 62.928 73.8899 63.6214 73.7702 64.3358C73.6526 65.0203 73.5351 65.7049 73.4141 66.4102C73.2947 67.086 73.1753 67.7617 73.0522 68.458C72.9335 69.1088 72.8147 69.7596 72.6924 70.4302C72.5756 71.0474 72.4588 71.6647 72.3385 72.3006C72.2268 72.8614 72.1151 73.4222 72 74C71.8025 74.8751 71.6049 75.7502 71.4014 76.6519C71.2148 77.3636 71.0282 78.0753 70.8359 78.8086C70.648 79.4385 70.46 80.0685 70.2664 80.7175C70.0753 81.2851 69.8843 81.8527 69.6875 82.4375C69.4894 82.989 69.2913 83.5405 69.0872 84.1086C68.8766 84.6451 68.6661 85.1816 68.4492 85.7344C68.2241 86.2584 67.999 86.7824 67.7671 87.3223C67.514 87.8759 67.2608 88.4296 67 89C66.6966 89.6439 66.3932 90.2878 66.0806 90.9512C65.751 91.6324 65.4215 92.3137 65.082 93.0156C64.7418 93.7043 64.4016 94.393 64.051 95.1025C63.7042 95.7906 63.3573 96.4786 63 97.1875C62.6538 97.8549 62.3076 98.5223 61.9509 99.21C61.6113 99.8625 61.2718 100.515 60.9219 101.188C60.5925 101.827 60.2632 102.466 59.9238 103.125C59.619 103.744 59.3141 104.363 59 105C58.6123 105.886 58.6123 105.886 58.2168 106.789C57.8697 107.636 57.8697 107.636 57.5156 108.5C57.098 109.552 56.6803 110.604 56.25 111.688C55.9045 112.599 55.5591 113.51 55.2031 114.449C54.8061 115.291 54.4091 116.133 54 117C53.3091 117.877 52.6181 118.753 51.9062 119.656C51.2772 120.43 50.6481 121.203 50 122C49.7525 122.928 49.505 123.856 49.25 124.812C49.1262 125.895 49.1262 125.895 49 127C49.8173 126.742 50.6345 126.484 51.4766 126.219C52.0273 126.034 52.5781 125.85 53.1455 125.66C53.7575 125.442 54.3695 125.224 55 125C55.6352 124.751 56.2704 124.502 56.9248 124.246C57.5967 123.969 58.2687 123.692 58.9609 123.406C59.6718 123.103 60.3826 122.801 61.115 122.489C61.8608 122.162 62.6066 121.836 63.375 121.5C64.1601 121.152 64.9452 120.804 65.7542 120.445C66.9567 119.896 66.9567 119.896 68.1836 119.336C68.9878 118.955 69.792 118.575 70.6206 118.183C71.4058 117.792 72.191 117.402 73 117C73.7323 116.607 74.4647 116.214 75.2192 115.81C75.9216 115.411 76.624 115.012 77.3477 114.602C78.3725 113.994 78.3725 113.994 79.418 113.374C80.0844 112.962 80.7509 112.55 81.4375 112.125C82.0975 111.703 82.7575 111.28 83.4375 110.845C84.0782 110.419 84.7188 109.993 85.3789 109.555C85.994 109.129 86.609 108.703 87.2427 108.265C87.8226 107.847 88.4025 107.43 89 107C89.7906 106.409 89.7906 106.409 90.5972 105.806C91.0898 105.419 91.5823 105.032 92.0898 104.633C92.5599 104.242 93.0299 103.851 93.5142 103.448C93.9632 103.053 94.4123 102.657 94.875 102.25C95.306 101.849 95.7371 101.447 96.1812 101.034C96.6022 100.617 97.0232 100.199 97.457 99.7695C97.8716 99.3321 98.2862 98.8946 98.7134 98.4438C99.3503 97.7291 99.3503 97.7291 100 97C100.462 96.4526 100.924 95.9053 101.4 95.3413C101.87 94.7582 102.34 94.175 102.824 93.5742C103.283 92.9777 103.742 92.3812 104.215 91.7666C104.66 91.163 105.104 90.5594 105.562 89.9375C105.986 89.3378 106.41 88.738 106.847 88.1201C107.239 87.5326 107.631 86.9451 108.035 86.3398C108.39 85.7699 108.744 85.2 109.11 84.6128C109.404 84.0806 109.697 83.5483 110 83C110.493 81.6716 110.493 81.6716 110.996 80.3164C111.162 79.552 111.329 78.7876 111.5 78C111.572 77.3606 111.644 76.7212 111.719 76.0625C111.858 75.0416 111.858 75.0416 112 74C112.331 73.1105 112.663 72.2211 113.004 71.3047C113.333 70.2141 113.661 69.1236 114 68C114.08 67.3274 114.161 66.6549 114.244 65.9619C114.286 65.2346 114.328 64.5072 114.371 63.7578C114.401 62.6291 114.401 62.6291 114.431 61.4775C114.433 60.7012 114.435 59.9249 114.438 59.125C114.436 58.3229 114.435 57.5208 114.434 56.6943C114.414 55.9058 114.395 55.1172 114.375 54.3047C114.307 53.175 114.307 53.175 114.238 52.0225C114.16 51.355 114.081 50.6876 114 50C113.711 49.0951 113.423 48.1902 113.125 47.2578C112.537 46.2639 112.537 46.2639 111.938 45.25C111.477 44.6841 111.017 44.1182 110.543 43.5352C110.034 43.0286 109.525 42.522 109 42C108.481 41.4418 107.961 40.8837 107.426 40.3086C106.596 39.5062 106.596 39.5062 105.75 38.6875C105.148 38.2144 104.546 37.7413 103.926 37.2539C103.29 36.8401 102.655 36.4263 102 36C101.354 35.6584 100.708 35.3168 100.043 34.9648C99.3482 34.6877 98.6534 34.4105 97.9375 34.125C97.1924 33.9084 96.4473 33.6919 95.6797 33.4688C94.7954 33.3141 93.9111 33.1594 93 33C92.4267 32.9459 91.8534 32.8917 91.2627 32.8359C90.6423 32.7973 90.022 32.7586 89.3828 32.7188C88.7525 32.698 88.1223 32.6772 87.4729 32.6558C86.8425 32.6456 86.212 32.6355 85.5625 32.625C84.6391 32.604 84.6391 32.604 83.697 32.5825C83.1177 32.5888 82.5383 32.5951 81.9414 32.6016C80.9707 32.733 80.0001 32.8645 79 33Z" fill="black"/>
</g>
<defs>
<clipPath id="clip0_7_859">
<rect width="456" height="2405" fill="white" transform="translate(-304 -653)"/>
</clipPath>
</defs>
</svg>
