<svg width="152" height="157" viewBox="0 0 152 157" fill="none" xmlns="http://www.w3.org/2000/svg">
<g clip-path="url(#clip0_7_859)">
<path d="M67 15C67.99 15.33 68.98 15.66 70 16C70.2179 16.4847 70.4357 16.9694 70.6602 17.4688C70.8593 18.4742 70.8593 18.4742 71.0625 19.5C71.2236 20.2979 71.3848 21.0959 71.5508 21.918C71.699 22.935 71.8473 23.9521 72 25C72.0598 25.6685 72.1196 26.3371 72.1812 27.0259C72.2674 28.121 72.2674 28.121 72.3555 29.2383C72.4549 30.3656 72.4549 30.3656 72.5564 31.5156C72.6203 32.2736 72.6842 33.0316 72.75 33.8125C72.7875 34.5537 72.8249 35.2949 72.8635 36.0586C72.924 36.7676 72.9845 37.4766 73.0469 38.207C73.1514 38.8734 73.2559 39.5398 73.3635 40.2263C73.6786 41.1043 73.6786 41.1043 74 42C74.426 42.4467 74.8519 42.8935 75.2908 43.3538C75.8071 43.7088 76.3235 44.0639 76.8555 44.4297C77.3932 44.7211 77.9309 45.0125 78.4849 45.3127C78.9849 45.5395 79.4849 45.7663 80 46C80.6407 46.2849 81.2813 46.5698 81.9414 46.8633C82.4764 47.0115 83.0113 47.1598 83.5625 47.3125C84.1 47.4736 84.6376 47.6348 85.1914 47.8008C85.7882 47.8665 86.3851 47.9323 87 48C87.785 47.9665 88.5701 47.933 89.3789 47.8984C90.6763 47.4537 90.6763 47.4537 92 47C92.6522 46.4488 92.6522 46.4488 93.3176 45.8865C93.7568 45.4251 94.196 44.9637 94.6484 44.4883C95.3153 43.7261 95.3153 43.7261 95.9956 42.9485C96.4508 42.4086 96.906 41.8687 97.375 41.3125C98.0945 40.4959 98.0945 40.4959 98.8286 39.6628C99.308 39.1244 99.7874 38.586 100.281 38.0312C100.747 37.5066 101.212 36.982 101.691 36.4414C102.123 35.9657 102.555 35.4901 103 35C103.691 34.3091 104.382 33.6181 105.094 32.9062C105.682 32.3803 106.269 31.8544 106.875 31.3125C107.677 30.6531 107.677 30.6531 108.496 29.9805C108.992 29.6569 109.489 29.3334 110 29C110.969 28.7113 111.939 28.4225 112.938 28.125C113.618 28.0837 114.299 28.0425 115 28C115.357 29.1117 115.357 29.1117 115.722 30.2458C115.86 31.6092 115.86 31.6092 116 33C115.299 34.022 115.299 34.022 114.585 35.0647C113.528 36.0555 113.528 36.0555 112.449 37.0664C111.688 37.7992 110.927 38.5321 110.143 39.2871C109.332 40.038 108.522 40.7889 107.688 41.5625C106.889 42.3172 106.09 43.072 105.268 43.8496C104.12 44.9469 104.12 44.9469 102.949 46.0664C102.241 46.7258 101.533 47.3853 100.803 48.0647C100.208 48.7033 99.6132 49.342 99 50C98.5847 50.6909 98.1694 51.3817 97.7415 52.0935C97.4968 52.7226 97.2521 53.3518 97 54C97.0619 54.8044 97.1238 55.6087 97.1875 56.4375C97.5897 57.7059 97.5897 57.7059 98 59C98.495 59.8456 98.99 60.6913 99.5 61.5625C99.995 62.3669 100.49 63.1712 101 64C101.189 64.5414 101.379 65.0828 101.574 65.6406C101.715 66.4192 101.855 67.1978 102 68C102.047 68.5839 102.093 69.1677 102.141 69.7693C102.173 70.4371 102.205 71.1049 102.238 71.793C102.264 72.856 102.264 72.856 102.291 73.9404C102.298 74.682 102.305 75.4235 102.312 76.1875C102.32 76.9484 102.327 77.7092 102.334 78.4932C102.326 79.2469 102.317 80.0007 102.309 80.7773C102.277 81.5081 102.246 82.2388 102.214 82.9917C102.144 83.6544 102.073 84.3172 102 85C101.682 85.9707 101.363 86.9413 101.035 87.9414C100.652 88.7032 100.269 89.4651 99.875 90.25C99.5166 90.9229 99.1583 91.5958 98.7891 92.2891C98.5287 92.8537 98.2683 93.4183 98 94C98.0825 94.8662 98.165 95.7325 98.25 96.625C98.8275 97.4087 99.405 98.1925 100 99C100.532 99.5079 101.065 100.016 101.613 100.539C102.257 101.104 102.9 101.668 103.562 102.25C104.271 102.846 104.98 103.441 105.711 104.055C106.466 104.697 107.222 105.339 108 106C109.164 107.056 109.164 107.056 110.352 108.133C111.122 108.873 111.893 109.613 112.688 110.375C113.436 111.127 114.185 111.878 114.957 112.652C115.631 113.427 116.305 114.202 117 115C117.519 115.826 118.039 116.653 118.574 117.504C119.218 118.709 119.218 118.709 119.875 119.938C120.223 120.668 120.571 121.399 120.93 122.152C121.283 122.762 121.636 123.372 122 124C122.539 124.352 123.078 124.704 123.633 125.066C124.084 125.374 124.535 125.683 125 126C125 126.99 125 127.98 125 129C124.424 128.884 123.848 128.768 123.254 128.648C122.51 128.434 121.766 128.22 121 128C120.349 127.662 119.698 127.325 119.027 126.977C117.993 126.308 117.993 126.308 116.938 125.625C116.155 125.089 115.373 124.553 114.566 124C113.719 123.34 112.873 122.68 112 122C111.546 121.594 111.092 121.188 110.625 120.77C110.159 120.33 109.694 119.89 109.215 119.438C108.746 118.98 108.278 118.522 107.795 118.05C107.092 117.345 107.092 117.345 106.375 116.625C105.91 116.152 105.444 115.679 104.965 115.192C104.51 114.722 104.055 114.251 103.586 113.766C102.926 113.069 102.926 113.069 102.253 112.357C101.839 111.909 101.426 111.462 101 111C100.291 110.19 99.582 109.381 98.8516 108.547C98.2405 107.83 97.6295 107.113 97 106.375C96.2266 105.428 96.2266 105.428 95.4375 104.461C94.9631 103.979 94.4888 103.497 94 103C92.515 102.505 92.515 102.505 91 102C90.0603 102.354 89.1205 102.709 88.1523 103.074C87.6296 103.33 87.1069 103.586 86.5684 103.85C86.0302 104.126 85.492 104.403 84.9375 104.688C84.1244 105.073 84.1244 105.073 83.2949 105.467C82.7735 105.729 82.2521 105.991 81.7148 106.262C80.8189 106.835 79.923 107.409 79 108C78.6249 108.606 78.2498 109.213 77.8633 109.837C77.5784 110.551 77.2935 111.265 77 112C76.8802 112.693 76.7604 113.386 76.637 114.1C76.5827 114.84 76.5285 115.581 76.4727 116.344C76.4045 117.173 76.3363 118.002 76.2661 118.856C76.1653 120.165 76.1653 120.165 76.0625 121.5C75.9824 122.391 75.9023 123.282 75.8198 124.2C75.6905 125.534 75.6905 125.534 75.5586 126.895C75.4695 127.767 75.3804 128.639 75.2886 129.538C75.1933 130.35 75.0981 131.163 75 132C74.8957 132.69 74.7915 133.38 74.6841 134.091C74.5731 134.704 74.462 135.318 74.3477 135.949C74.1092 137.018 73.8707 138.086 73.625 139.188C73.411 140.109 73.197 141.031 72.9766 141.98C72.6543 142.647 72.332 143.313 72 144C70.9597 144.396 70.9597 144.396 69.8984 144.801C69.272 144.867 68.6455 144.932 68 145C68.0232 144.276 68.0464 143.551 68.0703 142.805C68.0884 141.838 68.1064 140.871 68.125 139.875C68.1482 138.924 68.1714 137.972 68.1953 136.992C68.1309 136.005 68.0664 135.017 68 134C67.6752 133.112 67.3503 132.224 67.0156 131.309C66.5129 129.671 66.5129 129.671 66 128C65.936 127.2 65.8721 126.4 65.8062 125.575C65.7799 124.678 65.7536 123.78 65.7266 122.855C65.7059 121.932 65.6853 121.008 65.6641 120.057C65.6512 119.11 65.6383 118.163 65.625 117.188C65.6173 115.738 65.6173 115.738 65.6094 114.26C65.5862 113.343 65.563 112.425 65.5391 111.48C65.5308 110.644 65.5226 109.808 65.5142 108.946C65.3445 108.304 65.1748 107.662 65 107C64.4169 106.753 63.8337 106.507 63.2329 106.252C62.496 106.169 61.7592 106.086 61 106C60.3113 105.883 59.6226 105.766 58.9131 105.645C58.1941 105.591 57.4751 105.536 56.7344 105.48C55.9474 105.49 55.1604 105.499 54.3496 105.509C53.1866 105.752 53.1866 105.752 52 106C50.9839 106.674 50.9839 106.674 49.9473 107.362C49.3098 107.96 48.6724 108.559 48.0156 109.176C47.0778 110.171 47.0778 110.171 46.1211 111.186C45.5036 111.887 44.8862 112.589 44.25 113.312C43.6171 114.003 42.9841 114.693 42.332 115.404C41.712 116.071 41.092 116.738 40.4531 117.426C39.8623 118.06 39.2715 118.695 38.6628 119.349C38.1141 119.894 37.5654 120.439 37 121C36.0835 121.639 35.167 122.279 34.2227 122.938C33.4892 123.288 32.7557 123.639 32 124C31.0719 124.227 30.1438 124.454 29.1875 124.688C28.4656 124.791 27.7437 124.894 27 125C26.7628 124.417 26.5256 123.835 26.2812 123.234C26.1884 122.497 26.0956 121.76 26 121C26.4641 120.386 26.9281 119.773 27.4062 119.141C28.0972 118.517 28.7881 117.893 29.5 117.25C30.2399 116.556 30.9798 115.863 31.7422 115.148C32.8598 114.085 32.8598 114.085 34 113C34.6213 112.312 35.2427 111.623 35.8828 110.914C36.4577 110.241 37.0327 109.568 37.625 108.875C38.1819 108.21 38.7387 107.545 39.3125 106.859C39.8694 106.246 40.4262 105.632 41 105C41.6187 104.51 42.2375 104.02 42.875 103.516C43.7412 102.827 43.7412 102.827 44.625 102.125C45.1148 101.638 45.6047 101.15 46.1094 100.648C46.4033 100.104 46.6972 99.5605 47 99C46.902 98.3529 46.8041 97.7058 46.7031 97.0391C46.4298 96.2837 46.1566 95.5283 45.875 94.75C45.5489 93.9018 45.2227 93.0536 44.8867 92.1797C44.5941 91.1304 44.3015 90.0811 44 89C43.9338 88.312 43.8675 87.6239 43.7993 86.915C43.7689 86.1619 43.7384 85.4088 43.707 84.6328C43.6975 83.8507 43.688 83.0685 43.6782 82.2627C43.6813 81.4748 43.6843 80.6868 43.6875 79.875C43.6828 79.1232 43.6782 78.3713 43.6733 77.5967C43.6819 76.8609 43.6904 76.1252 43.6992 75.3672C43.7299 74.6432 43.7606 73.9192 43.7922 73.1733C43.8951 72.0975 43.8951 72.0975 44 71C44.2063 69.9029 44.2063 69.9029 44.4167 68.7837C44.6707 67.7306 44.6707 67.7306 44.9297 66.6562C45.0958 66.033 45.2619 65.4097 45.4331 64.7676C45.6202 64.1843 45.8073 63.601 46 63C46.2494 62.4035 46.4987 61.807 46.7556 61.1924C46.9806 60.6751 47.2057 60.1579 47.4375 59.625C47.5961 59.0527 47.7546 58.4803 47.918 57.8906C47.945 57.2667 47.9721 56.6428 48 56C47.7899 55.273 47.5798 54.5459 47.3633 53.7969C46.8122 52.598 46.8122 52.598 46.25 51.375C45.7821 50.5307 45.3141 49.6863 44.832 48.8164C44.2275 47.887 43.6229 46.9576 43 46C42.6163 45.47 42.2327 44.9401 41.8374 44.394C41.4206 43.8399 41.0037 43.2858 40.5742 42.7148C40.1414 42.1504 39.7086 41.5859 39.2627 41.0044C38.8254 40.4461 38.3881 39.8877 37.9375 39.3125C37.5144 38.7903 37.0912 38.268 36.6553 37.73C36.2418 37.2171 35.8283 36.7042 35.4023 36.1758C35.001 35.6636 34.5996 35.1515 34.186 34.6238C33.5989 33.82 33.5989 33.82 33 33C32.6073 32.39 32.2146 31.7801 31.8101 31.1516C31.4461 30.537 31.0821 29.9223 30.707 29.2891C30.3832 28.7304 30.0594 28.1718 29.7258 27.5962C29.4863 27.0694 29.2468 26.5427 29 26C28.9175 25.0306 28.835 24.0612 28.75 23.0625C28.8325 22.3819 28.915 21.7013 29 21C29.5362 21.0619 30.0725 21.1238 30.625 21.1875C31.4087 21.4556 32.1925 21.7237 33 22C33.8985 22.6536 34.797 23.3071 35.7227 23.9805C36.2496 24.4304 36.7765 24.8804 37.3193 25.344C37.874 25.8905 38.4286 26.437 39 27C39.5572 27.676 40.1144 28.3521 40.6885 29.0486C41.533 30.1731 41.533 30.1731 42.3945 31.3203C42.9572 32.1028 43.5199 32.8852 44.0996 33.6914C44.9475 34.896 44.9475 34.896 45.8125 36.125C46.3971 36.9358 46.9817 37.7466 47.584 38.582C48.1402 39.3619 48.6964 40.1418 49.2695 40.9453C49.7707 41.6519 50.2719 42.3584 50.7883 43.0864C51.1882 43.7179 51.588 44.3494 52 45C52.33 45.99 52.66 46.98 53 48C53.7709 47.7577 54.5417 47.5153 55.3359 47.2656C56.3388 46.9305 57.3417 46.5953 58.375 46.25C59.8716 45.7627 59.8716 45.7627 61.3984 45.2656C62.257 44.848 63.1155 44.4303 64 44C64.5705 43.1443 64.5705 43.1443 65.1526 42.2712C65.4322 41.5217 65.7119 40.7722 66 40C66.0697 39.1284 66.1394 38.2567 66.2112 37.3586C66.1943 36.3805 66.1775 35.4023 66.1602 34.3945C66.1492 33.3291 66.1382 32.2637 66.127 31.166C66.095 29.506 66.095 29.506 66.0625 27.8125C66.0451 26.6942 66.0277 25.576 66.0098 24.4238C65.9975 23.3623 65.9853 22.3007 65.9727 21.207C65.9457 19.7449 65.9457 19.7449 65.9182 18.2532C65.9452 17.5096 65.9722 16.7661 66 16C66.33 15.67 66.66 15.34 67 15ZM70 51C69.2562 51.1998 68.5124 51.3996 67.7461 51.6055C67.0255 51.8594 66.3049 52.1134 65.5625 52.375C64.9038 52.6302 64.2451 52.8855 63.5664 53.1484C62.791 53.57 62.791 53.57 62 54C61.67 54.66 61.34 55.32 61 56C61.33 56.8869 61.66 57.7738 62 58.6875C62.281 59.207 62.562 59.7265 62.8516 60.2617C63.2305 60.8354 63.6095 61.409 64 62C64.785 62.9997 64.785 62.9997 65.5859 64.0195C66.1763 64.6731 66.7667 65.3266 67.375 66C68.2219 66.9281 68.2219 66.9281 69.0859 67.875C69.7176 68.2463 70.3492 68.6175 71 69C72.2162 68.7312 72.2162 68.7312 73.457 68.457C74.2962 67.9762 75.1354 67.4954 76 67C76.7386 66.3439 77.4773 65.6877 78.2383 65.0117C78.9228 64.2447 79.6073 63.4777 80.3125 62.6875C81.0099 61.9282 81.7073 61.169 82.4258 60.3867C82.9453 59.5991 83.4648 58.8115 84 58C84.1276 57.1054 84.2552 56.2108 84.3867 55.2891C84.2591 54.5337 84.1315 53.7783 84 53C83.175 52.5669 82.35 52.1337 81.5 51.6875C80.6763 51.4864 80.6763 51.4864 79.8359 51.2812C79.2301 51.1884 78.6242 51.0956 78 51C77.3735 50.9278 76.747 50.8556 76.1016 50.7812C75.1232 50.7348 75.1232 50.7348 74.125 50.6875C73.1215 50.7126 73.1215 50.7126 72.0977 50.7383C71.0593 50.8678 71.0593 50.8678 70 51ZM54 62C53.2987 62.7425 52.5975 63.485 51.875 64.25C51.5295 64.7953 51.1841 65.3405 50.8281 65.9023C50.5548 66.5946 50.2816 67.2868 50 68C49.8917 68.9088 49.7834 69.8176 49.6719 70.7539C49.6564 71.7632 49.6409 72.7726 49.625 73.8125C49.6585 74.845 49.692 75.8776 49.7266 76.9414C49.8168 77.9507 49.907 78.9601 50 80C50.1521 80.9165 50.3042 81.833 50.4609 82.7773C50.7278 84.0013 50.7278 84.0013 51 85.25C51.1856 85.977 51.3713 86.7041 51.5625 87.4531C51.7069 87.9636 51.8512 88.4741 52 89C53.0209 88.9691 53.0209 88.9691 54.0625 88.9375C55.5166 88.4734 55.5166 88.4734 57 88C57.8662 87.2478 57.8662 87.2478 58.75 86.4805C59.3481 85.8682 59.9463 85.2559 60.5625 84.625C61.1503 83.9908 61.7381 83.3566 62.3438 82.7031C62.8903 82.1411 63.4369 81.5791 64 81C64.8456 80.4638 65.6913 79.9275 66.5625 79.375C67.0369 78.9212 67.5112 78.4675 68 78C67.8969 77.2781 67.7938 76.5562 67.6875 75.8125C67.1306 74.8844 66.5738 73.9563 66 73C65.4715 72.3413 64.943 71.6826 64.3984 71.0039C63.7926 70.3014 63.1867 69.5988 62.5625 68.875C61.9657 68.2124 61.3688 67.5498 60.7539 66.8672C60.1751 66.251 59.5963 65.6348 59 65C58.4728 64.4251 57.9455 63.8502 57.4023 63.2578C56.9396 62.8427 56.4768 62.4277 56 62C55.34 62 54.68 62 54 62ZM89 64C88.1608 64.6871 87.3216 65.3741 86.457 66.082C85.8064 66.7385 85.8064 66.7385 85.1426 67.4082C84.7037 67.8716 84.2647 68.335 83.8125 68.8125C83.1367 69.4902 83.1367 69.4902 82.4473 70.1816C82.0174 70.6231 81.5875 71.0646 81.1445 71.5195C80.4368 72.3381 79.7291 73.1566 79 74C78.67 74.99 78.34 75.98 78 77C78.4267 77.6394 78.8534 78.2788 79.293 78.9375C79.9182 79.6181 80.5434 80.2987 81.1875 81C81.7998 81.6806 82.4121 82.3612 83.043 83.0625C83.6888 83.7019 84.3346 84.3413 85 85C85.6561 85.5775 86.3123 86.155 86.9883 86.75C87.6521 87.1625 88.316 87.575 89 88C89.7167 88.1624 90.4334 88.3248 91.1719 88.4922C91.7752 88.3298 92.3784 88.1673 93 88C93.4099 86.9829 93.4099 86.9829 93.8281 85.9453C93.9673 85.0146 94.1066 84.0839 94.25 83.125C94.3944 82.1273 94.5387 81.1295 94.6875 80.1016C94.7906 79.078 94.8937 78.0545 95 77C95.0928 75.5885 95.0928 75.5885 95.1875 74.1484C95.2081 73.2745 95.2287 72.4005 95.25 71.5C95.2552 70.7059 95.2603 69.9119 95.2656 69.0938C95.178 68.4028 95.0903 67.7119 95 67C94.7473 66.4122 94.4947 65.8244 94.2344 65.2188C93.827 64.8166 93.4197 64.4144 93 64C92.4057 63.8389 91.8115 63.6777 91.1992 63.5117C90.4735 63.6729 89.7477 63.834 89 64ZM71 82C70.465 82.5801 69.9301 83.1602 69.3789 83.7578C68.7795 84.539 68.1801 85.3202 67.5625 86.125C66.9463 86.9448 66.3302 87.7647 65.6953 88.6094C65.1359 89.3983 64.5764 90.1872 64 91C63.6055 91.6033 63.2111 92.2066 62.8047 92.8281C62.5185 93.3386 62.2323 93.8491 61.9375 94.375C61.6281 95.2412 61.3187 96.1075 61 97C61.1959 97.5311 61.3919 98.0622 61.5938 98.6094C62.0578 99.0683 62.5219 99.5272 63 100C63.8263 100.204 64.6526 100.407 65.5039 100.617C66.5132 100.702 67.5226 100.787 68.5625 100.875C69.6337 100.938 70.7049 101.001 71.8086 101.066C73.3883 101.034 73.3883 101.034 75 101C75.8985 100.844 76.797 100.688 77.7227 100.527C78.5154 100.291 79.3082 100.056 80.125 99.8125C81.1807 99.4509 81.1807 99.4509 82.2578 99.082C82.8327 98.725 83.4077 98.3679 84 98C84.4602 97.3851 84.9204 96.7702 85.3945 96.1367C85.5943 95.4316 85.7941 94.7265 86 94C85.7125 93.34 85.4251 92.68 85.1289 92C84.3535 91.01 84.3535 91.01 83.5625 90C83.0018 89.3091 82.441 88.6181 81.8633 87.9062C81.2484 87.2772 80.6335 86.6481 80 86C79.3748 85.5359 78.7496 85.0719 78.1055 84.5938C77.4932 84.2328 76.8809 83.8719 76.25 83.5C75.6777 83.2009 75.1053 82.9019 74.5156 82.5938C74.0155 82.3978 73.5153 82.2019 73 82C72.34 82 71.68 82 71 82Z" fill="black"/>
</g>
<defs>
<clipPath id="clip0_7_859">
<rect width="456" height="2405" fill="white" transform="translate(-152 -1424)"/>
</clipPath>
</defs>
</svg>
