<svg width="152" height="172" viewBox="0 0 152 172" fill="none" xmlns="http://www.w3.org/2000/svg">
<g clip-path="url(#clip0_7_859)">
<path d="M89 18C90.3613 18.0928 90.3613 18.0928 91.75 18.1875C92.8225 18.4556 93.895 18.7237 95 19C95.8044 19.4744 96.6087 19.9487 97.4375 20.4375C98.033 20.9615 98.033 20.9615 98.6406 21.4961C99.0892 21.9924 99.5378 22.4887 100 23C100.889 24.1621 100.889 24.1621 101.797 25.3477C102.421 26.2229 103.045 27.0982 103.688 28C104.269 28.8456 104.85 29.6913 105.449 30.5625C105.961 31.3669 106.473 32.1712 107 33C107.592 34.0093 107.592 34.0093 108.195 35.0391C108.594 36.0097 108.594 36.0097 109 37C109.076 37.709 109.152 38.418 109.23 39.1484C109.216 39.8832 109.202 40.618 109.188 41.375C109.181 42.1046 109.175 42.8342 109.168 43.5859C109.113 44.3826 109.057 45.1792 109 46C108.754 46.9874 108.508 47.9748 108.254 48.9922C108.128 50.4811 108.128 50.4811 108 52C108.51 52.7992 109.021 53.5984 109.547 54.4219C110.274 55.1902 111.001 55.9584 111.75 56.75C112.489 57.6008 113.227 58.4516 113.988 59.3281C114.652 60.2098 115.316 61.0916 116 62C116.385 62.923 116.771 63.8459 117.168 64.7969C117.422 65.6889 117.676 66.5809 117.938 67.5C118.132 68.3147 118.327 69.1294 118.527 69.9688C118.683 70.6391 118.839 71.3094 119 72C119.33 72.66 119.66 73.32 120 74C120.055 74.8263 120.111 75.6526 120.168 76.5039C120.174 77.5132 120.181 78.5226 120.188 79.5625C120.175 80.6376 120.162 81.7127 120.148 82.8203C120.099 83.8696 120.05 84.9189 120 86C119.91 86.8637 119.82 87.7273 119.727 88.6172C119.59 89.3829 119.453 90.1486 119.312 90.9375C119.034 92.0068 119.034 92.0068 118.75 93.0977C118.379 94.0393 118.379 94.0393 118 95C117.67 95.5143 117.34 96.0287 117 96.5586C116.412 97.2102 116.412 97.2102 115.812 97.875C115.147 98.4512 115.147 98.4512 114.469 99.0391C113.984 99.3562 113.499 99.6733 113 100C111.948 100.412 110.896 100.825 109.812 101.25C109.212 101.482 108.611 101.714 107.992 101.953C107.335 102.299 106.677 102.644 106 103C104.921 103.889 104.921 103.889 103.82 104.797C103.034 105.524 102.248 106.251 101.438 107C100.601 107.786 99.7643 108.573 98.9023 109.383C98.4471 109.803 97.9919 110.224 97.5229 110.657C97.0204 111.1 96.5178 111.543 96 112C95.4111 112.477 94.8221 112.953 94.2153 113.444C93.5887 113.935 92.962 114.425 92.3164 114.93C91.6848 115.42 91.0533 115.909 90.4026 116.414C89.7747 116.896 89.1469 117.378 88.5 117.875C87.5824 118.571 87.5824 118.571 86.6462 119.281C86.072 119.722 85.4978 120.163 84.9062 120.617C84.3938 121.005 83.8814 121.393 83.3535 121.792C82.9069 122.191 82.4602 122.589 82 123C81.6101 123.544 81.2201 124.088 80.8184 124.649C80.5483 125.095 80.2782 125.541 80 126C80.5569 126.159 81.1137 126.317 81.6875 126.48C82.4506 126.714 83.2138 126.947 84 127.188C84.8147 127.459 85.6294 127.731 86.4688 128.012C87.3041 128.338 88.1394 128.664 89 129C89.7734 129.398 90.5469 129.797 91.3438 130.207C92.0553 130.634 92.7669 131.06 93.5 131.5C94.1497 131.902 94.7994 132.304 95.4688 132.719C95.9741 133.142 96.4794 133.564 97 134C97.33 134.99 97.66 135.98 98 137C97.5011 137.058 97.0023 137.116 96.4883 137.176C95.7703 137.221 95.0523 137.266 94.3125 137.312C93.5017 137.318 92.6909 137.323 91.8555 137.328C90.9132 137.22 89.9709 137.112 89 137C88.4542 136.843 87.9085 136.687 87.3462 136.525C86.7743 136.326 86.2025 136.127 85.6133 135.922C85.036 135.704 84.4588 135.485 83.864 135.26C83.2901 135.03 82.7163 134.8 82.125 134.562C81.5659 134.333 81.0069 134.103 80.4309 133.866C79.6337 133.532 79.6337 133.532 78.8203 133.191C77.8896 132.798 76.9589 132.405 76 132C75.01 131.67 74.02 131.34 73 131C73.0209 131.873 73.0419 132.747 73.0635 133.646C73.0764 134.224 73.0893 134.801 73.1026 135.396C73.1151 136.027 73.1277 136.658 73.1406 137.309C73.1501 137.95 73.1596 138.591 73.1694 139.252C73.1779 139.915 73.1865 140.577 73.1953 141.26C73.2034 141.945 73.2114 142.63 73.2197 143.335C73.2297 144.029 73.2397 144.723 73.25 145.438C73.2671 146.129 73.2842 146.821 73.3018 147.534C73.3182 148.217 73.3346 148.9 73.3516 149.604C73.3624 150.598 73.3624 150.598 73.3735 151.612C73.382 152.576 73.382 152.576 73.3906 153.559C73.4113 154.188 73.4319 154.817 73.4532 155.465C73.4535 156.046 73.4538 156.626 73.4541 157.224C73.3042 158.14 73.1544 159.056 73 160C72.357 160.327 71.714 160.654 71.0515 160.991C70.036 160.995 70.036 160.995 69 161C68.3987 160.3 68.3987 160.3 67.7852 159.586C67.5261 158.733 67.267 157.879 67 157C66.8876 156.094 66.8876 156.094 66.7729 155.169C66.7228 154.487 66.6727 153.804 66.6211 153.102C66.5869 152.375 66.5528 151.647 66.5176 150.898C66.4912 150.148 66.4647 149.398 66.4375 148.625C66.4072 147.882 66.3769 147.14 66.3457 146.375C66.3128 145.645 66.28 144.916 66.2461 144.164C66.2124 143.458 66.1787 142.752 66.144 142.024C66.0965 141.356 66.049 140.688 66 140C65.9177 139.381 65.8353 138.762 65.7505 138.124C65.6588 137.575 65.5671 137.026 65.4727 136.461C65.2387 135.243 65.2387 135.243 65 134C64.3593 134.17 63.7187 134.34 63.0586 134.516C62.1936 134.758 61.3287 135 60.4375 135.25C59.0762 135.656 59.0762 135.656 57.6875 136.07C56.3572 136.531 56.3572 136.531 55 137C54.2781 137.348 53.5562 137.696 52.8125 138.055C52.1938 138.408 51.575 138.761 50.9375 139.125C49.9681 139.744 48.9987 140.363 48 141C47.67 141.33 47.34 141.66 47 142C46.1544 142.021 45.3087 142.041 44.4375 142.062C43.6331 142.042 42.8288 142.021 42 142C41.7938 141.134 41.5875 140.267 41.375 139.375C41.5812 138.261 41.7875 137.148 42 136C42.9281 135.211 42.9281 135.211 43.875 134.406C44.7 133.901 45.525 133.396 46.375 132.875C47.2773 132.385 48.1797 131.895 49.1094 131.391C50.5402 130.702 50.5402 130.702 52 130C52.9539 129.582 53.9078 129.165 54.8906 128.734C55.793 128.368 56.6953 128.002 57.625 127.625C58.4629 127.308 59.3008 126.991 60.1641 126.664C60.7699 126.445 61.3758 126.226 62 126C61.67 125.01 61.34 124.02 61 123C60.2472 122.664 59.4944 122.327 58.7188 121.98C57.8216 121.657 56.9244 121.333 56 121C55.2678 120.584 54.5356 120.167 53.7812 119.738C53.0284 119.268 52.2756 118.797 51.5 118.312C50.2026 117.506 50.2026 117.506 48.8789 116.684C47.9289 116.128 46.9788 115.572 46 115C45.4778 114.746 44.9555 114.492 44.4175 114.231C43.8762 113.981 43.335 113.73 42.7773 113.473C42.2281 113.214 41.6789 112.955 41.113 112.688C40.5601 112.42 40.0072 112.152 39.4375 111.875C38.8865 111.595 38.3355 111.315 37.7678 111.026C36.9546 110.574 36.9546 110.574 36.125 110.113C35.3322 109.623 35.3322 109.623 34.5234 109.124C34.0207 108.753 33.518 108.382 33 108C32.5411 107.553 32.0822 107.106 31.6094 106.646C30.9674 105.914 30.9674 105.914 30.3125 105.168C29.9091 104.661 29.5057 104.155 29.0901 103.633C28.5196 102.856 28.5196 102.856 27.9375 102.062C27.5745 101.545 27.2116 101.027 26.8376 100.494C26.4981 99.9829 26.1585 99.4718 25.8086 98.9453C25.2118 97.9734 24.6149 97.0014 24 96C23.5372 95.193 23.0745 94.3861 22.5977 93.5547C22.0543 92.5067 22.0543 92.5067 21.5 91.4375C21.0823 90.5384 21.0823 90.5384 20.6562 89.6211C20.3314 88.8187 20.3314 88.8187 20 88C19.67 87.01 19.34 86.02 19 85C18.933 84.407 18.8659 83.8141 18.7969 83.2031C18.7814 82.5586 18.7659 81.9141 18.75 81.25C18.7642 80.5436 18.7784 79.8372 18.793 79.1094C18.8613 78.4133 18.9296 77.7172 19 77C19.1405 76.407 19.281 75.8141 19.4258 75.2031C19.6359 74.6411 19.846 74.0791 20.0625 73.5C20.328 72.9199 20.5936 72.3398 20.8672 71.7422C21.4279 70.8798 21.4279 70.8798 22 70C22.5801 69.4663 23.1602 68.9327 23.7578 68.3828C24.3946 67.8027 25.0314 67.2227 25.6875 66.625C26.3088 65.9573 26.9302 65.2895 27.5703 64.6016C28.0421 63.743 28.5139 62.8845 29 62C29.0732 61.4196 29.1463 60.8392 29.2217 60.2412C29.2318 59.2672 29.2318 59.2672 29.2422 58.2734C29.2217 57.5835 29.2013 56.8935 29.1802 56.1826C29.1413 55.4624 29.1025 54.7421 29.0625 54C29.0224 53.2694 28.9823 52.5388 28.9409 51.7861C28.914 51.0446 28.8871 50.3031 28.8594 49.5391C28.8536 48.7892 28.8478 48.0392 28.8418 47.2666C28.894 46.5186 28.9462 45.7706 29 45C29.1682 44.2649 29.3364 43.5298 29.5098 42.7725C29.7386 42.0509 29.9674 41.3294 30.2031 40.5859C30.4609 39.8782 30.7186 39.1705 30.9841 38.4414C31.2575 37.7595 31.5309 37.0776 31.8125 36.375C32.0736 35.7369 32.3347 35.0988 32.6038 34.4414C32.8647 33.8291 33.1257 33.2168 33.3945 32.5859C33.6601 31.9968 33.9256 31.4076 34.1992 30.8005C34.5956 29.9093 34.5956 29.9093 35 29C35.2591 28.3446 35.5182 27.6892 35.7852 27.0139C36.0378 26.379 36.2905 25.744 36.5508 25.0898C37.029 24.0702 37.5073 23.0505 38 22C39.1756 21.5978 39.1756 21.5978 40.375 21.1875C41.2412 21.4556 42.1075 21.7237 43 22C43.4499 22.3107 43.8998 22.6213 44.3633 22.9414C45.0188 23.5892 45.0188 23.5892 45.6875 24.25C46.0948 24.7966 46.5022 25.3431 46.9219 25.9062C47.4555 26.9427 47.4555 26.9427 48 28C48.2733 28.8972 48.5466 29.7944 48.8281 30.7188C49.0292 31.7191 49.2303 32.7194 49.4375 33.75C49.5729 34.7903 49.7082 35.8305 49.8477 36.9023C49.9231 38.4357 49.9231 38.4357 50 40C49.9053 41.3632 49.9053 41.3632 49.8086 42.7539C49.6655 43.5982 49.5224 44.4426 49.375 45.3125C49.1713 46.1195 48.9677 46.9264 48.7578 47.7578C48.5077 48.4977 48.2577 49.2377 48 50C47.7293 50.6368 47.4586 51.2736 47.1797 51.9297C46.8729 52.5098 46.5661 53.0898 46.25 53.6875C45.7434 54.5209 45.7434 54.5209 45.2266 55.3711C44.8218 55.9086 44.417 56.4462 44 57C43.4509 57.5272 42.9017 58.0545 42.3359 58.5977C41.7713 59.1429 41.2067 59.6882 40.625 60.25C40.1081 60.8236 39.5912 61.3973 39.0586 61.9883C38.7093 62.6521 38.3599 63.316 38 64C38.0483 65.2897 38.0483 65.2897 38.0977 66.6055C38.3896 68.0073 38.3896 68.0073 38.6875 69.4375C38.9208 70.3875 39.1541 71.3376 39.3945 72.3164C39.5943 73.202 39.7941 74.0876 40 75C40.0245 75.669 40.049 76.338 40.0742 77.0273C40.0085 77.6371 39.9427 78.2468 39.875 78.875C39.7706 79.5002 39.6662 80.1254 39.5586 80.7695C39.3743 81.5056 39.1899 82.2416 39 83C38.6816 84.0351 38.3632 85.0702 38.0352 86.1367C37.8561 86.6972 37.677 87.2577 37.4924 87.8352C37.3093 88.4052 37.1262 88.9752 36.9375 89.5625C36.7576 90.1254 36.5777 90.6883 36.3923 91.2683C36.2216 91.8166 36.0509 92.3648 35.875 92.9297C35.5863 93.9429 35.2975 94.9561 35 96C34.8556 96.7657 34.7113 97.5314 34.5625 98.3203C34.5212 98.9365 34.48 99.5527 34.4375 100.188C34.6231 101.116 34.8088 102.044 35 103C36.0074 103.46 36.0074 103.46 37.0352 103.93C38.0136 104.283 38.992 104.636 40 105C40.6038 105.282 41.2077 105.565 41.8298 105.856C42.4841 106.18 43.1384 106.505 43.8125 106.84C44.8373 107.351 44.8373 107.351 45.8828 107.873C46.9308 108.4 46.9308 108.4 48 108.938C48.6987 109.285 49.3973 109.632 50.1172 109.99C50.8004 110.332 51.4836 110.675 52.1875 111.027C53.1756 111.528 53.1756 111.528 54.1836 112.039C54.783 112.356 55.3824 112.673 56 113C56.9075 113.558 57.815 114.116 58.75 114.691C59.4925 115.123 60.235 115.555 61 116C62.0596 116.288 62.0596 116.288 63.1406 116.582C63.7542 116.72 64.3678 116.858 65 117C65.0052 116.289 65.0105 115.577 65.0159 114.844C65.0254 113.365 65.0254 113.365 65.0352 111.855C65.0397 110.786 65.0442 109.717 65.0488 108.615C65.0533 107.484 65.0579 106.353 65.0625 105.188C65.0751 103.508 65.0751 103.508 65.0879 101.795C65.0911 100.722 65.0943 99.6486 65.0977 98.543C65.1029 97.5532 65.1081 96.5635 65.1135 95.5437C65.0761 94.7043 65.0386 93.8649 65 93C64.67 92.01 64.34 91.02 64 90C63.0757 89.612 62.1515 89.224 61.1992 88.8242C60.6355 88.6395 60.0718 88.4547 59.491 88.2644C58.8958 88.074 58.3007 87.8836 57.6875 87.6875C57.0917 87.4759 56.4959 87.2642 55.8821 87.0461C55.3022 86.8247 54.7224 86.6032 54.125 86.375C53.0938 85.9212 52.0625 85.4675 51 85C50.4225 84.5462 49.845 84.0925 49.25 83.625C48.8994 83.1506 48.5488 82.6763 48.1875 82.1875C47.7956 81.1356 47.4038 80.0838 47 79C46.8943 78.4032 46.7886 77.8063 46.6797 77.1914C46.641 76.5507 46.6023 75.9101 46.5625 75.25C46.6076 74.5616 46.6527 73.8733 46.6992 73.1641C46.7985 72.4499 46.8977 71.7358 47 71C47.1644 69.9597 47.1644 69.9597 47.332 68.8984C47.5112 68.1482 47.6904 67.398 47.875 66.625C48.1521 65.7871 48.4293 64.9492 48.7148 64.0859C49.1389 63.0676 49.563 62.0492 50 61C50.307 60.3468 50.6139 59.6935 50.9302 59.0205C51.2845 58.3048 51.6388 57.589 52.0039 56.8516C52.3922 56.1029 52.7806 55.3543 53.1807 54.583C53.5954 53.8131 54.0102 53.0432 54.4375 52.25C54.8639 51.4801 55.2902 50.7102 55.7295 49.917C56.1758 49.1477 56.6222 48.3785 57.082 47.5859C57.7832 46.4388 57.7832 46.4388 58.4985 45.2686C58.994 44.5199 59.4895 43.7713 60 43C60.5406 42.2797 61.0812 41.5595 61.6382 40.8174C62.1946 40.1274 62.751 39.4374 63.3242 38.7266C63.8734 38.074 64.4227 37.4214 64.9885 36.749C65.5286 36.1306 66.0686 35.5122 66.625 34.875C67.1579 34.2772 67.6909 33.6794 68.24 33.0635C68.7306 32.5243 69.2211 31.9852 69.7266 31.4297C70.4768 30.6279 71.227 29.8261 72 29C72.5917 29.7451 73.1834 30.4902 73.793 31.2578C74.1595 31.717 74.5261 32.1763 74.9038 32.6494C75.2656 33.0951 75.6273 33.5408 76 34C76.553 34.6368 77.106 35.2736 77.6758 35.9297C78.2159 36.5716 78.756 37.2136 79.3125 37.875C79.9119 38.6523 80.5113 39.4296 81.1289 40.2305C81.7464 41.1444 82.3638 42.0584 83 43C83.3144 43.5448 83.6287 44.0896 83.9526 44.6509C84.4227 45.5295 84.4227 45.5295 84.9023 46.4258C85.2108 47.0369 85.5193 47.648 85.8372 48.2776C86.289 49.223 86.289 49.223 86.75 50.1875C87.0416 50.8261 87.3331 51.4648 87.6335 52.1228C88.0508 53.0907 88.0508 53.0907 88.4766 54.0781C88.7386 54.7272 89.0006 55.3762 89.2705 56.0449C89.5112 56.6901 89.752 57.3353 90 58C90.2124 58.6323 90.4247 59.2646 90.6436 59.916C90.8308 60.5367 91.018 61.1574 91.2109 61.7969C91.3737 62.4046 91.5364 63.0123 91.7041 63.6384C91.843 64.2321 91.9819 64.8258 92.125 65.4375C92.2433 66.0189 92.3615 66.6004 92.4834 67.1995C92.574 67.7588 92.6645 68.3182 92.7578 68.8945C92.8777 70.4317 92.8777 70.4317 93 72C92.8943 72.8289 92.7886 73.6577 92.6797 74.5117C92.4554 75.2091 92.2311 75.9065 92 76.625C91.6919 77.2309 91.3838 77.8367 91.0664 78.4609C90.7145 78.9688 90.3626 79.4767 90 80C89.3194 80.7425 88.6388 81.485 87.9375 82.25C86.9681 82.8275 85.9987 83.405 85 84C84.1827 84.3132 83.3655 84.6265 82.5234 84.9492C81.6288 85.2754 80.7342 85.6015 79.8125 85.9375C78.5228 86.3532 78.5228 86.3532 77.207 86.7773C76.1146 87.3826 76.1146 87.3826 75 88C74.5849 88.727 74.1698 89.4541 73.7422 90.2031C73.4973 91.1261 73.2523 92.0491 73 93C72.8518 94.0789 72.7035 95.1579 72.5508 96.2695C72.4849 97.1326 72.4849 97.1326 72.4177 98.0132C72.383 98.607 72.3483 99.2007 72.3125 99.8125C72.272 100.427 72.2315 101.041 72.1897 101.674C72.1555 102.286 72.1212 102.897 72.0859 103.527C72.0434 105.246 72.0434 105.246 72 107C72.0541 107.888 72.1083 108.776 72.1641 109.691C72.2994 110.772 72.2994 110.772 72.4375 111.875C72.6231 112.906 72.8088 113.938 73 115C73.727 115.066 74.4541 115.131 75.2031 115.199C76.1261 115.133 77.0491 115.068 78 115C78.7786 114.553 79.5572 114.105 80.3594 113.645C81.1483 113.04 81.9372 112.435 82.75 111.812C83.615 111.173 84.4799 110.534 85.3711 109.875C86.2386 109.256 87.1062 108.637 88 108C88.816 107.526 89.632 107.051 90.4727 106.562C91.2448 106.15 92.017 105.738 92.8125 105.312C93.905 104.717 93.905 104.717 95.0195 104.109C95.6731 103.743 96.3266 103.377 97 103C97.8102 102.513 97.8102 102.513 98.6367 102.016C99.0866 101.701 99.5365 101.387 100 101.062C100.66 100.382 101.32 99.7013 102 99C102.495 97.7006 102.495 97.7006 103 96.375C103 95.2613 103 94.1475 103 93C102.784 92.3361 102.568 91.6723 102.346 90.9883C102.068 90.229 101.79 89.4698 101.504 88.6875C101.229 87.8037 100.955 86.9199 100.672 86.0093C100.34 84.5197 100.34 84.5197 100 83C99.8934 81.3306 99.8934 81.3306 99.7847 79.6274C99.7779 79.0416 99.771 78.4558 99.764 77.8522C99.7684 77.2539 99.7728 76.6555 99.7773 76.0391C99.7879 75.1339 99.7879 75.1339 99.7987 74.2105C99.8104 73.6009 99.822 72.9913 99.834 72.3633C99.8503 71.7492 99.8667 71.1351 99.8835 70.5024C99.9014 69.8829 99.9192 69.2633 99.9375 68.625C99.9535 67.9948 99.9696 67.3646 99.9861 66.7153C100 66.0887 100.015 65.462 100.029 64.8164C100.039 64.2032 100.049 63.5901 100.06 62.9583C100.07 62.3662 100.08 61.7741 100.09 61.1641C100.134 59.5314 100.134 59.5314 100.179 57.8657C100.091 56.4472 100.091 56.4472 100 55C99.5641 53.8193 99.5641 53.8193 99.1194 52.6147C98.5653 51.8154 98.5653 51.8154 98 51C97.34 51 96.68 51 96 51C95.6816 50.5759 95.3632 50.1518 95.0352 49.7148C94.7142 49.1283 94.3932 48.5418 94.0625 47.9375C93.7441 47.369 93.4257 46.8005 93.0977 46.2148C92.5543 45.1185 92.5543 45.1185 92 44C91.7456 43.5121 91.4911 43.0242 91.229 42.5215C90.9614 41.9665 90.6937 41.4116 90.418 40.8398C90.1627 40.2357 89.9073 39.6315 89.6443 39.009C89.4317 38.3461 89.2191 37.6831 89 37C88.8847 36.2629 88.7694 35.5258 88.6506 34.7664C88.5855 33.9901 88.5203 33.2138 88.4531 32.4141C88.3932 31.2365 88.3932 31.2365 88.332 30.0352C88.305 29.2398 88.2779 28.4445 88.25 27.625C88.1862 26.3972 88.1862 26.3972 88.1211 25.1445C88.0863 24.3672 88.0515 23.5899 88.0156 22.7891C87.9876 22.0848 87.9596 21.3804 87.9307 20.6548C87.9535 20.1087 87.9764 19.5626 88 19C88.33 18.67 88.66 18.34 89 18ZM97 33C96.67 33.33 96.34 33.66 96 34C96.0413 35.0519 96.0825 36.1037 96.125 37.1875C96.2204 37.8114 96.3158 38.4353 96.4141 39.0781C96.6074 39.7123 96.8008 40.3466 97 41C97.379 41.593 97.758 42.1859 98.1484 42.7969C98.5945 43.3383 99.0405 43.8797 99.5 44.4375C99.9434 44.9312 100.387 45.4249 100.844 45.9336C101.225 46.2855 101.607 46.6374 102 47C102.33 47 102.66 47 103 47C102.963 46.4083 102.925 45.8166 102.887 45.207C102.788 44.0217 102.788 44.0217 102.688 42.8125C102.597 41.9952 102.507 41.178 102.414 40.3359C102.277 39.5651 102.141 38.7942 102 38C101.526 36.9894 101.051 35.9787 100.562 34.9375C100.047 34.2981 99.5312 33.6587 99 33C98.34 33 97.68 33 97 33ZM40 34C39.67 34.3893 39.34 34.7786 39 35.1797C38.67 35.7391 38.34 36.2986 38 36.875C37.6558 37.5118 37.3116 38.1486 36.957 38.8047C36.6412 39.5291 36.3254 40.2536 36 41C35.7564 41.807 35.5127 42.6139 35.2617 43.4453C35.0722 44.2884 34.8827 45.1314 34.6875 46C34.5393 46.843 34.391 47.6861 34.2383 48.5547C34.1596 49.3616 34.081 50.1686 34 51C34.0348 51.7245 34.0696 52.4489 34.1055 53.1953C34.1944 53.8321 34.2834 54.4689 34.375 55.125C34.5812 56.0738 34.7875 57.0225 35 58C35.99 57.67 36.98 57.34 38 57C38.3738 56.3645 38.7477 55.729 39.1328 55.0742C39.4602 54.2866 39.7877 53.499 40.125 52.6875C40.4576 51.9076 40.7902 51.1277 41.1328 50.3242C41.419 49.5572 41.7052 48.7902 42 48C42.2011 47.3284 42.4022 46.6568 42.6094 45.9648C42.8027 44.9922 42.8027 44.9922 43 44C43.0438 43.3168 43.0877 42.6336 43.1328 41.9297C43.1302 41.2516 43.1277 40.5736 43.125 39.875C43.1276 39.1918 43.1302 38.5086 43.1328 37.8047C43.089 37.2091 43.0452 36.6136 43 36C42.67 35.34 42.34 34.68 42 34C41.34 34 40.68 34 40 34ZM70 42C69.5866 42.4742 69.1732 42.9484 68.7473 43.437C68.2906 44.0946 67.8339 44.7522 67.3633 45.4297C66.6217 46.499 66.6217 46.499 65.8652 47.5898C65.3528 48.3439 64.8404 49.098 64.3125 49.875C63.7885 50.6214 63.2645 51.3677 62.7246 52.1367C61.9889 53.2099 61.9889 53.2099 61.2383 54.3047C60.7849 54.9645 60.3316 55.6244 59.8645 56.3042C59.5792 56.8638 59.2939 57.4234 59 58C59.33 58.66 59.66 59.32 60 60C61.5469 60.3094 61.5469 60.3094 63.125 60.625C63.8288 60.6985 64.5327 60.772 65.2578 60.8477C66.6152 60.9231 66.6152 60.9231 68 61C68.6094 61.0127 69.2188 61.0255 69.8467 61.0386C70.5134 61.0452 71.1802 61.0518 71.8672 61.0586C72.5464 61.061 73.2255 61.0634 73.9253 61.0659C74.6099 61.0648 75.2946 61.0637 76 61.0625C77.025 61.0569 77.025 61.0569 78.0708 61.0513C78.7074 61.046 79.3441 61.0406 80 61.0352C80.99 61.0236 81.98 61.012 83 61C82.893 60.2794 82.786 59.5588 82.6758 58.8164C82.4528 57.887 82.2298 56.9576 82 56C81.3716 54.7451 81.3716 54.7451 80.7305 53.4648C80.2213 52.6308 79.7121 51.7968 79.1875 50.9375C78.4353 49.6826 78.4353 49.6826 77.668 48.4023C76.8423 47.2132 76.8423 47.2132 76 46C75.3155 45.2382 74.631 44.4763 73.9258 43.6914C73.2903 43.1332 72.6548 42.5751 72 42C71.34 42 70.68 42 70 42ZM107 63C106.67 63.33 106.34 63.66 106 64C105.933 64.9874 105.866 65.9748 105.797 66.9922C105.784 67.6102 105.772 68.2282 105.759 68.865C105.756 69.5283 105.753 70.1916 105.75 70.875C105.749 71.5467 105.748 72.2184 105.747 72.9104C105.757 73.5884 105.767 74.2663 105.777 74.9648C105.803 75.644 105.829 76.3232 105.855 77.0229C105.903 77.6754 105.951 78.3278 106 79C106.187 80.1357 106.374 81.2713 106.566 82.4414C106.813 83.4301 107.059 84.4188 107.312 85.4375C107.556 86.3231 107.8 87.2087 108.051 88.1211C108.364 88.7411 108.677 89.3612 109 90C109.99 90 110.98 90 112 90C112.33 89.67 112.66 89.34 113 89C113.09 88.0126 113.18 87.0252 113.273 86.0078C113.307 85.0808 113.307 85.0808 113.342 84.135C113.353 83.4717 113.364 82.8084 113.375 82.125C113.383 81.4533 113.39 80.7816 113.398 80.0896C113.381 79.0727 113.381 79.0727 113.363 78.0352C113.325 77.356 113.288 76.6768 113.249 75.9771C113.126 74.9984 113.126 74.9984 113 74C112.842 73.4107 112.684 72.8215 112.521 72.2144C112.322 71.668 112.123 71.1216 111.918 70.5586C111.471 69.5699 111.023 68.5812 110.562 67.5625C110.11 66.6769 109.658 65.7913 109.191 64.8789C108.798 64.2589 108.405 63.6388 108 63C107.67 63 107.34 63 107 63ZM57 66C56.4999 66.3439 55.9997 66.6879 55.4844 67.0422C55.026 67.475 54.5675 67.9078 54.0952 68.3538C53.4038 69.227 52.7124 70.1003 52 71C51.9781 71.8727 51.9562 72.7454 51.9336 73.6445C52.2855 74.4218 52.6374 75.1991 53 76C53.8837 76.7483 53.8837 76.7483 54.7852 77.5117C55.5367 77.8997 56.2882 78.2877 57.0625 78.6875C57.8862 79.091 58.7099 79.4945 59.5586 79.9102C60.3643 80.2698 61.1699 80.6295 62 81C62.6097 81.3081 63.2195 81.6162 63.8477 81.9336C64.4342 82.1618 65.0207 82.3899 65.625 82.625C66.2605 82.7629 66.896 82.9009 67.5508 83.043C68.7631 83.0217 68.7631 83.0217 70 83C70.8728 82.833 70.8728 82.833 71.7632 82.6626C72.4124 82.5019 73.0616 82.3413 73.7305 82.1758C74.4006 81.981 75.0708 81.7862 75.7612 81.5854C76.4381 81.3716 77.1151 81.1578 77.8125 80.9375C78.8008 80.6322 78.8008 80.6322 79.8091 80.3208C80.4354 80.1002 81.0617 79.8796 81.707 79.6523C82.2903 79.405 82.8735 79.1577 83.4744 78.9028C83.9778 78.6049 84.4813 78.307 85 78C85.6471 77.1711 86.2942 76.3423 86.9609 75.4883C87.3038 74.6671 87.6467 73.846 88 73C87.9381 72.0925 87.8762 71.185 87.8125 70.25C87.5444 69.5075 87.2763 68.765 87 68C86.34 67.67 85.68 67.34 85 67C84.1031 66.9061 83.2061 66.8121 82.282 66.7153C81.1512 66.6469 80.0205 66.5784 78.8555 66.5078C77.9453 66.4589 77.9453 66.4589 77.0167 66.4089C76.0755 66.3612 76.0755 66.3612 75.1152 66.3125C74.1478 66.268 74.1478 66.268 73.1609 66.2227C72.5097 66.1904 71.8585 66.1582 71.1875 66.125C70.5416 66.0821 69.8957 66.0393 69.2302 65.9951C68.5916 65.9529 67.9529 65.9107 67.2949 65.8672C66.6664 65.8374 66.038 65.8075 65.3905 65.7768C64.7808 65.7499 64.1711 65.723 63.543 65.6953C62.4088 65.6336 61.2747 65.5719 60.1062 65.5083C59.0812 65.6706 58.0561 65.8328 57 66ZM31 69C30.34 69.6187 29.68 70.2375 29 70.875C28.6468 71.3262 28.2936 71.7773 27.9297 72.2422C27.6229 72.8223 27.3161 73.4023 27 74C26.817 74.7863 26.6339 75.5727 26.4453 76.3828C26.3396 77.2465 26.2339 78.1102 26.125 79C26.0721 79.865 26.0193 80.7299 25.9648 81.6211C25.9764 82.4061 25.988 83.1912 26 84C26.2269 85.0106 26.4537 86.0213 26.6875 87.0625C27.1206 87.7019 27.5538 88.3413 28 89C28.7013 89.2681 29.4025 89.5362 30.125 89.8125C31.0531 89.9053 31.0531 89.9053 32 90C32.33 89.01 32.66 88.02 33 87C33.1805 86.3619 33.3609 85.7238 33.5469 85.0664C33.6964 84.3845 33.8459 83.7026 34 83C34.067 82.3284 34.1341 81.6568 34.2031 80.9648C34.2263 79.9613 34.2263 79.9613 34.25 78.9375C34.2249 77.9456 34.2249 77.9456 34.1992 76.9336C34.1006 75.9765 34.1006 75.9765 34 75C33.8621 74.3929 33.7241 73.7857 33.582 73.1602C33.4106 72.6123 33.2391 72.0645 33.0625 71.5C32.7119 70.675 32.3613 69.85 32 69C31.67 69 31.34 69 31 69Z" fill="black"/>
</g>
<defs>
<clipPath id="clip0_7_859">
<rect width="456" height="2405" fill="white" transform="translate(0 -1085)"/>
</clipPath>
</defs>
</svg>
