<svg width="152" height="170" viewBox="0 0 152 170" fill="none" xmlns="http://www.w3.org/2000/svg">
<g clip-path="url(#clip0_7_859)">
<path d="M110 19C111.176 19.1547 111.176 19.1547 112.375 19.3125C113.241 19.5394 114.108 19.7662 115 20C115.425 20.4331 115.851 20.8663 116.289 21.3125C116.524 21.8694 116.758 22.4262 117 23C117.111 23.6187 117.222 24.2375 117.336 24.875C117.355 25.9269 117.355 25.9269 117.375 27C117.346 28.1872 117.346 28.1872 117.316 29.3984C117.212 30.257 117.108 31.1155 117 32C116.762 32.9204 116.523 33.8408 116.277 34.7891C115.959 35.7249 115.641 36.6608 115.312 37.625C114.752 39.0172 114.752 39.0172 114.18 40.4375C113.596 41.7059 113.596 41.7059 113 43C112.673 43.6394 112.345 44.2788 112.008 44.9375C111.655 45.4944 111.301 46.0512 110.938 46.625C110.522 47.1612 110.107 47.6975 109.68 48.25C109.125 48.8275 108.571 49.405 108 50C107.157 50.7425 106.314 51.485 105.445 52.25C104.743 52.8364 104.743 52.8364 104.027 53.4346C103.544 53.8274 103.061 54.2203 102.562 54.625C101.83 55.2027 101.83 55.2027 101.082 55.792C100.604 56.1649 100.126 56.5377 99.6328 56.9219C98.764 57.6077 97.8952 58.2934 97 59C96.4405 59.5208 95.8811 60.0416 95.3047 60.5781C94.8535 61.0061 94.4023 61.4341 93.9375 61.875C93.2801 62.4415 93.2801 62.4415 92.6094 63.0195C92.0783 63.3431 91.5472 63.6666 91 64C90.1595 64.272 89.3191 64.544 88.4531 64.8242C87.5405 65.0679 86.6278 65.3115 85.6875 65.5625C84.8251 65.7494 83.9627 65.9363 83.0742 66.1289C82.3897 66.4164 81.7052 66.7038 81 67C80.737 67.5298 80.4741 68.0596 80.2031 68.6055C80.1361 69.3957 80.0691 70.1859 80 71C79.9778 71.5595 79.9557 72.1191 79.9329 72.6956C79.9216 73.6429 79.9216 73.6429 79.9102 74.6094C79.9277 75.2779 79.9453 75.9465 79.9634 76.6353C79.9961 77.3331 80.0288 78.031 80.0625 78.75C80.0978 79.4672 80.1331 80.1844 80.1694 80.9233C80.2257 81.6318 80.2819 82.3403 80.3398 83.0703C80.4248 83.7538 80.5097 84.4374 80.5972 85.1416C80.7301 85.7549 80.863 86.3681 81 87C81.4757 87.8637 81.9513 88.7273 82.4414 89.6172C82.997 90.2798 83.5526 90.9423 84.125 91.625C84.66 92.2193 85.1949 92.8135 85.7461 93.4258C86.1599 93.9453 86.5737 94.4648 87 95C87.0619 95.9281 87.1238 96.8562 87.1875 97.8125C86.7956 98.8644 86.4038 99.9162 86 101C85.3871 102.272 85.3871 102.272 84.7617 103.57C84.3041 104.516 83.8465 105.463 83.375 106.438C82.9084 107.323 82.4417 108.209 81.9609 109.121C81.4853 110.546 81.4853 110.546 81 112C81.1134 113.079 81.2269 114.158 81.3438 115.27C81.4564 115.861 81.569 116.452 81.6851 117.061C81.789 117.701 81.8929 118.341 82 119C82.0534 120.069 82.0534 120.069 82.1079 121.16C82.1161 121.917 82.1243 122.673 82.1328 123.453C82.1351 124.233 82.1375 125.012 82.1399 125.815C82.1325 127.02 82.1325 127.02 82.125 128.25C82.1194 129.083 82.1139 129.916 82.1082 130.775C82.0995 131.605 82.0909 132.434 82.082 133.289C82.0687 134.095 82.0553 134.901 82.0415 135.731C82.0278 136.48 82.0141 137.229 82 138C81.9891 138.957 81.9891 138.957 81.978 139.933C81.9638 140.782 81.9638 140.782 81.9492 141.648C81.9041 142.631 81.859 143.613 81.8125 144.625C81.7777 145.463 81.7429 146.301 81.707 147.164C81.3571 148.073 81.3571 148.073 81 149C80.1582 149.255 79.3165 149.51 78.4492 149.773C77.2369 149.886 77.2369 149.886 76 150C75.795 149.192 75.5901 148.384 75.3789 147.551C75.1095 146.482 74.8401 145.414 74.5625 144.312C74.2957 143.257 74.0288 142.201 73.7539 141.113C73.5051 140.086 73.2563 139.059 73 138C72.7061 136.851 72.7061 136.851 72.4062 135.68C72.2722 134.795 72.1381 133.911 72 133C71.9864 132.337 71.9728 131.675 71.9587 130.992C71.9608 130.238 71.9628 129.484 71.9648 128.707C71.964 127.917 71.9632 127.126 71.9624 126.312C71.9542 125.487 71.946 124.662 71.9375 123.812C71.9164 122.963 71.8953 122.113 71.8735 121.237C71.8237 120.396 71.774 119.554 71.7227 118.688C71.6377 117.874 71.5528 117.061 71.4653 116.223C71.3118 115.489 71.1582 114.756 71 114C70.7214 113.429 70.4428 112.858 70.1558 112.27C69.8143 111.789 69.4729 111.308 69.1211 110.812C68.0093 109.575 68.0093 109.575 66.875 108.312C66.157 107.56 65.439 106.807 64.6992 106.031C64.1385 105.361 63.5777 104.691 63 104C62.8414 103.392 62.6829 102.783 62.5195 102.156C62.575 101.548 62.6304 100.939 62.6875 100.312C62.8448 99.6796 63.002 99.0466 63.1641 98.3945C63.4399 97.6043 63.7158 96.8141 64 96C64.1892 95.4462 64.3783 94.8924 64.5732 94.3218C64.7837 93.7038 64.9941 93.0859 65.2109 92.4492C65.4311 91.8052 65.6513 91.1611 65.8782 90.4976C66.104 89.8384 66.3298 89.1792 66.5625 88.5C66.9041 87.5189 66.9041 87.5189 67.2527 86.5181C67.4697 85.8792 67.6866 85.2403 67.9102 84.582C68.1088 83.9654 68.3075 83.3487 68.5122 82.7134C68.6732 82.148 68.8342 81.5825 69 81C69.1431 80.117 69.2862 79.234 69.4336 78.3242C69.4555 77.6191 69.4774 76.914 69.5 76.1875C69.335 75.1356 69.17 74.0838 69 73C68.3658 72.4219 68.3658 72.4219 67.7188 71.832C67.1516 71.5575 66.5844 71.2829 66 71C65.4019 70.8659 64.8037 70.7319 64.1875 70.5938C63.4656 70.5628 62.7437 70.5319 62 70.5C61.1286 70.5168 60.2572 70.5335 59.3594 70.5508C58.2508 70.699 57.1422 70.8473 56 71C55.2646 71.1706 54.5292 71.3413 53.7715 71.5171C52.9652 71.7319 52.1589 71.9467 51.3281 72.168C50.4941 72.4116 49.6601 72.6552 48.8008 72.9062C47.959 73.1641 47.1173 73.4219 46.25 73.6875C45.434 73.9311 44.618 74.1748 43.7773 74.4258C42.9897 74.681 42.2021 74.9363 41.3906 75.1992C40.6373 75.4756 39.884 75.7521 39.1079 76.0369C38.4123 76.3547 37.7167 76.6725 37 77C36.3908 77.401 35.7815 77.802 35.1538 78.2151C34.6209 78.6443 34.0881 79.0734 33.5391 79.5156C33.0874 79.9143 32.6358 80.3129 32.1704 80.7236C31.7842 81.1448 31.3979 81.566 31 82C30.6517 82.52 30.3034 83.04 29.9446 83.5757C29.6741 84.0663 29.4037 84.557 29.125 85.0625C28.9097 85.6477 28.6945 86.233 28.4727 86.8359C28.3167 87.5501 28.1607 88.2642 28 89C27.8434 90.4734 27.8434 90.4734 27.6836 91.9766C27.6436 93.0362 27.6037 94.0958 27.5625 95.1875C27.5432 96.1917 27.5238 97.1959 27.5039 98.2305C27.6676 99.1444 27.8313 100.058 28 101C28.9223 102.135 28.9223 102.135 29.8633 103.293C30.5684 103.856 31.2735 104.42 32 105C33.2994 105.557 33.2994 105.557 34.625 106.125C35.7387 106.414 36.8525 106.702 38 107C38.8263 107.162 39.6526 107.325 40.5039 107.492C41.3895 107.66 42.2751 107.827 43.1875 108C44.0267 108.144 44.8659 108.289 45.7305 108.438C46.8539 108.716 46.8539 108.716 48 109C48.6149 109.289 49.2298 109.577 49.8633 109.875C50.426 110.432 50.426 110.432 51 111C50.505 112.485 50.505 112.485 50 114C48.4531 114.588 48.4531 114.588 46.875 115.188C46.2408 115.34 45.6066 115.492 44.9531 115.648C44.3086 115.764 43.6641 115.88 43 116C41.8863 116.103 40.7725 116.206 39.625 116.312C38.7549 116.272 38.7549 116.272 37.8672 116.23C37.251 116.154 36.6348 116.078 36 116C35.322 115.893 34.6439 115.786 33.9453 115.676C33.2209 115.494 32.4964 115.312 31.75 115.125C30.6266 114.715 30.6266 114.715 29.4805 114.297C28.6619 113.869 27.8434 113.441 27 113C26.2858 112.516 26.2858 112.516 25.5571 112.021C25.06 111.648 24.5629 111.275 24.0508 110.891C23.5543 110.488 23.0579 110.084 22.5464 109.669C22.0567 109.242 21.567 108.815 21.0625 108.375C20.5883 107.934 20.1141 107.494 19.6255 107.04C19.1806 106.592 18.7357 106.145 18.2773 105.684C17.6661 105.009 17.6661 105.009 17.0425 104.32C16.6985 103.884 16.3544 103.449 16 103C15.5888 102.228 15.1776 101.456 14.7539 100.66C14.5464 99.9267 14.3388 99.1932 14.125 98.4375C14.0489 97.7027 13.9729 96.968 13.8945 96.2109C13.9467 95.1165 13.9467 95.1165 14 94C14.0864 93.2704 14.1727 92.5408 14.2617 91.7891C14.4435 91.0543 14.6252 90.3195 14.8125 89.5625C15.0987 88.8264 15.3848 88.0904 15.6797 87.332C16.1154 86.5625 16.5511 85.7929 17 85C17.6832 84.1376 18.3664 83.2752 19.0703 82.3867C19.456 81.9471 19.8417 81.5074 20.239 81.0544C20.8323 80.4087 20.8323 80.4087 21.4375 79.75C22.1993 78.9611 22.9612 78.1722 23.7461 77.3594C24.8618 76.1915 24.8618 76.1915 26 75C26.5765 74.1702 27.1531 73.3403 27.7471 72.4854C28.4905 71.6652 29.234 70.845 30 70C30.9633 69.5849 31.9267 69.1698 32.9192 68.7422C34.0351 68.456 35.151 68.1698 36.3008 67.875C36.9119 67.7152 37.523 67.5555 38.1527 67.3909C38.7863 67.2297 39.4199 67.0684 40.0728 66.9023C40.7207 66.7501 41.3686 66.5978 42.0362 66.4409C42.6842 66.2954 43.3323 66.1499 44 66C44.6261 65.8635 45.2523 65.727 45.8974 65.5864C46.517 65.4561 47.1366 65.3257 47.7749 65.1914C48.3958 65.0653 49.0167 64.9392 49.6565 64.8093C50.279 64.6866 50.9016 64.5639 51.543 64.4375C52.1711 64.3167 52.7992 64.196 53.4463 64.0715C54.3923 63.893 54.3923 63.893 55.3574 63.7109C55.9883 63.5933 56.6193 63.4757 57.2693 63.3545C57.9023 63.2375 58.5353 63.1205 59.1875 63C59.8258 62.883 60.4642 62.766 61.1218 62.6455C61.759 62.5279 62.3962 62.4103 63.0527 62.2891C63.6843 62.1698 64.3158 62.0506 64.9665 61.9278C65.5899 61.8072 66.2132 61.6867 66.8555 61.5625C67.4671 61.4418 68.0788 61.3211 68.709 61.1967C69.3073 61.0722 69.9056 60.9476 70.522 60.8193C71.105 60.6894 71.688 60.5595 72.2886 60.4257C72.8534 60.2852 73.4181 60.1447 74 60C75.064 59.6703 76.1279 59.3406 77.2241 59.001C78.193 58.6552 79.1619 58.3094 80.1602 57.9531C80.9981 57.635 81.8361 57.317 82.6995 56.9893C83.4586 56.6628 84.2178 56.3363 85 56C85.7617 55.6148 86.5233 55.2296 87.3081 54.8328C87.9489 54.4755 88.5898 54.1181 89.25 53.75C89.8804 53.3285 90.5107 52.907 91.1602 52.4727C92.0709 51.7437 92.0709 51.7437 93 51C93.6175 50.4006 94.2349 49.8012 94.8711 49.1836C95.7702 48.1955 95.7702 48.1955 96.6875 47.1875C97.256 46.4901 97.8245 45.7927 98.4102 45.0742C98.9348 44.3897 99.4595 43.7052 100 43C100.452 42.4289 100.905 41.8579 101.371 41.2695C101.992 40.3936 101.992 40.3936 102.625 39.5C103.013 38.8606 103.401 38.2212 103.801 37.5625C104.197 36.7169 104.592 35.8712 105 35C105.23 34.3684 105.46 33.7367 105.697 33.0859C106.054 32.0225 106.054 32.0225 106.418 30.9375C106.651 30.2098 106.884 29.4821 107.125 28.7324C107.352 27.9957 107.579 27.259 107.812 26.5C108.141 25.4027 108.141 25.4027 108.477 24.2832C108.677 23.6019 108.876 22.9207 109.082 22.2188C109.385 21.1566 109.688 20.0944 110 19Z" fill="black"/>
</g>
<defs>
<clipPath id="clip0_7_859">
<rect width="456" height="2405" fill="white" transform="translate(-304 -1837)"/>
</clipPath>
</defs>
</svg>
