<svg width="152" height="157" viewBox="0 0 152 157" fill="none" xmlns="http://www.w3.org/2000/svg">
<g clip-path="url(#clip0_7_859)">
<path d="M117 88C117.681 87.9794 118.361 87.9588 119.062 87.9375C119.702 88.2881 120.341 88.6387 121 89C121.224 90.0251 121.448 91.0503 121.679 92.1064C121.752 92.7389 121.826 93.3713 121.902 94.0228C121.934 94.6753 121.967 95.3278 122 96C121.951 96.8931 121.951 96.8931 121.901 97.8043C121.83 98.3945 121.759 98.9847 121.686 99.5928C121.593 100.203 121.499 100.814 121.402 101.443C121.294 102.075 121.186 102.708 121.074 103.359C120.967 104.03 120.859 104.701 120.748 105.393C120.58 106.43 120.58 106.43 120.408 107.488C120.23 108.537 120.23 108.537 120.049 109.608C119.93 110.315 119.81 111.022 119.688 111.75C119.573 112.464 119.459 113.178 119.342 113.914C119.23 114.621 119.118 115.329 119.002 116.059C118.889 116.749 118.776 117.439 118.659 118.15C118.549 118.817 118.438 119.484 118.324 120.172C118.222 120.813 118.12 121.453 118.015 122.113C117.911 122.711 117.808 123.309 117.702 123.925C117.354 125.447 117.354 125.447 117 127C116.705 127.636 116.409 128.272 116.105 128.927C115.558 129.458 115.558 129.458 115 130C114.01 130 113.02 130 112 130C112.03 129.452 112.061 128.903 112.092 128.339C112.134 127.571 112.176 126.803 112.219 126.012C112.264 125.165 112.309 124.319 112.355 123.447C112.403 122.536 112.451 121.626 112.5 120.688C112.548 119.77 112.597 118.852 112.647 117.907C112.692 116.997 112.738 116.086 112.785 115.148C112.827 114.256 112.868 113.364 112.911 112.444C112.94 111.638 112.97 110.831 113 110C112.999 108.858 112.997 107.716 112.996 106.539C112.977 105.639 112.957 104.74 112.938 103.812C112.928 102.995 112.919 102.178 112.91 101.336C112.94 100.565 112.969 99.7942 113 99C113.122 98.1466 113.245 97.2933 113.371 96.4141C113.537 95.5968 113.704 94.7795 113.875 93.9375C114.119 92.8682 114.119 92.8682 114.367 91.7773C114.68 90.8976 114.68 90.8976 115 90C115.66 89.34 116.32 88.68 117 88Z" fill="black"/>
<path d="M42 80C42.9075 79.9381 43.815 79.8762 44.75 79.8125C45.4925 80.2044 46.235 80.5962 47 81C47.3711 81.4277 47.7421 81.8555 48.1245 82.2962C48.4134 82.8584 48.7023 83.4207 49 84C49.0838 84.679 49.1676 85.358 49.254 86.0576C49.2556 86.8467 49.2571 87.6357 49.2588 88.4487C49.2651 89.3475 49.2714 90.2463 49.2779 91.1723C49.2738 92.1441 49.2698 93.1159 49.2656 94.1172C49.2675 95.1253 49.2695 96.1335 49.2714 97.1721C49.2721 98.2162 49.2728 99.2602 49.2734 100.336C49.2672 101.948 49.2672 101.948 49.2607 103.593C49.2572 104.676 49.2537 105.759 49.25 106.875C49.2535 107.94 49.2571 109.006 49.2607 110.104C49.2649 111.157 49.2691 112.211 49.2734 113.297C49.2741 114.338 49.2748 115.378 49.2755 116.451C49.2722 117.475 49.269 118.499 49.2656 119.555C49.2575 120.566 49.2494 121.577 49.2411 122.618C49.2253 123.595 49.2096 124.571 49.1934 125.577C49.1688 126.507 49.1442 127.436 49.1189 128.394C49.0797 129.254 49.0404 130.114 49 131C48.9363 131.754 48.8725 132.509 48.8069 133.286C48.7295 133.963 48.652 134.64 48.5723 135.337C48.4875 135.951 48.4027 136.565 48.3154 137.198C48.2268 137.754 48.1382 138.31 48.0469 138.883C47.8751 139.848 47.7033 140.814 47.5264 141.809C47.3527 142.532 47.179 143.255 47 144C46.67 144.66 46.34 145.32 46 146C45.0409 146.278 45.0409 146.278 44.0625 146.562C43.0416 146.284 43.0416 146.284 42 146C41.5875 145.134 41.175 144.267 40.75 143.375C40.6043 142.721 40.4587 142.068 40.3086 141.395C40.2068 140.604 40.1049 139.814 40 139C39.9246 137.645 39.9246 137.645 39.8477 136.262C39.8361 135.206 39.8245 134.15 39.8125 133.062C39.8187 132.208 39.8187 132.208 39.825 131.336C39.8363 130.715 39.8477 130.093 39.8594 129.453C39.8781 128.771 39.8968 128.088 39.916 127.385C39.9437 126.598 39.9714 125.811 40 125C40.0406 124.03 40.0812 123.06 40.123 122.061C40.1701 121.004 40.2171 119.948 40.2656 118.859C40.3136 117.782 40.3615 116.704 40.4109 115.594C40.4609 114.511 40.511 113.428 40.5625 112.312C40.6183 111.248 40.6742 110.184 40.7317 109.088C40.7803 108.086 40.8289 107.083 40.8789 106.051C40.9496 104.7 40.9496 104.7 41.0217 103.322C41.0146 102.555 41.0074 101.789 41 101C40.67 100.01 40.34 99.02 40 98C39.2266 98.1238 39.2266 98.1238 38.4375 98.25C37.6331 98.4975 36.8288 98.745 36 99C35.4444 99.3274 34.8888 99.6548 34.3164 99.9922C33.717 100.366 33.1176 100.74 32.5 101.125C31.6009 101.663 31.6009 101.663 30.6836 102.211C29.8502 102.602 29.8502 102.602 29 103C28.1956 102.917 27.3913 102.835 26.5625 102.75C26.0469 102.502 25.5312 102.255 25 102C25.0683 101.264 25.1366 100.528 25.207 99.7695C25.4687 98.8556 25.7304 97.9416 26 97C26.6845 96.282 27.369 95.564 28.0742 94.8242C28.9366 94.1191 29.799 93.414 30.6875 92.6875C31.1408 92.3087 31.5942 91.9299 32.0613 91.5396C32.5129 91.1514 32.9644 90.7632 33.4297 90.3633C34.2779 89.5834 35.1261 88.8035 36 88C36.9011 86.8147 36.9011 86.8147 37.8203 85.6055C38.3127 84.8694 38.8052 84.1334 39.3125 83.375C39.7675 82.7266 40.2226 82.0782 40.6914 81.4102C41.3392 80.7121 41.3392 80.7121 42 80Z" fill="black"/>
<path d="M78 36C78.7386 36.1354 79.4773 36.2707 80.2383 36.4102C81.2528 36.6254 82.2673 36.8407 83.3125 37.0625C84.9541 37.4763 84.9541 37.4763 86.6289 37.8984C87.1924 38.067 87.7559 38.2355 88.3364 38.4092C88.8854 38.6042 89.4344 38.7991 90 39C90.9784 39.4873 91.9568 39.9745 92.9648 40.4766C93.8839 41.0412 94.803 41.6058 95.75 42.1875C96.6407 42.7985 97.5315 43.4095 98.4492 44.0391C99.7119 45.0097 99.7119 45.0097 101 46C101.79 46.6677 102.58 47.3355 103.395 48.0234C104.11 48.6963 104.825 49.3692 105.562 50.0625C106.183 50.6722 106.803 51.282 107.441 51.9102C107.956 52.5998 108.47 53.2895 109 54C109.391 54.9063 109.782 55.8126 110.185 56.7463C110.454 57.82 110.723 58.8938 111 60C110.795 61.4645 110.795 61.4645 110.586 62.9585C110.26 64.0112 109.934 65.0639 109.598 66.1484C109.415 66.7424 109.232 67.3364 109.044 67.9483C108.843 68.5812 108.641 69.2141 108.434 69.8662C108.208 70.5302 107.983 71.1942 107.75 71.8783C107.503 72.5785 107.255 73.2786 107 74C106.729 74.7427 106.458 75.4854 106.179 76.2506C105.746 77.4109 105.746 77.4109 105.304 78.5947C104.85 79.7895 104.85 79.7895 104.386 81.0084C104.072 81.8229 103.757 82.6374 103.434 83.4766C103.112 84.3019 102.79 85.1272 102.458 85.9775C102.13 86.8125 101.801 87.6475 101.463 88.5078C101.13 89.3499 100.797 90.192 100.454 91.0596C100.119 91.9062 99.7832 92.7528 99.4375 93.625C99.1002 94.4751 98.7628 95.3253 98.4153 96.2012C98.0804 97.0474 97.7455 97.8937 97.4004 98.7656C96.9079 100.019 96.9079 100.019 96.4054 101.297C96.0847 102.12 95.764 102.942 95.4336 103.789C95.1201 104.598 94.8065 105.406 94.4835 106.239C94.037 107.413 94.037 107.413 93.5815 108.61C93.3043 109.36 93.027 110.109 92.7414 110.881C92.4967 111.581 92.2521 112.28 92 113C91.8082 113.62 91.6164 114.241 91.4188 114.88C91.1808 115.732 91.1808 115.732 90.938 116.601C90.6813 117.627 90.4246 118.653 90.1602 119.711C89.849 121.094 89.849 121.094 89.5315 122.505C89.2684 123.74 89.2684 123.74 89 125C88.7301 126.117 88.7301 126.117 88.4548 127.256C88.2841 127.935 88.1134 128.613 87.9375 129.312C87.7016 130.243 87.7016 130.243 87.4609 131.191C87.3088 131.788 87.1567 132.385 87 133C86.8479 133.628 86.6958 134.256 86.5391 134.902C86.3032 135.817 86.3032 135.817 86.0625 136.75C85.7119 137.822 85.3613 138.895 85 140C84.5462 140.825 84.0925 141.65 83.625 142.5C83.0888 142.995 82.5525 143.49 82 144C81.3065 143.866 80.613 143.732 79.8984 143.594C79.272 143.398 78.6455 143.202 78 143C78.0367 142.486 78.0733 141.972 78.1111 141.442C78.1763 140.712 78.2414 139.982 78.3086 139.23C78.4012 138.403 78.4939 137.576 78.5894 136.724C78.7249 135.825 78.8604 134.926 79 134C79.2013 133.11 79.4025 132.22 79.6099 131.303C79.8533 130.374 80.0968 129.445 80.3477 128.488C80.6192 127.497 80.8908 126.507 81.1707 125.486C81.465 124.439 81.7593 123.391 82.0625 122.312C82.3691 121.203 82.6756 120.094 82.9915 118.952C83.1498 118.377 83.3082 117.802 83.4713 117.21C83.6329 116.624 83.7945 116.038 83.9609 115.434C84.2082 114.541 84.2082 114.541 84.4604 113.63C84.6279 113.024 84.7953 112.417 84.9678 111.792C85.222 110.865 85.222 110.865 85.4813 109.919C85.6525 109.286 85.8236 108.653 86 108C86.1725 107.345 86.3449 106.69 86.5226 106.014C86.6959 105.347 86.8693 104.68 87.0479 103.993C87.2216 103.32 87.3953 102.648 87.5743 101.955C87.7483 101.28 87.9223 100.605 88.1016 99.9102C88.276 99.2384 88.4504 98.5667 88.6302 97.8746C88.8037 97.2073 88.9772 96.5399 89.156 95.8523C89.3279 95.1912 89.4998 94.5301 89.677 93.849C89.8454 93.1976 90.0139 92.5461 90.1875 91.875C90.3494 91.2369 90.5114 90.5988 90.6783 89.9413C90.8367 89.3178 90.9952 88.6944 91.1584 88.052C91.3942 87.1426 91.3942 87.1426 91.6346 86.2147C91.79 85.6257 91.9454 85.0366 92.1055 84.4297C92.2582 83.8555 92.411 83.2813 92.5684 82.6897C92.7219 82.1401 92.8755 81.5906 93.0337 81.0244C93.3526 80.0264 93.6715 79.0283 94 78C94.3692 77.2159 94.7383 76.4319 95.1187 75.624C95.483 74.9566 95.8473 74.2892 96.2227 73.6016C96.7192 72.693 96.7192 72.693 97.2258 71.7661C97.4813 71.1833 97.7368 70.6005 98 70C98.104 69.3669 98.208 68.7338 98.3152 68.0815C98.3401 67.4462 98.365 66.8108 98.3906 66.1562C98.3777 65.5504 98.3648 64.9445 98.3516 64.3203C98.3013 63.4193 98.3013 63.4193 98.25 62.5C98.232 61.8684 98.2139 61.2367 98.1953 60.5859C98.1773 59.9904 98.1592 59.3948 98.1406 58.7812C98.0942 57.8634 98.0478 56.9456 98 56C97.438 56.2062 96.8759 56.4125 96.2969 56.625C95.1599 57.3056 95.1599 57.3056 94 58C93.6242 58.4035 93.2485 58.807 92.8613 59.2227C92.4791 59.7061 92.0969 60.1895 91.7031 60.6875C91.3057 61.2167 90.9083 61.7458 90.4988 62.291C90.0867 62.855 89.6746 63.4189 89.25 64C88.8153 64.5794 88.3807 65.1589 87.9329 65.7559C87.4922 66.3417 87.0516 66.9276 86.5977 67.5312C86.1608 68.1165 85.724 68.7017 85.2739 69.3047C84.8535 69.8641 84.4331 70.4236 84 71C83.617 71.4976 83.234 71.9952 82.8394 72.5078C82.4786 72.9693 82.1178 73.4308 81.7461 73.9062C81.0668 74.7622 80.3874 75.6181 79.6875 76.5C79.0455 77.2915 78.4036 78.083 77.7422 78.8984C77.1673 79.592 76.5923 80.2855 76 81C75.5282 81.5698 75.0564 82.1395 74.5703 82.7266C74.1552 83.188 73.7402 83.6495 73.3125 84.125C72.1678 85.0531 72.1678 85.0531 71 86C69.6078 86.1547 69.6078 86.1547 68.1875 86.3125C67.4656 86.2094 66.7437 86.1063 66 86C66.0851 85.2717 66.1702 84.5434 66.2578 83.793C66.5027 82.8713 66.7477 81.9496 67 81C67.8314 79.8804 67.8314 79.8804 68.6797 78.7383C69.4041 77.9378 70.1286 77.1373 70.875 76.3125C71.462 75.6355 71.462 75.6355 72.0608 74.9448C72.4726 74.4513 72.8843 73.9577 73.3086 73.4492C73.7416 72.9147 74.1745 72.3803 74.6206 71.8296C75.0758 71.2258 75.531 70.6221 76 70C76.4848 69.2789 76.9697 68.5579 77.4692 67.8149C77.9654 67.0368 78.4615 66.2587 78.9727 65.457C79.7125 64.2624 79.7125 64.2624 80.4673 63.0437C80.9525 62.2455 81.4376 61.4474 81.9375 60.625C82.4098 59.852 82.8821 59.0789 83.3687 58.2825C83.8129 57.5421 84.2571 56.8018 84.7148 56.0391C85.122 55.3407 85.5292 54.6424 85.9487 53.9229C86.2956 53.2883 86.6426 52.6538 87 52C87.4344 50.9971 87.8688 49.9942 88.3164 48.9609C88.542 48.3138 88.7676 47.6667 89 47C88.2781 46.7319 87.5562 46.4638 86.8125 46.1875C85.8844 45.7956 84.9563 45.4038 84 45C82.6387 44.3813 82.6387 44.3813 81.25 43.75C80.5075 43.1725 79.765 42.595 79 42C78.7886 40.9739 78.5772 39.9478 78.3594 38.8906C78.2408 37.9367 78.1222 36.9828 78 36Z" fill="black"/>
<path d="M53 13C53.6187 13.2269 54.2375 13.4537 54.875 13.6875C55.5763 14.1206 56.2775 14.5538 57 15C57.3635 15.7154 57.727 16.4309 58.1016 17.168C58.398 18.1025 58.6945 19.0371 59 20C59.1341 21.0235 59.2681 22.047 59.4062 23.1016C59.4435 23.947 59.4435 23.947 59.4814 24.8096C59.4876 25.4087 59.4937 26.0078 59.5 26.625C59.5035 27.2602 59.5071 27.8954 59.5107 28.5498C59.4917 29.2217 59.4727 29.8937 59.4531 30.5859C59.4022 31.2907 59.3513 31.9955 59.2988 32.7217C59.2002 33.4735 59.1016 34.2254 59 35C58.824 35.8266 58.6481 36.6532 58.4668 37.5049C58.2457 38.3618 58.0246 39.2187 57.7969 40.1016C57.5487 40.9567 57.3006 41.8118 57.0449 42.6929C56.7826 43.5367 56.5203 44.3806 56.25 45.25C55.998 46.0719 55.746 46.8939 55.4863 47.7407C55.2279 48.5121 54.9694 49.2834 54.7031 50.0781C54.4331 50.7826 54.163 51.4871 53.8848 52.2129C53.5928 52.8026 53.3008 53.3924 53 54C52.3142 54.6755 51.6284 55.3509 50.9219 56.0469C50.2877 56.3614 49.6534 56.6759 49 57C48.34 57 47.68 57 47 57C46.7525 57.7425 46.505 58.485 46.25 59.25C45.8375 60.1575 45.425 61.065 45 62C44.175 62.7425 43.35 63.485 42.5 64.25C41.9805 64.5684 41.461 64.8868 40.9258 65.2148C39.9725 65.6035 39.9725 65.6035 39 66C37.7219 66.2494 37.7219 66.2494 36.418 66.5039C35.0664 66.6567 35.0664 66.6567 33.6875 66.8125C32.3939 66.915 32.3939 66.915 31.0742 67.0195C30.3897 67.0131 29.7052 67.0066 29 67C28.67 66.67 28.34 66.34 28 66C27.8066 64.8572 27.8066 64.8572 27.6094 63.6914C27.7383 62.8032 27.8672 61.9151 28 61C28.7477 60.3078 29.4953 59.6155 30.2656 58.9023C30.7439 58.5756 31.2221 58.2488 31.7148 57.9121C32.2214 57.5905 32.728 57.2689 33.25 56.9375C33.7411 56.612 34.2323 56.2865 34.7383 55.9512C35.2217 55.6257 35.7051 55.3002 36.2031 54.9648C37.1261 54.3164 38.0491 53.668 39 53C39.7038 52.3851 40.4077 51.7702 41.1328 51.1367C41.749 50.4316 42.3652 49.7265 43 49C43.611 48.0693 44.222 47.1386 44.8516 46.1797C45.1447 45.6529 45.4378 45.1262 45.7397 44.5835C46.1779 43.7378 46.1779 43.7378 46.625 42.875C47.0845 41.981 47.0845 41.981 47.5532 41.0688C47.8502 40.4377 48.1472 39.8065 48.4531 39.1562C48.7283 38.4924 49.0036 37.8285 49.2871 37.1445C49.5224 36.4368 49.7576 35.7291 50 35C50.1631 34.2253 50.3261 33.4505 50.4941 32.6523C50.6147 31.8493 50.7352 31.0462 50.8594 30.2188C51.0032 29.0124 51.0032 29.0124 51.1499 27.7817C51.2242 26.9875 51.2985 26.1933 51.375 25.375C51.4351 24.6053 51.4952 23.8355 51.5571 23.0425C51.6079 22.3143 51.6586 21.5862 51.7109 20.8359C51.7449 20.1919 51.7789 19.5478 51.814 18.8843C51.8754 18.2625 51.9367 17.6407 52 17C52.171 16.2609 52.3419 15.5218 52.5181 14.7603C52.6771 14.1794 52.8361 13.5985 53 13Z" fill="black"/>
</g>
<defs>
<clipPath id="clip0_7_859">
<rect width="456" height="2405" fill="white" transform="translate(0 -2084)"/>
</clipPath>
</defs>
</svg>
