<svg width="152" height="157" viewBox="0 0 152 157" fill="none" xmlns="http://www.w3.org/2000/svg">
<g clip-path="url(#clip0_7_859)">
<path d="M68 17C68.8044 17.33 69.6087 17.66 70.4375 18C71.7059 18.99 71.7059 18.99 73 20C73.5414 21.4908 73.5414 21.4908 74.0938 23.0117C74.2535 23.6361 74.4133 24.2605 74.5779 24.9038C74.7172 25.5956 74.8565 26.2873 75 27C75.1077 27.742 75.2154 28.484 75.3264 29.2485C75.4159 30.0392 75.5054 30.8299 75.5977 31.6445C75.6765 32.4783 75.7552 33.3121 75.8364 34.1711C75.911 35.0428 75.9856 35.9144 76.0625 36.8125C76.1448 37.7209 76.2272 38.6293 76.312 39.5652C76.3934 40.4924 76.4748 41.4197 76.5586 42.375C76.6345 43.307 76.7104 44.239 76.7886 45.1992C76.8932 46.5856 76.8932 46.5856 77 48C77.0607 48.9011 77.1215 49.8021 77.1841 50.7305C77.2381 51.6032 77.292 52.4759 77.3477 53.375C77.3959 54.208 77.4442 55.041 77.4939 55.8992C77.5372 56.6956 77.5804 57.492 77.625 58.3125C77.665 59.0889 77.7051 59.8653 77.7463 60.6653C77.7811 61.37 77.8158 62.0747 77.8516 62.8008C77.9005 63.8565 77.9495 64.9123 78 66C78.5401 66.1044 79.0802 66.2088 79.6367 66.3164C80.8065 66.1598 80.8065 66.1598 82 66C82.443 65.6969 82.8859 65.3938 83.3423 65.0815C83.8133 64.6718 84.2843 64.262 84.7695 63.8398C85.2622 63.3796 85.7549 62.9195 86.2625 62.4453C86.774 61.9477 87.2855 61.4502 87.8125 60.9375C88.3466 60.4309 88.8806 59.9243 89.4309 59.4023C89.9616 58.897 90.4923 58.3917 91.0391 57.8711C91.5524 57.3734 92.0658 56.8756 92.5947 56.3628C93.0585 55.9131 93.5222 55.4633 94 55C94.6677 54.3722 95.3355 53.7445 96.0234 53.0977C96.5726 52.5704 97.1217 52.0432 97.6875 51.5C98.216 50.9663 98.7445 50.4327 99.2891 49.8828C99.8537 49.2615 100.418 48.6402 101 48C101.73 47.1105 102.459 46.2211 103.211 45.3047C103.597 44.8243 103.984 44.3439 104.382 43.8489C104.771 43.3625 105.161 42.8761 105.562 42.375C105.945 41.8983 106.328 41.4216 106.722 40.9304C107.283 40.2398 107.283 40.2398 107.855 39.5352C108.563 38.6986 109.271 37.862 110 37C110.594 36.4006 111.189 35.8012 111.801 35.1836C112.32 34.7311 112.84 34.2787 113.375 33.8125C114.241 33.2144 115.108 32.6162 116 32C116.99 32 117.98 32 119 32C118.875 32.8255 118.875 32.8255 118.747 33.6677C118.609 34.4258 118.471 35.1838 118.328 35.9648C118.144 36.7884 117.961 37.6119 117.771 38.4604C117.517 39.2985 117.262 40.1366 117 41C116.456 42.0927 116.456 42.0927 115.9 43.2075C115.474 43.9035 115.048 44.5994 114.609 45.3164C114.147 46.0183 113.684 46.7202 113.207 47.4434C112.726 48.1427 112.245 48.842 111.75 49.5625C111.285 50.2657 110.819 50.9689 110.34 51.6934C109.638 52.7443 109.638 52.7443 108.922 53.8164C108.444 54.5077 107.967 55.1991 107.475 55.9114C106.988 56.6006 106.502 57.2899 106 58C105.245 59.0522 105.245 59.0522 104.474 60.1257C103.97 60.8113 103.465 61.4968 102.945 62.2031C102.448 62.8587 101.95 63.5143 101.438 64.1897C100.963 64.7871 100.489 65.3845 100 66C99.5772 66.4898 99.1544 66.9795 98.7188 67.4841C98.3191 67.916 97.9195 68.348 97.5078 68.793C96.7215 69.5832 95.9352 70.3734 95.125 71.1875C94.7001 71.6155 94.2752 72.0434 93.8374 72.4844C93.1909 73.1167 93.1909 73.1167 92.5312 73.7617C91.2783 74.8697 91.2783 74.8697 90 76C89.2472 76.4602 88.4944 76.9204 87.7188 77.3945C87.0278 77.7593 86.3369 78.1241 85.625 78.5C84.6698 79.0317 84.6698 79.0317 83.6953 79.5742C83.1359 80.0447 82.5764 80.5152 82 81C81.5437 81.8314 81.0873 82.6629 80.6172 83.5195C80.2485 84.4412 79.8798 85.3629 79.5 86.3125C79.2009 87.1955 78.9019 88.0785 78.5938 88.9883C78.3978 89.6521 78.2019 90.316 78 91C78.6755 91.0374 79.3509 91.0748 80.0469 91.1133C80.9389 91.179 81.8309 91.2448 82.75 91.3125C83.6317 91.3705 84.5134 91.4285 85.4219 91.4883C86.698 91.7416 86.698 91.7416 88 92C88.7889 92.4061 89.5778 92.8121 90.3906 93.2305C90.9217 93.8144 91.4528 94.3984 92 95C92.009 95.8289 92.018 96.6577 92.0273 97.5117C91.5188 98.7434 91.5188 98.7434 91 100C90.3413 100.522 89.6826 101.044 89.0039 101.582C88.1982 101.988 87.3926 102.394 86.5625 102.812C85.7594 103.231 84.9563 103.65 84.1289 104.082C83.0751 104.536 83.0751 104.536 82 105C81.34 105 80.68 105 80 105C80.1547 106.64 80.1547 106.64 80.3125 108.312C80.3705 108.927 80.4285 109.542 80.4883 110.176C80.7416 111.079 80.7416 111.079 81 112C81.4198 112.532 81.8395 113.064 82.272 113.612C82.8422 114.07 83.4125 114.528 84 115C84.9708 115.115 84.9708 115.115 85.9612 115.233C86.6868 115.169 87.4125 115.105 88.1602 115.039C88.9536 114.98 89.747 114.92 90.5645 114.859C91.801 114.743 91.801 114.743 93.0625 114.625C93.8907 114.555 94.7189 114.486 95.5723 114.414C96.3644 114.352 97.1565 114.29 97.9727 114.227C98.6972 114.16 99.4217 114.094 100.168 114.026C100.773 114.017 101.377 114.009 102 114C102.66 114.33 103.32 114.66 104 115C104.108 115.626 104.217 116.253 104.328 116.898C104.22 117.592 104.112 118.285 104 119C103.343 119.7 103.343 119.7 102.672 120.414C101.721 121.013 101.721 121.013 100.75 121.625C100.004 122.044 99.2573 122.463 98.4883 122.895C97.2566 123.442 97.2566 123.442 96 124C95.2098 124.251 94.4196 124.503 93.6055 124.762C92.725 124.943 91.8446 125.125 90.9375 125.312C89.9204 125.448 88.9034 125.583 87.8555 125.723C87.2656 125.773 86.6757 125.824 86.0679 125.875C85.0443 125.937 85.0443 125.937 84 126C83.1642 126.035 82.3284 126.069 81.4673 126.105C80.5461 126.131 79.6249 126.157 78.6758 126.184C77.2298 126.208 77.2298 126.208 75.7546 126.232C74.7631 126.238 73.7716 126.244 72.75 126.25C71.7578 126.245 70.7656 126.24 69.7434 126.235C68.7582 126.219 67.7729 126.204 66.7578 126.188C65.7875 126.162 64.8171 126.136 63.8174 126.109C62.8876 126.073 61.9579 126.037 61 126C60.145 125.954 59.2901 125.907 58.4092 125.859C57.2128 125.774 57.2128 125.774 55.9922 125.688C55.2474 125.618 54.5027 125.548 53.7354 125.476C53.0389 125.401 52.3425 125.327 51.625 125.25C50.9595 125.188 50.294 125.127 49.6084 125.063C49.008 124.986 48.4076 124.908 47.7891 124.828C46.8687 124.555 45.9483 124.282 45 124C44.6468 123.348 44.2936 122.695 43.9297 122.023C43.9529 121.356 43.9761 120.688 44 120C44.825 119.464 45.65 118.928 46.5 118.375C47.1316 118.125 47.7633 117.875 48.4141 117.617C49.6941 117.312 49.6941 117.312 51 117C51.5914 116.953 52.1827 116.905 52.792 116.856C53.4459 116.824 54.0997 116.791 54.7734 116.758C55.7836 116.7 55.7836 116.7 56.8142 116.642C57.4943 116.595 58.1743 116.548 58.875 116.5C59.8767 116.413 59.8767 116.413 60.8987 116.325C61.529 116.234 62.1592 116.144 62.8086 116.051C64.3883 115.531 64.3883 115.531 66 115C66.486 114.21 66.972 113.42 67.4727 112.605C67.6261 111.643 67.7795 110.68 67.9375 109.688C67.8872 108.204 67.8872 108.204 67.8359 106.691C67.5601 105.803 67.2842 104.915 67 104C66.1221 103.178 66.1221 103.178 65.2266 102.34C64.5124 101.939 63.7983 101.538 63.0625 101.125C62.3316 100.768 61.6007 100.411 60.8477 100.043C59.9331 99.5267 59.9331 99.5267 59 99C58.505 97.7316 58.505 97.7316 58 96.4375C58.33 95.6331 58.66 94.8288 59 94C59.5865 93.6262 60.173 93.2523 60.7773 92.8672C61.4902 92.5191 62.203 92.1711 62.9375 91.8125C63.6684 91.5096 64.3993 91.2066 65.1523 90.8945C66.0669 90.4517 66.0669 90.4517 67 90C67.33 89.34 67.66 88.68 68 88C68.0825 86.8656 68.165 85.7313 68.25 84.5625C68.2887 83.6672 68.2887 83.6672 68.3281 82.7539C68.2198 82.1751 68.1116 81.5963 68 81C67.6339 80.4947 67.2678 79.9894 66.8906 79.4688C66.2667 78.9841 65.6428 78.4994 65 78C64.0203 77.514 63.0406 77.028 62.0312 76.5273C61.4654 76.273 60.8996 76.0186 60.3167 75.7566C59.7172 75.4863 59.1177 75.216 58.5 74.9375C57.8792 74.6408 57.2585 74.344 56.6189 74.0383C55.9906 73.7215 55.3622 73.4046 54.7148 73.0781C53.7749 72.5783 53.7749 72.5783 52.8159 72.0684C52.2167 71.7158 51.6174 71.3632 51 71C50.1997 70.4364 50.1997 70.4364 49.3833 69.8613C48.8869 69.4688 48.3904 69.0763 47.8789 68.6719C47.4047 68.2672 46.9305 67.8625 46.4419 67.4456C45.9867 67.0304 45.5315 66.6152 45.0625 66.1875C44.615 65.764 44.1676 65.3404 43.7065 64.9041C43.2762 64.4755 42.8458 64.047 42.4023 63.6055C41.7892 62.9584 41.7892 62.9584 41.1636 62.2983C40.5876 61.6557 40.5876 61.6557 40 61C39.3207 60.1711 38.6413 59.3423 37.9414 58.4883C37.342 57.6671 36.7426 56.846 36.125 56C35.3187 54.7606 35.3187 54.7606 34.4961 53.4961C34.0024 52.6724 33.5087 51.8487 33 51C32.5166 50.1866 32.0332 49.3732 31.5352 48.5352C31.0904 47.7192 30.6457 46.9032 30.1875 46.0625C29.7956 45.2517 29.4038 44.4409 29 43.6055C28.67 42.7457 28.34 41.8859 28 41C27.7525 39.9855 27.505 38.971 27.25 37.9258C27.0644 36.919 26.8787 35.9123 26.6875 34.875C26.4767 33.4789 26.4767 33.4789 26.2617 32.0547C26.1754 31.3766 26.089 30.6986 26 30C26.7245 29.6816 27.4489 29.3632 28.1953 29.0352C29.1209 29.0236 30.0464 29.012 31 29C31.4083 29.4252 31.8166 29.8505 32.2373 30.2886C32.6308 30.8933 33.0243 31.498 33.4297 32.1211C33.8289 32.8057 34.2281 33.4904 34.6394 34.1958C35.0472 34.9356 35.4549 35.6753 35.875 36.4375C36.3092 37.1773 36.7433 37.917 37.1907 38.6792C37.6266 39.4103 38.0626 40.1413 38.5117 40.8945C39.1486 41.967 39.1486 41.967 39.7983 43.061C40.1949 43.7009 40.5914 44.3408 41 45C41.9687 46.3052 41.9687 46.3052 42.957 47.6367C43.5281 48.2929 44.0991 48.949 44.6875 49.625C45.5189 50.5067 45.5189 50.5067 46.3672 51.4062C46.906 51.9322 47.4448 52.4581 48 53C48.5388 53.5259 49.0777 54.0519 49.6328 54.5938C50.1871 55.0991 50.7414 55.6044 51.3125 56.125C51.881 56.5955 52.4495 57.066 53.0352 57.5508C54.0078 58.2681 54.0078 58.2681 55 59C55.8443 59.5504 56.6887 60.1009 57.5586 60.668C58.4468 61.2107 59.3349 61.7534 60.25 62.3125C61.0802 62.8036 61.9103 63.2948 62.7656 63.8008C63.503 64.1965 64.2403 64.5923 65 65C65.99 65.33 66.98 65.66 68 66C67.9342 65.1499 67.8684 64.2999 67.8005 63.4241C67.7357 62.5746 67.7357 62.5746 67.6696 61.708C67.6226 61.0838 67.5757 60.4595 67.5273 59.8164C67.4565 58.852 67.4565 58.852 67.3841 57.8681C67.3358 57.1976 67.2874 56.5272 67.2375 55.8364C67.1633 54.788 67.1633 54.788 67.0876 53.7183C67.038 53.0069 66.9885 52.2955 66.9375 51.5625C66.8889 50.8556 66.8402 50.1487 66.7901 49.4203C66.743 48.7143 66.6958 48.0082 66.6472 47.2808C66.6023 46.5769 66.5575 45.8731 66.5112 45.1479C66.4688 44.4481 66.4265 43.7483 66.3828 43.0273C66.3427 42.3285 66.3025 41.6297 66.2611 40.9097C66.2255 40.2278 66.19 39.5458 66.1533 38.8433C66.1087 37.8592 66.1087 37.8592 66.0631 36.8552C66.0319 35.9369 66.0319 35.9369 66 35C65.9958 33.9702 65.9916 32.9404 65.9873 31.8794C66.0095 30.9924 66.0318 30.1053 66.0547 29.1914C66.0922 28.3986 66.1296 27.6057 66.1682 26.7888C66.2158 26.0748 66.2634 25.3607 66.3125 24.625C66.3595 23.9438 66.4064 23.2626 66.4548 22.5608C66.5071 21.9555 66.5594 21.3502 66.6133 20.7266C66.7409 19.8268 66.8685 18.927 67 18C67.33 17.67 67.66 17.34 68 17Z" fill="black"/>
</g>
<defs>
<clipPath id="clip0_7_859">
<rect width="456" height="2405" fill="white" transform="translate(-304 -1016)"/>
</clipPath>
</defs>
</svg>
