<svg width="152" height="149" viewBox="0 0 152 149" fill="none" xmlns="http://www.w3.org/2000/svg">
<g clip-path="url(#clip0_7_859)">
<path d="M71 16C71.7631 16.2475 72.5263 16.495 73.3125 16.75C74.1994 17.1625 75.0863 17.575 76 18C76.5388 18.5814 77.0777 19.1627 77.6328 19.7617C78.084 20.5004 78.5352 21.239 79 22C79.1457 22.816 79.2913 23.632 79.4414 24.4727C79.5013 25.7546 79.5013 25.7546 79.5625 27.0625C79.605 27.9197 79.6476 28.777 79.6914 29.6602C79.8442 30.8184 79.8442 30.8184 80 32C80.3925 32.8701 80.3925 32.8701 80.793 33.7578C81.1913 34.1677 81.5896 34.5777 82 35C82.8276 35.2881 82.8276 35.2881 83.6719 35.582C84.7005 35.6961 84.7005 35.6961 85.75 35.8125C86.5389 35.8692 87.3278 35.9259 88.1406 35.9844C89.0842 35.9895 90.0278 35.9947 91 36C91.5859 35.989 92.1718 35.9781 92.7754 35.9668C93.4012 35.9417 94.0271 35.9165 94.6719 35.8906C95.3043 35.8461 95.9368 35.8015 96.5884 35.7556C97.2192 35.6919 97.85 35.6282 98.5 35.5625C99.4289 35.4408 99.4289 35.4408 100.376 35.3167C100.956 35.2083 101.536 35.0999 102.133 34.9883C103.079 34.6621 104.025 34.336 105 34C105.369 33.4367 105.737 32.8734 106.117 32.293C106.202 31.6188 106.287 30.9446 106.375 30.25C106.348 29.541 106.321 28.832 106.293 28.1016C106.196 27.408 106.1 26.7145 106 26C105.897 24.8863 105.794 23.7725 105.688 22.625C105.791 21.7588 105.894 20.8925 106 20C107.495 19.4238 107.495 19.4238 109.02 18.8359C110.495 18.4221 110.495 18.4221 112 18C112.41 18.7412 112.82 19.4824 113.242 20.2461C113.503 20.7446 113.764 21.243 114.033 21.7566C114.311 22.3113 114.589 22.866 114.875 23.4375C115.152 24.0173 115.428 24.5972 115.713 25.1946C115.983 25.8058 116.253 26.4171 116.531 27.0469C116.79 27.6908 117.049 28.3346 117.316 28.998C117.542 29.6587 117.768 30.3193 118 31C118.159 31.6581 118.317 32.3161 118.48 32.9941C118.6 33.6612 118.72 34.3283 118.844 35.0156C118.989 36.0383 118.989 36.0383 119.137 37.0815C119.216 37.7765 119.294 38.4715 119.375 39.1875C119.482 40.2512 119.482 40.2512 119.591 41.3364C119.65 42.0581 119.709 42.7799 119.77 43.5234C119.814 44.2553 119.859 44.9872 119.905 45.7412C119.936 46.4866 119.968 47.232 120 48C120.026 49.149 120.026 49.149 120.052 50.3213C120.059 51.0944 120.067 51.8675 120.074 52.6641C120.075 53.4338 120.076 54.2035 120.077 54.9966C120.072 55.7608 120.067 56.5251 120.062 57.3125C120.052 58.0703 120.041 58.8281 120.031 59.6089C120.02 60.3464 120.01 61.0839 120 61.8438C119.994 62.554 119.987 63.2643 119.98 63.9961C119.987 64.6574 119.993 65.3187 120 66C120.083 67.1034 120.165 68.2069 120.25 69.3438C120.353 70.3234 120.456 71.3031 120.562 72.3125C120.7 73.6261 120.7 73.6261 120.84 74.9663C120.919 76.468 120.919 76.468 121 78C120.914 78.9644 120.829 79.9288 120.74 80.9224C120.621 81.9406 120.502 82.9588 120.379 84.0078C120.284 85.1461 120.189 86.2845 120.091 87.4573C120.062 88.0431 120.034 88.6289 120.004 89.2325C120.002 90.1074 120.002 90.1074 120 91C120.122 92.1182 120.243 93.2364 120.368 94.3884C120.564 95.499 120.759 96.6096 120.961 97.7539C121.185 98.876 121.41 99.9982 121.641 101.154C121.883 102.279 122.125 103.404 122.375 104.562C122.61 105.691 122.844 106.82 123.086 107.982C123.313 109.103 123.54 110.224 123.773 111.379C123.986 112.473 124.198 113.568 124.417 114.696C124.609 115.786 124.802 116.877 125 118C125.174 119.136 125.349 120.271 125.528 121.441C125.656 122.521 125.783 123.602 125.914 124.715C126.03 125.684 126.145 126.653 126.264 127.652C126.177 128.427 126.09 129.202 126 130C125.105 130.659 125.105 130.659 124.193 131.33C123.469 131.551 122.746 131.772 122 132C121.01 132 120.02 132 119 132C118.478 131.384 117.956 130.768 117.418 130.133C116.95 129.099 116.482 128.065 116 127C115.841 126.261 115.682 125.522 115.518 124.761C115.318 123.514 115.318 123.514 115.113 122.242C114.979 121.369 114.844 120.497 114.705 119.598C114.576 118.699 114.446 117.801 114.312 116.875C114.147 115.516 114.147 115.516 113.979 114.129C113.837 113.259 113.696 112.389 113.551 111.492C113.351 110.683 113.151 109.873 112.944 109.039C112.633 108.366 112.321 107.693 112 107C111.235 106.376 111.235 106.376 110.454 105.74C109.821 105.471 109.188 105.203 108.535 104.926C107.825 104.741 107.114 104.556 106.383 104.365C105.203 104.184 105.203 104.184 104 104C103.146 103.9 102.292 103.8 101.412 103.697C100.516 103.628 99.6191 103.559 98.6953 103.488C97.3263 103.435 97.3263 103.435 95.9297 103.381C95.0041 103.358 94.0786 103.336 93.125 103.312C92.1762 103.278 91.2275 103.244 90.25 103.209C89.3451 103.177 88.4402 103.146 87.5078 103.113C86.2802 103.079 86.2802 103.079 85.0278 103.044C84.3586 103.03 83.6895 103.015 83 103C82.34 103 81.68 103 81 103C80.9551 103.681 80.9102 104.362 80.864 105.064C80.7993 106.008 80.7346 106.953 80.668 107.926C80.5529 109.462 80.5529 109.462 80.4355 111.029C80.3537 112.113 80.2718 113.196 80.1875 114.312C80.1172 115.384 80.047 116.456 79.9746 117.561C79.8538 119.103 79.8538 119.103 79.7305 120.676C79.6284 122.098 79.6284 122.098 79.5242 123.548C79.3512 124.357 79.1782 125.166 79 126C78.4899 126.605 77.9799 127.21 77.4543 127.833C76.9744 128.218 76.4945 128.603 76 129C75.01 128.01 75.01 128.01 74 127C73.7736 126.502 73.5472 126.004 73.314 125.491C73.115 124.911 72.916 124.332 72.7109 123.734C72.4918 123.091 72.2727 122.448 72.0469 121.785C71.8252 121.114 71.6034 120.442 71.375 119.75C71.1455 119.094 70.9161 118.438 70.6797 117.762C70.4631 117.113 70.2466 116.465 70.0234 115.797C69.8267 115.213 69.63 114.628 69.4272 114.026C69.2863 113.358 69.1453 112.689 69 112C68.9789 110.932 68.9578 109.863 68.936 108.763C68.9571 107.851 68.9783 106.939 69 106C68.0463 105.963 67.0927 105.927 66.1101 105.889C65.4791 105.866 64.8481 105.844 64.198 105.82C63.5075 105.798 62.8169 105.777 62.1055 105.754C61.4023 105.737 60.6992 105.721 59.9747 105.704C59.2476 105.689 58.5206 105.674 57.7715 105.658C57.0196 105.644 56.2676 105.63 55.4929 105.615C54.7321 105.598 53.9713 105.581 53.1875 105.562C52.432 105.533 51.6766 105.503 50.8982 105.472C50.1526 105.443 49.4069 105.414 48.6387 105.385C47.9106 105.372 47.1826 105.359 46.4324 105.346C45.3734 105.332 45.3734 105.332 44.293 105.316C43.6085 105.28 42.924 105.244 42.2188 105.207C41.5784 105.206 40.9379 105.206 40.2781 105.205C39.1963 105.468 38.1145 105.73 37 106C36.4577 106.748 36.4577 106.748 35.9044 107.51C35.6335 108.125 35.3625 108.74 35.0833 109.374C34.8779 109.987 34.6725 110.599 34.4609 111.23C34.3088 111.814 34.1567 112.398 34 113C33.6906 114.334 33.6906 114.334 33.375 115.695C33.2512 116.497 33.1275 117.299 33 118.125C32.7718 119.393 32.7718 119.393 32.5391 120.688C32.3612 121.451 32.1833 122.214 32 123C31.6094 123.866 31.6094 123.866 31.2109 124.75C30.9351 125.204 30.6592 125.657 30.375 126.125C29.9212 126.744 29.4675 127.363 29 128C28.5209 127.583 28.0417 127.166 27.5481 126.736C27.0372 126.163 26.5264 125.59 26 125C25.8159 124.422 25.6318 123.844 25.4421 123.248C25.3723 122.578 25.3024 121.909 25.2305 121.219C25.1665 120.421 25.1025 119.623 25.0366 118.801C25.0245 117.877 25.0125 116.952 25 116C25.0588 114.921 25.1176 113.842 25.1782 112.73C25.225 112.151 25.2718 111.571 25.3201 110.973C25.3756 110.374 25.4311 109.774 25.4883 109.156C25.5808 108.238 25.5808 108.238 25.6752 107.302C25.742 106.676 25.8088 106.05 25.8777 105.406C25.9487 104.767 26.0197 104.129 26.0929 103.472C26.1653 102.821 26.2378 102.17 26.3125 101.5C26.418 100.5 26.418 100.5 26.5255 99.4796C26.6305 98.472 26.6305 98.472 26.7375 97.4441C26.8078 96.7765 26.8781 96.1089 26.9505 95.4211C27.0562 94.4295 27.0562 94.4295 27.1641 93.418C27.2713 92.4378 27.2713 92.4378 27.3807 91.4379C27.4513 90.8053 27.522 90.1727 27.5947 89.521C27.6978 88.6139 27.6978 88.6139 27.8029 87.6884C27.8679 87.1312 27.933 86.5741 28 86C28.1131 85.0946 28.2262 84.1892 28.3428 83.2563C28.4941 82.1027 28.4941 82.1027 28.6484 80.9258C28.7413 80.2229 28.8341 79.5201 28.9297 78.7959C29.0148 78.1414 29.0998 77.4869 29.1875 76.8125C29.2674 76.1644 29.3473 75.5163 29.4297 74.8486C29.5019 74.2089 29.5741 73.5692 29.6484 72.9102C29.7427 71.961 29.7427 71.961 29.8389 70.9927C29.9186 70.0063 29.9186 70.0063 30 69C30.0429 68.2741 30.0857 67.5482 30.1299 66.8003C30.1618 66.0399 30.1937 65.2795 30.2266 64.4961C30.2463 63.7181 30.266 62.94 30.2864 62.1384C30.2993 60.9562 30.2993 60.9562 30.3125 59.75C30.3127 58.9715 30.313 58.193 30.3132 57.3909C30.2988 56.6019 30.2844 55.8129 30.2695 55C30.2381 54.193 30.2067 53.3861 30.1743 52.5547C30.088 51.2901 30.088 51.2901 30 50C29.8999 49.0848 29.7999 48.1695 29.6968 47.2266C29.5738 46.2855 29.4509 45.3445 29.3242 44.375C29.1917 43.4369 29.0592 42.4988 28.9226 41.5322C28.7831 40.6141 28.6437 39.696 28.5 38.75C28.3573 37.8808 28.2146 37.0117 28.0676 36.1162C27.9319 35.289 27.7961 34.4617 27.6562 33.6094C27.5338 32.825 27.4113 32.0406 27.2852 31.2324C27.1911 30.4957 27.097 29.759 27 29C26.9575 28.3097 26.9149 27.6194 26.8711 26.9082C26.8621 26.2837 26.853 25.6591 26.8438 25.0156C26.8953 24.0205 26.9469 23.0253 27 22C27.33 21.34 27.66 20.68 28 20C28.7928 19.8608 29.5855 19.7216 30.4023 19.5781C31.2596 19.7173 32.1168 19.8566 33 20C33.4757 20.6548 33.9513 21.3097 34.4414 21.9844C34.8114 22.897 35.1813 23.8097 35.5625 24.75C35.9673 25.7542 36.372 26.7584 36.7891 27.793C37.1887 28.8513 37.5883 29.9096 38 31C38.4202 32.0068 38.8405 33.0135 39.2734 34.0508C39.6576 35.0446 40.0417 36.0385 40.4375 37.0625C40.7611 38.0564 41.0846 39.0502 41.418 40.0742C41.61 41.0397 41.8021 42.0052 42 43C41.9343 43.9139 41.8685 44.8279 41.8008 45.7695C41.619 46.6293 41.4373 47.4891 41.25 48.375C41.0334 49.1794 40.8169 49.9837 40.5938 50.8125C40.3978 51.5344 40.2019 52.2563 40 53C39.9175 54.1137 39.835 55.2275 39.75 56.375C39.8738 57.6744 39.8738 57.6744 40 59C40.2062 59.7425 40.4125 60.485 40.625 61.25C41.3056 62.1162 41.3056 62.1162 42 63C42.8289 63.3687 43.6577 63.7373 44.5117 64.1172C45.3161 64.3666 45.3161 64.3666 46.1367 64.6211C47.059 64.8087 47.059 64.8087 48 65C48.7025 65.0425 49.4051 65.0851 50.1289 65.1289C50.8843 65.125 51.6397 65.1212 52.418 65.1172C53.1972 65.0837 53.9764 65.0502 54.7793 65.0156C55.574 64.9692 56.3687 64.9228 57.1875 64.875C57.9938 64.8518 58.8001 64.8286 59.6309 64.8047C60.4062 64.7634 61.1816 64.7222 61.9805 64.6797C62.6807 64.646 63.3809 64.6123 64.1023 64.5776C65.0417 64.2917 65.0417 64.2917 66 64C66.5733 63.4959 67.1466 62.9918 67.7373 62.4724C68.154 61.6565 68.5707 60.8406 69 60C69.1182 59.1372 69.1182 59.1372 69.2387 58.2569C69.2734 57.2687 69.2734 57.2687 69.3088 56.2605C69.3022 55.5426 69.2955 54.8248 69.2886 54.0851C69.2668 53.3184 69.2451 52.5517 69.2227 51.7617C69.2137 50.9627 69.2047 50.1637 69.1954 49.3405C69.1857 48.5147 69.176 47.6888 69.166 46.8379C69.1497 45.992 69.1333 45.1462 69.1165 44.2747C69.0897 42.994 69.0897 42.994 69.0625 41.6875C69.0465 40.8391 69.0304 39.9906 69.0139 39.1165C68.9997 38.2769 68.9854 37.4373 68.9707 36.5723C68.9556 35.332 68.9556 35.332 68.9403 34.0666C68.9254 32.8638 68.9254 32.8638 68.9102 31.6367C68.8904 30.8761 68.8707 30.1154 68.8504 29.3317C68.8405 28.6044 68.8307 27.8771 68.8206 27.1277C68.8311 26.0916 68.8311 26.0916 68.8418 25.0345C68.894 24.3631 68.9462 23.6917 69 23C69.2237 21.964 69.2237 21.964 69.4519 20.9071C69.6346 20.2646 69.8173 19.6222 70.0056 18.9602C70.3338 17.9833 70.6619 17.0065 71 16ZM99 41C97.4551 41.1644 97.4551 41.1644 95.8789 41.332C94.7845 41.4906 93.6901 41.6491 92.5625 41.8125C91.4243 41.9943 90.286 42.176 89.1133 42.3633C88.0859 42.5734 87.0585 42.7835 86 43C85.2923 43.2411 84.5846 43.4821 83.8555 43.7305C83.3257 43.9844 82.7959 44.2384 82.25 44.5C81.5075 44.995 80.765 45.49 80 46C79.67 46.66 79.34 47.32 79 48C78.933 48.5723 78.8659 49.1447 78.7969 49.7344C78.7814 50.3995 78.7659 51.0647 78.75 51.75C78.7564 52.4577 78.7629 53.1654 78.7695 53.8945C78.8456 54.5893 78.9216 55.2841 79 56C79.3152 56.903 79.3152 56.903 79.6367 57.8242C79.901 58.3566 80.1652 58.889 80.4375 59.4375C80.9531 60.2831 81.4688 61.1288 82 62C82.33 62.33 82.66 62.66 83 63C83.8875 63.1005 83.8875 63.1005 84.793 63.2031C85.5832 63.2186 86.3734 63.2341 87.1875 63.25C88.5236 63.2365 88.5236 63.2365 89.8867 63.2227C91.4278 63.1124 91.4278 63.1124 93 63C93.5976 62.9173 94.1953 62.8347 94.811 62.7495C95.4367 62.6453 96.0624 62.541 96.707 62.4336C97.3352 62.314 97.9634 62.1945 98.6106 62.0713C99.2341 61.9446 99.8576 61.818 100.5 61.6875C101.417 61.5111 101.417 61.5111 102.352 61.3311C102.927 61.205 103.502 61.079 104.094 60.9492C105.053 60.636 106.012 60.3227 107 60C107.459 59.5385 107.918 59.077 108.391 58.6016C108.592 58.073 108.793 57.5445 109 57C109.083 55.9069 109.165 54.8138 109.25 53.6875C109.221 52.7729 109.221 52.7729 109.191 51.8398C109.128 51.2327 109.065 50.6255 109 50C108.732 48.9275 108.464 47.855 108.188 46.75C107.796 45.8425 107.404 44.935 107 44C106.567 43.3813 106.134 42.7625 105.688 42.125C105.131 41.7537 104.574 41.3825 104 41C103.273 40.96 102.546 40.9201 101.797 40.8789C100.874 40.9189 99.9509 40.9588 99 41ZM86 68C85.3051 68.1143 84.6102 68.2286 83.8943 68.3464C83.264 68.5002 82.6337 68.654 81.9844 68.8125C80.5071 69.4003 80.5071 69.4003 79 70C78.6494 71.0519 78.2988 72.1037 77.9375 73.1875C77.9091 73.8849 77.8808 74.5823 77.8516 75.3008C77.9005 76.1915 77.9495 77.0823 78 78C78.073 78.896 78.073 78.896 78.1475 79.8101C78.2097 80.4644 78.2719 81.1188 78.3359 81.793C78.4108 82.4637 78.4856 83.1344 78.5627 83.8254C78.6864 84.84 78.6864 84.84 78.8125 85.875C78.8943 86.5417 78.976 87.2084 79.0603 87.8953C79.15 88.5254 79.2396 89.1555 79.332 89.8047C79.5525 90.8591 79.7729 91.9136 80 93C80.66 93.66 81.32 94.32 82 95C82.6163 95.2021 83.2327 95.4041 83.8677 95.6123C84.5713 95.7402 85.275 95.8682 86 96C86.9956 96.0798 86.9956 96.0798 88.0112 96.1611C88.7062 96.175 89.4012 96.1888 90.1172 96.2031C90.8893 96.2134 91.6615 96.2237 92.457 96.2344C93.255 96.2395 94.0529 96.2447 94.875 96.25C95.6652 96.2706 96.4554 96.2912 97.2695 96.3125C98.0443 96.3177 98.819 96.3228 99.6172 96.3281C100.365 96.294 101.113 96.26 101.884 96.2249C102.582 96.1507 103.281 96.0765 104 96C104.622 95.8891 105.244 95.7781 105.885 95.6638C106.428 95.4796 106.972 95.2953 107.531 95.1055C108.346 94.4107 109.161 93.7159 110 93C110.173 92.3211 110.346 91.6423 110.524 90.9429C110.591 90.1277 110.658 89.3125 110.727 88.4727C110.725 87.598 110.724 86.7234 110.723 85.8223C110.674 84.4562 110.674 84.4562 110.625 83.0625C110.631 82.1556 110.638 81.2488 110.645 80.3145C110.63 79.4385 110.616 78.5626 110.602 77.6602C110.511 76.419 110.511 76.419 110.419 75.1528C110.281 74.4424 110.142 73.732 110 73C109.053 71.7296 109.053 71.7296 108.086 70.4336C107.398 69.9605 106.709 69.4874 106 69C105.34 68.67 104.68 68.34 104 68C103.416 67.9521 102.833 67.9041 102.232 67.8547C101.533 67.8472 100.834 67.8398 100.113 67.832C99.3392 67.8262 98.5651 67.8204 97.7676 67.8145C96.5523 67.8135 96.5523 67.8135 95.3125 67.8125C94.5217 67.8003 93.7308 67.788 92.916 67.7754C92.1355 67.7735 91.355 67.7715 90.5508 67.7695C89.4014 67.8001 89.4014 67.8001 88.2288 67.8313C87.4933 67.887 86.7578 67.9426 86 68ZM48 70C47.2111 70.0516 46.4222 70.1031 45.6094 70.1562C44.9958 70.2284 44.3822 70.3006 43.75 70.375C42.3887 70.6844 42.3887 70.6844 41 71C40.34 71.66 39.68 72.32 39 73C38.8645 73.6045 38.729 74.209 38.5894 74.8318C38.516 75.5563 38.4427 76.2809 38.3672 77.0273C38.2834 77.8195 38.1996 78.6116 38.1133 79.4277C38.0346 80.256 37.956 81.0842 37.875 81.9375C37.7886 82.7619 37.7023 83.5862 37.6133 84.4355C37.5321 85.229 37.4509 86.0224 37.3672 86.8398C37.2961 87.5655 37.2251 88.2912 37.1519 89.0388C37.1017 89.686 37.0516 90.3332 37 91C37 91.99 37 92.98 37 94C37.4357 94.3016 37.8714 94.6033 38.3203 94.9141C38.9159 95.1487 39.5114 95.3833 40.125 95.625C40.7721 95.8712 41.4192 96.1174 42.0859 96.3711C43.0334 96.6824 43.0334 96.6824 44 97C44.9075 97.2269 45.815 97.4537 46.75 97.6875C47.8225 97.7906 48.895 97.8937 50 98C51.2568 98.0793 51.2568 98.0793 52.5391 98.1602C53.9429 98.2046 53.9429 98.2046 55.375 98.25C56.3186 98.2436 57.2622 98.2371 58.2344 98.2305C59.6034 98.1164 59.6034 98.1164 61 98C61.8095 97.7899 62.6191 97.5798 63.4531 97.3633C64.1698 97.099 64.8866 96.8348 65.625 96.5625C66.2566 96.2957 66.8883 96.0288 67.5391 95.7539C68.0212 95.5051 68.5033 95.2563 69 95C69.495 94.505 69.495 94.505 70 94C70.0427 93.479 70.0854 92.958 70.1294 92.4211C70.1305 91.7524 70.1317 91.0836 70.1328 90.3945C70.1341 89.6578 70.1354 88.9211 70.1367 88.1621C70.1309 86.9991 70.1309 86.9991 70.125 85.8125C70.1289 85.0565 70.1327 84.3004 70.1367 83.5215C70.1348 82.4068 70.1348 82.4068 70.1328 81.2695C70.1181 80.5435 70.1033 79.8174 70.0881 79.0693C70.0591 78.3865 70.03 77.7036 70 77C69.9548 76.3867 69.9096 75.7735 69.863 75.1416C69.7961 74.6012 69.7291 74.0607 69.6602 73.5039C69.4423 72.6776 69.2245 71.8513 69 71C68.1131 70.7113 67.2262 70.4225 66.3125 70.125C65.6899 70.0889 65.0673 70.0528 64.4258 70.0156C63.225 70.0079 63.225 70.0079 62 70C60.9004 69.9742 59.8009 69.9484 58.668 69.9219C58.0698 69.9119 57.4716 69.9019 56.8552 69.8916C55.9369 69.8834 55.9369 69.8834 55 69.875C54.3871 69.8773 53.7743 69.8795 53.1428 69.8818C52.544 69.8899 51.9451 69.8979 51.3281 69.9062C50.2298 69.9372 49.1316 69.9681 48 70Z" fill="black"/>
</g>
<defs>
<clipPath id="clip0_7_859">
<rect width="456" height="2405" fill="white" transform="translate(-152 -595)"/>
</clipPath>
</defs>
</svg>
