<svg width="152" height="164" viewBox="0 0 152 164" fill="none" xmlns="http://www.w3.org/2000/svg">
<g clip-path="url(#clip0_7_859)">
<path d="M111 22C111.825 22.2269 112.65 22.4537 113.5 22.6875C114.325 23.1206 115.15 23.5538 116 24C116.378 24.6015 116.755 25.203 117.145 25.8228C117.427 26.5412 117.709 27.2597 118 28C118.076 28.6669 118.152 29.3339 118.23 30.021C118.216 30.7231 118.202 31.4251 118.188 32.1484C118.169 32.9409 118.151 33.7333 118.133 34.5498C118.089 35.3584 118.045 36.1669 118 37C117.936 37.7441 117.871 38.4882 117.805 39.2549C117.725 40.0087 117.645 40.7624 117.562 41.5391C117.427 42.7488 117.427 42.7488 117.289 43.9829C117.193 44.8548 117.098 45.7267 117 46.625C116.906 47.591 116.812 48.557 116.715 49.5522C116.626 50.6075 116.537 51.6628 116.445 52.75C116.363 53.8895 116.281 55.0291 116.196 56.2031C116.143 57.1172 116.143 57.1172 116.089 58.0498C116.059 58.6934 116.03 59.3369 116 60C115.972 61.035 115.972 61.035 115.943 62.0908C115.93 62.8137 115.918 63.5365 115.905 64.2812C115.897 65.0285 115.889 65.7758 115.881 66.5457C115.874 67.6987 115.874 67.6987 115.867 68.875C115.865 69.6597 115.863 70.4444 115.86 71.2529C115.86 72.0523 115.86 72.8517 115.86 73.6753C115.862 74.4879 115.864 75.3004 115.866 76.1376C115.869 76.9585 115.872 77.7793 115.875 78.625C115.879 79.8589 115.879 79.8589 115.884 81.1177C115.887 81.9453 115.891 82.7729 115.894 83.6255C115.898 84.4594 115.902 85.2934 115.907 86.1526C115.914 87.4112 115.914 87.4112 115.922 88.6953C115.931 89.9606 115.931 89.9606 115.94 91.2515C115.946 92.0995 115.952 92.9476 115.959 93.8213C115.966 94.6729 115.972 95.5245 115.979 96.402C115.99 97.688 115.99 97.688 116 99C116.01 100.301 116.01 100.301 116.021 101.629C116.027 102.499 116.034 103.369 116.041 104.265C116.051 105.564 116.051 105.564 116.061 106.889C116.066 107.748 116.072 108.607 116.078 109.492C116.082 110.339 116.087 111.185 116.091 112.057C116.095 112.891 116.098 113.725 116.102 114.583C116.105 115.403 116.109 116.222 116.112 117.066C116.118 118.271 116.118 118.271 116.125 119.5C116.138 120.682 116.138 120.682 116.15 121.888C116.163 123.037 116.163 123.037 116.175 124.209C116.179 124.951 116.183 125.692 116.186 126.456C116.189 127.162 116.192 127.867 116.195 128.594C116.206 129.243 116.216 129.892 116.227 130.561C116.227 131.177 116.227 131.793 116.227 132.428C116.209 133.015 116.19 133.603 116.171 134.209C116.114 134.8 116.058 135.391 116 136C115.872 136.657 115.744 137.314 115.612 137.99C115.366 138.945 115.366 138.945 115.114 139.919C114.746 140.936 114.379 141.953 114 143C113 143.346 113 143.346 111.98 143.699C111.327 143.468 110.673 143.238 110 143C109.666 142.429 109.332 141.858 108.988 141.27C108.765 140.459 108.542 139.648 108.312 138.812C108.07 137.913 107.828 137.013 107.578 136.086C107.387 135.068 107.197 134.049 107 133C106.948 132.428 106.896 131.856 106.842 131.267C106.806 130.676 106.771 130.085 106.734 129.477C106.702 128.889 106.669 128.301 106.635 127.696C106.611 127.116 106.587 126.535 106.562 125.938C106.543 124.833 106.524 123.728 106.504 122.59C106.254 121.308 106.254 121.308 106 120C105.433 119.784 104.865 119.569 104.281 119.346C103.528 119.232 102.775 119.118 102 119C101.215 118.957 100.43 118.915 99.6216 118.871C98.759 118.869 97.8965 118.868 97.0078 118.867C95.5789 118.865 95.5789 118.865 94.1211 118.863C93.1324 118.867 92.1437 118.871 91.125 118.875C90.144 118.871 89.163 118.867 88.1523 118.863C87.1971 118.865 86.242 118.866 85.2578 118.867C83.887 118.899 83.887 118.899 82.4885 118.931C81.6673 118.954 80.8461 118.976 80 119C79.3431 118.989 78.6863 118.979 78.0095 118.968C77.2024 119.003 77.2024 119.003 76.3789 119.039C75.5939 119.356 74.8088 119.673 74 120C73.6971 121.103 73.3941 122.207 73.082 123.344C73.0247 124.013 72.9673 124.682 72.9082 125.371C72.8766 126.074 72.845 126.776 72.8125 127.5C72.7693 128.203 72.7261 128.905 72.6816 129.629C72.6281 130.298 72.5746 130.967 72.5195 131.656C72.3481 132.76 72.1766 133.863 72 135C71.01 135.33 70.02 135.66 69 136C68.01 135.67 67.02 135.34 66 135C65.7589 134.399 65.5179 133.799 65.2695 133.18C65.1187 132.419 64.9679 131.659 64.8125 130.875C64.6539 130.13 64.4954 129.385 64.332 128.617C64.2225 127.754 64.1129 126.89 64 126C63.9756 125.076 63.9756 125.076 63.9507 124.134C63.9502 123.494 63.9497 122.854 63.9492 122.195C63.966 121.141 63.9827 120.086 64 119C62.8281 118.984 62.8281 118.984 61.6326 118.968C60.546 118.956 59.4594 118.943 58.3398 118.93C57.7572 118.925 57.1745 118.92 56.5741 118.915C55.9702 118.911 55.3663 118.907 54.7441 118.902C54.1187 118.898 53.4933 118.894 52.8489 118.89C51.9027 118.883 51.9027 118.883 50.9375 118.875C50.3192 118.866 49.7008 118.858 49.0637 118.849C48.4529 118.841 47.8422 118.833 47.2129 118.824C46.6102 118.819 46.0075 118.814 45.3865 118.809C44.7936 118.807 44.2007 118.806 43.5898 118.805C41.8641 118.824 41.8641 118.824 40.1035 118.844C39.0794 118.896 38.0552 118.947 37 119C36.213 119.122 35.4261 119.243 34.6152 119.368C33.9881 119.529 33.361 119.69 32.7148 119.855C31.8189 120.233 30.923 120.611 30 121C29.5462 121.804 29.0925 122.609 28.625 123.438C28.5038 123.96 28.3827 124.482 28.2578 125.02C28.1727 125.673 28.0877 126.327 28 127C27.9149 127.891 27.8298 128.781 27.7422 129.699C27.6623 130.665 27.5823 131.63 27.5 132.625C27.4484 133.545 27.3969 134.466 27.3438 135.414C27.1736 136.694 27.1736 136.694 27 138C26.7216 138.75 26.4431 139.5 26.1562 140.273C25.7747 140.843 25.3931 141.413 25 142C23.515 142.495 23.515 142.495 22 143C21.4844 142.216 20.9688 141.433 20.4375 140.625C20.1642 140.076 19.8909 139.527 19.6094 138.961C19.4083 138.314 19.2072 137.667 19 137C18.9845 136.25 18.9691 135.5 18.9531 134.727C19.0305 133.909 19.1078 133.092 19.1875 132.25C19.2842 131.492 19.3809 130.734 19.4805 129.953C19.6519 128.979 19.8234 128.004 20 127C20.1385 126.395 20.2771 125.79 20.4198 125.166C20.6629 124.072 20.6629 124.072 20.9109 122.957C21.0895 122.063 21.2682 121.17 21.4523 120.25C21.633 119.177 21.8138 118.105 22 117C22.0819 116.373 22.1638 115.746 22.2482 115.1C22.3271 114.424 22.406 113.748 22.4873 113.051C22.5656 112.336 22.6439 111.621 22.7245 110.885C22.8418 109.76 22.8418 109.76 22.9614 108.613C23.0807 107.447 23.0807 107.447 23.2023 106.258C23.2828 105.454 23.3634 104.65 23.4463 103.822C23.5684 102.58 23.5684 102.58 23.693 101.312C23.8179 100.04 23.8179 100.04 23.9453 98.7422C24.0317 97.8798 24.1182 97.0174 24.2072 96.1289C24.2955 95.2519 24.3838 94.375 24.4748 93.4715C24.5643 92.5808 24.6538 91.6901 24.7459 90.7725C24.8814 89.4194 24.8814 89.4194 25.0195 88.0391C25.1099 87.1278 25.2003 86.2166 25.2935 85.2777C25.3843 84.3588 25.4752 83.4399 25.5688 82.4932C25.6603 81.5688 25.7517 80.6444 25.8458 79.692C25.938 78.7624 26.0301 77.8328 26.125 76.875C26.2184 75.939 26.3118 75.0029 26.4081 74.0385C26.5017 73.1028 26.5954 72.1672 26.6919 71.2031C26.7851 70.2724 26.8784 69.3417 26.9744 68.3828C27.0666 67.4624 27.1589 66.542 27.2539 65.5938C27.3442 64.6915 27.4346 63.7892 27.5276 62.8596C27.6164 61.9725 27.7052 61.0854 27.7966 60.1714C27.8837 59.3007 27.9707 58.4301 28.0604 57.533C28.1462 56.6739 28.2319 55.8148 28.3203 54.9297C28.4059 54.0701 28.4914 53.2105 28.5796 52.3248C28.6627 51.4878 28.7459 50.6507 28.8316 49.7883C28.9105 48.9934 28.9894 48.1985 29.0706 47.3795C29.1829 46.2478 29.1829 46.2478 29.2974 45.0933C29.369 44.3703 29.4407 43.6473 29.5145 42.9024C29.6112 41.927 29.6112 41.927 29.7097 40.9319C29.8055 39.9643 29.9013 38.9968 30 38C30.611 37.9523 31.222 37.9046 31.8516 37.8555C32.915 37.927 32.915 37.927 34 38C34.7837 38.7631 35.5675 39.5263 36.375 40.3125C36.7091 40.8659 37.0432 41.4193 37.3875 41.9895C37.5896 42.653 37.7917 43.3164 38 44C37.9218 44.7737 37.8435 45.5474 37.7629 46.3445C37.5692 47.2144 37.3754 48.0842 37.1758 48.9805C36.9786 49.9527 36.7813 50.9249 36.5781 51.9265C36.292 53.4479 36.292 53.4479 36 55C35.8762 55.9904 35.7525 56.9808 35.625 58.0012C35.5283 58.9908 35.4316 59.9804 35.332 61C35.2437 61.9887 35.1554 62.9774 35.0645 63.9961C34.9813 64.9874 34.8982 65.9787 34.8125 67C34.6704 68.5333 34.6704 68.5333 34.5254 70.0977C34.441 71.0761 34.3565 72.0545 34.2695 73.0625C34.1932 73.9404 34.1169 74.8182 34.0383 75.7227C34.0257 76.4742 34.013 77.2257 34 78C34.33 78.99 34.66 79.98 35 81C35.7734 81.1083 36.5469 81.2166 37.3438 81.3281C38.9061 81.2895 38.9061 81.2895 40.5 81.25C41.0623 81.239 41.6245 81.2281 42.2039 81.2168C42.8005 81.202 43.397 81.1871 44.0117 81.1719C44.6464 81.1467 45.2811 81.1216 45.9351 81.0957C46.6165 81.0641 47.2979 81.0325 48 81C48.7523 80.9633 49.5047 80.9265 50.2798 80.8887C51.0602 80.8481 51.8405 80.8075 52.6445 80.7656C53.8066 80.7013 53.8066 80.7013 54.9922 80.6357C55.7579 80.5909 56.5236 80.5462 57.3125 80.5C58.0718 80.4526 58.831 80.4053 59.6133 80.3564C60.3145 80.311 61.0158 80.2656 61.7383 80.2188C63.3528 80.1105 63.3528 80.1105 65 80C65.0374 79.2536 65.0748 78.5073 65.1133 77.7383C65.179 76.6078 65.2448 75.4773 65.3125 74.3125C65.3724 73.3646 65.3724 73.3646 65.4336 72.3975C65.4826 71.6901 65.5316 70.9827 65.582 70.2539C65.6421 69.4548 65.7022 68.6558 65.7642 67.8325C65.842 66.8978 65.9198 65.9631 66 65C66.0509 64.4419 66.1018 63.8838 66.1542 63.3088C66.2108 62.7091 66.2674 62.1095 66.3257 61.4917C66.3859 60.867 66.4461 60.2422 66.5081 59.5986C66.5712 58.9563 66.6342 58.3141 66.6992 57.6523C66.7638 57.0061 66.8283 56.3599 66.8949 55.694C66.9607 55.0424 67.0266 54.3908 67.0945 53.7195C67.1948 52.737 67.1948 52.737 67.2972 51.7347C67.3641 51.0798 67.4311 50.4248 67.5 49.75C67.5657 49.0958 67.6314 48.4415 67.6991 47.7675C67.764 47.124 67.8289 46.4806 67.8958 45.8176C67.9604 45.1936 68.025 44.5697 68.0916 43.9268C68.1542 43.327 68.2168 42.7273 68.2812 42.1094C68.3953 41.0056 68.5094 39.9019 68.627 38.7646C68.7501 37.8523 68.8732 36.94 69 36C69.33 35.01 69.66 34.02 70 33C70.8456 32.7731 71.6913 32.5463 72.5625 32.3125C73.3669 32.2094 74.1712 32.1063 75 32C75.495 33.485 75.495 33.485 76 35C76.0322 35.6827 76.0645 36.3654 76.0977 37.0688C76.0861 37.8428 76.0745 38.6167 76.0625 39.4141C76.0548 40.2571 76.047 41.1002 76.0391 41.9688C76.0262 42.8453 76.0133 43.7219 76 44.625C75.9871 45.5093 75.9742 46.3936 75.9609 47.3047C75.9532 48.1452 75.9455 48.9856 75.9375 49.8516C75.9259 50.6232 75.9143 51.3949 75.9023 52.1899C75.9346 52.7873 75.9668 53.3846 76 54C76.33 54.33 76.66 54.66 77 55C78.7228 54.9323 78.7228 54.9323 80.4805 54.8633C81.2028 54.7623 81.9252 54.6612 82.6694 54.5571C83.4385 54.3733 84.2076 54.1894 85 54C85.7575 53.6834 86.515 53.3667 87.2954 53.0405C88.4428 52.4539 88.4428 52.4539 89.6133 51.8555C90.3861 51.4256 91.1589 50.9957 91.9551 50.5527C92.733 50.1022 93.511 49.6517 94.3125 49.1875C95.1098 48.7486 95.9071 48.3096 96.7285 47.8574C97.4949 47.4237 98.2612 46.9899 99.0508 46.543C100.082 45.9555 100.082 45.9555 101.134 45.3562C101.75 44.9087 102.366 44.4611 103 44C103.558 43.3716 104.117 42.7432 104.692 42.0957C105.339 41.0583 105.339 41.0583 106 40C106.193 39.3404 106.386 38.6808 106.584 38.0012C106.681 37.3163 106.779 36.6314 106.879 35.9258C106.996 35.1762 107.112 34.4266 107.232 33.6543C107.341 32.8815 107.45 32.1087 107.562 31.3125C107.675 30.5281 107.788 29.7437 107.904 28.9355C108.02 28.1898 108.135 27.4441 108.254 26.6758C108.398 25.6535 108.398 25.6535 108.545 24.6106C108.695 24.0791 108.845 23.5476 109 23C109.66 22.67 110.32 22.34 111 22ZM100 56C99.2013 56.2925 98.4027 56.5849 97.5798 56.8862C96.6447 57.2924 95.7096 57.6987 94.7461 58.1172C93.7271 58.5593 92.7081 59.0015 91.6582 59.457C91.1298 59.6899 90.6013 59.9227 90.0569 60.1626C89.5225 60.3977 88.9881 60.6328 88.4375 60.875C87.6332 61.2223 87.6332 61.2223 86.8127 61.5767C86.0169 61.9196 86.0169 61.9196 85.2051 62.2695C83.6785 62.9366 83.6785 62.9366 82.1211 63.6172C80.7201 64.2299 80.7201 64.2299 79.2908 64.855C78.5348 65.2328 77.7789 65.6107 77 66C76.34 66.66 75.68 67.32 75 68C74.7319 69.0931 74.4638 70.1862 74.1875 71.3125C74.0231 72.1729 74.0231 72.1729 73.8555 73.0508C73.9032 73.694 73.9509 74.3373 74 75C74.3029 75.8907 74.6059 76.7815 74.918 77.6992C75.605 78.4585 76.2921 79.2177 77 80C77.6219 80.1474 78.2438 80.2947 78.8845 80.4465C79.6265 80.4951 80.3684 80.5437 81.1328 80.5938C82.3432 80.5899 82.3432 80.5899 83.5781 80.5859C84.8388 80.5434 84.8388 80.5434 86.125 80.5C86.9423 80.5026 87.7595 80.5052 88.6016 80.5078C89.4162 80.4949 90.2309 80.482 91.0703 80.4688C92.287 80.3972 92.287 80.3972 93.5283 80.3242C94.344 80.2172 95.1596 80.1102 96 80C96.8543 79.7796 97.7087 79.5591 98.5889 79.332C99.4026 79.0678 100.216 78.8035 101.055 78.5312C101.789 78.2689 102.524 78.0066 103.281 77.7363C104.132 77.3718 104.132 77.3718 105 77C105.33 76.67 105.66 76.34 106 76C106.053 75.4633 106.106 74.9265 106.161 74.3735C106.175 73.6857 106.189 72.9978 106.203 72.2891C106.213 71.5388 106.224 70.7886 106.234 70.0156C106.24 69.2267 106.245 68.4378 106.25 67.625C106.271 66.8438 106.291 66.0627 106.312 65.2578C106.318 64.505 106.323 63.7522 106.328 62.9766C106.337 62.2864 106.347 61.5963 106.356 60.8853C106.239 60.2631 106.121 59.641 106 59C105.56 58.423 105.12 57.846 104.667 57.2515C104.117 56.8385 103.567 56.4255 103 56C102.01 56 101.02 56 100 56ZM100 86C99.2027 85.9771 98.4054 85.9542 97.584 85.9307C96.7622 85.9587 95.9404 85.9867 95.0938 86.0156C93.7306 86.0678 93.7306 86.0678 92.3398 86.1211C91.4027 86.1636 90.4655 86.2062 89.5 86.25C88.0943 86.2906 88.0943 86.2906 86.6602 86.332C85.297 86.392 85.297 86.392 83.9062 86.4531C83.046 86.5287 82.1857 86.6043 81.2993 86.6821C80.5405 86.787 79.7818 86.8919 79 87C77.4493 87.4525 77.4493 87.4525 75.8672 87.9141C75.251 88.6024 74.6348 89.2908 74 90C73.8721 90.6942 73.7441 91.3883 73.6123 92.1035C73.5675 92.9382 73.5227 93.7729 73.4766 94.6328C73.4882 95.521 73.4998 96.4091 73.5117 97.3242C73.5491 98.2485 73.5865 99.1727 73.625 100.125C73.6392 101.057 73.6534 101.989 73.668 102.949C73.6873 103.835 73.7066 104.72 73.7266 105.633C73.7531 106.446 73.7797 107.26 73.8071 108.098C73.8708 108.726 73.9344 109.353 74 110C74.33 110.33 74.66 110.66 75 111C75.7634 111.012 76.5267 111.025 77.3132 111.038C78.8191 110.976 78.8191 110.976 80.3555 110.914C81.4531 110.87 82.5507 110.826 83.6816 110.781C84.2576 110.755 84.8336 110.73 85.427 110.703C86.008 110.677 86.5889 110.652 87.1875 110.625C88.3251 110.581 89.4627 110.537 90.6348 110.492C91.7388 110.446 92.8429 110.399 93.9805 110.352C94.99 110.309 95.9996 110.266 97.0398 110.221C98.0167 110.148 98.9935 110.075 100 110C101.114 109.828 102.228 109.655 103.376 109.478C104.242 109.32 105.108 109.163 106 109C105.996 108.339 105.992 107.678 105.988 106.996C105.977 106.081 105.967 105.166 105.957 104.223C105.934 103.235 105.912 102.247 105.889 101.229C105.864 100.184 105.838 99.1389 105.812 98.0625C105.807 97.0216 105.801 95.9807 105.795 94.9082C105.766 93.9188 105.737 92.9295 105.707 91.9102C105.691 90.9937 105.676 90.0773 105.659 89.1331C105.442 88.4291 105.224 87.7252 105 87C104.262 86.7334 103.523 86.4668 102.762 86.1921C101.851 86.1287 100.939 86.0653 100 86ZM53 89C52.2454 89.0709 51.4908 89.1418 50.7134 89.2148C49.5191 89.3715 49.5191 89.3715 48.3008 89.5312C47.0949 89.7163 47.0949 89.7163 45.8647 89.905C44.6633 90.1067 44.6633 90.1067 43.4375 90.3125C42.652 90.4425 41.8665 90.5724 41.0571 90.7063C39.9441 90.9078 39.9441 90.9078 38.8086 91.1133C37.8156 91.2956 37.8156 91.2956 36.8025 91.4817C36.2077 91.6527 35.6128 91.8238 35 92C34.1577 92.4238 34.1577 92.4238 33.2983 92.8562C32.6557 93.4224 32.6557 93.4224 32 94C31.7119 95.5778 31.7119 95.5778 31.418 97.1875C31.3735 97.8037 31.329 98.4198 31.2832 99.0547C31.2516 99.6966 31.22 100.339 31.1875 101C31.1366 101.642 31.0857 102.284 31.0332 102.945C30.9762 103.87 30.9762 103.87 30.918 104.812C30.945 105.864 30.9721 106.916 31 108C31.66 108.66 32.32 109.32 33 110C34.0443 110.045 35.0886 110.089 36.1646 110.135C36.8051 110.115 37.4456 110.095 38.1055 110.074C39.14 110.026 39.14 110.026 40.1953 109.977C40.9028 109.952 41.6102 109.927 42.3391 109.901C43.0689 109.874 43.7988 109.848 44.5508 109.82C45.3005 109.788 46.0503 109.757 46.8228 109.724C47.5825 109.691 48.3422 109.659 49.125 109.625C49.8883 109.596 50.6516 109.567 51.438 109.537C52.1919 109.509 52.9459 109.482 53.7227 109.453C54.3919 109.428 55.0612 109.404 55.7507 109.378C56.5162 109.349 57.2817 109.319 58.0703 109.289C60.3571 109.194 62.6439 109.098 65 109C65 102.73 65 96.46 65 90C63.3913 89.7731 61.7825 89.5463 60.125 89.3125C59.0461 89.2197 57.9671 89.1269 56.8555 89.0312C56.2488 89.0093 55.6421 88.9874 55.0171 88.9648C54.0186 88.9822 54.0186 88.9822 53 89Z" fill="black"/>
</g>
<defs>
<clipPath id="clip0_7_859">
<rect width="456" height="2405" fill="white" transform="translate(0 -2241)"/>
</clipPath>
</defs>
</svg>
