<svg width="152" height="135" viewBox="0 0 152 135" fill="none" xmlns="http://www.w3.org/2000/svg">
<g clip-path="url(#clip0_7_859)">
<path d="M64 10C64.6278 10.5143 65.2555 11.0287 65.9023 11.5586C66.5946 12.3643 67.2868 13.1699 68 14C68.3107 15.1047 68.6213 16.2095 68.9414 17.3477C69.0503 17.9529 69.1593 18.5581 69.2715 19.1816C69.3675 19.8023 69.4636 20.423 69.5625 21.0625C69.6624 21.6871 69.7623 22.3116 69.8652 22.9551C69.9729 23.559 70.0805 24.1629 70.1914 24.7852C70.4582 25.8461 70.7251 26.907 71 28C71.5395 28.9881 71.5395 28.9881 72.0898 29.9961C72.7202 30.3274 73.3505 30.6587 74 31C74.8351 31.0315 74.8351 31.0315 75.687 31.0637C76.3433 31.0066 76.9996 30.9495 77.6758 30.8906C78.3804 30.7714 79.085 30.6521 79.811 30.5293C80.5334 30.3546 81.2558 30.18 82 30C82.6824 29.7789 83.3648 29.5579 84.0679 29.3301C84.7403 29.0716 85.4127 28.8132 86.1055 28.5469C86.779 28.2568 87.4525 27.9668 88.1465 27.668C88.82 27.365 89.4936 27.0621 90.1875 26.75C90.8726 26.4625 91.5578 26.1751 92.2637 25.8789C92.9333 25.5837 93.603 25.2885 94.293 24.9844C95.2489 24.5193 95.2489 24.5193 96.2241 24.0449C96.8102 23.7001 97.3962 23.3553 98 23C98.5048 22.5778 99.0097 22.1557 99.5298 21.7207C99.9698 21.2818 100.41 20.8429 100.863 20.3906C101.568 19.6017 102.274 18.8128 103 18C103.66 17.34 104.32 16.68 105 16C105.99 16 106.98 16 108 16C108.547 16.9828 109.094 17.9657 109.658 18.9783C109.905 19.6219 110.153 20.2655 110.408 20.9287C110.603 21.6122 110.799 22.2958 111 23C111.136 23.9648 111.136 23.9648 111.275 24.949C111.334 25.9373 111.334 25.9373 111.393 26.9456C111.411 27.6486 111.429 28.3517 111.447 29.076C111.457 29.8257 111.467 30.5753 111.477 31.3477C111.504 32.1607 111.531 32.9738 111.559 33.8115C111.597 34.6731 111.634 35.5347 111.673 36.4224C111.717 37.3229 111.761 38.2234 111.806 39.1512C111.87 40.0913 111.934 41.0314 112 42C112.101 42.9801 112.203 43.9601 112.307 44.9699C112.43 45.9813 112.552 46.9927 112.679 48.0347C112.881 49.589 112.881 49.589 113.087 51.1747C113.303 52.7569 113.303 52.7569 113.523 54.3711C113.671 55.4363 113.818 56.5015 113.97 57.599C114.122 58.6743 114.273 59.7496 114.43 60.8574C114.585 61.9395 114.741 63.0216 114.901 64.1365C115.058 65.2258 115.214 66.3152 115.375 67.4375C115.604 69.0901 115.604 69.0901 115.838 70.7761C115.989 71.8729 116.141 72.9696 116.297 74.0996C116.45 75.1833 116.603 76.267 116.76 77.3836C116.909 78.4313 117.058 79.4791 117.211 80.5586C117.413 82.0168 117.413 82.0168 117.618 83.5045C117.755 84.4433 117.892 85.3821 118.033 86.3494C118.177 87.2683 118.32 88.1872 118.469 89.134C118.644 90.0798 118.819 91.0256 119 92C119.379 93.597 119.379 93.597 119.766 95.2263C120.037 96.2872 120.308 97.3481 120.587 98.4412C120.973 99.8807 120.973 99.8807 121.368 101.349C121.681 102.661 121.681 102.661 122 104C122.095 104.798 122.189 105.597 122.287 106.42C122.324 107.068 122.36 107.715 122.398 108.383C122.402 109.012 122.406 109.641 122.41 110.289C122.399 110.895 122.387 111.501 122.375 112.125C122.387 112.77 122.398 113.414 122.41 114.078C122.406 114.694 122.402 115.31 122.398 115.945C122.267 116.953 122.135 117.961 122 119C121.497 119.472 120.995 119.944 120.477 120.43C119.989 120.618 119.502 120.806 119 121C118.374 120.341 117.747 119.683 117.102 119.004C116.736 118.546 116.37 118.089 115.993 117.618C115.665 117.084 115.338 116.55 115 116C114.809 115.39 114.618 114.78 114.421 114.152C114.224 113.162 114.224 113.162 114.023 112.152C113.91 111.465 113.797 110.777 113.68 110.068C113.579 109.365 113.479 108.662 113.375 107.938C113.267 107.23 113.158 106.523 113.047 105.795C112.936 105.108 112.825 104.422 112.711 103.715C112.599 103.065 112.486 102.415 112.37 101.745C112.187 100.881 112.187 100.881 112 100C111.553 98.8031 111.553 98.8031 111.098 97.582C110.735 97.06 110.373 96.5379 110 96C109.031 95.5875 108.061 95.175 107.062 94.75C106.427 94.6069 105.791 94.4638 105.137 94.3164C104.079 94.1598 104.079 94.1598 103 94C102.285 93.9265 101.569 93.853 100.832 93.7773C100.021 93.7477 99.2104 93.718 98.375 93.6875C97.4572 93.7236 96.5394 93.7597 95.5938 93.7969C95.0536 93.831 94.5135 93.8652 93.957 93.9004C93.3112 93.9333 92.6654 93.9661 92 94C90.7451 94.0145 90.7451 94.0145 89.4648 94.0293C88.538 94.0454 87.6112 94.0615 86.6562 94.0781C85.7061 94.1228 84.756 94.1676 83.7771 94.2136C82.3406 94.3244 82.3406 94.3244 80.875 94.4375C79.9334 94.5378 78.9918 94.6381 78.0217 94.7415C76.6981 94.9796 76.6981 94.9796 75.3477 95.2227C74.5473 95.4536 73.747 95.6845 72.9224 95.9224C72.288 96.278 71.6536 96.6336 71 97C70.666 97.5709 70.3319 98.1418 69.9878 98.73C69.8255 99.4159 69.6633 100.102 69.4961 100.809C69.3929 101.917 69.3929 101.917 69.2876 103.047C69.2958 103.815 69.304 104.584 69.3125 105.375C69.3867 106.509 69.3867 106.509 69.4624 107.666C69.5328 108.403 69.6032 109.139 69.6758 109.898C69.7539 110.607 69.8321 111.316 69.9126 112.046C69.9414 112.691 69.9703 113.336 70 114C69.7254 114.982 69.4509 115.965 69.168 116.977C68.7825 117.644 68.3971 118.312 68 119C67.01 119.495 67.01 119.495 66 120C65.6829 119.447 65.3658 118.894 65.0391 118.324C64.6962 117.557 64.3533 116.79 64 116C63.795 114.772 63.795 114.772 63.5859 113.52C63.4815 112.18 63.4815 112.18 63.375 110.812C63.2899 109.851 63.2048 108.889 63.1172 107.898C63.0592 106.464 63.0592 106.464 63 105C63.0851 104.126 63.1702 103.252 63.2578 102.352C63.3377 101.555 63.4177 100.758 63.5 99.9375C63.5044 98.9264 63.5044 98.9264 63.5088 97.8948C63.3409 97.2695 63.173 96.6442 63 96C62.4517 95.7316 61.9033 95.4633 61.3384 95.1868C60.6002 95.0491 59.8621 94.9114 59.1016 94.7695C58.2827 94.6227 57.4638 94.4758 56.6201 94.3245C55.3232 94.1639 55.3232 94.1639 54 94C53.174 93.94 52.3481 93.88 51.4971 93.8181C50.6705 93.7905 49.8438 93.7628 48.9922 93.7344C48.1504 93.7318 47.3087 93.7292 46.4414 93.7266C45.5945 93.7343 44.7476 93.742 43.875 93.75C43.0204 93.7423 42.1657 93.7345 41.2852 93.7266C40.446 93.7291 39.6068 93.7317 38.7422 93.7344C37.5313 93.7779 37.5313 93.7779 36.2959 93.8223C35.1594 93.9102 35.1594 93.9102 34 94C33.3171 94.0947 32.6342 94.1895 31.9307 94.2871C31.0098 94.493 31.0098 94.493 30.0703 94.7031C29.0571 95.1311 28.0439 95.5591 27 96C26.3903 96.6896 25.7805 97.3793 25.1523 98.0898C24.7721 99.0502 24.3918 100.011 24 101C23.8558 101.638 23.7116 102.276 23.563 102.934C23.4404 103.638 23.3177 104.341 23.1914 105.066C23.0838 105.799 22.9761 106.532 22.8652 107.287C22.7154 108.413 22.7154 108.413 22.5625 109.562C22.4665 110.317 22.3704 111.072 22.2715 111.85C22.1626 112.581 22.0536 113.313 21.9414 114.066C21.8165 114.756 21.6917 115.446 21.563 116.157C21.3772 116.765 21.1914 117.373 21 118C20.3078 118.834 19.6155 119.668 18.9023 120.527C17.9607 121.256 17.9607 121.256 17 122C16.5121 121.36 16.5121 121.36 16.0144 120.708C15.6797 120.144 15.3449 119.581 15 119C14.9239 117.902 14.8479 116.803 14.7695 115.672C14.7724 114.719 14.7724 114.719 14.7754 113.746C14.7876 113.087 14.7999 112.429 14.8125 111.75C14.8131 111.107 14.8138 110.464 14.8145 109.801C14.8203 109.16 14.8261 108.519 14.832 107.859C14.8498 107.21 14.8676 106.561 14.886 105.892C14.9236 105.268 14.9612 104.643 15 104C15.165 102.915 15.33 101.829 15.5 100.711C15.5893 100.138 15.6787 99.565 15.7708 98.9746C15.8464 98.323 15.9221 97.6714 16 97C16.0564 95.7828 16.0564 95.7828 16.114 94.541C16.1318 93.638 16.1496 92.735 16.168 91.8047C16.175 90.8533 16.182 89.9019 16.1892 88.9216C16.1884 87.4135 16.1884 87.4135 16.1875 85.875C16.1889 84.811 16.1902 83.7469 16.1917 82.6506C16.1851 81.5684 16.1786 80.4861 16.1719 79.3711C16.1438 77.7524 16.1438 77.7524 16.1152 76.1011C16.0772 75.0777 16.0392 74.0544 16 73C15.9285 72.1197 15.8569 71.2395 15.7832 70.3325C15.6949 69.5125 15.6066 68.6925 15.5156 67.8477C15.3747 66.6296 15.3747 66.6296 15.231 65.387C15.1341 64.5786 15.0373 63.7703 14.9375 62.9375C14.8419 62.1221 14.7464 61.3067 14.6479 60.4666C14.5605 59.6113 14.473 58.7561 14.3828 57.875C14.3071 56.9675 14.2313 56.06 14.1533 55.125C14.1027 54.0938 14.0521 53.0625 14 52C13.9934 51.384 13.9867 50.768 13.9799 50.1333C13.9823 49.4731 13.9848 48.813 13.9873 48.1328C13.9958 47.4486 14.0043 46.7643 14.0131 46.0593C14.0268 45.3591 14.0406 44.6589 14.0547 43.9375C14.0718 43.2367 14.089 42.5359 14.1066 41.8139C14.127 41.111 14.1473 40.408 14.1682 39.6838C14.1914 38.9807 14.2146 38.2775 14.2386 37.553C14.263 36.8549 14.2874 36.1568 14.3125 35.4375C14.3357 34.7482 14.3589 34.0588 14.3828 33.3486C14.4066 32.6747 14.4303 32.0007 14.4548 31.3064C14.4808 30.6537 14.5068 30.001 14.5336 29.3285C14.5599 28.7032 14.5862 28.0779 14.6133 27.4336C14.6627 26.2895 14.7121 25.1453 14.7629 23.9666C14.8412 22.9876 14.9194 22.0086 15 21C15.0905 20.2073 15.181 19.4146 15.2742 18.5979C15.6335 17.8069 15.6335 17.8069 16 17C16.6507 16.8082 17.3015 16.6163 17.9719 16.4187C18.6412 16.6105 19.3105 16.8024 20 17C20.2961 17.73 20.5922 18.46 20.8972 19.2122C21.0794 20.2314 21.2615 21.2506 21.4492 22.3008C21.6574 23.4242 21.8656 24.5476 22.0801 25.7051C22.1801 26.2988 22.28 26.8925 22.3831 27.5042C22.4835 28.1009 22.584 28.6977 22.6875 29.3125C22.7933 29.8898 22.8991 30.467 23.0081 31.0618C23.1143 31.6324 23.2206 32.2031 23.3301 32.791C23.4332 33.3609 23.5363 33.9308 23.6426 34.518C23.7438 35.0857 23.845 35.6534 23.9492 36.2383C24.1456 37.3683 24.3421 38.4983 24.5444 39.6626C24.6948 40.7639 24.8451 41.8653 25 43C25.0279 44.0691 25.0558 45.1382 25.0845 46.2397C25.1043 47.2267 25.1241 48.2136 25.1445 49.2305C25.2222 50.1114 25.2999 50.9923 25.3799 51.8999C25.5845 52.5929 25.7892 53.286 26 54C26.6763 54.5523 26.6763 54.5523 27.3662 55.1157C27.9788 55.3005 28.5915 55.4854 29.2227 55.6758C30.3057 55.8007 30.3057 55.8007 31.4106 55.9282C32.2651 55.9519 33.1196 55.9756 34 56C35.0156 56.0456 36.0312 56.0912 37.0776 56.1382C38.7388 56.1839 38.7388 56.1839 40.4336 56.2305C41.5763 56.2285 42.7191 56.2266 43.8965 56.2246C44.4774 56.2184 45.0584 56.2122 45.657 56.2058C46.2446 56.1998 46.8321 56.1937 47.4375 56.1875C48.0375 56.1868 48.6375 56.186 49.2556 56.1853C49.8512 56.1854 50.4469 56.1855 51.0605 56.1855C52.1943 56.1797 53.328 56.1739 54.4961 56.168C55.5292 56.1605 56.5623 56.153 57.6267 56.1453C58.4099 56.0973 59.1931 56.0494 60 56C60.33 55.67 60.66 55.34 61 55C61.0641 54.2342 61.0641 54.2342 61.1294 53.4529C61.1305 52.7968 61.1317 52.1408 61.1328 51.4648C61.1341 50.7372 61.1354 50.0095 61.1367 49.2598C61.1309 48.1102 61.1309 48.1102 61.125 46.9375C61.1289 46.1982 61.1327 45.4589 61.1367 44.6973C61.1348 43.5922 61.1348 43.5922 61.1328 42.4648C61.1212 41.7228 61.1096 40.9808 61.0977 40.2163C61.0654 39.4849 61.0332 38.7535 61 38C60.9265 37.2905 60.853 36.5811 60.7773 35.8501C60.6884 35.1687 60.5995 34.4872 60.5078 33.7852C60.4181 33.1336 60.3283 32.4821 60.2358 31.8108C60.1191 30.9144 60.1191 30.9144 60 30C59.933 29.0409 59.8659 28.0819 59.7969 27.0938C59.7814 26.2378 59.7659 25.3819 59.75 24.5C59.7564 23.5745 59.7629 22.6489 59.7695 21.6953C59.8456 20.8059 59.9216 19.9164 60 19C60.2101 18.193 60.4202 17.3861 60.6367 16.5547C60.901 15.8354 61.1652 15.1161 61.4375 14.375C61.7043 13.7434 61.9712 13.1117 62.2461 12.4609C62.4949 11.9788 62.7437 11.4967 63 11C63.33 10.67 63.66 10.34 64 10ZM95 33C93.6925 33.3304 93.6925 33.3304 92.3586 33.6675C90.8914 34.1376 90.8914 34.1376 89.3945 34.6172C88.3291 34.9781 87.2637 35.3391 86.166 35.7109C85.341 36.0005 85.341 36.0005 84.4993 36.2959C83.9426 36.487 83.386 36.6781 82.8125 36.875C81.9696 37.1351 81.9696 37.1351 81.1096 37.4004C80.5533 37.5725 79.997 37.7446 79.4238 37.9219C78.3623 38.2957 77.3007 38.6695 76.207 39.0547C75.2398 39.4836 74.2725 39.9126 73.2759 40.3545C72.5248 40.8975 71.7738 41.4405 71 42C70.6602 42.7725 70.3203 43.5449 69.9702 44.3408C69.8602 45.2003 69.7501 46.0598 69.6367 46.9453C69.6273 47.7576 69.6179 48.5699 69.6082 49.4067C69.7375 50.2625 69.8668 51.1183 70 52C70.1898 53.0814 70.3796 54.1629 70.5752 55.2771C71.0454 56.1757 71.5156 57.0742 72 58C73.0391 58.23 74.0781 58.46 75.1487 58.697C75.786 58.6998 76.4233 58.7026 77.0798 58.7054C78.1096 58.6637 78.1096 58.6637 79.1602 58.6211C79.8652 58.615 80.5703 58.6089 81.2967 58.6026C82.0245 58.5938 82.7522 58.5851 83.502 58.5762C84.2497 58.5535 84.9974 58.5309 85.7678 58.5076C86.5251 58.4844 87.2823 58.4613 88.0625 58.4375C88.8215 58.4268 89.5805 58.4161 90.3625 58.405C91.1124 58.3971 91.8622 58.3891 92.6348 58.3809C93.3622 58.3698 94.0895 58.3588 94.839 58.3474C95.5431 58.3346 96.2472 58.3218 96.9727 58.3086C97.6612 58.2949 98.3497 58.2813 99.0591 58.2672C100.01 58.2383 100.01 58.2383 100.981 58.2087C101.977 58.1399 102.973 58.071 104 58C104.495 57.505 104.495 57.505 105 57C105.053 56.4737 105.106 55.9475 105.161 55.4053C105.175 54.7301 105.189 54.055 105.203 53.3594C105.213 52.6182 105.224 51.877 105.234 51.1133C105.24 50.3334 105.245 49.5535 105.25 48.75C105.271 47.9856 105.291 47.2212 105.312 46.4336C105.318 45.6872 105.323 44.9409 105.328 44.1719C105.305 43.4502 105.282 42.7286 105.258 41.9851C105.13 41.0025 105.13 41.0025 105 40C104.529 39.0216 104.059 38.0432 103.574 37.0352C102.795 36.0278 102.795 36.0278 102 35C101.526 34.5669 101.051 34.1337 100.562 33.6875C100.047 33.4606 99.5312 33.2338 99 33C98.1351 32.9287 98.1351 32.9287 97.2527 32.856C96.5093 32.9035 95.7659 32.951 95 33ZM36 62C35.1686 61.9704 34.3371 61.9407 33.4805 61.9102C32.3454 61.9856 32.3454 61.9856 31.1875 62.0625C30.0409 62.3197 30.0409 62.3197 28.8711 62.582C28.2536 63.05 27.6362 63.5179 27 64C26.7022 65.0764 26.4045 66.1527 26.0977 67.2617C26.0246 67.9055 25.9515 68.5493 25.8762 69.2126C25.8346 69.885 25.7929 70.5573 25.75 71.25C25.7116 71.9062 25.6731 72.5624 25.6335 73.2385C25.6256 73.8868 25.6176 74.5352 25.6094 75.2031C25.6091 75.7874 25.6087 76.3717 25.6084 76.9736C25.7376 77.6423 25.8669 78.311 26 79C26.3496 80.0504 26.6992 81.1008 27.0593 82.1831C27.6997 83.1127 28.3402 84.0423 29 85C30.6524 85.4 30.6524 85.4 32.3381 85.8081C32.9921 85.8335 33.6461 85.8588 34.32 85.885C35.02 85.8791 35.7201 85.8732 36.4414 85.8672C37.5266 85.8829 37.5266 85.8829 38.6338 85.899C39.7538 85.9084 39.7538 85.9084 40.8965 85.918C42.0444 85.9052 42.0444 85.9052 43.2156 85.8921C43.9901 85.8865 44.7645 85.8808 45.5625 85.875C46.3388 85.8942 47.115 85.9133 47.9148 85.9331C49.0659 85.9643 49.0659 85.9643 50.2402 85.9961C50.9866 86.0031 51.733 86.0102 52.502 86.0174C53.2245 86.0091 53.947 86.0008 54.6914 85.9922C55.3934 85.9658 56.0954 85.9395 56.8187 85.9124C57.4695 85.8556 58.1203 85.7989 58.7908 85.7405C59.8498 85.4961 60.9089 85.2518 62 85C62.4822 84.4405 62.9644 83.8809 63.4612 83.3044C63.6416 82.6123 63.822 81.9202 64.0078 81.207C64.0417 80.4832 64.0756 79.7594 64.1106 79.0137C64.0741 78.3492 64.0376 77.6846 64 77C64.0993 76.2227 64.1985 75.4454 64.3008 74.6445C64.3046 74.04 64.3085 73.4354 64.3125 72.8125C64.3293 72.2002 64.346 71.5879 64.3633 70.957C64.2434 70.3112 64.1235 69.6654 64 69C63.6906 68.1234 63.3812 67.2469 63.0625 66.3438C62.0416 65.1836 62.0416 65.1836 61 64C60.0442 63.7103 60.0442 63.7103 59.0691 63.4148C58.3077 63.3024 57.5462 63.19 56.7617 63.0742C55.531 62.963 55.531 62.963 54.2754 62.8496C52.9944 62.7694 52.9944 62.7694 51.6875 62.6875C50.8451 62.6147 50.0027 62.5418 49.1348 62.4668C48.3104 62.3991 47.4861 62.3314 46.6367 62.2617C45.8356 62.2107 45.0346 62.1597 44.2092 62.1072C43.1157 62.0541 43.1157 62.0541 42 62C40.9095 61.9845 39.8189 61.9691 38.6953 61.9531C37.8059 61.9686 36.9164 61.9841 36 62ZM78 64C76.9162 64.2697 75.8324 64.5393 74.7158 64.8171C73.8196 65.2075 72.9234 65.5978 72 66C71.5256 66.9694 71.0513 67.9388 70.5625 68.9375C70.4349 69.5498 70.3073 70.1621 70.1758 70.793C70.1178 71.5213 70.0598 72.2496 70 73C70.0142 73.9243 70.0284 74.8485 70.043 75.8008C70.1113 76.774 70.1796 77.7473 70.25 78.75C70.3377 79.673 70.4253 80.5959 70.5156 81.5469C70.6755 82.3564 70.8353 83.1659 71 84C71.2447 84.5374 71.4894 85.0748 71.7415 85.6284C72.3644 86.3074 72.3644 86.3074 73 87C73.6838 87.1281 74.3675 87.2562 75.072 87.3882C76.3338 87.3933 76.3338 87.3933 77.6211 87.3984C79.0176 87.4074 79.0176 87.4074 80.4424 87.4165C81.4308 87.4028 82.4192 87.3891 83.4375 87.375C84.4349 87.3677 85.4323 87.3605 86.46 87.353C87.4464 87.3345 88.4329 87.316 89.4492 87.2969C90.4101 87.2588 91.3709 87.2208 92.3608 87.1816C93.2318 87.1217 94.1027 87.0618 95 87C95.6866 86.9091 96.3732 86.8182 97.0806 86.7246C97.6585 86.6144 98.2365 86.5042 98.832 86.3906C99.795 86.138 100.758 85.8853 101.75 85.625C102.549 85.3698 103.348 85.1145 104.172 84.8516C104.775 84.5705 105.378 84.2895 106 84C106.66 83.34 107.32 82.68 108 82C108.149 81.0506 108.149 81.0506 108.301 80.082C108.305 79.3331 108.309 78.5841 108.312 77.8125C108.296 77.0146 108.279 76.2166 108.262 75.3945C108.175 74.6043 108.089 73.8141 108 73C107.7 71.9539 107.7 71.9539 107.395 70.8867C107.141 70.2641 106.887 69.6415 106.625 69C106.089 68.01 105.553 67.02 105 66C104.34 65.67 103.68 65.34 103 65C102.199 64.9218 101.398 64.8435 100.573 64.7629C99.5745 64.7136 98.5758 64.6642 97.5469 64.6133C96.4525 64.5624 95.358 64.5114 94.2305 64.459C92.5076 64.3865 92.5076 64.3865 90.75 64.3125C89.6169 64.2526 88.4838 64.1926 87.3164 64.1309C86.2168 64.0838 85.1173 64.0368 83.9844 63.9883C82.9812 63.9423 81.9779 63.8963 80.9443 63.8489C79.4869 63.9237 79.4869 63.9237 78 64Z" fill="black"/>
</g>
<defs>
<clipPath id="clip0_7_859">
<rect width="456" height="2405" fill="white"/>
</clipPath>
</defs>
</svg>
