<svg width="152" height="143" viewBox="0 0 152 143" fill="none" xmlns="http://www.w3.org/2000/svg">
<g clip-path="url(#clip0_7_859)">
<path d="M115 3C115.99 3 116.98 3 118 3C118.495 4.485 118.495 4.485 119 6C119.101 7.41152 119.101 7.41152 119.203 8.85156C119.215 9.43809 119.227 10.0246 119.24 10.6289C119.245 11.617 119.245 11.617 119.25 12.625C119.255 13.343 119.259 14.061 119.264 14.8008C119.253 16.0015 119.253 16.0015 119.242 17.2266C119.205 18.5632 119.205 18.5632 119.167 19.9268C119.112 20.9409 119.057 21.9551 119 23C118.95 23.5804 118.901 24.1607 118.85 24.7587C118.79 25.3755 118.73 25.9924 118.669 26.6279C118.57 27.5918 118.57 27.5918 118.47 28.5751C118.4 29.2386 118.33 29.9022 118.258 30.5859C118.187 31.2621 118.115 31.9383 118.042 32.635C117.969 33.3243 117.896 34.0137 117.821 34.7239C117.711 35.7756 117.711 35.7756 117.598 36.8485C117.524 37.5585 117.451 38.2685 117.375 39C117.303 39.7168 117.231 40.4337 117.156 41.1722C117.086 41.8916 117.016 42.6111 116.944 43.3523C116.878 44.0699 116.812 44.7874 116.743 45.5267C116.681 46.2411 116.619 46.9554 116.555 47.6914C116.496 48.4029 116.438 49.1144 116.378 49.8474C116.326 50.5463 116.275 51.2452 116.222 51.9653C116.179 52.6465 116.136 53.3278 116.092 54.0296C116.061 54.6798 116.031 55.3301 116 56C115.989 56.5974 115.978 57.1948 115.967 57.8102C115.969 58.3754 115.971 58.9406 115.974 59.5229C116.021 61.1339 116.021 61.1339 116.07 62.7773C116.13 63.8103 116.19 64.8432 116.251 65.9075C116.333 66.9074 116.415 67.9073 116.5 68.9375C116.592 69.9252 116.685 70.9128 116.78 71.9304C116.891 72.915 117.003 73.8996 117.117 74.9141C117.25 75.8992 117.382 76.8844 117.519 77.8994C117.677 78.9226 117.836 79.9458 118 81C118.198 82.1212 118.395 83.2423 118.599 84.3975C118.706 84.973 118.813 85.5485 118.923 86.1415C119.034 86.7213 119.144 87.3011 119.258 87.8984C119.369 88.4778 119.48 89.0571 119.595 89.654C119.707 90.2297 119.82 90.8055 119.936 91.3987C120.163 92.5252 120.391 93.6518 120.625 94.8125C120.855 95.8559 121.085 96.8993 121.322 97.9744C121.538 98.9793 121.754 99.9842 121.977 101.02C122.165 101.997 122.354 102.975 122.548 103.983C122.697 104.979 122.846 105.974 123 107C123.095 108.108 123.19 109.216 123.288 110.357C123.325 111.439 123.361 112.522 123.398 113.637C123.436 115.108 123.436 115.108 123.474 116.608C123.318 117.397 123.161 118.187 123 119C122.332 119.441 121.664 119.881 120.975 120.335C120.323 120.555 119.672 120.774 119 121C118.844 120.49 118.689 119.981 118.529 119.455C118.309 118.749 118.089 118.044 117.863 117.316C117.615 116.554 117.367 115.791 117.111 115.006C116.848 114.2 116.584 113.393 116.312 112.562C116.068 111.76 115.824 110.958 115.572 110.131C115.318 109.367 115.063 108.603 114.801 107.816C114.576 107.109 114.35 106.402 114.118 105.674C113.749 105.122 113.38 104.569 113 104C112.259 103.762 111.517 103.524 110.753 103.278C109.845 103.186 108.936 103.095 108 103C107.071 102.935 106.142 102.87 105.185 102.804C104.183 102.781 103.181 102.758 102.148 102.734C101.05 102.733 99.9519 102.732 98.8203 102.73C97.6834 102.737 96.5464 102.743 95.375 102.75C94.2303 102.71 93.0856 102.67 91.9062 102.629C90.8105 102.643 89.7148 102.657 88.5859 102.672C87.5685 102.778 86.5512 102.885 85.5029 102.994C84.677 103.326 83.851 103.658 83 104C82.5479 104.801 82.0957 105.602 81.6299 106.428C81.373 107.405 81.1162 108.383 80.8516 109.391C80.708 110.365 80.5644 111.34 80.4165 112.345C80.2791 113.221 80.1416 114.097 80 115C79.7143 115.631 79.4286 116.263 79.1343 116.913C78.76 117.272 78.3857 117.63 78 118C77.01 117.67 76.02 117.34 75 117C74.6984 116.113 74.3967 115.226 74.0859 114.312C73.8513 113.219 73.6167 112.126 73.375 111C73.1352 109.907 72.8955 108.814 72.6484 107.688C72.4345 106.801 72.2205 105.914 72 105C71.67 104.67 71.34 104.34 71 104C69.9494 103.945 68.8988 103.889 67.8164 103.832C67.1444 103.824 66.4724 103.816 65.78 103.808C65.0482 103.809 64.3165 103.811 63.5625 103.812C62.812 103.821 62.0615 103.829 61.2883 103.837C60.51 103.851 59.7316 103.865 58.9297 103.879C58.1237 103.9 57.3177 103.92 56.4873 103.942C55.6665 103.961 54.8457 103.98 54 104C53.174 104.002 52.3481 104.005 51.4971 104.007C50.2649 104.017 50.2649 104.017 49.0078 104.027C48.2027 104.054 47.3976 104.081 46.5681 104.108C45.7825 104.155 44.9969 104.202 44.1875 104.25C43.418 104.314 42.6485 104.378 41.8557 104.445C41.1338 104.551 40.4118 104.656 39.668 104.766C38.6806 105.002 38.6806 105.002 37.6733 105.244C36.845 105.618 36.845 105.618 36 106C35.3568 106.902 34.7135 107.805 34.0508 108.734C33.704 109.812 33.3573 110.89 33 112C32.8144 113.072 32.6287 114.145 32.4375 115.25C32.2209 116.611 32.2209 116.611 32 118C31.01 118.99 31.01 118.99 30 120C29.01 120 28.02 120 27 120C26.603 119.139 26.2059 118.278 25.7969 117.391C25.5339 116.272 25.2709 115.153 25 114C24.9845 112.984 24.9691 111.968 24.9531 110.922C25.0511 109.875 25.1491 108.828 25.25 107.75C25.3377 106.714 25.4253 105.677 25.5156 104.609C25.5815 104.037 25.6474 103.465 25.7153 102.875C25.8562 101.947 25.8562 101.947 26 101C26.2163 100.008 26.2163 100.008 26.437 98.9956C26.6048 98.2468 26.7725 97.498 26.9453 96.7266C27.1213 95.8693 27.2972 95.0121 27.4785 94.1289C27.6506 93.0964 27.8227 92.0638 28 91C28.0755 90.368 28.151 89.7361 28.2288 89.085C28.2996 88.3956 28.3704 87.7063 28.4434 86.9961C28.5118 86.2669 28.5802 85.5376 28.6507 84.7863C28.717 84.0241 28.7833 83.2619 28.8516 82.4766C28.9166 81.6949 28.9816 80.9133 29.0486 80.108C29.1445 78.9028 29.1445 78.9028 29.2424 77.6733C29.3053 76.849 29.3681 76.0247 29.4329 75.1755C29.4963 74.3338 29.5597 73.4922 29.625 72.625C29.6917 71.7674 29.7584 70.9098 29.8271 70.0262C29.8938 69.1598 29.9604 68.2935 30.0291 67.4009C30.0933 66.5325 30.1576 65.6642 30.2238 64.7696C30.2853 63.902 30.3468 63.0345 30.4102 62.1406C30.4683 61.2751 30.5264 60.4096 30.5863 59.5178C30.6657 58.2396 30.6657 58.2396 30.7466 56.9355C30.7933 56.1034 30.8399 55.2712 30.888 54.4138C30.9434 53.219 30.9434 53.219 31 52C31.0215 51.264 31.043 50.5281 31.0651 49.7698C31.077 49.073 31.0889 48.3761 31.1011 47.6582C31.1067 46.9887 31.1124 46.3192 31.1182 45.6294C31.1191 44.9834 31.1201 44.3374 31.1211 43.6719C31.1204 43.04 31.1198 42.4081 31.1191 41.757C31.1158 41.1442 31.1124 40.5313 31.1089 39.8999C31.1027 39.3076 31.0966 38.7154 31.0903 38.1052C31.0811 37.5342 31.0719 36.9633 31.0625 36.375C31.0343 35.3007 31.0061 34.2265 30.9771 33.1196C30.955 32.0979 30.9329 31.0761 30.9102 30.0234C30.9027 28.5592 30.9027 28.5592 30.895 27.0654C30.947 25.548 30.947 25.548 31 24C31.0478 23.4135 31.0955 22.827 31.1447 22.2228C31.2077 21.6146 31.2706 21.0065 31.3354 20.3799C31.411 19.7804 31.4865 19.181 31.5643 18.5634C31.6449 17.9779 31.7255 17.3923 31.8086 16.7891C31.96 15.7058 32.1114 14.6225 32.2673 13.5063C32.5091 12.6793 32.7509 11.8522 33 11C33.99 10.67 34.98 10.34 36 10C36.2808 10.6367 36.5615 11.2734 36.8508 11.9294C37.2159 12.828 37.5809 13.7266 37.957 14.6523C38.3239 15.6577 38.6908 16.663 39.0688 17.6987C39.3761 18.7881 39.6834 19.8776 40 21C40.1229 22.0933 40.2459 23.1866 40.3726 24.313C40.4185 25.4279 40.4644 26.5427 40.5117 27.6914C40.5485 28.82 40.5852 29.9486 40.623 31.1113C40.6443 32.2502 40.6656 33.3891 40.6875 34.5625C40.6869 35.4448 40.6869 35.4448 40.6863 36.345C40.6886 36.9304 40.691 37.5159 40.6934 38.1191C40.7365 39.2361 40.7797 40.3531 40.8242 41.5039C40.9915 43.0243 40.9915 43.0243 41.1621 44.5754C41.4386 45.3755 41.7151 46.1756 42 47C42.6065 47.3999 43.213 47.7997 43.8379 48.2117C44.5965 48.3945 45.3551 48.5773 46.1367 48.7656C46.9483 48.836 47.7598 48.9063 48.5959 48.9788C49.786 48.9893 49.786 48.9893 51 49C51.9589 49.0656 51.9589 49.0656 52.9373 49.1326C53.5174 49.1649 54.0976 49.1972 54.6953 49.2305C55.8271 49.2163 56.9589 49.2021 58.125 49.1875C59.0256 49.1713 59.0256 49.1713 59.9443 49.1548C60.5376 49.1411 61.1309 49.1274 61.7422 49.1133C63.3548 49.0572 63.3548 49.0572 65 49C66.1795 48.9903 66.1795 48.9903 67.3828 48.9805C68.3071 48.9283 68.3071 48.9283 69.25 48.875C70.1575 48.5863 71.065 48.2975 72 48C72.3854 47.2098 72.7709 46.4196 73.168 45.6055C73.326 45.0631 73.4841 44.5207 73.647 43.9619C73.7635 43.3145 73.88 42.6671 74 42C74.0456 41.2262 74.0912 40.4525 74.1382 39.6553C74.1454 38.7984 74.1527 37.9415 74.1602 37.0586C74.1485 36.1508 74.1368 35.2429 74.1248 34.3076C74.0939 32.8869 74.0939 32.8869 74.0625 31.4375C74.0516 30.4633 74.0407 29.4891 74.0295 28.4854C74.0188 27.0289 74.0188 27.0289 74.0078 25.543C74.0017 24.5947 73.9956 23.6464 73.9893 22.6694C73.9928 21.7885 73.9963 20.9076 74 20C74.0242 19.2544 74.0483 18.5089 74.0732 17.7407C74.1259 16.7495 74.1259 16.7495 74.1797 15.7383C74.2648 14.5871 74.3498 13.436 74.4375 12.25C74.5187 11.2652 74.5999 10.2803 74.6836 9.26562C74.788 8.51797 74.8924 7.77031 75 7C75.33 6.34 75.66 5.68 76 5C76.99 5.33 77.98 5.66 79 6C79.2639 6.54197 79.5277 7.08394 79.7996 7.64233C80.0902 8.6837 80.0902 8.6837 80.3867 9.74609C80.7106 10.8782 80.7106 10.8782 81.041 12.0332C81.361 13.2233 81.361 13.2233 81.6875 14.4375C81.9124 15.2271 82.1374 16.0166 82.3691 16.8301C82.6872 17.9641 82.6872 17.9641 83.0117 19.1211C83.2021 19.8165 83.3925 20.5118 83.5886 21.2283C83.7244 21.8129 83.8601 22.3976 84 23C84 23.66 84 24.32 84 25C84.4757 25.0838 84.9513 25.1676 85.4414 25.2539C86.1414 25.3557 86.8413 25.4576 87.5625 25.5625C88.7749 25.6824 88.7749 25.6824 90.0117 25.8047C91.4909 25.9014 91.4909 25.9014 93 26C93.6105 26.0364 94.2211 26.0728 94.8501 26.1104C95.5041 26.1384 96.1582 26.1664 96.832 26.1953C97.4973 26.2045 98.1627 26.2137 98.8481 26.2231C99.8514 26.2055 99.8514 26.2055 100.875 26.1875C101.539 26.1538 102.202 26.1201 102.886 26.0854C103.515 26.016 104.145 25.9466 104.793 25.875C105.851 25.5863 106.91 25.2975 108 25C108.737 24.0719 108.737 24.0719 109.488 23.125C109.719 22.3206 109.95 21.5163 110.188 20.6875C110.325 19.7968 110.463 18.906 110.605 17.9883C110.736 17.0021 110.866 16.016 111 15C111.458 13.3506 111.458 13.3506 111.926 11.668C112.28 10.5813 112.635 9.49461 113 8.375C113.464 6.83973 113.464 6.83973 113.938 5.27344C114.288 4.5232 114.639 3.77297 115 3ZM94 34C92.7064 34.0812 92.7064 34.0812 91.3867 34.1641C90.2053 34.2685 90.2053 34.2685 89 34.375C88.2987 34.4446 87.5975 34.5142 86.875 34.5859C86.2563 34.7226 85.6375 34.8592 85 35C84.4289 35.2733 83.8579 35.5466 83.2695 35.8281C82.6411 36.4082 82.6411 36.4082 82 37C81.8969 38.1137 81.7938 39.2275 81.6875 40.375C81.7184 40.9937 81.7494 41.6125 81.7812 42.25C81.8534 42.8275 81.9256 43.405 82 44C82.2269 44.7837 82.4537 45.5675 82.6875 46.375C83.1206 46.9112 83.5538 47.4475 84 48C84.7309 48.1934 85.4618 48.3867 86.2148 48.5859C87.1339 48.7226 88.053 48.8592 89 49C89.9462 49.067 90.8923 49.1341 91.8672 49.2031C92.8598 49.2186 93.8523 49.2341 94.875 49.25C95.9204 49.2332 96.9659 49.2165 98.043 49.1992C99.0188 49.1335 99.9946 49.0677 101 49C101.759 48.8827 102.519 48.7654 103.301 48.6445C104.235 48.3564 104.235 48.3564 105.188 48.0625C106.116 47.3819 107.044 46.7013 108 46C108.258 45.3078 108.516 44.6155 108.781 43.9023C108.915 43.1096 109.049 42.3168 109.188 41.5C109.264 40.7266 109.34 39.9531 109.418 39.1562C109.28 38.4447 109.142 37.7331 109 37C108.443 36.4173 107.886 35.8347 107.312 35.2344C106.549 34.827 105.786 34.4197 105 34C104.181 33.8917 103.363 33.7834 102.52 33.6719C101.18 33.7105 101.18 33.7105 99.8125 33.75C98.8496 33.7784 97.8866 33.8067 96.8945 33.8359C95.9393 33.8901 94.9841 33.9442 94 34ZM58 57C57.0422 57.0413 56.0845 57.0825 55.0977 57.125C54.0548 57.1869 53.012 57.2488 51.9375 57.3125C50.3945 57.4556 50.3945 57.4556 48.8203 57.6016C47.8896 57.733 46.9589 57.8645 46 58C45.3168 58.1727 44.6336 58.3455 43.9297 58.5234C43.396 58.7426 42.8623 58.9617 42.3125 59.1875C41.1678 60.0847 41.1678 60.0847 40 61C39.7938 61.8935 39.5877 62.787 39.3752 63.7075C39.2514 64.794 39.1276 65.8806 39 67C38.9322 68.0427 38.8645 69.0854 38.7947 70.1597C38.758 71.2594 38.7214 72.3591 38.6836 73.4922C38.6628 74.083 38.642 74.6738 38.6206 75.2825C38.5995 75.8905 38.5784 76.4986 38.5566 77.125C38.5371 77.7399 38.5175 78.3548 38.4973 78.9883C38.4776 79.6109 38.4578 80.2335 38.4375 80.875C38.416 81.5083 38.3945 82.1415 38.3723 82.7939C38.3398 83.7351 38.3398 83.7351 38.3066 84.6953C38.2859 85.3013 38.2651 85.9074 38.2437 86.5318C38.2238 87.1168 38.204 87.7019 38.1836 88.3047C38.1481 89.3977 38.1125 90.4906 38.0759 91.6167C38.0509 92.4032 38.0258 93.1897 38 94C38.9181 94.0209 39.8363 94.0419 40.7822 94.0635C41.39 94.0764 41.9977 94.0893 42.6238 94.1026C43.2894 94.1151 43.9549 94.1277 44.6406 94.1406C45.6585 94.1549 45.6585 94.1549 46.697 94.1694C47.75 94.1822 47.75 94.1822 48.8242 94.1953C49.5504 94.2034 50.2767 94.2114 51.0249 94.2197C52.1263 94.2347 52.1263 94.2347 53.25 94.25C53.9772 94.2671 54.7044 94.2842 55.4536 94.3018C56.1715 94.3182 56.8893 94.3346 57.6289 94.3516C58.3322 94.3588 59.0356 94.366 59.7602 94.3735C60.4426 94.3791 61.125 94.3848 61.8281 94.3906C62.4856 94.4113 63.143 94.4319 63.8204 94.4532C64.4407 94.4535 65.0611 94.4538 65.7002 94.4541C66.7891 94.3042 67.8781 94.1544 69 94C69.7984 93.417 70.5968 92.834 71.4194 92.2334C71.941 91.4964 72.4626 90.7594 73 90C73.1603 89.3374 73.3207 88.6748 73.4858 87.9922C73.4776 87.2935 73.4694 86.5948 73.4609 85.875C73.4588 85.0912 73.4567 84.3073 73.4546 83.4998C73.4283 82.6748 73.4021 81.8499 73.375 81C73.3491 79.7327 73.3491 79.7327 73.3228 78.4397C73.2867 77.1721 73.2867 77.1721 73.25 75.8789C73.192 74.632 73.192 74.632 73.1328 73.3599C73.089 72.5811 73.0452 71.8024 73 71C72.9613 70.3308 72.9227 69.6616 72.8828 68.9722C72.839 68.3716 72.7952 67.7711 72.75 67.1523C72.6262 66.0914 72.5025 65.0305 72.375 63.9375C72.1907 63.0132 72.0063 62.089 71.8164 61.1367C71.547 60.4316 71.2776 59.7265 71 59C70.1131 58.4225 69.2262 57.845 68.3125 57.25C67.2194 57.1675 66.1263 57.085 65 57C63.9688 56.9381 62.9375 56.8762 61.875 56.8125C61.2962 56.8331 60.7174 56.8537 60.1211 56.875C59.0712 56.9369 59.0712 56.9369 58 57ZM96 57C94.7451 57.0619 94.7451 57.0619 93.4648 57.125C92.1519 57.2178 92.1519 57.2178 90.8125 57.3125C89.9939 57.3705 89.1754 57.4285 88.332 57.4883C87.1777 57.7416 87.1777 57.7416 86 58C85.2665 58.4357 84.533 58.8714 83.7773 59.3203C83.1908 59.8746 82.6043 60.4289 82 61C81.7267 61.5375 81.4534 62.0751 81.1719 62.6289C81.0327 63.267 80.8934 63.9051 80.75 64.5625C80.6069 65.345 80.4638 66.1274 80.3164 66.9336C80.212 67.9455 80.1076 68.9574 80 70C79.9586 70.6821 79.9172 71.3642 79.8745 72.0669C79.8424 72.8195 79.8104 73.5722 79.7773 74.3477C79.759 75.1313 79.7406 75.915 79.7217 76.7224C79.7104 77.5153 79.6991 78.3081 79.6875 79.125C79.6698 79.8889 79.6521 80.6527 79.6338 81.4397C79.6348 82.1841 79.6357 82.9284 79.6367 83.6953C79.6728 84.4169 79.7089 85.1386 79.7461 85.8821C79.8299 86.581 79.9137 87.2799 80 88C80.1508 88.6905 80.3016 89.3811 80.457 90.0925C80.778 91.0464 80.778 91.0464 81.1055 92.0195C81.3782 92.5787 81.6509 93.1378 81.9319 93.7139C82.4606 94.3505 82.4606 94.3505 83 95C84.0029 95.2488 85.0058 95.4976 86.0391 95.7539C86.6154 95.742 87.1916 95.7301 87.7854 95.7178C88.3925 95.6665 88.9995 95.6153 89.625 95.5625C90.5617 95.5185 90.5617 95.5185 91.5173 95.4736C92.142 95.4372 92.7666 95.4008 93.4102 95.3633C94.0239 95.3061 94.6377 95.2489 95.27 95.1899C95.8409 95.1273 96.4118 95.0646 97 95C97.9062 94.8904 98.8124 94.7809 99.7461 94.668C100.511 94.53 101.275 94.3921 102.062 94.25C102.713 94.1108 103.364 93.9716 104.035 93.8281C104.684 93.5548 105.332 93.2816 106 93C106.918 92.5591 107.836 92.1183 108.781 91.6641C109.513 90.7849 110.246 89.9058 111 89C111.08 88.1821 111.16 87.3642 111.242 86.5215C111.202 85.5476 111.162 84.5737 111.121 83.5703C110.975 82.006 110.975 82.006 110.826 80.4102C110.698 79.3261 110.57 78.242 110.438 77.125C110.336 76.0486 110.235 74.9723 110.131 73.8633C110.025 72.8179 109.918 71.7724 109.809 70.6953C109.683 69.6987 109.556 68.7021 109.427 67.6753C109.286 66.7924 109.145 65.9096 109 65C108.842 64.3247 108.684 63.6494 108.521 62.9536C108.354 62.4172 108.187 61.8808 108.016 61.3281C107.68 60.5598 107.345 59.7916 107 59C106.443 58.5462 105.886 58.0925 105.312 57.625C104.549 57.4188 103.786 57.2125 103 57C101.969 56.9381 100.938 56.8762 99.875 56.8125C99.2782 56.8331 98.6813 56.8537 98.0664 56.875C97.0435 56.9369 97.0435 56.9369 96 57Z" fill="black"/>
</g>
<defs>
<clipPath id="clip0_7_859">
<rect width="456" height="2405" fill="white" transform="translate(-152)"/>
</clipPath>
</defs>
</svg>
