<svg width="152" height="152" viewBox="0 0 152 152" fill="none" xmlns="http://www.w3.org/2000/svg">
<g clip-path="url(#clip0_7_859)">
<path d="M109 22C109.825 22.2681 110.65 22.5362 111.5 22.8125C112.325 23.2044 113.15 23.5962 114 24C114.99 24.99 114.99 24.99 116 26C116.298 27.477 116.298 27.477 116.603 28.9838C116.722 29.8807 116.722 29.8807 116.844 30.7958C116.919 31.4404 116.994 32.0849 117.072 32.749C117.155 33.4202 117.238 34.0914 117.324 34.7829C117.406 35.4694 117.487 36.1559 117.571 36.8632C117.684 37.9048 117.684 37.9048 117.799 38.9676C117.898 39.9736 117.898 39.9736 118 41C118.052 41.5992 118.104 42.1983 118.157 42.8156C118.2 43.3841 118.243 43.9525 118.287 44.5382C118.358 45.6577 118.429 46.7772 118.502 47.9307C118.562 49.079 118.622 50.2273 118.684 51.4104C118.711 51.9968 118.739 52.5831 118.767 53.1873C118.795 53.7906 118.823 54.394 118.852 55.0156C118.883 55.6487 118.914 56.2817 118.947 56.934C118.979 57.5851 119.012 58.2363 119.046 58.9071C119.078 59.5697 119.111 60.2322 119.145 60.9148C119.177 61.5866 119.21 62.2583 119.244 62.9504C119.275 63.6265 119.307 64.3025 119.339 64.9991C119.371 65.6809 119.402 66.3628 119.434 67.0653C119.481 68.0972 119.481 68.0972 119.529 69.15C119.561 69.843 119.592 70.536 119.625 71.25C119.674 72.2966 119.674 72.2966 119.723 73.3644C119.756 74.0651 119.788 74.7657 119.822 75.4876C119.871 76.5408 119.871 76.5408 119.921 77.6153C119.953 78.3174 119.985 79.0195 120.018 79.7429C120.05 80.4431 120.081 81.1433 120.114 81.8647C120.145 82.5627 120.176 83.2607 120.208 83.9799C120.239 84.675 120.269 85.3701 120.3 86.0862C120.33 86.7783 120.36 87.4705 120.391 88.1836C120.42 88.874 120.449 89.5644 120.479 90.2757C120.507 90.9601 120.535 91.6446 120.564 92.3498C120.591 93.0249 120.618 93.6999 120.646 94.3955C120.672 95.0602 120.698 95.7248 120.725 96.4097C120.75 97.0634 120.775 97.7172 120.8 98.3908C120.824 99.0287 120.847 99.6666 120.872 100.324C120.905 101.253 120.905 101.253 120.939 102.201C120.969 103.092 120.969 103.092 121 104C121.033 105.085 121.067 106.171 121.101 107.289C121.127 108.29 121.154 109.29 121.182 110.321C121.203 111.261 121.225 112.2 121.247 113.169C121.272 114.495 121.272 114.495 121.297 115.848C121.314 117.11 121.314 117.11 121.331 118.397C121.338 119.196 121.345 119.994 121.353 120.817C121.357 121.574 121.361 122.33 121.365 123.109C121.37 124.2 121.37 124.2 121.375 125.312C121.387 126.39 121.387 126.39 121.398 127.489C121.404 128.178 121.41 128.867 121.417 129.577C121.415 130.224 121.413 130.871 121.411 131.537C121.407 132.14 121.403 132.742 121.398 133.363C121.395 134.418 121.392 135.473 121.388 136.56C121.26 137.365 121.132 138.17 121 139C120.497 139.446 119.994 139.893 119.475 140.352C118.745 140.673 118.745 140.673 118 141C117.381 140.072 116.762 139.144 116.125 138.188C115.759 137.546 115.393 136.904 115.016 136.242C114.68 135.502 114.345 134.762 114 134C113.789 133.178 113.577 132.355 113.359 131.508C113.2 130.618 113.04 129.729 112.875 128.812C112.724 127.883 112.573 126.954 112.418 125.996C112.28 125.007 112.142 124.019 112 123C111.872 121.898 111.745 120.796 111.613 119.66C111.473 118.576 111.332 117.492 111.188 116.375C111.078 115.372 110.968 114.369 110.855 113.336C110.573 112.565 110.291 111.794 110 111C109.278 110.776 108.556 110.552 107.812 110.321C106.884 110.215 105.956 110.109 105 110C104.071 110.048 103.142 110.096 102.185 110.146C100.682 110.333 100.682 110.333 99.1484 110.523C98.0502 110.657 96.9519 110.792 95.8203 110.93C94.6834 111.077 93.5464 111.224 92.375 111.375C90.658 111.584 90.658 111.584 88.9062 111.797C87.2627 112.002 87.2627 112.002 85.5859 112.211C84.5861 112.338 83.5863 112.465 82.5562 112.595C81.7126 112.729 80.8691 112.862 80 113C79.01 113.33 78.02 113.66 77 114C76.7731 115.114 76.5463 116.227 76.3125 117.375C76.2416 118.089 76.1707 118.803 76.0977 119.539C76.0654 120.351 76.0332 121.163 76 122C76.04 122.936 76.0799 123.872 76.1211 124.836C76.1636 125.798 76.2062 126.759 76.25 127.75C76.2629 128.679 76.2758 129.609 76.2891 130.566C76.146 131.771 76.146 131.771 76 133C75.6571 133.525 75.3142 134.049 74.9609 134.59C74.5201 134.952 74.0792 135.314 73.625 135.688C72.7588 136.121 71.8925 136.554 71 137C70.34 137 69.68 137 69 137C68.9447 136.405 68.8893 135.809 68.8323 135.196C68.7549 134.371 68.6774 133.545 68.5977 132.695C68.4691 131.355 68.4691 131.355 68.3379 129.988C68.247 129.043 68.1561 128.099 68.0625 127.125C67.932 125.719 67.932 125.719 67.7988 124.285C67.6683 122.941 67.6683 122.941 67.5352 121.57C67.4566 120.743 67.3781 119.915 67.2971 119.063C67.1991 118.382 67.101 117.701 67 117C66.67 116.34 66.34 115.68 66 115C65.108 114.912 64.2159 114.825 63.2969 114.734C62.7345 114.73 62.1722 114.726 61.5928 114.722C60.9847 114.732 60.3765 114.741 59.75 114.75C59.129 114.755 58.508 114.759 57.8682 114.764C56.9125 114.782 56.9125 114.782 55.9375 114.801C54.961 114.839 54.961 114.839 53.9648 114.877C53.3164 114.918 52.668 114.958 52 115C51.3722 115.062 50.7445 115.125 50.0977 115.189C49.4879 115.265 48.8782 115.34 48.25 115.418C47.6612 115.501 47.0724 115.585 46.4658 115.671C45.8996 115.759 45.3334 115.847 44.75 115.938C43.693 116.112 42.6359 116.286 41.5469 116.465C40.2862 116.73 40.2862 116.73 39 117C38.01 117.495 38.01 117.495 37 118C36.67 118.99 36.34 119.98 36 121C35.9072 121.989 35.8144 122.977 35.7188 123.996C35.6105 125.7 35.6105 125.7 35.5 127.438C35.3917 129.137 35.3917 129.137 35.2812 130.871C35.142 132.42 35.142 132.42 35 134C34.875 134.786 34.7499 135.573 34.6211 136.383C34.4161 136.916 34.2112 137.45 34 138C32.7934 138.217 32.7934 138.217 31.5625 138.438C30.7169 138.293 29.8712 138.149 29 138C28.5875 137.608 28.175 137.216 27.75 136.812C27.5025 136.214 27.255 135.616 27 135C26.7196 134.009 26.7196 134.009 26.4336 132.999C26.2905 132.009 26.1474 131.02 26 130C25.994 129.326 25.9881 128.653 25.9819 127.959C26.0047 127.186 26.0274 126.413 26.0508 125.616C26.0887 124.762 26.1267 123.908 26.1658 123.027C26.2142 122.097 26.2626 121.166 26.3125 120.207C26.3842 118.713 26.3842 118.713 26.4573 117.189C26.5364 115.598 26.5364 115.598 26.6172 113.975C26.6775 112.854 26.7377 111.732 26.7998 110.577C26.8483 109.703 26.8483 109.703 26.8978 108.811C26.9315 108.213 26.9653 107.616 27 107C27.0525 106.079 27.0525 106.079 27.1061 105.14C27.1423 104.513 27.1785 103.886 27.2158 103.24C27.2532 102.601 27.2905 101.963 27.329 101.306C27.3674 100.657 27.4058 100.009 27.4453 99.3413C27.5043 98.3557 27.5043 98.3557 27.5646 97.3501C27.6048 96.6858 27.6451 96.0214 27.6865 95.3369C27.7276 94.6664 27.7686 93.9958 27.8109 93.305C27.8527 92.6307 27.8945 91.9564 27.9375 91.2617C28.0011 90.2498 28.0011 90.2498 28.066 89.2174C28.109 88.5405 28.152 87.8637 28.1963 87.1663C28.2398 86.4861 28.2832 85.806 28.328 85.1052C28.3719 84.4227 28.4157 83.7403 28.4609 83.0371C28.5051 82.3535 28.5493 81.6699 28.5948 80.9656C28.6393 80.2792 28.6837 79.5927 28.7295 78.8855C28.7741 78.1961 28.8187 77.5067 28.8646 76.7964C28.9316 75.7525 28.9316 75.7525 29 74.6875C29.0447 73.978 29.0893 73.2685 29.1354 72.5375C29.2023 71.4679 29.2023 71.4679 29.2705 70.3767C29.3149 69.6663 29.3593 68.9559 29.4051 68.224C29.4493 67.5204 29.4935 66.8167 29.5391 66.0918C29.5832 65.4017 29.6273 64.7116 29.6727 64.0006C29.7163 63.3224 29.76 62.6442 29.8049 61.9455C29.848 61.2802 29.891 60.6149 29.9353 59.9295C29.9983 58.9492 29.9983 58.9492 30.0625 57.9492C30.1227 56.9797 30.1227 56.9797 30.1841 55.9906C30.2427 55.0496 30.2427 55.0496 30.3025 54.0895C30.3417 53.4907 30.3809 52.8919 30.4214 52.2749C30.4777 51.4228 30.4777 51.4228 30.5352 50.5535C30.601 49.5259 30.6668 48.4982 30.7346 47.4395C30.8222 46.6345 30.9098 45.8294 31 45C31.33 44.34 31.66 43.68 32 43C33.1756 42.7525 33.1756 42.7525 34.375 42.5C35.2412 42.665 36.1075 42.83 37 43C37.5556 43.7245 38.1112 44.4489 38.6836 45.1953C38.934 45.739 39.1844 46.2826 39.4424 46.8428C39.7184 47.9106 39.7184 47.9106 40 49C40.0474 49.9671 40.0947 50.9342 40.1436 51.9307C40.1092 53.5853 40.1092 53.5853 40.0742 55.2734C40.0261 56.3142 39.978 57.355 39.9285 58.4272C39.8489 59.73 39.7694 61.0328 39.6875 62.375C39.4606 66.5413 39.2338 70.7075 39 75C51.87 74.01 51.87 74.01 65 73C64.942 70.4129 64.884 67.8257 64.8242 65.1602C64.804 63.8634 64.804 63.8634 64.7833 62.5404C64.7743 61.7852 64.7652 61.03 64.7559 60.252C64.7458 59.4013 64.7357 58.5506 64.7253 57.6741C64.7066 56.3813 64.7066 56.3813 64.6875 55.0625C64.6661 54.2025 64.6448 53.3424 64.6228 52.4563C64.592 51.1834 64.592 51.1834 64.5605 49.8848C64.5515 49.0614 64.5425 48.2381 64.5332 47.3898C64.5225 46.1933 64.5225 46.1933 64.5117 44.9727C64.4859 44.1904 64.4601 43.4081 64.4335 42.6021C64.433 41.5211 64.433 41.5211 64.4324 40.4182C64.6197 39.2902 64.807 38.1622 65 37C65.7732 36.6499 66.5464 36.2999 67.343 35.9392C68.2198 35.9593 69.0966 35.9793 70 36C70.99 36.33 71.98 36.66 73 37C73.2784 37.7038 73.5569 38.4077 73.8438 39.1328C74.0603 40.1202 74.2769 41.1077 74.5 42.125C74.6196 42.6718 74.7393 43.2186 74.8625 43.782C75.0485 44.6885 75.0485 44.6885 75.2383 45.6133C75.4232 46.6219 75.4232 46.6219 75.6118 47.6509C75.7399 48.4261 75.868 49.2013 76 50C76.1397 50.9467 76.2794 51.8933 76.4233 52.8687C76.5659 53.8956 76.7085 54.9225 76.8555 55.9805C76.9947 57.0225 77.1339 58.0646 77.2773 59.1382C77.4804 60.7095 77.4804 60.7095 77.6875 62.3125C77.8847 63.8799 77.8847 63.8799 78.0859 65.479C78.2058 66.4514 78.3257 67.4239 78.4492 68.4258C78.5558 69.3066 78.6624 70.1874 78.7722 71.095C78.8474 71.7236 78.9226 72.3523 79 73C79.9571 72.8008 79.9571 72.8008 80.9336 72.5977C81.7599 72.4211 82.5862 72.2445 83.4375 72.0625C84.2612 71.8885 85.0849 71.7145 85.9336 71.5352C86.6155 71.3586 87.2974 71.182 88 71C88.33 70.67 88.66 70.34 89 70C89.0917 69.4405 89.1834 68.8809 89.2778 68.3044C89.3537 67.5736 89.4296 66.8428 89.5078 66.0898C89.6034 65.2725 89.6991 64.4552 89.7976 63.613C89.9056 62.7301 90.0137 61.8472 90.125 60.9375C90.2492 60.0359 90.3733 59.1343 90.5012 58.2053C90.7152 56.8353 90.7152 56.8353 90.9336 55.4375C91.177 54.0608 91.177 54.0608 91.4253 52.6562C91.6149 51.7797 91.8046 50.9031 92 50C92.2296 49.2291 92.4592 48.4583 92.6958 47.6641C93.0803 46.5929 93.0803 46.5929 93.4727 45.5C93.7481 44.8163 94.0236 44.1326 94.3074 43.4282C94.5978 42.7713 94.8883 42.1143 95.1875 41.4375C95.485 40.7922 95.7826 40.1468 96.0891 39.4819C96.3974 38.8563 96.7058 38.2306 97.0234 37.5859C97.3428 36.9849 97.6622 36.3839 97.9912 35.7646C98.4906 34.8911 98.4906 34.8911 99 34C99.3535 33.428 99.7071 32.856 100.071 32.2666C100.432 31.7171 100.793 31.1677 101.164 30.6016C101.522 30.0841 101.88 29.5666 102.249 29.0334C102.6 28.548 102.951 28.0626 103.312 27.5625C103.969 26.6975 104.625 25.8326 105.301 24.9414C105.862 24.3007 106.422 23.6601 107 23C107.66 22.67 108.32 22.34 109 22ZM107 45C106.536 45.6884 106.536 45.6884 106.062 46.3906C105.712 47.0042 105.361 47.6178 105 48.25C104.649 48.8533 104.299 49.4566 103.938 50.0781C103.628 50.7123 103.319 51.3466 103 52C102.8 52.6097 102.6 53.2195 102.395 53.8477C102.264 54.5579 102.134 55.2682 102 56C101.921 56.9836 101.843 57.9671 101.762 58.9805C101.737 60.0388 101.713 61.0971 101.688 62.1875C101.65 63.2536 101.613 64.3196 101.574 65.418C101.715 66.27 101.855 67.1221 102 68C102.605 68.3468 103.209 68.6935 103.832 69.0508C104.547 69.034 105.263 69.0173 106 69C106.572 68.688 107.145 68.3761 107.734 68.0547C108.152 67.3766 108.57 66.6986 109 66C109.082 65.4486 109.164 64.8972 109.248 64.3291C109.274 63.6868 109.301 63.0446 109.328 62.3828C109.32 61.3483 109.32 61.3483 109.312 60.293C109.292 59.5775 109.271 58.8621 109.25 58.125C109.245 57.4173 109.24 56.7096 109.234 55.9805C109.224 55.2882 109.214 54.596 109.203 53.8828C109.165 52.8836 109.165 52.8836 109.127 51.8643C109.064 50.9415 109.064 50.9415 109 50C108.85 49.0074 108.701 48.0148 108.547 46.9922C108.366 46.3348 108.186 45.6773 108 45C107.67 45 107.34 45 107 45ZM90 78C88.5189 78.1566 88.5189 78.1566 87.0078 78.3164C86.1184 78.4801 85.2289 78.6438 84.3125 78.8125C83.5249 78.9839 82.7373 79.1554 81.9258 79.332C81.2903 79.5525 80.6548 79.7729 80 80C79.34 80.66 78.68 81.32 78 82C77.7912 82.6819 77.5823 83.3638 77.3672 84.0664C77.2048 84.8901 77.0423 85.7138 76.875 86.5625C76.6314 87.8967 76.6314 87.8967 76.3828 89.2578C76.1933 90.6152 76.1933 90.6152 76 92C75.9355 92.843 75.8711 93.6861 75.8047 94.5547C75.7866 95.341 75.7686 96.1273 75.75 96.9375C75.7448 97.6478 75.7397 98.358 75.7344 99.0898C75.822 99.7202 75.9097 100.351 76 101C76.2307 101.572 76.4615 102.145 76.6992 102.734C77.3431 103.361 77.3431 103.361 78 104C78.7541 104.12 79.5082 104.24 80.2852 104.363C81.2017 104.347 82.1182 104.33 83.0625 104.312C84.0512 104.287 85.0399 104.261 86.0586 104.234C87.0293 104.157 87.9999 104.08 89 104C89.7954 103.861 90.5907 103.722 91.4102 103.578C92.1411 103.408 92.872 103.238 93.625 103.062C94.3417 102.877 95.0584 102.691 95.7969 102.5C96.8874 102.252 96.8874 102.252 98 102C99.2143 101.876 99.2143 101.876 100.453 101.75C101.252 101.688 102.052 101.626 102.875 101.562C103.954 101.503 103.954 101.503 105.055 101.441C106.018 101.223 106.018 101.223 107 101C107.786 100.366 107.786 100.366 108.588 99.7188C109.287 98.868 109.287 98.868 110 98C110.149 97.3831 110.298 96.7662 110.452 96.1306C110.481 95.4468 110.509 94.7631 110.539 94.0586C110.561 93.3103 110.583 92.562 110.605 91.791C110.612 91.0144 110.618 90.2377 110.625 89.4375C110.67 88.657 110.715 87.8764 110.762 87.0723C110.771 86.3253 110.78 85.5782 110.789 84.8086C110.727 84.1152 110.665 83.4219 110.601 82.7075C110.403 82.144 110.204 81.5806 110 81C108.962 80.5114 107.925 80.0229 106.855 79.5195C106.22 79.4133 105.584 79.307 104.93 79.1975C104.293 79.1323 103.656 79.0672 103 79C101.428 78.7602 101.428 78.7602 99.8242 78.5156C98.7891 78.428 97.754 78.3403 96.6875 78.25C95.5712 78.1765 94.4548 78.103 93.3047 78.0273C91.6689 78.0138 91.6689 78.0138 90 78ZM54 82C53.1196 82.116 52.2391 82.232 51.332 82.3516C50.0539 82.5797 50.0539 82.5797 48.75 82.8125C47.5222 83.089 47.5222 83.089 46.2695 83.3711C45.5206 83.5786 44.7716 83.7862 44 84C43.0467 84.3268 43.0467 84.3268 42.0742 84.6602C41.5341 84.8961 40.994 85.132 40.4375 85.375C39.2309 86.1794 39.2309 86.1794 38 87C37.67 88.32 37.34 89.64 37 91C37 95.62 37 100.24 37 105C46.9 105 56.8 105 67 105C67.0619 101.762 67.1238 98.5238 67.1875 95.1875C67.2148 94.1707 67.2421 93.1538 67.2703 92.1062C67.2815 90.8993 67.2815 90.8993 67.293 89.668C67.3087 88.8458 67.3244 88.0236 67.3406 87.1765C67.2282 86.4583 67.1158 85.74 67 85C66.3143 84.1243 66.3143 84.1243 65.6147 83.231C65.0819 82.8247 64.549 82.4185 64 82C63.2975 81.8801 62.5949 81.7602 61.8711 81.6367C61.068 81.6535 60.2649 81.6702 59.4375 81.6875C58.113 81.73 58.113 81.73 56.7617 81.7734C55.8504 81.8482 54.939 81.923 54 82Z" fill="black"/>
</g>
<defs>
<clipPath id="clip0_7_859">
<rect width="456" height="2405" fill="white" transform="translate(0 -585)"/>
</clipPath>
</defs>
</svg>
