<svg width="152" height="161" viewBox="0 0 152 161" fill="none" xmlns="http://www.w3.org/2000/svg">
<g clip-path="url(#clip0_7_859)">
<path d="M51 23C52.0093 22.991 53.0187 22.982 54.0586 22.9727C55.153 23.0229 56.2474 23.0732 57.375 23.125C59.034 23.2932 59.034 23.2932 60.7266 23.4648C62.3469 23.7297 62.3469 23.7297 64 24C64.9771 24.2488 65.9542 24.4976 66.9609 24.7539C67.8813 25.062 68.8017 25.3701 69.75 25.6875C70.633 26.0446 71.516 26.4016 72.4258 26.7695C73.2753 27.1756 74.1248 27.5816 75 28C75.8392 28.4576 76.6784 28.9152 77.543 29.3867C78.3332 29.8779 79.1234 30.369 79.9375 30.875C80.6594 31.3971 81.3813 31.9191 82.125 32.457C82.7437 32.9662 83.3625 33.4754 84 34C84.4538 34.4164 84.9075 34.8327 85.375 35.2617C85.7256 35.691 86.0762 36.1202 86.4375 36.5625C86.7198 37.0407 87.0021 37.519 87.293 38.0117C87.6429 38.9959 87.6429 38.9959 88 40C88.223 41.0789 88.446 42.1579 88.6758 43.2695C88.7751 43.8598 88.8745 44.4502 88.9768 45.0583C89.067 45.6578 89.1571 46.2573 89.25 46.875C89.3305 47.4713 89.411 48.0675 89.4939 48.6819C89.5629 49.238 89.632 49.7942 89.7031 50.3672C89.8011 51.236 89.8991 52.1048 90 53C90.6175 52.5785 91.2349 52.157 91.8711 51.7227C92.718 51.1748 93.5649 50.627 94.4375 50.0625C95.3411 49.5146 96.2448 48.9668 97.1758 48.4023C98.1078 47.9396 99.0398 47.4768 100 47C100.88 46.795 101.761 46.5901 102.668 46.3789C103.884 46.2532 103.884 46.2532 105.125 46.125C106.243 46.067 106.243 46.067 107.383 46.0078C107.916 46.0052 108.45 46.0027 109 46C109.161 46.7167 109.322 47.4334 109.488 48.1719C109.327 49.1052 109.166 50.0384 109 51C108.281 51.6603 108.281 51.6603 107.548 52.334C106.587 52.9808 106.587 52.9808 105.605 53.6406C104.897 54.0712 104.189 54.5017 103.459 54.9453C102.709 55.3759 101.96 55.8064 101.188 56.25C100.45 56.696 99.7115 57.142 98.9512 57.6016C97.8829 58.2396 97.8829 58.2396 96.793 58.8906C96.1384 59.2725 95.4838 59.6544 94.8093 60.0479C93.9137 60.5192 93.9137 60.5192 93 61C91.515 61.495 91.515 61.495 90 62C90.1238 63.0312 90.2475 64.0625 90.375 65.125C90.6399 66.086 90.6399 66.086 90.9102 67.0664C91.4496 68.0235 91.4496 68.0235 92 69C92.7206 69.5246 93.4412 70.0493 94.1836 70.5898C95.0511 71.0758 95.9187 71.5618 96.8125 72.0625C97.7032 72.5433 98.594 73.0241 99.5117 73.5195C100.743 74.2524 100.743 74.2524 102 75C102.584 75.5401 103.168 76.0802 103.77 76.6367C104.217 77.1691 104.664 77.7015 105.125 78.25C105.744 79.1575 106.363 80.065 107 81C107 81.66 107 82.32 107 83C105.855 83.4331 105.855 83.4331 104.688 83.875C104.153 83.9536 103.618 84.0323 103.066 84.1133C102.384 84.0759 101.703 84.0385 101 84C100.06 83.7254 99.1205 83.4509 98.1523 83.168C97.1533 82.8032 96.1543 82.4384 95.125 82.0625C93.6748 81.4921 93.6748 81.4921 92.1953 80.9102C91.4709 80.6098 90.7464 80.3095 90 80C90.1727 80.7129 90.3455 81.4257 90.5234 82.1602C90.8045 83.1179 91.0855 84.0757 91.375 85.0625C91.9145 86.5688 91.9145 86.5688 92.4648 88.1055C92.9714 89.0607 93.478 90.0159 94 91C94.7644 91.6974 95.5288 92.3948 96.3164 93.1133C97.1814 93.6946 98.0463 94.276 98.9375 94.875C99.7715 95.3674 100.606 95.8598 101.465 96.3672C102.301 96.906 103.138 97.4448 104 98C104.452 98.3605 104.903 98.7211 105.369 99.0925C105.81 99.4964 106.252 99.9003 106.707 100.316C107.118 100.748 107.53 101.18 107.953 101.625C108.299 102.079 108.644 102.532 109 103C109.366 103.94 109.732 104.879 110.109 105.848C110.321 106.909 110.532 107.969 110.75 109.062C110.864 109.651 110.979 110.24 111.096 110.846C111.208 111.477 111.319 112.108 111.434 112.758C111.58 113.764 111.58 113.764 111.73 114.79C111.819 115.519 111.908 116.249 112 117C112.083 117.822 112.165 118.644 112.25 119.491C112.36 120.791 112.36 120.791 112.473 122.117C112.533 122.998 112.593 123.878 112.655 124.785C112.707 125.66 112.759 126.536 112.812 127.438C112.892 128.697 112.892 128.697 112.974 129.983C113.009 130.791 113.045 131.6 113.082 132.434C113.094 133.206 113.107 133.978 113.12 134.773C113.06 135.875 113.06 135.875 113 137C112.784 138.066 112.784 138.066 112.564 139.153C112.382 139.795 112.199 140.436 112.012 141.098C111.678 142.055 111.344 143.013 111 144C110.197 143.968 109.394 143.936 108.566 143.902C107.719 143.605 106.873 143.307 106 143C105.741 142.094 105.482 141.188 105.215 140.254C105.162 139.672 105.108 139.091 105.053 138.492C105.015 137.855 104.977 137.219 104.938 136.562C104.84 135.576 104.84 135.576 104.741 134.569C104.667 133.878 104.592 133.188 104.516 132.477C104.439 131.752 104.362 131.028 104.283 130.282C104.19 129.529 104.096 128.776 104 128C103.873 127.216 103.746 126.432 103.615 125.624C103.469 124.828 103.323 124.031 103.172 123.211C103.011 122.416 102.85 121.621 102.684 120.802C102.438 119.632 102.438 119.632 102.188 118.438C101.976 117.314 101.976 117.314 101.76 116.168C101.606 115.451 101.452 114.735 101.293 113.996C101.112 113.315 100.931 112.635 100.744 111.933C100.499 111.295 100.253 110.657 100 110C99.6196 109.409 99.2393 108.818 98.8474 108.209C98.4157 107.676 97.9839 107.143 97.5391 106.594C97.1274 106.135 96.7157 105.677 96.2915 105.205C95.8653 104.807 95.4391 104.41 95 104C94.0719 103.361 93.1438 102.721 92.1875 102.062C91.1356 101.712 90.0838 101.361 89 101C88.38 100.934 87.7599 100.869 87.1211 100.801C86.4624 100.825 85.8037 100.85 85.125 100.875C84.4457 100.991 83.7663 101.107 83.0664 101.227C82.3845 101.482 81.7026 101.737 81 102C80.349 102.482 79.698 102.964 79.0273 103.461C78.0547 104.347 78.0547 104.347 77.0625 105.25C76.4077 105.876 75.7528 106.503 75.0781 107.148C74.3923 107.759 73.7066 108.37 73 109C72.2317 109.508 71.4634 110.016 70.6719 110.539C69.8933 110.98 69.1147 111.421 68.3125 111.875C67.2548 112.459 67.2548 112.459 66.1758 113.055C65.4578 113.367 64.7398 113.679 64 114C62.6291 114.313 62.6291 114.313 61.2305 114.633C60.4944 114.754 59.7584 114.875 59 115C59.1044 114.417 59.2088 113.835 59.3164 113.234C59.542 112.497 59.7676 111.76 60 111C60.4215 110.386 60.843 109.773 61.2773 109.141C61.8252 108.517 62.373 107.893 62.9375 107.25C63.5614 106.559 64.1853 105.868 64.8281 105.156C65.5448 104.445 66.2616 103.733 67 103C67.8405 102.288 68.6809 101.577 69.5469 100.844C70.4183 100.153 71.2897 99.4619 72.1875 98.75C73.0061 98.1261 73.8246 97.5022 74.668 96.8594C75.4375 96.2458 76.2071 95.6322 77 95C77.7386 94.3245 78.4773 93.6491 79.2383 92.9531C79.8196 92.3086 80.401 91.6641 81 91C81.495 89.515 81.495 89.515 82 88C82.0554 87.4096 82.1109 86.8192 82.168 86.2109C82.1744 85.6051 82.1809 84.9992 82.1875 84.375C82.1256 83.2613 82.0637 82.1475 82 81C81.01 80.505 81.01 80.505 80 80C78.8901 80.4931 78.8901 80.4931 77.7578 80.9961C76.889 81.4718 76.0202 81.9474 75.125 82.4375C74.2613 82.9106 73.3977 83.3837 72.5078 83.8711C71.6802 84.2436 70.8527 84.6162 70 85C69.2343 85.0529 68.4686 85.1057 67.6797 85.1602C67.1254 85.1073 66.5711 85.0545 66 85C65.8711 84.273 65.7422 83.5459 65.6094 82.7969C65.7383 81.8739 65.8672 80.9509 66 80C66.3809 79.5907 66.7618 79.1814 67.1543 78.7598C67.6654 78.3698 68.1765 77.9799 68.7031 77.5781C69.2716 77.1927 69.8401 76.8073 70.4258 76.4102C71.0278 76.0273 71.6298 75.6445 72.25 75.25C72.8365 74.8517 73.423 74.4534 74.0273 74.043C74.601 73.6627 75.1746 73.2824 75.7656 72.8906C76.6 72.3734 76.6 72.3734 77.4512 71.8457C77.9623 71.5666 78.4734 71.2875 79 71C79.7992 70.7473 80.5984 70.4947 81.4219 70.2344C81.9427 70.157 82.4634 70.0797 83 70C82.7525 68.9894 82.505 67.9787 82.25 66.9375C81.9883 66.302 81.7266 65.6665 81.457 65.0117C80.9762 64.3479 80.4954 63.684 80 63C79.0757 62.3671 78.1515 61.7341 77.1992 61.082C76.6697 60.7747 76.1403 60.4673 75.5947 60.1506C75.0478 59.8534 74.501 59.5562 73.9375 59.25C73.3945 58.9689 72.8515 58.6878 72.292 58.3982C71.7715 58.1276 71.2511 57.8569 70.7148 57.5781C69.8189 57.0573 68.923 56.5366 68 56C67.3213 55.2807 67.3213 55.2807 66.6289 54.5469C66.4214 54.0364 66.2138 53.5259 66 53C65.9587 52.2781 65.9175 51.5562 65.875 50.8125C65.9163 50.2144 65.9575 49.6162 66 49C66.4963 49.0374 66.9926 49.0748 67.5039 49.1133C68.1832 49.179 68.8626 49.2448 69.5625 49.3125C70.2857 49.4002 71.0088 49.4878 71.7539 49.5781C72.4951 49.7173 73.2363 49.8566 74 50C74.6896 50.2423 75.3793 50.4847 76.0898 50.7344C76.7202 51.0077 77.3505 51.2809 78 51.5625C78.99 52.0369 79.98 52.5112 81 53C80.9858 52.3361 80.9716 51.6723 80.957 50.9883C80.9093 50.1053 80.8616 49.2223 80.8125 48.3125C80.6655 46.9396 80.6655 46.9396 80.5156 45.5391C80.3455 44.7012 80.1753 43.8633 80 43C79.0409 41.6078 79.0409 41.6078 78.0625 40.1875C77.6229 39.8253 77.1834 39.463 76.7305 39.0898C76.1594 38.7302 75.5884 38.3705 75 38C74.1918 37.5475 73.3835 37.0951 72.5508 36.6289C71.2263 35.9463 71.2263 35.9463 69.875 35.25C69.0268 34.8427 68.1786 34.4353 67.3047 34.0156C66.5441 33.6805 65.7836 33.3453 65 33C64.01 32.67 63.02 32.34 62 32C61.4093 31.9468 60.8186 31.8937 60.21 31.8389C59.558 31.825 58.9061 31.8112 58.2344 31.7969C57.5086 31.7866 56.7829 31.7763 56.0352 31.7656C54.904 31.7579 54.904 31.7579 53.75 31.75C53.0114 31.7294 52.2727 31.7088 51.5117 31.6875C50.7808 31.6823 50.0499 31.6772 49.2969 31.6719C48.215 31.7081 48.215 31.7081 47.1113 31.7451C46.4146 31.8292 45.7179 31.9133 45 32C44.3394 32.2001 43.6787 32.4003 42.998 32.6064C42.3851 32.8601 41.7721 33.1137 41.1406 33.375C40.3367 33.7501 40.3367 33.7501 39.5166 34.1328C38.7659 34.5621 38.7659 34.5621 38 35C37.4815 35.348 36.9629 35.6961 36.4287 36.0547C35.7215 36.6464 35.7215 36.6464 35 37.25C34.34 38.1575 33.68 39.065 33 40C33.0206 41.1137 33.0412 42.2275 33.0625 43.375C33.1888 43.9757 33.3152 44.5764 33.4453 45.1953C33.6284 45.7909 33.8114 46.3864 34 47C34.3674 47.8005 34.3674 47.8005 34.7422 48.6172C35.0864 49.4254 35.0864 49.4254 35.4375 50.25C35.6167 50.8236 35.7959 51.3973 35.9805 51.9883C35.9869 52.6521 35.9934 53.316 36 54C35.6249 54.8598 35.2498 55.7196 34.8633 56.6055C34.3309 57.54 33.7985 58.4746 33.25 59.4375C32.3992 60.851 32.3992 60.851 31.5312 62.293C31.0259 63.1863 30.5206 64.0796 30 65C29.7422 65.7386 29.4844 66.4773 29.2188 67.2383C29.0641 67.9021 28.9094 68.566 28.75 69.25C28.6237 69.8739 28.4973 70.4978 28.3672 71.1406C28.246 71.7542 28.1248 72.3678 28 73C27.817 73.6755 27.6339 74.3509 27.4453 75.0469C27.2571 75.6914 27.0689 76.3359 26.875 77C26.5863 77.99 26.2975 78.98 26 80C25.0448 79.9149 25.0448 79.9149 24.0703 79.8281C23.3871 79.5548 22.7039 79.2816 22 79C21.7499 78.2317 21.4998 77.4634 21.2422 76.6719C21.121 75.7077 20.9998 74.7434 20.875 73.75C20.6855 72.3191 20.6855 72.3191 20.4922 70.8594C20.3298 69.9158 20.1673 68.9722 20 68C19.476 66.7045 19.476 66.7045 18.9414 65.3828C18.6307 64.5965 18.3201 63.8102 18 63C17.9497 62.3632 17.8995 61.7264 17.8477 61.0703C17.9186 60.4284 17.9895 59.7864 18.0625 59.125C18.1734 58.3554 18.2842 57.5859 18.3984 56.793C18.597 55.8713 18.7955 54.9496 19 54C19.1486 53.4233 19.2971 52.8466 19.4502 52.2524C19.6239 51.629 19.7976 51.0056 19.9766 50.3633C20.168 49.7211 20.3594 49.0789 20.5566 48.4172C20.7648 47.7639 20.973 47.1106 21.1875 46.4375C21.4112 45.7848 21.6348 45.1322 21.8652 44.4597C22.0979 43.8233 22.3306 43.1869 22.5703 42.5312C22.8091 41.9202 23.0479 41.3092 23.2939 40.6797C23.5269 40.1254 23.7599 39.5711 24 39C24.4099 38.1647 24.8198 37.3294 25.2422 36.4688C25.6779 35.7984 26.1136 35.1281 26.5625 34.4375C27.3127 33.55 27.3127 33.55 28.0781 32.6445C28.7123 32.1018 29.3466 31.5591 30 31C30.9023 30.4264 31.8047 29.8527 32.7344 29.2617C33.7502 28.7216 34.7659 28.1815 35.8125 27.625C36.8618 27.1519 37.9111 26.6788 38.9922 26.1914C39.9848 25.7982 40.9773 25.4051 42 25C42.7657 24.7203 43.5314 24.4405 44.3203 24.1523C45.019 23.9577 45.7177 23.763 46.4375 23.5625C47.1504 23.4375 47.8632 23.3124 48.5977 23.1836C49.3904 23.123 50.1832 23.0624 51 23Z" fill="black"/>
</g>
<defs>
<clipPath id="clip0_7_859">
<rect width="456" height="2405" fill="white" transform="translate(0 -1923)"/>
</clipPath>
</defs>
</svg>
