<svg width="152" height="142" viewBox="0 0 152 142" fill="none" xmlns="http://www.w3.org/2000/svg">
<g clip-path="url(#clip0_7_859)">
<path d="M69 28C69.99 27.9381 69.99 27.9381 71 27.875C71.66 28.2463 72.32 28.6175 73 29C73.6394 29.7425 74.2788 30.485 74.9375 31.25C75.9584 32.6113 75.9584 32.6113 77 34C77.4151 34.4409 77.8302 34.8817 78.2578 35.3359C78.6884 35.7613 79.1189 36.1867 79.5625 36.625C80.3669 37.4087 81.1712 38.1925 82 39C82.5981 39.5569 83.1963 40.1137 83.8125 40.6875C84.4003 41.3372 84.4003 41.3372 85 42C85 42.66 85 43.32 85 44C85.66 44 86.32 44 87 44C87.7013 44.6187 88.4025 45.2375 89.125 45.875C89.7766 46.5498 89.7766 46.5498 90.4414 47.2383C90.9557 47.8196 91.4701 48.401 92 49C92.6484 49.7979 93.2968 50.5959 93.9648 51.418C95.0032 52.727 95.0032 52.727 96.0625 54.0625C96.7135 54.8991 97.3645 55.7357 98.0352 56.5977C98.6836 57.3904 99.332 58.1832 100 59C100.706 59.6987 101.413 60.3973 102.141 61.1172C102.754 61.7385 103.368 62.3598 104 63C104.557 64.0106 105.114 65.0213 105.688 66.0625C106.012 66.6606 106.337 67.2588 106.672 67.875C107.11 68.5763 107.548 69.2775 108 70C108.686 70.8869 109.372 71.7738 110.078 72.6875C110.461 73.1587 110.844 73.6298 111.239 74.1152C111.832 74.8316 111.832 74.8316 112.438 75.5625C112.834 76.0375 113.231 76.5125 113.64 77.002C114.03 77.4654 114.419 77.9288 114.82 78.4062C115.54 79.2622 116.259 80.1181 117 81C117.513 81.6497 118.026 82.2994 118.555 82.9688C118.97 83.4947 119.385 84.0206 119.812 84.5625C120.895 85.7691 120.895 85.7691 122 87C122.66 87.4744 123.32 87.9487 124 88.4375C124.99 88.7159 124.99 88.7159 126 89C126.846 88.8556 127.691 88.7113 128.562 88.5625C129.367 88.3769 130.171 88.1912 131 88C132.485 88.495 132.485 88.495 134 89C134.103 89.9694 134.206 90.9388 134.312 91.9375C134.209 92.9481 134.106 93.9588 134 95C133.34 95.66 132.68 96.32 132 97C130.929 97.3132 130.929 97.3132 129.836 97.6328C129.024 97.7952 128.212 97.9577 127.375 98.125C126.558 98.2926 125.74 98.4602 124.898 98.6328C123.959 98.8146 123.959 98.8146 123 99C123.217 100.268 123.217 100.268 123.438 101.562C123.716 103.264 123.716 103.264 124 105C124.13 105.611 124.26 106.222 124.395 106.852C124.512 107.457 124.629 108.063 124.75 108.688C124.833 109.781 124.915 110.874 125 112C124.588 112.639 124.175 113.279 123.75 113.938C123.173 114.288 122.595 114.639 122 115C121.01 115 120.02 115 119 115C118.542 114.157 118.085 113.314 117.613 112.445C117.397 111.913 117.181 111.381 116.959 110.832C116.746 110.269 116.532 109.705 116.312 109.125C115.975 108.292 115.975 108.292 115.631 107.441C115.313 106.639 115.313 106.639 114.988 105.82C114.662 104.89 114.336 103.959 114 103C114 102.34 114 101.68 114 101C113.216 101.124 112.433 101.248 111.625 101.375C110.326 101.684 110.326 101.684 109 102C108.34 102.66 107.68 103.32 107 104C106.598 105.207 106.598 105.207 106.188 106.438C105.796 107.283 105.404 108.129 105 109C104.196 109.619 103.391 110.238 102.562 110.875C101.717 111.246 100.871 111.618 100 112C98.515 111.505 98.515 111.505 97 111C97.1057 110.29 97.2114 109.579 97.3203 108.848C97.5446 107.908 97.7689 106.968 98 106C98.4305 105.091 98.8611 104.182 99.3047 103.246C99.8229 102.319 100.341 101.392 100.875 100.438C101.388 99.5081 101.901 98.5787 102.43 97.6211C102.948 96.7561 103.466 95.8912 104 95C104.859 93.9655 104.859 93.9655 105.734 92.9102C106.152 92.2798 106.57 91.6495 107 91C107.008 90.3606 107.015 89.7212 107.023 89.0625C106.809 88.3819 106.595 87.7013 106.375 87C106.084 86.2214 105.792 85.4428 105.492 84.6406C105 83.7692 104.507 82.8978 104 82C103.413 81.2546 103.413 81.2546 102.813 80.4941C102.362 79.9753 101.91 79.4564 101.445 78.9219C100.727 78.133 100.727 78.133 99.9946 77.3281C99.5014 76.8073 99.0082 76.2866 98.5 75.75C97.7698 75.0075 97.7698 75.0075 97.0249 74.25C96.5526 73.7705 96.0803 73.2909 95.5938 72.7969C95.1439 72.3309 94.694 71.8649 94.2305 71.3848C93.6214 70.6993 93.6214 70.6993 93 70C92.3916 69.0977 91.7831 68.1953 91.1562 67.2656C90.7747 66.518 90.3931 65.7703 90 65C90 64.34 90 63.68 90 63C89.34 63 88.68 63 88 63C87.3671 62.2755 86.7341 61.5511 86.082 60.8047C85.7181 60.3382 85.3542 59.8717 84.9792 59.3911C84.5942 58.8908 84.2092 58.3905 83.8125 57.875C83.2147 57.1265 83.2147 57.1265 82.6047 56.3628C82.2015 55.8667 81.7983 55.3705 81.3828 54.8594C80.9809 54.3702 80.5791 53.881 80.165 53.377C79.7806 52.9226 79.3961 52.4682 79 52C78.3374 51.2833 77.6748 50.5666 76.9922 49.8281C76.3966 49.2661 75.8011 48.7041 75.1875 48.125C74.6654 47.6326 74.1434 47.1402 73.6055 46.6328C73.0757 46.424 72.5459 46.2152 72 46C71.3336 46.3377 70.6671 46.6755 69.9805 47.0234C69.3269 47.6757 68.6734 48.328 68 49C67.5076 49.8353 67.0152 50.6706 66.5078 51.5312C66.0515 52.5109 65.5952 53.4906 65.125 54.5C64.8731 55.0268 64.6211 55.5536 64.3616 56.0964C64.1017 56.6357 63.8419 57.1749 63.5742 57.7305C63.3143 58.2749 63.0544 58.8194 62.7866 59.3804C62.527 59.9148 62.2675 60.4493 62 61C61.4908 61.9861 60.9816 62.9723 60.457 63.9883C59.9556 64.9203 59.4541 65.8523 58.9375 66.8125C58.4477 67.7148 57.9578 68.6172 57.4531 69.5469C56.7338 70.7612 56.7338 70.7612 56 72C55.5205 72.6239 55.0409 73.2478 54.5469 73.8906C53.874 74.7182 53.874 74.7182 53.1875 75.5625C52.7956 76.1 52.4038 76.6376 52 77.1914C51.67 77.7882 51.34 78.3851 51 79C50.7319 79.7928 50.4638 80.5855 50.1875 81.4023C50.0225 82.2596 49.8575 83.1168 49.6875 84C49.6334 84.8469 49.5792 85.6938 49.5234 86.5664C49.6807 87.3695 49.838 88.1726 50 89C50.5491 89.6896 51.0983 90.3793 51.6641 91.0898C52.7275 92.0044 52.7275 92.0044 53.8125 92.9375C54.5408 93.4621 55.2691 93.9868 56.0195 94.5273C56.6731 95.0133 57.3266 95.4993 58 96C58.4202 96.504 58.8405 97.008 59.2734 97.5273C59.5132 98.0133 59.753 98.4993 60 99C59.9381 99.8662 59.8762 100.733 59.8125 101.625C59.5444 102.409 59.2763 103.192 59 104C58.01 104.33 57.02 104.66 56 105C55.2781 104.567 54.5562 104.134 53.8125 103.688C53.2144 103.131 52.6162 102.574 52 102C52 101.34 52 100.68 52 100C51.0641 99.8672 50.1283 99.7345 49.1641 99.5977C48.1199 99.7304 47.0758 99.8632 46 100C45.4921 100.927 44.9842 101.854 44.4609 102.809C44.2727 103.391 44.0845 103.973 43.8906 104.572C43.7205 105.188 43.5503 105.803 43.375 106.438C43.1082 107.355 43.1082 107.355 42.8359 108.291C42.6503 108.874 42.4647 109.458 42.2734 110.059C41.8532 111.029 41.433 112 41 113C39.9926 113.516 39.9926 113.516 38.9648 114.043C37.9922 114.022 37.9922 114.022 37 114C36.1028 112.948 36.1028 112.948 35.1875 111.875C34.7956 110.926 34.4038 109.978 34 109C34.0825 108.196 34.165 107.391 34.25 106.562C34.4975 105.717 34.745 104.871 35 104C35.1805 102.957 35.3609 101.914 35.5469 100.84C35.6964 99.9027 35.8459 98.9655 36 98C34.7876 98.4505 34.7876 98.4505 33.5508 98.9102C32.4821 99.2904 31.4135 99.6707 30.3125 100.062C29.2568 100.445 28.201 100.828 27.1133 101.223C26.0859 101.479 25.0585 101.736 24 102C22.6291 101.874 22.6291 101.874 21.2305 101.746C20.4944 101.5 19.7584 101.254 19 101C18.34 100.34 17.68 99.68 17 99C16.8221 98.1827 16.6442 97.3655 16.4609 96.5234C16.6388 95.6907 16.8167 94.858 17 94C17.941 93.5591 18.882 93.1183 19.8516 92.6641C20.4531 92.4908 21.0546 92.3176 21.6743 92.1392C22.318 91.9695 22.9618 91.7998 23.625 91.625C24.27 91.4257 24.915 91.2264 25.5796 91.021C26.5302 90.7012 26.5302 90.7012 27.5 90.375C28.1136 90.1559 28.7272 89.9367 29.3594 89.7109C29.9008 89.4763 30.4422 89.2417 31 89C31.7013 88.4638 32.4025 87.9275 33.125 87.375C33.8675 86.5088 33.8675 86.5088 34.625 85.625C35.0478 85.0295 35.4706 84.4339 35.9062 83.8203C36.2672 83.2196 36.6281 82.6189 37 82C37.3609 81.4199 37.7219 80.8398 38.0938 80.2422C38.4341 79.6673 38.7744 79.0923 39.125 78.5C39.4344 77.9289 39.7438 77.3579 40.0625 76.7695C40.3719 76.1856 40.6813 75.6016 41 75C41.3506 74.3645 41.7012 73.729 42.0625 73.0742C42.4131 72.4516 42.7637 71.829 43.125 71.1875C43.437 70.6242 43.7489 70.0609 44.0703 69.4805C44.5305 68.7476 44.5305 68.7476 45 68C45.66 67.34 46.32 66.68 47 66C47.3442 65.1131 47.6884 64.2262 48.043 63.3125C48.2259 62.7837 48.4089 62.255 48.5974 61.7102C48.8895 60.8637 48.8895 60.8637 49.1875 60C49.3996 59.4169 49.6118 58.8339 49.8303 58.2332C50.0565 57.6445 50.2826 57.0558 50.5156 56.4492C50.8724 55.5702 50.8724 55.5702 51.2363 54.6733C51.4883 54.1211 51.7404 53.5689 52 53C52.5517 52.0989 53.1034 51.1979 53.6719 50.2695C54.5459 49.0533 54.5459 49.0533 55.4375 47.8125C56.0305 47.021 56.6234 46.2295 57.2344 45.4141C57.817 44.6174 58.3997 43.8208 59 43C59.8121 41.6813 59.8121 41.6813 60.6406 40.3359C61.1511 39.462 61.6616 38.588 62.1875 37.6875C62.9165 36.4616 62.9165 36.4616 63.6602 35.2109C64.1023 34.4813 64.5445 33.7517 65 33C65.37 32.4148 65.7399 31.8295 66.1211 31.2266C66.4524 30.7599 66.7837 30.2933 67.125 29.8125C67.7437 29.2144 68.3625 28.6162 69 28Z" fill="black"/>
</g>
<defs>
<clipPath id="clip0_7_859">
<rect width="456" height="2405" fill="white" transform="translate(-152 -453)"/>
</clipPath>
</defs>
</svg>
