<svg width="152" height="172" viewBox="0 0 152 172" fill="none" xmlns="http://www.w3.org/2000/svg">
<g clip-path="url(#clip0_7_859)">
<path d="M93 29C93.6987 29.3442 94.3973 29.6884 95.1172 30.043C96.5442 31.0117 96.5442 31.0117 98 32C98.4915 32.5139 98.9829 33.0277 99.4893 33.5571C99.9904 34.1532 100.492 34.7492 101.008 35.3633C101.52 36.0033 102.031 36.6433 102.559 37.3027C103.076 37.966 103.592 38.6292 104.125 39.3125C104.65 39.9641 105.174 40.6157 105.715 41.2871C106.224 41.931 106.733 42.5749 107.258 43.2383C107.737 43.8742 108.216 44.5101 108.71 45.1653C109.136 45.7707 109.561 46.3762 110 47C110.336 47.5455 110.672 48.091 111.019 48.6531C111.29 49.1594 111.561 49.6658 111.84 50.1875C112.414 51.5797 112.414 51.5797 113 53C113.143 53.7876 113.286 54.5752 113.434 55.3867C113.436 56.5256 113.436 56.5256 113.438 57.6875C113.401 58.9637 113.401 58.9637 113.363 60.2656C113.243 61.168 113.124 62.0703 113 63C112.725 63.9848 112.451 64.9697 112.168 65.9844C111.824 66.9589 111.48 67.9334 111.125 68.9375C110.777 69.8334 110.429 70.7293 110.07 71.6523C109.541 72.8144 109.541 72.8144 109 74C108.624 74.5337 108.247 75.0673 107.859 75.6172C107.576 76.0735 107.292 76.5298 107 77C107.041 78.0519 107.082 79.1037 107.125 80.1875C107.229 80.8011 107.334 81.4147 107.441 82.0469C107.626 82.6914 107.81 83.3359 108 84C108.318 84.6445 108.637 85.2891 108.965 85.9531C109.508 86.9354 109.508 86.9354 110.062 87.9375C110.592 88.9449 110.592 88.9449 111.133 89.9727C111.419 90.6417 111.705 91.3107 112 92C112.121 92.6381 112.242 93.2762 112.367 93.9336C112.39 94.5743 112.414 95.2149 112.438 95.875C112.4 96.5286 112.363 97.1821 112.324 97.8555C112.217 98.5632 112.11 99.2709 112 100C111.821 100.842 111.642 101.684 111.457 102.551C111.224 103.421 110.99 104.291 110.75 105.188C110.481 106.032 110.211 106.876 109.934 107.746C109.626 108.49 109.317 109.234 109 110C108.64 110.507 108.281 111.013 107.91 111.535C107.548 111.936 107.186 112.337 106.812 112.75C106.214 113.493 105.616 114.235 105 115C104.792 115.953 104.585 116.905 104.371 117.887C104.579 118.914 104.786 119.941 105 121C105.507 121.381 106.014 121.763 106.536 122.156C107.547 122.653 107.547 122.653 108.578 123.16C109.702 123.639 109.702 123.639 110.848 124.127C111.64 124.436 112.433 124.744 113.25 125.062C114.027 125.375 114.805 125.688 115.605 126.01C116.36 126.328 117.114 126.645 117.891 126.973C118.612 127.293 119.333 127.612 120.076 127.942C120.711 128.291 121.346 128.64 122 129C122.475 129.425 122.95 129.85 123.439 130.289C123.988 130.948 123.988 130.948 124.547 131.621C125.026 132.406 125.506 133.191 126 134C126 134.66 126 135.32 126 136C124.969 135.917 123.938 135.835 122.875 135.75C121.804 135.62 121.804 135.62 120.711 135.488C119.816 135.327 118.922 135.166 118 135C117.422 134.855 116.843 134.71 116.247 134.56C115.309 134.304 115.309 134.304 114.352 134.043C113.718 133.863 113.083 133.684 112.43 133.499C111.793 133.314 111.156 133.128 110.5 132.938C109.864 132.751 109.229 132.564 108.574 132.372C107.982 132.196 107.391 132.021 106.781 131.84C105.405 131.424 105.405 131.424 104 131C103.977 132.047 103.954 133.093 103.93 134.172C103.929 134.812 103.929 135.452 103.929 136.111C103.952 136.735 103.976 137.358 104 138C104.168 138.913 104.335 139.825 104.508 140.766C104.711 141.585 104.915 142.405 105.125 143.25C105.438 144.495 105.438 144.495 105.758 145.766C105.838 146.503 105.918 147.24 106 148C105.75 148.614 105.5 149.227 105.242 149.859C104.832 150.236 104.422 150.612 104 151C102.515 150.505 102.515 150.505 101 150C100.615 148.992 100.229 147.984 99.832 146.945C99.6612 146.33 99.4904 145.716 99.3145 145.082C99.1488 144.436 98.9832 143.79 98.8125 143.125C98.6353 142.487 98.458 141.849 98.2754 141.191C98.1085 140.574 97.9415 139.956 97.7695 139.32C97.5156 138.225 97.2616 137.129 97 136C97 135.01 97 134.02 97 133C96.3013 133.361 95.6027 133.722 94.8828 134.094C93.5177 134.79 93.5177 134.79 92.125 135.5C90.7676 136.196 90.7676 136.196 89.3828 136.906C88.5965 137.267 87.8102 137.628 87 138C86.34 138 85.68 138 85 138C84.67 138.99 84.34 139.98 84 141C83.01 141 82.02 141 81 141C80.8646 139.904 80.8646 139.904 80.7266 138.785C80.8168 137.866 80.907 136.947 81 136C81.6265 135.236 82.253 134.471 82.8984 133.684C83.7157 132.942 84.533 132.201 85.375 131.438C86.1871 130.694 86.9992 129.95 87.8359 129.184C88.5501 128.463 89.2642 127.742 90 127C90.4151 126.326 90.8302 125.652 91.2578 124.957C91.5027 124.311 91.7477 123.665 92 123C92.1341 122.386 92.2681 121.773 92.4062 121.141C92.4372 120.517 92.4681 119.893 92.5 119.25C92.4884 118.554 92.4768 117.858 92.4648 117.141C92.3114 116.434 92.158 115.728 92 115C91.5682 114.335 91.1363 113.67 90.6914 112.984C90.1539 112.33 89.6163 111.675 89.0625 111C88.5172 110.423 87.972 109.845 87.4102 109.25C86.9448 108.507 86.4795 107.765 86 107C85.7252 106.17 85.7252 106.17 85.4448 105.323C85.3174 104.681 85.1899 104.04 85.0586 103.379C84.9947 102.683 84.9308 101.987 84.865 101.27C84.9095 100.521 84.9541 99.7718 85 99C85.2295 98.2058 85.4591 97.4116 85.6956 96.5933C86.0229 95.7671 86.3502 94.941 86.6875 94.0898C87.0562 93.2449 87.4248 92.3999 87.8047 91.5293C88.1991 90.674 88.5936 89.8187 89 88.9375C89.3945 88.0783 89.7889 87.2192 90.1953 86.334C90.564 85.4903 90.9327 84.6466 91.3125 83.7773C91.6411 82.9619 91.9698 82.1464 92.3083 81.3062C92.6507 80.1646 92.6507 80.1646 93 79C93.033 78.3331 93.0659 77.6661 93.0999 76.979C93.0269 76.3788 92.954 75.7786 92.8789 75.1602C92.5889 74.1173 92.2988 73.0745 92 72C91.679 71.2266 91.358 70.4531 91.0273 69.6562C90.6677 68.9447 90.308 68.2331 89.9375 67.5C89.5856 66.6479 89.2337 65.7959 88.8711 64.918C88.4399 63.4736 88.4399 63.4736 88 62C87.8672 60.8618 87.7345 59.7235 87.5977 58.5508C87.5712 57.942 87.5448 57.3333 87.5176 56.7061C87.5118 56.0812 87.506 55.4563 87.5 54.8125C87.5058 54.1838 87.5116 53.555 87.5176 52.9072C87.544 52.2688 87.5704 51.6304 87.5977 50.9727C87.6481 50.3244 87.6985 49.6762 87.7505 49.0083C87.8328 48.3456 87.9152 47.6828 88 47C88.13 46.3102 88.2601 45.6204 88.394 44.9097C88.5515 44.2163 88.7089 43.523 88.8711 42.8086C89.0425 42.1289 89.214 41.4491 89.3906 40.7488C89.5711 40.0892 89.7516 39.4296 89.9375 38.75C90.1193 38.1181 90.301 37.4862 90.4883 36.8352C90.6662 36.2451 90.8441 35.6549 91.0273 35.0469C91.3483 34.0414 91.6693 33.0359 92 32C92.33 31.01 92.66 30.02 93 29ZM96 45C95.5205 46.0751 95.5205 46.0751 95.0312 47.1719C94.6909 48.1052 94.3506 49.0384 94 50C93.8659 50.8508 93.7319 51.7016 93.5938 52.5781C93.5628 53.4598 93.5319 54.3416 93.5 55.25C93.5155 56.1988 93.5309 57.1475 93.5469 58.125C93.6964 59.0738 93.8459 60.0225 94 61C94.397 61.9075 94.7941 62.815 95.2031 63.75C95.7136 64.575 96.2241 65.4 96.75 66.25C97.2605 66.9977 97.7709 67.7453 98.2969 68.5156C98.8589 69.0055 99.4209 69.4953 100 70C100.688 69.9961 101.377 69.9923 102.086 69.9883C103.033 69.4991 103.033 69.4991 104 69C104.369 68.4109 104.737 67.8218 105.117 67.2148C105.367 66.4633 105.617 65.7118 105.875 64.9375C106.227 63.7193 106.227 63.7193 106.586 62.4766C106.723 61.6593 106.859 60.842 107 60C106.972 59.2859 106.943 58.5717 106.914 57.8359C106.777 57.1682 106.641 56.5005 106.5 55.8125C106.291 55.168 106.082 54.5234 105.867 53.8594C105.581 53.2458 105.295 52.6322 105 52C104.631 51.407 104.263 50.8141 103.883 50.2031C103.468 49.6617 103.053 49.1203 102.625 48.5625C102.191 48.0868 101.756 47.6112 101.309 47.1211C100.877 46.7511 100.445 46.3812 100 46C98.8553 45.5669 98.8553 45.5669 97.6875 45.125C97.1306 45.0837 96.5738 45.0425 96 45ZM98 86C97.1338 86.7631 96.2675 87.5263 95.375 88.3125C94.9496 88.7418 94.5242 89.171 94.0859 89.6133C93.7276 90.0709 93.3692 90.5285 93 91C92.67 91.99 92.34 92.98 92 94C91.8821 95.0325 91.8821 95.0325 91.7617 96.0859C91.7372 96.8413 91.7127 97.5967 91.6875 98.375C91.6978 99.1639 91.7081 99.9528 91.7188 100.766C91.8116 101.503 91.9044 102.24 92 103C92.2372 103.572 92.4744 104.145 92.7188 104.734C93.0384 105.193 93.3581 105.652 93.6875 106.125C94.4506 106.744 95.2138 107.363 96 108C96.8237 107.979 97.6474 107.959 98.4961 107.938C99.3224 107.628 100.149 107.319 101 107C101.461 106.255 101.923 105.51 102.398 104.742C102.721 103.796 103.043 102.85 103.375 101.875C103.693 100.882 104.012 99.8898 104.34 98.8672C104.667 97.4479 104.667 97.4479 105 96C105.043 95.2807 105.085 94.5614 105.129 93.8203C105.066 93.2196 105.003 92.6189 104.938 92C104.628 91.01 104.319 90.02 104 89C103.546 88.3606 103.093 87.7212 102.625 87.0625C102.089 86.7119 101.553 86.3613 101 86C100.01 86 99.02 86 98 86Z" fill="black"/>
<path d="M42 18C42.66 18.165 43.32 18.33 44 18.5C44.66 18.995 45.32 19.49 46 20C46.3713 20.8869 46.7425 21.7738 47.125 22.6875C47.4137 23.7806 47.7025 24.8737 48 26C48.1392 26.5852 48.2784 27.1705 48.4219 27.7734C48.5714 28.3638 48.7209 28.9542 48.875 29.5625C49.0374 30.1529 49.1998 30.7433 49.3672 31.3516C49.576 31.8955 49.7848 32.4395 50 33C50.99 34.2066 50.99 34.2066 52 35.4375C52.66 36.2831 53.32 37.1288 54 38C54.348 38.8759 54.348 38.8759 54.7031 39.7695C54.8836 40.4231 55.0641 41.0766 55.25 41.75C55.3905 42.4435 55.531 43.137 55.6758 43.8516C55.7828 44.5605 55.8898 45.2695 56 46C56.0967 46.6677 56.1934 47.3355 56.293 48.0234C56.3407 48.717 56.3884 49.4105 56.4375 50.125C56.4272 50.8675 56.4169 51.61 56.4062 52.375C56.2722 53.2412 56.1381 54.1075 56 55C55.8298 55.5453 55.6597 56.0905 55.4844 56.6523C55.273 57.2414 55.0616 57.8305 54.8438 58.4375C54.6176 59.0458 54.3915 59.6541 54.1584 60.2808C53.9205 60.8894 53.6826 61.498 53.4375 62.125C53.1912 62.6988 52.9449 63.2726 52.6912 63.8638C52.4618 64.4269 52.2324 64.9901 51.9961 65.5703C51.7994 66.1311 51.6026 66.692 51.3999 67.2698C51.2679 67.8407 51.136 68.4117 51 69C50.9828 69.6116 50.9655 70.2232 50.9478 70.8533C51.0075 71.4599 51.0673 72.0664 51.1289 72.6914C51.4164 73.7832 51.7038 74.8751 52 76C52.5259 76.7077 53.0519 77.4154 53.5938 78.1445C54.2228 78.695 54.8519 79.2454 55.5 79.8125C56.1291 80.3758 56.7581 80.9391 57.4062 81.5195C57.9322 82.0081 58.4581 82.4966 59 83C59.33 83.66 59.66 84.32 60 85C60.0529 85.6355 60.1057 86.271 60.1602 86.9258C60.1279 87.7134 60.0957 88.501 60.0625 89.3125C59.971 90.2007 59.8795 91.0888 59.7852 92.0039C59.5261 92.9926 59.267 93.9813 59 95C58.5937 95.8138 58.5937 95.8138 58.1792 96.644C57.8506 97.2037 57.5221 97.7633 57.1836 98.3398C56.831 98.906 56.4783 99.4721 56.115 100.055C55.747 100.615 55.3791 101.174 55 101.75C54.6314 102.28 54.2628 102.81 53.8831 103.357C53.5298 103.873 53.1765 104.39 52.8125 104.922C52.4864 105.427 52.1604 105.932 51.8245 106.452C51.4164 107.218 51.4164 107.218 51 108C50.71 109.096 50.4199 110.191 50.1211 111.32C50.0811 112.205 50.0412 113.089 50 114C51.0209 114.557 51.0209 114.557 52.0625 115.125C53.0319 115.414 54.0013 115.702 55 116C55.5401 116.272 56.0802 116.544 56.6367 116.824C57.1691 117.15 57.7015 117.476 58.25 117.812C58.7502 118.108 59.2503 118.403 59.7656 118.707C60.173 119.134 60.5803 119.56 61 120C61.2217 120.87 61.4434 121.74 61.6719 122.637C61.7802 123.417 61.8884 124.196 62 125C61.3477 124.795 60.6955 124.59 60.0234 124.379C59.1495 124.109 58.2755 123.84 57.375 123.562C56.5165 123.296 55.658 123.029 54.7734 122.754C53.8582 122.505 52.943 122.256 52 122C50.8991 121.803 49.7983 121.606 48.6641 121.402C47.7849 121.27 46.9058 121.137 46 121C45.71 122.555 45.71 122.555 45.4141 124.141C45.2877 124.799 45.1614 125.458 45.0312 126.137C44.8972 126.834 44.7631 127.531 44.625 128.25C44.4355 129.273 44.4355 129.273 44.2422 130.316C44.1133 130.98 43.9844 131.644 43.8516 132.328C43.6471 133.286 43.6471 133.286 43.4385 134.264C43.2938 134.837 43.1491 135.41 43 136C42.6777 136.82 42.3555 137.64 42.0234 138.484C41.6857 138.985 41.348 139.485 41 140C40.34 140 39.68 140 39 140C38.795 139.5 38.5901 139 38.3789 138.484C38.1913 137.255 38.1913 137.255 38 136C37.9753 135.427 37.9507 134.854 37.9253 134.264C37.9177 133.625 37.9101 132.986 37.9023 132.328C37.9056 131.664 37.9088 131 37.9121 130.316C37.9205 129.634 37.9289 128.953 37.9375 128.25C37.942 127.553 37.9465 126.855 37.9512 126.137C37.9557 125.478 37.9602 124.819 37.9648 124.141C37.9764 123.104 37.988 122.068 38 121C37.3361 121.026 36.6723 121.052 35.9883 121.078C35.1053 121.135 34.2223 121.192 33.3125 121.25C32.3998 121.336 31.4872 121.423 30.5469 121.512C29.7064 121.673 28.8659 121.834 28 122C27.4483 122.316 26.8966 122.632 26.3281 122.957C25.7016 123.504 25.7016 123.504 25.0625 124.062C24.3819 124.702 23.7013 125.341 23 126C22.01 126 21.02 126 20 126C20.2153 125.098 20.4305 124.195 20.6523 123.266C20.8352 122.717 21.0181 122.169 21.2065 121.604C21.4684 121.074 21.7302 120.545 22 120C22.8469 119.252 23.6938 118.505 24.5664 117.734C25.2944 117.236 25.2944 117.236 26.0371 116.727C26.5405 116.404 27.0439 116.082 27.5625 115.75C28.3234 115.243 28.3234 115.243 29.0996 114.727C29.8257 114.235 29.8257 114.235 30.5664 113.734C31.771 112.876 31.771 112.876 33 112C33.495 111.01 33.495 111.01 34 110C34.0825 109.092 34.165 108.185 34.25 107.25C34.1675 106.178 34.085 105.105 34 104C33.505 103.134 33.01 102.267 32.5 101.375C32.228 100.886 31.956 100.398 31.6758 99.8945C31.4528 99.2693 31.2298 98.6441 31 98C30.9111 97.0757 30.8221 96.1515 30.7305 95.1992C30.7163 94.1641 30.7021 93.129 30.6875 92.0625C30.7146 91.0184 30.7416 89.9742 30.7695 88.8984C30.8456 87.942 30.9216 86.9855 31 86C31.1276 85.3116 31.2552 84.6233 31.3867 83.9141C31.5479 83.3443 31.709 82.7745 31.875 82.1875C32.2463 81.1356 32.6175 80.0838 33 79C33.2604 78.487 33.5208 77.9739 33.7891 77.4453C34.0237 76.9065 34.2583 76.3677 34.5 75.8125C34.6727 75.2363 34.8455 74.6601 35.0234 74.0664C35.0157 73.3845 35.008 72.7026 35 72C34.6004 71.1015 34.2008 70.203 33.7891 69.2773C33.2399 68.2783 32.6908 67.2793 32.125 66.25C31.839 65.7313 31.553 65.2126 31.2583 64.6782C30.9823 64.1566 30.7063 63.635 30.4219 63.0977C29.9527 62.0754 29.4834 61.0532 29 60C28.8195 59.1118 28.6391 58.2237 28.4531 57.3086C28.4273 56.4436 28.4016 55.5787 28.375 54.6875C28.433 53.7903 28.491 52.8931 28.5508 51.9688C28.699 50.9891 28.8473 50.0094 29 49C29.101 48.4341 29.2021 47.8682 29.3062 47.2852C29.4256 46.6857 29.545 46.0863 29.668 45.4688C29.8763 44.5416 29.8763 44.5416 30.0889 43.5957C30.2452 42.966 30.4015 42.3363 30.5625 41.6875C30.733 41.0604 30.9035 40.4332 31.0791 39.7871C31.2683 39.1561 31.4574 38.5251 31.6523 37.875C31.861 37.2395 32.0697 36.604 32.2847 35.9492C32.5207 35.306 32.7568 34.6627 33 34C33.2786 33.3387 33.5572 32.6774 33.8442 31.9961C34.1444 31.3374 34.4446 30.6787 34.7539 30C35.0619 29.3597 35.3699 28.7195 35.6873 28.0598C35.9967 27.442 36.3062 26.8241 36.625 26.1875C36.9261 25.5948 37.2272 25.002 37.5374 24.3914C37.8267 23.8433 38.116 23.2952 38.4141 22.7305C38.9374 21.8294 39.4608 20.9284 40 20C40.66 19.34 41.32 18.68 42 18ZM41 38C40.6146 38.4035 40.2291 38.807 39.832 39.2227C39.4956 39.8298 39.1591 40.437 38.8125 41.0625C38.4748 41.7792 38.137 42.4959 37.7891 43.2344C37.5287 44.147 37.2683 45.0597 37 46C36.9365 46.5949 36.873 47.1898 36.8076 47.8027C36.7757 48.4505 36.7438 49.0982 36.7109 49.7656C36.6996 50.4307 36.6882 51.0958 36.6765 51.781C36.6801 52.4514 36.6838 53.1218 36.6875 53.8125C36.6943 54.4706 36.7012 55.1288 36.7083 55.8069C36.7259 56.4339 36.7435 57.061 36.7617 57.707C36.8404 58.7937 36.919 59.8804 37 61C37.33 61.99 37.66 62.98 38 64C38.7425 64 39.485 64 40.25 64C41.1575 63.67 42.065 63.34 43 63C43.3919 62.4367 43.7837 61.8734 44.1875 61.293C44.5381 60.5982 44.8887 59.9034 45.25 59.1875C45.5645 58.5004 45.8791 57.8134 46.2031 57.1055C46.4661 56.4107 46.7291 55.7159 47 55C47.1946 54.3464 47.3893 53.6929 47.5898 53.0195C47.7929 52.0199 47.7929 52.0199 48 51C48.1179 49.9017 48.1179 49.9017 48.2383 48.7812C48.2628 48.0284 48.2873 47.2756 48.3125 46.5C48.3048 45.7175 48.297 44.9351 48.2891 44.1289C48.1937 43.4264 48.0983 42.7238 48 42C47.4019 41.1544 46.8037 40.3087 46.1875 39.4375C45.4656 38.9631 44.7437 38.4888 44 38C43.01 38 42.02 38 41 38ZM44 78C43.175 78.4538 42.35 78.9075 41.5 79.375C41.0656 79.7385 40.6312 80.102 40.1836 80.4766C39.793 80.9793 39.4024 81.482 39 82C38.7229 82.7296 38.4457 83.4592 38.1602 84.2109C37.9629 85.0488 37.7657 85.8867 37.5625 86.75C37.4259 87.6227 37.2892 88.4954 37.1484 89.3945C37.0995 90.2543 37.0505 91.1141 37 92C37.0748 92.767 37.1495 93.534 37.2266 94.3242C37.3787 95.0216 37.5308 95.719 37.6875 96.4375C37.8912 97.0743 38.0948 97.7111 38.3047 98.3672C38.5341 98.906 38.7636 99.4448 39 100C39.4331 100.681 39.8663 101.361 40.3125 102.062C40.8694 102.372 41.4262 102.681 42 103C43.2375 102.969 43.2375 102.969 44.5 102.938C45.325 102.628 46.15 102.319 47 102C47.5775 101.381 48.155 100.762 48.75 100.125C49.1625 99.4237 49.575 98.7225 50 98C50.33 97.01 50.66 96.02 51 95C51.0902 94.0951 51.1805 93.1902 51.2734 92.2578C51.307 91.224 51.3405 90.1902 51.375 89.125C51.3698 88.0602 51.3647 86.9955 51.3594 85.8984C51.2408 84.942 51.1222 83.9855 51 83C50.4818 82.0603 50.4818 82.0603 49.9531 81.1016C49.5148 80.6555 49.0766 80.2095 48.625 79.75C47.7588 79.1725 46.8925 78.595 46 78C45.34 78 44.68 78 44 78Z" fill="black"/>
</g>
<defs>
<clipPath id="clip0_7_859">
<rect width="456" height="2405" fill="white" transform="translate(-152 -1085)"/>
</clipPath>
</defs>
</svg>
