<svg width="152" height="182" viewBox="0 0 152 182" fill="none" xmlns="http://www.w3.org/2000/svg">
<g clip-path="url(#clip0_7_859)">
<path d="M79 46C80.0039 46.1068 80.0039 46.1068 81.0281 46.2158C81.6788 46.4746 82.3295 46.7334 83 47C83.5569 47.3919 84.1137 47.7837 84.6875 48.1875C85.1206 48.7856 85.5538 49.3838 86 50C86.2217 50.8972 86.4434 51.7944 86.6719 52.7188C86.7802 53.8016 86.8884 54.8844 87 56C86.8157 57.0068 86.6313 58.0135 86.4414 59.0508C86.1514 60.1271 85.8613 61.2035 85.5625 62.3125C85.4178 62.9021 85.2731 63.4917 85.124 64.0991C84.9864 64.72 84.8488 65.3408 84.707 65.9805C84.5776 66.6255 84.4483 67.2705 84.3149 67.9351C84.211 68.6165 84.1071 69.2979 84 70C83.9463 70.7394 83.8927 71.4789 83.8374 72.2407C83.8124 73.003 83.7875 73.7654 83.7617 74.5508C83.7539 75.3116 83.7461 76.0724 83.738 76.8562C83.742 77.6049 83.7459 78.3536 83.75 79.125C83.755 80.2084 83.755 80.2084 83.76 81.3137C83.7722 81.9965 83.7843 82.6793 83.7969 83.3828C83.8326 84.3327 83.8326 84.3327 83.8691 85.3018C83.9339 86.1424 83.9339 86.1424 84 87C84.1702 87.8224 84.3403 88.6448 84.5156 89.4922C84.6755 89.9898 84.8353 90.4873 85 91C85.9462 90.8904 86.8923 90.7809 87.8672 90.668C88.8117 90.5556 88.8117 90.5556 89.7754 90.4409C90.4683 90.3573 91.1611 90.2737 91.875 90.1875C92.5859 90.1013 93.2968 90.0151 94.0293 89.9263C94.7699 89.8333 95.5104 89.7403 96.2734 89.6445C97.4312 89.493 97.4312 89.493 98.6123 89.3384C99.7942 89.1709 99.7942 89.1709 101 89C101.791 88.8716 102.581 88.7432 103.396 88.6108C104.185 88.475 104.975 88.3392 105.789 88.1992C106.576 88.063 107.362 87.9267 108.172 87.7864C108.94 87.6506 109.709 87.5149 110.5 87.375C111.228 87.2399 111.956 87.1048 112.707 86.9656C113.764 86.7777 113.764 86.7777 114.844 86.5859C115.53 86.4773 116.215 86.3687 116.922 86.2568C117.951 86.1297 117.951 86.1297 119 86C119.727 85.9488 120.454 85.8975 121.203 85.8447C122.263 85.8172 122.263 85.8172 123.344 85.7891C123.975 85.7783 124.606 85.7675 125.256 85.7563C125.831 85.8368 126.407 85.9172 127 86C127.57 86.2725 128.141 86.545 128.729 86.8257C129.148 87.2132 129.568 87.6007 130 88C130 88.99 130 89.98 130 91C129.504 91.2784 129.007 91.5569 128.496 91.8438C127.817 92.0603 127.137 92.2769 126.438 92.5C125.712 92.7488 124.986 92.9976 124.238 93.2539C123.5 93.5001 122.761 93.7463 122 94C121.334 94.2359 120.667 94.4718 119.98 94.7148C119.368 94.9533 118.756 95.1918 118.125 95.4375C117.094 95.9531 116.062 96.4688 115 97C114.6 97.5878 114.201 98.1756 113.789 98.7812C113.529 99.5134 113.268 100.246 113 101C112.985 101.795 112.969 102.591 112.953 103.41C113.051 104.285 113.149 105.161 113.25 106.062C113.407 107.511 113.407 107.511 113.566 108.988C113.709 109.982 113.853 110.976 114 112C114.195 112.963 114.389 113.926 114.59 114.918C114.787 115.853 114.984 116.787 115.188 117.75C115.358 118.656 115.528 119.562 115.703 120.496C115.801 121.322 115.899 122.149 116 123C115.954 123.672 115.907 124.343 115.859 125.035C115.72 125.622 115.581 126.208 115.438 126.812C114.963 127.864 114.489 128.916 114 130C113.691 130.534 113.381 131.067 113.062 131.617C112.506 132.394 112.506 132.394 111.938 133.188C111.495 133.672 111.053 134.157 110.598 134.656C110.07 135.1 109.543 135.543 109 136C108.359 136.382 107.719 136.763 107.059 137.156C106.338 137.497 105.617 137.837 104.875 138.188C103.723 138.675 103.723 138.675 102.547 139.172C101.286 139.582 101.286 139.582 100 140C99.0358 140.15 98.0716 140.299 97.0781 140.453C96.1036 140.613 95.1291 140.773 94.125 140.938C93.2007 141.172 92.2765 141.407 91.3242 141.648C90.5572 142.094 89.7902 142.54 89 143C88.5733 143.9 88.1466 144.8 87.707 145.727C87.3261 147.378 87.3261 147.378 86.9375 149.062C86.8409 149.639 86.7443 150.216 86.6448 150.811C86.5635 151.391 86.4822 151.972 86.3984 152.57C86.267 153.702 86.1355 154.834 86 156C85.8479 156.946 85.6958 157.892 85.5391 158.867C85.3032 160.139 85.3032 160.139 85.0625 161.438C84.8324 162.623 84.8324 162.623 84.5977 163.832C84.4004 164.547 84.2032 165.263 84 166C83.6893 166.643 83.3787 167.286 83.0586 167.949C82.5346 168.779 82.5346 168.779 82 169.625C81.34 170.409 80.68 171.192 80 172C79.34 172 78.68 172 78 172C77.4499 171.138 77.4499 171.138 76.8887 170.26C76.5954 169.514 76.3021 168.768 76 168C75.9181 167.332 75.8363 166.665 75.752 165.977C75.7665 164.923 75.7665 164.923 75.7812 163.848C75.7993 163.061 75.8173 162.275 75.8359 161.465C75.8901 160.652 75.9442 159.838 76 159C76.0954 158.203 76.1908 157.406 76.2891 156.585C76.4102 155.793 76.5314 155 76.6562 154.184C76.8593 153.009 76.8593 153.009 77.0664 151.811C77.2095 151.027 77.3526 150.244 77.5 149.438C77.6431 148.62 77.7862 147.802 77.9336 146.959C78.0689 146.187 78.2043 145.416 78.3438 144.621C78.4694 143.924 78.5951 143.227 78.7246 142.51C78.8155 142.011 78.9064 141.513 79 141C78.259 140.962 78.259 140.962 77.5029 140.924C76.8162 140.889 76.1294 140.853 75.4219 140.816C74.2985 140.755 74.2985 140.755 73.1523 140.693C72.3596 140.65 71.5668 140.607 70.75 140.562C69.9727 140.523 69.1954 140.484 68.3945 140.443C67.6404 140.401 66.8863 140.36 66.1094 140.316C65.4181 140.28 64.7269 140.243 64.0146 140.205C63.3498 140.138 62.685 140.07 62 140C61.2552 139.828 60.5105 139.657 59.7432 139.48C59.1679 139.322 58.5927 139.163 58 139C57.9626 140.036 57.9252 141.073 57.8867 142.141C57.8551 142.799 57.8236 143.458 57.791 144.137C57.7569 144.834 57.7227 145.531 57.6875 146.25C57.6649 146.932 57.6424 147.614 57.6191 148.316C57.5837 148.98 57.5482 149.644 57.5117 150.328C57.4527 150.968 57.3936 151.608 57.3328 152.267C57.223 152.839 57.1131 153.411 57 154C56.5359 154.804 56.0719 155.609 55.5938 156.438C55.0678 156.953 54.5419 157.469 54 158C53.2781 158.248 52.5562 158.495 51.8125 158.75C51.2144 158.833 50.6162 158.915 50 159C49.6816 158.161 49.3632 157.322 49.0352 156.457C48.8523 155.909 48.6694 155.36 48.481 154.795C48.3222 154.203 48.1635 153.61 48 153C47.9199 152.409 47.8398 151.818 47.7573 151.208C47.7124 150.607 47.6674 150.006 47.6211 149.387C47.5869 148.779 47.5528 148.171 47.5176 147.545C47.4912 146.932 47.4647 146.319 47.4375 145.688C47.3921 144.739 47.3921 144.739 47.3457 143.771C47.3128 143.17 47.28 142.569 47.2461 141.949C47.1649 140.976 47.0837 140.003 47 139C46.505 138.505 46.505 138.505 46 138C44.5227 137.878 44.5227 137.878 43.0156 137.754C42.1068 137.705 42.1068 137.705 41.1797 137.654C40.5429 137.624 39.9061 137.594 39.25 137.562C38.6287 137.536 38.0073 137.51 37.3672 137.482C36.7562 137.448 36.1452 137.414 35.5156 137.379C34.9177 137.332 34.3199 137.285 33.7039 137.236C32.8604 137.119 32.8604 137.119 32 137C31.0525 136.692 30.1051 136.384 29.1289 136.066C28.0751 135.539 28.0751 135.539 27 135C26.5669 134.464 26.1337 133.928 25.6875 133.375C25.4606 132.921 25.2338 132.468 25 132C25.8572 131.509 25.8572 131.509 26.7317 131.008C27.8545 130.509 27.8545 130.509 29 130C29.6899 129.936 30.3798 129.871 31.0906 129.805C31.8174 129.828 32.5442 129.851 33.293 129.875C34.485 129.898 34.485 129.898 35.7012 129.922C36.5217 129.948 37.3421 129.973 38.1875 130C39.0196 130.026 39.8517 130.052 40.709 130.078C41.8952 130.101 41.8952 130.101 43.1055 130.125C43.8289 130.148 44.5523 130.171 45.2976 130.195C45.8594 130.131 46.4212 130.066 47 130C47.33 129.34 47.66 128.68 48 128C48.0562 127.024 48.0562 127.024 48.1135 126.029C48.1057 124.851 48.1057 124.851 48.0977 123.648C48.0944 122.798 48.0912 121.947 48.0879 121.07C48.0795 120.181 48.0711 119.291 48.0625 118.375C48.058 117.478 48.0535 116.581 48.0488 115.656C48.0443 114.808 48.0398 113.96 48.0352 113.086C48.0288 112.303 48.0224 111.519 48.0159 110.712C48.008 109.865 48.008 109.865 48 109C47.2175 108.986 46.4351 108.972 45.6289 108.957C44.617 108.909 43.6051 108.862 42.5625 108.812C41.5532 108.778 40.5438 108.743 39.5039 108.707C38.6776 108.474 37.8513 108.24 37 108C36.7203 107.158 36.4405 106.316 36.1523 105.449C36.1021 104.641 36.0518 103.833 36 103C36.6484 102.841 37.2968 102.683 37.9648 102.52C39.4363 102.17 39.4363 102.17 40.9375 101.812C41.4837 101.684 42.0298 101.556 42.5925 101.425C43.5097 101.214 43.5097 101.214 44.4453 101C45.1366 100.845 45.8278 100.691 46.54 100.531C47.3518 100.356 48.1636 100.181 49 100C50.0129 99.7912 51.0258 99.5823 52.0693 99.3672C53.1783 99.1429 54.2872 98.9186 55.4297 98.6875C56.5603 98.4609 57.6909 98.2342 58.8557 98.0007C59.4255 97.8872 59.9953 97.7736 60.5823 97.6566C61.1533 97.543 61.7242 97.4295 62.3125 97.3125C62.8874 97.1982 63.4623 97.084 64.0547 96.9662C64.6198 96.854 65.185 96.7418 65.7673 96.6262C66.8302 96.4157 67.8932 96.2052 68.9883 95.9883C69.9529 95.7979 70.9175 95.6075 71.9114 95.4114C72.6006 95.2756 73.2899 95.1399 74 95C73.9365 94.3412 73.873 93.6824 73.8076 93.0037C73.7216 92.1246 73.6355 91.2455 73.5469 90.3398C73.456 89.4232 73.3651 88.5065 73.2715 87.562C73.1819 86.7165 73.0923 85.8711 73 85C72.8608 84.0319 72.7216 83.0638 72.5781 82.0664C72.4698 81.2401 72.3616 80.4138 72.25 79.5625C72.1688 78.5686 72.0876 77.5748 72.0039 76.5508C71.9886 75.9999 71.9733 75.449 71.9575 74.8813C71.9715 74.2605 71.9856 73.6397 72 73C72.0617 72.2541 72.1234 71.5082 72.187 70.7397C72.2787 69.9323 72.3704 69.1249 72.4648 68.293C72.5786 67.4614 72.6924 66.6299 72.8096 65.7732C72.9343 64.9405 73.059 64.1079 73.1875 63.25C73.3572 62.0619 73.3572 62.0619 73.5303 60.8499C73.6582 60.0796 73.7862 59.3093 73.918 58.5156C74.0731 57.7686 74.2283 57.0216 74.3882 56.252C74.5901 55.5088 74.792 54.7657 75 54C75.2857 53.2104 75.5714 52.4209 75.8657 51.6074C76.3595 50.4946 76.3595 50.4946 76.8633 49.3594C77.326 48.3534 77.326 48.3534 77.7981 47.3271C78.1947 46.8892 78.5914 46.4512 79 46ZM95 98C93.923 98.1605 93.923 98.1605 92.8242 98.3242C91.7356 98.5969 91.7356 98.5969 90.625 98.875C89.988 99.1447 89.3511 99.4143 88.6948 99.6921C87.8559 100.34 87.8559 100.34 87 101C86.8665 101.669 86.733 102.337 86.5955 103.026C86.6245 103.835 86.6536 104.643 86.6836 105.477C86.7165 106.371 86.7493 107.266 86.7832 108.188C86.8547 109.116 86.9263 110.044 87 111C87.0922 111.878 87.1843 112.755 87.2793 113.66C87.3921 114.525 87.5049 115.39 87.6211 116.281C87.7519 117.142 87.8828 118.003 88.0176 118.891C88.1562 119.752 88.2947 120.613 88.4375 121.5C88.5722 122.392 88.7069 123.284 88.8457 124.203C89.0439 125.479 89.0439 125.479 89.2461 126.781C89.3665 127.545 89.487 128.309 89.6111 129.096C89.7394 129.724 89.8678 130.353 90 131C90.33 131.66 90.66 132.32 91 133C92.0312 132.979 93.0625 132.959 94.125 132.938C94.7489 132.832 95.3728 132.726 96.0156 132.617C96.6705 132.414 97.3253 132.21 98 132C98.6548 131.631 99.3097 131.263 99.9844 130.883C100.608 130.447 101.232 130.011 101.875 129.562C102.45 129.131 103.025 128.699 103.617 128.254C104.074 127.84 104.53 127.426 105 127C105.33 126.34 105.66 125.68 106 125C106.091 123.494 106.091 123.494 106.184 121.957C106.174 121.335 106.165 120.713 106.156 120.073C106.104 119.389 106.053 118.705 106 118C105.88 117.266 105.761 116.531 105.637 115.775C105.48 115.007 105.322 114.24 105.16 113.449C104.984 112.669 104.808 111.888 104.627 111.084C104.441 110.293 104.254 109.502 104.062 108.688C103.88 107.877 103.698 107.067 103.51 106.232C103.333 105.458 103.155 104.684 102.973 103.887C102.81 103.188 102.648 102.489 102.481 101.768C102.322 101.185 102.163 100.601 102 100C101.67 99.34 101.34 98.68 101 98C99.7316 97.8453 99.7316 97.8453 98.4375 97.6875C97.3031 97.7906 96.1688 97.8937 95 98ZM70 104C69.0629 104.106 68.1257 104.211 67.1602 104.32C66.1792 104.503 65.1982 104.686 64.1875 104.875C63.2465 105.153 62.3055 105.432 61.3359 105.719C60.1796 106.353 60.1796 106.353 59 107C58.621 107.65 58.242 108.299 57.8516 108.969C57.6737 109.763 57.4958 110.557 57.3125 111.375C57.1907 112.686 57.1907 112.686 57.0664 114.023C57.0445 115.006 57.0226 115.988 57 117C56.9471 118.147 56.8943 119.295 56.8398 120.477C56.822 121.061 56.8042 121.646 56.7859 122.249C56.774 122.827 56.7622 123.405 56.75 124C56.7448 125.093 56.7397 126.186 56.7344 127.312C56.8659 128.643 56.8659 128.643 57 130C57.66 130.66 58.32 131.32 59 132C59.8985 132.22 60.797 132.441 61.7227 132.668C62.8248 132.839 63.927 133.011 65.0625 133.188C65.6409 133.275 66.2193 133.362 66.8152 133.453C67.397 133.531 67.9787 133.61 68.5781 133.691C69.7073 133.793 70.8366 133.895 72 134C72.9436 133.968 73.8872 133.936 74.8594 133.902C75.6689 133.811 76.4784 133.719 77.3125 133.625C78.0305 133.514 78.7485 133.403 79.4883 133.289C79.9871 133.194 80.486 133.098 81 133C81.0348 132.319 81.0696 131.639 81.1055 130.938C81.1325 129.968 81.1596 128.999 81.1875 128C81.1901 126.921 81.1927 125.842 81.1953 124.73C81.1763 124.137 81.1573 123.543 81.1377 122.931C81.0923 122.294 81.0468 121.657 81 121C80.8622 119.949 80.8622 119.949 80.7217 118.877C80.6047 118.151 80.4877 117.424 80.3672 116.676C80.238 115.952 80.1089 115.228 79.9758 114.482C79.8394 113.766 79.703 113.05 79.5625 112.312C79.428 111.605 79.2936 110.898 79.155 110.17C79.0227 109.512 78.8903 108.854 78.7539 108.176C78.5051 107.128 78.2563 106.08 78 105C77.67 104.67 77.34 104.34 77 104C76.0512 103.917 75.1025 103.835 74.125 103.75C73.505 103.768 72.8849 103.786 72.2461 103.805C71.5049 103.869 70.7637 103.934 70 104Z" fill="black"/>
<path d="M31 15C31.4215 15.3377 31.843 15.6755 32.2773 16.0234C32.8252 16.4695 33.373 16.9155 33.9375 17.375C34.4828 17.8159 35.028 18.2567 35.5898 18.7109C36.2879 19.349 36.2879 19.349 37 20C37.33 20.66 37.66 21.32 38 22C38.0928 22.8843 38.1856 23.7686 38.2812 24.6797C38.3534 25.7341 38.4256 26.7886 38.5 27.875C38.5722 28.9243 38.6444 29.9736 38.7188 31.0547C38.8116 32.0266 38.9044 32.9986 39 34C39.125 34.7631 39.2501 35.5263 39.3789 36.3125C39.5839 36.8694 39.7888 37.4262 40 38C40.8044 38.3713 41.6087 38.7425 42.4375 39.125C42.9686 39.272 43.4997 39.4189 44.0469 39.5703C45.0137 39.783 45.0137 39.783 46 40C46.8302 40.1624 47.6603 40.3248 48.5156 40.4922C49.3973 40.6598 50.2791 40.8273 51.1875 41C52.0267 41.1444 52.8659 41.2887 53.7305 41.4375C54.4794 41.6231 55.2284 41.8088 56 42C56.9223 42.4331 56.9223 42.4331 57.8633 42.875C58.2384 43.2463 58.6135 43.6175 59 44C58.67 44.99 58.34 45.98 58 47C57.4689 47.2256 56.9378 47.4512 56.3906 47.6836C55.2073 47.8402 55.2073 47.8402 54 48C52.8605 48.0322 51.7209 48.0645 50.5469 48.0977C49.9281 48.0944 49.3094 48.0912 48.6719 48.0879C48.0377 48.0795 47.4034 48.0711 46.75 48.0625C46.1003 48.058 45.4506 48.0535 44.7812 48.0488C44.1677 48.0443 43.5541 48.0398 42.9219 48.0352C41.9577 48.0236 40.9934 48.012 40 48C39.942 48.6149 39.884 49.2298 39.8242 49.8633C39.7791 50.6715 39.734 51.4798 39.6875 52.3125C39.6927 53.1336 39.6978 53.9548 39.7031 54.8008C39.8011 55.5265 39.8991 56.2523 40 57C40.6394 57.66 41.2788 58.32 41.9375 59C42.9481 59.33 43.9588 59.66 45 60C46.1563 60.1914 46.1563 60.1914 47.3359 60.3867C48.1532 60.486 48.9705 60.5852 49.8125 60.6875C50.6027 60.7532 51.3929 60.819 52.207 60.8867C52.7987 60.9241 53.3904 60.9615 54 61C53.8969 61.6355 53.7938 62.271 53.6875 62.9258C53.3472 63.9525 53.3472 63.9525 53 65C51.515 65.5878 51.515 65.5878 50 66.1875C49.38 66.3332 48.7599 66.4788 48.1211 66.6289C47.4211 66.7514 46.7212 66.8738 46 67C45.1866 67.1121 44.3732 67.2243 43.5352 67.3398C42.3112 67.481 42.3112 67.481 41.0625 67.625C40.2904 67.6998 39.5182 67.7745 38.7227 67.8516C38.1542 67.9005 37.5857 67.9495 37 68C37.0142 68.6381 37.0284 69.2762 37.043 69.9336C37.0907 70.7599 37.1384 71.5862 37.1875 72.4375C37.3306 73.6769 37.3306 73.6769 37.4766 74.9414C37.6493 75.6207 37.822 76.3001 38 77C38.6806 77.2887 39.3612 77.5775 40.0625 77.875C41.0319 77.9163 42.0013 77.9575 43 78C43.6961 78.1843 44.3922 78.3687 45.1094 78.5586C46.1999 78.9318 46.1999 78.9318 47.3125 79.3125C48.0099 79.5355 48.7073 79.7585 49.4258 79.9883C49.9453 80.3221 50.4648 80.656 51 81C51.1276 81.6755 51.2552 82.3509 51.3867 83.0469C51.1953 84.0137 51.1953 84.0137 51 85C50.175 85.3094 49.35 85.6188 48.5 85.9375C47.9521 85.9891 47.4043 86.0406 46.8398 86.0938C46.2327 86.0628 45.6255 86.0319 45 86C44.3619 85.8659 43.7238 85.7319 43.0664 85.5938C42.4051 85.3772 41.7438 85.1606 41.0625 84.9375C40.3909 84.6565 39.7193 84.3755 39.0273 84.0859C38.3583 83.7276 37.6893 83.3692 37 83C36.3413 82.5385 35.6826 82.077 35.0039 81.6016C34.0738 80.8397 34.0738 80.8397 33.125 80.0625C32.5707 79.5791 32.0164 79.0957 31.4453 78.5977C30.9684 78.0704 30.4914 77.5432 30 77C29.6449 76.3987 29.2899 75.7973 28.9241 75.1777C28.4667 74.0998 28.4667 74.0998 28 73C27.9198 72.2903 27.8397 71.5806 27.7571 70.8494C27.7612 70.0934 27.7653 69.3375 27.7695 68.5586C27.7715 67.7278 27.7734 66.897 27.7754 66.041C27.7876 65.1819 27.7999 64.3227 27.8125 63.4375C27.8131 62.5745 27.8138 61.7114 27.8145 60.8223C27.8203 59.9928 27.8261 59.1632 27.832 58.3086C27.8395 57.5538 27.847 56.7989 27.8547 56.0212C27.9027 55.3542 27.9506 54.6872 28 54C28.33 53.01 28.66 52.02 29 51C29.027 49.9037 29.054 48.8073 29.0818 47.6777C29.0753 47.027 29.0687 46.3762 29.062 45.7057C29.0506 45.0087 29.0391 44.3118 29.0273 43.5938C29.0212 42.8726 29.015 42.1515 29.0087 41.4086C29.0026 40.664 28.9965 39.9195 28.9902 39.1523C28.9821 38.3891 28.974 37.6258 28.9656 36.8394C28.9517 35.6814 28.9517 35.6814 28.9375 34.5C28.9265 33.728 28.9154 32.956 28.9041 32.1606C28.8938 31.3974 28.8836 30.6341 28.873 29.8477C28.8673 29.1031 28.8615 28.3585 28.8556 27.5914C28.8504 26.8703 28.8452 26.1492 28.8398 25.4062C28.8264 24.7093 28.8129 24.0124 28.7991 23.2943C28.7957 22.6435 28.7923 21.9928 28.7888 21.3223C28.8585 20.2259 28.9282 19.1296 29 18C29.3344 17.4365 29.6687 16.873 30.0132 16.2924C30.3388 15.8659 30.6645 15.4394 31 15Z" fill="black"/>
</g>
<defs>
<clipPath id="clip0_7_859">
<rect width="456" height="2405" fill="white" transform="translate(-152 -1902)"/>
</clipPath>
</defs>
</svg>
