<svg width="152" height="164" viewBox="0 0 152 164" fill="none" xmlns="http://www.w3.org/2000/svg">
<g clip-path="url(#clip0_7_859)">
<path d="M58 22C59.1331 21.8711 60.2662 21.7422 61.4336 21.6094C62.704 21.8027 62.704 21.8027 64 22C64.495 23.485 64.495 23.485 65 25C64.9897 25.66 64.9794 26.32 64.9688 27C64.4892 27.99 64.4892 27.99 64 29C62.5614 29.7734 62.5614 29.7734 61.0938 30.5625C60.515 30.8023 59.9362 31.042 59.3398 31.2891C58.4291 31.641 58.4291 31.641 57.5 32C56.5893 32.3519 56.5893 32.3519 55.6602 32.7109C55.0814 32.9507 54.5026 33.1905 53.9062 33.4375C52.9472 33.9531 51.9881 34.4688 51 35C50.4953 36.0055 50.4953 36.0055 49.9805 37.0312C49.9869 37.6809 49.9934 38.3306 50 39C50.5981 39.825 51.1963 40.65 51.8125 41.5C52.5344 42.325 53.2563 43.15 54 44C54.3674 44.6239 54.7348 45.2478 55.1133 45.8906C55.5522 46.9348 55.5522 46.9348 56 48C56.1109 48.6652 56.2217 49.3303 56.3359 50.0156C56.3488 50.753 56.3617 51.4903 56.375 52.25C56.357 53.1162 56.3389 53.9825 56.3203 54.875C56.2146 55.9062 56.1089 56.9375 56 58C55.8888 58.6368 55.7776 59.2736 55.6631 59.9297C55.5242 60.6129 55.3853 61.2961 55.2422 62C55.0831 62.7009 54.9241 63.4019 54.7603 64.124C54.5919 64.8256 54.4235 65.5272 54.25 66.25C54.0932 66.9232 53.9364 67.5964 53.7749 68.29C53.6068 68.942 53.4388 69.5939 53.2656 70.2656C52.9844 71.2102 52.9844 71.2102 52.6975 72.1738C52.4673 72.7765 52.2372 73.3791 52 74C51.6815 74.5769 51.363 75.1537 51.0349 75.748C50.6869 76.2798 50.339 76.8115 49.9805 77.3594C49.3269 78.2308 48.6734 79.1022 48 80C47.3606 80.66 46.7212 81.32 46.0625 82C45.7119 82.66 45.3613 83.32 45 84C45.4641 85.3613 45.4641 85.3613 45.9375 86.75C46.2379 87.2669 46.5382 87.7838 46.8477 88.3164C47.2279 88.872 47.6082 89.4276 48 90C48.4525 90.5865 48.9049 91.173 49.3711 91.7773C49.8674 92.4077 50.3637 93.038 50.875 93.6875C51.3932 94.3604 51.9114 95.0333 52.4453 95.7266C52.9584 96.4768 53.4714 97.227 54 98C54.4718 98.8946 54.9436 99.7892 55.4297 100.711C55.8654 101.652 56.3011 102.593 56.75 103.562C57.1496 104.497 57.5492 105.432 57.9609 106.395C58.3038 107.254 58.6467 108.114 59 109C59.3906 109.996 59.3906 109.996 59.7891 111.012C59.9824 111.585 60.1758 112.159 60.375 112.75C60.5812 113.822 60.7875 114.895 61 116C60.9794 117.134 60.9588 118.269 60.9375 119.438C60.8279 120.01 60.7184 120.582 60.6055 121.172C60.4057 121.775 60.2059 122.378 60 123C59.6661 123.686 59.3323 124.372 58.9883 125.078C58.5796 125.774 58.171 126.47 57.75 127.188C57.2975 127.855 56.8451 128.523 56.3789 129.211C55.6963 130.097 55.6963 130.097 55 131C53.8553 132.145 53.8553 132.145 52.6875 133.312C51.8006 133.869 50.9137 134.426 50 135C49.1376 135.464 49.1376 135.464 48.2578 135.938C47.6159 136.226 46.9739 136.515 46.3125 136.812C45.2916 137.166 45.2916 137.166 44.25 137.527C43.5075 137.683 42.765 137.839 42 138C41.1544 138.022 40.3087 138.044 39.4375 138.066C38.5713 138.003 37.705 137.94 36.8125 137.875C35.9695 137.75 35.1264 137.625 34.2578 137.496C33.5127 137.332 32.7677 137.169 32 137C31.0719 136.649 30.1438 136.299 29.1875 135.938C28.1047 134.978 28.1047 134.978 27 134C26.5359 133.499 26.0719 132.997 25.5938 132.48C24.8977 131.562 24.8977 131.562 24.1875 130.625C23.7763 129.925 23.3651 129.225 22.9414 128.504C22.6307 127.678 22.3201 126.851 22 126C21.8853 124.978 21.7705 123.956 21.6523 122.902C21.6433 121.8 21.6343 120.698 21.625 119.562C21.6791 118.437 21.7333 117.312 21.7891 116.152C21.8587 115.112 21.9283 114.072 22 113C21.9871 112.238 21.9742 111.476 21.9609 110.691C21.9738 110.009 21.9867 109.328 22 108.625C22.0799 107.931 22.1598 107.238 22.2422 106.523C22.4923 105.691 22.7423 104.858 23 104C23.28 103.419 23.5601 102.838 23.8486 102.239C24.1899 101.596 24.5312 100.952 24.8828 100.289C25.245 99.6244 25.6073 98.9597 25.9805 98.2749C26.3582 97.6067 26.7359 96.9385 27.125 96.25C27.5104 95.6114 27.8959 94.9729 28.293 94.3149C28.6526 93.7005 29.0123 93.0861 29.3828 92.4531C29.6985 91.8623 30.0141 91.2714 30.3394 90.6626C30.5574 90.1139 30.7754 89.5653 31 89C30.9639 88.0848 30.9278 87.1695 30.8906 86.2266C30.5967 85.4918 30.3028 84.757 30 84C29.6416 83.487 29.2833 82.9739 28.9141 82.4453C28.4887 82.0096 28.0633 81.5739 27.625 81.125C26.956 80.3612 26.956 80.3612 26.2734 79.582C25.6431 78.7989 25.6431 78.7989 25 78C24.6829 77.4882 24.3658 76.9765 24.0391 76.4492C23.6485 75.639 23.6485 75.639 23.25 74.8125C23.0283 74.2234 22.8066 73.6343 22.5781 73.0273C22.292 72.0238 22.292 72.0238 22 71C21.8092 70.1969 21.6184 69.3938 21.4219 68.5664C21.2827 67.6782 21.1434 66.7901 21 65.875C20.9407 64.9301 20.8814 63.9852 20.8203 63.0117C20.8796 62.0179 20.9389 61.024 21 60C21.2449 58.9752 21.4898 57.9504 21.7422 56.8945C22.116 55.8362 22.4898 54.7779 22.875 53.6875C23.0949 53.1531 23.3149 52.6187 23.5415 52.0681C23.7856 51.5249 24.0297 50.9816 24.2812 50.4219C24.5507 49.8682 24.8201 49.3146 25.0977 48.7441C25.3954 48.1686 25.6932 47.593 26 47C26.3339 46.3806 26.6677 45.7612 27.0117 45.123C27.3688 44.4895 27.7259 43.8559 28.0938 43.2031C28.469 42.5745 28.8443 41.9458 29.231 41.2981C29.6085 40.6841 29.986 40.0701 30.375 39.4375C30.7255 38.8538 31.0759 38.2701 31.437 37.6687C31.7955 37.1167 32.1541 36.5648 32.5234 35.9961C32.9086 35.4755 33.2938 34.9549 33.6907 34.4185C34.1228 33.9504 34.5548 33.4823 35 33C35.5165 32.6183 36.033 32.2366 36.5652 31.8433C37.1328 31.5096 37.7004 31.1758 38.2852 30.832C39.1833 30.371 39.1833 30.371 40.0996 29.9006C40.7267 29.6034 41.3539 29.3062 42 29C42.6478 28.6828 43.2955 28.3656 43.9629 28.0388C44.6261 27.7218 45.2893 27.4048 45.9727 27.0781C46.6449 26.7752 47.3171 26.4723 48.0098 26.1602C48.6872 25.8598 49.3646 25.5595 50.0625 25.25C50.7438 24.9342 51.425 24.6184 52.127 24.293C53.1334 23.8463 53.1334 23.8463 54.1602 23.3906C55.1311 23.001 55.1311 23.001 56.1216 22.6035C56.7415 22.4044 57.3613 22.2052 58 22ZM39 42C38.4405 42.4576 37.8811 42.9152 37.3047 43.3867C36.8329 44.146 36.3611 44.9052 35.875 45.6875C35.3761 46.5267 34.8773 47.3659 34.3633 48.2305C33.9134 49.1444 33.4635 50.0584 33 51C32.6429 51.9036 32.2859 52.8073 31.918 53.7383C31.6357 54.6496 31.3534 55.561 31.0625 56.5C30.8485 57.4243 30.6345 58.3485 30.4141 59.3008C30.2091 60.6369 30.2091 60.6369 30 62C29.9459 62.7979 29.8917 63.5959 29.8359 64.418C29.8695 65.1669 29.903 65.9159 29.9375 66.6875C30.0548 67.4004 30.1721 68.1132 30.293 68.8477C30.5263 69.5579 30.7596 70.2682 31 71C31.4086 71.7825 31.8173 72.5649 32.2383 73.3711C32.7371 74.1149 33.236 74.8587 33.75 75.625C34.2398 76.2979 34.7297 76.9708 35.2344 77.6641C35.817 78.1049 36.3997 78.5458 37 79C38.253 79.0058 38.253 79.0058 39.5312 79.0117C40.3459 78.6779 41.1606 78.344 42 78C42.5105 77.2923 43.0209 76.5846 43.5469 75.8555C43.9439 74.975 44.3409 74.0946 44.75 73.1875C45.1573 72.3148 45.5647 71.4421 45.9844 70.543C46.4871 69.2842 46.4871 69.2842 47 68C47.205 67.3632 47.4099 66.7264 47.6211 66.0703C47.7461 65.3871 47.8712 64.7039 48 64C48.1179 62.5208 48.1179 62.5208 48.2383 61.0117C48.2628 59.9147 48.2873 58.8177 48.3125 57.6875C48.3022 56.5402 48.2919 55.393 48.2812 54.2109C48.1884 53.1513 48.0956 52.0917 48 51C47.7628 50.2291 47.5256 49.4583 47.2812 48.6641C46.9616 48.053 46.6419 47.442 46.3125 46.8125C45.9993 46.3033 45.686 45.7941 45.3633 45.2695C44.9134 44.8506 44.4635 44.4316 44 44C43.1918 43.5359 42.3835 43.0719 41.5508 42.5938C40.709 42.3978 39.8673 42.2019 39 42ZM38 94C36.7934 95.1137 36.7934 95.1137 35.5625 96.25C34.9147 96.8765 34.9147 96.8765 34.2539 97.5156C33.8401 98.0055 33.4263 98.4953 33 99C32.4586 99.8875 32.4586 99.8875 31.9062 100.793C31.6072 101.521 31.3081 102.25 31 103C30.8028 103.96 30.6055 104.921 30.4023 105.91C30.2489 106.95 30.0955 107.991 29.9375 109.062C29.7815 110.105 29.6255 111.148 29.4648 112.223C29.3114 113.139 29.158 114.056 29 115C28.67 115.99 28.34 116.98 28 118C28.0052 118.567 28.0103 119.134 28.0156 119.719C28.093 120.307 28.1703 120.894 28.25 121.5C28.357 122.112 28.464 122.725 28.5742 123.355C28.7147 123.898 28.8552 124.441 29 125C29.3506 125.598 29.7012 126.196 30.0625 126.812C30.7019 127.204 31.3413 127.596 32 128C32.5362 128.238 33.0725 128.477 33.625 128.723C34.2644 128.938 34.9038 129.153 35.5625 129.375C36.2586 129.525 36.9547 129.674 37.6719 129.828C38.8243 129.913 38.8243 129.913 40 130C40.8714 129.912 41.7428 129.825 42.6406 129.734C43.9632 129.433 43.9632 129.433 45.3125 129.125C46.5693 128.684 46.5693 128.684 47.8516 128.234C48.5605 127.827 49.2695 127.42 50 127C50.4409 126.448 50.8817 125.897 51.3359 125.328C51.617 124.684 51.898 124.039 52.1875 123.375C52.3641 122.667 52.5407 121.96 52.7227 121.23C52.8142 120.494 52.9057 119.758 53 119C53.0909 117.942 53.0909 117.942 53.1836 116.863C53.1546 115.786 53.1546 115.786 53.125 114.688C53.0077 113.944 52.8904 113.2 52.7695 112.434C52.5156 111.631 52.2616 110.827 52 110C51.2942 108.594 51.2942 108.594 50.5742 107.16C49.9929 106.2 49.4115 105.239 48.8125 104.25C48.1873 103.331 47.5621 102.412 46.918 101.465C46.285 100.651 45.6521 99.838 45 99C44.4186 98.4032 43.8373 97.8063 43.2383 97.1914C42.7059 96.7364 42.1735 96.2813 41.625 95.8125C40.7588 95.2144 39.8925 94.6162 39 94C38.67 94 38.34 94 38 94Z" fill="black"/>
<path d="M121 18C121.722 18.1238 122.444 18.2475 123.188 18.375C123.786 18.9112 124.384 19.4475 125 20C125.206 20.8869 125.412 21.7738 125.625 22.6875C125.419 23.7806 125.213 24.8737 125 26C124.542 26.562 124.085 27.1241 123.613 27.7031C123.06 28.2755 122.507 28.8478 121.938 29.4375C121.392 30.0279 120.847 30.6183 120.285 31.2266C119.861 31.8118 119.437 32.397 119 33C118.959 34.0931 118.918 35.1862 118.875 36.3125C119.014 36.8964 119.153 37.4804 119.297 38.082C119.645 39.0314 119.645 39.0314 120 40C120.335 40.7051 120.67 41.4102 121.016 42.1367C121.382 42.9166 121.748 43.6965 122.125 44.5C122.647 45.7704 122.647 45.7704 123.18 47.0664C123.45 48.0345 123.721 49.0026 124 50C124.071 50.5735 124.142 51.1469 124.216 51.7378C124.25 52.349 124.285 52.9601 124.32 53.5898C124.324 54.5337 124.324 54.5337 124.328 55.4966C124.289 56.4573 124.289 56.4573 124.25 57.4375C124.206 58.078 124.162 58.7185 124.117 59.3784C124.04 60.0128 123.962 60.6472 123.883 61.3008C123.707 62.2359 123.707 62.2359 123.528 63.1899C123.354 63.7873 123.18 64.3846 123 65C122.735 65.5496 122.471 66.0992 122.198 66.6655C121.883 67.182 121.567 67.6984 121.242 68.2305C120.9 68.723 120.558 69.2155 120.206 69.7229C119.849 70.1856 119.493 70.6483 119.125 71.125C118.426 71.9526 117.728 72.7802 117.008 73.6328C116.014 74.8046 116.014 74.8046 115 76C114.432 76.8753 113.863 77.7505 113.277 78.6523C112.856 79.4271 112.434 80.2018 112 81C111.814 81.8044 111.629 82.6087 111.438 83.4375C111.623 84.2831 111.809 85.1288 112 86C112.422 86.4048 112.843 86.8095 113.277 87.2266C114.068 87.8879 114.068 87.8879 114.875 88.5625C115.422 89.0639 115.968 89.5654 116.531 90.082C117.016 90.715 117.501 91.3479 118 92C118.278 92.8907 118.557 93.7815 118.844 94.6992C119.019 95.706 119.194 96.7127 119.375 97.75C119.563 99.3143 119.563 99.3143 119.754 100.91C119.835 101.93 119.916 102.949 120 104C120.106 105.328 120.106 105.328 120.215 106.684C120.247 107.51 120.279 108.336 120.312 109.188C120.274 110.4 120.274 110.4 120.234 111.637C120.157 112.417 120.08 113.196 120 114C119.881 114.749 119.763 115.498 119.641 116.27C119.354 117.374 119.354 117.374 119.062 118.5C118.794 119.224 118.526 119.949 118.25 120.695C117.838 121.456 117.425 122.216 117 123C116.319 123.884 115.639 124.769 114.938 125.68C114.551 126.129 114.164 126.578 113.765 127.041C113.17 127.701 113.17 127.701 112.562 128.375C111.801 129.187 111.039 129.999 110.254 130.836C109.51 131.55 108.766 132.264 108 133C107.317 133.574 106.634 134.147 105.93 134.738C105.293 135.155 104.656 135.571 104 136C103.424 136.192 102.848 136.384 102.254 136.582C101.696 136.658 101.138 136.734 100.562 136.812C99.9566 136.871 99.3508 136.929 98.7266 136.988C98.1568 136.992 97.587 136.996 97 137C96.1544 136.835 95.3087 136.67 94.4375 136.5C93.6331 136.005 92.8288 135.51 92 135C91.4702 134.475 90.9404 133.951 90.3945 133.41C89.8518 132.8 89.3091 132.191 88.75 131.562C87.9998 130.667 87.9998 130.667 87.2344 129.754C86.827 129.175 86.4197 128.596 86 128C85.67 127.01 85.34 126.02 85 125C84.9468 124.274 84.8937 123.547 84.8389 122.799C84.825 121.956 84.8112 121.114 84.7969 120.246C84.7814 118.839 84.7814 118.839 84.7656 117.404C84.7605 116.425 84.7553 115.446 84.75 114.438C84.7294 113.486 84.7088 112.534 84.6875 111.553C84.6823 110.606 84.6772 109.659 84.6719 108.684C84.6956 107.742 84.7194 106.801 84.7439 105.831C84.8284 104.897 84.9129 103.962 85 103C85.2038 102.054 85.4075 101.107 85.6174 100.132C85.8739 99.2377 86.1303 98.3433 86.3945 97.4219C86.6482 96.6223 86.9019 95.8228 87.1633 94.999C87.4394 94.3393 87.7155 93.6797 88 93C88.9591 91.9172 88.9591 91.9172 89.9375 90.8125C90.6181 90.2144 91.2987 89.6162 92 89C92.6013 88.186 92.6013 88.186 93.2148 87.3555C93.5977 86.7432 93.9805 86.1309 94.375 85.5C94.7334 84.9328 95.0917 84.3656 95.4609 83.7812C95.7278 82.8995 95.7278 82.8995 96 82C95.6346 81.0332 95.6346 81.0332 95.2617 80.0469C94.8454 79.3714 94.429 78.6959 94 78C93.5862 77.3348 93.1724 76.6697 92.7461 75.9844C92.0983 74.8784 92.0983 74.8784 91.4375 73.75C91.0044 72.8786 90.5712 72.0072 90.125 71.1094C89.7537 70.0833 89.3825 69.0572 89 68C88.8711 67.3845 88.7422 66.7689 88.6094 66.1348C88.5114 65.4767 88.4134 64.8186 88.3125 64.1406C88.2026 63.1249 88.2026 63.1249 88.0906 62.0886C88.0401 61.3994 87.9895 60.7101 87.9375 60C87.9031 59.3088 87.8687 58.6176 87.8333 57.9055C87.8172 56.8869 87.8172 56.8869 87.8008 55.8477C87.8171 55.1891 87.8333 54.5306 87.8501 53.8521C87.9243 52.9353 87.9243 52.9353 88 52C88.2204 51.0087 88.4409 50.0174 88.668 48.9961C88.9838 48.1518 89.2996 47.3074 89.625 46.4375C90.004 45.6692 90.383 44.9009 90.7734 44.1094C91.1782 43.4133 91.583 42.7172 92 42C92.3635 41.3452 92.727 40.6903 93.1016 40.0156C93.4805 39.4123 93.8595 38.8091 94.25 38.1875C94.6664 37.6384 95.0827 37.0892 95.5117 36.5234C96.2484 35.7693 96.2484 35.7693 97 35C97.6458 34.5385 98.2916 34.077 98.957 33.6016C99.6518 33.1762 100.347 32.7508 101.062 32.3125C101.752 31.9219 102.442 31.5313 103.152 31.1289C104.067 30.5701 104.067 30.5701 105 30C105.701 29.2575 106.402 28.515 107.125 27.75C107.744 27.1725 108.363 26.595 109 26C110.031 25.7319 111.062 25.4638 112.125 25.1875C113.548 25.0947 113.548 25.0947 115 25C115.66 25.33 116.32 25.66 117 26C117.103 25.4225 117.206 24.845 117.312 24.25C117.539 23.5075 117.766 22.765 118 22C118.433 21.2163 118.866 20.4325 119.312 19.625C119.869 19.0888 120.426 18.5525 121 18ZM107 38C106.275 38.437 106.275 38.437 105.535 38.8828C105.049 39.2927 104.563 39.7027 104.062 40.125C103.285 40.8114 103.285 40.8114 102.492 41.5117C102 42.0029 101.507 42.494 101 43C100.59 43.4808 100.18 43.9616 99.7578 44.457C99.228 45.1899 99.228 45.1899 98.6875 45.9375C98.1306 46.9481 97.5738 47.9588 97 49C96.8079 49.9204 96.6159 50.8408 96.418 51.7891C96.28 52.8487 96.1421 53.9083 96 55C95.9098 56.0506 95.8195 57.1012 95.7266 58.1836C95.693 59.2574 95.6595 60.3312 95.625 61.4375C95.634 62.5641 95.643 63.6908 95.6523 64.8516C95.7671 65.8905 95.8818 66.9295 96 68C96.3107 68.7915 96.6213 69.583 96.9414 70.3984C97.3526 71.0301 97.7638 71.6617 98.1875 72.3125C98.6438 72.8294 99.1002 73.3463 99.5703 73.8789C100.042 74.2489 100.514 74.6188 101 75C101.846 75.2475 102.691 75.495 103.562 75.75C104.367 75.5025 105.171 75.255 106 75C106.642 74.3207 107.284 73.6413 107.945 72.9414C108.289 72.4901 108.632 72.0387 108.986 71.5737C109.488 70.7947 109.488 70.7947 110 70C110.297 69.4123 110.593 68.8247 110.899 68.2192C111.176 67.5836 111.453 66.9479 111.738 66.293C112.001 65.6233 112.263 64.9536 112.533 64.2637C112.79 63.5785 113.048 62.8934 113.312 62.1875C113.589 61.514 113.866 60.8404 114.15 60.1465C114.406 59.4729 114.662 58.7994 114.926 58.1055C115.247 57.094 115.247 57.094 115.575 56.062C115.785 55.0413 115.785 55.0413 116 54C116.009 53.295 116.017 52.5901 116.026 51.8638C115.957 51.1727 115.888 50.4816 115.816 49.7695C115.642 48.784 115.642 48.784 115.465 47.7786C115.311 47.1916 115.158 46.6047 115 46C114.462 44.747 114.462 44.747 113.914 43.4688C113.489 42.8191 113.063 42.1694 112.625 41.5C111.995 40.4945 111.995 40.4945 111.352 39.4688C110.906 38.9841 110.46 38.4994 110 38C109.01 38 108.02 38 107 38ZM100 90C99.2975 90.8456 98.5949 91.6913 97.8711 92.5625C97.2781 93.3814 97.2781 93.3814 96.6731 94.2168C96.0615 95.0995 96.0615 95.0995 95.4375 96C94.823 96.8904 94.823 96.8904 94.196 97.7988C93.8039 98.3912 93.4118 98.9835 93.0078 99.5938C92.6446 100.179 92.2814 100.764 91.9072 101.367C91.6078 101.906 91.3085 102.445 91 103C90.7087 103.815 90.4173 104.629 90.1172 105.469C90.0166 106.139 89.9161 106.809 89.8125 107.5C89.797 108.43 89.797 108.43 89.7812 109.379C89.8534 109.914 89.9256 110.449 90 111C90.2681 111.804 90.5362 112.609 90.8125 113.438C91.2044 114.283 91.5962 115.129 92 116C92.1689 116.737 92.3377 117.475 92.5117 118.234C92.6729 119.044 92.834 119.853 93 120.688C93.2166 121.838 93.2166 121.838 93.4375 123.012C93.6231 123.668 93.8088 124.324 94 125C94.66 125.66 95.32 126.32 96 127C97.3922 126.969 97.3922 126.969 98.8125 126.938C99.8644 126.628 100.916 126.319 102 126C102.461 125.643 102.923 125.286 103.398 124.918C104.037 124.278 104.037 124.278 104.688 123.625C105.451 122.759 106.214 121.892 107 121C107.518 120.537 108.036 120.074 108.57 119.598C109.042 119.07 109.514 118.543 110 118C110.241 117.346 110.482 116.693 110.73 116.02C110.881 115.291 111.032 114.563 111.188 113.812C111.338 113.016 111.489 112.219 111.645 111.398C111.762 110.607 111.879 109.815 112 109C112.086 108.312 112.173 107.623 112.262 106.914C112.299 106.262 112.336 105.61 112.375 104.938C112.354 104.293 112.334 103.648 112.312 102.984C112.209 102.33 112.106 101.675 112 101C111.66 99.9249 111.66 99.9249 111.312 98.8281C110.848 97.7685 110.848 97.7685 110.375 96.6875C110.014 96.0314 109.653 95.3752 109.281 94.6992C108.858 94.1385 108.436 93.5777 108 93C107.495 92.6146 106.989 92.2291 106.469 91.832C105.943 91.5575 105.417 91.2829 104.875 91C103.926 90.67 102.978 90.34 102 90C101.34 90 100.68 90 100 90Z" fill="black"/>
</g>
<defs>
<clipPath id="clip0_7_859">
<rect width="456" height="2405" fill="white" transform="translate(-304 -2241)"/>
</clipPath>
</defs>
</svg>
