<svg width="152" height="203" viewBox="0 0 152 203" fill="none" xmlns="http://www.w3.org/2000/svg">
<g clip-path="url(#clip0_7_859)">
<path d="M91 17C91.7631 17.2681 92.5263 17.5362 93.3125 17.8125C94.1994 18.2044 95.0863 18.5962 96 19C96.5128 19.4152 97.0256 19.8303 97.554 20.2581C98.0311 20.8329 98.5083 21.4077 99 22C99.3244 22.765 99.6489 23.53 99.9832 24.3181C100.261 25.2225 100.538 26.1268 100.824 27.0586C101.131 28.075 101.438 29.0914 101.754 30.1387C102.062 31.2273 102.37 32.3159 102.688 33.4375C102.845 33.9927 103.003 34.5479 103.165 35.1199C103.321 35.6804 103.477 36.2409 103.638 36.8184C103.79 37.3827 103.941 37.947 104.097 38.5285C104.316 39.3787 104.316 39.3787 104.539 40.2461C104.679 40.8162 104.818 41.3863 104.962 41.9737C105.091 42.5391 105.22 43.1045 105.353 43.687C105.566 44.7803 105.78 45.8736 106 47C106.116 47.9863 106.231 48.9726 106.351 49.9888C106.408 50.9116 106.465 51.8344 106.523 52.7852C106.543 53.6695 106.563 54.5539 106.583 55.4651C106.576 56.3016 106.57 57.1381 106.562 58C106.552 58.7804 106.542 59.5609 106.532 60.365C106.502 61.1108 106.472 61.8566 106.441 62.625C106.382 63.3474 106.323 64.0697 106.262 64.814C106.176 65.5354 106.089 66.2567 106 67C105.887 67.7588 105.774 68.5175 105.658 69.2993C105.513 70.0591 105.368 70.8188 105.219 71.6016C105.041 72.3431 104.863 73.0846 104.68 73.8486C104.343 74.9136 104.343 74.9136 104 76C103.704 76.6507 103.408 77.3013 103.103 77.9717C102.769 78.5869 102.434 79.2021 102.09 79.8359C101.74 80.425 101.39 81.0141 101.029 81.6211C100.669 82.1999 100.309 82.7787 99.9375 83.375C99.5733 83.977 99.2092 84.579 98.834 85.1992C98.4853 85.7806 98.1366 86.362 97.7773 86.9609C97.4602 87.4745 97.143 87.988 96.8162 88.5171C96.5468 89.0065 96.2775 89.4958 96 90C95.505 91.485 95.505 91.485 95 93C95.1727 93.6046 95.3455 94.2091 95.5234 94.832C95.8045 95.4856 96.0855 96.1391 96.375 96.8125C96.6509 97.4583 96.9267 98.1041 97.2109 98.7695C97.6015 99.8736 97.6015 99.8736 98 101C98.1882 101.945 98.3764 102.89 98.5703 103.863C98.7121 104.898 98.8539 105.934 99 107C99.1134 108.039 99.2269 109.078 99.3438 110.148C99.4211 111.746 99.4211 111.746 99.5 113.375C99.4897 114.506 99.4794 115.636 99.4688 116.801C99.3141 117.857 99.1594 118.912 99 120C98.5772 120.819 98.1544 121.637 97.7188 122.48C96.868 123.511 96.868 123.511 96 124.562C95.3619 125.176 94.7238 125.79 94.0664 126.422C93.0435 127.203 93.0435 127.203 92 128C91.3284 128.418 90.6568 128.835 89.9648 129.266C89.2958 129.611 88.6268 129.957 87.9375 130.312C87.2749 130.609 86.6123 130.905 85.9297 131.211C84.9745 131.602 84.9745 131.602 84 132C83.4045 132.24 82.8089 132.48 82.1953 132.727C81.6565 132.961 81.1177 133.196 80.5625 133.438C79.7169 133.953 78.8712 134.469 78 135C77.7628 135.737 77.5256 136.475 77.2812 137.234C77.142 138.603 77.142 138.603 77 140C77.1121 140.955 77.2243 141.91 77.3398 142.895C77.5371 143.857 77.7343 144.82 77.9375 145.812C78.1321 146.788 78.3268 147.764 78.5273 148.77C78.6833 149.506 78.8393 150.242 79 151C80.5159 150.567 80.5159 150.567 82.0625 150.125C82.7792 149.946 83.4959 149.767 84.2344 149.582C85.6034 149.294 85.6034 149.294 87 149C87.5949 148.899 88.1898 148.797 88.8027 148.693C89.4505 148.592 90.0982 148.491 90.7656 148.387C91.4307 148.291 92.0958 148.194 92.781 148.095C93.4514 148.002 94.1218 147.909 94.8125 147.812C95.4706 147.717 96.1288 147.621 96.8069 147.522C97.7475 147.397 97.7475 147.397 98.707 147.27C99.7937 147.181 100.88 147.092 102 147C102.99 147.33 103.98 147.66 105 148C104.979 148.598 104.959 149.196 104.938 149.812C104.628 150.534 104.319 151.256 104 152C102.478 152.764 102.478 152.764 100.926 153.543C100.294 153.798 99.6627 154.053 99.012 154.315C98.016 154.654 98.016 154.654 97 155C96.3625 155.156 95.725 155.311 95.0681 155.472C94.432 155.595 93.796 155.717 93.1406 155.844C92.1796 156.012 92.1796 156.012 91.1992 156.184C90.556 156.288 89.9127 156.392 89.25 156.5C88.5913 156.604 87.9326 156.709 87.2539 156.816C86.6184 156.929 85.9829 157.041 85.3281 157.156C83.6807 157.574 83.6807 157.574 82 158C81.0448 158.684 81.0448 158.684 80.0703 159.383C79.7171 159.916 79.3639 160.45 79 161C78.8762 162.114 78.7525 163.227 78.625 164.375C78.6482 164.985 78.6714 165.594 78.6953 166.223C78.8461 167.102 78.8461 167.102 79 168C79.7425 169.392 79.7425 169.392 80.5 170.812C80.995 171.534 81.49 172.256 82 173C82 173.66 82 174.32 82 175C82.834 175.046 83.668 175.093 84.5273 175.141C85.6527 175.177 86.778 175.213 87.9375 175.25C88.5278 175.259 89.1181 175.268 89.7263 175.277C90.6159 175.267 90.6159 175.267 91.5234 175.258C93.2443 175.13 93.2443 175.13 95 175C95.8998 174.729 96.7995 174.459 97.7266 174.18C98.8829 173.658 98.8829 173.658 100.062 173.125C101.07 172.603 101.07 172.603 102.098 172.07C103.039 171.541 103.039 171.541 104 171C104.721 170.606 105.441 170.211 106.184 169.805C106.783 169.539 107.382 169.274 108 169C108.33 169.33 108.66 169.66 109 170C109.115 170.77 109.229 171.539 109.348 172.332C109.233 173.212 109.118 174.093 109 175C108.039 175.965 108.039 175.965 107.059 176.949C105.761 177.81 105.761 177.81 104.438 178.688C103.52 179.279 102.602 179.871 101.656 180.48C100.78 180.982 99.9031 181.483 99 182C98.0564 182.458 98.0564 182.458 97.0938 182.926C96.5472 183.115 96.0006 183.305 95.4375 183.5C94.3031 183.665 93.1688 183.83 92 184C91.2678 184.008 90.5356 184.015 89.7812 184.023C88.6211 183.95 88.6211 183.95 87.4375 183.875C86.2986 183.705 86.2986 183.705 85.1367 183.531C84.4316 183.356 83.7265 183.181 83 183C82.1434 182.644 82.1434 182.644 81.2695 182.281C80.7681 181.982 80.2666 181.683 79.75 181.375C79.2859 181.015 78.8219 180.656 78.3438 180.285C77.9003 179.861 77.4569 179.437 77 179C76.5359 178.504 76.0719 178.007 75.5938 177.496C75.1503 176.941 74.7069 176.385 74.25 175.812C73.8401 175.22 73.4302 174.627 73.0078 174.016C72.5089 173.018 72.5089 173.018 72 172C71.8324 171.19 71.6648 170.381 71.4922 169.547C71.371 168.727 71.2498 167.907 71.125 167.062C70.922 165.926 70.922 165.926 70.7148 164.766C70.4789 164.183 70.243 163.6 70 163C68.3603 162.66 68.3603 162.66 66.6875 162.312C66.07 162.395 65.4526 162.477 64.8164 162.562C64.217 162.707 63.6176 162.851 63 163C61.5769 163.402 61.5769 163.402 60.125 163.812C59.4237 164.204 58.7225 164.596 58 165C57.67 165.99 57.34 166.98 57 168C56.5269 168.491 56.0538 168.982 55.5664 169.488C54.791 170.237 54.791 170.237 54 171C53.4876 171.764 53.4876 171.764 52.9648 172.543C52.6258 173.086 52.2868 173.628 51.9375 174.188C51.5173 174.792 51.097 175.397 50.6641 176.02C50.1149 176.673 49.5658 177.327 49 178C47.7741 179.089 47.7741 179.089 46.5234 180.199C45.6288 180.917 44.7342 181.635 43.8125 182.375C42.9527 183.043 42.0929 183.71 41.207 184.398C40.4787 184.927 39.7504 185.455 39 186C38.34 186.33 37.68 186.66 37 187C36.4534 187.079 35.9069 187.157 35.3438 187.238C34.7353 187.263 34.1269 187.287 33.5 187.312C32.5873 187.369 32.5873 187.369 31.6562 187.426C30.8364 187.215 30.8364 187.215 30 187C29.3967 186 29.3967 186 28.7812 184.98C28.5234 184.327 28.2656 183.673 28 183C28.5917 182.697 29.1834 182.394 29.793 182.082C30.5832 181.663 31.3734 181.244 32.1875 180.812C33.0099 180.355 33.8323 179.897 34.6797 179.426C35.4454 178.955 36.2111 178.485 37 178C37.5182 177.581 38.0364 177.162 38.5703 176.73C38.9802 176.324 39.3902 175.918 39.8125 175.5C40.5344 174.675 41.2563 173.85 42 173C42.3803 172.553 42.7605 172.105 43.1523 171.645C43.6957 170.985 43.6957 170.985 44.25 170.312C44.8275 169.549 45.405 168.786 46 168C46.33 167.34 46.66 166.68 47 166C46.039 166.217 46.039 166.217 45.0586 166.438C44.1936 166.623 43.3287 166.809 42.4375 167C41.0762 167.267 41.0762 167.267 39.6875 167.539C38.8006 167.691 37.9137 167.843 37 168C35.9172 168.135 35.9172 168.135 34.8125 168.273C34.1938 168.307 33.575 168.34 32.9375 168.375C31.4834 168.189 31.4834 168.189 30 168C29.7744 167.332 29.5488 166.665 29.3164 165.977C29.212 165.324 29.1076 164.672 29 164C29.7113 163.727 29.7113 163.727 30.437 163.449C31.4234 163.072 31.4234 163.072 32.4297 162.688C33.1425 162.417 33.8554 162.146 34.5898 161.867C35.3439 161.581 36.098 161.295 36.875 161C37.6214 160.714 38.3677 160.428 39.1367 160.133C39.8521 159.862 40.5676 159.591 41.3047 159.312C42.2944 158.935 42.2944 158.935 43.3042 158.551C44.1436 158.278 44.1436 158.278 45 158C45.66 158 46.32 158 47 158C46.2163 157.196 45.4325 156.391 44.625 155.562C44.1841 155.11 43.7433 154.658 43.2891 154.191C42.651 153.602 42.651 153.602 42 153C41.34 152.67 40.68 152.34 40 152C39.3207 151.919 38.6413 151.838 37.9414 151.754C36.7638 151.659 36.7638 151.659 35.5625 151.562C34.78 151.502 33.9976 151.441 33.1914 151.379C32.4682 151.254 31.7451 151.129 31 151C30.4109 150.7 29.8218 150.399 29.2148 150.09C28.8139 149.73 28.413 149.371 28 149C28 148.34 28 147.68 28 147C28.66 146.67 29.32 146.34 30 146C30.5585 145.942 31.117 145.883 31.6924 145.823C32.3559 145.803 33.0195 145.783 33.7031 145.762C34.8033 145.739 34.8033 145.739 35.9258 145.717C37.0763 145.702 37.0763 145.702 38.25 145.688C39.0015 145.658 39.753 145.629 40.5273 145.6C41.266 145.591 42.0046 145.583 42.7656 145.574C43.8475 145.625 43.8475 145.625 44.9512 145.677C45.9653 145.837 45.9653 145.837 47 146C47.5988 146.232 48.1975 146.463 48.8145 146.702C49.3449 147.013 49.8754 147.324 50.4219 147.645C51.2727 148.422 52.1234 149.199 53 150C53.4007 150.792 53.4007 150.792 53.8096 151.6C53.9962 152.145 54.1828 152.689 54.375 153.25C54.5812 154.158 54.7875 155.065 55 156C56.6242 155.671 56.6242 155.671 58.2812 155.336C58.958 155.183 59.6348 155.029 60.332 154.871C61.0475 154.707 61.7629 154.544 62.5 154.375C63.2154 154.234 63.9309 154.094 64.668 153.949C65.6831 153.708 65.6831 153.708 66.7188 153.461C67.336 153.261 67.9532 153.06 68.5891 152.854C69.0547 152.572 69.5203 152.29 70 152C70.1792 151.046 70.3584 150.092 70.543 149.109C70.3638 148.083 70.1846 147.057 70 146C69.8621 145.276 69.7241 144.551 69.582 143.805C69.3281 143.168 69.0741 142.531 68.8125 141.875C68.273 140.856 68.273 140.856 67.7227 139.816C67.1542 139.217 66.5857 138.618 66 138C65.05 137.597 64.0999 137.193 63.1211 136.777C62.3055 136.529 62.3055 136.529 61.4734 136.275C60.9047 136.122 60.336 135.97 59.75 135.812C59.1729 135.662 58.5958 135.512 58.0012 135.358C57.4285 135.21 56.8557 135.062 56.2656 134.91C55.188 134.61 54.1103 134.309 53 134C51.7857 133.472 51.7857 133.472 50.5469 132.934C49.8714 132.543 49.1959 132.152 48.5 131.75C47.8929 131.334 47.2857 130.917 46.6602 130.488C46.1123 129.997 45.5645 129.506 45 129C44.4625 128.354 43.9249 127.708 43.3711 127.043C42.898 126.348 42.4249 125.653 41.9375 124.938C41.534 124.287 41.1305 123.636 40.7148 122.965C40.4789 122.316 40.243 121.668 40 121C40.125 120.383 40.2501 119.765 40.3789 119.129C40.5839 118.426 40.7888 117.724 41 117C40.8975 115.701 40.8975 115.701 40.793 114.375C40.8613 113.261 40.9296 112.148 41 111C41.2728 110.255 41.5456 109.51 41.8267 108.742C42.3707 107.509 42.3707 107.509 42.9258 106.25C43.3093 105.394 43.6928 104.538 44.0879 103.656C44.492 102.78 44.8961 101.903 45.3125 101C45.736 100.123 46.1594 99.2469 46.5957 98.3438C47.1613 97.0598 47.1613 97.0598 47.7383 95.75C48.0407 94.9147 48.3432 94.0794 48.6548 93.2188C48.7687 92.4866 48.8826 91.7544 49 91C48.2923 90.0925 47.5846 89.185 46.8555 88.25C46.3668 87.7753 45.8782 87.3006 45.3748 86.8115C44.9211 86.2137 44.4674 85.6159 44 85C43.6124 83.7359 43.6124 83.7359 43.217 82.4463C43.0474 81.3967 42.8779 80.3471 42.7031 79.2656C42.6298 78.6813 42.5565 78.097 42.4809 77.4949C42.385 76.5335 42.385 76.5335 42.2871 75.5527C42.2087 74.493 42.2087 74.493 42.1287 73.4119C42.0862 72.6159 42.0437 71.82 42 71C41.9666 70.0713 41.9331 69.1426 41.8987 68.1858C41.8735 67.1738 41.8482 66.1618 41.8223 65.1191C41.8043 64.0539 41.7863 62.9886 41.7677 61.891C41.7512 60.2357 41.7512 60.2357 41.7344 58.5469C41.7308 57.432 41.7272 56.3172 41.7235 55.1686C41.7245 54.0366 41.7255 52.9046 41.7266 51.7383C41.7308 50.5918 41.7349 49.4454 41.7393 48.2642C41.7415 47.6865 41.7438 47.1088 41.7461 46.5136C41.7474 45.9316 41.7487 45.3496 41.75 44.75C41.7487 44.1603 41.7474 43.5705 41.7461 42.963C41.7438 42.3717 41.7416 41.7805 41.7393 41.1714C41.7369 40.5827 41.7345 39.9941 41.7321 39.3876C41.7294 38.5132 41.7294 38.5132 41.7266 37.6211C41.7272 36.4857 41.7279 35.3503 41.7286 34.1805C41.7314 32.5365 41.7314 32.5365 41.7344 30.8594C41.7303 29.7981 41.7263 28.7367 41.7221 27.6432C41.7316 26.1797 41.7316 26.1797 41.7412 24.6865C41.7436 23.3975 41.7436 23.3975 41.746 22.0825C41.8717 21.0516 41.8717 21.0516 42 20C42.66 19.34 43.32 18.68 44 18C44.6394 18.4331 45.2788 18.8663 45.9375 19.3125C46.9584 20.1478 46.9584 20.1478 48 21C48.33 21.99 48.66 22.98 49 24C49.1016 24.9411 49.1016 24.9411 49.2053 25.9011C49.242 26.5976 49.2786 27.2941 49.3164 28.0117C49.3583 28.769 49.4002 29.5264 49.4434 30.3066C49.4827 31.0923 49.522 31.878 49.5625 32.6875C49.6057 33.4848 49.6489 34.2821 49.6934 35.1035C49.734 35.857 49.7746 36.6104 49.8164 37.3867C49.8697 38.4264 49.8697 38.4264 49.9241 39.4871C49.9491 39.9863 49.9742 40.4856 50 41C50.941 40.3851 51.882 39.7702 52.8516 39.1367C53.6455 38.6179 53.6455 38.6179 54.4556 38.0886C54.9652 37.7294 55.4749 37.3701 56 37C57.1756 35.9172 57.1756 35.9172 58.375 34.8125C59.6744 33.9153 59.6744 33.9153 61 33C61.6896 32.844 62.3793 32.688 63.0898 32.5273C63.8233 32.4358 64.5568 32.3443 65.3125 32.25C66.0099 32.1933 66.7073 32.1366 67.4258 32.0781C67.9453 32.0523 68.4648 32.0266 69 32C68.9032 32.603 68.8065 33.2061 68.7068 33.8274C68.3569 34.9028 68.3569 34.9028 68 36C67.5186 36.4778 67.0372 36.9557 66.5413 37.448C65.9308 37.8815 65.3204 38.3151 64.6914 38.7617C64.0269 39.2406 63.3624 39.7195 62.6777 40.2129C61.9797 40.6995 61.2817 41.1861 60.5625 41.6875C59.8683 42.1857 59.1742 42.6839 58.459 43.1973C57.7932 43.6723 57.1274 44.1473 56.4414 44.6367C55.8298 45.0669 55.2182 45.497 54.5881 45.9402C54.0641 46.2899 53.54 46.6397 53 47C52.34 47.33 51.68 47.66 51 48C50.8634 49.0429 50.7267 50.0857 50.5859 51.1602C50.5473 51.7886 50.5086 52.417 50.4688 53.0645C50.4223 54.0535 50.4223 54.0535 50.375 55.0625C50.3363 55.7257 50.2977 56.3889 50.2578 57.0723C50.2217 57.6994 50.1856 58.3265 50.1484 58.9727C50.0995 59.9717 50.0505 60.9707 50 62C50.4473 61.7461 50.8946 61.4921 51.3555 61.2305C51.96 60.8863 52.5646 60.5421 53.1875 60.1875C54.1504 59.6442 54.1504 59.6442 55.1328 59.0898C56.0571 58.5504 56.0571 58.5504 57 58C57.8456 57.4225 58.6913 56.845 59.5625 56.25C60.3669 55.8375 61.1712 55.425 62 55C63.0931 54.9381 64.1862 54.8762 65.3125 54.8125C66.1994 54.8744 67.0863 54.9363 68 55C68.1186 55.5543 68.2372 56.1086 68.3594 56.6797C68.2408 57.4454 68.1222 58.2111 68 59C67.65 59.4077 67.3 59.8153 66.9395 60.2354C66.4696 60.6553 65.9997 61.0752 65.5156 61.5078C64.9923 61.9371 64.4689 62.3663 63.9297 62.8086C63.3754 63.243 62.8211 63.6774 62.25 64.125C61.7112 64.5671 61.1723 65.0093 60.6172 65.4648C60.0887 65.8915 59.5602 66.3182 59.0156 66.7578C58.2412 67.3596 58.2412 67.3596 57.4512 67.9736C56.7328 68.4817 56.7328 68.4817 56 69C55.2317 69.3687 54.4634 69.7373 53.6719 70.1172C53.1202 70.4085 52.5684 70.6998 52 71C51.67 71.99 51.34 72.98 51 74C51.1495 74.7464 51.2991 75.4927 51.4531 76.2617C51.7161 77.0622 51.9791 77.8627 52.25 78.6875C52.5027 79.4957 52.7553 80.304 53.0156 81.1367C53.5029 82.059 53.5029 82.059 54 83C54.99 83 55.98 83 57 83C57.6768 82.3593 58.3535 81.7187 59.0508 81.0586C59.7971 80.1936 60.5435 79.3287 61.3125 78.4375C61.7062 77.9858 62.1 77.5342 62.5056 77.0688C62.9008 76.6143 63.296 76.1597 63.7031 75.6914C64.0918 75.2365 64.4804 74.7817 64.8809 74.313C65.2502 73.8797 65.6195 73.4464 66 73C66.6342 72.2665 67.2684 71.533 67.9219 70.7773C68.4633 70.1496 69.0047 69.5218 69.5625 68.875C70.0382 68.3155 70.5138 67.7561 71.0039 67.1797C71.3326 66.7904 71.6613 66.4011 72 66C72.4009 66.3055 72.8018 66.611 73.2148 66.9258C73.7833 67.3834 74.3518 67.841 74.9375 68.3125C75.5704 68.8475 76.2034 69.3824 76.8555 69.9336C77.5632 70.6155 78.2709 71.2974 79 72C79.3849 72.45 79.7699 72.9001 80.1665 73.3638C80.5614 73.8535 80.9564 74.3431 81.3633 74.8477C81.958 75.5944 81.958 75.5944 82.5647 76.3562C82.9558 76.8574 83.347 77.3586 83.75 77.875C84.1263 78.3756 84.5027 78.8761 84.8904 79.3918C85.2514 79.8581 85.6124 80.3243 85.9844 80.8047C86.6495 81.5291 87.3147 82.2536 88 83C88.99 83 89.98 83 91 83C91.4808 82.2291 91.9616 81.4583 92.457 80.6641C92.9043 79.6612 93.3516 78.6583 93.8125 77.625C94.2727 76.6273 94.7329 75.6295 95.207 74.6016C95.4687 73.743 95.7304 72.8845 96 72C95.34 71.34 94.68 70.68 94 70C93.0925 69.5669 92.185 69.1337 91.25 68.6875C90.7202 68.4258 90.1904 68.1641 89.6445 67.8945C89.1018 67.5993 88.5591 67.3041 88 67C87.4882 66.6739 86.9765 66.3477 86.4492 66.0117C85.9504 65.6366 85.4515 65.2615 84.9375 64.875C84.4502 64.4522 83.963 64.0294 83.4609 63.5938C82.9788 63.0678 82.4967 62.5419 82 62C81.4973 61.2678 80.9945 60.5356 80.4766 59.7812C80.0099 58.9872 79.5433 58.1931 79.0625 57.375C78.641 56.6196 78.2195 55.8642 77.7852 55.0859C77.5261 54.3976 77.267 53.7092 77 53C77.33 52.01 77.66 51.02 78 50C78.6806 50.3713 79.3612 50.7425 80.0625 51.125C81.0319 51.7437 82.0013 52.3625 83 53C83.5311 53.4718 84.0622 53.9436 84.6094 54.4297C85.1714 54.9479 85.7334 55.4661 86.3125 56C87.1904 56.7773 87.1904 56.7773 88.0859 57.5703C88.7176 58.0421 89.3492 58.5139 90 59C91.1021 59.5221 91.1021 59.5221 92.2266 60.0547C92.9562 60.3254 93.6858 60.5961 94.4375 60.875C95.4565 61.2114 95.4565 61.2114 96.4961 61.5547C96.9924 61.7016 97.4887 61.8486 98 62C97.9961 60.7354 97.9961 60.7354 97.9922 59.4453C97.9535 58.3496 97.9148 57.2539 97.875 56.125C97.7835 55.0241 97.692 53.9233 97.5977 52.7891C97.4004 51.8687 97.2032 50.9483 97 50C96.1131 49.505 95.2262 49.01 94.3125 48.5C93.2194 48.335 92.1263 48.17 91 48C90.0512 47.505 89.1025 47.01 88.125 46.5C87.396 45.9915 87.396 45.9915 86.6523 45.4727C86.1071 44.9867 85.5618 44.5007 85 44C84.3 43.215 83.6001 42.4299 82.8789 41.6211C82.1557 40.7355 81.4326 39.8499 80.6875 38.9375C80.0107 38.0803 79.334 37.223 78.6367 36.3398C78.0966 35.5677 77.5565 34.7955 77 34C76.505 32.515 76.505 32.515 76 31C76.66 30.67 77.32 30.34 78 30C78.6445 30.1263 79.2891 30.2527 79.9531 30.3828C80.7111 30.6277 81.4691 30.8727 82.25 31.125C83.0518 31.4034 83.8536 31.6819 84.6797 31.9688C85.4454 32.3091 86.2111 32.6494 87 33C87.6007 33.4228 88.2014 33.8456 88.8203 34.2812C89.3334 34.7247 89.8464 35.1681 90.375 35.625C90.8159 36.0504 91.2567 36.4758 91.7109 36.9141C92.1363 37.2724 92.5617 37.6308 93 38C94.485 38.495 94.485 38.495 96 39C95.8066 38.2034 95.6133 37.4067 95.4141 36.5859C95.0235 34.9965 95.0235 34.9965 94.625 33.375C94.353 32.2793 94.081 31.1836 93.8008 30.0547C93.5365 29.0466 93.2723 28.0386 93 27C92.7873 26.3426 92.5746 25.6852 92.3555 25.0078C92.1763 24.5102 91.9971 24.0127 91.8125 23.5C91.5444 22.675 91.2763 21.85 91 21C90.9587 20.2163 90.9175 19.4325 90.875 18.625C90.9163 18.0888 90.9575 17.5525 91 17ZM73 81C72.225 81.3589 72.225 81.3589 71.4343 81.7251C70.8927 82.1175 70.351 82.5098 69.793 82.9141C68.9142 83.5618 68.9142 83.5618 68.0176 84.2227C67.4137 84.6854 66.8097 85.1482 66.1875 85.625C65.5642 86.0646 64.941 86.5041 64.2988 86.957C63.4297 87.6164 63.4297 87.6164 62.543 88.2891C61.7883 88.9622 61.7883 88.9622 61.0183 89.6489C60.5142 90.3177 60.5142 90.3177 60 91C60.1341 91.8559 60.2681 92.7119 60.4062 93.5938C60.9322 94.3878 61.4581 95.1819 62 96C62.5118 96.678 63.0235 97.3561 63.5508 98.0547C64.1321 98.6554 64.7135 99.2561 65.3125 99.875C66.1729 100.799 66.1729 100.799 67.0508 101.742C68.0156 102.365 68.0156 102.365 69 103C70.2008 102.965 70.2008 102.965 71.4258 102.93C72.2753 102.623 73.1248 102.316 74 102C75.2336 101.172 75.2336 101.172 76.4922 100.328C77.2785 99.6423 78.0648 98.9566 78.875 98.25C79.6768 97.5745 80.4786 96.8991 81.3047 96.2031C81.8641 95.4761 82.4236 94.7491 83 94C82.9794 93.1647 82.9588 92.3294 82.9375 91.4688C82.4734 90.2467 82.4734 90.2467 82 89C81.5695 88.3452 81.1389 87.6903 80.6953 87.0156C80.1771 86.433 79.6589 85.8503 79.125 85.25C78.612 84.657 78.0989 84.0641 77.5703 83.4531C76.793 82.7338 76.793 82.7338 76 82C75.01 81.67 74.02 81.34 73 81ZM55 90C55.99 91.485 55.99 91.485 57 93C57 92.01 57 91.02 57 90C56.34 90 55.68 90 55 90ZM52 99C51.505 100.423 51.505 100.423 51 101.875C50.7254 102.817 50.7254 102.817 50.4453 103.777C50.2984 104.511 50.1514 105.244 50 106C49.9562 106.888 49.9123 107.776 49.8672 108.691C49.8698 109.598 49.8723 110.504 49.875 111.438C49.893 112.302 49.9111 113.167 49.9297 114.059C49.9529 114.699 49.9761 115.34 50 116C50.7013 115.897 51.4025 115.794 52.125 115.688C53.0738 115.461 54.0225 115.234 55 115C56.0725 114.588 57.145 114.175 58.25 113.75C59.1575 113.173 60.065 112.595 61 112C61.4125 111.257 61.825 110.515 62.25 109.75C62.1675 108.842 62.085 107.935 62 107C61.4296 106.087 61.4296 106.087 60.8477 105.156C60.3411 104.527 59.8345 103.898 59.3125 103.25C58.793 102.657 58.2735 102.064 57.7383 101.453C57.1646 100.974 56.591 100.494 56 100C55.2717 99.768 54.5434 99.5359 53.793 99.2969C53.2013 99.1989 52.6096 99.1009 52 99ZM86 102C85.2588 102.383 84.5176 102.766 83.7539 103.16C83.0307 103.788 82.3076 104.416 81.5625 105.062C80.5242 106.049 80.5242 106.049 79.4648 107.055C78.7397 108.018 78.7397 108.018 78 109C78.2062 109.887 78.4125 110.774 78.625 111.688C79.8006 112.832 79.8006 112.832 81 114C81.4821 114.394 81.9642 114.789 82.4609 115.195C83.2228 115.748 83.2228 115.748 84 116.312C84.99 116.869 85.98 117.426 87 118C87.99 118 88.98 118 90 118C90.0464 117.013 90.0928 116.025 90.1406 115.008C90.1587 114.385 90.1767 113.763 90.1953 113.121C90.2134 112.462 90.2314 111.804 90.25 111.125C90.2835 110.474 90.317 109.823 90.3516 109.152C90.3645 108.527 90.3773 107.902 90.3906 107.258C90.2617 106.183 90.1328 105.108 90 104C89.4264 103.46 88.8527 102.92 88.2617 102.363C87.1422 102.183 87.1422 102.183 86 102ZM67 117C66.0654 117.459 65.1309 117.918 64.168 118.391C63.6801 118.688 63.1921 118.986 62.6895 119.293C62.1938 119.609 61.6982 119.925 61.1875 120.25C60.415 120.701 60.415 120.701 59.627 121.16C59.1455 121.463 58.664 121.766 58.168 122.078C57.4525 122.712 56.7371 123.347 56 124C55.9549 124.717 55.9098 125.433 55.8633 126.172C56.2384 126.775 56.6135 127.378 57 128C58.1041 128.364 58.1041 128.364 59.2305 128.734C60.1444 128.822 61.0584 128.91 62 129C62.8624 129.067 63.7248 129.134 64.6133 129.203C65.504 129.219 66.3948 129.234 67.3125 129.25C68.2651 129.241 69.2177 129.232 70.1992 129.223C71.5856 129.112 71.5856 129.112 73 129C73.8108 128.813 74.6216 128.626 75.457 128.434C76.1725 128.187 76.8879 127.941 77.625 127.688C78.2566 127.444 78.8883 127.2 79.5391 126.949C80.0212 126.636 80.5033 126.323 81 126C81.33 125.01 81.66 124.02 82 123C81.2846 122.47 80.5691 121.94 79.832 121.395C78.8356 120.872 77.8391 120.35 76.8125 119.812C75.8289 119.283 74.8454 118.753 73.832 118.207C72.8975 117.809 71.9629 117.41 71 117C70.34 116.875 69.68 116.75 69 116.621C68.34 116.746 67.68 116.871 67 117Z" fill="black"/>
</g>
<defs>
<clipPath id="clip0_7_859">
<rect width="456" height="2405" fill="white" transform="translate(0 -1720)"/>
</clipPath>
</defs>
</svg>
