<svg width="152" height="172" viewBox="0 0 152 172" fill="none" xmlns="http://www.w3.org/2000/svg">
<g clip-path="url(#clip0_7_859)">
<path d="M71 6C72.5159 6.03094 72.5159 6.03094 74.0625 6.0625C74.7057 6.16305 75.349 6.26359 76.0117 6.36719C76.6679 6.57602 77.324 6.78484 78 7C78.5633 7.37383 79.1266 7.74766 79.707 8.13281C80.5327 8.90238 80.5327 8.90238 81.375 9.6875C81.9486 10.3179 82.5223 10.9482 83.1133 11.5977C83.7359 12.3904 84.3585 13.1832 85 14C85.5383 14.7384 85.5383 14.7384 86.0874 15.4917C86.6532 16.2982 86.6532 16.2982 87.2305 17.1211C87.8062 17.9714 87.8062 17.9714 88.3936 18.8389C88.7793 19.4283 89.1651 20.0177 89.5625 20.625C90.1315 21.5265 90.1315 21.5265 90.7119 22.4463C91.0841 23.0557 91.4563 23.6651 91.8398 24.293C92.3849 25.2141 92.3849 25.2141 92.9409 26.1538C93.2904 26.7631 93.6399 27.3723 94 28C94.3302 28.5925 94.6603 29.185 95.0005 29.7954C95.311 30.3747 95.6215 30.954 95.9414 31.5508C96.2288 32.1204 96.5162 32.69 96.8123 33.2769C97.0805 33.8249 97.3487 34.3729 97.625 34.9375C98.1123 35.9365 98.5995 36.9355 99.1016 37.9648C99.398 38.9664 99.6945 39.968 100 41C100.02 41.6158 100.041 42.2315 100.062 42.866C99.9808 43.8024 99.9808 43.8024 99.8984 44.7578C99.602 45.8277 99.3055 46.8977 99 48C98.1028 48.6013 98.1028 48.6013 97.1875 49.2148C96.4656 49.4533 95.7437 49.6918 95 49.9375C94.2807 50.3165 93.5614 50.6955 92.8203 51.0859C92.2196 51.7176 91.6189 52.3492 91 53C90.8334 53.5649 90.6668 54.1299 90.4951 54.7119C90.391 55.3767 90.2869 56.0416 90.1797 56.7266C90.1152 57.4318 90.0508 58.137 89.9844 58.8635C89.9483 59.5892 89.9122 60.3148 89.875 61.0625C89.8415 61.772 89.808 62.4816 89.7734 63.2126C89.7631 63.8966 89.7528 64.5805 89.7422 65.2852C89.74 66.2115 89.74 66.2115 89.7378 67.1565C89.8243 67.7649 89.9108 68.3732 90 69C90.3428 69.6446 90.6856 70.2892 91.0388 70.9534C91.356 71.6288 91.6732 72.3041 92 73C91.9944 73.6837 91.9889 74.3674 91.9832 75.0718C91.8688 75.8602 91.7545 76.6486 91.6367 77.4609C91.4731 78.9145 91.4731 78.9145 91.3062 80.3975C91.2513 80.957 91.1965 81.5166 91.1401 82.0931C91.0939 82.7224 91.0476 83.3517 91 84C90.9744 84.7311 90.9488 85.4622 90.9224 86.2155C90.9076 87.0109 90.8927 87.8064 90.8774 88.626C90.8678 89.463 90.8581 90.3 90.8482 91.1624C90.8428 92.0292 90.8375 92.896 90.832 93.7891C90.8282 94.6647 90.8244 95.5404 90.8205 96.4426C90.8185 97.3316 90.8165 98.2207 90.8145 99.1367C90.8145 100.037 90.8146 100.937 90.8147 101.865C90.814 102.776 90.8132 103.687 90.8125 104.625C90.8065 105.554 90.8004 106.482 90.7942 107.439C90.788 108.36 90.7818 109.281 90.7754 110.23C90.7739 111.122 90.7724 112.013 90.7709 112.932C90.7705 113.792 90.77 114.653 90.7695 115.539C90.7588 116.792 90.7588 116.792 90.7478 118.07C90.7524 119.218 90.7524 119.218 90.7571 120.389C90.7557 121.064 90.7542 121.74 90.7528 122.435C90.8344 122.952 90.9159 123.468 91 124C91.66 124.33 92.32 124.66 93 125C93.6045 125.042 94.209 125.083 94.8318 125.126C95.5563 125.131 96.2809 125.136 97.0273 125.141C98.2155 125.17 98.2155 125.17 99.4277 125.199C100.67 125.224 100.67 125.224 101.938 125.25C102.762 125.251 103.586 125.253 104.436 125.254C105.626 125.291 105.626 125.291 106.84 125.328C107.585 125.388 108.33 125.448 109.097 125.51C110.039 125.752 110.039 125.752 111 126C112.023 127.261 112.023 127.261 113.066 128.547C113.374 129.356 113.683 130.166 114 131C113.134 131.309 112.267 131.619 111.375 131.938C110.818 132.119 110.261 132.301 109.688 132.488C109.131 132.657 108.574 132.826 108 133C106.701 133.309 106.701 133.309 105.375 133.625C104.261 133.749 103.148 133.873 102 134C100.537 134.018 100.537 134.018 99.0454 134.037C97.9708 134.032 96.8962 134.028 95.7891 134.023C94.7058 134.02 93.6225 134.017 92.5063 134.013C91.6793 134.009 90.8522 134.004 90 134C90.0262 134.772 90.0524 135.544 90.0793 136.339C90.1112 137.409 90.143 138.479 90.1758 139.582C90.1876 140.152 90.1995 140.722 90.2117 141.309C90.2224 141.899 90.2331 142.488 90.2441 143.096C90.2542 143.706 90.2643 144.315 90.2747 144.944C90.2871 145.56 90.2996 146.177 90.3125 146.812C90.3339 147.424 90.3552 148.035 90.3772 148.665C90.3977 149.269 90.4183 149.872 90.4395 150.494C90.4485 151.085 90.4575 151.675 90.4668 152.284C90.4739 152.856 90.481 153.429 90.4883 154.02C90.5145 155.093 90.5406 156.167 90.5676 157.273C90.3803 158.173 90.193 159.073 90 160C89.1649 160.618 88.3299 161.237 87.4695 161.874C86.6546 162.245 85.8396 162.617 85 163C84.5076 162.406 84.0152 161.811 83.5078 161.199C83.2336 160.742 82.9593 160.285 82.6768 159.814C82.4534 159.215 82.2301 158.617 82 158C81.8854 156.791 81.8854 156.791 81.7686 155.557C81.7599 154.637 81.7512 153.717 81.7422 152.77C81.7564 151.802 81.7705 150.835 81.7852 149.838C81.8148 148.84 81.8445 147.841 81.875 146.812C81.8969 145.803 81.9188 144.793 81.9414 143.752C81.9582 142.788 81.9749 141.825 81.9922 140.832C82.0165 139.953 82.0408 139.073 82.0659 138.167C82.0333 137.094 82.0333 137.094 82 136C81.67 135.34 81.34 134.68 81 134C79.377 133.684 79.377 133.684 77.7212 133.362C77.0302 133.271 76.3393 133.181 75.6273 133.088C74.5008 132.954 74.5008 132.954 73.3516 132.816C72.1991 132.665 72.1991 132.665 71.0233 132.51C70.2293 132.406 69.4353 132.301 68.6172 132.193C67.3889 132.037 67.3889 132.037 66.1357 131.878C65.3072 131.774 64.4787 131.67 63.625 131.562C62.8 131.46 61.975 131.358 61.125 131.253C59.903 131.1 59.903 131.1 58.6562 130.943C57.8616 130.838 57.0669 130.734 56.2481 130.625C55.4779 130.523 54.7076 130.421 53.9141 130.316C53.1671 130.229 52.4201 130.141 51.6505 130.051C50.9533 129.957 50.256 129.864 49.5376 129.768C48.9061 129.659 48.2745 129.549 47.6238 129.437C46.82 129.221 46.82 129.221 46 129C45.3211 128.54 44.6423 128.079 43.9429 127.605C43.6317 127.076 43.3206 126.546 43 126C43.495 124.515 43.495 124.515 44 123C44.7348 122.776 45.4695 122.551 46.2266 122.32C47.1418 122.215 48.057 122.109 49 122C49.8534 121.956 50.7067 121.912 51.5859 121.867C52.5063 121.87 53.4267 121.872 54.375 121.875C55.4153 121.884 56.4555 121.893 57.5273 121.902C59.2463 121.951 59.2463 121.951 61 122C61.9593 122.043 61.9593 122.043 62.938 122.086C63.5991 122.121 64.2602 122.156 64.9414 122.191C65.9374 122.251 65.9374 122.251 66.9536 122.311C67.9356 122.374 67.9356 122.374 68.9375 122.438C69.877 122.496 69.877 122.496 70.8354 122.556C71.7348 122.619 71.7348 122.619 72.6523 122.684C73.7571 122.788 74.8618 122.892 76 123C77.65 123.33 79.3 123.66 81 124C81.33 119.71 81.66 115.42 82 111C80.35 110.67 78.7 110.34 77 110C75.2907 109.983 75.2907 109.983 73.5469 109.965C72.9316 109.964 72.3163 109.964 71.6824 109.964C71.0447 109.955 70.407 109.946 69.75 109.938C69.0898 109.913 68.4295 109.888 67.7493 109.863C67.0908 109.81 66.4323 109.757 65.7539 109.703C65.1121 109.617 64.4703 109.532 63.8091 109.443C63.2121 109.297 62.6151 109.151 62 109C61.0396 108.438 60.0793 107.876 59.0898 107.297C58.2971 106.601 57.5043 105.905 56.6875 105.188C56.0107 104.5 55.334 103.813 54.6367 103.105C54.0966 102.411 53.5565 101.716 53 101C52.6004 100.364 52.2008 99.729 51.7891 99.0742C51.5287 98.3897 51.2683 97.7052 51 97C50.9007 96.1466 50.8015 95.2933 50.6992 94.4141C50.6934 93.0335 50.6934 93.0335 50.6875 91.625C50.712 90.6543 50.7365 89.6837 50.7617 88.6836C50.8797 87.3552 50.8797 87.3552 51 86C51.33 84.9069 51.66 83.8138 52 82.6875C52.66 81.8006 53.32 80.9137 54 80C54.5723 79.4766 55.1447 78.9533 55.7344 78.4141C56.7321 77.6213 56.7321 77.6213 57.75 76.8125C58.8154 76.0719 58.8154 76.0719 59.9023 75.3164C60.9407 74.6648 60.9407 74.6648 62 74C62.5582 73.679 63.1163 73.358 63.6914 73.0273C64.2264 72.7708 64.7613 72.5143 65.3125 72.25C65.8668 72.0321 66.4211 71.8143 66.9922 71.5898C67.6548 71.3952 68.3173 71.2005 69 71C69.9513 70.795 70.9027 70.5901 71.8828 70.3789C72.8909 70.192 73.8989 70.0051 74.9375 69.8125C76.3742 69.5747 76.3742 69.5747 77.8398 69.332C78.5527 69.2225 79.2655 69.1129 80 69C79.9742 68.4341 79.9484 67.8682 79.9219 67.2852C79.8652 66.5517 79.8084 65.8182 79.75 65.0625C79.7036 64.3316 79.6572 63.6007 79.6094 62.8477C79.3077 61.9331 79.3077 61.9331 79 61C78.4008 60.7721 77.8015 60.5443 77.1842 60.3095C76.4634 60.2074 75.7426 60.1052 75 60C74.4183 60.1394 73.8367 60.2787 73.2374 60.4223C72.6456 60.6789 72.0538 60.9355 71.4441 61.2C70.7663 61.4874 70.0884 61.7749 69.3901 62.0711C68.6671 62.3918 67.9441 62.7125 67.1992 63.043C66.4446 63.3678 65.69 63.6927 64.9126 64.0274C63.7425 64.533 63.7425 64.533 62.5488 65.0488C61.7503 65.4002 60.9518 65.7515 60.1292 66.1135C59.3234 66.4679 58.5177 66.8223 57.6875 67.1875C56.4869 67.7058 56.4869 67.7058 55.262 68.2346C54.4698 68.5755 53.6775 68.9164 52.8613 69.2676C52.0803 69.6063 51.2993 69.945 50.4946 70.294C49.7371 70.6237 48.9796 70.9533 48.1992 71.293C47.4823 71.6036 46.7654 71.9142 46.0268 72.2342C45.3395 72.5374 44.6522 72.8407 43.9441 73.1531C43.284 73.4502 42.6238 73.7472 41.9437 74.0533C41.3023 74.3657 40.6609 74.6781 40 75C39.3574 75.3699 38.7147 75.7397 38.0526 76.1208C37.4408 76.4874 36.8289 76.854 36.1985 77.2317C35.3937 77.7384 35.3937 77.7384 34.5726 78.2553C34.0536 78.5011 33.5347 78.7468 33 79C31.8863 79 30.7725 79 29.625 79C28.7588 78.67 27.8925 78.34 27 78C26.7138 77.3748 26.4277 76.7496 26.1328 76.1055C26.089 75.4107 26.0452 74.7159 26 74C26.397 73.5424 26.7941 73.0848 27.2031 72.6133C28.2163 71.9694 28.2163 71.9694 29.25 71.3125C30.0982 70.7943 30.9464 70.2761 31.8203 69.7422C32.3208 69.4621 32.8213 69.1821 33.3369 68.8936C33.8857 68.5987 34.4346 68.3038 35 68C35.889 67.5345 35.889 67.5345 36.7959 67.0596C37.4382 66.7331 38.0804 66.4067 38.7422 66.0703C39.441 65.726 40.1399 65.3816 40.8599 65.0269C41.6074 64.6674 42.3549 64.3079 43.125 63.9375C43.9047 63.569 44.6844 63.2005 45.4878 62.8208C46.3323 62.4313 47.1768 62.0419 48.0469 61.6406C48.9666 61.2262 49.8864 60.8118 50.834 60.3848C51.8788 59.9278 52.9236 59.4708 54 59C54.6108 58.741 55.2215 58.482 55.8508 58.2151C56.5014 57.9424 57.152 57.6697 57.8223 57.3887C58.8328 56.9679 58.8328 56.9679 59.8637 56.5387C60.5532 56.2526 61.2427 55.9666 61.9531 55.6719C62.6455 55.3843 63.3378 55.0966 64.0511 54.8003C64.7469 54.5118 65.4428 54.2233 66.1597 53.926C66.8569 53.6376 67.5541 53.3492 68.2724 53.052C68.9663 52.7667 69.6601 52.4814 70.375 52.1875C71.0623 51.9091 71.7495 51.6306 72.4576 51.3437C73.1317 51.071 73.8059 50.7983 74.5005 50.5173C75.1568 50.2481 75.813 49.9789 76.4892 49.7016C77.1192 49.443 77.7493 49.1844 78.3984 48.918C78.9905 48.6828 79.5825 48.4477 80.1924 48.2054C81.0318 47.8585 81.0318 47.8585 81.8882 47.5046C82.9151 47.0081 83.942 46.5116 85 46C85.5009 45.6745 86.0018 45.3489 86.5179 45.0135C86.9767 44.6688 87.4355 44.3241 87.9082 43.969C88.5985 43.3192 89.2888 42.6695 90 42C90.0232 41.2008 90.0464 40.4016 90.0703 39.5781C89.7171 38.7273 89.3639 37.8766 89 37C88.3993 36.1492 87.7986 35.2984 87.1797 34.4219C86.8125 33.9877 86.4452 33.5535 86.0669 33.1062C85.6736 32.6587 85.2802 32.2111 84.875 31.75C84.4727 31.2747 84.0703 30.7995 83.6558 30.3098C83.2486 29.8273 82.8414 29.3448 82.4219 28.8477C81.8099 28.1305 81.8099 28.1305 81.1855 27.3989C80.7943 26.9373 80.4031 26.4756 80 26C79.3245 25.1737 78.6491 24.3474 77.9531 23.4961C77.3498 22.7343 76.7466 21.9724 76.125 21.1875C75.2936 20.1028 75.2936 20.1028 74.4453 18.9961C73.9684 18.3374 73.4914 17.6787 73 17C72.6262 16.4341 72.2523 15.8682 71.8672 15.2852C71.581 14.7786 71.2948 14.272 71 13.75C70.505 12.3887 70.505 12.3887 70 11C70.1031 10.0512 70.2062 9.1025 70.3125 8.125C70.5394 7.42375 70.7662 6.7225 71 6ZM72 79C71.2124 79.2733 70.4248 79.5466 69.6133 79.8281C68.8128 80.1736 68.0123 80.5191 67.1875 80.875C66.4386 81.223 65.6896 81.5711 64.918 81.9297C63.9686 82.4595 63.9686 82.4595 63 83C62.34 83.66 61.68 84.32 61 85C60.8286 85.8005 60.6571 86.601 60.4805 87.4258C60.3838 88.3784 60.2871 89.331 60.1875 90.3125C60.1179 91.2973 60.0483 92.2822 59.9766 93.2969C59.9843 94.1889 59.992 95.0809 60 96C60.5259 97.5159 60.5259 97.5159 61.0625 99.0625C61.7019 99.7019 62.3413 100.341 63 101C63.825 101.412 64.65 101.825 65.5 102.25C66.0105 102.385 66.5209 102.521 67.0469 102.66C68.0137 102.828 68.0137 102.828 69 103C69.9127 103.122 70.8253 103.245 71.7656 103.371C72.7505 103.476 73.7353 103.58 74.75 103.688C75.6936 103.774 76.6372 103.86 77.6094 103.949C78.7927 103.974 78.7927 103.974 80 104C80.66 103.67 81.32 103.34 82 103C81.9381 102.361 81.8762 101.721 81.8125 101.062C81.5444 100.382 81.2763 99.7013 81 99C80.6055 98.6507 80.2111 98.3013 79.8047 97.9414C79.2091 97.6307 78.6136 97.3201 78 97C77.1093 96.7912 76.2185 96.5823 75.3008 96.3672C74.3146 96.2048 73.3285 96.0423 72.3125 95.875C71.3186 95.7074 70.3248 95.5398 69.3008 95.3672C68.5415 95.246 67.7823 95.1248 67 95C67.2062 94.5269 67.4125 94.0538 67.625 93.5664C68.0788 93.0495 68.5325 92.5326 69 92C69.9075 91.7821 70.815 91.5643 71.75 91.3398C72.8225 91.2071 73.895 91.0743 75 90.9375C76.6087 90.7345 76.6087 90.7345 78.25 90.5273C79.1575 90.3533 80.065 90.1793 81 90C81.66 89.34 82.32 88.68 83 88C83.0271 87.4534 83.0541 86.9069 83.082 86.3438C82.9931 85.7353 82.9041 85.1269 82.8125 84.5C82.6404 83.5699 82.6404 83.5699 82.4648 82.6211C82.3114 82.0861 82.158 81.5512 82 81C81.6287 80.5256 81.2575 80.0513 80.875 79.5625C80.2563 79.3769 79.6375 79.1912 79 79C77.9688 78.8762 76.9375 78.7525 75.875 78.625C74.9681 78.6482 74.9681 78.6482 74.043 78.6719C73.3688 78.7802 72.6946 78.8884 72 79Z" fill="black"/>
</g>
<defs>
<clipPath id="clip0_7_859">
<rect width="456" height="2405" fill="white" transform="translate(-152 -1730)"/>
</clipPath>
</defs>
</svg>
