<svg width="152" height="175" viewBox="0 0 152 175" fill="none" xmlns="http://www.w3.org/2000/svg">
<g clip-path="url(#clip0_7_859)">
<path d="M65 28C65.8284 27.9886 66.6568 27.9773 67.5104 27.9656C68.3542 27.9621 69.198 27.9586 70.0674 27.9551C71.3436 27.9583 71.3436 27.9583 72.6456 27.9615C73.4973 27.9691 74.349 27.9766 75.2266 27.9844C76.0696 27.9968 76.9127 28.0092 77.7813 28.022C78.6176 28.038 79.454 28.054 80.3157 28.0706C81.1435 28.0897 81.9714 28.1089 82.8244 28.1287C83.6455 28.1481 84.4665 28.1675 85.3125 28.1875C86.5447 28.2095 86.5447 28.2095 87.8018 28.2319C89.0073 28.2552 89.0073 28.2552 90.2371 28.2791C91.0077 28.3014 91.7784 28.3238 92.5725 28.3469C93.6755 28.3821 93.6755 28.3821 94.8008 28.418C95.5015 28.4307 96.2022 28.4435 96.9241 28.4566C97.5657 28.4828 98.2073 28.5089 98.8684 28.5359C100.419 28.7656 100.419 28.7656 102 29C102.415 29.4633 102.83 29.9266 103.258 30.404C103.503 30.9307 103.748 31.4574 104 32C103.67 32.66 103.34 33.32 103 34C101.453 34.3519 101.453 34.3519 99.875 34.7109C99.2511 34.8218 98.6272 34.9327 97.9844 35.0469C97.3295 35.1552 96.6747 35.2634 96 35.375C95.0177 35.5258 95.0177 35.5258 94.0156 35.6797C93.3917 35.7931 92.7678 35.9066 92.125 36.0234C91.0938 36.3457 90.0625 36.668 89 37C88.7729 37.5988 88.5458 38.1977 88.3118 38.8146C88.2089 39.5358 88.106 40.257 88 41C87.9603 41.6348 87.9206 42.2696 87.8797 42.9236C87.882 43.5898 87.8842 44.256 87.8865 44.9424C87.8866 45.7029 87.8866 46.4634 87.8867 47.2469C87.8919 48.0574 87.897 48.868 87.9023 49.7031C87.9045 50.9598 87.9045 50.9598 87.9066 52.2419C87.9084 53.1057 87.9102 53.9694 87.9121 54.8594C87.9162 55.743 87.9203 56.6267 87.9246 57.5371C87.9288 58.4324 87.9331 59.3276 87.9375 60.25C87.94 61.1523 87.9425 62.0547 87.9451 62.9844C87.9471 63.8764 87.9491 64.7684 87.9512 65.6875C87.9533 66.5499 87.9555 67.4124 87.9577 68.301C87.96 69.1349 87.9624 69.9689 87.9648 70.8281C87.968 71.6468 87.9711 72.4654 87.9743 73.3089C87.9776 74.0568 87.9808 74.8047 87.9841 75.5752C87.9894 76.7054 87.9946 77.8356 88 79C88.7872 79.0729 89.5744 79.1458 90.3855 79.2209C91.9639 79.361 91.9639 79.361 93.5742 79.5039C94.6717 79.5956 95.7692 79.6873 96.8999 79.7817C97.9229 79.8538 98.946 79.9258 100 80C100.692 80.0166 101.383 80.0332 102.096 80.0503C102.648 80.0427 103.201 80.0351 103.77 80.0273C105.276 79.9829 105.276 79.9829 106.812 79.9375C107.885 79.9259 108.957 79.9143 110.062 79.9023C111.517 79.9507 111.517 79.9507 113 80C113.784 80.1457 114.567 80.2913 115.375 80.4414C116.014 80.6257 116.654 80.8101 117.312 81C118.199 81.33 119.086 81.66 120 82C119.917 82.7837 119.835 83.5675 119.75 84.375C119.658 84.9345 119.567 85.4939 119.473 86.0703C119.239 87.0255 119.239 87.0255 119 88C118.731 88.6574 118.461 89.3148 118.184 89.9922C117.855 90.7373 117.526 91.4823 117.188 92.25C116.821 93.1137 116.455 93.9773 116.078 94.8672C115.722 95.901 115.367 96.9348 115 98C114.802 98.9363 114.802 98.9363 114.6 99.8916C114.479 100.569 114.359 101.247 114.234 101.945C114.107 102.661 113.98 103.377 113.85 104.115C113.714 104.86 113.578 105.606 113.438 106.375C113.289 107.136 113.14 107.897 112.986 108.68C112.81 109.463 112.634 110.245 112.453 111.051C112.139 112.257 112.139 112.257 111.818 113.487C111.548 114.316 111.278 115.146 111 116C110.624 116.867 110.248 117.733 109.861 118.626C109.428 119.506 108.994 120.386 108.547 121.293C107.848 122.612 107.848 122.612 107.135 123.958C106.657 124.817 106.18 125.677 105.688 126.562C105.238 127.371 104.788 128.179 104.324 129.011C103.87 129.793 103.417 130.574 102.949 131.379C102.482 132.139 102.015 132.899 101.534 133.682C101.028 134.447 100.522 135.212 100 136C99.3976 136.826 98.7952 137.652 98.1746 138.504C97.5575 139.307 96.9404 140.11 96.3047 140.938C95.4517 142.02 95.4517 142.02 94.5815 143.125C94.0596 143.744 93.5377 144.363 93 145C92.5593 145.454 92.1186 145.907 91.6646 146.375C91.2596 146.726 90.8547 147.076 90.4375 147.438C89.2309 148.211 89.2309 148.211 88 149C87.0848 149.354 86.1695 149.709 85.2266 150.074C83.6294 150.532 83.6294 150.532 82 151C81.019 151.111 80.038 151.222 79.0273 151.336C77.4979 151.355 77.4979 151.355 75.9375 151.375C74.2533 151.35 74.2533 151.35 72.5352 151.324C71.9565 151.286 71.3779 151.248 70.7817 151.208C69.8998 151.105 69.8998 151.105 69 151C68.1006 150.825 68.1006 150.825 67.1831 150.647C66.5851 150.502 65.9872 150.357 65.3711 150.207C64.7853 150.043 64.1995 149.88 63.5959 149.711C63.028 149.539 62.4601 149.366 61.875 149.188C60.8205 148.851 59.7661 148.515 58.6797 148.168C57.7954 147.783 56.9111 147.397 56 147C55.4302 146.554 54.8605 146.108 54.2734 145.648C53.8532 145.104 53.433 144.56 53 144C52.6236 143.297 52.2472 142.595 51.8594 141.871C51.4933 141.068 51.1272 140.265 50.75 139.438C50.3195 138.542 49.8889 137.646 49.4453 136.723C48.9684 135.824 48.4914 134.926 48 134C47.4612 133.236 46.9223 132.471 46.3672 131.684C45.7923 130.922 45.2173 130.16 44.625 129.375C44.0295 128.542 43.4339 127.71 42.8203 126.852C42.2196 125.911 41.6189 124.97 41 124C40.5625 123.185 40.5625 123.185 40.1162 122.354C39.8278 121.771 39.5394 121.187 39.2422 120.586C38.9541 119.967 38.666 119.348 38.3691 118.71C38.0823 118.064 37.7955 117.417 37.5 116.75C37.2158 116.091 36.9315 115.433 36.6387 114.754C36.3531 114.062 36.0676 113.37 35.7734 112.656C35.3418 111.556 35.3418 111.556 34.9014 110.434C34.6039 109.631 34.3065 108.827 34 108C33.519 106.61 33.519 106.61 33.0283 105.191C32.7019 104.21 32.3754 103.229 32.0391 102.219C31.7187 101.23 31.3984 100.242 31.0684 99.2236C30.7571 98.2423 30.4457 97.261 30.125 96.25C29.8266 95.2971 29.5282 94.3441 29.2207 93.3623C28.9442 92.4642 28.6677 91.566 28.3828 90.6406C28.1393 89.8417 27.8959 89.0428 27.645 88.2197C27.4322 87.4872 27.2193 86.7547 27 86C26.8065 85.2443 26.613 84.4886 26.4136 83.71C26.2771 83.1457 26.1406 82.5814 26 82C27.4889 81.8008 27.4889 81.8008 29.0078 81.5977C29.6588 81.5124 30.3098 81.4272 30.9805 81.3394C31.6882 81.248 32.3959 81.1566 33.125 81.0625C33.8404 80.9711 34.5559 80.8798 35.293 80.7856C36.0239 80.6952 36.7548 80.6049 37.5078 80.5117C38.6259 80.379 38.6259 80.379 39.7666 80.2437C40.8721 80.123 40.8721 80.123 42 80C42.7035 79.9364 43.407 79.8727 44.1318 79.8071C44.8076 79.7535 45.4834 79.6998 46.1797 79.6445C46.8241 79.5974 47.4684 79.5503 48.1323 79.5017C48.7487 79.4599 49.365 79.4181 50 79.375C50.9071 79.3152 50.9071 79.3152 51.8325 79.2542C52.3828 79.2193 52.9331 79.1844 53.5 79.1484C54.325 79.0995 55.15 79.0505 56 79C56.0079 78.2668 56.0079 78.2668 56.0159 77.5188C56.0222 76.8384 56.0286 76.158 56.0352 75.457C56.0397 74.7126 56.0442 73.9682 56.0488 73.2012C56.0533 72.4129 56.0579 71.6246 56.0625 70.8125C56.0709 70.0436 56.0793 69.2746 56.0879 68.4824C56.0911 67.7315 56.0943 66.9807 56.0977 66.207C56.0921 65.4719 56.0865 64.7367 56.0808 63.9792C56.0541 63.3261 56.0275 62.6729 56 62C55.8427 61.1363 55.6855 60.2727 55.5234 59.3828C55.3507 58.5965 55.178 57.8102 55 57C54.9188 55.8979 54.8376 54.7957 54.7539 53.6602C54.7046 52.7775 54.7046 52.7775 54.6543 51.877C54.624 51.2782 54.5937 50.6794 54.5625 50.0625C54.5361 49.4676 54.5096 48.8727 54.4824 48.2598C54.4483 47.67 54.4141 47.0803 54.3789 46.4727C54.2539 45.3267 54.1288 44.1807 54 43C53.6996 41.885 53.3993 40.7699 53.0898 39.6211C52.5504 38.3237 52.5504 38.3237 52 37C51.34 36.67 50.68 36.34 50 36C49.0319 35.9188 48.0638 35.8376 47.0664 35.7539C46.4999 35.721 45.9333 35.6882 45.3496 35.6543C44.7599 35.624 44.1701 35.5937 43.5625 35.5625C42.9766 35.5361 42.3907 35.5096 41.7871 35.4824C41.2193 35.4483 40.6514 35.4141 40.0664 35.3789C38.5485 35.1913 38.5485 35.1913 37 35C36.3696 34.7203 35.7393 34.4405 35.0898 34.1523C34.7302 33.7721 34.3705 33.3918 34 33C34 32.01 34 31.02 34 30C34.7453 29.9342 35.4906 29.8684 36.2585 29.8005C37.3218 29.7104 38.385 29.6202 39.4805 29.5273C40.0687 29.48 40.6569 29.4326 41.263 29.3839C41.8849 29.3354 42.5069 29.287 43.1477 29.2371C43.8048 29.1875 44.4618 29.138 45.1388 29.087C45.8149 29.0377 46.491 28.9883 47.1875 28.9375C47.8625 28.8895 48.5375 28.8416 49.233 28.7921C49.9201 28.7458 50.6072 28.6994 51.3152 28.6516C52.3741 28.5852 52.3741 28.5852 53.4545 28.5175C54.5405 28.4547 54.5405 28.4547 55.6484 28.3906C56.3924 28.3509 57.1363 28.3111 57.9028 28.2702C59.0468 28.2167 59.0468 28.2167 60.2139 28.1621C61.3829 28.1163 61.3829 28.1163 62.5756 28.0696C63.3756 28.0466 64.1757 28.0237 65 28ZM64 35C63.34 35.66 62.68 36.32 62 37C61.9198 37.5847 61.8397 38.1693 61.7571 38.7717C61.7612 39.4671 61.7653 40.1625 61.7695 40.8789C61.7715 41.6349 61.7734 42.391 61.7754 43.1699C61.7876 43.9595 61.7999 44.749 61.8125 45.5625C61.8131 46.3559 61.8138 47.1493 61.8145 47.9668C61.8203 48.7215 61.8261 49.4763 61.832 50.2539C61.8395 50.9481 61.847 51.6424 61.8547 52.3577C61.9027 52.8996 61.9506 53.4416 62 54C62.33 54.33 62.66 54.66 63 55C64.135 55.1914 64.135 55.1914 65.293 55.3867C66.2482 55.486 67.2034 55.5852 68.1875 55.6875C69.1775 55.7584 70.1675 55.8293 71.1875 55.9023C72.1156 55.9346 73.0437 55.9668 74 56C75.0209 56.0019 75.0209 56.0019 76.0625 56.0039C76.5987 55.9201 77.135 55.8363 77.6875 55.75C78.4506 55.1725 79.2138 54.595 80 54C80.1405 53.2279 80.281 52.4557 80.4258 51.6602C80.4503 50.7204 80.4748 49.7807 80.5 48.8125C80.4471 47.8315 80.3943 46.8505 80.3398 45.8398C80.2277 44.9027 80.1155 43.9655 80 43C79.8569 42.2588 79.7138 41.5176 79.5664 40.7539C79.4001 40.1339 79.2338 39.5138 79.0625 38.875C78.7119 37.9262 78.3613 36.9775 78 36C77.67 35.67 77.34 35.34 77 35C76.0525 34.9446 75.1051 34.8891 74.1289 34.832C73.5546 34.8262 72.9804 34.8204 72.3887 34.8145C71.4847 34.8135 71.4847 34.8135 70.5625 34.8125C69.9637 34.8003 69.365 34.788 68.748 34.7754C67.8847 34.7725 67.8847 34.7725 67.0039 34.7695C65.517 34.8836 65.517 34.8836 64 35ZM64 60C63.34 60.66 62.68 61.32 62 62C61.9554 62.5899 61.9107 63.1798 61.8647 63.7876C61.9171 64.4893 61.9695 65.1911 62.0234 65.9141C62.075 66.6746 62.1266 67.4352 62.1797 68.2188C62.2441 69.0128 62.3086 69.8069 62.375 70.625C62.4317 71.4268 62.4884 72.2286 62.5469 73.0547C62.601 73.8127 62.6552 74.5706 62.7109 75.3516C62.7656 76.051 62.8202 76.7505 62.8765 77.4712C62.9172 77.9757 62.958 78.4802 63 79C63.5097 79.0105 64.0195 79.0209 64.5447 79.0317C65.2505 79.0445 65.9564 79.0572 66.6836 79.0703C67.8273 79.0838 67.8273 79.0838 68.9941 79.0977C70.2036 79.1112 70.2036 79.1112 71.4375 79.125C72.2399 79.1418 73.0424 79.1585 73.8691 79.1758C74.6329 79.1822 75.3967 79.1887 76.1836 79.1953C77.244 79.211 77.244 79.211 78.3259 79.2271C78.8784 79.1521 79.4308 79.0772 80 79C80.33 78.34 80.66 77.68 81 77C81.0554 75.9597 81.1109 74.9195 81.168 73.8477C81.1738 73.236 81.1796 72.6243 81.1855 71.9941C81.1862 71.3567 81.1868 70.7193 81.1875 70.0625C81.2059 69.1121 81.2059 69.1121 81.2246 68.1426C81.2265 67.5296 81.2285 66.9167 81.2305 66.2852C81.1544 65.2011 81.0784 64.117 81 63C80.7355 62.4447 80.471 61.8895 80.1985 61.3174C79.803 60.8826 79.4075 60.4479 79 60C77.8759 59.8801 76.7519 59.7602 75.5938 59.6367C74.9325 59.6374 74.2712 59.638 73.5898 59.6387C72.9002 59.6548 72.2105 59.6709 71.5 59.6875C70.4655 59.6827 70.4655 59.6827 69.4102 59.6777C68.7489 59.6848 68.0876 59.6919 67.4062 59.6992C66.2822 59.7985 65.1581 59.8977 64 60ZM69 84C67.8991 84.1676 66.7983 84.3352 65.6641 84.5078C64.7849 85.0002 63.9058 85.4927 63 86C62.8388 86.5439 62.6776 87.0878 62.5115 87.6482C62.4677 88.3121 62.424 88.9761 62.3789 89.6602C62.3937 90.3711 62.4086 91.082 62.4238 91.8145C62.4696 92.5563 62.5154 93.2982 62.5625 94.0625C62.5812 94.8082 62.5999 95.5539 62.6191 96.3223C62.643 97.0319 62.6668 97.7415 62.6914 98.4727C62.7244 99.125 62.7573 99.7773 62.7913 100.449C62.8601 100.961 62.929 101.473 63 102C63.33 102.33 63.66 102.66 64 103C65.1176 103.066 65.1176 103.066 66.2578 103.133C67.6771 103.129 67.6771 103.129 69.125 103.125C70.0557 103.128 70.9864 103.13 71.9453 103.133C72.9534 103.089 73.9614 103.045 75 103C75.9547 102.885 75.9547 102.885 76.9287 102.769C77.5684 102.677 78.2081 102.586 78.8672 102.492C80.4179 102.249 80.4179 102.249 82 102C81.9749 101.49 81.9499 100.981 81.9241 100.455C81.8708 99.3966 81.8708 99.3966 81.8164 98.3164C81.7758 97.5539 81.7352 96.7914 81.6934 96.0059C81.6502 95.1996 81.607 94.3932 81.5625 93.5625C81.5232 92.7601 81.4839 91.9576 81.4434 91.1309C81.4015 90.3671 81.3596 89.6033 81.3164 88.8164C81.2797 88.1094 81.2431 87.4025 81.2053 86.6741C81.1037 85.8454 81.1037 85.8454 81 85C80.67 84.67 80.34 84.34 80 84C79.2433 83.9446 78.4866 83.8891 77.707 83.832C76.2742 83.8224 76.2742 83.8224 74.8125 83.8125C73.8702 83.7983 72.9279 83.7841 71.957 83.7695C70.9812 83.8456 70.0054 83.9216 69 84ZM91 84C90.1389 84.4293 90.1389 84.4293 89.2605 84.8672C88.6366 85.4279 88.6366 85.4279 88 86C87.8801 86.6329 87.7602 87.2659 87.6367 87.918C87.6535 88.6669 87.6702 89.4159 87.6875 90.1875C87.7133 90.9854 87.7391 91.7834 87.7656 92.6055C87.843 93.3957 87.9203 94.1859 88 95C88.1392 95.6974 88.2784 96.3948 88.4219 97.1133C88.592 97.7359 88.7622 98.3585 88.9375 99C89.4634 100.485 89.4634 100.485 90 102C90.33 102.33 90.66 102.66 91 103C91.8405 103.067 92.6809 103.134 93.5469 103.203C94.6039 103.219 95.6609 103.234 96.75 103.25C97.7967 103.276 98.8434 103.302 99.9219 103.328C100.938 103.22 101.953 103.112 103 103C103.926 102.636 104.851 102.273 105.805 101.898C106.529 101.272 107.254 100.645 108 100C108.317 98.9765 108.634 97.953 108.961 96.8984C109.079 96.0399 109.079 96.0399 109.199 95.1641C109.257 94.5737 109.315 93.9833 109.375 93.375C109.456 92.7769 109.537 92.1787 109.621 91.5625C109.692 90.9927 109.763 90.423 109.836 89.8359C109.89 88.9001 109.944 87.9642 110 87C109.67 86.67 109.34 86.34 109 86C108.433 85.8915 107.866 85.783 107.282 85.6711C106.552 85.5799 105.822 85.4886 105.07 85.3945C104.275 85.2985 103.48 85.2025 102.66 85.1035C101.824 85.0075 100.987 84.9114 100.125 84.8125C99.2961 84.7049 98.4673 84.5972 97.6133 84.4863C96.8154 84.3942 96.0174 84.302 95.1953 84.207C94.4633 84.1191 93.7313 84.0312 92.9771 83.9407C92.3246 83.9603 91.6722 83.9798 91 84ZM51 85C50.432 85.0632 49.864 85.1263 49.2788 85.1914C48.675 85.2726 48.0713 85.3538 47.4492 85.4375C46.8337 85.5277 46.2182 85.618 45.584 85.7109C44.9581 85.8063 44.3323 85.9017 43.6875 86C43.0423 86.0954 42.3971 86.1908 41.7324 86.2891C40.8188 86.4244 40.8188 86.4244 39.8867 86.5625C38.9341 86.7069 37.9815 86.8512 37 87C36.9652 87.4847 36.9304 87.9694 36.8945 88.4688C36.8675 89.1391 36.8404 89.8094 36.8125 90.5C36.8112 91.2245 36.8099 91.9489 36.8086 92.6953C36.8718 93.4559 36.9349 94.2164 37 95C37.1972 95.7399 37.3945 96.4798 37.5977 97.2422C37.8542 97.946 38.1107 98.6498 38.375 99.375C38.6302 100.022 38.8855 100.669 39.1484 101.336C39.4295 101.885 39.7105 102.434 40 103C40.66 103.66 41.32 104.32 42 105C43.0519 105.015 44.1037 105.031 45.1875 105.047C45.8037 105.004 46.4198 104.962 47.0547 104.918C47.6966 104.863 48.3386 104.807 49 104.75C49.642 104.71 50.2839 104.67 50.9453 104.629C51.8696 104.557 51.8696 104.557 52.8125 104.484C53.8644 104.325 54.9162 104.165 56 104C56.66 103.34 57.32 102.68 58 102C58.0499 101.446 58.0997 100.891 58.1511 100.32C58.1051 99.6666 58.0591 99.0131 58.0117 98.3398C57.9647 97.6289 57.9176 96.918 57.8691 96.1855C57.8092 95.4437 57.7493 94.7018 57.6875 93.9375C57.6392 93.1918 57.5908 92.4461 57.541 91.6777C57.4646 90.6133 57.4646 90.6133 57.3867 89.5273C57.3373 88.875 57.2879 88.2227 57.2371 87.5505C57.1588 87.0389 57.0806 86.5272 57 86C56.67 85.67 56.34 85.34 56 85C55.3052 84.9587 54.6104 84.9175 53.8945 84.875C52.9393 84.9163 51.9841 84.9575 51 85ZM70 107C69.0709 107.027 69.0709 107.027 68.123 107.054C67.4585 107.076 66.794 107.098 66.1094 107.121C65.0841 107.163 65.0841 107.163 64.0381 107.206C63.3449 107.241 62.6517 107.276 61.9375 107.312C61.2495 107.358 60.5614 107.404 59.8525 107.451C59.1793 107.504 58.5061 107.558 57.8125 107.613C57.1615 107.675 56.5105 107.736 55.8398 107.799C55.2327 107.866 54.6255 107.932 54 108C52.4841 108.207 52.4841 108.207 50.9375 108.418C50.1125 108.61 49.2875 108.802 48.4375 109C47.4185 109.387 47.4185 109.387 46.3789 109.781C45.9239 110.183 45.4688 110.586 45 111C44.8853 111.691 44.7705 112.382 44.6523 113.094C44.7258 113.888 44.7993 114.682 44.875 115.5C45.0374 116.273 45.1998 117.047 45.3672 117.844C45.576 118.555 45.7848 119.267 46 120C46.33 120.99 46.66 121.98 47 123C48.0306 123.336 48.0306 123.336 49.082 123.68C50.045 123.785 51.0079 123.891 52 124C52.5535 124.029 53.107 124.057 53.6772 124.087C54.2826 124.102 54.888 124.117 55.5117 124.133C56.1747 124.135 56.8377 124.137 57.5208 124.139C58.2358 124.134 58.9508 124.13 59.6875 124.125C60.8267 124.12 60.8267 124.12 61.989 124.115C63.2126 124.104 63.2126 124.104 64.4609 124.094C65.3333 124.081 66.2057 124.068 67.1045 124.055C68.5378 124.028 68.5378 124.028 70 124C71.0896 123.977 72.1792 123.954 73.3018 123.93C74.4526 123.901 75.6034 123.873 76.7891 123.844C77.3697 123.827 77.9503 123.81 78.5485 123.792C79.1297 123.774 79.711 123.756 80.3098 123.738C80.8899 123.719 81.4701 123.7 82.0678 123.681C82.6435 123.662 83.2193 123.644 83.8125 123.625C84.9394 123.594 86.0663 123.563 87.2273 123.532C88.2931 123.493 89.3589 123.454 90.457 123.414C91.8798 123.367 91.8798 123.367 93.3313 123.319C94.212 123.214 95.0926 123.108 96 123C96.9157 122.699 97.8314 122.397 98.7749 122.087C99.5092 121.728 100.243 121.37 101 121C101.378 120.404 101.755 119.809 102.145 119.195C102.475 118.171 102.475 118.171 102.812 117.125C103.046 116.447 103.279 115.769 103.52 115.07C103.757 114.046 103.757 114.046 104 113C104.01 112.297 104.02 111.595 104.03 110.871C104.015 109.945 104.015 109.945 104 109C103.451 108.975 102.901 108.95 102.335 108.924C101.571 108.889 100.807 108.853 100.02 108.816C99.1849 108.776 98.3502 108.735 97.4902 108.693C96.6066 108.65 95.7229 108.607 94.8125 108.562C93.9482 108.523 93.0839 108.484 92.1934 108.443C90.9317 108.381 90.9317 108.381 89.6445 108.316C88.8302 108.27 88.016 108.224 87.177 108.176C86.0994 108.089 86.0994 108.089 85 108C84.0616 107.826 83.1231 107.652 82.1562 107.473C81.0889 107.239 81.0889 107.239 80 107C79.3026 106.956 78.6052 106.912 77.8867 106.867C76.7981 106.871 76.7981 106.871 75.6875 106.875C74.8264 106.887 73.9653 106.898 73.0781 106.91C71.5545 106.955 71.5545 106.955 70 107ZM84 127C82.6902 127.017 82.6902 127.017 81.354 127.035C80.4186 127.063 79.4833 127.092 78.5195 127.121C77.5587 127.16 76.5979 127.199 75.6079 127.239C74.6442 127.284 73.6804 127.329 72.6875 127.375C71.7573 127.418 70.8271 127.461 69.8687 127.506C68.5163 127.576 68.5163 127.576 67.1367 127.648C66.271 127.701 65.4052 127.753 64.5132 127.808C63.2692 127.903 63.2692 127.903 62 128C61.1926 128.087 60.3851 128.173 59.5532 128.263C58.4537 128.399 58.4537 128.399 57.332 128.539C56.2325 128.691 55.1329 128.843 54 129C54.3964 129.864 54.3964 129.864 54.8008 130.746C55.1965 131.49 55.5923 132.234 56 133C56.4886 133.672 56.9771 134.343 57.4805 135.035C58.0438 135.704 58.6071 136.373 59.1875 137.062C60.1292 138.099 60.1292 138.099 61.0898 139.156C61.7202 139.765 62.3505 140.373 63 141C63.5375 141.402 64.0751 141.804 64.6289 142.219C65.1639 142.497 65.6988 142.776 66.25 143.062C66.8249 143.261 67.3998 143.46 67.9922 143.664C68.9861 143.83 68.9861 143.83 70 144C70.8482 144.028 71.6964 144.057 72.5703 144.086C73.4959 144.037 74.4214 143.988 75.375 143.938C76.3134 143.818 77.2519 143.698 78.2188 143.574C79.1366 143.385 80.0544 143.195 81 143C81.8353 142.738 82.6706 142.477 83.5312 142.207C84.3047 141.891 85.0781 141.575 85.875 141.25C86.5956 140.892 87.3162 140.533 88.0586 140.164C88.6993 139.78 89.3399 139.396 90 139C90.5272 138.616 91.0545 138.232 91.5977 137.836C92.0398 137.436 92.482 137.037 92.9375 136.625C93.6181 135.759 94.2987 134.892 95 134C95.3725 132.956 95.7451 131.912 96.1289 130.836C96.4164 129.9 96.7038 128.964 97 128C96.3168 127.916 95.6336 127.832 94.9297 127.746C93.4176 127.593 93.4176 127.593 91.875 127.438C91.3153 127.389 90.7556 127.34 90.179 127.29C89.5669 127.247 88.9548 127.204 88.3242 127.16C87.6505 127.126 86.9768 127.091 86.2827 127.055C85.5294 127.037 84.7761 127.019 84 127Z" fill="black"/>
</g>
<defs>
<clipPath id="clip0_7_859">
<rect width="456" height="2405" fill="white" transform="translate(-304 -1474)"/>
</clipPath>
</defs>
</svg>
