<svg width="152" height="160" viewBox="0 0 152 160" fill="none" xmlns="http://www.w3.org/2000/svg">
<g clip-path="url(#clip0_7_859)">
<path d="M69 9C69.883 8.92878 70.766 8.85756 71.6758 8.78418C72.5253 8.73938 73.3748 8.69459 74.25 8.64844C75.0653 8.62693 75.8805 8.60542 76.7205 8.58325C77.8798 8.57298 77.8798 8.57298 79.0625 8.5625C80.1416 8.54739 80.1416 8.54739 81.2424 8.53198C81.9165 8.54334 82.5906 8.5547 83.2852 8.56641C84.2307 8.62901 84.2307 8.62901 85.1953 8.69287C86.0886 8.8449 86.0886 8.8449 87 9C87.5801 9.21608 88.1602 9.43216 88.7578 9.65479C89.2928 9.91695 89.8277 10.1791 90.3789 10.4492C91.2439 10.961 92.1088 11.4727 93 12C93.6187 12.4125 94.2375 12.825 94.875 13.25C95.2463 13.8275 95.6175 14.405 96 15C96.1238 16.0519 96.2475 17.1037 96.375 18.1875C96.3441 18.7946 96.3131 19.4018 96.2812 20.0273C96.1884 20.6783 96.0956 21.3293 96 22C95.8453 22.7025 95.6906 23.4051 95.5312 24.1289C95.3147 24.8289 95.0981 25.5288 94.875 26.25C94.6056 26.919 94.3362 27.588 94.0586 28.2773C93.7093 28.8458 93.3599 29.4143 93 30C92.5166 30.3519 92.0332 30.7038 91.5352 31.0664C91.0079 31.3126 90.4807 31.5588 89.9375 31.8125C88.9681 32.2044 87.9987 32.5962 87 33C86.5462 33.5569 86.0925 34.1137 85.625 34.6875C85.4188 35.1206 85.2125 35.5538 85 36C85.727 36.2746 86.4541 36.5491 87.2031 36.832C88.1261 37.2175 89.0491 37.6029 90 38C90.7373 38.4164 91.4747 38.8327 92.2344 39.2617C93.0645 39.7322 93.8947 40.2027 94.75 40.6875C95.7761 41.2134 96.8022 41.7394 97.8594 42.2812C98.4788 42.5597 99.0982 42.8381 99.7363 43.125C100.483 43.4137 101.23 43.7025 102 44C102.969 44.3016 103.937 44.6033 104.936 44.9141C106.014 45.2209 107.092 45.5277 108.203 45.8438C108.757 45.9977 109.311 46.1516 109.882 46.3103C110.442 46.4635 111.002 46.6168 111.579 46.7747C112.144 46.9267 112.708 47.0787 113.29 47.2353C113.854 47.3845 114.419 47.5337 115 47.6875C116.111 47.9726 117.222 48.2577 118.366 48.5515C119.421 48.8271 120.476 49.1027 121.562 49.3867C122.513 49.6261 123.463 49.8654 124.441 50.1121C125.286 50.4051 126.13 50.6981 127 51C127.772 51.487 128.544 51.974 129.34 52.4758C130.162 53.2303 130.162 53.2303 131 54C131 54.66 131 55.32 131 56C129.987 56.0503 128.974 56.1005 127.93 56.1523C126.968 56.1521 126.968 56.1521 125.987 56.1519C125.331 56.1017 124.676 56.0516 124 56C123.136 55.7759 123.136 55.7759 122.255 55.5474C121.699 55.3474 121.143 55.1474 120.57 54.9414C120.007 54.7202 119.443 54.4989 118.863 54.271C118.002 53.9203 118.002 53.9203 117.125 53.5625C116.52 53.3339 115.915 53.1052 115.292 52.8696C114.686 52.6484 114.081 52.4272 113.457 52.1992C112.869 51.9883 112.28 51.7774 111.674 51.5601C111.122 51.3752 110.569 51.1904 110 51C109.076 50.7589 108.151 50.5179 107.199 50.2695C106.412 50.1393 105.624 50.0091 104.812 49.875C104.118 49.8363 103.423 49.7977 102.707 49.7578C102.144 49.8377 101.58 49.9177 101 50C100.34 50.5775 99.68 51.155 99 51.75C98.505 53.3587 98.505 53.3587 98 55C97.8724 55.9191 97.7448 56.8382 97.6133 57.7852C97.514 58.7842 97.4148 59.7832 97.3125 60.8125C97.2468 61.7883 97.181 62.7641 97.1133 63.7695C97.0759 64.5056 97.0385 65.2416 97 66C97.7502 66.1096 98.5005 66.2191 99.2734 66.332C100.809 66.5699 100.809 66.5699 102.375 66.8125C103.469 66.993 104.564 67.1734 105.691 67.3594C106.783 67.5708 107.875 67.7822 109 68C109.917 68.2527 110.833 68.5053 111.777 68.7656C112.614 69.0286 113.451 69.2916 114.312 69.5625C115.113 69.8216 115.914 70.0807 116.738 70.3477C117.485 70.5629 118.231 70.7782 119 71C120.042 71.1528 120.042 71.1528 121.105 71.3086C122.043 71.4033 122.043 71.4033 123 71.5C124.485 71.7475 124.485 71.7475 126 72C126.495 72.495 126.99 72.99 127.5 73.5C127.665 73.995 127.83 74.49 128 75C127.67 75.33 127.34 75.66 127 76C125.975 76.0438 124.95 76.0877 123.895 76.1328C123.247 76.1347 122.599 76.1367 121.932 76.1387C120.883 76.1319 120.883 76.1319 119.812 76.125C119.102 76.1231 118.391 76.1211 117.658 76.1191C116.569 76.1104 116.569 76.1104 115.457 76.1016C114.718 76.089 113.979 76.0764 113.217 76.0635C112.486 76.0425 111.754 76.0216 111 76C110.298 75.9662 109.596 75.9323 108.873 75.8975C107.859 75.8361 107.859 75.8361 106.824 75.7734C106.179 75.7294 105.534 75.6855 104.87 75.6401C104.253 75.5939 103.636 75.5476 103 75.5C102.093 75.4287 102.093 75.4287 101.167 75.356C100.617 75.3107 100.067 75.2654 99.5 75.2188C98.675 75.1466 97.85 75.0744 97 75C96.835 75.9075 96.67 76.815 96.5 77.75C96.335 78.8225 96.17 79.895 96 81C95.9128 81.7031 95.8257 82.4062 95.7358 83.1306C95.8666 84.056 95.8666 84.056 96 85C96.5139 85.2553 97.0277 85.5106 97.5571 85.7737C98.631 85.965 98.631 85.965 99.7266 86.1602C100.512 86.3142 101.297 86.4682 102.105 86.627C102.937 86.7707 103.768 86.9144 104.625 87.0625C105.433 87.2101 106.241 87.3577 107.074 87.5098C107.867 87.6625 108.66 87.8153 109.477 87.9727C110.249 88.1288 111.022 88.2849 111.817 88.4458C112.538 88.6287 113.258 88.8116 114 89C114.635 89.2486 115.27 89.4973 115.925 89.7534C116.473 90.0191 117.021 90.2848 117.586 90.5586C118.383 91.0343 119.179 91.5099 120 92C120 92.33 120 92.66 120 93C119.154 93.156 118.309 93.312 117.438 93.4727C116.303 93.6673 115.169 93.862 114 94.0625C112.886 94.2597 111.773 94.457 110.625 94.6602C110.049 94.7377 109.473 94.8152 108.879 94.895C108.259 94.9297 107.639 94.9643 107 95C106.267 94.9457 105.533 94.8914 104.777 94.8354C104.046 94.7441 103.316 94.6527 102.562 94.5586C101.883 94.4573 101.204 94.356 100.504 94.2517C100.008 94.1686 99.5113 94.0856 99 94C99.0251 94.5243 99.0501 95.0487 99.0759 95.5889C99.1115 96.3175 99.147 97.0462 99.1836 97.7969C99.2242 98.5909 99.2648 99.385 99.3066 100.203C99.3498 101.044 99.393 101.884 99.4375 102.75C99.4768 103.575 99.5161 104.4 99.5566 105.25C99.5985 106.049 99.6404 106.848 99.6836 107.672C99.7203 108.405 99.7569 109.138 99.7947 109.894C99.8624 110.589 99.9302 111.284 100 112C100.093 112.725 100.187 113.451 100.283 114.198C100.52 114.793 100.756 115.387 101 116C101.546 116.255 102.092 116.511 102.655 116.774C103.711 116.965 103.711 116.965 104.789 117.16C105.566 117.314 106.344 117.468 107.145 117.627C107.963 117.771 108.782 117.914 109.625 118.062C110.42 118.21 111.216 118.358 112.035 118.51C112.82 118.663 113.605 118.815 114.414 118.973C115.571 119.205 115.571 119.205 116.751 119.442C117.493 119.626 118.235 119.81 119 120C119.709 120.26 120.417 120.52 121.147 120.789C121.787 121.063 122.427 121.338 123.086 121.621C124.048 122.076 125.009 122.531 126 123C125.67 123.66 125.34 124.32 125 125C123.94 125.088 122.881 125.175 121.789 125.266C120.794 125.271 120.794 125.271 119.779 125.277C119.068 125.268 118.357 125.259 117.625 125.25C116.547 125.244 116.547 125.244 115.447 125.238C114.725 125.227 114.002 125.215 113.258 125.203C112.538 125.178 111.817 125.153 111.075 125.127C110.39 125.085 109.706 125.043 109 125C108.093 124.898 108.093 124.898 107.167 124.795C106.614 124.713 106.062 124.631 105.492 124.547C104.505 124.366 103.517 124.186 102.5 124C101.185 123.722 101.185 123.722 99.8438 123.438C98.9311 123.221 98.9311 123.221 98 123C98.1212 123.736 98.2423 124.472 98.3672 125.23C98.5348 126.206 98.7023 127.182 98.875 128.188C99.0374 129.15 99.1998 130.113 99.3672 131.105C99.6804 132.538 99.6804 132.538 100 134C100.351 134.866 100.701 135.733 101.062 136.625C101.372 137.409 101.681 138.192 102 139C102.097 140 102.097 140 102.195 141.02C102.172 141.611 102.149 142.203 102.125 142.812C102.084 143.864 102.043 144.916 102 146C101.34 146 100.68 146 100 146C99.6296 145.382 99.2593 144.764 98.8777 144.127C98.4682 143.259 98.0586 142.391 97.6367 141.496C96.9341 140.054 96.9341 140.054 96.2173 138.582C95.7125 137.544 95.2076 136.507 94.6875 135.438C94.4273 134.915 94.1672 134.392 93.8991 133.854C93.6338 133.33 93.3685 132.806 93.0952 132.266C92.8247 131.741 92.5542 131.217 92.2755 130.677C91.8626 129.891 91.8626 129.891 91.4414 129.09C91.0215 128.302 91.0215 128.302 90.5932 127.499C90.3099 126.983 90.0267 126.468 89.7349 125.937C89.1624 124.968 88.5899 123.999 88 123C87.4262 122.192 86.8524 121.384 86.2612 120.551C85.689 119.834 85.1169 119.118 84.5273 118.379C83.9586 117.713 83.3899 117.046 82.804 116.36C82.2499 115.746 81.6958 115.132 81.125 114.5C80.3413 113.65 80.3413 113.65 79.5417 112.783C79.0355 112.246 78.5294 111.709 78.0078 111.156C77.5067 110.639 77.0056 110.122 76.4893 109.59C75.9978 109.065 75.5063 108.541 75 108C74.5266 107.424 74.0532 106.848 73.5654 106.254C73.0875 105.665 72.6096 105.076 72.1172 104.469C71.6224 103.884 71.1277 103.299 70.6179 102.696C70.084 102.137 69.5501 101.577 69 101C68.3894 100.51 67.7788 100.02 67.1497 99.5146C66.4957 99.0406 65.8417 98.5665 65.168 98.0781C64.4904 97.5915 63.8128 97.1049 63.1147 96.6035C62.4169 96.0744 61.719 95.5452 61 95C60.2905 94.3729 59.5811 93.7457 58.8501 93.0996C57.7738 92.0835 57.7738 92.0835 56.6758 91.0469C55.9571 90.3443 55.2385 89.6418 54.498 88.918C53.7768 88.2025 53.0556 87.4871 52.3125 86.75C51.5797 86.05 50.8468 85.3501 50.0918 84.6289C49.377 83.9212 48.6622 83.2135 47.9258 82.4844C47.2483 81.7628 46.5708 81.0413 45.8728 80.2979C45.2548 79.5396 44.6368 78.7813 44 78C43.4754 77.1566 42.9509 76.3133 42.4104 75.4443C41.963 74.5861 41.5156 73.7279 41.0547 72.8438C40.6726 72.0081 40.2904 71.1725 39.8967 70.3115C39.4528 69.1673 39.4528 69.1673 39 68C38.7177 66.8811 38.4354 65.7622 38.1445 64.6094C38.035 63.6658 37.9254 62.7222 37.8125 61.75C37.6771 60.7497 37.5418 59.7494 37.4023 58.7188C37.2032 57.373 37.2032 57.373 37 56C36.8157 55.3091 36.6313 54.6181 36.4414 53.9062C36.2545 53.3597 36.0676 52.8131 35.875 52.25C35.5863 51.5075 35.2975 50.765 35 50C35.7837 49.9381 36.5675 49.8762 37.375 49.8125C38.2412 49.5444 39.1075 49.2763 40 49C40.29 48.2639 40.5801 47.5279 40.8789 46.7695C41.2489 45.8556 41.6188 44.9416 42 44C42.6819 43.1518 43.3638 42.3036 44.0664 41.4297C44.4655 41.0095 44.8645 40.5892 45.2756 40.1562C45.7003 39.7334 46.125 39.3106 46.5625 38.875C47.2198 38.2137 47.2198 38.2137 47.8904 37.5391C48.3391 37.1111 48.7877 36.6831 49.25 36.2422C49.705 35.8435 50.1601 35.4449 50.6289 35.0342C51.0814 34.6929 51.5338 34.3516 52 34C52.8662 33.5901 53.7325 33.1802 54.625 32.7578C55.4294 32.5077 56.2337 32.2577 57.0625 32C58.1627 31.7525 58.1627 31.7525 59.2852 31.5C59.8511 31.335 60.417 31.17 61 31C61.33 30.34 61.66 29.68 62 29C61.6223 28.3813 61.2446 27.7625 60.8555 27.125C60.305 26.4237 59.7546 25.7225 59.1875 25C58.6448 24.2987 58.1021 23.5975 57.543 22.875C57.0338 22.2563 56.5246 21.6375 56 21C55.34 20.34 54.68 19.68 54 19C53.3688 18.9657 52.7377 18.9314 52.0874 18.896C51.3032 18.9793 50.5189 19.0626 49.7109 19.1484C48.8147 19.2577 47.9185 19.3669 46.9951 19.4795C46.0067 19.6513 45.0183 19.823 44 20C42.4207 20.3775 42.4207 20.3775 40.8096 20.7627C39.7097 21.0601 38.6098 21.3576 37.4766 21.6641C36.9176 21.8206 36.3586 21.9771 35.7827 22.1384C35.2189 22.299 34.6551 22.4595 34.0742 22.625C33.5075 22.7887 32.9408 22.9524 32.3569 23.1211C31.7854 23.2874 31.2139 23.4537 30.625 23.625C29.7517 23.8798 29.7517 23.8798 28.8608 24.1396C28.2816 24.3075 27.7023 24.4754 27.1055 24.6484C26.5382 24.8086 25.9708 24.9687 25.3863 25.1336C24.5647 25.3653 24.5647 25.3653 23.7266 25.6016C22.7219 25.8937 21.7172 26.1858 20.6821 26.4868C19.797 26.6562 18.9119 26.8255 18 27C16.8638 26.8576 16.8638 26.8576 15.7046 26.7124C14.8608 26.3598 14.8608 26.3598 14 26C13.67 25.34 13.34 24.68 13 24C13.7902 23.6249 14.5804 23.2498 15.3945 22.8633C15.9275 22.6182 16.4604 22.3731 17.0095 22.1206C17.6045 21.8539 18.1995 21.5873 18.8125 21.3125C19.7504 20.9048 19.7504 20.9048 20.7073 20.4888C21.3685 20.2127 22.0297 19.9367 22.7109 19.6523C23.7585 19.2344 23.7585 19.2344 24.8271 18.8081C25.5442 18.5414 26.2612 18.2748 27 18C27.7119 17.7656 28.4238 17.5311 29.1572 17.2896C29.8814 17.0715 30.6055 16.8535 31.3516 16.6289C32.0976 16.4186 32.8437 16.2083 33.6123 15.9917C34.3796 15.7882 35.1469 15.5847 35.9375 15.375C36.728 15.1741 37.5185 14.9731 38.333 14.7661C39.1487 14.5687 39.9643 14.3713 40.8047 14.168C42.0649 13.8787 42.0649 13.8787 43.3506 13.5835C44.662 13.2947 44.662 13.2947 46 13C46.9259 12.801 47.8517 12.602 48.8057 12.397C49.7592 12.2002 50.7128 12.0035 51.6953 11.8008C53.1438 11.5179 53.1438 11.5179 54.6216 11.2292C55.5921 11.0505 56.5626 10.8717 57.5625 10.6875C59.0086 10.4377 59.0086 10.4377 60.4839 10.1829C61.438 10.0323 62.392 9.8817 63.375 9.72656C64.3147 9.59411 65.2545 9.46166 66.2227 9.3252C67.1392 9.21788 68.0557 9.11057 69 9ZM65 15C64.67 15.99 64.34 16.98 64 18C64.2062 18.8662 64.4125 19.7325 64.625 20.625C65.3056 21.8006 65.3056 21.8006 66 23C66.8456 23.2062 67.6913 23.4125 68.5625 23.625C69.3669 23.7488 70.1712 23.8725 71 24C71.33 24.99 71.66 25.98 72 27C72.6845 27.1431 73.369 27.2862 74.0742 27.4336C74.9366 27.4349 75.799 27.4362 76.6875 27.4375C77.5886 27.4104 78.4896 27.3834 79.418 27.3555C80.27 27.2382 81.1221 27.1209 82 27C82.6355 26.7486 83.271 26.4973 83.9258 26.2383C84.705 25.7491 84.705 25.7491 85.5 25.25C86.325 24.5075 87.15 23.765 88 23C88.5156 22.3194 89.0312 21.6388 89.5625 20.9375C89.7069 20.2981 89.8512 19.6587 90 19C89.5875 18.4431 89.175 17.8863 88.75 17.3125C88.1725 16.8794 87.595 16.4462 87 16C86.34 15.67 85.68 15.34 85 15C83.9867 14.9202 83.9867 14.9202 82.9529 14.8389C82.1318 14.825 81.3108 14.8112 80.4648 14.7969C79.5735 14.7866 78.6821 14.7763 77.7637 14.7656C76.831 14.7605 75.8984 14.7553 74.9375 14.75C73.5327 14.7191 73.5327 14.7191 72.0996 14.6875C71.2095 14.6823 70.3194 14.6772 69.4023 14.6719C68.5824 14.6625 67.7625 14.6532 66.9177 14.6436C65.9685 14.82 65.9685 14.82 65 15ZM68 36C67.3813 36.4705 66.7625 36.941 66.125 37.4258C65.4237 38.0484 64.7225 38.671 64 39.3125C63.2987 39.9274 62.5975 40.5423 61.875 41.1758C61.2563 41.7778 60.6375 42.3798 60 43C59.5836 43.5298 59.1673 44.0596 58.7383 44.6055C58.3728 45.2958 58.3728 45.2958 58 46C58.0619 46.66 58.1238 47.32 58.1875 48C58.5897 48.99 58.5897 48.99 59 50C59.4236 50.4941 59.8472 50.9882 60.2837 51.4973C60.8501 51.9932 61.4165 52.4891 62 53C62.6618 53.3547 63.3235 53.7095 64.0054 54.075C64.7538 54.3944 65.5023 54.7138 66.2734 55.043C67.0984 55.3942 67.9234 55.7455 68.7734 56.1074C69.632 56.4638 70.4905 56.8203 71.375 57.1875C72.2258 57.5555 73.0766 57.9236 73.9531 58.3027C74.7807 58.6501 75.6083 58.9975 76.4609 59.3555C77.2117 59.6715 77.9624 59.9876 78.7358 60.3132C79.483 60.5399 80.2302 60.7665 81 61C82.347 61.0818 82.347 61.0818 83.7212 61.1653C84.4732 61.1107 85.2252 61.0562 86 61C86.33 60.67 86.66 60.34 87 60C87.1179 58.5053 87.1179 58.5053 87.2383 56.9805C87.2605 56.0649 87.2605 56.0649 87.2832 55.1309C87.2929 54.4896 87.3025 53.8482 87.3125 53.1875C87.356 52.2429 87.356 52.2429 87.4004 51.2793C87.4088 50.6651 87.4171 50.0508 87.4258 49.418C87.2853 48.29 87.1448 47.1621 87 46C86.4702 45.2588 85.9404 44.5176 85.3945 43.7539C84.6043 43.1751 83.8141 42.5963 83 42C82.4999 41.7147 81.9998 41.4294 81.4846 41.1355C80.9406 40.8588 80.3965 40.582 79.8359 40.2969C79.2713 40.0391 78.7067 39.7812 78.125 39.5156C77.5475 39.263 76.97 39.0103 76.375 38.75C75.7898 38.4819 75.2045 38.2138 74.6016 37.9375C74.0395 37.6848 73.4775 37.4322 72.8984 37.1719C71.942 36.7852 70.9855 36.3984 70 36C69.34 36 68.68 36 68 36ZM51 57C50.2781 57.7219 49.5562 58.4438 48.8125 59.1875C47.9153 60.5797 47.9153 60.5797 47 62C46.6287 63.3922 46.6287 63.3922 46.25 64.8125C46.1675 65.5344 46.085 66.2563 46 67C46.6394 67.0619 47.2788 67.1238 47.9375 67.1875C48.6181 67.4556 49.2987 67.7237 50 68C50.1238 68.7425 50.2475 69.485 50.375 70.25C50.6844 71.6113 50.6844 71.6113 51 73C51.8044 73.8044 52.6087 74.6087 53.4375 75.4375C53.9905 75.8436 54.5435 76.2496 55.1133 76.668C55.7359 77.1075 56.3585 77.5471 57 78C57.6329 78.5324 58.2659 79.0648 58.918 79.6133C59.6463 80.1534 60.3746 80.6935 61.125 81.25C61.9629 81.7502 62.8008 82.2503 63.6641 82.7656C64.1633 82.9867 64.6624 83.2078 65.1768 83.4355C65.7784 83.6218 66.3801 83.8081 67 84C68.1771 84.1943 68.1771 84.1943 69.3779 84.3926C70.2509 84.4847 71.124 84.5769 72.0234 84.6719C73.3709 84.7681 73.3709 84.7681 74.7456 84.8662C76.109 84.9324 76.109 84.9324 77.5 85C78.3973 85.0416 79.2947 85.0831 80.2192 85.126C81.4874 85.1564 81.4874 85.1564 82.7812 85.1875C83.545 85.2017 84.3088 85.2159 85.0957 85.2305C85.7241 85.1544 86.3525 85.0784 87 85C87.66 84.34 88.32 83.68 89 83C89.0877 82.4161 89.1753 81.8321 89.2656 81.2305C89.2579 80.2192 89.2579 80.2192 89.25 79.1875C89.2255 78.4759 89.201 77.7644 89.1758 77.0312C89.1178 76.3609 89.0598 75.6906 89 75C88.7216 73.6078 88.7216 73.6078 88.4375 72.1875C87.9631 71.4656 87.4888 70.7437 87 70C86.0719 69.4844 85.1438 68.9688 84.1875 68.4375C83.5662 68.2055 82.9448 67.9734 82.3047 67.7344C81.5441 67.492 80.7836 67.2497 80 67C79.0332 66.7164 78.0664 66.4328 77.0703 66.1406C75.9952 65.8261 74.9202 65.5116 73.8125 65.1875C73.2579 65.0266 72.7033 64.8657 72.1318 64.7C71.5701 64.5296 71.0084 64.3592 70.4297 64.1836C69.8635 64.0004 69.2972 63.8172 68.7139 63.6284C68.1483 63.421 67.5827 63.2137 67 63C66.4396 62.7475 65.8792 62.495 65.3018 62.2349C64.751 61.9627 64.2003 61.6906 63.6328 61.4102C63.0955 61.136 62.5582 60.8618 62.0046 60.5793C61.4875 60.3057 60.9703 60.032 60.4375 59.75C59.4875 59.2292 58.5374 58.7084 57.5586 58.1719C56.7143 57.7852 55.8699 57.3984 55 57C54.273 56.8982 53.5459 56.7963 52.7969 56.6914C52.2039 56.7932 51.6109 56.8951 51 57ZM69 88C68.34 88.66 67.68 89.32 67 90C67.4125 90.423 67.825 90.8459 68.25 91.2817C68.8275 91.872 69.405 92.4622 70 93.0703C70.6407 93.72 71.2813 94.3697 71.9414 95.0391C72.6207 95.7274 73.3001 96.4158 74 97.125C74.6484 97.7902 75.2968 98.4553 75.9648 99.1406C76.6158 99.798 77.2668 100.455 77.9375 101.133C78.9256 102.106 78.9256 102.106 79.9336 103.099C80.6155 103.726 81.2974 104.354 82 105C82.7541 105.604 83.5082 106.208 84.2852 106.831C85.0161 107.379 85.747 107.927 86.5 108.492C87.1703 108.978 87.8406 109.464 88.5312 109.964C89.2583 110.477 89.2583 110.477 90 111C90.0393 110.251 90.0393 110.251 90.0793 109.487C90.1112 108.794 90.143 108.101 90.1758 107.387C90.1983 106.633 90.2209 105.88 90.2441 105.104C90.2667 104.306 90.2893 103.509 90.3125 102.688C90.3544 101.902 90.3963 101.116 90.4395 100.307C90.4556 99.5493 90.4717 98.792 90.4883 98.0117C90.435 96.9339 90.435 96.9339 90.3806 95.8342C90.255 95.2289 90.1294 94.6236 90 94C89.3374 93.3632 88.6748 92.7264 87.9922 92.0703C86.5111 91.5405 86.5111 91.5405 85 91C84.3799 90.8261 83.7598 90.6521 83.1208 90.4729C82.1116 90.2291 82.1116 90.2291 81.082 89.9805C80.3853 89.8458 79.6886 89.7111 78.9707 89.5723C78.2585 89.4453 77.5463 89.3183 76.8125 89.1875C76.0887 89.0412 75.3649 88.8949 74.6191 88.7441C73.9263 88.6159 73.2334 88.4876 72.5195 88.3555C71.5775 88.1799 71.5775 88.1799 70.6165 88.0007C69.8163 88.0004 69.8163 88.0004 69 88Z" fill="black"/>
</g>
<defs>
<clipPath id="clip0_7_859">
<rect width="456" height="2405" fill="white" transform="translate(-304)"/>
</clipPath>
</defs>
</svg>
