<svg width="152" height="234" viewBox="0 0 152 234" fill="none" xmlns="http://www.w3.org/2000/svg">
<g clip-path="url(#clip0_7_859)">
<path d="M114 156C114.949 155.752 115.897 155.505 116.875 155.25C117.576 155.498 118.277 155.745 119 156C119.29 156.75 119.58 157.5 119.879 158.273C119.939 159.623 119.939 159.623 120 161C119.475 161.73 118.951 162.459 118.41 163.211C117.635 163.925 116.861 164.639 116.062 165.375C115.226 166.155 114.389 166.935 113.527 167.738C112.693 168.485 111.859 169.231 111 170C110.341 170.612 109.683 171.225 109.004 171.855C108.384 172.419 107.764 172.982 107.125 173.562C106.482 174.116 105.839 174.669 105.176 175.238C104.458 175.82 103.74 176.401 103 177C102.086 177.695 101.172 178.39 100.23 179.105C99.7476 179.462 99.2646 179.819 98.7671 180.187C98.2871 180.538 97.8071 180.889 97.3125 181.25C96.4218 181.895 95.531 182.539 94.6133 183.203C93.3197 184.093 93.3197 184.093 92 185C90.691 185.704 90.691 185.704 89.3555 186.422C88.5782 186.943 87.8009 187.463 87 188C86.4315 188.699 85.863 189.397 85.2773 190.117C84.8558 191.069 84.4343 192.02 84 193C83.8532 193.673 83.7064 194.346 83.5552 195.04C83.4351 195.793 83.3151 196.545 83.1914 197.32C83.0838 198.103 82.9761 198.885 82.8652 199.691C82.7653 200.494 82.6654 201.298 82.5625 202.125C82.4665 202.936 82.3704 203.747 82.2715 204.582C82.1081 205.752 82.1081 205.752 81.9414 206.945C81.8165 207.671 81.6917 208.397 81.563 209.146C81.3772 209.757 81.1914 210.369 81 211C80.3078 211.678 79.6155 212.356 78.9023 213.055C78.2746 213.367 77.6468 213.679 77 214C76.514 213.321 76.028 212.641 75.5273 211.941C75.0233 210.971 74.5193 210 74 209C73.8775 207.875 73.7551 206.749 73.6289 205.59C73.6115 204.992 73.5941 204.395 73.5762 203.779C73.5717 203.172 73.5671 202.564 73.5625 201.938C73.5619 201.326 73.5612 200.714 73.5605 200.084C73.5325 199.19 73.5325 199.19 73.5039 198.277C73.3376 197.196 73.1713 196.114 73 195C72.4416 194.31 71.8832 193.62 71.3079 192.909C70.5463 192.279 69.7847 191.649 69 191C68.1545 190.654 67.3091 190.308 66.438 189.951C65.4917 189.698 64.5453 189.444 63.5703 189.184C62.5275 188.894 61.4846 188.605 60.4102 188.307C59.3261 188.02 58.242 187.733 57.125 187.438C55.5104 187.001 55.5104 187.001 53.8633 186.557C52.2951 186.124 52.2951 186.124 50.6953 185.684C49.6979 185.402 48.7005 185.121 47.6729 184.832C46.7908 184.557 45.9088 184.283 45 184C44.3319 183.732 43.6639 183.464 42.9756 183.188C42.4448 182.931 41.914 182.675 41.3672 182.41C40.1954 181.712 40.1954 181.712 39 181C38.34 180.34 37.68 179.68 37 179C37.1238 178.134 37.2475 177.267 37.375 176.375C37.5812 175.591 37.7875 174.808 38 174C38.5711 174.086 39.1421 174.173 39.7305 174.262C40.5413 174.402 41.3521 174.543 42.1875 174.688C43.0976 174.865 44.0077 175.043 44.9453 175.227C46.4574 175.609 46.4574 175.609 48 176C49.6049 176.599 49.6049 176.599 51.2422 177.211C51.7889 177.432 52.3356 177.652 52.8989 177.879C53.7224 178.218 53.7224 178.218 54.5625 178.562C55.1102 178.787 55.6579 179.011 56.2222 179.242C56.7624 179.456 57.3027 179.67 57.8594 179.891C58.8958 180.257 59.9322 180.623 61 181C61.9333 181.18 62.8666 181.361 63.8281 181.547C64.648 181.635 65.4678 181.722 66.3125 181.812C67.0305 181.86 67.7485 181.908 68.4883 181.957C68.9871 181.971 69.486 181.985 70 182C70.1096 181.085 70.2191 180.17 70.332 179.227C70.4471 178.36 70.4471 178.36 70.5645 177.477C70.6463 176.866 70.7282 176.255 70.8125 175.625C70.8828 175.022 70.953 174.418 71.0254 173.797C71.106 173.217 71.1865 172.637 71.2695 172.039C71.5106 171.036 71.7516 170.033 72 169C72.5195 168.533 73.039 168.067 73.5742 167.586C74.0447 167.393 74.5152 167.199 75 167C75.3751 167.638 75.7502 168.276 76.1367 168.934C76.9044 170.173 76.9044 170.173 77.6875 171.438C78.1864 172.261 78.6852 173.085 79.1992 173.934C79.7935 174.616 80.3877 175.297 81 176C81.7863 176.309 82.5727 176.619 83.3828 176.938C84.2465 176.958 85.1102 176.979 86 177C87.2588 176.538 87.2588 176.538 88.543 176.066C89.4157 175.57 90.2884 175.074 91.1875 174.562C92.1453 174.006 93.103 173.449 94.0898 172.875C95.0502 172.256 96.0105 171.637 97 171C97.8882 170.361 98.7763 169.721 99.6914 169.062C100.536 168.402 101.38 167.743 102.25 167.062C103.063 166.393 103.877 165.724 104.715 165.035C105.846 164.028 105.846 164.028 107 163C107.661 162.318 108.323 161.636 109.004 160.934C109.601 160.296 110.198 159.657 110.812 159C111.63 158.157 111.63 158.157 112.465 157.297C112.971 156.869 113.478 156.441 114 156Z" fill="black"/>
<path d="M111 80C112.176 80.6187 112.176 80.6187 113.375 81.25C114.241 81.8275 115.108 82.405 116 83C116.376 83.5762 116.753 84.1524 117.141 84.7461C117.424 85.4899 117.708 86.2337 118 87C118.111 87.8933 118.222 88.7866 118.336 89.707C118.355 91.2442 118.355 91.2442 118.375 92.8125C118.37 93.3809 118.366 93.9493 118.361 94.5349C118.343 95.1267 118.324 95.7184 118.305 96.3281C118.266 96.9346 118.227 97.5411 118.187 98.166C118.125 98.7712 118.063 99.3764 118 100C117.91 100.577 117.82 101.154 117.728 101.748C117.614 102.321 117.5 102.894 117.383 103.484C117.179 104.362 117.179 104.362 116.971 105.257C116.816 105.853 116.66 106.449 116.5 107.062C116.33 107.669 116.161 108.275 115.986 108.899C115.795 109.531 115.603 110.162 115.406 110.812C115.083 111.804 115.083 111.804 114.754 112.816C114.505 113.537 114.256 114.258 114 115C113.7 115.831 113.399 116.663 113.09 117.52C112.761 118.4 112.432 119.28 112.094 120.188C111.75 121.078 111.407 121.969 111.053 122.886C110.705 123.77 110.358 124.653 110 125.562C109.668 126.408 109.336 127.253 108.994 128.123C108.502 129.333 108.502 129.333 108 130.566C107.668 131.332 107.335 132.098 106.993 132.887C106.665 133.584 106.338 134.282 106 135C105.69 135.588 105.381 136.175 105.062 136.781C104.747 137.295 104.433 137.81 104.109 138.34C103.413 139.218 102.717 140.096 102 141C101.098 141.701 100.195 142.402 99.2656 143.125C98.7785 143.436 98.2914 143.747 97.7896 144.068C97.2815 144.375 96.7734 144.683 96.25 145C95.7149 145.335 95.1798 145.671 94.6284 146.016C94.0936 146.355 93.5588 146.694 93.0078 147.043C92.4874 147.372 91.9669 147.701 91.4307 148.041C90.9585 148.357 90.4864 148.674 90 149C89.3168 149.574 88.6336 150.147 87.9297 150.738C87.3341 151.258 86.7386 151.777 86.125 152.312C85.5024 152.788 84.8798 153.264 84.2383 153.754C83.4996 154.165 82.761 154.576 82 155C80.9623 155.318 79.9246 155.637 78.8555 155.965C78.2814 156.101 77.7074 156.237 77.116 156.376C76.5208 156.5 75.9257 156.623 75.3125 156.75C74.7116 156.863 74.1106 156.976 73.4915 157.092C72.8858 157.197 72.2802 157.302 71.6562 157.41C71.0478 157.508 70.4394 157.606 69.8125 157.708C69.2144 157.804 68.6162 157.901 68 158C66.8759 158.205 65.7519 158.41 64.5938 158.621C63.5109 158.808 62.4281 158.995 61.3125 159.188C60.2568 159.341 59.201 159.494 58.1133 159.652C57.0859 159.767 56.0585 159.882 55 160C53.9829 160.063 52.9659 160.126 51.918 160.191C50.955 160.211 49.9921 160.23 49 160.25C47.7316 160.258 47.7316 160.258 46.4375 160.266C45.6331 160.178 44.8288 160.09 44 160C43.0719 159.727 42.1438 159.453 41.1875 159.172C40.4656 158.785 39.7437 158.398 39 158C39 157.01 39 156.02 39 155C39.4836 154.807 39.9671 154.614 40.4653 154.416C41.1394 154.319 41.8134 154.221 42.5078 154.121C43.2477 154.004 43.9877 153.888 44.75 153.768C45.5337 153.659 46.3175 153.55 47.125 153.438C47.8855 153.325 48.6461 153.212 49.4297 153.096C50.5512 152.923 50.5512 152.923 51.6953 152.746C52.4265 152.631 53.1578 152.516 53.9111 152.398C54.6005 152.267 55.2898 152.135 56 152C56.6249 151.824 57.2497 151.647 57.8936 151.465C58.4417 151.282 58.9899 151.099 59.5547 150.91C60.7651 150.46 60.7651 150.46 62 150C61.8969 149.113 61.7938 148.226 61.6875 147.312C61.3472 145.673 61.3472 145.673 61 144C60.4844 143.092 59.9688 142.185 59.4375 141.25C58.9631 140.507 58.4888 139.765 58 139C58 138.34 58 137.68 58 137C57.0719 136.649 56.1438 136.299 55.1875 135.938C54.561 135.774 53.9345 135.61 53.2891 135.441C52.5337 135.296 51.7783 135.15 51 135C50.0384 134.885 49.0767 134.771 48.0859 134.652C47.0882 134.561 46.0905 134.469 45.0625 134.375C44.1047 134.3 43.147 134.225 42.1602 134.148C41.4473 134.099 40.7345 134.05 40 134C40.1109 133.397 40.2217 132.793 40.3359 132.171C40.5551 131.455 40.7742 130.738 41 130C41.3841 129.53 41.7683 129.059 42.1641 128.575C42.6462 128.14 43.1283 127.706 43.625 127.258C44.1625 126.756 44.6999 126.255 45.2537 125.738C45.83 125.206 46.4062 124.673 47 124.125C47.5872 123.561 48.1745 122.996 48.7795 122.415C49.3692 121.829 49.9589 121.244 50.5664 120.641C51.1518 120.042 51.7372 119.443 52.3403 118.826C53.1619 117.922 53.1619 117.922 54 117C54.4613 116.408 54.9226 115.815 55.3979 115.205C55.8119 114.617 56.2258 114.028 56.6523 113.422C57.0403 112.835 57.4282 112.248 57.8279 111.643C58.1941 111.06 58.5602 110.476 58.9375 109.875C59.2953 109.295 59.6531 108.716 60.0217 108.119C60.3652 107.546 60.7086 106.973 61.0625 106.383C61.5517 105.538 61.5517 105.538 62.0508 104.677C62.364 104.123 62.6773 103.57 63 103C63.3055 102.454 63.611 101.909 63.9258 101.347C64.3647 100.552 64.3647 100.552 64.8125 99.7422C65.3487 98.7548 65.885 97.7673 66.4375 96.75C66.89 95.8786 67.3424 95.0072 67.8086 94.1094C68.2018 93.4133 68.5949 92.7172 69 92C69.66 91.34 70.32 90.68 71 90C71.7837 89.8556 72.5675 89.7113 73.375 89.5625C74.6744 89.7791 74.6744 89.7791 76 90C76.5981 90.8044 77.1963 91.6087 77.8125 92.4375C78.5344 93.2831 79.2563 94.1288 80 95C80.8001 95.218 80.8001 95.218 81.6165 95.4404C82.5585 95.5241 82.5585 95.5241 83.5195 95.6094C84.231 95.6757 84.9425 95.742 85.6755 95.8103C86.8261 95.9042 86.8261 95.9042 88 96C88.7922 96.0877 89.5844 96.1755 90.4006 96.2659C91.6216 96.3914 91.6216 96.3914 92.8672 96.5195C93.6897 96.5785 94.5122 96.6375 95.3596 96.6982C96.6047 96.7548 96.6047 96.7548 97.875 96.8125C99.154 96.8478 99.154 96.8478 100.459 96.8838C101.273 96.8616 102.087 96.8393 102.926 96.8164C103.669 96.7341 104.412 96.6517 105.178 96.5669C105.779 96.3798 106.381 96.1927 107 96C107.53 95.1634 108.06 94.3268 108.605 93.4648C108.832 91.8735 108.832 91.8735 109.062 90.25C109.053 89.1827 109.044 88.1153 109.035 87.0156C109.024 86.0205 109.012 85.0253 109 84C109.329 83.2111 109.657 82.4222 109.996 81.6094C110.327 81.0783 110.659 80.5472 111 80ZM84 102C82.4396 102.263 82.4396 102.263 80.8477 102.531C79.8873 102.768 78.927 103.006 77.9375 103.25C77.0803 103.482 76.223 103.714 75.3398 103.953C74.5677 104.299 73.7955 104.644 73 105C72.2175 105.614 71.4351 106.227 70.6289 106.859C69.8226 107.919 69.8226 107.919 69 109C69.0255 109.637 69.0509 110.275 69.0771 110.932C69.534 111.955 69.534 111.955 70 113C70.7331 113.544 71.4661 114.087 72.2214 114.647C73.6645 115.433 73.6645 115.433 75.1367 116.234C75.9123 116.659 75.9123 116.659 76.7036 117.092C77.239 117.382 77.7745 117.673 78.3262 117.973C78.8785 118.264 79.4307 118.556 79.9998 118.856C80.5567 119.151 81.1137 119.446 81.6875 119.75C82.2356 120.052 82.7837 120.354 83.3484 120.666C83.8902 120.965 84.432 121.265 84.9902 121.574C85.5274 121.864 86.0645 122.153 86.6179 122.451C87.1397 122.73 87.6616 123.009 88.1992 123.297C89.1669 123.816 90.1346 124.335 91.1316 124.87C92.0782 125.243 93.0247 125.616 94 126C95.6204 126.14 95.6204 126.14 97.2734 126.283C98.1732 126.19 99.073 126.096 100 126C100.706 125.095 100.706 125.095 101.426 124.172C101.718 123.373 102.011 122.573 102.312 121.75C102.618 120.961 102.924 120.172 103.238 119.359C103.615 118.191 103.615 118.191 104 117C104.195 116.327 104.389 115.654 104.59 114.961C104.725 114.314 104.861 113.667 105 113C105.067 112.317 105.134 111.634 105.203 110.93C105.219 110.252 105.234 109.574 105.25 108.875C105.289 107.85 105.289 107.85 105.328 106.805C105.22 106.209 105.112 105.614 105 105C104.603 104.611 104.206 104.221 103.797 103.82C103.204 103.55 102.611 103.279 102 103C101.239 102.799 100.479 102.598 99.6953 102.391C98.3611 102.197 98.3611 102.197 97 102C96.028 101.933 95.0561 101.866 94.0547 101.797C93.0054 101.781 91.9561 101.766 90.875 101.75C89.7393 101.76 88.6037 101.771 87.4336 101.781C85.734 101.89 85.734 101.89 84 102ZM63 117C62.3864 117.603 61.7728 118.207 61.1406 118.828C60.2048 120.027 60.2048 120.027 59.25 121.25C58.6158 122.039 57.9816 122.828 57.3281 123.641C56.6707 124.809 56.6707 124.809 56 126C56.0193 126.701 56.0387 127.402 56.0586 128.125C56.5246 129.053 56.5246 129.053 57 130C57.5633 130.469 58.1266 130.938 58.707 131.422C59.4018 131.86 60.0966 132.298 60.8125 132.75C61.5357 133.257 62.2588 133.763 63.0039 134.285C63.6626 134.851 64.3213 135.417 65 136C65.6323 137.019 65.6323 137.019 66.2773 138.059C66.5983 138.761 66.9193 139.464 67.25 140.188C67.6967 141.197 67.6967 141.197 68.1523 142.227C68.4321 142.812 68.7118 143.397 69 144C69.5981 144.681 70.1963 145.361 70.8125 146.062C71.5344 146.372 72.2563 146.681 73 147C74.0519 147.021 75.1037 147.041 76.1875 147.062C76.7843 146.949 77.3812 146.836 77.9961 146.719C78.6574 146.482 79.3187 146.244 80 146C80.7747 145.557 81.5495 145.113 82.3477 144.656C83.1404 144.13 83.9332 143.604 84.75 143.062C85.4873 142.538 86.2247 142.013 86.9844 141.473C87.6495 140.987 88.3147 140.501 89 140C89.6033 139.689 90.2066 139.379 90.8281 139.059C91.2148 138.709 91.6016 138.36 92 138C91.9523 137.366 91.9046 136.732 91.8555 136.078C91.432 135.049 91.432 135.049 91 134C90.6249 133.459 90.2498 132.917 89.8633 132.359C89.3515 131.828 88.8398 131.297 88.3125 130.75C87.6938 130.153 87.075 129.556 86.4375 128.941C85.6331 128.301 84.8288 127.66 84 127C83.4599 126.648 82.9198 126.296 82.3633 125.933C81.769 125.572 81.1748 125.212 80.5625 124.84C79.9472 124.481 79.3319 124.122 78.698 123.753C77.7647 123.226 77.7647 123.226 76.8125 122.688C75.9033 122.181 75.9033 122.181 74.9758 121.665C74.3921 121.346 73.8084 121.028 73.207 120.699C72.6497 120.403 72.0923 120.107 71.5181 119.802C71.0171 119.538 70.5161 119.273 70 119C69.2614 118.594 68.5227 118.188 67.7617 117.77C66.8897 117.389 66.8897 117.389 66 117C65.01 117 64.02 117 63 117Z" fill="black"/>
<path d="M75 24C75.8379 24.2088 76.6758 24.4177 77.5391 24.6328C78.7572 25.3096 78.7572 25.3096 80 26C80.1934 26.7193 80.3867 27.4386 80.5859 28.1797C80.5163 29.0691 80.4467 29.9586 80.375 30.875C80.1894 32.3426 80.1894 32.3426 80 33.8398C79.67 34.8827 79.34 35.9255 79 37C78.5205 37.8046 78.5205 37.8046 78.0312 38.6255C77.4589 39.4316 77.4589 39.4316 76.875 40.2539C76.471 40.7858 76.0671 41.3177 75.6509 41.8657C75.2298 42.3844 74.8088 42.9031 74.375 43.4375C73.726 44.1807 73.726 44.1807 73.064 44.939C72.6587 45.4116 72.2535 45.8842 71.8359 46.3711C70.9271 47.6724 70.9271 47.6724 70 49C69.913 50.0055 69.913 50.0055 69.8242 51.0312C70.2122 51.6809 70.6002 52.3306 71 53C71.4244 53.3952 71.8488 53.7904 72.2861 54.1975C72.8092 54.6183 73.3322 55.0391 73.8711 55.4727C74.4454 55.8974 75.0196 56.3221 75.6113 56.7598C76.5153 57.4046 76.5153 57.4046 77.4375 58.0625C78.3357 58.7132 78.3357 58.7132 79.252 59.377C79.8275 59.8004 80.4031 60.2239 80.9961 60.6602C81.5239 61.0379 82.0517 61.4157 82.5955 61.8049C83.059 62.1993 83.5225 62.5937 84 63C84.3932 63.4891 84.7865 63.9782 85.1917 64.4822C85.4584 64.9831 85.7252 65.4839 86 66C85.9794 66.8662 85.9588 67.7325 85.9375 68.625C85.6281 69.4087 85.3187 70.1925 85 71C84.2472 71.2913 83.4944 71.5827 82.7188 71.8828C81.373 71.9408 81.373 71.9408 80 72C78.8882 71.2343 78.8882 71.2343 77.7539 70.4531C77.0307 69.7261 76.3076 68.9991 75.5625 68.25C74.3965 67.1459 74.3965 67.1459 73.207 66.0195C72.4787 65.3531 71.7504 64.6866 71 64C70.4264 63.5914 69.8527 63.1827 69.2617 62.7617C68.7629 62.4897 68.264 62.2177 67.75 61.9375C66.8425 61.6281 65.935 61.3187 65 61C64.1544 61.0206 63.3087 61.0412 62.4375 61.0625C61.6331 61.3719 60.8288 61.6813 60 62C59.0512 62.5981 58.1025 63.1963 57.125 63.8125C56.4237 64.5344 55.7225 65.2563 55 66C55.0735 66.9494 55.0735 66.9494 55.1484 67.918C55.4295 68.605 55.7105 69.2921 56 70C56.5259 70.5878 57.0519 71.1756 57.5938 71.7812C58.2228 72.3484 58.8519 72.9156 59.5 73.5C60.1291 74.0672 60.7581 74.6344 61.4062 75.2188C61.9322 75.8066 62.4581 76.3944 63 77C63.2372 77.7322 63.4744 78.4644 63.7188 79.2188C63.8116 79.8066 63.9044 80.3944 64 81C63.4315 81.0464 62.863 81.0928 62.2773 81.1406C61.5052 81.1767 60.733 81.2128 59.9375 81.25C58.7019 81.2597 58.7019 81.2597 57.4414 81.2695C56.2329 81.1361 56.2329 81.1361 55 81C54.3696 80.6945 53.7393 80.389 53.0898 80.0742C52.5239 79.6991 51.958 79.324 51.375 78.9375C50.5455 78.4 50.5455 78.4 49.6992 77.8516C49.1385 77.5705 48.5777 77.2895 48 77C47.3671 76.9046 46.7341 76.8092 46.082 76.7109C45.4568 76.7445 44.8316 76.778 44.1875 76.8125C42.6097 77.4003 42.6097 77.4003 41 78C40.4431 78.99 39.8863 79.98 39.3125 81C39.1875 81.6252 39.0624 82.2504 38.9336 82.8945C38.9555 83.5893 38.9774 84.2841 39 85C39.3887 86.1505 39.3887 86.1505 39.7852 87.3242C40.1448 88.1041 40.5045 88.884 40.875 89.6875C41.2643 90.4132 41.6536 91.139 42.0547 91.8867C42.3666 92.5841 42.6786 93.2815 43 94C43.0438 94.7489 43.0877 95.4979 43.1328 96.2695C43.089 96.8406 43.0452 97.4116 43 98C42.0925 98.0825 41.185 98.165 40.25 98.25C39.1775 98.1675 38.105 98.085 37 98C36.2781 97.505 35.5562 97.01 34.8125 96.5C33.9153 95.2625 33.9153 95.2625 33 94C32.688 93.4173 32.3761 92.8347 32.0547 92.2344C31.7685 91.5795 31.4823 90.9247 31.1875 90.25C30.958 89.55 30.7286 88.8501 30.4922 88.1289C30.3298 87.4264 30.1673 86.7238 30 86C29.9201 85.3696 29.8402 84.7393 29.7578 84.0898C29.7759 83.4621 29.7939 82.8343 29.8125 82.1875C29.9363 81.5236 30.06 80.8598 30.1875 80.1758C30.4556 79.4578 30.7237 78.7398 31 78C31.7116 76.7838 31.7116 76.7838 32.4375 75.543C33.0562 74.6625 33.675 73.7821 34.3125 72.875C34.6605 72.4154 35.0086 71.9559 35.3672 71.4824C35.9279 70.7699 35.9279 70.7699 36.5 70.043C36.8996 69.551 37.2992 69.0591 37.7109 68.5522C38.1363 68.04 38.5617 67.5278 39 67C39.4538 66.4607 39.9075 65.9214 40.375 65.3657C40.8494 64.808 41.3237 64.2504 41.8125 63.6758C42.3013 63.1055 42.7901 62.5353 43.2937 61.9478C43.7949 61.3669 44.2961 60.786 44.8125 60.1875C45.3247 59.5989 45.8368 59.0103 46.3645 58.4038C46.8797 57.8104 47.3949 57.2169 47.9258 56.6055C48.4396 56.0091 48.9535 55.4128 49.4829 54.7983C49.9835 54.2049 50.4842 53.6114 51 53C51.7026 52.1272 51.7026 52.1272 52.4194 51.2368C52.8727 50.6598 53.326 50.0828 53.793 49.4883C54.242 48.9114 54.691 48.3346 55.1536 47.7402C55.5979 47.166 56.0422 46.5917 56.5 46C57.1597 45.1483 57.1597 45.1483 57.8328 44.2793C58.2772 43.7089 58.7217 43.1385 59.1797 42.5508C59.6318 41.9754 60.084 41.4 60.5498 40.8071C61.0284 40.2108 61.5069 39.6144 62 39C62.5379 38.3534 63.0757 37.7067 63.6299 37.0405C64.1877 36.3813 64.7456 35.7221 65.3203 35.043C65.8714 34.3978 66.4225 33.7526 66.9902 33.0879C67.5297 32.4608 68.0692 31.8336 68.625 31.1875C69.1464 30.5823 69.6679 29.9771 70.2051 29.3535C70.6865 28.7973 71.168 28.2411 71.6641 27.668C72.0915 27.1758 72.519 26.6836 72.9595 26.1765C73.3028 25.7883 73.6462 25.4 74 25C74.33 24.67 74.66 24.34 75 24Z" fill="black"/>
</g>
<defs>
<clipPath id="clip0_7_859">
<rect width="456" height="2405" fill="white" transform="translate(-304 -2007)"/>
</clipPath>
</defs>
</svg>
