<svg width="152" height="189" viewBox="0 0 152 189" fill="none" xmlns="http://www.w3.org/2000/svg">
<g clip-path="url(#clip0_7_859)">
<path d="M92 98C93.1176 97.9343 93.1176 97.9343 94.2578 97.8672C95.0184 97.8285 95.7789 97.7898 96.5625 97.75C97.7923 97.7771 97.7923 97.7771 99.0469 97.8047C100.021 97.8691 100.996 97.9336 102 98C102.952 98.0856 102.952 98.0856 103.924 98.1729C104.614 98.2421 105.304 98.3114 106.016 98.3828C107.078 98.5012 107.078 98.5012 108.162 98.6221C108.872 98.7055 109.581 98.789 110.312 98.875C110.994 98.9533 111.676 99.0316 112.379 99.1123C113.034 99.1964 113.689 99.2805 114.363 99.3672C114.987 99.4623 115.61 99.5573 116.252 99.6553C116.829 99.769 117.406 99.8828 118 100C118.963 100.312 119.926 100.624 120.918 100.945C121.605 101.293 122.292 101.641 123 102C123.495 102.99 123.495 102.99 124 104C124.101 105.04 124.101 105.04 124.203 106.102C124.219 106.934 124.234 107.767 124.25 108.625C124.245 109.521 124.24 110.417 124.234 111.34C124.157 112.218 124.08 113.096 124 114C123.667 115.085 123.667 115.085 123.328 116.191C123.055 116.85 122.782 117.509 122.5 118.188C122.222 118.828 121.943 119.469 121.656 120.129C121.44 120.746 121.223 121.364 121 122C120.954 122.911 120.954 122.911 120.906 123.84C120.937 124.429 120.968 125.018 121 125.625C121 126.739 121 127.852 121 129C120.595 129.953 120.19 130.905 119.773 131.887C119.499 132.405 119.224 132.923 118.94 133.457C118.63 133.966 118.32 134.475 118 135C117.312 135.88 116.623 136.761 115.914 137.668C115.159 138.499 114.403 139.331 113.625 140.188C112.875 141.027 112.125 141.866 111.352 142.73C110.188 143.854 110.188 143.854 109 145C107.712 145.86 107.712 145.86 106.398 146.738C105.607 147.155 104.815 147.571 104 148C102.515 148.495 102.515 148.495 101 149C100.379 149.079 99.7573 149.157 99.1172 149.238C98.3773 149.263 97.6373 149.287 96.875 149.312C96.0049 149.306 95.1348 149.3 94.2383 149.293C92.6353 149.148 92.6353 149.148 91 149C90.3134 148.88 89.6268 148.759 88.9194 148.635C87.805 148.408 87.805 148.408 86.668 148.176C85.5303 147.923 85.5303 147.923 84.3696 147.665C83.2276 147.398 83.2276 147.398 82.0625 147.125C81.3166 146.951 80.5707 146.778 79.8022 146.599C79.0954 146.424 78.3885 146.25 77.6602 146.07C77.0273 145.913 76.3945 145.756 75.7424 145.594C75.1674 145.398 74.5924 145.202 74 145C73.1133 144.565 73.1133 144.565 72.2087 144.121C71.8099 143.751 71.411 143.381 71 143C71.33 142.01 71.66 141.02 72 140C72.7737 139.795 72.7737 139.795 73.563 139.586C74.4947 139.482 74.4947 139.482 75.4453 139.375C76.3913 139.137 76.3913 139.137 77.3564 138.895C78.17 138.452 78.17 138.452 79 138C79.2768 137.426 79.5537 136.853 79.8389 136.262C79.9926 135.536 80.1463 134.81 80.3047 134.062C80.4654 132.856 80.4654 132.856 80.6294 131.625C80.7104 130.758 80.7915 129.892 80.875 129C80.9883 128.115 81.1016 127.229 81.2183 126.317C81.3267 125.411 81.4351 124.504 81.5469 123.57C81.6339 122.648 81.7209 121.725 81.8105 120.774C81.8731 119.859 81.9356 118.943 82 118C82.0213 117.118 82.0425 116.236 82.0645 115.327C82.069 114.474 82.0735 113.621 82.0781 112.742C82.0834 111.922 82.0886 111.102 82.094 110.257C82.1042 109.471 82.1145 108.685 82.125 107.875C82.1449 107.113 82.1648 106.352 82.1853 105.567C82.2311 104.864 82.277 104.161 82.3242 103.438C82.4046 102.811 82.485 102.185 82.5679 101.539C82.7105 101.031 82.8531 100.523 83 100C83.5633 99.4844 84.1266 98.9688 84.707 98.4375C85.4431 98.2519 86.1791 98.0662 86.9375 97.875C87.7599 97.857 88.5823 97.8389 89.4297 97.8203C90.2779 97.8796 91.1261 97.9389 92 98ZM95 105C94.0977 105.217 93.1953 105.433 92.2656 105.656C91.518 106.1 90.7703 106.543 90 107C89.8505 107.849 89.7009 108.699 89.5469 109.574C89.6139 110.602 89.6809 111.629 89.75 112.688C89.7964 113.774 89.8428 114.861 89.8906 115.98C89.9267 116.977 89.9628 117.973 90 119C89.933 119.636 89.8659 120.271 89.7969 120.926C89.6499 121.705 89.6499 121.705 89.5 122.5C89.4098 123.018 89.3195 123.536 89.2266 124.07C89.1518 124.707 89.077 125.344 89 126C88.9665 127.008 88.933 128.016 88.8984 129.055C88.8907 130.15 88.883 131.246 88.875 132.375C88.8724 133.414 88.8698 134.453 88.8672 135.523C88.911 136.341 88.9548 137.158 89 138C89.33 138.33 89.66 138.66 90 139C90.6239 139.067 91.2478 139.134 91.8906 139.203C92.6692 139.219 93.4478 139.234 94.25 139.25C95.0621 139.24 95.8742 139.229 96.7109 139.219C97.844 139.11 97.844 139.11 99 139C99.9488 138.588 100.897 138.175 101.875 137.75C102.576 137.173 103.277 136.595 104 136C104.639 135.361 105.279 134.721 105.938 134.062C106.463 133.042 106.463 133.042 107 132C106.876 131.319 106.752 130.639 106.625 129.938C106.089 129.298 105.553 128.659 105 128C104.426 127.801 103.853 127.603 103.262 127.398C102.618 127.205 101.975 127.012 101.312 126.812C100.692 126.584 100.072 126.356 99.4336 126.121C98.9605 125.751 98.4874 125.381 98 125C97.8879 124.29 97.7757 123.579 97.6602 122.848C97.7311 122.032 97.802 121.216 97.875 120.375C97.9962 119.578 98.1173 118.782 98.2422 117.961C98.4923 117.314 98.7423 116.667 99 116C99.99 115.67 100.98 115.34 102 115C102.516 115.351 103.031 115.701 103.562 116.062C104.037 116.702 104.511 117.341 105 118C105.392 119.052 105.784 120.104 106.188 121.188C106.456 122.116 106.724 123.044 107 124C107.99 123.67 108.98 123.34 110 123C110.306 121.362 110.306 121.362 110.617 119.691C110.666 119.027 110.715 118.362 110.766 117.678C110.802 116.98 110.838 116.282 110.875 115.562C110.934 114.868 110.994 114.174 111.055 113.459C111.096 112.793 111.137 112.127 111.18 111.441C111.12 110.306 111.061 109.17 111 108C110.546 107.612 110.093 107.224 109.625 106.824C109.089 106.552 108.553 106.28 108 106C107.278 105.794 106.556 105.588 105.812 105.375C104.884 105.251 103.956 105.127 103 105C102.364 104.957 101.729 104.915 101.074 104.871C100.39 104.852 99.7052 104.832 99 104.812C98.3606 104.798 97.7212 104.784 97.0625 104.77C96.3819 104.846 95.7013 104.922 95 105Z" fill="black"/>
<path d="M33 87C33.6007 87.2462 34.2014 87.4924 34.8203 87.7461C35.5396 88.1599 36.2589 88.5737 37 89C37.6368 89.486 38.2736 89.972 38.9297 90.4727C39.5716 90.9973 40.2136 91.522 40.875 92.0625C41.5711 92.5884 42.2672 93.1144 42.9844 93.6562C43.6495 94.0997 44.3147 94.5431 45 95C46.0312 95.3506 47.0625 95.7012 48.125 96.0625C49.5481 96.0316 49.5481 96.0316 51 96C51.99 95.6081 52.98 95.2163 54 94.8125C54.4911 94.5341 54.9823 94.2556 55.4883 93.9688C55.9871 93.6491 56.486 93.3294 57 93C57.5298 92.6391 58.0596 92.2781 58.6055 91.9062C59.1275 91.5453 59.6496 91.1844 60.1875 90.8125C61.5797 89.9153 61.5797 89.9153 63 89C63.99 89 64.98 89 66 89C66.3094 89.5362 66.6188 90.0725 66.9375 90.625C66.9581 91.4087 66.9787 92.1925 67 93C66.5669 93.9075 66.1337 94.815 65.6875 95.75C65.3214 96.254 64.9553 96.758 64.5781 97.2773C64.0573 97.8458 63.5366 98.4143 63 99C62.2111 99.7025 61.4222 100.405 60.6094 101.129C59.7277 101.849 58.8459 102.57 57.9375 103.312C57.0803 103.989 56.223 104.666 55.3398 105.363C54.5677 105.903 53.7955 106.444 53 107C52.01 107.33 51.02 107.66 50 108C50 108.66 50 109.32 50 110C50.9526 109.939 51.9052 109.879 52.8867 109.816C53.4958 109.776 54.1049 109.735 54.7324 109.693C55.3776 109.65 56.0228 109.607 56.6875 109.562C57.3133 109.523 57.9392 109.484 58.584 109.443C59.1995 109.401 59.815 109.36 60.4492 109.316C61.053 109.271 61.6567 109.226 62.2788 109.18C62.8468 109.121 63.4148 109.061 64 109C64.9552 108.803 65.9104 108.606 66.8945 108.402C67.5893 108.27 68.2841 108.137 69 108C69.33 108.33 69.66 108.66 70 109C70.1547 110.547 70.1547 110.547 70.3125 112.125C70.297 112.757 70.2816 113.388 70.2656 114.039C70.178 114.686 70.0903 115.333 70 116C69.8092 116.585 69.6184 117.17 69.4219 117.773C69.1383 118.343 68.8547 118.913 68.5625 119.5C68.1964 120.075 67.8303 120.65 67.4531 121.242C66.7338 122.112 66.7338 122.112 66 123C65.3555 123.601 64.7109 124.201 64.0469 124.82C63.3095 125.416 62.5722 126.011 61.8125 126.625C61.0365 127.205 60.2605 127.785 59.4609 128.383C58.6488 128.916 57.8367 129.45 57 130C56.1466 130.431 55.2933 130.861 54.4141 131.305C53.1882 131.896 53.1882 131.896 51.9375 132.5C51.2066 132.889 50.4757 133.279 49.7227 133.68C49.1542 134.115 48.5857 134.551 48 135C47.71 135.58 47.4199 136.16 47.1211 136.758C47.0399 137.374 46.9587 137.99 46.875 138.625C46.9549 139.219 47.0348 139.814 47.1172 140.426C47.4085 140.945 47.6998 141.465 48 142C48.5801 142.344 49.1602 142.688 49.7578 143.043C50.8677 143.424 50.8677 143.424 52 143.812C52.816 144.025 53.632 144.238 54.4727 144.457C55.3067 144.636 56.1407 144.815 57 145C57.7618 145.169 58.5237 145.338 59.3086 145.512C60.0111 145.673 60.7137 145.834 61.4375 146C62.3946 146.186 62.3946 146.186 63.3711 146.375C63.9086 146.581 64.4462 146.787 65 147C65.66 147.99 66.32 148.98 67 150C61.555 151.485 61.555 151.485 56 153C56.2681 153.866 56.5362 154.733 56.8125 155.625C56.9917 156.172 57.1709 156.718 57.3555 157.281C57.5682 157.848 57.7809 158.416 58 159C58.3964 159.789 58.3964 159.789 58.8008 160.594C59.0728 161.099 59.3448 161.604 59.625 162.125C60.0788 163.074 60.5325 164.022 61 165C61.0619 165.784 61.1238 166.567 61.1875 167.375C61.1256 167.911 61.0637 168.447 61 169C60.0964 168.934 59.1927 168.869 58.2617 168.801C57.1854 168.537 56.109 168.272 55 168C54.2639 167.292 53.5279 166.585 52.7695 165.855C52.1237 164.975 51.4779 164.095 50.8125 163.188C50.1589 162.315 49.5054 161.442 48.832 160.543C48.2275 159.704 47.6229 158.865 47 158C46.1396 156.911 46.1396 156.911 45.2617 155.801C44.8454 155.207 44.429 154.612 44 154C44 153.34 44 152.68 44 152C42.718 151.774 42.718 151.774 41.4102 151.543C40.3054 151.426 39.2007 151.308 38.0625 151.188C36.9604 151.078 35.8582 150.968 34.7227 150.855C33.3749 150.432 33.3749 150.432 32 150C31.6764 149.178 31.3529 148.355 31.0195 147.508C31.0131 146.68 31.0066 145.853 31 145C31.5362 144.567 32.0725 144.134 32.625 143.688C33.4087 143.461 34.1925 143.234 35 143C36.3613 142.938 36.3613 142.938 37.75 142.875C38.4925 142.916 39.235 142.957 40 143C40.0322 142.385 40.0645 141.77 40.0977 141.137C40.0861 140.328 40.0745 139.52 40.0625 138.688C39.9748 137.861 39.8872 137.035 39.7969 136.184C39.4024 135.103 39.4024 135.103 39 134C38.3864 133.64 37.7728 133.281 37.1406 132.91C35.9882 132.583 35.9882 132.583 34.8125 132.25C33.5943 131.954 33.5943 131.954 32.3516 131.652C31.5755 131.437 30.7995 131.222 30 131C29.1144 130.507 29.1144 130.507 28.2109 130.004C27.4568 129.414 27.4568 129.414 26.6875 128.812C26.2221 128.383 25.7568 127.954 25.2773 127.512C24.8558 127.013 24.4343 126.514 24 126C23.6094 125.388 23.2188 124.775 22.8164 124.145C22.4645 123.478 22.1126 122.812 21.75 122.125C21.4406 121.441 21.1312 120.756 20.8125 120.051C20.5444 119.374 20.2763 118.697 20 118C19.6597 117.062 19.6597 117.062 19.3125 116.105C19.1269 115.514 18.9412 114.922 18.75 114.312C18.5025 113.219 18.255 112.126 18 111C17.9587 110.031 17.9175 109.061 17.875 108.062C17.9163 107.382 17.9575 106.701 18 106C18.8456 105.897 19.6913 105.794 20.5625 105.688C21.6969 105.791 22.8312 105.894 24 106C24.8643 106.551 24.8643 106.551 25.7461 107.113C26.3249 107.571 26.9037 108.029 27.5 108.5C28.0801 108.952 28.6602 109.405 29.2578 109.871C30.1202 110.43 30.1202 110.43 31 111C32.1137 111.186 33.2275 111.371 34.375 111.562C35.2412 111.377 36.1075 111.191 37 111C37.2494 110.401 37.4989 109.802 37.7559 109.186C37.8364 108.464 37.917 107.743 38 107C37.8202 106.417 37.6404 105.833 37.4551 105.232C37.1502 104.65 36.8454 104.068 36.5312 103.469C36.2077 102.823 35.8841 102.177 35.5508 101.512C35.204 100.848 34.8573 100.184 34.5 99.5C34.1532 98.8361 33.8065 98.1723 33.4492 97.4883C33.1257 96.8425 32.8021 96.1966 32.4688 95.5312C32.1639 94.9492 31.859 94.3672 31.5449 93.7676C31.3651 93.1843 31.1853 92.601 31 92C31.1141 91.2878 31.2282 90.5756 31.3457 89.8418C31.6696 88.9301 31.6696 88.9301 32 88C32.33 87.67 32.66 87.34 33 87ZM35 120C35 120.99 35 121.98 35 123C35.99 123 36.98 123 38 123C37.67 122.01 37.34 121.02 37 120C36.34 120 35.68 120 35 120ZM48 121C48 121.99 48 122.98 48 124C49.32 123.34 50.64 122.68 52 122C50.68 121.67 49.36 121.34 48 121Z" fill="black"/>
<path d="M43 72C43.5543 72.0258 44.1086 72.0516 44.6797 72.0781C45.4041 72.1348 46.1286 72.1916 46.875 72.25C47.5943 72.2964 48.3136 72.3428 49.0547 72.3906C50.0176 72.6923 50.0176 72.6923 51 73C51.4151 73.6755 51.8302 74.3509 52.2578 75.0469C52.5027 75.6914 52.7477 76.3359 53 77C52.3619 77.058 51.7238 77.116 51.0664 77.1758C49.827 77.2435 49.827 77.2435 48.5625 77.3125C47.7401 77.3189 46.9177 77.3254 46.0703 77.332C45.3871 77.2225 44.7039 77.1129 44 77C43.6494 76.175 43.2988 75.35 42.9375 74.5C42.9581 73.675 42.9787 72.85 43 72Z" fill="black"/>
<path d="M91 71C92.2182 70.9169 92.2182 70.9169 93.4609 70.832C94.9034 70.8224 94.9034 70.8224 96.375 70.8125C97.8097 70.7912 97.8097 70.7912 99.2734 70.7695C100.173 70.8456 101.073 70.9216 102 71C103.133 71.408 103.133 71.408 104.289 71.8242C104.854 72.2122 105.418 72.6002 106 73C106.33 73.99 106.66 74.98 107 76C106.299 76.33 105.598 76.66 104.875 77C103.452 77.495 103.452 77.495 102 78C101.031 78.1238 100.061 78.2475 99.0625 78.375C97.5466 78.1894 97.5466 78.1894 96 78C95.4457 77.7267 94.8914 77.4534 94.3203 77.1719C93.7815 76.8264 93.2427 76.4809 92.6875 76.125C91.8006 75.4237 90.9137 74.7225 90 74C89.67 73.34 89.34 72.68 89 72C89.66 71.67 90.32 71.34 91 71Z" fill="black"/>
<path d="M90 56C90.6587 55.9214 91.3174 55.8427 91.9961 55.7617C92.8018 55.7372 93.6074 55.7127 94.4375 55.6875C95.2406 55.6501 96.0437 55.6127 96.8711 55.5742C97.5736 55.7147 98.2762 55.8552 99 56C99.4654 56.6252 99.9307 57.2504 100.41 57.8945C100.702 58.9367 100.702 58.9367 101 60C100.34 60.66 99.68 61.32 99 62C98.2137 61.9923 97.4273 61.9845 96.6172 61.9766C95.7123 61.8605 94.8073 61.7445 93.875 61.625C92.9649 61.5141 92.0548 61.4033 91.1172 61.2891C90.4185 61.1937 89.7198 61.0983 89 61C88.9794 60.3606 88.9588 59.7212 88.9375 59.0625C88.9581 58.3819 88.9787 57.7013 89 57C89.33 56.67 89.66 56.34 90 56Z" fill="black"/>
<path d="M47 56C48.0113 56.0097 48.0113 56.0097 49.043 56.0195C50.1045 56.1336 50.1045 56.1336 51.1875 56.25C51.8617 56.3377 52.5359 56.4253 53.2305 56.5156C54.1064 56.7554 54.1064 56.7554 55 57C55.66 57.66 56.32 58.32 57 59C57 59.8456 57 60.6913 57 61.5625C56.67 62.3669 56.34 63.1712 56 64C55.0925 64.33 54.185 64.66 53.25 65C52.1775 65 51.105 65 50 65C49.1131 64.6081 48.2262 64.2163 47.3125 63.8125C46.5494 63.2144 45.7862 62.6162 45 62C44.4019 61.2781 43.8037 60.5562 43.1875 59.8125C42.7956 59.2144 42.4038 58.6162 42 58C42.66 57.6494 43.32 57.2988 44 56.9375C44.99 56.6281 45.98 56.3187 47 56Z" fill="black"/>
<path d="M42 39.0001C43.0014 38.9179 43.0014 38.9179 44.0231 38.834C45.0738 38.796 45.0738 38.796 46.1458 38.7572C47.2517 38.7527 47.2517 38.7527 48.3799 38.748C49.5473 38.7587 49.5473 38.7587 50.7383 38.7697C51.9841 38.7697 51.9841 38.7697 53.2551 38.7697C54.553 38.7714 54.553 38.7714 55.8772 38.7731C57.2096 38.7822 57.2096 38.7822 58.5689 38.7916C59.4743 38.7985 60.3797 38.8055 61.3125 38.8126C62.2265 38.8167 63.1405 38.8207 64.0822 38.8249C65.4607 38.8307 65.4607 38.8307 66.8669 38.8366C67.7852 38.8416 68.7035 38.8466 69.6496 38.8518C71.0219 38.8614 71.0219 38.8614 72.4219 38.8712C73.3338 38.8801 74.2457 38.8889 75.1852 38.898C76.5254 38.9135 76.5254 38.9135 77.8926 38.9293C78.7587 38.9407 79.6249 38.952 80.5173 38.9637C81.3366 38.9757 82.1559 38.9877 83 39.0001C83.7406 39.0122 84.4813 39.0242 85.2444 39.0366C85.934 39.0492 86.6235 39.0618 87.334 39.0748C87.9881 39.0883 88.6422 39.1018 89.3161 39.1157C89.9388 39.1304 90.5615 39.1451 91.2031 39.1603C91.8047 39.177 92.4063 39.1937 93.026 39.2108C93.6036 39.2286 94.1811 39.2463 94.7761 39.2645C96.4029 39.3193 96.4029 39.3193 98.0625 39.3751C99.0755 39.4058 100.088 39.4365 101.132 39.4682C102.069 39.5071 103.007 39.546 103.973 39.5861C104.833 39.6438 105.693 39.7014 106.579 39.7609C107.378 39.8398 108.177 39.9188 109 40.0001C110.143 40.1534 110.143 40.1534 111.308 40.3097C112.01 40.4473 112.711 40.5849 113.434 40.7267C114.065 40.9091 114.696 41.0915 115.346 41.2794C115.892 41.5173 116.438 41.7551 117 42.0001C118.172 43.0249 118.172 43.0249 119.367 44.0704C119.906 45.0372 120.445 46.004 121 47.0001C121.318 47.98 121.318 47.98 121.642 48.9796C121.824 49.7057 122.007 50.4318 122.195 51.1798C122.354 51.9442 122.512 52.7087 122.676 53.4962C122.824 54.2813 122.972 55.0663 123.125 55.8751C123.281 56.6524 123.437 57.4297 123.598 58.2306C123.832 59.3811 123.832 59.3811 124.07 60.5548C124.22 61.3066 124.37 62.0584 124.525 62.8329C124.76 63.9057 124.76 63.9057 125 65.0001C125.276 65.9772 125.276 65.9772 125.557 66.974C125.739 67.5743 125.922 68.1746 126.109 68.7931C126.403 69.8514 126.697 70.9097 127 72.0001C127.064 72.8032 127.129 73.6063 127.195 74.4337C127.172 75.095 127.149 75.7563 127.125 76.4376C127.107 77.117 127.089 77.7963 127.07 78.4962C127.047 78.9925 127.024 79.4888 127 80.0001C126.092 80.1858 125.185 80.3714 124.25 80.5626C122.641 80.2842 122.641 80.2842 121 80.0001C120.621 79.5129 120.242 79.0256 119.852 78.5236C119.529 77.8352 119.207 77.1469 118.875 76.4376C118.563 75.6281 118.251 74.8186 117.93 73.9845C117.469 72.5072 117.469 72.5072 117 71.0001C116.838 70.3949 116.676 69.7897 116.509 69.1662C116.343 68.5184 116.178 67.8706 116.008 67.2033C115.839 66.5414 115.67 65.8796 115.497 65.1976C115.333 64.5343 115.169 63.871 115 63.1876C114.858 62.5417 114.716 61.8958 114.57 61.2304C114.35 60.3024 114.35 60.3024 114.125 59.3556C113.959 58.7713 113.794 58.1869 113.623 57.5849C113.315 56.8004 113.315 56.8004 113 56.0001C112.39 55.2267 111.781 54.4533 111.152 53.6564C110.442 53.1098 109.732 52.5633 109 52.0001C108.3 51.6663 107.6 51.3324 106.879 50.9884C106.114 50.7654 105.35 50.5424 104.562 50.3126C103.695 50.0806 102.827 49.8486 101.934 49.6095C100.966 49.4084 99.9974 49.2073 99 49.0001C97.8772 48.8197 96.7545 48.6392 95.5977 48.4533C93.8787 48.2599 93.8787 48.2599 92.125 48.0626C91.0551 47.9505 89.9852 47.8383 88.8828 47.7228C87.9315 47.8143 86.9802 47.9058 86 48.0001C85.2549 48.4938 84.5098 48.9876 83.7422 49.4962C82.8798 50.7357 82.8798 50.7357 82 52.0001C81.7784 52.5285 81.5567 53.0568 81.3284 53.6012C81.1465 54.2137 80.9647 54.8261 80.7773 55.4572C80.6302 56.1528 80.4831 56.8484 80.3315 57.5651C80.2221 58.3686 80.1127 59.1722 80 60.0001C79.9357 60.9597 79.8714 61.9192 79.8052 62.9079C79.7676 63.9528 79.7301 64.9977 79.6914 66.0744C79.6663 67.1539 79.6411 68.2335 79.6152 69.3458C79.5978 70.4486 79.5804 71.5514 79.5625 72.6876C79.5422 74.3592 79.5422 74.3592 79.5215 76.0646C79.4951 77.1403 79.4686 78.216 79.4414 79.3244C79.428 80.2946 79.4145 81.2649 79.4006 82.2645C79.2684 83.1673 79.1362 84.07 79 85.0001C78.3057 86.4094 78.3057 86.4094 77.5974 87.8471C77.0703 88.5576 76.5431 89.2681 76 90.0001C75.34 90.0414 74.68 90.0826 74 90.1251C73.34 89.7539 72.68 89.3826 72 89.0001C71.4698 88.3244 70.9396 87.6487 70.3933 86.9525C69.7036 85.4911 69.7036 85.4911 69 84.0001C68.8711 83.0893 68.8711 83.0893 68.7397 82.1601C68.7132 81.4895 68.6867 80.8188 68.6594 80.1278C68.6598 79.0473 68.6598 79.0473 68.6601 77.9449C68.6756 77.1832 68.6911 76.4216 68.707 75.6369C68.7113 74.8449 68.7155 74.0529 68.7199 73.2369C68.7253 72.4208 68.7307 71.6047 68.7363 70.7638C68.7487 69.9316 68.761 69.0995 68.7737 68.2421C68.7865 67.3991 68.7993 66.5561 68.8125 65.6876C68.82 64.8358 68.8275 63.984 68.8352 63.1063C68.8412 62.2637 68.8473 61.4211 68.8535 60.5529C68.8599 59.7384 68.8664 58.9239 68.873 58.0848C68.8836 56.904 68.8836 56.904 68.8945 55.6994C68.9039 54.9276 68.9134 54.1558 68.923 53.3607C68.9327 52.656 68.9424 51.9514 68.9524 51.2255C68.976 49.6289 68.976 49.6289 69 48.0001C68.2258 47.9033 67.4517 47.8065 66.6541 47.7067C65.6119 47.5947 64.5698 47.4827 63.4961 47.3673C62.3989 47.2768 61.3018 47.1862 60.1714 47.0929C59.1248 47.0623 58.0783 47.0317 57 47.0001C56.2357 47.101 55.4715 47.2019 54.6841 47.3058C53.7132 47.5606 53.7132 47.5606 52.7227 47.8204C51.7994 48.1298 51.7994 48.1298 50.8574 48.4454C50.2651 48.6697 49.6728 48.894 49.0625 49.1251C48.4431 49.3262 47.8237 49.5273 47.1855 49.7345C46.579 49.9485 45.9725 50.1625 45.3477 50.3829C44.773 50.6308 44.1983 50.8786 43.6062 51.1339C43.0762 51.4198 42.5461 51.7056 42 52.0001C41.1312 52.7194 40.2623 53.4387 39.3672 54.1798C38.9731 54.6115 38.5791 55.0432 38.1731 55.4879C37.786 55.987 37.3989 56.486 37 57.0001C36.5955 57.601 36.191 58.2019 35.7742 58.8209C35.3653 59.4782 34.9564 60.1355 34.5352 60.8126C34.1272 61.4958 33.7192 62.179 33.2988 62.8829C32.8908 63.5816 32.4829 64.2803 32.0625 65.0001C31.6584 65.6988 31.2543 66.3975 30.8379 67.1173C30.4286 67.8005 30.0193 68.4837 29.5977 69.1876C29.184 69.8412 28.7704 70.4947 28.3442 71.1681C27.6788 72.075 27.6788 72.075 27 73.0001C26.4778 73.5325 25.9555 74.0649 25.4175 74.6134C24.6211 75.2998 24.6211 75.2998 23.8086 76.0001C22.8818 76.6601 21.9549 77.3201 21 78.0001C20.34 78.0001 19.68 78.0001 19 78.0001C18.9333 77.4868 18.8666 76.9734 18.7979 76.4445C18.746 75.7152 18.6941 74.9859 18.6406 74.2345C18.6413 73.4114 18.6419 72.5884 18.6426 71.7404C18.8195 70.384 18.8195 70.384 19 69.0001C19.35 68.0701 19.7 67.14 20.0605 66.1818C20.5304 65.2195 21.0003 64.2572 21.4844 63.2658C22.2694 61.7866 22.2694 61.7866 23.0703 60.2775C23.9018 58.7789 23.9018 58.7789 24.75 57.2501C25.2888 56.2356 25.8277 55.2212 26.3828 54.1759C26.9113 53.1949 27.4398 52.214 27.9844 51.2033C28.4662 50.3232 28.9479 49.443 29.4443 48.5363C30.2144 47.2809 30.2144 47.2809 31 46.0001C31.5778 45.1091 32.1556 44.218 32.751 43.2999C33.4932 42.541 34.2353 41.7821 35 41.0001C36.0573 40.5718 37.1145 40.1434 38.2039 39.702C38.8108 39.5645 39.4177 39.4269 40.0431 39.2851C40.6889 39.1911 41.3346 39.097 42 39.0001Z" fill="black"/>
<path d="M84 16C85.0209 15.8995 85.0209 15.8995 86.0625 15.7969C86.7019 15.7814 87.3413 15.7659 88 15.75C88.6793 15.7603 89.3587 15.7706 90.0586 15.7812C91.0196 15.8895 91.0196 15.8895 92 16C93.0106 16.4125 94.0213 16.825 95.0625 17.25C95.7019 17.8275 96.3413 18.405 97 19C97.0413 19.66 97.0825 20.32 97.125 21C96.7537 21.66 96.3825 22.32 96 23C95.2884 23.5118 94.5769 24.0235 93.8438 24.5508C92.9053 25.029 91.9669 25.5073 91 26C89.4338 26.3616 89.4338 26.3616 87.8359 26.7305C86.1228 26.9567 86.1228 26.9567 84.375 27.1875C83.4617 27.3038 83.4617 27.3038 82.53 27.4224C81.6044 27.5323 81.6044 27.5323 80.6602 27.6445C80.0467 27.7072 79.4333 27.7699 78.8013 27.8345C77.9096 27.9164 77.9096 27.9164 77 28C75.9262 28.0864 74.8524 28.1727 73.7461 28.2617C72.778 28.2991 71.8099 28.3365 70.8125 28.375C69.9527 28.4034 69.0929 28.4317 68.207 28.4609C67.1146 28.2328 67.1146 28.2328 66 28C65.4057 27.3941 64.8115 26.7883 64.1992 26.1641C63.8035 25.4499 63.4077 24.7358 63 24C63 23.01 63 22.02 63 21C63.4585 20.7717 63.917 20.5433 64.3894 20.3081C65.0279 20.1626 65.6664 20.0171 66.3242 19.8672C67.0235 19.7009 67.7229 19.5346 68.4434 19.3633C69.5542 19.1216 69.5542 19.1216 70.6875 18.875C71.4087 18.7061 72.13 18.5373 72.873 18.3633C73.5788 18.1996 74.2846 18.0359 75.0117 17.8672C75.7019 17.7157 76.392 17.5643 77.103 17.4082C77.729 17.2735 78.355 17.1388 79 17C80.3709 16.7022 80.3709 16.7022 81.7695 16.3984C82.8736 16.2012 82.8736 16.2012 84 16Z" fill="black"/>
</g>
<defs>
<clipPath id="clip0_7_859">
<rect width="456" height="2405" fill="white" transform="translate(-304 -1173)"/>
</clipPath>
</defs>
</svg>
